<svg xmlns="http://www.w3.org/2000/svg" xmlns:xlink="http://www.w3.org/1999/xlink" width="225.186" height="238.216" viewBox="0 0 225.186 238.216">
  <defs>
    <linearGradient id="linear-gradient" x1="-59.658" y1="0.304" x2="-59.47" y2="0.849" gradientUnits="objectBoundingBox">
      <stop offset="0" stop-color="#ededed"/>
      <stop offset="0.164" stop-color="#d7d7d7"/>
      <stop offset="0.538" stop-color="#acacac"/>
      <stop offset="0.829" stop-color="#919191"/>
      <stop offset="1" stop-color="#878787"/>
    </linearGradient>
    <linearGradient id="linear-gradient-2" x1="-121.458" y1="0.417" x2="-120.533" y2="0.508" gradientUnits="objectBoundingBox">
      <stop offset="0" stop-color="#1d71b8"/>
      <stop offset="1" stop-color="#662483"/>
    </linearGradient>
    <linearGradient id="linear-gradient-3" x1="-176.089" y1="0.907" x2="-175.601" y2="-0.144" xlink:href="#linear-gradient"/>
    <linearGradient id="linear-gradient-4" x1="-58.89" y1="-0.03" x2="-59.004" y2="0.759" xlink:href="#linear-gradient-2"/>
    <linearGradient id="linear-gradient-5" y1="0.5" x2="1" y2="0.5" gradientUnits="objectBoundingBox">
      <stop offset="0.052" stop-color="#ca9e67"/>
      <stop offset="1" stop-color="#ad7633"/>
    </linearGradient>
    <linearGradient id="linear-gradient-7" x1="0.67" y1="0.187" x2="0.315" y2="0.84" xlink:href="#linear-gradient-5"/>
    <linearGradient id="linear-gradient-8" y1="0.5" x2="1" y2="0.5" gradientUnits="objectBoundingBox">
      <stop offset="0" stop-color="#ededed"/>
      <stop offset="0.041" stop-color="#eaeaea"/>
      <stop offset="0.645" stop-color="#d0d0d0"/>
      <stop offset="1" stop-color="#c6c6c6"/>
    </linearGradient>
    <linearGradient id="linear-gradient-9" x1="0.5" y1="1.163" x2="0.5" y2="0.29" xlink:href="#linear-gradient-8"/>
    <linearGradient id="linear-gradient-10" x1="0.5" y1="0.509" x2="0.5" y2="0.758" xlink:href="#linear-gradient-8"/>
    <linearGradient id="linear-gradient-11" x1="0.487" y1="0.725" x2="0.479" y2="0.869" xlink:href="#linear-gradient-8"/>
    <linearGradient id="linear-gradient-12" x1="0.5" y1="0.903" x2="0.5" y2="0.231" gradientUnits="objectBoundingBox">
      <stop offset="0" stop-color="#36a9e1"/>
      <stop offset="0.138" stop-color="#2e97d1"/>
      <stop offset="0.524" stop-color="#1b6ca8"/>
      <stop offset="0.824" stop-color="#0f5190"/>
      <stop offset="1" stop-color="#0b4787"/>
    </linearGradient>
    <linearGradient id="linear-gradient-13" x1="0.581" y1="-0.047" x2="0.453" y2="0.817" gradientUnits="objectBoundingBox">
      <stop offset="0" stop-color="#575756"/>
      <stop offset="1" stop-color="#fff" stop-opacity="0"/>
    </linearGradient>
    <linearGradient id="linear-gradient-14" x1="0.426" y1="0.921" x2="0.491" y2="0.396" xlink:href="#linear-gradient-8"/>
    <linearGradient id="linear-gradient-15" x1="0.424" y1="0.986" x2="0.497" y2="0.35" gradientUnits="objectBoundingBox">
      <stop offset="0" stop-color="#d60b52"/>
      <stop offset="0.048" stop-color="#d00a51"/>
      <stop offset="0.474" stop-color="#a50a4c"/>
      <stop offset="0.805" stop-color="#8a0a4a"/>
      <stop offset="1" stop-color="#800a49"/>
    </linearGradient>
    <linearGradient id="linear-gradient-16" x1="0.424" y1="0.908" x2="0.498" y2="0.345" xlink:href="#linear-gradient-8"/>
    <linearGradient id="linear-gradient-17" x1="0.32" y1="0.934" x2="0.528" y2="0.245" xlink:href="#linear-gradient-15"/>
    <linearGradient id="linear-gradient-18" x1="0.374" y1="0.987" x2="0.496" y2="0.352" xlink:href="#linear-gradient-8"/>
    <linearGradient id="linear-gradient-19" x1="0.5" y1="0.122" x2="0.5" y2="0.769" gradientUnits="objectBoundingBox">
      <stop offset="0" stop-color="#fcae08"/>
      <stop offset="1" stop-color="#fc5608"/>
    </linearGradient>
    <linearGradient id="linear-gradient-20" x1="0.5" y1="0.366" x2="0.5" y2="0.86" gradientUnits="objectBoundingBox">
      <stop offset="0" stop-color="#683c11"/>
      <stop offset="1" stop-color="#963305"/>
    </linearGradient>
    <radialGradient id="radial-gradient" cx="0.5" cy="0.5" r="0.601" gradientTransform="matrix(0.728, -0.014, 0.01, 1, 4.906, 0.303)" gradientUnits="objectBoundingBox">
      <stop offset="0" stop-color="#fff8c9"/>
      <stop offset="0.116" stop-color="#f9eeb7"/>
      <stop offset="0.346" stop-color="#ecd58b"/>
      <stop offset="0.371" stop-color="#ebd386"/>
      <stop offset="0.685" stop-color="#cb6c1e"/>
      <stop offset="1" stop-color="#774711"/>
    </radialGradient>
    <radialGradient id="radial-gradient-2" cx="0.5" cy="0.5" r="0.601" gradientTransform="matrix(0.728, -0.014, 0.01, 1, 4.907, 0.303)" xlink:href="#radial-gradient"/>
    <linearGradient id="linear-gradient-21" x1="0.5" y1="0.555" x2="0.5" y2="0.985" gradientUnits="objectBoundingBox">
      <stop offset="0" stop-color="#a60940"/>
      <stop offset="1" stop-color="#bd436c"/>
    </linearGradient>
    <linearGradient id="linear-gradient-22" x1="0.532" y1="0.474" x2="0.532" y2="0.904" gradientUnits="objectBoundingBox">
      <stop offset="0" stop-color="#d60b52"/>
      <stop offset="1" stop-color="#ed5488"/>
    </linearGradient>
  </defs>
  <g id="Group_1949" data-name="Group 1949" transform="translate(-966.272 -269.073)">
    <path id="Path_4713" data-name="Path 4713" d="M1028.4,376.438l-3.325-1.92a47.738,47.738,0,0,0-.322-5.591c-1.42-12.052-6.8-20.95-12.2-20.354-2.8.33-5.012,3.212-6.283,7.639-1.529-1.711-3.246-2.643-5.042-2.525-3.333.2-6.069,4.009-7.485,9.834L987.73,364.7v46.958l30.5,17.61,15.32-8.846Zm-15.827-27.663.086-.009c4.681-.436,9.709,8.446,11.01,19.493a47.029,47.029,0,0,1,.3,4.893L1010.9,365.6a26.3,26.3,0,0,0-3.953-9.228C1008.059,351.984,1010.062,349.072,1012.571,348.775Zm-2.94,16.1-3.594-2.074a34.686,34.686,0,0,1,.591-5.006A26.723,26.723,0,0,1,1009.631,364.872Zm-8.443-10.979c1.623-.1,3.223.943,4.655,2.783a33.672,33.672,0,0,0-.771,5.564l-7.271-4.2-2.236,4.316-.83.163C996.056,357.427,998.408,354.057,1001.188,353.894ZM997.8,369.783l13.391,7.731h0L997.8,369.783Zm14.365,8.293h0l5.969,3.446Z" transform="translate(3.816 14.133)" fill="#301842" opacity="0.4" style="mix-blend-mode: multiply;isolation: isolate"/>
    <path id="Path_4714" data-name="Path 4714" d="M1021.931,373.784a.5.5,0,0,0,.45-.489,47.683,47.683,0,0,0-.331-6.028c-1.42-12.05-6.8-20.949-12.2-20.354-4.828.57-7.945,8.715-7.41,19.365a.5.5,0,1,0,.993-.049c-.5-9.95,2.31-17.829,6.533-18.327l.086-.009c4.681-.436,9.709,8.445,11.01,19.493a46.313,46.313,0,0,1,.325,5.9.5.5,0,0,0,.492.5A.379.379,0,0,0,1021.931,373.784Z" transform="translate(6.421 13.838)" fill="#dadada"/>
    <path id="Path_4715" data-name="Path 4715" d="M1026.781,373.226l-30.5-17.609v11.74l20.333,11.739Z" transform="translate(5.337 15.391)" fill="url(#linear-gradient)"/>
    <path id="Path_4716" data-name="Path 4716" d="M1023.711,370.567l-7.582,1.618-2.585,4.252v46.958l15.32-8.845Z" transform="translate(8.407 18.049)" fill="url(#linear-gradient-2)"/>
    <path id="Path_4717" data-name="Path 4717" d="M997.815,355.617l-2.237,4.316-7.93,1.554v11.74l10.167-5.87Z" transform="translate(3.802 15.391)" fill="url(#linear-gradient-3)"/>
    <path id="Path_4718" data-name="Path 4718" d="M1018.149,378.209l-30.5-17.609v46.958l30.5,17.609Z" transform="translate(3.802 16.277)" fill="url(#linear-gradient-4)"/>
    <path id="Path_4719" data-name="Path 4719" d="M1016.129,371.941l6.236,46.118-8.821,5.092V376.193Z" transform="translate(8.407 18.294)" fill="#9d9d9c" opacity="0.3" style="mix-blend-mode: multiply;isolation: isolate"/>
    <path id="Path_4720" data-name="Path 4720" d="M1010.867,378.783a.5.5,0,0,0,.5-.464,47.487,47.487,0,0,0,.021-6.035c-.714-12.114-5.509-21.39-10.99-21.031-4.853.286-8.44,8.234-8.529,18.9a.5.5,0,0,0,.492.5h0a.5.5,0,0,0,.5-.493c.084-9.962,3.348-17.663,7.594-17.914,4.722-.287,9.281,8.924,9.94,20.1a46.591,46.591,0,0,1-.021,5.909.5.5,0,0,0,.462.53Z" transform="translate(4.552 14.613)" fill="#dadada"/>
    <path id="Path_4721" data-name="Path 4721" d="M990.364,385.134l-24.092,13.91v27.819l6.379,3.683v.032l12.291,7.1v-.032l5.422,3.131,24.092-13.91V399.044Z" transform="translate(0 20.64)" fill="#301842" opacity="0.4" style="mix-blend-mode: multiply;isolation: isolate"/>
    <path id="Path_4722" data-name="Path 4722" d="M966.272,395.284V423.1l24.092,13.91V409.194Z" transform="translate(0 22.445)" fill="url(#linear-gradient-5)"/>
    <path id="Path_4723" data-name="Path 4723" d="M986.727,437.013l24.092-13.91V395.284l-24.092,13.91Z" transform="translate(3.638 22.445)" fill="url(#linear-gradient-5)"/>
    <path id="Path_4724" data-name="Path 4724" d="M1014.456,397.384l-24.092-13.91-24.092,13.91,24.092,13.91Z" transform="translate(0 20.345)" fill="url(#linear-gradient-7)"/>
    <path id="Path_4725" data-name="Path 4725" d="M971.688,426.236l.245-27.678,12.046,6.955v27.819Z" transform="translate(0.963 23.027)" fill="#ca9e67"/>
    <path id="Path_4726" data-name="Path 4726" d="M983.942,406.058l6.331-3.612-12.046-6.955L971.9,399.1Z" transform="translate(1 22.482)" fill="#ca9e67"/>
    <path id="Path_4727" data-name="Path 4727" d="M998.565,397.087l6.331-3.612-12.046-6.955-6.331,3.612Z" transform="translate(3.601 20.886)" fill="#ca9e67"/>
    <path id="Path_4728" data-name="Path 4728" d="M1096.036,450.823l-46.393-26.785-36.138,17.7V444.9l48.184,27.819,36.138-20.864v-.887Z" transform="translate(8.4 27.559)" fill="#301842" opacity="0.4" style="mix-blend-mode: multiply;isolation: isolate"/>
    <path id="Path_4729" data-name="Path 4729" d="M1096.036,448.887,1049.643,422.1l-34.794,20.089-1.344-.111v.887l48.184,27.819,36.138-20.864v-.887Z" transform="translate(8.4 27.214)" fill="#878787"/>
    <path id="Path_4730" data-name="Path 4730" d="M1013.5,442.214l48.184,27.819,36.138-20.864-48.184-27.819Z" transform="translate(8.4 27.08)" fill="url(#linear-gradient-8)"/>
    <path id="Path_4731" data-name="Path 4731" d="M1025.968,440.211l6.576,3.8a.917.917,0,0,0,.916,0l6.577-3.8a.916.916,0,0,0,0-1.587l-6.577-3.8a.916.916,0,0,0-.916,0l-6.576,3.8A.915.915,0,0,0,1025.968,440.211Z" transform="translate(10.535 29.456)" fill="none" stroke="#36a9e1" stroke-miterlimit="10" stroke-width="1"/>
    <path id="Path_4732" data-name="Path 4732" d="M1036.039,435.206l3.77,2.177,11.311-6.53-3.77-2.177Z" transform="translate(12.407 28.383)" fill="#9d9d9c"/>
    <path id="Path_4733" data-name="Path 4733" d="M1035.968,446.911l6.576,3.8a.916.916,0,0,0,.916,0l6.577-3.8a.916.916,0,0,0,0-1.587l-6.577-3.8a.916.916,0,0,0-.916,0l-6.576,3.8A.915.915,0,0,0,1035.968,446.911Z" transform="translate(12.313 30.647)" fill="none" stroke="#36a9e1" stroke-miterlimit="10" stroke-width="1"/>
    <path id="Path_4734" data-name="Path 4734" d="M1046.039,441.906l3.77,2.177,11.311-6.53-3.77-2.177Z" transform="translate(14.186 29.575)" fill="#9d9d9c"/>
    <path id="Path_4735" data-name="Path 4735" d="M1046.5,453.551l6.577,3.8a.914.914,0,0,0,.915,0l6.577-3.8a.916.916,0,0,0,0-1.587l-6.577-3.8a.914.914,0,0,0-.915,0l-6.577,3.8A.916.916,0,0,0,1046.5,453.551Z" transform="translate(14.186 31.828)" fill="none" stroke="#36a9e1" stroke-miterlimit="10" stroke-width="1"/>
    <path id="Path_4736" data-name="Path 4736" d="M1056.569,448.546l3.77,2.177,11.311-6.53-3.77-2.177Z" transform="translate(16.058 30.756)" fill="#9d9d9c"/>
    <path id="Path_4737" data-name="Path 4737" d="M1028.409,439.682l5.776.848-2.08-7.165" transform="translate(11.051 29.217)" fill="none" stroke="#e30613" stroke-linecap="round" stroke-linejoin="round" stroke-width="1"/>
    <path id="Path_4738" data-name="Path 4738" d="M1037.537,445.64l5.776.848-2.08-7.165" transform="translate(12.674 30.277)" fill="none" stroke="#e30613" stroke-linecap="round" stroke-linejoin="round" stroke-width="1"/>
    <path id="Path_4739" data-name="Path 4739" d="M1072.436,393.986h-.015V394c.305.854,6.438,18.094-.016,21.812-.949.563-2.045,1.191-3.187,1.852h-.016l-4.6,2.656L1058.134,423l-2.768-1.717v5.465a2.24,2.24,0,0,0,1.327,1.846l17.578,10.156a6.943,6.943,0,0,0,6.391-.048l7.888-4.668,1.031-.611.1.048q1.544-.966,2.849-1.787l.386-.226a.418.418,0,0,1,.1-.08c1.819-1.143,3.042-1.915,3.042-1.915s7.711-4.089,7.711-18.625Z" transform="translate(15.844 22.214)" fill="#301842" opacity="0.4" style="mix-blend-mode: multiply;isolation: isolate"/>
    <path id="Path_4740" data-name="Path 4740" d="M1039.12,293.456l9.577-4.105,8.528,4.645-8.3,4.792Z" transform="translate(12.955 3.606)" fill="#eaeaea"/>
    <path id="Path_4741" data-name="Path 4741" d="M1072.436,392.064h-.015v.016c.305.853,6.438,18.093-.016,21.811-.949.564-2.045,1.192-3.187,1.852h-.016l-4.6,2.656-6.464,2.681-2.768-1.716v5.464a2.24,2.24,0,0,0,1.327,1.846l17.578,10.158a6.949,6.949,0,0,0,6.391-.048l7.888-4.669,1.031-.611.1.048q1.544-.966,2.849-1.787l.386-.225a.4.4,0,0,1,.1-.081c1.819-1.143,3.042-1.915,3.042-1.915s7.711-4.089,7.711-18.625Z" transform="translate(15.844 21.872)" fill="url(#linear-gradient-9)"/>
    <path id="Path_4742" data-name="Path 4742" d="M1056.182,398.8c-7.061-4.035-12.838-13.99-12.838-22.123V298.123c0-8.133,5.788-11.5,12.861-7.49l87.489,49.635c7.074,4.014,12.861,13.952,12.861,22.083v79.016c0,8.133-5.777,11.485-12.839,7.451Z" transform="translate(13.706 3.533)" fill="#eaeaea"/>
    <path id="Path_4743" data-name="Path 4743" d="M1129.9,430.647l7.587-3.157c.925-.564,1.916-3.311,1.916-4.4v-8.44l-12.092,6.164Z" transform="translate(28.639 25.89)" fill="#eaeaea"/>
    <path id="Path_4744" data-name="Path 4744" d="M1101.637,404.2c0,14.536-5.585,18.625-5.585,18.625s-1.224.773-3.042,1.915a.4.4,0,0,0-.1.081l-.386.225q-1.3.822-2.849,1.787l-.1-.048-1.031.611-7.888,4.669a6.95,6.95,0,0,1-6.391.048l-17.578-10.158c-1.77-1.014-1.77-2.673,0-3.7l7.9-4.572,4.6-2.656h.016c1.142-.66,2.238-1.287,3.187-1.852,6.454-3.718.321-20.958.016-21.811v-.016h.015Z" transform="translate(15.844 21.033)" fill="url(#linear-gradient-10)"/>
    <path id="Path_4745" data-name="Path 4745" d="M1100.244,404.2c0,14.536-5.585,18.625-5.585,18.625s-1.224.773-3.042,1.915a.4.4,0,0,0-.1.081l-.386.225q-1.3.822-2.849,1.787l-.1-.048-1.031.611L1063.2,413.681l4.6-2.656h.016c1.142-.66,2.238-1.287,3.187-1.852,6.455-3.718.322-20.958.016-21.811l.016-.016Z" transform="translate(17.238 21.033)" fill="#c8d5db" style="mix-blend-mode: multiply;isolation: isolate"/>
    <path id="Path_4746" data-name="Path 4746" d="M1149.85,365.112v79.1c0,8.14-5.773,11.507-12.841,7.456l-81.224-46.4-6.4-3.663c-7.068-4.034-12.86-14.006-12.86-22.147V300.817c0-8.141,5.81-11.509,12.877-7.493l57.209,32.452,30.38,17.245C1144.058,347.034,1149.85,356.971,1149.85,365.112Z" transform="translate(12.494 4.011)" fill="url(#linear-gradient-11)"/>
    <path id="Path_4747" data-name="Path 4747" d="M1149.85,365.112V438.6l-113.326-65.553V300.817c0-8.141,5.81-11.509,12.877-7.493l87.589,49.7C1144.058,347.034,1149.85,356.971,1149.85,365.112Z" transform="translate(12.494 4.011)" fill="#212121"/>
    <path id="Path_4748" data-name="Path 4748" d="M1041.236,369.009v-69.03c0-1.094.163-3.637,1.671-3.637a6.106,6.106,0,0,1,2.913.969l87.819,50.54c5.855,3.386,9.821,10.266,9.821,16.423V428.14Z" transform="translate(13.331 4.849)" fill="#2d2e83"/>
    <path id="Path_4749" data-name="Path 4749" d="M1106.61,325.776l-50.825,79.485-6.4-3.663c-7.068-4.034-12.86-14.006-12.86-22.147V300.817c0-8.141,5.81-11.509,12.877-7.493Z" transform="translate(12.494 4.011)" fill="#fff" opacity="0.1" style="mix-blend-mode: screen;isolation: isolate"/>
    <path id="Path_4750" data-name="Path 4750" d="M1065.62,373.518l42.188,24.364V349.246l-42.268-24.056Z" transform="translate(17.654 9.98)" fill="#29235c"/>
    <path id="Path_4751" data-name="Path 4751" d="M1058.047,377.764l42.188,24.364V353.492l-42.267-24.056Z" transform="translate(16.307 10.735)" fill="url(#linear-gradient-12)"/>
    <path id="Path_4752" data-name="Path 4752" d="M1086.713,360.589a4.526,4.526,0,0,0-1.548-1.578L1072,351.226a2.654,2.654,0,0,0-1.106-.382l-.3-2.292a1.541,1.541,0,0,0-.747-1.013l-1.013-.6-1.94-1.152c-.371-.219-.735-.172-.812.114l-.014.054a.979.979,0,0,0,.545.927l2.576,1.525.526,4.619.8,7.071a1.7,1.7,0,0,0-2.453,1.147,4.3,4.3,0,0,0,2.065,3.978,1.992,1.992,0,0,0-.332.969,4.653,4.653,0,0,0,2.141,3.9c1.6,1.04,3.1.538,3.283-1a2.982,2.982,0,0,0-.044-.947l3.111,1.8a2.182,2.182,0,0,0-.243,1.106,5.226,5.226,0,0,0,2.3,3.876c1.583,1.031,2.97.481,3.039-1.118a5.2,5.2,0,0,0-2.519-4.2l-10.243-5.943a1.556,1.556,0,0,1-.8-1.369c.068-.49.555-.636,1.071-.336l1.523.886,8.187,4.763,2.284,1.329c1.008.587,1.909.415,2.18-.4l2.014-6.116A2.384,2.384,0,0,0,1086.713,360.589Zm-5.923,10.8a1.69,1.69,0,0,1,.816,1.39c-.029.494-.451.673-.936.392a1.684,1.684,0,0,1-.816-1.405C1079.891,371.282,1080.307,371.111,1080.789,371.391Zm-8.129-4.7a1.522,1.522,0,0,1,.761,1.364c-.067.476-.524.636-1.016.352a1.517,1.517,0,0,1-.761-1.379C1071.718,366.556,1072.17,366.4,1072.66,366.686Zm-1.265-12.679-.162-1.266a.239.239,0,0,1,.139-.287.435.435,0,0,1,.392.065l1.479.873.154,1.8-2-1.179v0Zm.208,1.642,1.929,1.133.151,1.77-1.85-1.085Zm1.058,5.615a.876.876,0,0,1-.423-.605l-.184-1.444,1.771,1.036.154,1.779-1.318-.769v0Zm4.259,2.484-1.2-.7-.18-1.791,1.551.907-.176,1.582Zm.344-3.1-1.892-1.108-.178-1.783,2.244,1.318Zm.331-2.993-2.558-1.506-.182-1.813,2.918,1.722Zm2.358,7.86-1.334-.779.148-1.595,1.667.974Zm.945-2.737-1.988-1.165.147-1.588,2.321,1.364Zm-1.708-4.184.151-1.611,2.953,1.743-.485,1.409Zm4.268,8.6c-.062.18-.261.218-.489.085l-1.293-.755.457-1.41,1.709,1Zm.85-2.417-1.743-1.022.452-1.4,1.779,1.045Zm1.266-3.6-.342.968-1.809-1.066.457-1.423,1.272.75a.947.947,0,0,1,.346.365A.528.528,0,0,1,1085.575,361.181Z" transform="translate(17.745 13.618)" fill="#fff"/>
    <path id="Path_4753" data-name="Path 4753" d="M1066.665,372.549l.582-.72a6.293,6.293,0,0,0,1.84,1.688c.782.451,1.123.376,1.157.032.1-1.036-3.294-2.26-3.04-4.3.113-.91.978-1.194,2.554-.243a7,7,0,0,1,1.848,1.6l-.474.7a5.922,5.922,0,0,0-1.484-1.33c-.765-.457-1.092-.359-1.13-.021-.114,1,3.194,2.221,3.02,4.234-.081.936-.935,1.3-2.571.371A7.516,7.516,0,0,1,1066.665,372.549Z" transform="translate(17.854 17.667)" fill="#fff"/>
    <path id="Path_4754" data-name="Path 4754" d="M1076.619,373.378l-.224,5.435-1.225-.7.115-2.287-2.412-1.409-.159,2.3-1.279-.73.436-5.467,1.223.737-.146,2.1,2.391,1.411.106-2.093Z" transform="translate(18.702 18.04)" fill="#fff"/>
    <path id="Path_4755" data-name="Path 4755" d="M1076.5,375.893c.055-1.592,1.239-2.055,2.777-1.128a5.476,5.476,0,0,1,2.616,4.294c.011,1.624-1.124,2.188-2.69,1.3A5.394,5.394,0,0,1,1076.5,375.893Zm4.267,2.505a3.2,3.2,0,0,0-1.5-2.6c-.873-.522-1.554-.229-1.578.794a3.173,3.173,0,0,0,1.532,2.664C1080.106,379.764,1080.768,379.43,1080.77,378.4Z" transform="translate(19.603 18.712)" fill="#fff"/>
    <path id="Path_4756" data-name="Path 4756" d="M1085.758,380.769c.048,1.185-.682,1.491-1.914.777L1082.9,381l.032,1.521-1.108-.632-.067-5.373,1.982,1.2A3.921,3.921,0,0,1,1085.758,380.769Zm-1.055-.624a1.817,1.817,0,0,0-.994-1.491l-.864-.516.038,1.842.875.512C1084.407,380.874,1084.723,380.721,1084.7,380.145Z" transform="translate(20.538 19.107)" fill="#fff"/>
    <path id="Path_4757" data-name="Path 4757" d="M1058.047,377.764l42.188,24.364V353.492l-42.267-24.056Z" transform="translate(16.307 10.735)" fill="url(#linear-gradient-13)" style="mix-blend-mode: multiply;isolation: isolate"/>
    <path id="Path_4758" data-name="Path 4758" d="M1045.741,295.788l19.151,11.039-19.146,11.035L1026.62,306.82Z" transform="translate(10.732 4.751)" fill="#eaeaea"/>
    <path id="Path_4759" data-name="Path 4759" d="M1061.989,305.154l19.151,11.039-19.161,11.044-19.122-11.04Z" transform="translate(13.62 6.417)" fill="#d60b52"/>
    <path id="Path_4760" data-name="Path 4760" d="M1078.021,314.521l19.151,11.039-18.954,11.053-19.125-11.042Z" transform="translate(16.507 8.082)" fill="#eaeaea"/>
    <path id="Path_4761" data-name="Path 4761" d="M1094.269,323.887l19.151,11.039-18.94,11.048-19.151-11.026Z" transform="translate(19.395 9.748)" fill="#d60b52"/>
    <path id="Path_4762" data-name="Path 4762" d="M1110.513,333.254l19.151,11.039-18.925,11.067-19.144-11.032Z" transform="translate(22.287 11.414)" fill="#eaeaea"/>
    <path id="Path_4763" data-name="Path 4763" d="M1026.62,305.155V321.7a9.569,9.569,0,0,0,4.777,8.283h0a9.568,9.568,0,0,0,14.358-8.283l-.009-5.5Z" transform="translate(10.732 6.417)" fill="url(#linear-gradient-14)"/>
    <path id="Path_4764" data-name="Path 4764" d="M1042.866,314.53v16.544a9.567,9.567,0,0,0,4.778,8.283h0A9.568,9.568,0,0,0,1062,331.074l-.01-5.5Z" transform="translate(13.621 8.084)" fill="url(#linear-gradient-15)"/>
    <path id="Path_4765" data-name="Path 4765" d="M1059.113,323.9v16.545a9.567,9.567,0,0,0,4.778,8.283h0a9.568,9.568,0,0,0,14.358-8.283l-.009-5.5Z" transform="translate(16.511 9.751)" fill="url(#linear-gradient-16)"/>
    <path id="Path_4766" data-name="Path 4766" d="M1075.36,333.278v16.544a9.568,9.568,0,0,0,4.778,8.283h0a9.568,9.568,0,0,0,14.358-8.283l-.011-5.5Z" transform="translate(19.4 11.418)" fill="url(#linear-gradient-17)"/>
    <path id="Path_4767" data-name="Path 4767" d="M1091.607,342.639v16.545a9.567,9.567,0,0,0,4.778,8.283h0a9.568,9.568,0,0,0,14.358-8.283l-.011-5.5Z" transform="translate(22.289 13.083)" fill="url(#linear-gradient-18)"/>
    <path id="Path_4768" data-name="Path 4768" d="M1164.5,380.479l-1.375-.926a1,1,0,0,0-.3-.2h0a.953.953,0,0,0-.876.04l-46.24,26.7a.97.97,0,0,0-.486.841v39.933l.222.159a.961.961,0,0,0,.417.3l1.412,1.012.183-1.525,45.446-26.239a.971.971,0,0,0,.485-.841l.018-37.5h0Z" transform="translate(26.488 19.596)" fill="#c25700"/>
    <path id="Path_4769" data-name="Path 4769" d="M1116.549,447.332V407.846a.973.973,0,0,1,.485-.842l46.24-26.7a.971.971,0,0,1,1.457.841l-.019,39.5a.97.97,0,0,1-.485.84l-46.222,26.689A.972.972,0,0,1,1116.549,447.332Z" transform="translate(26.725 19.758)" fill="url(#linear-gradient-19)"/>
    <path id="Path_4770" data-name="Path 4770" d="M1116.549,412.72v7.656l48.18-27.817,0-7.658Z" transform="translate(26.725 20.598)" fill="url(#linear-gradient-20)"/>
    <path id="Path_4771" data-name="Path 4771" d="M1129.026,413.156v2.986l18.791-10.849v-2.987Z" transform="translate(28.944 23.694)" fill="#e94e1b"/>
    <path id="Path_4772" data-name="Path 4772" d="M1122.547,429.986l-.056,3.331-.329.212.038-2.915-.549.327,0-.431Z" transform="translate(27.632 28.616)" fill="#5e200b"/>
    <path id="Path_4773" data-name="Path 4773" d="M1124.738,431.164l-.409.259-.03.78-.3.194.027-.783-1.248.787.007-.326,1.226-2.89.348-.2-1.17,2.768.86-.537.023-.709.3-.181-.027.707.411-.257Z" transform="translate(27.833 28.437)" fill="#5e200b"/>
    <path id="Path_4774" data-name="Path 4774" d="M1126.075,430.145a1.889,1.889,0,0,1-.827,1.466.707.707,0,0,1-.753.113l.156-.446c.133.11.362.1.614-.061a1.113,1.113,0,0,0,.519-.87c.02-.357-.115-.489-.6-.191l-.482.3.191-1.787,1.2-.7-.023.408-.935.557-.1.934.235-.145C1125.89,429.335,1126.107,429.585,1126.075,430.145Z" transform="translate(28.138 28.256)" fill="#5e200b"/>
    <path id="Path_4775" data-name="Path 4775" d="M1128.327,428.861l-.351.22-.06.743-.258.166.059-.746-1.064.671.021-.311,1.144-2.672.294-.173-1.091,2.561.733-.457.053-.674.253-.155-.054.671.351-.219Z" transform="translate(28.522 28.043)" fill="#5e200b"/>
    <path id="Path_4776" data-name="Path 4776" d="M1129.64,427.889a1.792,1.792,0,0,1-.78,1.316c-.431.279-.677.119-.63-.429a1.694,1.694,0,0,1,.384-.936c-.154-.029-.223-.2-.2-.511a1.629,1.629,0,0,1,.734-1.241c.39-.23.616-.057.564.458a1.6,1.6,0,0,1-.312.809C1129.589,427.366,1129.674,427.548,1129.64,427.889Zm-.246.144c.032-.33-.119-.432-.4-.258a1.1,1.1,0,0,0-.5.826c-.029.34.12.442.4.262A1.127,1.127,0,0,0,1129.394,428.033Zm-.718-.842c-.027.305.1.4.35.253a.971.971,0,0,0,.442-.731c.031-.309-.108-.405-.35-.263A.968.968,0,0,0,1128.675,427.191Z" transform="translate(28.801 27.905)" fill="#5e200b"/>
    <path id="Path_4777" data-name="Path 4777" d="M1131.066,425.014l-.033.294-.966,3.093-.253.164.945-3.015-.776.462-.056.545-.237.143.094-.931Z" transform="translate(29.062 27.732)" fill="#5e200b"/>
    <path id="Path_4778" data-name="Path 4778" d="M1132.433,426.106a1.755,1.755,0,0,1-.688,1.233c-.22.143-.423.154-.53.022l.143-.39c.084.113.243.13.432.008a1.013,1.013,0,0,0,.425-.734c.039-.3-.051-.429-.317-.265l-.124.078.035-.292.507-1.144-.759.452.045-.373,1.036-.61-.038.287-.524,1.19C1132.379,425.435,1132.49,425.664,1132.433,426.106Z" transform="translate(29.333 27.568)" fill="#5e200b"/>
    <path id="Path_4779" data-name="Path 4779" d="M1133.551,425.344a1.8,1.8,0,0,1-.634,1.2c-.392.253-.55-.107-.43-1.013a2.688,2.688,0,0,1,.911-1.945c.139-.081.263-.1.339-.044l-.124.369c-.061-.054-.157-.032-.262.031a1.9,1.9,0,0,0-.641,1.388c0,.032-.01.065-.012.1a1.3,1.3,0,0,1,.476-.637C1133.465,424.618,1133.625,424.827,1133.551,425.344Zm-.2.141c.047-.33-.052-.464-.256-.338a1.134,1.134,0,0,0-.415.763c-.039.29.048.464.274.32A1.089,1.089,0,0,0,1133.349,425.485Z" transform="translate(29.552 27.465)" fill="#5e200b"/>
    <path id="Path_4780" data-name="Path 4780" d="M1134.7,424.771l-.257.161-.1.668-.188.122.1-.67-.775.489.04-.279.992-2.286.214-.126-.948,2.193.534-.332.091-.6.185-.113-.092.6.258-.16Z" transform="translate(29.735 27.347)" fill="#5e200b"/>
    <path id="Path_4781" data-name="Path 4781" d="M1142.429,463.494h.016l-.034-1.848h-.02c.012-.2.035-.389.033-.587-.087-6.031-6.871-10.826-15.158-10.708-8.213.115-14.81,5.019-14.84,10.979h-.011l.042,3.113h.008c.16,5.983,6.911,10.723,15.148,10.608,8.285-.117,14.934-5.1,14.849-11.131C1142.462,463.775,1142.439,463.636,1142.429,463.494Z" transform="translate(25.99 32.238)" fill="#301842" opacity="0.4" style="mix-blend-mode: multiply;isolation: isolate"/>
    <path id="Path_4782" data-name="Path 4782" d="M1142.464,461.056a8.282,8.282,0,0,1-1.3,4.535c-2.3,3.816-7.479,6.513-13.557,6.6h-.306c-8.092,0-14.676-4.688-14.841-10.6l-.047-2.874v-.236h.589a9.225,9.225,0,0,1,.66-1.378,9.716,9.716,0,0,1,1.779-2.25,3.245,3.245,0,0,1,.459-.436,18.735,18.735,0,0,1,23.38.059,10.564,10.564,0,0,1,1.849,2.214v.012a8.364,8.364,0,0,1,.966,2.085h.318l.035,1.849h-.024C1142.44,460.773,1142.464,460.915,1142.464,461.056Z" transform="translate(25.99 32.237)" fill="#ffa72e"/>
    <path id="Path_4783" data-name="Path 4783" d="M1142.428,458.636a4.609,4.609,0,0,1-.024.577c-.247,4.37-4,8.092-9.3,9.705a19.8,19.8,0,0,1-5.524.848c-8.245.118-15.017-4.629-15.159-10.624v-.236c.024-3.121,1.838-5.96,4.747-7.962a18.241,18.241,0,0,1,10.106-3.015C1135.55,447.812,1142.334,452.605,1142.428,458.636Z" transform="translate(25.99 31.807)" fill="#ffe752"/>
    <path id="Path_4784" data-name="Path 4784" d="M1141.134,458.525c.078,5.581-6.073,10.192-13.738,10.3s-13.946-4.327-14.024-9.907,6.072-10.191,13.738-10.3S1141.054,452.946,1141.134,458.525Z" transform="translate(26.16 31.93)" fill="#fff800"/>
    <path id="Path_4785" data-name="Path 4785" d="M1141.134,458.525c.078,5.581-6.073,10.192-13.738,10.3s-13.946-4.327-14.024-9.907,6.072-10.191,13.738-10.3S1141.054,452.946,1141.134,458.525Z" transform="translate(26.16 31.93)" fill="url(#radial-gradient)" style="mix-blend-mode: multiply;isolation: isolate"/>
    <path id="Path_4786" data-name="Path 4786" d="M1140.167,458.6c.074,5.329-5.7,9.728-12.9,9.83s-13.1-4.134-13.177-9.46,5.7-9.729,12.9-9.829S1140.09,453.273,1140.167,458.6Z" transform="translate(26.287 32.022)" fill="#ffe752"/>
    <path id="Path_4787" data-name="Path 4787" d="M1141.943,461.486a8.282,8.282,0,0,1-1.3,4.535,17.719,17.719,0,0,1-8.068,2.9c-.672.071-1.343.118-2.038.13a21.148,21.148,0,0,1-2.615-.13c-.6-.071-1.19-.165-1.755-.283h-.024c-6.113-1.272-10.612-5.324-10.754-10.2h-.012l-.035-3.109h.012c0-.165.011-.33.023-.483a3.12,3.12,0,0,1,.023-.33l.012-.012a7.3,7.3,0,0,1,.318-1.59h.012a7.976,7.976,0,0,1,.9-1.967,18.241,18.241,0,0,1,10.106-3.015c8.28-.118,15.064,4.676,15.159,10.707a4.609,4.609,0,0,1-.024.577h.012l.035,1.849h-.024C1141.919,461.2,1141.943,461.345,1141.943,461.486Z" transform="translate(26.511 31.807)" fill="#301842" opacity="0.4" style="mix-blend-mode: multiply;isolation: isolate"/>
    <path id="Path_4788" data-name="Path 4788" d="M1145.358,456.386h.016l-.035-1.848-.311,0c-1.511-4.916-7.581-8.536-14.792-8.433-6.856.1-12.578,3.53-14.3,8.127l-.587-.006.044,3.112h.008c.16,5.983,6.909,10.723,15.148,10.606,8.285-.117,14.934-5.1,14.849-11.131C1145.391,456.667,1145.367,456.528,1145.358,456.386Z" transform="translate(26.511 31.482)" fill="#ffa72e"/>
    <path id="Path_4789" data-name="Path 4789" d="M1145.353,454.383c.083,6.031-6.563,11.015-14.849,11.132s-15.072-4.676-15.156-10.708,6.563-11.016,14.848-11.133S1145.265,448.351,1145.353,454.383Z" transform="translate(26.511 31.05)" fill="#ffe752"/>
    <path id="Path_4790" data-name="Path 4790" d="M1144.062,454.275c.078,5.581-6.073,10.192-13.738,10.3s-13.946-4.327-14.025-9.907,6.072-10.191,13.737-10.3S1143.982,448.7,1144.062,454.275Z" transform="translate(26.68 31.174)" fill="#fff800"/>
    <path id="Path_4791" data-name="Path 4791" d="M1144.062,454.275c.078,5.581-6.073,10.192-13.738,10.3s-13.946-4.327-14.025-9.907,6.072-10.191,13.737-10.3S1143.982,448.7,1144.062,454.275Z" transform="translate(26.68 31.174)" fill="url(#radial-gradient-2)" style="mix-blend-mode: multiply;isolation: isolate"/>
    <path id="Path_4792" data-name="Path 4792" d="M1143.094,454.348c.074,5.328-5.7,9.728-12.9,9.83s-13.1-4.134-13.177-9.46,5.7-9.729,12.9-9.829S1143.018,449.022,1143.094,454.348Z" transform="translate(26.808 31.266)" fill="#ffe752"/>
    <path id="Path_4793" data-name="Path 4793" d="M1019.328,298.968q0-.714-.066-1.429a12.746,12.746,0,0,0-2.658-6.979l-.111-.787-1.1-.443a9.513,9.513,0,0,0-5.937-2.338,11.2,11.2,0,0,0-7.632.665c-7.079,3.056-11.664,11.709-10.59,19.241a14.21,14.21,0,0,0,.787,3.035.037.037,0,0,1,.011.021,11.157,11.157,0,0,0,1.906,3.236,31.329,31.329,0,0,0,12.074,10.18l6.436,2.614.488-9.516a77.427,77.427,0,0,0,3.777-7.266l2.115-2.027-.355-2.625a17.5,17.5,0,0,0,.488-2.049A18,18,0,0,0,1019.328,298.968Zm-7.233,1.285a9.005,9.005,0,0,1-5.495,9.061c-3.323,1.174-6.325-.787-6.8-4.409a9.046,9.046,0,0,1,5.218-9.139C1008.484,294.36,1011.7,296.388,1012.095,300.253Z" transform="translate(4.412 3.117)" fill="url(#linear-gradient-21)"/>
    <path id="Path_4794" data-name="Path 4794" d="M1022.44,299.364c-.75-8.409-7.7-12.7-15.146-9.487-7.078,3.056-11.668,11.7-10.591,19.236a13.82,13.82,0,0,0,.786,3.039h0l.007.018a11.291,11.291,0,0,0,1.906,3.237,31.312,31.312,0,0,0,12.07,10.185s9.244-13.1,10.671-21.267h0A17.3,17.3,0,0,0,1022.44,299.364Zm-12.658,11.776c-3.318,1.177-6.327-.786-6.8-4.406a9.052,9.052,0,0,1,5.21-9.147c3.471-1.4,6.677.621,7.08,4.491A9.008,9.008,0,0,1,1009.782,311.14Z" transform="translate(5.384 3.51)" fill="url(#linear-gradient-22)"/>
    <path id="Path_4795" data-name="Path 4795" d="M1114.954,287.542c1.429,10.524-2.949,19.808-9.78,20.735s-13.525-6.851-14.955-17.377,2.949-19.808,9.78-20.735S1113.525,277.017,1114.954,287.542Z" transform="translate(21.994 0.181)" fill="#587ae1"/>
    <ellipse id="Ellipse_178" data-name="Ellipse 178" cx="12.48" cy="19.231" rx="12.48" ry="19.231" transform="translate(1106.635 272.431) rotate(-7.733)" fill="#fff"/>
    <path id="Path_4796" data-name="Path 4796" d="M1111.024,287.888c1.429,10.523-2.951,19.807-9.78,20.733a6.657,6.657,0,0,1-.847.065c6.351-1.538,10.314-10.485,8.944-20.571s-7.575-17.651-14.106-17.44a6.931,6.931,0,0,1,.833-.164C1102.9,269.584,1109.594,277.364,1111.024,287.888Z" transform="translate(22.935 0.242)" fill="#bfbfbf"/>
    <ellipse id="Ellipse_179" data-name="Ellipse 179" cx="12.48" cy="19.231" rx="12.48" ry="19.231" transform="translate(1104.958 272.659) rotate(-7.733)" fill="#fff"/>
    <path id="Path_4797" data-name="Path 4797" d="M1102.77,272.754l-6.818,35.229c-3.519-1.658-6.626-5.473-8.465-10.482l6.281-26.259a8,8,0,0,1,2-.537A9.536,9.536,0,0,1,1102.77,272.754Z" transform="translate(21.556 0.277)" fill="#2db9e7" opacity="0.4"/>
    <path id="Path_4798" data-name="Path 4798" d="M1106.1,278.129l-4.042,29.133a8.259,8.259,0,0,1-2.783.9,8.122,8.122,0,0,1-2.408-.033l6.59-33.845A20.011,20.011,0,0,1,1106.1,278.129Z" transform="translate(23.224 0.927)" fill="#2db9e7" opacity="0.4"/>
    <path id="Path_4799" data-name="Path 4799" d="M1102.119,308.633a6.693,6.693,0,0,1-.91.181c-6.83.927-13.525-6.853-14.954-17.375s2.949-19.808,9.778-20.735a6.651,6.651,0,0,1,.926-.068c-6.3,1.59-10.233,10.5-8.868,20.553S1095.622,308.781,1102.119,308.633Z" transform="translate(21.289 0.278)" fill="#eaeaea"/>
    <path id="Path_4800" data-name="Path 4800" d="M1093.2,278.788l4.222,10.111,6.116,2.151" transform="translate(22.572 1.728)" fill="none" stroke="#222" stroke-miterlimit="10" stroke-width="0.605"/>
  </g>
</svg>
