<svg xmlns="http://www.w3.org/2000/svg" width="182.955" height="235.741" viewBox="0 0 182.955 235.741">
  <g id="Group_1497" data-name="Group 1497" transform="translate(-2545.244 -772.335)">
    <g id="Group_1452" data-name="Group 1452" transform="translate(2623.804 777.626)">
      <path id="Path_2814" data-name="Path 2814" d="M2905.359,990.406,2840.4,949.285c-3.984-2.3-7.213-8.47-7.213-13.781V796.484c0-5.312,3.229-7.753,7.213-5.453l66.5,38.395c3.984,2.3,7.213,8.47,7.213,13.781V981.569c0,3.495-1.089,4.136-3.288,5.406Z" transform="translate(-2826.305 -790.166)" fill="#8db0da"/>
      <path id="Path_2815" data-name="Path 2815" d="M2855.682,856.368s-31.4,84.447-31.4,79.135l-3.756-142.161,6.513-2.83a4.748,4.748,0,0,1,4.455.519l66.5,38.395a14.145,14.145,0,0,1,5.008,5.587Z" transform="translate(-2817.403 -790.166)" fill="#a8c4e5"/>
      <path id="Path_2816" data-name="Path 2816" d="M2883.385,997.885l-66.338-38.395c-3.984-2.3-7.05-8.47-7.05-13.782V806.69c0-5.312,3.145-7.753,7.129-5.453l66.3,38.4c3.984,2.3,7.012,8.47,7.012,13.781V992.432C2890.44,997.743,2887.368,1000.185,2883.385,997.885Z" transform="translate(-2809.997 -797.343)" fill="#45446c"/>
      <path id="Path_2817" data-name="Path 2817" d="M3093.053,1009.579v7.94c0,.553.33.809.745.57l-.1-.068a1.667,1.667,0,0,0,.537-1.44v-7.94c0-.552-.127-.809-.542-.57l0,.068A1.725,1.725,0,0,0,3093.053,1009.579Z" transform="translate(-3009.061 -943.348)" fill="#45446c"/>
      <path id="Path_2818" data-name="Path 2818" d="M3093.053,1056.423v7.94c0,.553.33.809.745.57l-.1-.068a1.667,1.667,0,0,0,.537-1.44v-7.941c0-.552-.127-.809-.542-.57l0,.068A1.726,1.726,0,0,0,3093.053,1056.423Z" transform="translate(-3009.061 -976.292)" fill="#45446c"/>
      <path id="Path_2819" data-name="Path 2819" d="M2895.246,1009.565l-64.68-37.343a2.174,2.174,0,0,1-1.087-1.883v-117.4a2.174,2.174,0,0,1,3.261-1.883l64.68,37.343a2.174,2.174,0,0,1,1.087,1.883v117.4A2.174,2.174,0,0,1,2895.246,1009.565Z" transform="translate(-2823.698 -832.781)" fill="#97cbff"/>
      <ellipse id="Ellipse_161" data-name="Ellipse 161" cx="5.431" cy="9.407" rx="5.431" ry="9.407" transform="translate(25.916 161.688) rotate(-30.311)" fill="#565682"/>
      <path id="Path_2820" data-name="Path 2820" d="M2933.061,881.607l-20.513-11.843a3.147,3.147,0,0,1-1.309-2.5h0c0-.959.589-1.4,1.309-.989l20.513,11.843a3.146,3.146,0,0,1,1.308,2.5h0C2934.369,881.578,2933.781,882.023,2933.061,881.607Z" transform="translate(-2881.197 -843.581)" fill="#565682"/>
    </g>
    <g id="Group_1459" data-name="Group 1459" transform="translate(2575.279 850.378)">
      <ellipse id="Ellipse_162" data-name="Ellipse 162" cx="14.699" cy="8.486" rx="14.699" ry="8.486" transform="translate(0.321 80.539) rotate(-0.311)" fill="#a8c4e5" opacity="0.4" style="mix-blend-mode: multiply;isolation: isolate"/>
      <path id="Path_2821" data-name="Path 2821" d="M2673.35,1093.886a3.56,3.56,0,0,1,1.11-.823,12.352,12.352,0,0,1,6.259-1.634" transform="translate(-2665.372 -1074.782)" fill="none" stroke="#bc4073" stroke-miterlimit="10" stroke-width="1.314"/>
      <path id="Path_2822" data-name="Path 2822" d="M2726.108,1121.755c-.732,5.876-4.1,10.773-7.014,10.53" transform="translate(-2697.542 -1096.114)" fill="none" stroke="#ffaa82" stroke-miterlimit="10" stroke-width="3.941"/>
      <path id="Path_2823" data-name="Path 2823" d="M2711.154,1096.037a95.33,95.33,0,0,0,2.674,17.382" transform="translate(-2691.959 -1078.027)" fill="none" stroke="#91b8db" stroke-miterlimit="10" stroke-width="5.254"/>
      <g id="Group_1454" data-name="Group 1454" transform="translate(13.077 79.051)">
        <path id="Path_2824" data-name="Path 2824" d="M2693.688,1326.484l.294-.154a.344.344,0,0,0,.145-.464h0a.344.344,0,0,0-.463-.146l-.294.154a.345.345,0,0,0-.146.463h0A.345.345,0,0,0,2693.688,1326.484Z" transform="translate(-2692.399 -1318.58)" fill="#514677"/>
        <path id="Path_2825" data-name="Path 2825" d="M2694.872,1322.294v-1.557a.344.344,0,0,0-.343-.344h0a.345.345,0,0,0-.344.344v1.557a.345.345,0,0,0,.344.343h0A.344.344,0,0,0,2694.872,1322.294Z" transform="translate(-2693.102 -1314.861)" fill="#423a66"/>
        <g id="Group_1453" data-name="Group 1453">
          <path id="Path_2826" data-name="Path 2826" d="M2690.59,1305.435c.348,1.766.731,4.391.731,4.391l.64.123-.1-1.836c.077-.274.546.024.745.314,1.177,1.715.425,2.792,1.578,3.582a10.223,10.223,0,0,0,5.379.717s1.27-.471.723-1.246c-1.076-1.524-5.048-5.763-5.825-6.76l-.211-.067-1.422-2.281c-.537-.155-1.538.643-1.919,1.378A1.935,1.935,0,0,0,2690.59,1305.435Z" transform="translate(-2690.534 -1302.172)" fill="#424268"/>
          <path id="Path_2827" data-name="Path 2827" d="M2695.052,1301.751l1.194.99s3,4.692,3.563,5.63c.658,1.089-3.281,2.965-5.99-3.441C2691.845,1301.547,2695.052,1301.751,2695.052,1301.751Z" transform="translate(-2692.393 -1301.749)" fill="#ef9a78"/>
        </g>
      </g>
      <path id="Path_2828" data-name="Path 2828" d="M2704.226,1178.1c.328,21.5-1.3,30.127-2.7,38.443" transform="translate(-2685.185 -1135.736)" fill="none" stroke="#ef9a78" stroke-miterlimit="10" stroke-width="5.254"/>
      <path id="Path_2829" data-name="Path 2829" d="M2685.559,1190.355c-.882,15.484-1.883,27.156-1.883,38.2" transform="translate(-2672.634 -1144.358)" fill="none" stroke="#ffaa82" stroke-miterlimit="10" stroke-width="5.254"/>
      <path id="Path_2830" data-name="Path 2830" d="M2666.68,1163.33c.474,6.573,4.678,7.236,8.921,4.786s6.6-8.025,6.6-12.924c0,0-2.36-7.268-6.6-4.818S2666.129,1155.7,2666.68,1163.33Z" transform="translate(-2660.653 -1115.885)" fill="#bc4073"/>
      <path id="Path_2831" data-name="Path 2831" d="M2678.285,1103.711s2.81,4.416,2.489,7.079a16.283,16.283,0,0,1-1.606,4.144c-1.462,4.441-.654,5.786-.812,7.015,0,0-.975,4.224-11.4.231l-4.379-12.866Z" transform="translate(-2657.795 -1083.424)" fill="#d0e7f4"/>
      <path id="Path_2832" data-name="Path 2832" d="M2662.73,1102.725a1.387,1.387,0,0,1-.478-.864c-.266-2.293-1.526-3.336.969-7.262.4-.631,5.859-3.46,9.962-4.2a4.372,4.372,0,0,1,4.757,2.6,22.869,22.869,0,0,1,.924,3.23c.2,4.212-1.67-1.318-1.967,1.007.01-.056.024-.113.032-.169,0,0-.508,3.929-.894,6.971-.238,1.9-.408,3.27-.423,3.463a.221.221,0,0,0,0,.024l-7.115,5.61-3.744-6.761h0Z" transform="translate(-2657.177 -1074.014)" fill="#d0e7f4"/>
      <path id="Path_2833" data-name="Path 2833" d="M2680.9,1090.356s3.557,3.673.472,6.276-8.338-3.215-8.338-3.215A17.772,17.772,0,0,1,2680.9,1090.356Z" transform="translate(-2665.148 -1074.032)" fill="#ffaa82"/>
      <path id="Path_2834" data-name="Path 2834" d="M2682.513,1167.805l1.427,22.717a1.671,1.671,0,0,1-.257.879c-1.049,1.686-2.984,7.415-13.562,4.934-1.219-.286-1.681-.41-1.626-1.472l-1.417-19.351,6.3-.083Z" transform="translate(-2660.961 -1128.5)" fill="#bc4073"/>
      <path id="Path_2835" data-name="Path 2835" d="M2686.948,1079.364l1.409-6.427-4.348,1.219-1.166,5.006C2682.378,1080.658,2685.838,1082.64,2686.948,1079.364Z" transform="translate(-2672.019 -1061.782)" fill="#ffaa82"/>
      <g id="Group_1456" data-name="Group 1456" transform="translate(8.01 81.78)">
        <path id="Path_2836" data-name="Path 2836" d="M2676.611,1335.679l.294-.154a.344.344,0,0,0,.145-.463h0a.345.345,0,0,0-.464-.145l-.293.154a.345.345,0,0,0-.146.464h0A.345.345,0,0,0,2676.611,1335.679Z" transform="translate(-2675.322 -1327.776)" fill="#514677"/>
        <path id="Path_2837" data-name="Path 2837" d="M2677.795,1331.489v-1.557a.344.344,0,0,0-.343-.344h0a.344.344,0,0,0-.344.344v1.557a.344.344,0,0,0,.344.344h0A.344.344,0,0,0,2677.795,1331.489Z" transform="translate(-2676.025 -1324.056)" fill="#423a66"/>
        <g id="Group_1455" data-name="Group 1455">
          <path id="Path_2838" data-name="Path 2838" d="M2673.513,1314.63c.348,1.766.731,4.391.731,4.391l.64.123-.1-1.837c.077-.273.546.024.745.314,1.177,1.716.425,2.792,1.578,3.582a10.222,10.222,0,0,0,5.379.717s1.27-.472.723-1.247c-1.077-1.524-5.048-5.763-5.824-6.76l-.211-.067-1.422-2.281c-.537-.154-1.538.644-1.919,1.379A1.937,1.937,0,0,0,2673.513,1314.63Z" transform="translate(-2673.458 -1311.367)" fill="#424268"/>
          <path id="Path_2839" data-name="Path 2839" d="M2677.975,1310.947l1.195.99s3,4.692,3.563,5.629c.658,1.089-3.281,2.965-5.99-3.441C2674.768,1310.743,2677.975,1310.947,2677.975,1310.947Z" transform="translate(-2675.316 -1310.945)" fill="#ffaa82"/>
        </g>
      </g>
      <path id="Path_2840" data-name="Path 2840" d="M2667.636,1128.067a13.177,13.177,0,0,0,1.44,2.422,6.431,6.431,0,0,0,6.7,2.435,40.529,40.529,0,0,0,7.47-2.77s-1.606,5.157-1.046,8.163c.26,1.393.073,1.136.073,1.136-.079,1.332-2.275.967-2.275.967-4.7,1.459-9.881-1.11-9.881-1.11l-3.043-8.9Z" transform="translate(-2660.961 -1100.553)" fill="#a8c4e5"/>
      <path id="Path_2841" data-name="Path 2841" d="M2687.692,1163.46h0a.827.827,0,0,1-.306.805,9.539,9.539,0,0,1-6.963,1.752,18.3,18.3,0,0,1-5.939-1.476.831.831,0,0,1-.423-1.035l.091-.247a.827.827,0,0,1,1.1-.48c1.681.708,5.685,2.161,8.5,1.318a9.483,9.483,0,0,0,2.665-1.172A.827.827,0,0,1,2687.692,1163.46Z" transform="translate(-2665.836 -1124.919)" fill="#46466b"/>
      <path id="Path_2842" data-name="Path 2842" d="M2699.625,1168.792l1.8-.356a1.4,1.4,0,0,0,1.089-1.3h0a.871.871,0,0,0-1.089-.874l-1.8.356a1.4,1.4,0,0,0-1.089,1.3h0A.871.871,0,0,0,2699.625,1168.792Z" transform="translate(-2683.085 -1127.396)" fill="#fff"/>
      <path id="Path_2843" data-name="Path 2843" d="M2682.072,1092.06c-.013.388.98,4.122.751,4.581a2.2,2.2,0,0,1-.677.754,4.1,4.1,0,0,1-4.49.2c-.58-.359-2.2-1.369-2.44-1.506-.619-.355-.992-1.019-1.541-1.476" transform="translate(-2665.601 -1075.23)" fill="none" stroke="#bc4073" stroke-miterlimit="10" stroke-width="1.314"/>
      <path id="Path_2844" data-name="Path 2844" d="M2711.486,1051.108c.249,2.009,1.955,3.726,1.79,5.744a1.584,1.584,0,0,1-.167.636,3.074,3.074,0,0,1-.34.444,3.2,3.2,0,0,0-.7,2.275" transform="translate(-2692.192 -1046.43)" fill="none" stroke="#915151" stroke-miterlimit="10" stroke-width="1.314"/>
      <circle id="Ellipse_163" data-name="Ellipse 163" cx="4.105" cy="4.105" r="4.105" transform="translate(2.706 4.968) rotate(-37.238)" fill="#915151"/>
      <rect id="Rectangle_447" data-name="Rectangle 447" width="9.175" height="14.854" rx="4.587" transform="translate(19.982 17.029) rotate(-178.088)" fill="#ffaa82"/>
      <path id="Path_2845" data-name="Path 2845" d="M2678.076,1045.582c1.614-1.993,4.6.383,6.213-.239,1.748-.675,1.155-2.471-.032-3.922a6.6,6.6,0,0,0-3.062-2.046c-4.525-1.71-9.065.2-9.236,5.321,0,0-.413,7.011,3.671,8.045l.265-1.026a2.429,2.429,0,0,1,1.03-3.6c.584-.353.109-.594.056-1.445S2677.534,1046.252,2678.076,1045.582Z" transform="translate(-2664.385 -1037.748)" fill="#915151"/>
      <path id="Path_2846" data-name="Path 2846" d="M2678.905,1072.057a.932.932,0,0,0,1.593-.4,2.237,2.237,0,0,0-.665-2.276.932.932,0,0,0-1.593.4A2.237,2.237,0,0,0,2678.905,1072.057Z" transform="translate(-2668.747 -1059.073)" fill="#ffaa82"/>
      <path id="Path_2847" data-name="Path 2847" d="M2703.961,1078.691l-2.4,1.03a.24.24,0,0,0-.146.252c.055.382.326,1.19,1.639.721a2.039,2.039,0,0,0,1.248-1.75A.242.242,0,0,0,2703.961,1078.691Z" transform="translate(-2685.105 -1065.814)" fill="#fff"/>
      <path id="Path_2848" data-name="Path 2848" d="M2699.845,1072.356c0,.3.121.544.269.544s.27-.244.27-.544-.12-.544-.27-.544S2699.845,1072.056,2699.845,1072.356Z" transform="translate(-2684.005 -1060.991)" fill="#492817"/>
      <path id="Path_2849" data-name="Path 2849" d="M2710.247,1068.218c0,.3.12.543.269.543s.27-.243.27-.543-.121-.544-.27-.544S2710.247,1067.917,2710.247,1068.218Z" transform="translate(-2691.32 -1058.08)" fill="#492817"/>
      <g id="Group_1457" data-name="Group 1457" transform="translate(13.873 9.326)">
        <path id="Path_2850" data-name="Path 2850" d="M2695.289,1067.359a2.535,2.535,0,0,0-1.577.708c-.261.273-.674-.141-.413-.413a3.116,3.116,0,0,1,1.99-.88.293.293,0,0,1,0,.585Z" transform="translate(-2693.215 -1066.774)" fill="#915151"/>
      </g>
      <g id="Group_1458" data-name="Group 1458" transform="translate(17.732 7.833)">
        <path id="Path_2851" data-name="Path 2851" d="M2708.362,1062.33a2.537,2.537,0,0,0-1.633.571c-.279.251-.694-.161-.414-.413a3.118,3.118,0,0,1,2.046-.742c.374.021.376.606,0,.585Z" transform="translate(-2706.222 -1061.742)" fill="#915151"/>
      </g>
      <path id="Path_2852" data-name="Path 2852" d="M2682.807,1058.72c-.009,1.637-.378,4.969-1.327,6.3-.65.914-1.734,1.685-1.717,2.807.011.672.441,1.291.421,1.964" transform="translate(-2669.882 -1051.783)" fill="none" stroke="#915151" stroke-miterlimit="10" stroke-width="1.314"/>
      <path id="Path_2853" data-name="Path 2853" d="M2652.259,1113.514l-4.012,6.715a8.424,8.424,0,0,0,.548,9.5,82.286,82.286,0,0,1,5.426,7" transform="translate(-2646.867 -1090.318)" fill="none" stroke="#ffaa82" stroke-miterlimit="10" stroke-width="3.941"/>
      <path id="Path_2854" data-name="Path 2854" d="M2653.066,1111.294c-5.207,6.769-8.926,8.505-4.9,16.106" transform="translate(-2646.464 -1088.757)" fill="none" stroke="#d0e7f4" stroke-miterlimit="10" stroke-width="5.254"/>
      <path id="Path_2855" data-name="Path 2855" d="M2663.717,1190.738h0a2.3,2.3,0,0,0,2.518-2.052l.241-2.36a2.3,2.3,0,0,0-2.052-2.519h0a2.3,2.3,0,0,0-2.519,2.051l-.241,2.36A2.3,2.3,0,0,0,2663.717,1190.738Z" transform="translate(-2657.146 -1139.745)" fill="#ffaa82"/>
      <path id="Path_2856" data-name="Path 2856" d="M2692.338,1090.184a5.461,5.461,0,0,1-2.317-.836,4.524,4.524,0,0,0,1.985,1.82Z" transform="translate(-2677.096 -1073.323)" fill="#ea8a6c"/>
      <path id="Path_2857" data-name="Path 2857" d="M2764.967,1100.868c-.58,1.031-.62,2.109-.089,2.408s1.432-.295,2.012-1.326.62-2.109.089-2.408S2765.547,1099.837,2764.967,1100.868Z" transform="translate(-2729.478 -1080.438)" fill="#8585ff"/>
      <path id="Rectangle_448" data-name="Rectangle 448" d="M1.709,0h0A1.709,1.709,0,0,1,3.419,1.709V9.293A1.709,1.709,0,0,1,1.709,11h0A1.709,1.709,0,0,1,0,9.292V1.709A1.709,1.709,0,0,1,1.709,0Z" transform="translate(25.634 17.204) rotate(-2.598)" fill="#45446c"/>
      <rect id="Rectangle_449" data-name="Rectangle 449" width="4.03" height="6.768" rx="2.015" transform="translate(27.552 20.054)" fill="#ffaa82"/>
      <rect id="Rectangle_450" data-name="Rectangle 450" width="2.015" height="2.091" rx="1.007" transform="translate(24.97 21.892)" fill="#ffaa82"/>
      <path id="Path_2858" data-name="Path 2858" d="M2727.331,1086.4c-.069-.052-2.259-1.151-2.346-1.176a1.015,1.015,0,0,0-1.061-.007,3.239,3.239,0,0,0-1.688,2.4c-.053.584.172.974.556,1.086.07.052,2.259,1.151,2.345,1.176a1.015,1.015,0,0,0,1.062.007,3.239,3.239,0,0,0,1.688-2.4C2727.94,1086.9,2727.715,1086.512,2727.331,1086.4Z" transform="translate(-2699.747 -1070.317)" fill="#ef487c"/>
      <path id="Path_2859" data-name="Path 2859" d="M2728.211,1086.748c-.069-.052-2.259-1.151-2.345-1.176a1.016,1.016,0,0,0-1.062-.007,3.239,3.239,0,0,0-1.688,2.395c-.053.585.172.974.556,1.085.069.053,2.259,1.151,2.346,1.176a1.015,1.015,0,0,0,1.061.007,3.239,3.239,0,0,0,1.688-2.395C2728.82,1087.249,2728.6,1086.86,2728.211,1086.748Z" transform="translate(-2700.366 -1070.562)" fill="#d84177"/>
      <path id="Path_2860" data-name="Path 2860" d="M2732.2,1087.114c-.1-.078-3.341-1.7-3.469-1.74a1.5,1.5,0,0,0-1.569-.01,4.791,4.791,0,0,0-2.5,3.542c-.078.865.254,1.441.823,1.606.1.078,3.34,1.7,3.469,1.74a1.5,1.5,0,0,0,1.569.01,4.791,4.791,0,0,0,2.5-3.542C2733.1,1087.855,2732.765,1087.279,2732.2,1087.114Z" transform="translate(-2701.449 -1070.372)" fill="#ef487c"/>
      <path id="Path_2861" data-name="Path 2861" d="M2726.053,1090.268a4.3,4.3,0,0,0-.691,1.87c-.078.864.254,1.44.822,1.605.1.078,3.341,1.7,3.47,1.74a1.5,1.5,0,0,0,1.57.01,3.853,3.853,0,0,0,2.031-2.061Z" transform="translate(-2701.943 -1073.97)" fill="#d84177"/>
      <path id="Path_2862" data-name="Path 2862" d="M2740.313,1091.52l9.129.653-6.439,12-6.817-8.136C2736.539,1093.447,2738.3,1090.977,2740.313,1091.52Z" transform="translate(-2709.563 -1074.797)" fill="#dcf1ff"/>
      <path id="Path_2863" data-name="Path 2863" d="M2747.084,1100.22l-3.608,6.42s-6.99-7.78-6.949-7.969a6.9,6.9,0,0,1,1.184-2.669Z" transform="translate(-2709.802 -1078.002)" fill="#d0e7f4"/>
      <ellipse id="Ellipse_164" data-name="Ellipse 164" cx="6.939" cy="4.006" rx="6.939" ry="4.006" transform="translate(29.471 27.396) rotate(-62.591)" fill="#ef487c"/>
      <ellipse id="Ellipse_165" data-name="Ellipse 165" cx="6.939" cy="4.006" rx="6.939" ry="4.006" transform="matrix(0.46, -0.888, 0.888, 0.46, 30.406, 27.93)" fill="#d84177"/>
      <ellipse id="Ellipse_166" data-name="Ellipse 166" cx="6.435" cy="3.715" rx="6.435" ry="3.715" transform="translate(30.527 27.326) rotate(-62.59)" fill="#fff"/>
      <path id="Path_2864" data-name="Path 2864" d="M2760.561,1097.42a9.084,9.084,0,0,1,2.688-2.831c2.445-1.563,4.533-.48,4.664,2.418a8.261,8.261,0,0,1-.734,3.7C2766.138,1097.439,2763.281,1096.83,2760.561,1097.42Z" transform="translate(-2726.705 -1076.506)" fill="#dcf1ff"/>
      <path id="Path_2865" data-name="Path 2865" d="M2756.819,1107.469a4.327,4.327,0,0,1,1.99-3.526,1.652,1.652,0,0,1,1.462-.229h0l.017.008.051.024,1.443.672a1.028,1.028,0,0,1,.165.077h0a1.394,1.394,0,0,1,.612,1.213,4.327,4.327,0,0,1-1.99,3.526,1.669,1.669,0,0,1-1.44.238h0a1.019,1.019,0,0,1-.125-.059l-1.328-.628a1.051,1.051,0,0,1-.318-.15h0A1.437,1.437,0,0,1,2756.819,1107.469Z" transform="translate(-2724.071 -1083.366)" fill="#d0e7f4"/>
      <path id="Path_2866" data-name="Path 2866" d="M2758.993,1099.77l2.4,1.241a.944.944,0,0,1,.153.077h0a1.44,1.44,0,0,1,.568,1.215,4.38,4.38,0,0,1-1.825,3.518,1.436,1.436,0,0,1-1.328.233h0a.894.894,0,0,1-.115-.059s-2.449-1.3-2.538-1.369A10.546,10.546,0,0,1,2758.993,1099.77Z" transform="translate(-2723.715 -1080.653)" fill="#6d64ff"/>
      <path id="Path_2867" data-name="Path 2867" d="M2756.31,1104.625a8,8,0,0,1,1.1-2.8,9.523,9.523,0,0,1,1.578-2.051l.445.229a10.26,10.26,0,0,0-2.542,4.951Z" transform="translate(-2723.715 -1080.653)" fill="#5555e5"/>
      <path id="Path_2868" data-name="Path 2868" d="M2746.285,1092.36l5.553.422-1.609,1.325-4.6-1.044Z" transform="translate(-2716.206 -1075.441)" fill="#fff"/>
      <path id="Path_2869" data-name="Path 2869" d="M2732.811,1086.576l2.9,1.525.735-.465-2.948-1.5Z" transform="translate(-2707.189 -1071.067)" fill="#fff" opacity="0.43"/>
    </g>
    <path id="Path_2870" data-name="Path 2870" d="M3004.154,992.779l-11.569-6.713a1.064,1.064,0,0,0-1.194-.06v0l-1.945,1.1a15.9,15.9,0,0,0,1.351,2.52V1000.1a4.3,4.3,0,0,0,1.78,3.448l9.428,5.452c.881,1.483,1.491,2.453,1.491,2.453l1.84-1.053v0a1.788,1.788,0,0,0,.593-1.5V996.227A4.3,4.3,0,0,0,3004.154,992.779Z" transform="translate(-312.394 -150.159)" fill="#7878ea"/>
    <path id="Path_2871" data-name="Path 2871" d="M3000.526,1014.192l-11.627-6.713a4.321,4.321,0,0,1-1.8-3.447V991.36c0-1.328.808-1.939,1.8-1.364l11.627,6.713a4.322,4.322,0,0,1,1.8,3.448v12.671C3002.33,1014.157,3001.522,1014.767,3000.526,1014.192Z" transform="translate(-310.74 -152.922)" fill="#8585ff"/>
    <path id="Path_2872" data-name="Path 2872" d="M2995.372,1016.428l-11.627-6.713a4.322,4.322,0,0,1-1.8-3.447V993.6c0-1.329.808-1.939,1.8-1.364l11.627,6.713a4.321,4.321,0,0,1,1.8,3.448v12.672C2997.176,1016.392,2996.368,1017,2995.372,1016.428Z" transform="translate(-307.115 -154.494)" fill="#8585ff" opacity="0.47"/>
    <path id="Path_2873" data-name="Path 2873" d="M2865.822,913.2l-11.634-6.713a1.135,1.135,0,0,0-1.236-.06l-.011,0-1.842,1.1a25.924,25.924,0,0,0,1.454,2.52v10.472a4.23,4.23,0,0,0,1.692,3.447l9.384,5.453c.881,1.483,1.409,2.453,1.409,2.453l1.758-1.053v0a1.4,1.4,0,0,0,.89-1.5V916.642A4.373,4.373,0,0,0,2865.822,913.2Z" transform="translate(-215.099 -94.19)" fill="#22c6a6"/>
    <path id="Path_2874" data-name="Path 2874" d="M2861.934,934.608l-11.627-6.713a4.321,4.321,0,0,1-1.8-3.447V911.776c0-1.329.808-1.939,1.8-1.364l11.627,6.713a4.322,4.322,0,0,1,1.8,3.447v12.672C2863.738,934.573,2862.93,935.183,2861.934,934.608Z" transform="translate(-213.272 -96.953)" fill="#27e0c0"/>
    <path id="Path_2875" data-name="Path 2875" d="M2855.5,936.473l-11.627-6.713a4.321,4.321,0,0,1-1.8-3.448V913.641c0-1.329.808-1.939,1.8-1.364l11.627,6.713a4.322,4.322,0,0,1,1.8,3.448v12.672C2857.3,936.438,2856.494,937.048,2855.5,936.473Z" transform="translate(-208.746 -98.264)" fill="#99ffeb" opacity="0.36"/>
    <path id="Path_2876" data-name="Path 2876" d="M2934.739,952.424l-11.593-6.713a1.1,1.1,0,0,0-1.215-.06v0l-2.068,1.1a10.523,10.523,0,0,0,1.227,2.52v10.472a4.428,4.428,0,0,0,1.924,3.447l9.5,5.452a21.6,21.6,0,0,0,1.681,2.453l2.029-1.053v0c.3-.19.3-.72.3-1.5V955.871A4.3,4.3,0,0,0,2934.739,952.424Z" transform="translate(-263.458 -121.778)" fill="#f1a32f"/>
    <path id="Path_2877" data-name="Path 2877" d="M2931.494,973.837l-11.627-6.713a4.322,4.322,0,0,1-1.8-3.447V951c0-1.329.808-1.939,1.8-1.364l11.627,6.713a4.321,4.321,0,0,1,1.8,3.447v12.672C2933.3,973.8,2932.49,974.412,2931.494,973.837Z" transform="translate(-262.191 -124.541)" fill="#ffd22d"/>
    <path id="Path_2878" data-name="Path 2878" d="M2925.99,977.408l-11.627-6.713a4.321,4.321,0,0,1-1.8-3.447V954.576c0-1.329.808-1.939,1.8-1.364l11.627,6.713a4.322,4.322,0,0,1,1.8,3.448v12.672C2927.794,977.372,2926.986,977.983,2925.99,977.408Z" transform="translate(-258.321 -127.053)" fill="#fff2c7" opacity="0.36"/>
    <path id="Path_2879" data-name="Path 2879" d="M3004.154,1085.926l-11.569-6.713a1.064,1.064,0,0,0-1.194-.06v0l-1.945,1.1a15.9,15.9,0,0,0,1.351,2.52v10.472a4.3,4.3,0,0,0,1.78,3.448l9.428,5.452c.881,1.483,1.491,2.453,1.491,2.453l1.84-1.053v0a1.787,1.787,0,0,0,.593-1.5v-12.672A4.3,4.3,0,0,0,3004.154,1085.926Z" transform="translate(-312.394 -215.666)" fill="#22c6a6"/>
    <path id="Path_2880" data-name="Path 2880" d="M3000.526,1107.339l-11.627-6.713a4.321,4.321,0,0,1-1.8-3.447v-12.672c0-1.329.808-1.939,1.8-1.364l11.627,6.713a4.321,4.321,0,0,1,1.8,3.448v12.672C3002.33,1107.3,3001.522,1107.915,3000.526,1107.339Z" transform="translate(-310.74 -218.429)" fill="#27e0c0"/>
    <path id="Path_2881" data-name="Path 2881" d="M2865.822,1006.342l-11.634-6.713a1.135,1.135,0,0,0-1.236-.06l-.011,0-1.842,1.1a25.883,25.883,0,0,0,1.454,2.521v10.472a4.23,4.23,0,0,0,1.692,3.448l9.384,5.452c.881,1.483,1.409,2.453,1.409,2.453l1.758-1.053v0a1.4,1.4,0,0,0,.89-1.5v-12.672A4.373,4.373,0,0,0,2865.822,1006.342Z" transform="translate(-215.099 -159.697)" fill="#7878ea"/>
    <path id="Path_2882" data-name="Path 2882" d="M2861.934,1027.755l-11.627-6.713a4.321,4.321,0,0,1-1.8-3.447v-12.672c0-1.328.808-1.939,1.8-1.364l11.627,6.713a4.322,4.322,0,0,1,1.8,3.448v12.672C2863.738,1027.72,2862.93,1028.33,2861.934,1027.755Z" transform="translate(-213.272 -162.46)" fill="#8585ff"/>
    <path id="Path_2883" data-name="Path 2883" d="M2855.5,1029.62l-11.627-6.713a4.321,4.321,0,0,1-1.8-3.448v-12.672c0-1.329.808-1.939,1.8-1.364l11.627,6.713a4.322,4.322,0,0,1,1.8,3.447v12.672C2857.3,1029.585,2856.494,1030.2,2855.5,1029.62Z" transform="translate(-208.746 -163.772)" fill="#8585ff" opacity="0.47"/>
    <path id="Path_2884" data-name="Path 2884" d="M2935.01,1045.571l-11.6-6.713a1.1,1.1,0,0,0-1.217-.06v0l-1.958,1.1s.635,1.158,1.337,2.521v10.472a4.329,4.329,0,0,0,1.813,3.448l9.445,5.452,1.458,2.453,1.806-1.053v0c.469-.19.7-.72.7-1.5v-12.672A4.31,4.31,0,0,0,2935.01,1045.571Z" transform="translate(-263.721 -187.286)" fill="#bc4073"/>
    <path id="Path_2885" data-name="Path 2885" d="M2931.494,1066.984l-11.627-6.713a4.322,4.322,0,0,1-1.8-3.447v-12.672c0-1.329.808-1.939,1.8-1.364l11.627,6.713a4.321,4.321,0,0,1,1.8,3.447v12.672C2933.3,1066.949,2932.49,1067.559,2931.494,1066.984Z" transform="translate(-262.191 -190.049)" fill="#ef487c"/>
    <path id="Path_2886" data-name="Path 2886" d="M2925.99,1070.555l-11.627-6.713a4.321,4.321,0,0,1-1.8-3.448v-12.672c0-1.329.808-1.94,1.8-1.364l11.627,6.713a4.321,4.321,0,0,1,1.8,3.447v12.672C2927.794,1070.52,2926.986,1071.13,2925.99,1070.555Z" transform="translate(-258.321 -192.56)" fill="#fce3ee" opacity="0.52"/>
    <path id="Path_2887" data-name="Path 2887" d="M2840.757,1373.91l-23.313,15.892a2.085,2.085,0,0,0,2.316,3.468l24.982-17.053Z" transform="translate(-190.78 -423.069)" fill="#a8c4e5" opacity="0.4" style="mix-blend-mode: multiply;isolation: isolate"/>
    <path id="Path_2888" data-name="Path 2888" d="M2781.942,1338.907l-4.747-2.3-22.94,15.25a2.085,2.085,0,1,0,2.316,3.468Z" transform="translate(-146.341 -396.837)" fill="#a8c4e5" opacity="0.4" style="mix-blend-mode: multiply;isolation: isolate"/>
    <path id="Path_2889" data-name="Path 2889" d="M2797.961,1107.449l-.154-.088a1.368,1.368,0,0,0-1.228-.075,2.1,2.1,0,0,0-1.137,1.458l-2.634,9.849-15.827-9.024,2.723-10.183a2.546,2.546,0,0,0-.886-2.85l-.154-.088a1.365,1.365,0,0,0-1.227-.075,2.1,2.1,0,0,0-1.137,1.459l-3.1,11.609-.283,1.059h0l-3.7,13.823h0l-.081.3-3.917,14.646h0l-.3,1.124h0l-3.7,13.821h0l-.3,1.124h0l-3.7,13.823h0l-.3,1.123h0l-3.869,14.465a2.545,2.545,0,0,0,.885,2.85l.154.088h0a1.382,1.382,0,0,0,.687.186,1.4,1.4,0,0,0,.541-.111,2.1,2.1,0,0,0,1.137-1.458l3.415-12.769,15.827,9.023-3.5,13.1a2.545,2.545,0,0,0,.885,2.85l.154.088a1.377,1.377,0,0,0,.687.186,1.4,1.4,0,0,0,.54-.11,2.105,2.105,0,0,0,1.137-1.459l3.868-14.465h0l0-.01,3.995-14.937h0l.3-1.124h0l7.776-29.076.219-.817v0l7.084-26.489A2.546,2.546,0,0,0,2797.961,1107.449Zm-32.971,46.962,2.879-10.766,15.826,9.023-2.879,10.766Zm4-14.948,2.879-10.765,15.827,9.023-2.879,10.765Zm4-14.947,2.879-10.765,15.827,9.024-2.879,10.765Zm-9.113,34.076,15.826,9.024-2.879,10.765-15.827-9.023Z" transform="translate(-146.072 -227.808)" fill="#915151"/>
    <g id="Group_1470" data-name="Group 1470" transform="translate(2653.917 881.287)">
      <path id="Path_2890" data-name="Path 2890" d="M2993.144,1186.974l-12.1-6.941a1.238,1.238,0,0,0-1.315-.062l-.031,0-2.1,1.142a23.677,23.677,0,0,1,1.308,2.606v10.827a4.531,4.531,0,0,0,1.936,3.565l9.8,5.637c.911,1.533,1.52,2.536,1.52,2.536l1.881-1.089v0c.3-.2,1.187-.744,1.187-1.551v-13.1A4.662,4.662,0,0,0,2993.144,1186.974Z" transform="translate(-2957.975 -1167.852)" fill="#7878ea"/>
      <path id="Path_2891" data-name="Path 2891" d="M2989.392,1209.114l-12.022-6.941a4.469,4.469,0,0,1-1.866-3.565v-13.1c0-1.374.835-2.005,1.866-1.411l12.022,6.941a4.469,4.469,0,0,1,1.865,3.565v13.1C2991.257,1209.078,2990.422,1209.709,2989.392,1209.114Z" transform="translate(-2956.505 -1170.709)" fill="#8585ff"/>
      <g id="Group_1463" data-name="Group 1463" transform="translate(20.262 20.641)">
        <g id="Group_1460" data-name="Group 1460">
          <path id="Path_2892" data-name="Path 2892" d="M2982.845,1216.3l-3.083-5.318,3.357-1.914.648,1.137-2.212,1.261,2.422,4.177Z" transform="translate(-2979.762 -1209.069)" fill="#fff"/>
        </g>
        <g id="Group_1461" data-name="Group 1461" transform="translate(8.263 3.212)">
          <path id="Path_2893" data-name="Path 2893" d="M3008.532,1227.164l-.648-1.137,2.18-1.243-2.454-4.233,1.132-.656,3.115,5.373Z" transform="translate(-3007.61 -1219.895)" fill="#fff"/>
        </g>
        <g id="Group_1462" data-name="Group 1462" transform="translate(4.62 0.976)">
          <rect id="Rectangle_451" data-name="Rectangle 451" width="8.813" height="1.308" transform="matrix(0.261, -0.965, 0.965, 0.261, 0, 8.507)" fill="#fff"/>
        </g>
      </g>
      <path id="Path_2894" data-name="Path 2894" d="M3024.25,1235.235l-.938,1.641a2.2,2.2,0,0,0,.813,2.987h0a2.2,2.2,0,0,0,2.987-.813l.938-1.641a2.2,2.2,0,0,0-.814-2.987h0A2.2,2.2,0,0,0,3024.25,1235.235Z" transform="translate(-2989.925 -1206.056)" fill="#ffaa82"/>
      <ellipse id="Ellipse_167" data-name="Ellipse 167" cx="8.441" cy="14.621" rx="8.441" ry="14.621" transform="translate(0 102.272) rotate(-89.689)" fill="#a8c4e5" opacity="0.4" style="mix-blend-mode: multiply;isolation: isolate"/>
      <path id="Path_2895" data-name="Path 2895" d="M2932.711,1434.2c-.106.093-1.691.888-1.791.975-.153.133-.608.5-.882.7-.578.418-1.8,2-3.8.887-2.919-1.635,4.047-6.287,4.047-6.287l3.082-1.606a1.339,1.339,0,0,1,1.219,0h0a1.4,1.4,0,0,1,.619,1.933A8.8,8.8,0,0,1,2932.711,1434.2Z" transform="translate(-2921.358 -1342.902)" fill="#15253d"/>
      <path id="Path_2896" data-name="Path 2896" d="M2931.6,1431.26c-.106.093-1.691.888-1.79.975-.153.133-.608.5-.882.7-.579.417-1.8,2-3.8.886-2.918-1.635,4.047-6.287,4.047-6.287l3.081-1.606a1.34,1.34,0,0,1,1.219,0h0a1.4,1.4,0,0,1,.618,1.933A8.8,8.8,0,0,1,2931.6,1431.26Z" transform="translate(-2920.579 -1340.834)" fill="#915350"/>
      <g id="Group_1465" data-name="Group 1465" transform="translate(12.808 3.495)">
        <path id="Path_2897" data-name="Path 2897" d="M2961.119,1155.5l.024.66s.087,1.988-1.87.96a4.078,4.078,0,0,1-1.9-3.508S2958.865,1153.433,2961.119,1155.5Z" transform="translate(-2956.565 -1152.917)" fill="#fff" opacity="0.46"/>
        <path id="Path_2898" data-name="Path 2898" d="M2958.366,1155.91c2.552,1.327,2.461-.993,2.461-.993l.021.01-.076-.789c-2.846-2.445-4.656-2.329-4.656-2.329A4.286,4.286,0,0,0,2958.366,1155.91Zm-1.783-3.472s1.452-.076,3.631,1.82l.018.571s.067,1.723-1.831.736A3.552,3.552,0,0,1,2956.583,1152.438Z" transform="translate(-2955.671 -1151.654)" fill="#513554"/>
        <path id="Path_2899" data-name="Path 2899" d="M2971.446,1160.107l-1.517-.692-.082-.859,1.517.692Z" transform="translate(-2965.335 -1156.399)" fill="#513554"/>
        <path id="Path_2900" data-name="Path 2900" d="M2955.21,1152.1l-.269-.122a.605.605,0,0,1-.3-.456h0c-.018-.185.087-.281.233-.214l.269.123a.605.605,0,0,1,.3.456h0C2955.461,1152.073,2955.357,1152.169,2955.21,1152.1Z" transform="translate(-2954.642 -1151.288)" fill="#513554"/>
        <path id="Path_2901" data-name="Path 2901" d="M2988.274,1167.189l-.269-.123a.6.6,0,0,1-.3-.456h0c-.018-.185.087-.281.233-.214l.269.122a.606.606,0,0,1,.3.456h0C2988.525,1167.16,2988.42,1167.256,2988.274,1167.189Z" transform="translate(-2977.895 -1161.898)" fill="#513554"/>
        <g id="Group_1464" data-name="Group 1464" transform="translate(5.547 2.687)">
          <path id="Path_2902" data-name="Path 2902" d="M2975.376,1162.6l.1.677a3.7,3.7,0,0,0,2.168,2.75c1.873.723,1.326-1.96,1.326-1.96A5.459,5.459,0,0,0,2975.376,1162.6Z" transform="translate(-2974.771 -1161.925)" fill="#fff" opacity="0.46"/>
          <path id="Path_2903" data-name="Path 2903" d="M2977.952,1162.247a7.774,7.774,0,0,0-4.615-1.9l.076.789.02.009a4.694,4.694,0,0,0,2.885,3.433C2978.837,1165.563,2977.952,1162.247,2977.952,1162.247Zm-1.741,1.919a3.488,3.488,0,0,1-2.146-2.551l-.095-.606a6.048,6.048,0,0,1,3.6,1.479S2978.085,1164.9,2976.21,1164.166Z" transform="translate(-2973.336 -1160.345)" fill="#513554"/>
          <path id="Path_2904" data-name="Path 2904" d="M2976.816,1164.356h0c-.063-.076-.083-.172-.044-.215l.453-.5c.039-.043.122-.017.185.059h0c.063.075.083.172.044.214l-.453.5C2976.963,1164.458,2976.88,1164.431,2976.816,1164.356Z" transform="translate(-2975.739 -1162.649)" fill="#fcfeff"/>
        </g>
        <path id="Path_2905" data-name="Path 2905" d="M2958.536,1155.654h0c-.063-.076-.083-.172-.044-.214l.453-.5c.039-.043.122-.016.185.059h0c.063.075.083.171.044.214l-.453.5C2958.682,1155.756,2958.6,1155.73,2958.536,1155.654Z" transform="translate(-2957.335 -1153.842)" fill="#fcfeff"/>
      </g>
      <path id="Path_2906" data-name="Path 2906" d="M2968.927,1457.413c-.123.07-1.835.531-1.949.6-.176.1-.7.368-1,.507-.65.293-2.166,1.6-3.9.109-2.532-2.186,5.224-5.349,5.224-5.349l3.341-.957a1.34,1.34,0,0,1,1.194.244h0a1.4,1.4,0,0,1,.219,2.017A8.8,8.8,0,0,1,2968.927,1457.413Z" transform="translate(-2946.705 -1359.464)" fill="#15253d"/>
      <path id="Path_2907" data-name="Path 2907" d="M2968.43,1454.31c-.123.069-1.834.531-1.95.6-.176.1-.7.368-1,.507-.65.293-2.166,1.6-3.9.109-2.532-2.186,5.224-5.349,5.224-5.349l3.341-.957a1.341,1.341,0,0,1,1.194.244h0a1.4,1.4,0,0,1,.219,2.018A8.8,8.8,0,0,1,2968.43,1454.31Z" transform="translate(-2946.355 -1357.282)" fill="#915350"/>
      <path id="Path_2908" data-name="Path 2908" d="M2965.565,1328.093c4.574,13.125,1.364,32.235,1.545,37.952" transform="translate(-2949.515 -1272.135)" fill="none" stroke="#ceab8b" stroke-miterlimit="10" stroke-width="6.092"/>
      <path id="Path_2909" data-name="Path 2909" d="M2928.8,1307.5c1.667,5.916,2.254,13.613,2.8,19.735.093,1.034-1.792,14.991-1.737,18.8" transform="translate(-2923.661 -1257.652)" fill="none" stroke="#ceab8b" stroke-miterlimit="10" stroke-width="6.092"/>
      <g id="Group_1467" data-name="Group 1467" transform="translate(15.225 93.135)">
        <g id="Group_1466" data-name="Group 1466">
          <path id="Path_2910" data-name="Path 2910" d="M2967.226,1453.787a3.308,3.308,0,0,1-4.428-.407c-.014.7-.017,1.4,0,2.1.069,2.85,4.505,2.861,4.436,0C2967.22,1454.916,2967.219,1454.351,2967.226,1453.787Z" transform="translate(-2962.786 -1453.379)" fill="#e1eaf4"/>
        </g>
      </g>
      <path id="Path_2911" data-name="Path 2911" d="M2923.769,1301.756h0c.5.561-1.651-2.169-1.007-1.78,1.341.81,8.87,5.926,10.437,5.952,1.893.031.79-1.8,2.2-3.062,1.337-1.2,1.652-3.148,1.782-4.939a3.1,3.1,0,0,0-.137-1.467,3.164,3.164,0,0,0-1.083-1.164c-3.345-2.532-9.924-8.8-14.6-6.794C2915.963,1290.816,2921.373,1299.069,2923.769,1301.756Z" transform="translate(-2916.8 -1244.017)" fill="#ceab8b"/>
      <path id="Path_2912" data-name="Path 2912" d="M2919.71,1194.363c-.99,1.277-.873,2.066-.825,3.809a3.893,3.893,0,0,0,2.843,3.639l16.766,4.7s.963-6.45-2.344-8.391c-1.781-1.046-4.544-2.719-6.715-4.04C2926.246,1192.141,2922,1191.414,2919.71,1194.363Z" transform="translate(-2916.665 -1176.695)" fill="#ffd22d"/>
      <path id="Path_2913" data-name="Path 2913" d="M2947.47,1183.337l1.419-6.32,3.855,2.594-1.161,5.754C2951.469,1186.3,2947.192,1185.484,2947.47,1183.337Z" transform="translate(-2936.781 -1165.887)" fill="#ffaa82"/>
      <path id="Path_2914" data-name="Path 2914" d="M2946.139,1144.665s-3.864-2.692-3.9,3.85a11.41,11.41,0,0,0,6.47,10.269c2.324,1.105,5.167-.311,5.294-2.577a16.669,16.669,0,0,0-.523-9.054c.154-2.732-1.726-1.76-4.974-1.936Z" transform="translate(-2933.11 -1142.75)" fill="#ffaa82"/>
      <path id="Path_2915" data-name="Path 2915" d="M2938.286,1154.12s-4.47-1.66-4.045-7.948c.46-6.8,6.718-6.219,10.2-6.553,1.541-.148,2.611-.369,4.189,1.037,1.435,1.279.093,4.155-1.965,4.34-.816.073-.442,2.271-.607,3.025-.293,1.341-1.128,2-1.437,3.3-.292,1.23-2.106,3.157-3.285,3.294A4.356,4.356,0,0,1,2938.286,1154.12Z" transform="translate(-2927.466 -1139.51)" fill="#915151"/>
      <path id="Path_2916" data-name="Path 2916" d="M2917.113,1232.715c-1.068-.412-.812-18.757.147-28.888l18.872,8.979c-.095,8.624-1.184,15.43-.151,25.94Z" transform="translate(-2914.953 -1184.742)" fill="#ffd22d"/>
      <path id="Path_2917" data-name="Path 2917" d="M2931.314,1303.254c-4.663-1.7-9.1-3.562-11.714-6.763-1.281-.74-1.119-2.045.361-2.9h0a5.6,5.6,0,0,1,5.021-.208l11.714,6.763c1.281.74,1.119,2.045-.361,2.9h0A5.6,5.6,0,0,1,2931.314,1303.254Z" transform="translate(-2916.582 -1247.374)" fill="#ffd22d"/>
      <path id="Path_2918" data-name="Path 2918" d="M2945.1,1230.581l-3.11-1.48c-.128,8.407-1.157,15.16-.143,25.481l-.052-.017a2.028,2.028,0,0,1-1.224,1.685h0a5.6,5.6,0,0,1-5.021.208,53.777,53.777,0,0,1-6.381-2.693,36.062,36.062,0,0,0,9.483,4.632,5.6,5.6,0,0,0,5.021-.208h0a2.028,2.028,0,0,0,1.224-1.685l.052.016C2943.912,1246.011,2945,1239.2,2945.1,1230.581Z" transform="translate(-2923.917 -1202.516)" fill="#f1a32f"/>
      <path id="Path_2919" data-name="Path 2919" d="M2958.9,1450.888l.049,1.965a.4.4,0,0,0,.078.232,3.584,3.584,0,0,0,3.584,1.37,8.018,8.018,0,0,0,3.247-1.188.407.407,0,0,0,.169-.372l-.183-2a.41.41,0,0,0-.613-.32,5.608,5.608,0,0,1-5.719-.053A.412.412,0,0,0,2958.9,1450.888Z" transform="translate(-2944.83 -1358.198)" fill="#e5c2a5"/>
      <g id="Group_1469" data-name="Group 1469" transform="translate(3.981 87.319)">
        <g id="Group_1468" data-name="Group 1468">
          <path id="Path_2920" data-name="Path 2920" d="M2929.332,1434.187a3.308,3.308,0,0,1-4.428-.407c-.014.7-.017,1.4,0,2.1.069,2.85,4.505,2.86,4.437,0C2929.327,1435.316,2929.326,1434.751,2929.332,1434.187Z" transform="translate(-2924.892 -1433.779)" fill="#e1eaf4"/>
        </g>
      </g>
      <path id="Path_2921" data-name="Path 2921" d="M2921.01,1431.288l.049,1.964a.4.4,0,0,0,.079.233,3.583,3.583,0,0,0,3.584,1.37,8.016,8.016,0,0,0,3.247-1.188.408.408,0,0,0,.169-.372l-.183-2a.41.41,0,0,0-.613-.32,5.606,5.606,0,0,1-5.719-.053A.412.412,0,0,0,2921.01,1431.288Z" transform="translate(-2918.181 -1344.414)" fill="#e5c2a5"/>
      <path id="Path_2922" data-name="Path 2922" d="M2974.633,1168.047l-5.767.553a.376.376,0,0,1-.409-.337h0a.376.376,0,0,1,.338-.409l5.767-.552a.376.376,0,0,1,.409.337h0A.375.375,0,0,1,2974.633,1168.047Z" transform="translate(-2951.548 -1159.054)" fill="#513554"/>
      <path id="Path_2923" data-name="Path 2923" d="M2950.143,1196.973c-4.329-.651-7.254,2.071-8.288-4.165h0a1.384,1.384,0,0,1,1.869.41,4.315,4.315,0,0,0,4.07,1.538,1.372,1.372,0,0,1,1.321.619Z" transform="translate(-2932.842 -1176.849)" fill="#ffde73"/>
      <path id="Path_2924" data-name="Path 2924" d="M2978.069,1226.341c.491,6.61,1.327,7.686,4.166,13.5,2.586,5.3,8.123,3.1,11.164-6.667" transform="translate(-2958.309 -1200.575)" fill="none" stroke="#ffaa82" stroke-miterlimit="10" stroke-width="3.92"/>
      <path id="Path_2925" data-name="Path 2925" d="M2966.118,1218.608c1.055,8.924,3.869,14.6,7.767,17.486,2.05,1.135,3.967-2.1,3.184-4.053-3.882-3.451-5.244-8.834-5.614-14.978a2.812,2.812,0,0,0-3.335-1.559h0A2.629,2.629,0,0,0,2966.118,1218.608Z" transform="translate(-2949.857 -1192.886)" fill="#ffd22d"/>
      <path id="Path_2926" data-name="Path 2926" d="M2961.477,1170.189c-.215.158-.693,4.709,3.134,3.972s3.055-4.565,3.055-4.565-3.037.79-3.879-2.978S2961.477,1170.189,2961.477,1170.189Z" transform="translate(-2946.54 -1157.818)" fill="#aa6868"/>
      <path id="Path_2927" data-name="Path 2927" d="M2966.163,1170.52c.093,1.076-.458,2-1.229,2.068a1.009,1.009,0,0,1-.25-.009,1.89,1.89,0,0,1-1.314-1.82c-.092-1.076.458-2,1.229-2.068S2966.071,1169.444,2966.163,1170.52Z" transform="translate(-2947.965 -1160.029)" fill="#ffaa82"/>
    </g>
    <path id="Path_2928" data-name="Path 2928" d="M2994.314,1110.488l-11.628-6.713a4.322,4.322,0,0,1-1.8-3.447v-12.672c0-1.329.808-1.939,1.8-1.364l11.628,6.713a4.322,4.322,0,0,1,1.8,3.448v12.672C2996.118,1110.453,2995.31,1111.063,2994.314,1110.488Z" transform="translate(-306.371 -220.643)" fill="#99ffeb" opacity="0.36"/>
    <path id="Path_2929" data-name="Path 2929" d="M3001.193,1110.954l-9.947-5.743a3.7,3.7,0,0,1-1.543-2.949v-10.841c0-1.137.691-1.659,1.543-1.167l9.947,5.743a3.7,3.7,0,0,1,1.544,2.949v10.841C3002.736,1110.923,3002.045,1111.446,3001.193,1110.954Z" transform="translate(-312.574 -223.452)" fill="#fff"/>
    <path id="Path_2930" data-name="Path 2930" d="M2992.845,1133.652a.871.871,0,0,1-.208-1.341l1.247-1.367a.982.982,0,0,1,1.61.26l1.98,4.218,2.12-3.046a.98.98,0,0,1,1.714.225l2.5,6.442a.456.456,0,0,1-.653.559Z" transform="translate(-314.478 -251.979)" fill="#27e0c0"/>
    <ellipse id="Ellipse_168" data-name="Ellipse 168" cx="1.532" cy="2.77" rx="1.532" ry="2.77" transform="matrix(0.906, -0.423, 0.423, 0.906, 2677.936, 871.68)" fill="#ffd22d"/>
    <path id="Path_2931" data-name="Path 2931" d="M2874.437,941.271l-1.391-2.719a1.755,1.755,0,0,1,.307-1.927l.864-.845a.842.842,0,0,1,1.417.241l1.391,2.719a1.756,1.756,0,0,1-.307,1.928l-.864.845A.842.842,0,0,1,2874.437,941.271Z" transform="translate(-230.419 -114.742)" fill="#fff"/>
    <path id="Path_2932" data-name="Path 2932" d="M2853.251,952.275l-1.391-2.719a1.755,1.755,0,0,1,.308-1.928l.863-.845a.842.842,0,0,1,1.416.241l1.391,2.719a1.756,1.756,0,0,1-.307,1.928l-.864.845A.842.842,0,0,1,2853.251,952.275Z" transform="translate(-215.52 -122.481)" fill="#fff"/>
    <path id="Path_2933" data-name="Path 2933" d="M2856.168,949.957s6.113-1.14,7.976-5.028l-1.6-2.543s-4.651,5.679-8.056,3.679Z" transform="translate(-217.485 -119.591)" fill="#fff"/>
    <path id="Path_2934" data-name="Path 2934" d="M2864.886,1027.389h0c-.569-.328-.854-1.283-.452-1.513h0c.456-.26.456-1.108,0-1.894l-.235-.4c-.456-.786-1.195-1.213-1.65-.953h0c-.4.229-1.091-.5-1.091-1.149h0a2.572,2.572,0,0,0-1.167-2.013l-.332-.192c-.645-.372-1.167-.074-1.167.666h0c0,.653-.688.583-1.091-.111h0c-.456-.786-1.195-1.213-1.651-.953l-.235.134c-.456.26-.456,1.108,0,1.894h0c.4.694.117,1.32-.452.991h0c-.645-.372-1.167-.074-1.167.665v.381a2.572,2.572,0,0,0,1.167,2.013c.569.328.854,1.283.452,1.513h0c-.456.26-.456,1.108,0,1.894l.235.4c.456.786,1.195,1.213,1.651.953h0c.4-.23,1.091.5,1.091,1.149h0a2.571,2.571,0,0,0,1.167,2.013l.332.192c.645.372,1.167.074,1.167-.666,0-.653.688-.583,1.091.112.456.786,1.195,1.213,1.65.953l.235-.134c.456-.26.456-1.108,0-1.894h0c-.4-.694-.117-1.32.452-.991h0c.645.372,1.167.074,1.167-.665v-.381A2.573,2.573,0,0,0,2864.886,1027.389Zm-4.761,2.1a6.383,6.383,0,0,1-2.9-5c0-1.836,1.3-2.575,2.9-1.652a6.382,6.382,0,0,1,2.9,5C2863.021,1029.678,2861.724,1030.417,2860.125,1029.494Z" transform="translate(-217.277 -173.328)" fill="#fff"/>
    <g id="Group_1472" data-name="Group 1472" transform="translate(2657.354 857.605)">
      <path id="Path_2935" data-name="Path 2935" d="M2924,1059.7l10.236,6.161-3.605.621c-.863.149-1.939-.494-2.832-1.69Z" transform="translate(-2923.719 -1059.7)" fill="#fff"/>
      <path id="Path_2936" data-name="Path 2936" d="M2927.48,1067.814a5.064,5.064,0,0,1-.347-.422l-4.073-5.233.065,3.4.008.4.052,2.741a2.028,2.028,0,0,0,.112.6Z" transform="translate(-2923.06 -1061.429)" fill="#fff"/>
      <g id="Group_1471" data-name="Group 1471" transform="translate(0.588 6.796)">
        <path id="Path_2937" data-name="Path 2937" d="M2930.929,1083.656a2.772,2.772,0,0,1-1.438-.568l.009.028-4.456,1.577a1.562,1.562,0,0,0,.426.408l9.018,5.427Z" transform="translate(-2925.043 -1082.944)" fill="#fff"/>
        <path id="Path_2938" data-name="Path 2938" d="M2947.461,1083.239l3.627,7.007a.876.876,0,0,0,.174-.6l-.052-2.741-.008-.4-.074-3.907Z" transform="translate(-2940.809 -1082.602)" fill="#fff"/>
      </g>
    </g>
    <g id="Group_1481" data-name="Group 1481" transform="translate(2659.304 772.335)">
      <path id="Path_2939" data-name="Path 2939" d="M3022.394,908.41a2.446,2.446,0,0,0-3.269-.857,28.119,28.119,0,0,0-6.641,4.338,23.6,23.6,0,0,0-5.111,5.444,15.2,15.2,0,0,0-1.917,9.026l.724,13.507c0,.078.013.153.023.228-.67,1.054-1.383,2.18-1.786,2.828-1.092,1.233-2.138,2.444-2.619,3.125-.559.791.738,1.273.738,1.273a10.441,10.441,0,0,0,5.494-.732c1.178-.806.409-1.906,1.611-3.658.2-.3.682-.6.761-.32l-.1,1.876.653-.125s.392-2.681.747-4.485a1.977,1.977,0,0,0-.324-1.723,2.936,2.936,0,0,0-.474-.645,1.1,1.1,0,0,0-.08-.2q-.271-5.07-.543-10.14c-.121-2.259-.286-4.451.746-6.572a16.771,16.771,0,0,1,4.444-4.993,24.477,24.477,0,0,1,6.07-3.928A2.408,2.408,0,0,0,3022.394,908.41Z" transform="translate(-2980.286 -867.232)" fill="#45446c" opacity="0.45" style="mix-blend-mode: multiply;isolation: isolate"/>
      <path id="Path_2940" data-name="Path 2940" d="M2984.683,914.193a23.609,23.609,0,0,0-7.131,2.215,15.21,15.21,0,0,0-6.119,6.906l-6.032,12.107c-.035.07-.064.14-.092.209-1.1.587-2.278,1.214-2.95,1.579-1.557.534-3.065,1.071-3.819,1.427-.877.413.014,1.471.014,1.471a10.441,10.441,0,0,0,5.141,2.073c1.422-.121,1.3-1.456,3.206-2.388.323-.158.889-.185.82.1l-1.015,1.581.63.213s1.663-2.139,2.862-3.534a1.976,1.976,0,0,0,.567-1.658,2.95,2.95,0,0,0-.094-.8,1.129,1.129,0,0,0,.027-.211l4.528-9.088c1.009-2.025,1.947-4.013,3.89-5.349a16.761,16.761,0,0,1,6.329-2.152C2987.828,918.423,2987.3,913.708,2984.683,914.193Z" transform="translate(-2949.691 -872.075)" fill="#45446c" opacity="0.45" style="mix-blend-mode: multiply;isolation: isolate"/>
      <path id="Path_2941" data-name="Path 2941" d="M3010.708,834.084c-.962,6.5-2.189,7.406-4.578,11.58-2.9,5.058-2.431,6.939-8.286,9.8" transform="translate(-2977.603 -815.761)" fill="none" stroke="#ffaa82" stroke-miterlimit="10" stroke-width="4.025"/>
      <path id="Path_2942" data-name="Path 2942" d="M3019.378,911.6c-3.582,1.518-6.988,4.518-9.385,6.984a11.308,11.308,0,0,0-3.169,8.49l.792,14.778" transform="translate(-2983.908 -870.273)" fill="none" stroke="#ef9a78" stroke-miterlimit="10" stroke-width="5.367"/>
      <path id="Path_2943" data-name="Path 2943" d="M3030.257,833.853c-2.513,7.214-3.05,7.087-5.042,12.14" transform="translate(-2996.853 -815.599)" fill="none" stroke="#91b8db" stroke-miterlimit="10" stroke-width="5.367"/>
      <path id="Path_2944" data-name="Path 2944" d="M2960.91,949.211c.851-.878,5.614-7.338,6.325-8.1a42.288,42.288,0,0,1,4.343-4.218,7.319,7.319,0,0,1,3.218-1.386c1.586-.221,7.468,3.75,13.907-.879" transform="translate(-2951.629 -886.472)" fill="none" stroke="#ffaa82" stroke-miterlimit="10" stroke-width="5.367"/>
      <g id="Group_1473" data-name="Group 1473" transform="translate(0 60.126)">
        <path id="Path_2945" data-name="Path 2945" d="M2942.485,978.554c.135-.834-.2-2.1-.735-2.3l-2.554,1.006-.214-.074c-1.243.345-7.082,1.405-8.892,2-.92.3-.166,1.462-.166,1.462a10.444,10.444,0,0,0,4.849,2.686c1.426.054,1.464-1.287,3.474-1.978.339-.117.905-.075.8.2l-1.2,1.445.6.289s1.912-1.92,3.272-3.158A1.977,1.977,0,0,0,2942.485,978.554Z" transform="translate(-2929.633 -975.872)" fill="#fff"/>
        <path id="Path_2946" data-name="Path 2946" d="M2950.289,974.963l-1.582.085s-5.314,2.025-6.349,2.449c-1.2.493.888,4.429,7.008.823C2953.044,976.747,2950.289,974.963,2950.289,974.963Z" transform="translate(-2938.354 -974.963)" fill="#ffaa82"/>
      </g>
      <path id="Path_2947" data-name="Path 2947" d="M3003.214,893.846c-8.192,5.195-13.191,9.944-12.881,12.174,0,0,4.081-2.262,7.282-.4,3.165,1.838,2.478,3.417,1.669,4.264a.427.427,0,0,0,.3.721c3.8.115,17.021.052,17.253-7.108.2-6.069-.633-6.795-.633-6.795S3007.667,899.661,3003.214,893.846Z" transform="translate(-2972.312 -857.79)" fill="#bc4073"/>
      <path id="Path_2948" data-name="Path 2948" d="M3067.563,827.773a3.622,3.622,0,0,0-1.083-.9,12.623,12.623,0,0,0-6.287-2.033" transform="translate(-3021.451 -809.258)" fill="none" stroke="#bc4073" stroke-miterlimit="10" stroke-width="1.342"/>
      <path id="Path_2949" data-name="Path 2949" d="M3034.785,836.324s-3.124,4.338-2.953,7.073c.108,1.741,1.243,3.756,1.394,4.32,1.23,4.615.328,5.939.416,7.2,0,0,.746,4.365,11.613.905l4.807-12.73Z" transform="translate(-3001.501 -817.337)" fill="#d0e7f4"/>
      <path id="Path_2950" data-name="Path 2950" d="M3052.61,837c.1-.164,1.126-1.782,1.168-1.969.478-2.15,1.74-3.793-.562-6.645a30.915,30.915,0,0,0-9.912-4.869,4.465,4.465,0,0,0-5,2.374,23.353,23.353,0,0,0-1.132,3.24c-.446,4.284,1.781-1.246,1.946,1.143-.007-.058-.019-.117-.023-.174,0,0,.288,4.036.5,7.16.132,1.949.224,3.359.229,3.556,0,.009,0,.022,0,.024l6.927,6.138,4.215-6.675h0Z" transform="translate(-3005.217 -808.244)" fill="#d0e7f4"/>
      <path id="Path_2951" data-name="Path 2951" d="M3054.157,823.644s-3.843,3.536-.85,6.372,8.691-2.789,8.691-2.789A18.152,18.152,0,0,0,3054.157,823.644Z" transform="translate(-3015.807 -808.419)" fill="#ffaa82"/>
      <path id="Path_2952" data-name="Path 2952" d="M3031.463,894.345h0a.846.846,0,0,0,.158.866,9.744,9.744,0,0,0,6.667,3.057,18.7,18.7,0,0,0,6.239-.376.849.849,0,0,0,.618-.961l-.045-.264a.845.845,0,0,0-1.012-.687c-1.82.4-6.112,1.111-8.777-.258a9.7,9.7,0,0,1-2.458-1.673A.845.845,0,0,0,3031.463,894.345Z" transform="translate(-3001.207 -857.757)" fill="#46466b"/>
      <path id="Path_2953" data-name="Path 2953" d="M3041.6,901.628l-1.744-.693a1.427,1.427,0,0,1-.851-1.512h0a.89.89,0,0,1,1.257-.675l1.744.693a1.427,1.427,0,0,1,.851,1.513h0A.889.889,0,0,1,3041.6,901.628Z" transform="translate(-3006.535 -861.183)" fill="#fff"/>
      <path id="Path_2954" data-name="Path 2954" d="M3043.092,902.505l-1.01-.4a.826.826,0,0,1-.492-.876h0a.515.515,0,0,1,.727-.391l1.01.4a.827.827,0,0,1,.492.876h0A.515.515,0,0,1,3043.092,902.505Z" transform="translate(-3008.36 -862.675)" fill="#46466b"/>
      <path id="Path_2955" data-name="Path 2955" d="M3053.789,825.239c-.009.4-1.241,4.146-1.035,4.627a2.255,2.255,0,0,0,.646.809,4.183,4.183,0,0,0,4.566.463c.613-.333,2.323-1.267,2.576-1.393a12.632,12.632,0,0,0,1.658-1.414" transform="translate(-3016.204 -809.541)" fill="none" stroke="#bc4073" stroke-miterlimit="10" stroke-width="1.342"/>
      <g id="Group_1474" data-name="Group 1474" transform="translate(16.798 68.25)">
        <path id="Path_2956" data-name="Path 2956" d="M2995.959,1004.385c-.389-.75-1.412-1.566-1.96-1.408l-1.452,2.329-.216.069c-.793,1.018-4.85,5.348-5.949,6.9-.559.792.738,1.273.738,1.273a10.445,10.445,0,0,0,5.495-.732c1.177-.806.409-1.906,1.611-3.658.2-.3.682-.6.76-.321l-.1,1.876.654-.125s.392-2.681.746-4.485A1.978,1.978,0,0,0,2995.959,1004.385Z" transform="translate(-2986.242 -1002.775)" fill="#fff"/>
        <path id="Path_2957" data-name="Path 2957" d="M2999.428,1002.345l-1.22,1.011s-3.061,4.793-3.639,5.75c-.672,1.112,3.352,3.028,6.118-3.515C3002.7,1002.136,2999.428,1002.345,2999.428,1002.345Z" transform="translate(-2992.045 -1002.343)" fill="#ef9a78"/>
      </g>
      <path id="Path_2958" data-name="Path 2958" d="M3039.372,843.981c-6.6,2.766-2.855-4.191-10.587-11.023" transform="translate(-2999.364 -814.969)" fill="none" stroke="#ffaa82" stroke-miterlimit="10" stroke-width="4.025"/>
      <path id="Path_2959" data-name="Path 2959" d="M3032.49,789.076c-.556,1.57-.7,3.461.318,4.776.187.242.408.455.619.677a10.045,10.045,0,0,1,1.424,1.926.987.987,0,0,0,.248.326.692.692,0,0,0,.858-.161,4.767,4.767,0,0,0,.518-.8c.516-.791,11.322,5.5,11.854,4.722.721-1.058-1.938-13.005-2.218-14.254-.356-1.593-8.248.518-9.542-.476a7.4,7.4,0,0,1-.76-.583h0c-.328-.327-.627-1.022-1.171-.787-.437.189-.583.978-.735,1.36C3033.462,786.91,3032.887,787.956,3032.49,789.076Z" transform="translate(-3001.663 -780.82)" fill="#492817"/>
      <path id="Path_2960" data-name="Path 2960" d="M3056.16,814.529l-1.887-7.286,4.566,1.446,1.535,5.95C3060.7,815.608,3057.525,818.25,3056.16,814.529Z" transform="translate(-3017.288 -796.885)" fill="#ffaa82"/>
      <path id="Path_2961" data-name="Path 2961" d="M3059.094,824.35s2.048-1.049,2.057-1.068a5.406,5.406,0,0,1-1.718,2.073Z" transform="translate(-3020.679 -808.164)" fill="#ea8a6c"/>
      <path id="Rectangle_452" data-name="Rectangle 452" d="M4.686,0h0A4.686,4.686,0,0,1,9.371,4.686v5.8a4.686,4.686,0,0,1-4.686,4.686h0A4.686,4.686,0,0,1,0,10.486v-5.8A4.686,4.686,0,0,1,4.686,0Z" transform="translate(32.757 1.195) rotate(-1.913)" fill="#ffaa82"/>
      <path id="Path_2962" data-name="Path 2962" d="M3045.693,779.3c-1.648-2.036-4.7.391-6.345-.244-1.786-.689-1.179-2.524.032-4.006a6.744,6.744,0,0,1,3.128-2.091c4.622-1.747,9.26.208,9.434,5.436,0,0,.422,7.161-3.75,8.217l-.27-1.047s2.4-2.646-.157-4.19c-.6-.361-.624-.372-.569-1.24S3046.247,779.985,3045.693,779.3Z" transform="translate(-3006.003 -772.335)" fill="#492817"/>
      <path id="Path_2963" data-name="Path 2963" d="M3044.786,813.118l2.456,1.052a.244.244,0,0,1,.148.257c-.056.391-.333,1.215-1.673.737a2.082,2.082,0,0,1-1.275-1.788A.247.247,0,0,1,3044.786,813.118Z" transform="translate(-3010.373 -801.002)" fill="#fff"/>
      <path id="Path_2964" data-name="Path 2964" d="M3044.341,802.422c0,.307-.123.555-.275.555s-.275-.249-.275-.555.123-.555.275-.555S3044.341,802.116,3044.341,802.422Z" transform="translate(-3009.917 -793.104)" fill="#492817"/>
      <g id="Group_1476" data-name="Group 1476" transform="translate(37.097 8.49)">
        <g id="Group_1475" data-name="Group 1475">
          <path id="Path_2965" data-name="Path 2965" d="M3054.941,801.544a2.588,2.588,0,0,1,1.611.724c.266.279.688-.144.422-.422a3.184,3.184,0,0,0-2.033-.9.3.3,0,0,0,0,.6Z" transform="translate(-3054.653 -800.947)" fill="#492817"/>
        </g>
      </g>
      <g id="Group_1478" data-name="Group 1478" transform="translate(33.089 6.965)">
        <g id="Group_1477" data-name="Group 1477">
          <path id="Path_2966" data-name="Path 2966" d="M3041.431,796.407a2.592,2.592,0,0,1,1.668.583c.285.256.709-.165.422-.422a3.183,3.183,0,0,0-2.09-.758c-.382.022-.385.619,0,.6Z" transform="translate(-3041.143 -795.807)" fill="#492817"/>
        </g>
      </g>
      <path id="Path_2967" data-name="Path 2967" d="M3060.946,789.442s4.62,6.049,4.208,10.006c-.341,3.272-3.9,5.354-4.529,10.3a1.031,1.031,0,0,0,1.835.753,14.272,14.272,0,0,1,3.113-3.019c3.085-2.11,3.646-4.356,3.355-6s-1.576-13.652-1.576-13.652l-7.088-.705Z" transform="translate(-3021.501 -782.735)" fill="#492817"/>
      <path id="Path_2968" data-name="Path 2968" d="M3071.469,806.343a.952.952,0,0,1-1.627-.408,2.287,2.287,0,0,1,.678-2.325.952.952,0,0,1,1.627.408A2.286,2.286,0,0,1,3071.469,806.343Z" transform="translate(-3028.171 -794.117)" fill="#ffaa82"/>
      <path id="Path_2969" data-name="Path 2969" d="M3036.459,792.4s.07-2.4,5.817-5.541.26-.145.26-.145l-5.7-1.289S3034.584,787.981,3036.459,792.4Z" transform="translate(-3004.236 -781.541)" fill="#492817"/>
      <g id="Group_1480" data-name="Group 1480" transform="translate(14.724 8.417)">
        <path id="Path_2970" data-name="Path 2970" d="M3030.218,800.787l-5.715,3.825,1.353,2.021,5.715-3.825c.352-.235.333-.878-.04-1.436S3030.569,800.552,3030.218,800.787Z" transform="translate(-3011.076 -800.7)" fill="#fff"/>
        <path id="Path_2971" data-name="Path 2971" d="M3020.007,801.555,3011.874,807l1.924,2.876,8.133-5.443c.5-.334.474-1.25-.057-2.044S3020.507,801.221,3020.007,801.555Z" transform="translate(-3002.195 -801.215)" fill="#fff"/>
        <path id="Path_2972" data-name="Path 2972" d="M2996.558,810.358l-.01.007-10.071,6.349,0,0c-.013.008-.028.014-.041.023-.7.471-.572,1.9.294,3.2s2.139,1.962,2.844,1.491c.013-.009.024-.02.037-.03l0,0,9.7-6.925h0c.7-.471.658-1.775-.1-2.913S2997.262,809.887,2996.558,810.358Z" transform="translate(-2983.988 -807.373)" fill="#45446c"/>
        <g id="Group_1479" data-name="Group 1479" transform="translate(0 6.442)">
          <path id="Path_2973" data-name="Path 2973" d="M2987.617,822.621l-.011.01-4.962,2.72,4.137,5.8,4.263-3.413h0c.875-.586.818-2.207-.129-3.62S2988.492,822.036,2987.617,822.621Z" transform="translate(-2981.638 -822.41)" fill="#7b8eff"/>
          <path id="Path_2974" data-name="Path 2974" d="M2984.241,833.373c1.1,1.644,1.053,3.6-.1,4.378s-2.987.07-4.086-1.574-1.054-3.6.1-4.378S2983.14,831.729,2984.241,833.373Z" transform="translate(-2979.255 -828.792)" fill="#a7d1e8"/>
          <path id="Path_2975" data-name="Path 2975" d="M2985.365,835.548c.84,1.255.8,2.752-.079,3.343s-2.28.053-3.12-1.2-.8-2.752.079-3.343S2984.525,834.293,2985.365,835.548Z" transform="translate(-2980.874 -830.635)" fill="#45446c"/>
        </g>
      </g>
      <path id="Path_2976" data-name="Path 2976" d="M3054.636,807.879a1.215,1.215,0,0,1,.72.1c.063.031.124.066.184.1a1.641,1.641,0,0,1,.445.338" transform="translate(-3017.544 -797.321)" fill="none" stroke="#492817" stroke-miterlimit="10" stroke-width="0.313"/>
      <path id="Path_2977" data-name="Path 2977" d="M3013.529,819.131h0a2.071,2.071,0,0,1,2.9-.35l3.093,2.427a2.071,2.071,0,0,1,.35,2.9h0a2.071,2.071,0,0,1-2.9.35l-3.092-2.427A2.071,2.071,0,0,1,3013.529,819.131Z" transform="translate(-2988.327 -804.691)" fill="#ffaa82"/>
      <path id="Path_2978" data-name="Path 2978" d="M2989.3,901.6h-1.941a2.255,2.255,0,0,1-2.248-2.248h0a2.255,2.255,0,0,1,2.248-2.248h1.941a2.254,2.254,0,0,1,2.248,2.248h0A2.254,2.254,0,0,1,2989.3,901.6Z" transform="translate(-2968.652 -860.08)" fill="#ffaa82"/>
      <path id="Path_2979" data-name="Path 2979" d="M2983.971,837.23a.686.686,0,0,0-1.224-.065c-.254.458-.269,1.195.6,2.336C2984.953,841.624,2984.817,839.189,2983.971,837.23Z" transform="translate(-2966.88 -817.685)" fill="#7b7bc6"/>
      <path id="Path_2980" data-name="Path 2980" d="M2986.1,837.136a.415.415,0,1,1-.626-.132A.458.458,0,0,1,2986.1,837.136Z" transform="translate(-2968.812 -817.761)" fill="#fff"/>
    </g>
    <g id="Group_1489" data-name="Group 1489" transform="translate(2545.244 878.94)">
      <ellipse id="Ellipse_169" data-name="Ellipse 169" cx="8.459" cy="14.653" rx="8.459" ry="14.653" transform="translate(2.159 100.666) rotate(-89.689)" fill="#a8c4e5" opacity="0.4" style="mix-blend-mode: multiply;isolation: isolate"/>
      <g id="Group_1482" data-name="Group 1482" transform="translate(26.858 23.02)">
        <path id="Path_2981" data-name="Path 2981" d="M2641.42,1230.367a5.178,5.178,0,0,1-4.686-.008c-1.3-.75-1.3-1.961-.015-2.705a5.178,5.178,0,0,1,4.686.009C2642.7,1228.411,2642.71,1229.622,2641.42,1230.367Z" transform="translate(-2635.757 -1221.78)" fill="#8585ff"/>
        <rect id="Rectangle_453" data-name="Rectangle 453" width="6.626" height="5.317" transform="translate(0 1.913)" fill="#8585ff"/>
        <path id="Path_2982" data-name="Path 2982" d="M2646.048,1215.53v5.318h0a1.629,1.629,0,0,1-.963,1.356,4.183,4.183,0,0,1-1.341.468,5.143,5.143,0,0,0,3.321-.468,1.627,1.627,0,0,0,.963-1.356h0v-5.318Z" transform="translate(-2641.374 -1213.645)" fill="#7878ea"/>
        <path id="Path_2983" data-name="Path 2983" d="M2641.42,1212.448a5.179,5.179,0,0,1-4.686-.009c-1.3-.749-1.3-1.961-.015-2.705a5.18,5.18,0,0,1,4.686.008C2642.7,1210.491,2642.71,1211.7,2641.42,1212.448Z" transform="translate(-2635.757 -1209.178)" fill="#e9e9ff"/>
        <path id="Path_2984" data-name="Path 2984" d="M2642.431,1212.9a4.282,4.282,0,0,1-3.873-.007,1.18,1.18,0,0,1-.012-2.236,4.279,4.279,0,0,1,3.872.007A1.18,1.18,0,0,1,2642.431,1212.9Z" transform="translate(-2637.159 -1209.891)" fill="#a1a1e5"/>
        <path id="Path_2985" data-name="Path 2985" d="M2642.731,1213.906a4.279,4.279,0,0,0-3.872-.007,1.717,1.717,0,0,0-.664.631,1.745,1.745,0,0,0,.676.642,4.28,4.28,0,0,0,3.873.007,1.709,1.709,0,0,0,.664-.631A1.743,1.743,0,0,0,2642.731,1213.906Z" transform="translate(-2637.471 -1212.175)" fill="#565682"/>
        <path id="Path_2986" data-name="Path 2986" d="M2638.859,1216.744a1.718,1.718,0,0,1-.664-.631,1.476,1.476,0,0,1,.317-.385,4.237,4.237,0,0,1,2.692.4,1.717,1.717,0,0,1,.664.631.91.91,0,0,1,.116.3c-.16.039-.307.07-.433.087A4.237,4.237,0,0,1,2638.859,1216.744Z" transform="translate(-2637.471 -1213.74)" fill="#6b6b9b"/>
        <path id="Path_2987" data-name="Path 2987" d="M2654.518,1222.623c.6.324,1.246.582,1.273.985.05.731.052,1.828.022,2.559a.414.414,0,0,1-.257.409c-.158.054-.9-.355-1.068-.439" transform="translate(-2648.93 -1218.633)" fill="none" stroke="#45446c" stroke-miterlimit="10" stroke-width="0.954"/>
      </g>
      <path id="Path_2988" data-name="Path 2988" d="M2557.458,1192.409c-3.7,5.321-3.923,12.237-4.01,18.72-.105,7.8.06,6.284.832,14.044" transform="translate(-2550.993 -1174.365)" fill="none" stroke="#ffaa82" stroke-miterlimit="10" stroke-width="3.928"/>
      <path id="Path_2989" data-name="Path 2989" d="M2549.7,1186.853c-1.925,2.055-3.173,5.318-4.275,8.695a1.609,1.609,0,0,0,.864,2.265l3.555,1.142a1.446,1.446,0,0,0,1.794-.952l3-8.514a2.968,2.968,0,0,0-1.32-3.6l-.28-.133C2551.75,1185.071,2551.164,1185.432,2549.7,1186.853Z" transform="translate(-2545.244 -1169.45)" fill="#45446c"/>
      <path id="Path_2990" data-name="Path 2990" d="M2548.372,1213.388a10.962,10.962,0,0,0,2.188,1.147,3.932,3.932,0,0,0,1.724.447" transform="translate(-2547.444 -1189.119)" fill="none" stroke="#fcfeff" stroke-miterlimit="10" stroke-width="1.309"/>
      <path id="Path_2991" data-name="Path 2991" d="M2574.155,1426.093c-.107.093-1.694.89-1.794.977-.153.133-.609.5-.884.7-.58.418-1.805,2.008-3.8.889-2.925-1.638,4.056-6.3,4.056-6.3l3.088-1.61a1.343,1.343,0,0,1,1.222,0h0a1.406,1.406,0,0,1,.62,1.937A8.816,8.816,0,0,1,2574.155,1426.093Z" transform="translate(-2560.513 -1334.844)" fill="#15253d"/>
      <path id="Path_2992" data-name="Path 2992" d="M2573.045,1423.145c-.106.093-1.695.89-1.794.977-.153.134-.609.5-.884.7-.58.419-1.805,2.008-3.8.889-2.925-1.638,4.056-6.3,4.056-6.3l3.088-1.61a1.342,1.342,0,0,1,1.221,0h0a1.405,1.405,0,0,1,.62,1.937A8.814,8.814,0,0,1,2573.045,1423.145Z" transform="translate(-2559.733 -1332.772)" fill="#894e4e"/>
      <path id="Path_2993" data-name="Path 2993" d="M2590.03,1420.924c.158-.309.4-.895.61-1.257a1.4,1.4,0,0,0-1.878-1.867l-1.507.786A6.057,6.057,0,0,1,2590.03,1420.924Z" transform="translate(-2574.788 -1332.772)" fill="#915350"/>
      <path id="Path_2994" data-name="Path 2994" d="M2550.806,1296.329h0a2.022,2.022,0,0,1-2.016-2.016v-3.837a2.021,2.021,0,0,1,2.016-2.016h0a2.021,2.021,0,0,1,2.016,2.016v3.837A2.022,2.022,0,0,1,2550.806,1296.329Z" transform="translate(-2547.738 -1241.915)" fill="#ffaa82"/>
      <g id="Group_1484" data-name="Group 1484" transform="translate(15.562 3.072)">
        <path id="Path_2995" data-name="Path 2995" d="M2603.776,1146.735l-.039.66s-.1,1.991-1.957.779a4.086,4.086,0,0,1-1.556-3.681S2601.725,1144.461,2603.776,1146.735Z" transform="translate(-2599.46 -1143.74)" fill="#fff" opacity="0.46"/>
        <path id="Path_2996" data-name="Path 2996" d="M2600.921,1146.88c2.419,1.567,2.551-.755,2.551-.755l.02.012v-.795c-2.606-2.712-4.422-2.768-4.422-2.768A4.3,4.3,0,0,0,2600.921,1146.88Zm-1.446-3.634s1.456.063,3.448,2.163l-.037.572s-.1,1.725-1.9.559A3.56,3.56,0,0,1,2599.475,1143.246Z" transform="translate(-2598.619 -1142.39)" fill="#513554"/>
        <path id="Path_2997" data-name="Path 2997" d="M2613.679,1152.312l-1.447-.835v-.865l1.447.835Z" transform="translate(-2607.917 -1148.043)" fill="#513554"/>
        <path id="Path_2998" data-name="Path 2998" d="M2598.2,1142.807l-.257-.148a.607.607,0,0,1-.253-.484h0c0-.187.113-.272.253-.191l.257.148a.606.606,0,0,1,.253.484h0C2598.452,1142.8,2598.339,1142.888,2598.2,1142.807Z" transform="translate(-2597.689 -1141.954)" fill="#513554"/>
        <path id="Path_2999" data-name="Path 2999" d="M2629.74,1161.017l-.256-.148a.606.606,0,0,1-.253-.484h0c0-.186.113-.272.253-.191l.256.148a.606.606,0,0,1,.253.484h0C2629.994,1161.012,2629.88,1161.1,2629.74,1161.017Z" transform="translate(-2619.872 -1154.76)" fill="#513554"/>
        <g id="Group_1483" data-name="Group 1483" transform="translate(5.298 3.198)">
          <path id="Path_3000" data-name="Path 3000" d="M2617.36,1155.182l.038.684a3.7,3.7,0,0,0,1.9,2.95c1.8.9,1.51-1.829,1.51-1.829A5.471,5.471,0,0,0,2617.36,1155.182Z" transform="translate(-2616.821 -1154.455)" fill="#fff" opacity="0.46"/>
          <path id="Path_3001" data-name="Path 3001" d="M2619.965,1155.069a7.794,7.794,0,0,0-4.423-2.339v.795l.02.011a4.7,4.7,0,0,0,2.551,3.7C2620.531,1158.461,2619.965,1155.069,2619.965,1155.069Zm-1.921,1.748a3.494,3.494,0,0,1-1.9-2.75l-.037-.614a6.058,6.058,0,0,1,3.448,1.819S2619.844,1157.729,2618.044,1156.816Z" transform="translate(-2615.542 -1152.73)" fill="#513554"/>
          <path id="Path_3002" data-name="Path 3002" d="M2618.5,1157.181h0c-.056-.081-.066-.179-.023-.218l.5-.455c.043-.039.123,0,.178.077h0c.056.082.066.179.023.218l-.5.455C2618.633,1157.3,2618.553,1157.263,2618.5,1157.181Z" transform="translate(-2617.585 -1155.376)" fill="#fcfeff"/>
        </g>
        <path id="Path_3003" data-name="Path 3003" d="M2601.093,1146.754h0c-.056-.082-.067-.179-.023-.218l.5-.455c.043-.039.123,0,.179.077h0c.056.081.067.179.023.218l-.5.455C2601.229,1146.869,2601.149,1146.835,2601.093,1146.754Z" transform="translate(-2600.048 -1144.845)" fill="#fcfeff"/>
      </g>
      <path id="Path_3004" data-name="Path 3004" d="M2610.45,1449.355c-.123.07-1.839.532-1.954.6-.177.1-.7.368-1.006.508-.652.294-2.171,1.606-3.9.109-2.538-2.191,5.235-5.361,5.235-5.361l3.348-.959a1.34,1.34,0,0,1,1.2.244h0a1.405,1.405,0,0,1,.219,2.022A8.812,8.812,0,0,1,2610.45,1449.355Z" transform="translate(-2585.915 -1351.442)" fill="#15253d"/>
      <path id="Path_3005" data-name="Path 3005" d="M2609.952,1446.245c-.123.07-1.838.532-1.953.6-.177.1-.7.368-1.007.508-.651.294-2.171,1.606-3.9.109-2.538-2.191,5.235-5.36,5.235-5.36l3.348-.959a1.342,1.342,0,0,1,1.2.245h0a1.405,1.405,0,0,1,.22,2.022A8.817,8.817,0,0,1,2609.952,1446.245Z" transform="translate(-2585.565 -1349.255)" fill="#894e4e"/>
      <path id="Path_3006" data-name="Path 3006" d="M2607.081,1319.756c4.584,13.153,1.367,32.3,1.549,38.034" transform="translate(-2588.732 -1263.924)" fill="none" stroke="#ceab8b" stroke-miterlimit="10" stroke-width="6.106"/>
      <path id="Path_3007" data-name="Path 3007" d="M2570.237,1299.118c1.671,5.929,2.259,13.642,2.808,19.778.093,1.036-1.8,15.024-1.741,18.839" transform="translate(-2562.821 -1249.41)" fill="none" stroke="#ceab8b" stroke-miterlimit="10" stroke-width="6.106"/>
      <g id="Group_1486" data-name="Group 1486" transform="translate(17.522 93.088)">
        <g id="Group_1485" data-name="Group 1485">
          <path id="Path_3008" data-name="Path 3008" d="M2608.745,1445.72a3.315,3.315,0,0,1-4.437-.408c-.015.7-.017,1.4,0,2.105.069,2.856,4.515,2.867,4.446,0C2608.739,1446.852,2608.738,1446.286,2608.745,1445.72Z" transform="translate(-2604.295 -1445.312)" fill="#e1eaf4"/>
        </g>
      </g>
      <path id="Path_3009" data-name="Path 3009" d="M2565.195,1293.362h0c.5.563-1.654-2.174-1.009-1.784,1.344.812,8.889,5.939,10.459,5.965,1.9.031.791-1.8,2.2-3.069,1.34-1.2,1.655-3.155,1.785-4.95a3.109,3.109,0,0,0-.137-1.471,3.166,3.166,0,0,0-1.085-1.166c-3.352-2.537-9.945-8.817-14.628-6.808C2557.372,1282.4,2562.793,1290.669,2565.195,1293.362Z" transform="translate(-2555.945 -1235.746)" fill="#ceab8b"/>
      <path id="Path_3010" data-name="Path 3010" d="M2561.126,1185.737c-.992,1.28-.875,2.07-.827,3.817a3.9,3.9,0,0,0,2.849,3.647l16.8,4.712s.965-6.464-2.348-8.409c-1.786-1.048-4.555-2.725-6.73-4.049C2567.676,1183.51,2563.418,1182.782,2561.126,1185.737Z" transform="translate(-2555.81 -1168.279)" fill="#51517a"/>
      <path id="Path_3011" data-name="Path 3011" d="M2588.946,1174.688l1.422-6.334,3.863,2.6-1.164,5.767C2592.954,1177.657,2588.667,1176.839,2588.946,1174.688Z" transform="translate(-2575.969 -1157.448)" fill="#ffaa82"/>
      <path id="Path_3012" data-name="Path 3012" d="M2588.778,1134.976s-3.6-3.055-4.26,3.468a11.434,11.434,0,0,0,5.473,10.863c2.213,1.325,5.184.184,5.528-2.064a16.709,16.709,0,0,0,.344-9.082c.415-2.711-1.554-1.921-4.777-2.407Z" transform="translate(-2572.825 -1133.471)" fill="#ffaa82"/>
      <path id="Path_3013" data-name="Path 3013" d="M2579.354,1145.557s-4.3-2.083-3.276-8.315c1.109-6.745,7.3-5.562,10.8-5.562,1.551,0,2.64-.119,4.079,1.435,1.309,1.413-.3,4.154-2.375,4.142-.821,0-.659,2.223-.9,2.96-.42,1.309-1.316,1.883-1.749,3.15-.409,1.2-2.4,2.949-3.591,2.972A4.367,4.367,0,0,1,2579.354,1145.557Z" transform="translate(-2566.818 -1131.599)" fill="#492817"/>
      <path id="Path_3014" data-name="Path 3014" d="M2558.524,1224.172c-1.07-.413-.814-18.8.147-28.95l18.913,9c-.1,8.643-1.187,15.464-.152,26Z" transform="translate(-2554.094 -1176.343)" fill="#51517a"/>
      <path id="Path_3015" data-name="Path 3015" d="M2572.755,1294.864c-4.672-1.7-9.124-3.57-11.739-6.777-1.285-.741-1.122-2.049.361-2.905h0a5.613,5.613,0,0,1,5.031-.208l11.739,6.777c1.285.741,1.122,2.049-.361,2.905h0A5.614,5.614,0,0,1,2572.755,1294.864Z" transform="translate(-2555.727 -1239.11)" fill="#51517a"/>
      <path id="Path_3016" data-name="Path 3016" d="M2586.568,1222.033l-3.117-1.483c-.128,8.426-1.16,15.193-.143,25.536l-.052-.017a2.033,2.033,0,0,1-1.226,1.688h0a5.614,5.614,0,0,1-5.032.208,53.862,53.862,0,0,1-6.4-2.7,36.133,36.133,0,0,0,9.5,4.641,5.613,5.613,0,0,0,5.032-.209h0a2.032,2.032,0,0,0,1.227-1.688l.052.017C2585.381,1237.5,2586.473,1230.676,2586.568,1222.033Z" transform="translate(-2563.078 -1194.156)" fill="#45446c"/>
      <path id="Path_3017" data-name="Path 3017" d="M2600.4,1442.816l.049,1.969a.4.4,0,0,0,.078.233,3.591,3.591,0,0,0,3.592,1.373,8.04,8.04,0,0,0,3.254-1.191.408.408,0,0,0,.169-.373l-.183-2a.41.41,0,0,0-.614-.321,5.62,5.62,0,0,1-5.731-.053A.413.413,0,0,0,2600.4,1442.816Z" transform="translate(-2584.036 -1350.173)" fill="#e5c2a5"/>
      <path id="Path_3018" data-name="Path 3018" d="M2629.963,1444.455c.217-.271.573-.8.85-1.109a1.4,1.4,0,0,0-1.467-2.206l-1.634.468A6.057,6.057,0,0,1,2629.963,1444.455Z" transform="translate(-2603.242 -1349.255)" fill="#915350"/>
      <g id="Group_1488" data-name="Group 1488" transform="translate(6.254 87.26)">
        <g id="Group_1487" data-name="Group 1487">
          <path id="Path_3019" data-name="Path 3019" d="M2570.769,1426.078a3.315,3.315,0,0,1-4.437-.408c-.014.7-.017,1.4,0,2.105.069,2.856,4.515,2.867,4.445,0C2570.764,1427.21,2570.762,1426.644,2570.769,1426.078Z" transform="translate(-2566.32 -1425.67)" fill="#e1eaf4"/>
        </g>
      </g>
      <path id="Path_3020" data-name="Path 3020" d="M2562.429,1423.174l.049,1.969a.409.409,0,0,0,.079.233,3.59,3.59,0,0,0,3.592,1.373,8.034,8.034,0,0,0,3.254-1.191.41.41,0,0,0,.169-.373l-.184-2a.41.41,0,0,0-.614-.321,5.619,5.619,0,0,1-5.73-.054A.413.413,0,0,0,2562.429,1423.174Z" transform="translate(-2557.329 -1336.359)" fill="#e5c2a5"/>
      <path id="Path_3021" data-name="Path 3021" d="M2615.886,1161.926h-5.806a.376.376,0,0,1-.375-.375h0a.376.376,0,0,1,.375-.375h5.806a.376.376,0,0,1,.375.375h0A.376.376,0,0,1,2615.886,1161.926Z" transform="translate(-2590.577 -1152.399)" fill="#513554"/>
      <path id="Path_3022" data-name="Path 3022" d="M2606.968,1162.485c-.011,1.083-.648,1.954-1.424,1.946a1.015,1.015,0,0,1-.248-.033,1.893,1.893,0,0,1-1.136-1.941c.011-1.082.648-1.954,1.424-1.946S2606.979,1161.4,2606.968,1162.485Z" transform="translate(-2586.677 -1151.932)" fill="#ffaa82"/>
      <path id="Path_3023" data-name="Path 3023" d="M2591.625,1188.353c-4.339-.652-7.27,2.075-8.306-4.174h0a1.387,1.387,0,0,1,1.874.41,4.324,4.324,0,0,0,4.078,1.541,1.374,1.374,0,0,1,1.324.621Z" transform="translate(-2572.021 -1168.433)" fill="#fff"/>
      <path id="Path_3024" data-name="Path 3024" d="M2618,1211.545c.492,6.625,1.81,9.554,4.654,15.378,2.592,5.307,4.309,2.223,8.453-7.192" transform="translate(-2596.409 -1187.823)" fill="none" stroke="#ffaa82" stroke-miterlimit="10" stroke-width="3.928"/>
      <path id="Path_3025" data-name="Path 3025" d="M2606.526,1205.46l2.2,9.1c1.228,2.444,6.8-.145,5.98-2.234l-2.869-8.557a2.793,2.793,0,0,0-3.367-1.651h0A2.794,2.794,0,0,0,2606.526,1205.46Z" transform="translate(-2588.287 -1181.117)" fill="#51517a"/>
      <path id="Path_3026" data-name="Path 3026" d="M2614.943,1233.9a6.646,6.646,0,0,0,4.953-2.21" transform="translate(-2594.261 -1201.986)" fill="none" stroke="#fcfeff" stroke-miterlimit="10" stroke-width="1.309"/>
    </g>
    <ellipse id="Ellipse_170" data-name="Ellipse 170" cx="14.549" cy="8.4" rx="14.549" ry="8.4" transform="translate(2699.01 972.351) rotate(-0.311)" fill="#a8c4e5" opacity="0.4" style="mix-blend-mode: multiply;isolation: isolate"/>
    <path id="Path_3027" data-name="Path 3027" d="M3117.44,1452.756c.106.092,1.682.884,1.782.97.152.132.6.5.878.694.575.416,1.792,1.995,3.777.883,2.9-1.627-4.027-6.256-4.027-6.256l-3.066-1.6a1.332,1.332,0,0,0-1.213,0h0a1.4,1.4,0,0,0-.616,1.923A8.752,8.752,0,0,0,3117.44,1452.756Z" transform="translate(-400.537 -474.683)" fill="#15253d"/>
    <path id="Path_3028" data-name="Path 3028" d="M3118.542,1449.83c.106.092,1.683.884,1.782.97.152.133.6.5.878.694.575.415,1.792,1.994,3.777.883,2.9-1.627-4.027-6.256-4.027-6.256l-3.066-1.6a1.334,1.334,0,0,0-1.213,0h0a1.4,1.4,0,0,0-.616,1.923A8.753,8.753,0,0,0,3118.542,1449.83Z" transform="translate(-401.312 -472.625)" fill="#fff"/>
    <path id="Path_3029" data-name="Path 3029" d="M3079.133,1475.854c.122.069,1.826.529,1.94.594.175.1.692.365,1,.5.647.292,2.156,1.594,3.877.108,2.52-2.175-5.2-5.323-5.2-5.323l-3.324-.952a1.334,1.334,0,0,0-1.188.243h0a1.4,1.4,0,0,0-.218,2.008A8.749,8.749,0,0,0,3079.133,1475.854Z" transform="translate(-373.046 -491.163)" fill="#15253d"/>
    <path id="Path_3030" data-name="Path 3030" d="M3079.627,1472.766c.123.069,1.826.529,1.94.594.175.1.692.366,1,.5.647.292,2.156,1.594,3.878.108,2.519-2.175-5.2-5.322-5.2-5.322l-3.324-.952a1.332,1.332,0,0,0-1.188.243h0a1.4,1.4,0,0,0-.218,2.008A8.751,8.751,0,0,0,3079.627,1472.766Z" transform="translate(-373.394 -488.991)" fill="#fff"/>
    <path id="Path_3031" data-name="Path 3031" d="M3102.161,1347.17c-4.552,13.06-1.358,32.077-1.538,37.765" transform="translate(-389.932 -404.263)" fill="none" stroke="#ffd22d" stroke-miterlimit="10" stroke-width="6.062"/>
    <path id="Path_3032" data-name="Path 3032" d="M3137.959,1326.678c-1.66,5.887-2.243,13.546-2.788,19.638-.092,1.029,1.783,14.918,1.729,18.706" transform="translate(-414.875 -389.852)" fill="none" stroke="#ffd22d" stroke-miterlimit="10" stroke-width="6.062"/>
    <g id="Group_1491" data-name="Group 1491" transform="translate(2708.623 979.9)">
      <g id="Group_1490" data-name="Group 1490" transform="translate(0)">
        <path id="Path_3033" data-name="Path 3033" d="M3095.847,1472.245a3.291,3.291,0,0,0,4.406-.405c.014.7.017,1.394,0,2.09-.068,2.836-4.483,2.847-4.414,0C3095.853,1473.369,3095.854,1472.807,3095.847,1472.245Z" transform="translate(-3095.838 -1471.84)" fill="#e1eaf4"/>
      </g>
    </g>
    <path id="Path_3034" data-name="Path 3034" d="M3106.757,1320.962h0c-.5.559,1.642-2.158,1-1.771-1.334.807-8.827,5.9-10.386,5.923-1.883.031-.785-1.789-2.187-3.047-1.33-1.194-1.644-3.133-1.773-4.915a3.1,3.1,0,0,1,.136-1.46,3.138,3.138,0,0,1,1.078-1.158c3.328-2.519,9.875-8.754,14.525-6.76C3114.524,1310.077,3109.141,1318.289,3106.757,1320.962Z" transform="translate(-385.493 -376.284)" fill="#ffd22d"/>
    <path id="Path_3035" data-name="Path 3035" d="M3107,1214.1c.986,1.27.868,2.056.822,3.79a3.875,3.875,0,0,1-2.829,3.622l-16.683,4.679s-.959-6.418,2.332-8.35c1.773-1.041,4.522-2.706,6.682-4.021C3100.493,1211.887,3104.721,1211.164,3107,1214.1Z" transform="translate(-381.827 -309.294)" fill="#27e0c0"/>
    <path id="Path_3036" data-name="Path 3036" d="M3113.529,1203.127l-1.411-6.289-3.836,2.581,1.156,5.726C3109.55,1206.075,3113.807,1205.263,3113.529,1203.127Z" transform="translate(-395.967 -298.54)" fill="#ffaa82"/>
    <path id="Path_3037" data-name="Path 3037" d="M3101.688,1163.928s4.324-1.806,2.987,4.564a11.354,11.354,0,0,1-8.451,8.629c-2.493.587-4.96-1.388-4.608-3.618a16.589,16.589,0,0,1,2.41-8.7c.425-2.689,2.049-1.349,5.245-.838Z" transform="translate(-384.222 -274.869)" fill="#ffaa82"/>
    <path id="Path_3038" data-name="Path 3038" d="M3106.555,1172.738s4.7-.675,5.6-6.881c.983-6.716-4.092-6.947-7.348-8.168-2.579-.968-7.845,1.765-4.487,4.416.64.505-.046,2.3-.045,3.07,0,1.366.677,2.179.705,3.508.026,1.258,1.385,3.514,2.5,3.894A4.335,4.335,0,0,0,3106.555,1172.738Z" transform="translate(-389.607 -270.867)" fill="#492817"/>
    <path id="Path_3039" data-name="Path 3039" d="M3109.713,1252.262c1.062-.41.808-18.664-.146-28.745l-18.78,8.935c.094,8.582,1.179,15.354.151,25.812Z" transform="translate(-383.663 -317.301)" fill="#27e0c0"/>
    <path id="Path_3040" data-name="Path 3040" d="M3097.679,1322.453c4.64-1.692,9.059-3.545,11.656-6.73,1.275-.736,1.114-2.034-.359-2.885h0a5.573,5.573,0,0,0-5-.207l-11.656,6.73c-1.276.736-1.115,2.034.358,2.885h0A5.575,5.575,0,0,0,3097.679,1322.453Z" transform="translate(-384.139 -379.624)" fill="#27e0c0"/>
    <path id="Path_3041" data-name="Path 3041" d="M3090.787,1250.138l3.095-1.473c.126,8.366,1.152,15.085.142,25.356l.052-.016a2.017,2.017,0,0,0,1.218,1.676h0a5.575,5.575,0,0,0,5,.207,53.6,53.6,0,0,0,6.35-2.68,35.878,35.878,0,0,1-9.437,4.609,5.575,5.575,0,0,1-5-.207h0a2.018,2.018,0,0,1-1.218-1.676l-.052.016C3091.966,1265.492,3090.882,1258.72,3090.787,1250.138Z" transform="translate(-383.663 -334.988)" fill="#27e0c0"/>
    <path id="Path_3042" data-name="Path 3042" d="M3097.807,1469.361l-.049,1.954a.4.4,0,0,1-.078.231,3.566,3.566,0,0,1-3.566,1.363,7.98,7.98,0,0,1-3.231-1.182.405.405,0,0,1-.168-.37l.182-1.99a.408.408,0,0,1,.61-.319,5.579,5.579,0,0,0,5.69-.053A.41.41,0,0,1,3097.807,1469.361Z" transform="translate(-383.611 -489.903)" fill="#644968"/>
    <g id="Group_1493" data-name="Group 1493" transform="translate(2719.812 974.113)">
      <g id="Group_1492" data-name="Group 1492">
        <path id="Path_3043" data-name="Path 3043" d="M3133.554,1452.742a3.292,3.292,0,0,0,4.406-.405c.014.7.017,1.394,0,2.09-.069,2.836-4.483,2.847-4.415,0C3133.56,1453.866,3133.561,1453.3,3133.554,1452.742Z" transform="translate(-3133.546 -1452.337)" fill="#e1eaf4"/>
      </g>
    </g>
    <path id="Path_3044" data-name="Path 3044" d="M3135.513,1449.857l-.049,1.955a.4.4,0,0,1-.079.231,3.564,3.564,0,0,1-3.566,1.363,7.976,7.976,0,0,1-3.232-1.183.406.406,0,0,1-.168-.37l.183-1.99a.407.407,0,0,1,.61-.319,5.579,5.579,0,0,0,5.69-.053A.41.41,0,0,1,3135.513,1449.857Z" transform="translate(-410.129 -476.186)" fill="#644968"/>
    <path id="Path_3045" data-name="Path 3045" d="M3103.792,1216.7c4.309-.648,7.218,2.06,8.247-4.145h0a1.377,1.377,0,0,0-1.86.407,4.293,4.293,0,0,1-4.049,1.53,1.365,1.365,0,0,0-1.314.616Z" transform="translate(-392.809 -309.447)" fill="#ffde73"/>
    <path id="Path_3046" data-name="Path 3046" d="M3102.347,1186.606a1.742,1.742,0,0,0,.761,2.27,1.015,1.015,0,0,0,.245.044,1.88,1.88,0,0,0,1.66-1.494,1.741,1.741,0,0,0-.761-2.27C3103.516,1184.929,3102.663,1185.578,3102.347,1186.606Z" transform="translate(-391.71 -290.292)" fill="#ffaa82"/>
    <path id="Path_3047" data-name="Path 3047" d="M3034.465,1137.247l3.022,9.785a19.524,19.524,0,0,0,.693,1.987c.514,1.192,1.263,2.278,1.7,3.5.352.985.489,2.032.752,3.044a25.435,25.435,0,0,0,3.308,6.8" transform="translate(-344.054 -256.631)" fill="none" stroke="#ffaa82" stroke-miterlimit="10" stroke-width="3.901"/>
    <path id="Path_3048" data-name="Path 3048" d="M3060.957,1212.192c-7.355-5.084-11.037-10.2-11.759-14.973-.043-2.331,3.695-2.511,5.047-.912,1.227,5.02,5.325,8.725,10.556,11.912a2.8,2.8,0,0,1-.182,3.659h0A2.616,2.616,0,0,1,3060.957,1212.192Z" transform="translate(-354.414 -297.43)" fill="#27e0c0"/>
    <path id="Path_3049" data-name="Path 3049" d="M3025.79,1128.349h0a2.372,2.372,0,0,1-3.217-.917l-1.53-2.75a2.373,2.373,0,0,1,.916-3.217h0a2.372,2.372,0,0,1,3.217.917l1.531,2.75A2.373,2.373,0,0,1,3025.79,1128.349Z" transform="translate(-334.406 -245.323)" fill="#ffaa82"/>
    <g id="Group_1494" data-name="Group 1494" transform="translate(2598.056 802.458)">
      <path id="Path_3050" data-name="Path 3050" d="M2744.139,928.7l-18.591-10.733a4.509,4.509,0,0,1-1.9-3.541l-.423-38.968c-.015-1.357.812-1.974,1.848-1.376l18.591,10.733a4.508,4.508,0,0,1,1.9,3.541l.424,38.968C2746,928.68,2745.175,929.3,2744.139,928.7Z" transform="translate(-2723.224 -873.852)" fill="#45446c"/>
      <path id="Path_3051" data-name="Path 3051" d="M2737.6,905.331l-4-2.308a3.53,3.53,0,0,1-1.489-2.773h0c-.012-1.063.636-1.546,1.447-1.078l4,2.308a3.532,3.532,0,0,1,1.489,2.773h0C2739.063,905.317,2738.415,905.8,2737.6,905.331Z" transform="translate(-2729.478 -891.533)" fill="#d84177"/>
      <path id="Path_3052" data-name="Path 3052" d="M2752.331,937.793l-6.027-3.48a2.792,2.792,0,0,1-1.178-2.194h0c-.01-.841.5-1.223,1.145-.852l6.027,3.48a2.793,2.793,0,0,1,1.178,2.194h0C2753.486,937.782,2752.973,938.163,2752.331,937.793Z" transform="translate(-2738.627 -914.13)" fill="#fff"/>
      <path id="Path_3053" data-name="Path 3053" d="M2757.637,964.239l-11.078-6.4a2.8,2.8,0,0,1-1.178-2.194h0c-.009-.841.5-1.223,1.145-.852l11.078,6.4a2.794,2.794,0,0,1,1.179,2.194h0C2758.792,964.228,2758.279,964.61,2757.637,964.239Z" transform="translate(-2738.806 -930.678)" fill="#a7d1e8"/>
      <path id="Path_3054" data-name="Path 3054" d="M2752.842,984.853l-6.027-3.48a2.8,2.8,0,0,1-1.178-2.194h0c-.009-.841.5-1.223,1.145-.853l6.027,3.48a2.8,2.8,0,0,1,1.178,2.194h0C2754,984.842,2753.484,985.224,2752.842,984.853Z" transform="translate(-2738.986 -947.226)" fill="#fff"/>
      <path id="Path_3055" data-name="Path 3055" d="M2740.063,999.583l-4.128-2.383a2.793,2.793,0,0,1-1.178-2.194h0c-.009-.841.5-1.223,1.145-.853l4.128,2.383a2.8,2.8,0,0,1,1.179,2.194h0C2741.218,999.571,2740.705,999.953,2740.063,999.583Z" transform="translate(-2731.335 -958.356)" fill="#d84177"/>
    </g>
    <g id="Group_1495" data-name="Group 1495" transform="translate(2631.175 985.4)">
      <path id="Path_3056" data-name="Path 3056" d="M2839.548,1516.114l.685.4a5.347,5.347,0,0,0,4.839-.009h0c1.185-.684,3.2-.2,3.195.759h0c-.006,1.091,1.521,1.973,3.411,1.969l.972,0c1.89,0,3.427-.891,3.432-1.981.005-.964,2.026-1.45,3.2-.771a5.347,5.347,0,0,0,4.838-.009l.69-.4c1.34-.774,1.347-2.024.015-2.793h0c-1.177-.679-.334-1.846,1.335-1.849h0c1.89,0,3.427-.891,3.432-1.982l0-.561c.006-1.091-1.521-1.973-3.411-1.969h0c-1.669,0-2.5-1.161-1.315-1.845,1.34-.774,1.347-2.025.015-2.793l-.686-.4a5.348,5.348,0,0,0-4.839.009h0c-1.184.684-3.2.2-3.195-.759h0c.006-1.091-1.521-1.973-3.411-1.969l-.972,0c-1.89,0-3.426.891-3.432,1.982h0c-.005.964-2.026,1.45-3.2.771h0a5.348,5.348,0,0,0-4.839.009l-.689.4c-1.341.774-1.347,2.024-.015,2.793h0c1.177.679.334,1.846-1.335,1.849h0c-1.89,0-3.426.89-3.432,1.981l0,.562c-.006,1.091,1.521,1.973,3.411,1.969h0c1.669,0,2.5,1.16,1.315,1.844h0C2838.222,1514.094,2838.215,1515.344,2839.548,1516.114Zm6.647-3.442c-3.306-1.908-3.289-5.013.038-6.933a13.272,13.272,0,0,1,12.009-.022c3.306,1.908,3.289,5.013-.038,6.933A13.272,13.272,0,0,1,2846.195,1512.672Z" transform="translate(-2834.837 -1496.552)" fill="#8db0da"/>
      <path id="Path_3057" data-name="Path 3057" d="M2839.548,1507.327l.685.4a5.348,5.348,0,0,0,4.839-.009h0c1.185-.683,3.2-.2,3.195.759h0c-.006,1.091,1.521,1.973,3.411,1.969l.972,0c1.89,0,3.427-.891,3.432-1.981.005-.964,2.026-1.45,3.2-.771a5.348,5.348,0,0,0,4.838-.009l.69-.4c1.34-.774,1.347-2.025.015-2.794h0c-1.177-.679-.334-1.846,1.335-1.849h0c1.89,0,3.427-.891,3.432-1.982l0-.562c.006-1.091-1.521-1.973-3.411-1.969h0c-1.669,0-2.5-1.161-1.315-1.844,1.34-.774,1.347-2.025.015-2.794l-.686-.4a5.348,5.348,0,0,0-4.839.009h0c-1.184.684-3.2.2-3.195-.759h0c.006-1.091-1.521-1.973-3.411-1.969l-.972,0c-1.89,0-3.426.891-3.432,1.982h0c-.005.964-2.026,1.45-3.2.771h0a5.347,5.347,0,0,0-4.839.009l-.689.4c-1.341.774-1.347,2.025-.015,2.794h0c1.177.679.334,1.846-1.335,1.849h0c-1.89,0-3.426.891-3.432,1.982l0,.562c-.006,1.091,1.521,1.972,3.411,1.969h0c1.669,0,2.5,1.16,1.315,1.844h0C2838.222,1505.308,2838.215,1506.559,2839.548,1507.327Zm6.647-3.442c-3.306-1.908-3.289-5.013.038-6.933a13.271,13.271,0,0,1,12.009-.022c3.306,1.909,3.289,5.013-.038,6.933A13.271,13.271,0,0,1,2846.195,1503.885Z" transform="translate(-2834.837 -1490.373)" fill="#a8c4e5"/>
    </g>
    <g id="Group_1496" data-name="Group 1496" transform="translate(2585.925 972.379)">
      <path id="Path_3058" data-name="Path 3058" d="M2689.6,1486.185l1.057.61a8.245,8.245,0,0,0,7.461-.013h0c1.826-1.054,4.934-.316,4.926,1.171h0c-.009,1.682,2.346,3.042,5.26,3.036l1.5,0c2.913-.005,5.283-1.373,5.292-3.055.008-1.486,3.124-2.236,4.938-1.188a8.245,8.245,0,0,0,7.461-.014l1.064-.614c2.067-1.193,2.078-3.122.023-4.308h0c-1.815-1.048-.516-2.847,2.058-2.851h0c2.914-.005,5.284-1.374,5.293-3.056l0-.866c.009-1.682-2.346-3.042-5.26-3.037h0c-2.574,0-3.853-1.79-2.027-2.844,2.067-1.193,2.077-3.122.023-4.308l-1.057-.61a8.247,8.247,0,0,0-7.461.013h0c-1.826,1.054-4.934.316-4.926-1.171h0c.009-1.682-2.345-3.042-5.26-3.037l-1.5,0c-2.913.005-5.283,1.374-5.292,3.056h0c-.008,1.486-3.125,2.236-4.939,1.188h0a8.245,8.245,0,0,0-7.461.014l-1.064.614c-2.067,1.193-2.077,3.122-.023,4.308h0c1.814,1.047.515,2.846-2.059,2.851h0c-2.914.005-5.283,1.373-5.292,3.056l0,.866c-.009,1.682,2.346,3.042,5.26,3.036h0c2.574,0,3.853,1.79,2.028,2.844h0C2687.56,1483.07,2687.55,1485,2689.6,1486.185Zm10.25-5.308c-5.1-2.943-5.071-7.729.058-10.691s13.42-2.976,18.517-.033,5.072,7.729-.058,10.691S2704.951,1483.82,2699.854,1480.877Z" transform="translate(-2682.34 -1456.021)" fill="#8db0da"/>
      <path id="Path_3059" data-name="Path 3059" d="M2689.6,1472.637l1.057.61a8.246,8.246,0,0,0,7.461-.014h0c1.826-1.054,4.934-.316,4.926,1.171h0c-.009,1.682,2.346,3.042,5.26,3.037l1.5,0c2.913-.005,5.283-1.373,5.292-3.056.008-1.486,3.124-2.236,4.938-1.188a8.247,8.247,0,0,0,7.461-.014l1.064-.614c2.067-1.193,2.078-3.122.023-4.308h0c-1.815-1.047-.516-2.847,2.058-2.851h0c2.914-.005,5.284-1.374,5.293-3.056l0-.866c.009-1.682-2.346-3.042-5.26-3.036h0c-2.574,0-3.853-1.79-2.027-2.844,2.067-1.193,2.077-3.122.023-4.308l-1.057-.61a8.246,8.246,0,0,0-7.461.014h0c-1.826,1.054-4.934.315-4.926-1.171h0c.009-1.683-2.345-3.042-5.26-3.037l-1.5,0c-2.913.005-5.283,1.373-5.292,3.055h0c-.008,1.486-3.125,2.236-4.939,1.188h0a8.245,8.245,0,0,0-7.461.013l-1.064.614c-2.067,1.193-2.077,3.122-.023,4.308h0c1.814,1.048.515,2.847-2.059,2.852h0c-2.914.005-5.283,1.373-5.292,3.056l0,.866c-.009,1.682,2.346,3.042,5.26,3.036h0c2.574,0,3.853,1.79,2.028,2.844h0C2687.56,1469.523,2687.55,1471.452,2689.6,1472.637Zm10.25-5.308c-5.1-2.943-5.071-7.729.058-10.691s13.42-2.976,18.517-.034,5.072,7.73-.058,10.691S2704.951,1470.273,2699.854,1467.33Z" transform="translate(-2682.34 -1446.494)" fill="#a8c4e5"/>
    </g>
  </g>
</svg>
