<svg xmlns="http://www.w3.org/2000/svg" xmlns:xlink="http://www.w3.org/1999/xlink" width="562.047" height="617.518" viewBox="0 0 562.047 617.518">
  <defs>
    <linearGradient id="linear-gradient" x1="-81.49" y1="-0.189" x2="-81.49" y2="0.522" gradientUnits="objectBoundingBox">
      <stop offset="0" stop-color="#fe9fee"/>
      <stop offset="1" stop-color="#e33ce3"/>
    </linearGradient>
  </defs>
  <g id="Group_1088" data-name="Group 1088" transform="translate(-1029.103 -304.919)">
    <path id="Path_1901" data-name="Path 1901" d="M1429.236,598.345c22.185,12.809,22.185,33.574,0,46.383s-58.153,12.808-80.338,0-22.184-33.576,0-46.383S1407.052,585.536,1429.236,598.345Z" transform="translate(86.784 81.249)" fill="#cbd5df" opacity="0.7" style="mix-blend-mode: multiply;isolation: isolate"/>
    <path id="Path_1902" data-name="Path 1902" d="M1167.649,743.611c22.184,12.81,22.184,33.577,0,46.387s-58.154,12.807-80.338,0-22.186-33.577,0-46.387S1145.463,730.8,1167.649,743.611Z" transform="translate(11.9 122.834)" fill="#cbd5df" opacity="0.7" style="mix-blend-mode: multiply;isolation: isolate"/>
    <g id="Group_1054" data-name="Group 1054" transform="translate(1099.246 573.998)">
      <g id="Group_1047" data-name="Group 1047" transform="translate(11.759 130.715)">
        <path id="Path_1903" data-name="Path 1903" d="M1106.2,762.047s4.52-6.13,2.919-11.724S1097,721.4,1098.995,706.479s4.313-19.2,4.264-25.862a78.279,78.279,0,0,0-2.131-15.048l22.651,3.472a186.482,186.482,0,0,1-2.4,20.115c-1.6,7.729-3.327,17.055-2.664,35.846s.75,34.619,1.5,37.046,4.857,2.133,5.832,2.133,3.766,3.384,0,5.667S1106.2,762.047,1106.2,762.047Z" transform="translate(-1091.07 -601.47)" fill="#a26c4e"/>
        <path id="Path_1904" data-name="Path 1904" d="M1106.5,738.354s-6.275,6.851-3.467,13.045,10.07,2.311,15.025,3.55,7.923,1.483,9.74-3.3,1.567-11.81.415-12.554a4.959,4.959,0,0,0-5.448,1,14.107,14.107,0,0,0-2.067,3.469s5.037.166,5.118,2.14a2.881,2.881,0,0,1-4.457,2.4C1119.293,746.689,1113.517,738.849,1106.5,738.354Z" transform="translate(-1090.049 -580.634)" fill="#3f02a8"/>
        <path id="Path_1905" data-name="Path 1905" d="M1104.54,770.969l.494-2.311a16.077,16.077,0,0,0,6.183-8.506c2.074-6.11,5.544-30.955,9.007-39.953s13.786-26.006,13.786-26.006-5.613-15.687-8.336-22.535l30.624-3.389s.167,23.943-.825,27.988-11.14,23.777-15.186,32.608-17.092,32.714-18.328,38.231-4.307,19.856-.666,22.3,6.694,3.856,3.637,5.512-13.7-3.057-14.779-9.288S1104.54,770.969,1104.54,770.969Z" transform="translate(-1089.41 -600.698)" fill="#bc8568"/>
        <path id="Path_1906" data-name="Path 1906" d="M1106.9,746.315s-9.658,2.969-8.83,8.335,3.216,11.391,2.31,15.026-2.363,8.667-2.363,8.667h2.526s2.4-12.631,4.957-12.877,3.713,2.969,6.516,7.181,6.691,7.6,11.646,7.6,12.627-4.048,14.279-5.615-.25-3.8-2.4-4.211-11.637-2.971-12.959-4.044c0,0,2.643,2.8,1.078,3.632s-2.975,1.155-4.627-3.716S1112.354,749.041,1106.9,746.315Z" transform="translate(-1091.278 -578.355)" fill="#3f02a8"/>
        <path id="Path_1907" data-name="Path 1907" d="M1112.018,770.79a17.5,17.5,0,0,0,7.633,6.8c-4.664-3.468-8.2-9.66-9.944-12.665-2.394-4.128-8.912-10.237-8.912-10.237a6.449,6.449,0,0,0-2.721-1.887c.826,5.361,3.213,11.381,2.307,15.013s-2.363,8.667-2.363,8.667h2.526s2.4-12.631,4.957-12.877S1109.215,766.577,1112.018,770.79Z" transform="translate(-1091.278 -576.497)" fill="#3f02a8"/>
        <path id="Path_1908" data-name="Path 1908" d="M1120.97,671.657c1.065,2.678,2.574,6.709,4.011,10.623a156.692,156.692,0,0,0,26.542.722c.126-7.287.071-14.734.071-14.734Z" transform="translate(-1084.707 -600.698)" fill="#a36d4f"/>
        <path id="Path_1909" data-name="Path 1909" d="M1102.624,678.078c4.92,1.209,11.642,2.664,19.382,3.836.83-6.471,1.242-12.873,1.242-12.873l-22.651-3.472A86.164,86.164,0,0,1,1102.624,678.078Z" transform="translate(-1090.539 -601.47)" fill="#885234"/>
        <path id="Path_1910" data-name="Path 1910" d="M1151.466,620.189c2.136,7.6,4.454,16.167,5.176,22.872.706,6.579,3.353,38.773,3.636,47.764,0,0,1.825,2.67-13.907,3.935s-45.659-7.728-45.659-7.728a11.7,11.7,0,0,1-6.8-6.278c1.366-20.587.143-23.023-.931-31.373-.934-7.262,1.443-22.941,4.729-33.645C1121.6,627.525,1140.052,624.736,1151.466,620.189Z" transform="translate(-1092.778 -615.736)" fill="#6d79ff"/>
        <path id="Path_1911" data-name="Path 1911" d="M1151.466,620.189c-11.413,4.547-29.865,7.336-53.755-4.453-3.285,10.7-5.662,26.383-4.729,33.645,1.074,8.35,2.3,10.787.931,31.373a11.7,11.7,0,0,0,6.8,6.278s1.362.409,3.641,1.038c-.783-8.078-2.038-22.577-1.664-29.3.531-9.592-.3-20.226,18.88-16.473,12.806,2.507,25.866.309,34.638-2.369A188.976,188.976,0,0,0,1151.466,620.189Z" transform="translate(-1092.778 -615.736)" fill="#535fe9"/>
      </g>
      <path id="Path_1912" data-name="Path 1912" d="M1099.808,628.89l-1.667-18.22,3.25-19.108a72.7,72.7,0,0,1-5.13-11.816c-2.39-8.573-2.952-20.935,5.476-25.99,0,0-12.5,1.544-13.759,11.322s-2.131,30.684-2.517,37.074-1.55,17.133-1.066,20.137,9.467,21.1,9.864,24.969c.339,3.3-.233,7.845.953,10.262C1095.61,648.245,1097.3,636.3,1099.808,628.89Z" transform="translate(-1083.451 -502.764)" fill="#f1a882"/>
      <path id="Path_1913" data-name="Path 1913" d="M1084.438,618.581c1.036,3.905,9.395,20.857,9.776,24.584.34,3.3.028,8.1,1.217,10.524.395-9.273,3.752-21.3,6.261-28.712l-3.6-18.4,3.25-19.108a73.912,73.912,0,0,1-5.1-11.715l-4.442-7.7s3.68,9.3,3.68,13.553-2.612,22.264-3.2,26.621.584,4.744-1.111,7.4C1089.853,617.709,1087.036,618.414,1084.438,618.581Z" transform="translate(-1083.406 -498.672)" fill="#d9a782"/>
      <g id="Group_1048" data-name="Group 1048" transform="translate(0 50.986)">
        <path id="Path_1914" data-name="Path 1914" d="M1105.306,558.865l-3.384-5.108s-13.107-.7-14.557,13.182-3.9,49.349-3.72,52.523,9.978,26.852,9.978,26.852,7.53-2,9.888-3.9l-4.628-31.175,4.811-24.564Z" transform="translate(-1083.635 -553.751)" fill="#fe61ca"/>
        <path id="Path_1915" data-name="Path 1915" d="M1093.412,642.221s-6.552-15.84-9.04-23.343c6.361-1.658,8.018-8.07,9.7-23.632,1.767-16.314-2.252-27.2-2.252-27.2l8.757,10.217,2.984,2.87-.081,1.445-4.811,24.564,4.628,31.175C1100.942,640.224,1093.412,642.221,1093.412,642.221Z" transform="translate(-1083.424 -549.658)" fill="#cc2f98"/>
      </g>
      <path id="Path_1916" data-name="Path 1916" d="M1156.723,650.86a71.839,71.839,0,0,1-15.925,5.068c-9.129,1.662-33.781.112-46.15-14.989,1.207-7.219,2.948-13.761,5.046-16.942,4.921-7.445,9.274-7.584,8.292-13.346s-11.664-22.337-14.047-30.905-2.952-20.935,5.476-25.99l8.992.841s-6.443,2.278,5.5,5.787,15.577.253,20.493.253c0,0,9.732,7.679,12.832,15.825s12.89,8.786,7.1,23.568c-1.536,3.924-5.627,15.111-5.346,21.292C1149.2,626.079,1153.917,639.126,1156.723,650.86Z" transform="translate(-1081.127 -502.764)" fill="#fe61ca"/>
      <path id="Path_1917" data-name="Path 1917" d="M1133.225,560.673s-12.479-6.035-21.651-6.882c-6.26-.58-8.349.625-8.349.625s-7.459,8.83,5.626,12.834c17.175,5.26,26.007-5.049,26.007-5.049Z" transform="translate(-1078.633 -502.799)" fill="#cc2f98"/>
      <path id="Path_1918" data-name="Path 1918" d="M1133.215,560.673s-12.48-6.035-21.651-6.882c-6.26-.58-8.349.625-8.349.625s-7.347,6.027,5.626,10.378,26.007-2.592,26.007-2.592Z" transform="translate(-1078.624 -502.799)" fill="#fe61ca"/>
      <path id="Path_1919" data-name="Path 1919" d="M1094.147,632c1.206-7.219,2.948-13.761,5.046-16.942,4.922-7.445,9.274-7.584,8.292-13.346-.557-3.252-4.2-9.948-7.7-16.709,3.643,3.482,10.343,11.291,10.982,17.015,0,0,.651,7.082,5.338,8.86s-3.495,5.954-8.429,9.129c-2.615,1.686-2.129,5.242-2.736,7.994a75.483,75.483,0,0,0-1.878,11.659A35.389,35.389,0,0,1,1094.147,632Z" transform="translate(-1080.626 -493.82)" fill="#cc2f98"/>
      <g id="Group_1053" data-name="Group 1053" transform="translate(10.379)">
        <path id="Path_1920" data-name="Path 1920" d="M1123.171,577.089s-.633-10.207.891-13.984,2.836-4.4,4.553-4.8c1.33-.309,4.054.455,7.132-5.689s1.92-8.762,2.44-11.38,1.307-4.445.863-6.977-1.282-11.969-8.711-15.186-16.492-2.662-21.453.2-8.868,9.547-8.83,16.5,3.825,11.287,3.883,16.023-2.858,10.554-5.69,14.222,3.063,8.831,7.1,10.711C1114.358,580.926,1123.171,577.089,1123.171,577.089Z" transform="translate(-1090.044 -513.319)" fill="#ffcda8"/>
        <path id="Path_1921" data-name="Path 1921" d="M1124.576,546.421a87.877,87.877,0,0,1-.225-9.509l-8.59,6.465s.655,17.519-4.375,25.131a4.652,4.652,0,0,0-.543,4.449,24,24,0,0,0,8.6-1.6s-.633-10.207.891-13.984,2.836-4.4,4.553-4.8a9.36,9.36,0,0,0,2.817-.612A8.282,8.282,0,0,1,1124.576,546.421Z" transform="translate(-1086.322 -507.586)" fill="#d9a782"/>
        <path id="Path_1922" data-name="Path 1922" d="M1124.219,572.1c-2.112-13.766-6.739-23.777-1.858-28.7l1.138-1.691c.106-.019.64,1.9,2.188,1.482.777-.212,1.8-4.391,2.7-6.781.223-.576.534-1.321.892-2.126a72.473,72.473,0,0,1-6.124,5.7l-.406-.439s7.238-6.047,9.729-10.989c0,0-5.152,6.42-8.338,8.221s-6.977,3.836-5.58,13.234c1.1,7.441,5.485,19.869,5.2,28.248A14.81,14.81,0,0,0,1124.219,572.1Z" transform="translate(-1084.1 -509.978)" fill="#6d2d3d"/>
        <path id="Path_1923" data-name="Path 1923" d="M1137.3,520.538c-2.892-3.518-7.917-7.41-19.338-6.2-5.508.584-9.948,4.811-12.153,7.835-2.469,3.389-4.719,8.25-4.144,17.99s.057,17.972-6.25,24.254c-3.509,3.494-5.227,13.393-2.018,19.387a17.916,17.916,0,0,1,.321-12.663c.037-.093.057-.147.057-.147-.019.049-.038.1-.057.147a18.605,18.605,0,0,0,1.095,14.676,8.314,8.314,0,0,0,2.3,1.778c8.268,4.267,18.917,7.451,21.292,7.226,1.86-.176,4.376-1.465,6.741-3.495a22.669,22.669,0,0,1-2.727,2.872c4.951-2.16,7.526-7.821,8.588-10.856a30,30,0,0,1-1.994,6.755s3.253-5.279,3.46-9.505-1.914-11.128-1.914-11.128v0c-2.171-10.294-4.643-17.86-.6-21.935l1.138-1.691c.105-.019.639,1.9,2.188,1.482.777-.212,1.8-4.391,2.705-6.781.223-.576.534-1.321.891-2.126C1146.6,530.347,1137.3,520.538,1137.3,520.538Z" transform="translate(-1091.704 -514.113)" fill="#9013b9"/>
        <path id="Path_1924" data-name="Path 1924" d="M1139.468,529.227c-2.111,3.548-5.828,4.421-10.163,8.524s-4.251,13.916-1.591,22.854a55.638,55.638,0,0,1,2.383,16.225,38.874,38.874,0,0,0-3.639-14.213s3.367,9.391,1.552,15.768a16.474,16.474,0,0,1-7.521,9.342c2.151-2.279,4.052-6.839,4.052-6.839-3.531,5.68-7.851,7.059-7.851,7.059a28.11,28.11,0,0,0,7.118-25.193c.535,23.32-14.119,24.213-14.119,24.213l1.185-2.283c-.807.873-2.734,2.353-4.061,1.46s-2.309-3.9-2.309-3.9l-.12,3.229c-1.427-.8-3.2-4.195-3.2-4.195l-.1,2.712c-4.75-6.942-.656-21.451-.656-21.451-4.873,11.279-1.942,20.125-1.942,20.125-3.747-3.441-3.457-11.185-3.457-11.185a11.626,11.626,0,0,0-.216,5.679c-.766-1.9-1.918-6.923,2.423-14.451s4.866-12.42,4.866-12.42a29.543,29.543,0,0,1-2.359,5.342,26.913,26.913,0,0,0,2.111-14.4h0c-.01,7.405-1.32,13.773-6.427,18.86-3.509,3.494-5.227,13.393-2.018,19.387a17.916,17.916,0,0,1,.321-12.663c.037-.093.057-.146.057-.146-.019.049-.038.1-.057.146a18.6,18.6,0,0,0,1.095,14.676,8.31,8.31,0,0,0,2.3,1.778c8.268,4.266,18.917,7.451,21.292,7.226,1.86-.176,4.376-1.465,6.741-3.495a22.655,22.655,0,0,1-2.727,2.872c4.951-2.16,7.526-7.82,8.588-10.856a30,30,0,0,1-1.994,6.756s3.253-5.279,3.46-9.506-1.914-11.128-1.914-11.128v0c-2.171-10.294-4.643-17.86-.6-21.935l1.138-1.691c.105-.019.639,1.9,2.188,1.482.777-.212,1.8-4.391,2.705-6.781.223-.576.534-1.321.891-2.126l-3.09,1.488A19.668,19.668,0,0,0,1139.468,529.227Z" transform="translate(-1091.704 -509.786)" fill="#7700a0"/>
        <path id="Path_1925" data-name="Path 1925" d="M1122.81,546.926c-.279.444-3.474.713-2.939-4.79s4.22-6.79,4.131-2.767A30.689,30.689,0,0,1,1122.81,546.926Z" transform="translate(-1083.659 -507.555)" fill="#ffcda8"/>
        <path id="Path_1926" data-name="Path 1926" d="M1115.769,514.339c-5.508.584-9.948,4.811-12.153,7.835-2.469,3.389-4.719,8.25-4.144,17.99.112,1.911.185,3.762.175,5.553a43.961,43.961,0,0,1,1.156,4.339c.644,3.833-.947,12.837-.947,12.837,1.08-2.454,1.766-8.47,1.766-8.47.79,3.443-1.483,14.959-1.483,14.959,2.348-4.04,4.473-13.807,4-27.322s8.411-22.069,11.825-24.231a17.584,17.584,0,0,1,12.394-2.271C1125.344,514.365,1121.312,513.749,1115.769,514.339Z" transform="translate(-1089.507 -514.113)" fill="#7700a0"/>
        <g id="Group_1049" data-name="Group 1049" transform="translate(12.974 13.524)">
          <path id="Path_1927" data-name="Path 1927" d="M1112.019,524.627a10.965,10.965,0,0,0-1.424,1.648,17.89,17.89,0,0,0-2.574,5.116,20.041,20.041,0,0,0-.805,3.756,32.744,32.744,0,0,0-.127,4.31c.051,3.01.161,6.242.144,9.493,0,6.5-.565,12.966-1.944,17.584a22.293,22.293,0,0,1-2.236,5.325,14.659,14.659,0,0,1-1.263,1.778,15.306,15.306,0,0,0,1.215-1.848,23,23,0,0,0,2.077-5.413,49.336,49.336,0,0,0,1.3-8.078c.261-2.984.354-6.172.367-9.349s-.059-6.372-.066-9.377a33.085,33.085,0,0,1,.19-4.35,19.833,19.833,0,0,1,.888-3.814,17.72,17.72,0,0,1,2.75-5.148A11.191,11.191,0,0,1,1112.019,524.627Z" transform="translate(-1101.791 -524.627)" fill="#7700a0"/>
        </g>
        <g id="Group_1050" data-name="Group 1050" transform="translate(19.764 20.963)">
          <path id="Path_1928" data-name="Path 1928" d="M1107.07,577.6a63.273,63.273,0,0,0,2.541-7.019,50.3,50.3,0,0,0,1.681-7.494,27.949,27.949,0,0,0,.27-4.326c-.049-1.469-.208-3-.317-4.512a122.045,122.045,0,0,1-.553-16.621,23.29,23.29,0,0,1,.872-5.355,7.377,7.377,0,0,1,.844-1.866,7.46,7.46,0,0,0-.782,1.922,24.228,24.228,0,0,0-.7,5.4,153.235,153.235,0,0,0,.8,16.476c.109,1.5.259,2.974.3,4.472a26.685,26.685,0,0,1-.318,4.361,46.3,46.3,0,0,1-1.838,7.525A57.767,57.767,0,0,1,1107.07,577.6Z" transform="translate(-1107.07 -530.41)" fill="#7700a0"/>
        </g>
        <g id="Group_1051" data-name="Group 1051" transform="translate(20.739 6.358)">
          <path id="Path_1929" data-name="Path 1929" d="M1124.865,519.064a11.642,11.642,0,0,0-4.141.972,15.922,15.922,0,0,0-3.766,2.227,19.979,19.979,0,0,0-3.511,3.631,31.564,31.564,0,0,0-4.361,8.384c-.861,2.429-1.248,4.1-1.258,4.094a40.626,40.626,0,0,1,1.045-4.225,27.718,27.718,0,0,1,4.191-8.549,18.549,18.549,0,0,1,3.6-3.623,15.235,15.235,0,0,1,3.923-2.146A11.181,11.181,0,0,1,1124.865,519.064Z" transform="translate(-1107.828 -519.056)" fill="#7700a0"/>
        </g>
        <g id="Group_1052" data-name="Group 1052" transform="translate(26.583 11.351)">
          <path id="Path_1930" data-name="Path 1930" d="M1127.667,522.937a12.792,12.792,0,0,0-2.153.979,18.269,18.269,0,0,0-4.835,3.9,19.638,19.638,0,0,0-4.126,7.733,26.206,26.206,0,0,0-.854,4.933c-.14,1.716-.236,3.464-.266,5.221-.081,3.513.143,7.006.174,10.286a42.03,42.03,0,0,1-.8,8.891,51.193,51.193,0,0,1-1.646,6.049c-.482,1.432-.8,2.23-.79,2.232s.289-.83.73-2.291a53.432,53.432,0,0,0,1.488-6.141,43.61,43.61,0,0,0,.6-8.855c-.076-3.244-.323-6.716-.247-10.181.033-1.733.131-3.466.286-5.172a25.654,25.654,0,0,1,.9-4.969,19.572,19.572,0,0,1,4.3-7.819,18.045,18.045,0,0,1,5.018-3.867A12.686,12.686,0,0,1,1127.667,522.937Z" transform="translate(-1112.371 -522.937)" fill="#7700a0"/>
        </g>
      </g>
      <path id="Path_1931" data-name="Path 1931" d="M1138.7,614.706c-.282-6.181,3.81-17.367,5.346-21.292,3.568-9.1,1.221-12.846-1.83-16.279l-1.9-.268s-13.263,12.379-11.937,21.622,4.51,14.284,5.172,19.589c.557,4.448,4.933,20.917,5.161,29.135a79.032,79.032,0,0,0,7.738-2.97C1143.643,632.509,1138.922,619.463,1138.7,614.706Z" transform="translate(-1070.854 -496.148)" fill="#cc2f98"/>
      <path id="Path_1932" data-name="Path 1932" d="M1128.129,535.245a.835.835,0,0,0-1.225-.026l-6.529,6.624a.961.961,0,0,0-.028,1.3l14.962,16.554a.834.834,0,0,0,1.223.027l6.529-6.624a.958.958,0,0,0,.028-1.3Z" transform="translate(-1073.194 -508.143)" fill="#046aea"/>
      <path id="Path_1933" data-name="Path 1933" d="M1134.648,552.584s-3.746,1.933-4.717,1.977l-3.308-3.659s-1.121,2.432,1.294,5.157,4.926,2.943,6.484,3.838,4.083,3.143,5.213,3.923a33.714,33.714,0,0,1,3.168,2.814s2.729,1.221,4.21-.687-.167-6.987-.167-6.987l-1.078-2.046s-1.129-4.746-1.519-6.383a17.059,17.059,0,0,0-2.345-5.271,7.725,7.725,0,0,0-3.948-3.25c-1.557-.661-5.531-2.7-5.531-2.7l-2.036-1.16a1.58,1.58,0,0,0,.23,2.391c1.363,1.285,3.738,3.96,4.183,4.453s.073,3.472.259,4.989A4.717,4.717,0,0,1,1134.648,552.584Z" transform="translate(-1071.404 -507.231)" fill="#ffcda8"/>
      <path id="Path_1934" data-name="Path 1934" d="M1143.263,560.762l-4.584-5.786a43.471,43.471,0,0,1-6.78-.252,7.4,7.4,0,0,1,.917.428c1.555.9,4.082,3.144,5.213,3.923a33.72,33.72,0,0,1,3.168,2.814,4.6,4.6,0,0,0,2.924.226c.013-.005.029-.017.041-.021Z" transform="translate(-1069.819 -502.487)" fill="#d9a782"/>
      <path id="Path_1935" data-name="Path 1935" d="M1127.5,606.05c3.036-.14,1.078-13.234,8.832-13.993s31.129,3.572,35.177,3.15,16.284-.63,13.925-7.036-38.166-35.853-38.166-35.853a12.6,12.6,0,0,1-4.789,9.274l16.413,16.393a45.99,45.99,0,0,1-14.078-5.43c-5.469-3.325-10.2-6.844-15.592-6.844s-7.091,14.2-7.6,24.145S1118.307,606.47,1127.5,606.05Z" transform="translate(-1072.99 -503.176)" fill="#fe61ca"/>
    </g>
    <g id="Group_1065" data-name="Group 1065" transform="translate(1349.161 399.395)">
      <g id="Group_1061" data-name="Group 1061" transform="translate(0 1.844)">
        <g id="Group_1055" data-name="Group 1055" transform="translate(0 57.819)">
          <path id="Path_1936" data-name="Path 1936" d="M1313.912,445.225l-8.726-3.012s-1.311-6.484-1.754-7.486-6.888-3.887-7.589-4.33-2.885-.669-3.185.516c0,0-3.812-2.22-6.48-3.738s-6.85-3.443-7.848-1.779-.073,2.151,2.186,3.592,7.884,5,7.884,5l-1.11.405s-4.667-2.481-5.7-2.441a2.374,2.374,0,0,0-2.111,2.256,7.188,7.188,0,0,0,.442,3.11s-1.887.482-1.665,2.073a4.67,4.67,0,0,0,1.554,2.924,8.363,8.363,0,0,0,2.558,1.111,4.6,4.6,0,0,1-1.631.554c-.632,0-2.6.78-2.148,2.073s1.254,2.187,3.7,2.187a13.889,13.889,0,0,1,7.074,2c1.4,1.074,6.179,1.481,8.364,1.443a21.214,21.214,0,0,1,8.036,2.223c2.483,1.183,4.407,2.22,4.407,2.22Z" transform="translate(-1277.93 -424.754)" fill="#ffcda8"/>
          <path id="Path_1937" data-name="Path 1937" d="M1297.448,435.62s2.256.812,2.554,2.035-1.149,2.964-1,4.589a3.705,3.705,0,0,1-1.482,2.855c.668,1.107-.739,3.847-2.85,3.813a10.888,10.888,0,0,1-3.839-1.142c-.252-1.788-.187-3.694.281-4.339.89-1.222,2.3-.26.56-2.221s-3.376-3.519-3.146-5.775a3.641,3.641,0,0,0-.893-3.183l-1.11.405s-2.089-1.11-3.785-1.834c-.245.394-.594,1.12-.18,1.614.594.7,2.67,2.22,2.151,3.738a3.577,3.577,0,0,1-1.132,1.889s2.614,1.181,1.537,2.664-3.512.962-3.512.962a6.281,6.281,0,0,1-.994.43c1.019.273,2.82.866,3.213,1.754.553,1.258.513,2.461-.17,2.823h0a12.5,12.5,0,0,1,4.947,1.806c1.4,1.074,6.179,1.48,8.363,1.443a21.214,21.214,0,0,1,8.036,2.223c2.483,1.183,4.407,2.22,4.407,2.22l.857-2.494c-2.844-2.129-6.8-6.925-6.709-7.8a33.491,33.491,0,0,1,.867-3.621s-.456-2.268-.925-4.33c-.847-.311-2.34-.871-3.6-1.416a1.327,1.327,0,0,1-.594-2.259s-3.178.969-3.3.965c-.924-.051-4.227-2.183-4.227-2.183a40.361,40.361,0,0,1,3.661,2.831A11.586,11.586,0,0,0,1297.448,435.62Z" transform="translate(-1277.164 -423.017)" fill="#d9a782"/>
        </g>
        <path id="Path_1938" data-name="Path 1938" d="M1378.281,440.463c.907-7.967,4.407-14.2,7.458-16.88l-3.861-5.347s-9.287,2.189-14.265,7.539c-2.759,2.975-18.956,18.475-22.137,21.154s-8.747,8.042-8.747,8.042a85.5,85.5,0,0,0-14.64-5.292c-7.359-1.784-21.223-5.627-21.223-5.627l-3.841,11.955s27.25,13.231,34.521,15.97,11.913,2.242,17.157-2.176c3.915-3.3,21.366-17.914,26.348-21.962C1374.987,443.525,1378.025,442.739,1378.281,440.463Z" transform="translate(-1272.464 -368.8)" fill="#d6d1ea"/>
        <path id="Path_1939" data-name="Path 1939" d="M1369.426,423.695c-1.81,1.4-8.962,5.562-10.545,7.786-4.649,6.52-9.986,15.646-14.848,22.287-4.4,6-13.044,11.818-14.652,18.315,3.658.172,6.739-1.048,10.059-3.846,3.915-3.3,21.366-17.914,26.348-21.962-.064-4.313,2.974-5.1,3.23-7.375a33.316,33.316,0,0,1,2.849-10.246C1369.893,426.8,1368.81,425.082,1369.426,423.695Z" transform="translate(-1263.201 -367.238)" fill="#bdb8d1"/>
        <g id="Group_1056" data-name="Group 1056" transform="translate(121.557 294.905)">
          <path id="Path_1940" data-name="Path 1940" d="M1386.786,612.57c.322,3.387-3.139,8.268-3.439,8.654-1.78,2.291-16.211,17.875-8.825,21.692s19.8-2.738,22.407-8.278,2.162-9.292,5.475-12.6c1.959-1.959,4.327-4.564,5.06-7.822a8.7,8.7,0,0,0-.759-5.072c-.395-.854-4.275,7.035-8.19,7.6C1395.061,617.244,1389.342,613.726,1386.786,612.57Z" transform="translate(-1372.434 -609.075)" fill="#001135"/>
          <path id="Path_1941" data-name="Path 1941" d="M1402.371,620.555c-3.313,3.312-2.864,7.064-5.476,12.6s-15.021,12.1-22.407,8.278a3.6,3.6,0,0,1-1.935-2.295,3.69,3.69,0,0,0,1.879,3.433c6.986,3.618,19.779-2.5,22.248-7.739,2.407-5.107,2.078-8.613,4.956-11.688l.078.992a24.437,24.437,0,0,0,5.4-6.623l-.152-3.28A19.42,19.42,0,0,1,1402.371,620.555Z" transform="translate(-1372.399 -607.597)" fill="#001135"/>
        </g>
        <g id="Group_1057" data-name="Group 1057" transform="translate(82.706 277.218)">
          <path id="Path_1942" data-name="Path 1942" d="M1376.183,607.453c-4.425,2.561-7.409,7.215-16.268,11.695-5.145,2.6-17.584,4.672-17.1-1.03a5.331,5.331,0,0,1,.178-.953,7.506,7.506,0,0,0-.751,2.462c-.486,5.7,11.951,3.629,17.1,1.03,8.86-4.483,11.843-9.134,16.265-11.7.552-.313,1.213-.662,1.915-1.019v1.384l8.828-4.141a9.475,9.475,0,0,0,.5-3.167C1385.716,603.007,1379.3,605.64,1376.183,607.453Z" transform="translate(-1342.229 -593.409)" fill="#001135"/>
          <path id="Path_1943" data-name="Path 1943" d="M1365.506,595.324a22.284,22.284,0,0,1-3.086,6.21,14.951,14.951,0,0,1-4.08,3.308c-5.11,2.3-15.21,9.957-15.652,15.191-.485,5.7,11.955,3.631,17.1,1.03,8.859-4.48,11.843-9.134,16.268-11.695,3.353-1.95,10.52-4.844,10.837-5.637a12.445,12.445,0,0,0-.167-5.927C1373.026,606.1,1369.885,596.233,1365.506,595.324Z" transform="translate(-1342.102 -595.324)" fill="#001135"/>
        </g>
        <path id="Path_1944" data-name="Path 1944" d="M1379.048,513.138l.046-20.5s-18.392,2.39-26.037-7.239c0,0-4.663,44.837-1.829,63.526s6.537,47.656,7.4,55.872,2.975,22.032-.937,29.765c0,0,16.617,5.581,26.812-2.331l-2.708-37.626Z" transform="translate(-1257.208 -349.573)" fill="#190082"/>
        <path id="Path_1945" data-name="Path 1945" d="M1364.413,492.687s.949,22.664,2.692,29.1a98.723,98.723,0,0,1,2.329,12.3c1.69,12.782,3.733,34.441,4.345,39.793,1.208,10.527,5.28,30.984,6.37,38.12s4.776,43.34,4.776,43.34,17.453-.461,25.131-10.315c0,0-2.353-31.995-3.687-42.4s-4.2-11.627-4.871-18.875c-.624-6.891,3.6-35.4,3.482-53.059s-6.675-41.836-6.675-41.836S1394.844,497,1364.413,492.687Z" transform="translate(-1253.173 -348.584)" fill="#3f26a9"/>
        <path id="Path_1946" data-name="Path 1946" d="M1391.923,408.143,1367.591,418.5s-.993,12.608,4.821,14.215,20.891-13,20.891-13C1390.749,416.743,1391.923,408.143,1391.923,408.143Z" transform="translate(-1252.281 -371.69)" fill="#d9a782"/>
        <path id="Path_1947" data-name="Path 1947" d="M1377.379,429.367c2.712.464,15.456-4.225,18.109-5.955a73.153,73.153,0,0,1,6.437-3.584s12.252,9.237,14.905,11.429,4.845,5.076,4.269,11.189-12.195,26.538-13.584,33.334-2.7,31.907-2.56,33.692c.256,3.231,2.3,5.077-3.468,6.115s-25.553,2.192-34.35.462-15.483-6.52-15.835-9.23,1.729-13.614,2.537-17.536.809-20.535.23-29.188,3.833-29.305,6.694-36.017,12.113-7.238,12.113-7.238S1367.7,427.706,1377.379,429.367Z" transform="translate(-1256.937 -369.2)" fill="#d6d1ea"/>
        <path id="Path_1948" data-name="Path 1948" d="M1379.551,432.44s-1.4-4.775-4.144-5.824-5.832,3.239-5.832,3.239-.04,4.231.892,6.462c-1.8,2.951-4.376,9.858-5.8,20.732-1.428,10.942-6.515,43.912-6.515,43.912l5.6,7.485,4.7-4.574s.623-24.735,1.748-37.756c.978-11.246,2.432-22.333,2.855-28.734C1375.631,436.3,1379.551,432.44,1379.551,432.44Z" transform="translate(-1254.965 -366.449)" fill="#c747aa"/>
        <path id="Path_1949" data-name="Path 1949" d="M1369.889,416.84h-1.464c-4.409,8.376-2.327,19.7-2.327,19.7l7.175-7.175C1367.414,425.477,1369.889,416.84,1369.889,416.84Z" transform="translate(-1252.831 -369.2)" fill="#e3def7"/>
        <path id="Path_1950" data-name="Path 1950" d="M1392.254,416.02s-2.642,8.316-20.687,13.582l2.925,9.931s14.52-9.036,21.621-19.47Z" transform="translate(-1251.125 -369.435)" fill="#e3def7"/>
        <g id="Group_1059" data-name="Group 1059" transform="translate(109.358)">
          <path id="Path_1951" data-name="Path 1951" d="M1372.512,385.43c-3.555,2.039-6.653,7.652-8.123,11.475s-1.5,6.085-1.41,7.031,1.46,2.378.853,3.6-.548,4.784-.212,7.1,1.522,5.549,1.677,7.622-.644,7.253,4.6,8.138,17.429-3.689,21.576-9.908,8.965-11.277,9.6-18.805-1.964-14.079-8.268-18.25S1378.308,382.1,1372.512,385.43Z" transform="translate(-1362.949 -379.361)" fill="#ffcda8"/>
          <g id="Group_1058" data-name="Group 1058" transform="translate(0.057 24.733)">
            <path id="Path_1952" data-name="Path 1952" d="M1366.953,411.406c.086-.237-1.882,0-2.686-.788v-.005a20.606,20.606,0,0,1,.653,3.265c.133,1.86-.486,6.219,3.171,7.734C1368.948,418.367,1366.876,411.62,1366.953,411.406Z" transform="translate(-1362.63 -395.716)" fill="#d9a782"/>
            <path id="Path_1953" data-name="Path 1953" d="M1363.607,409.569a35.476,35.476,0,0,0,.857,3.713c.049-1.441,1.658-4.6,2.481-7.116.993-3.024-.183-3.5-1.555-4.584a21.478,21.478,0,0,1-2.4-2.552c.207.94,1.4,2.286.826,3.438C1363.21,403.687,1363.272,407.253,1363.607,409.569Z" transform="translate(-1362.994 -399.031)" fill="#d9a782"/>
          </g>
          <path id="Path_1954" data-name="Path 1954" d="M1377.274,380.207c-9.247,1.668-13.9,9.1-14.053,11.828a2.851,2.851,0,0,0,1.994,3.2c.461,1.435,1.35,3.135,3.087,3.626,3.165.9,12.431-1.037,14.226,1.468s1.75,4.394,3.215,5.433,3.639,7.26,3.689,7.779c.047.5,4.925-4.9,9.484-4.1a20.543,20.543,0,0,0,2.085-7.319c.059-.709.08-1.4.084-2.091C1403.675,381.444,1386.522,378.54,1377.274,380.207Z" transform="translate(-1362.873 -379.803)" fill="#3f02a8"/>
          <path id="Path_1955" data-name="Path 1955" d="M1394.083,404.938a20.545,20.545,0,0,0,2.085-7.319c.059-.709.08-1.4.084-2.09-4.645,3.446-12.919,4.566-16.156,4.879a3.128,3.128,0,0,0,.815.854c1.462,1.039,3.639,7.26,3.689,7.779C1384.646,409.544,1389.525,404.139,1394.083,404.938Z" transform="translate(-1358.041 -375.301)" fill="#563317" opacity="0.3" style="mix-blend-mode: multiply;isolation: isolate"/>
          <path id="Path_1956" data-name="Path 1956" d="M1387.468,403.645s2.082-2.6,4.257-1.464,1.51,3.261.374,5.2-5.2,6.238-6.666,4.914S1387.468,403.645,1387.468,403.645Z" transform="translate(-1356.615 -373.478)" fill="#ffcda8"/>
        </g>
        <path id="Path_1957" data-name="Path 1957" d="M1418.207,443.912l-10.326-2.416s-6.469,8.974-7.3,17.326-3.748,19-10.747,20.458-22.693,2.407-22.693,2.407l-14.766,8.35c-.687,4.032-1.267,8.19-1.068,9.723.352,2.71,7.038,7.5,15.835,9.23s28.581.576,34.35-.462,3.724-2.884,3.468-6.115c-.14-1.785,1.169-26.895,2.56-33.693C1408.491,463.945,1414.51,452.452,1418.207,443.912Z" transform="translate(-1256.937 -362.142)" fill="#bdb8d1"/>
        <g id="Group_1060" data-name="Group 1060" transform="translate(95.681 65.285)">
          <path id="Path_1958" data-name="Path 1958" d="M1389.849,475.136s-6.241.525-9.131-.593-10.567-2.69-14.575-1.178-9.975,4.371-12.34,7.087c-2.547,2.928-1.385,4.457.251,4.457,0,0-2.6,1.729-1.1,3.425.74.835,3.543,0,3.543,0s-1.644,1.568,0,2.489a5.375,5.375,0,0,0,3.807.208s.161,1.362.88,1.7c1.547.732,5.319-.77,7.767-1.7s7.3-1.321,9.571-1.452,6.9-2.844,9.277-3.294,8.219.143,8.219.143Z" transform="translate(-1352.317 -418.482)" fill="#ffcda8"/>
          <path id="Path_1959" data-name="Path 1959" d="M1394.1,481.542c-4.786-.275-13.3,3.2-15.938,4.61-2.958,1.583-9.439,2.143-9.9,1.327s-3.67-1.174-4.162-1.378-.271-2.551,0-3.01-.939-.819-2.1-.682-.424-3.046-.424-4.22-1.165.359-2.243.918-5.1,4.364-5.31,4.364c0,0-2.6,1.729-1.1,3.425.739.835,3.544,0,3.544,0s-1.644,1.568,0,2.489a5.375,5.375,0,0,0,3.807.208s.161,1.362.88,1.7c1.547.732,5.319-.77,7.766-1.7s7.3-1.321,9.571-1.452,6.9-2.844,9.276-3.294,8.219.143,8.219.143Z" transform="translate(-1352.279 -417.045)" fill="#d9a782"/>
          <path id="Path_1960" data-name="Path 1960" d="M1377.344,486.408a14.5,14.5,0,0,1,.384,12.958s34.17,2.509,42.466.409c3.542-.9,6.61.3,8.173-1.638,2.091-2.6,1.779-6.869,1.513-10.678-.464-6.655-5.552-29.188-8.469-38.062s-5.419-20.971-16.426-18.517-6.845,19.555-3.23,27.608,11.36,26.33,11.36,26.33Z" transform="translate(-1345.152 -430.558)" fill="#d6d1ea"/>
        </g>
      </g>
      <g id="Group_1063" data-name="Group 1063" transform="translate(116.422)">
        <path id="Path_1961" data-name="Path 1961" d="M1384.463,410.006a13.976,13.976,0,0,1,6.328-10.96c1.855-1.073,3.522-1.115,4.683-.313l-2.2-1.594a5.077,5.077,0,0,0-4.161.724,14.761,14.761,0,0,0-6.685,11.57c0,2.477,1.011,4.1,2.584,4.6l2.237.414C1385.568,414.108,1384.463,412.523,1384.463,410.006Z" transform="translate(-1364.438 -373.05)" fill="#2e383b"/>
        <g id="Group_1062" data-name="Group 1062">
          <path id="Path_1962" data-name="Path 1962" d="M1371.483,381.768c.909-1.12,2.172-2.579,3.716-2.911l-3.429.747-1.076.284s-1.641.756-2.253,3.509C1369.589,382.709,1370.248,382.46,1371.483,381.768Z" transform="translate(-1368.441 -378.229)" fill="#4a5155"/>
          <path id="Path_1963" data-name="Path 1963" d="M1368.818,383.174a4.332,4.332,0,0,1,2.172-3.141l1.075-.282,1.825-.4a4.875,4.875,0,0,1,1.308-.5l-3.429.747-1.076.284a4.329,4.329,0,0,0-2.253,3.509C1368.562,383.274,1368.692,383.3,1368.818,383.174Z" transform="translate(-1368.441 -378.229)" fill="#959ca0"/>
          <path id="Path_1964" data-name="Path 1964" d="M1381.652,381.148c-5.319-2.484-8.856-2.31-11.079-1.48a2.991,2.991,0,0,1-.306.118.479.479,0,0,1-.058.028l-.073.331c2.161-.969,5.764-1.344,11.387,1.3,12.1,5.669,11.471,21.459,11.305,23.868l.228.157S1394.916,387.33,1381.652,381.148Z" transform="translate(-1367.956 -378.155)" fill="#959ca0"/>
          <path id="Path_1965" data-name="Path 1965" d="M1385.843,380.262a19.3,19.3,0,0,0-14.014-1.038l-1.693.835c2.185-.972,5.836-1.348,11.516,1.3,13.264,6.182,11.4,24.317,11.4,24.317l1.557.3S1399.1,386.443,1385.843,380.262Z" transform="translate(-1367.956 -378.369)" fill="#c7ced2"/>
        </g>
        <path id="Path_1966" data-name="Path 1966" d="M1396.666,402.423a13.99,13.99,0,0,1-6.328,10.96c-3.5,2.019-6.328.383-6.328-3.652a13.976,13.976,0,0,1,6.328-10.96C1393.831,396.754,1396.666,398.389,1396.666,402.423Z" transform="translate(-1363.984 -372.775)" fill="#c7ced2"/>
        <path id="Path_1967" data-name="Path 1967" d="M1394.645,404.554a7.181,7.181,0,0,1-3.257,5.639c-1.8,1.038-3.257.2-3.257-1.88a7.2,7.2,0,0,1,3.257-5.638C1393.191,401.638,1394.645,402.479,1394.645,404.554Z" transform="translate(-1362.804 -371.538)" fill="#2e383b"/>
      </g>
      <g id="Group_1064" data-name="Group 1064" transform="translate(116.222 40.107)">
        <path id="Path_1968" data-name="Path 1968" d="M1369.257,419.885q-.478,0-.971-.015l.026-.792c14.267.462,20.166-9.427,20.225-9.527l.686.4C1389.163,410.05,1383.276,419.885,1369.257,419.885Z" transform="translate(-1368.286 -409.55)" fill="#2e383b"/>
      </g>
      <path id="Path_1969" data-name="Path 1969" d="M1372.146,417.632c0,.879-1.409,1.59-3.149,1.59s-3.147-.711-3.147-1.59,1.408-1.591,3.147-1.591S1372.146,416.755,1372.146,417.632Z" transform="translate(-1252.761 -367.584)" fill="#2e383b"/>
    </g>
    <g id="Group_1066" data-name="Group 1066" transform="translate(1244.756 451.47)">
      <path id="Path_1970" data-name="Path 1970" d="M1196.761,432.733c0-7.135,5.056-10.05,11.232-6.484l99.061,57.189c6.179,3.566,11.23,12.321,11.23,19.452l-.006,292.328c0,7.131-5.049,10.05-11.227,6.48l-99.058-57.186c-6.179-3.567-11.232-12.32-11.232-19.455Z" transform="translate(-1196.761 -417.173)" fill="#c5bdd6"/>
      <path id="Path_1971" data-name="Path 1971" d="M1317.5,796.9l.006-292.328c0-7.131-5.051-15.887-11.231-19.452l-99.06-57.189c-2.986-1.724-5.7-1.922-7.716-.872v-.014l13.327-7.658c1.99-.925,4.621-.67,7.5.99l99.059,57.19c6.177,3.567,11.228,12.321,11.228,19.451v292.33c0,3.618-1.3,6.153-3.388,7.3l-12.408,7.077C1316.48,802.424,1317.5,800.085,1317.5,796.9Z" transform="translate(-1195.979 -418.854)" fill="#d6d1ea"/>
      <path id="Path_1972" data-name="Path 1972" d="M1196.761,431.323V713.95l121.516,70.16.006-282.629a15.909,15.909,0,0,0-.117-1.8l-121.29-70.028A13.05,13.05,0,0,0,1196.761,431.323Z" transform="translate(-1196.761 -415.764)" fill="#f1edfc"/>
      <path id="Path_1973" data-name="Path 1973" d="M1297.762,765.408l0-284.362-6.62,3.822a16.8,16.8,0,0,1,.127,1.9l-.006,282.4Z" transform="translate(-1169.743 -401.051)" fill="url(#linear-gradient)"/>
      <path id="Path_1974" data-name="Path 1974" d="M1297.762,765.408l0-284.362-6.62,3.822a16.8,16.8,0,0,1,.127,1.9l-.006,282.4Z" transform="translate(-1169.743 -401.051)" fill="#fefaff"/>
    </g>
    <g id="Group_1068" data-name="Group 1068" transform="translate(1261.947 514.12)">
      <g id="Group_1067" data-name="Group 1067">
        <path id="Path_1975" data-name="Path 1975" d="M1210.126,482.7l4.231,1.5c0,.484.009.917.023,1.3s.057.807.121,1.281a6.938,6.938,0,0,0,.265,1.223,3.865,3.865,0,0,0,.471.975,2.123,2.123,0,0,0,.714.7q1.238.716,1.237-1.111,0-2.5-2.441-6.386l-1.3-2.017q-.618-.953-.985-1.563t-.866-1.572a13.748,13.748,0,0,1-.778-1.754,13.034,13.034,0,0,1-.484-1.793,10.242,10.242,0,0,1-.2-2q0-2.9,1.594-3.666t4.229.754a10.3,10.3,0,0,1,3.726,3.95,10.508,10.508,0,0,1,1.537,5.229l-.012.167v.4l-4.31-1.8c0-.1.005-.244.016-.445s.017-.368.017-.5a8,8,0,0,0-.057-.948,7.424,7.424,0,0,0-.189-.98,3.088,3.088,0,0,0-.406-.933,1.985,1.985,0,0,0-.665-.641c-.459-.265-.8-.256-1.033.026a2,2,0,0,0-.342,1.272,5.849,5.849,0,0,0,.2,1.5,7.68,7.68,0,0,0,.607,1.563c.271.53.521.986.75,1.366s.534.858.918,1.438.653,1,.814,1.257q.882,1.41,1.489,2.547t1.147,2.444a14.489,14.489,0,0,1,.806,2.61,13.117,13.117,0,0,1,.27,2.643q0,2.5-1.549,3.2t-3.758-.575a10.205,10.205,0,0,1-2.546-2.08,11.339,11.339,0,0,1-1.794-2.691,15.524,15.524,0,0,1-1.048-2.922A14.607,14.607,0,0,1,1210.126,482.7Z" transform="translate(-1210.126 -467.561)" fill="#0098f6"/>
        <path id="Path_1976" data-name="Path 1976" d="M1219.992,486.775V471.8l4.173,2.409v14.826q0,1.271.013,1.854c.008.388.027.866.057,1.435a6.264,6.264,0,0,0,.159,1.25q.118.4.318.9a2.2,2.2,0,0,0,.521.8,4.131,4.131,0,0,0,.778.57,2.719,2.719,0,0,0,.779.331.491.491,0,0,0,.522-.2,2.521,2.521,0,0,0,.316-.525,3.768,3.768,0,0,0,.161-1.052q.044-.789.057-1.344c.006-.37.012-.975.012-1.814v-14.9l4.174,2.408v14.971c0,.76-.021,1.435-.059,2.032a16.242,16.242,0,0,1-.219,1.794,6.214,6.214,0,0,1-.435,1.5,3.27,3.27,0,0,1-.732,1.033,1.945,1.945,0,0,1-1.085.52,3.806,3.806,0,0,1-1.507-.154,8.767,8.767,0,0,1-1.983-.881,12.593,12.593,0,0,1-1.981-1.408,11.062,11.062,0,0,1-1.5-1.583,9.829,9.829,0,0,1-1.078-1.769,12.868,12.868,0,0,1-.735-1.878,14.788,14.788,0,0,1-.441-2.008q-.168-1.092-.223-2.049T1219.992,486.775Z" transform="translate(-1207.302 -466.346)" fill="#0098f6"/>
        <path id="Path_1977" data-name="Path 1977" d="M1231.186,502.094V478.267l4.988,2.88a9.6,9.6,0,0,1,3.921,4,12.607,12.607,0,0,1,1.227,5.727,10.841,10.841,0,0,1-.269,2.65,3.408,3.408,0,0,1-.752,1.532,1.761,1.761,0,0,1-1.237.529,4.284,4.284,0,0,1-1.639-.283,13.769,13.769,0,0,1-2.041-.975v10.194Zm4.208-11.165a4.644,4.644,0,0,0,.591.295,4.359,4.359,0,0,0,.453.156.471.471,0,0,0,.343-.019,2.569,2.569,0,0,0,.247-.136.53.53,0,0,0,.167-.295c.045-.154.08-.282.1-.383a3.438,3.438,0,0,0,.05-.526c.012-.251.017-.451.017-.606v-.92c0-.345,0-.607-.005-.785s-.015-.412-.04-.7a3.413,3.413,0,0,0-.108-.68c-.051-.165-.123-.363-.219-.594a2.146,2.146,0,0,0-.349-.587,5.472,5.472,0,0,0-.521-.512,4.812,4.812,0,0,0-.729-.514Z" transform="translate(-1204.097 -464.496)" fill="#0098f6"/>
        <path id="Path_1978" data-name="Path 1978" d="M1240.295,507.353V483.526l4.987,2.879a9.6,9.6,0,0,1,3.921,4,12.592,12.592,0,0,1,1.227,5.726,10.82,10.82,0,0,1-.269,2.651,3.422,3.422,0,0,1-.752,1.532,1.758,1.758,0,0,1-1.237.529,4.264,4.264,0,0,1-1.639-.283,13.6,13.6,0,0,1-2.04-.974v10.192Zm4.208-11.166a4.661,4.661,0,0,0,.59.3,3.81,3.81,0,0,0,.454.154.477.477,0,0,0,.344-.019c.1-.049.18-.094.247-.135a.533.533,0,0,0,.166-.295c.045-.154.08-.283.1-.383a3.463,3.463,0,0,0,.052-.527c.012-.25.018-.451.018-.606v-.921c0-.345,0-.6-.006-.783s-.018-.412-.04-.7a3.424,3.424,0,0,0-.109-.679c-.05-.166-.122-.363-.217-.594a2.125,2.125,0,0,0-.351-.588,5.2,5.2,0,0,0-.521-.511,4.559,4.559,0,0,0-.728-.513Z" transform="translate(-1201.489 -462.99)" fill="#0098f6"/>
        <path id="Path_1979" data-name="Path 1979" d="M1249.2,504.21V496.2q0-8.443,6.03-4.962t6.042,11.933v7.889a15.809,15.809,0,0,1-.183,2.535,6.287,6.287,0,0,1-.625,1.937,2.775,2.775,0,0,1-1.124,1.2,2.674,2.674,0,0,1-1.724.2,7.124,7.124,0,0,1-2.386-.939,11.592,11.592,0,0,1-2.372-1.8,11.035,11.035,0,0,1-1.719-2.158,12.264,12.264,0,0,1-1.119-2.446,15.124,15.124,0,0,1-.63-2.633A19.281,19.281,0,0,1,1249.2,504.21Zm7.9,5.648v-10.3q0-3.521-1.869-4.6a1.3,1.3,0,0,0-.949-.224.843.843,0,0,0-.575.556,4.246,4.246,0,0,0-.256.963,7.736,7.736,0,0,0-.077,1.154v10.3q0,3.508,1.857,4.582T1257.1,509.858Z" transform="translate(-1198.941 -461.073)" fill="#0098f6"/>
        <path id="Path_1980" data-name="Path 1980" d="M1260.285,518.894V495.067l4.542,2.621a17.7,17.7,0,0,1,2.723,1.909,12.893,12.893,0,0,1,2.056,2.247,9.325,9.325,0,0,1,1.341,2.722,10.742,10.742,0,0,1,.461,3.2c0,.5-.017.925-.046,1.3a7.412,7.412,0,0,1-.212,1.208,3.262,3.262,0,0,1-.454,1.062,1.963,1.963,0,0,1-.824.655,2.6,2.6,0,0,1-1.274.193q1.856,7.874,3.234,13.381l-4.322-2.494-2.362-12.337-.688-.4V521.3Zm4.174-11.5,1.194.689a.85.85,0,0,0,.825.106,1.029,1.029,0,0,0,.5-.652,5.528,5.528,0,0,0,.219-.92,6.02,6.02,0,0,0,.062-.864,8,8,0,0,0-.052-.9,11.059,11.059,0,0,0-.181-1.107,3.982,3.982,0,0,0-.436-1.152,2.067,2.067,0,0,0-.741-.777l-1.387-.8Z" transform="translate(-1195.767 -459.686)" fill="#0098f6"/>
        <path id="Path_1981" data-name="Path 1981" d="M1272.484,525.936V505.709l-3.026-1.746v-3.6l10.168,5.872v3.6l-2.969-1.715v20.227Z" transform="translate(-1193.142 -458.171)" fill="#0098f6"/>
      </g>
    </g>
    <g id="Group_1069" data-name="Group 1069" transform="translate(1277.817 719.642)">
      <path id="Path_1982" data-name="Path 1982" d="M1235.291,639.779a10.531,10.531,0,0,1-.5,3.348,8.119,8.119,0,0,1-1.427,2.641,17.248,17.248,0,0,1-1.781,1.9c-.57.516-1.254,1.075-2.048,1.686a21.174,21.174,0,0,0-1.74,1.444l7.5,4.328v5.35l-12.827-7.4V648.3l5.863-6.308q.509-.557.845-.966a9.161,9.161,0,0,0,.715-1.039,5.165,5.165,0,0,0,.576-1.352,5.975,5.975,0,0,0,.194-1.527,5.547,5.547,0,0,0-.1-1.033,7.65,7.65,0,0,0-.3-1.133,4.123,4.123,0,0,0-.556-1.069,2.679,2.679,0,0,0-.809-.755,1.182,1.182,0,0,0-.678-.188.669.669,0,0,0-.489.266,2.252,2.252,0,0,0-.32.61,3.741,3.741,0,0,0-.188.843c-.037.315-.066.635-.094.96s-.039.641-.033.947.008.588.008.846v.37l-4.619-2.666v-1.747a14.833,14.833,0,0,1,.214-2.682,5.99,5.99,0,0,1,.7-1.971,2.72,2.72,0,0,1,1.217-1.153,3.078,3.078,0,0,1,1.821-.132,8.028,8.028,0,0,1,2.463,1,12.33,12.33,0,0,1,4.726,4.792A13.388,13.388,0,0,1,1235.291,639.779Z" transform="translate(-1222.464 -627.343)" fill="#0098f6"/>
      <path id="Path_1983" data-name="Path 1983" d="M1233.592,652.454v-4.36l5.89-13.326,5.475,3.162v16.759l2.25,1.3v4.33l-2.25-1.3v6.756l-4.619-2.665v-6.755Zm4.121-1.949,2.625,1.515v-8.349Z" transform="translate(-1219.278 -625.217)" fill="#0098f6"/>
      <path id="Path_1984" data-name="Path 1984" d="M1245.414,665.918l7.726-23.908,2.41,1.392-7.74,23.9Z" transform="translate(-1215.894 -623.144)" fill="#0098f6"/>
      <path id="Path_1985" data-name="Path 1985" d="M1255.772,672.764l4.177-20.715-5.863-3.384v-4.686l10.375,5.993v2.736l-4.151,22.677Z" transform="translate(-1213.411 -622.58)" fill="#0098f6"/>
    </g>
    <g id="Group_1072" data-name="Group 1072" transform="translate(1332.983 304.919)">
      <g id="Group_1070" data-name="Group 1070">
        <path id="Path_1986" data-name="Path 1986" d="M1273.944,308.839l83.651,48.288c4.722,2.732,8.592,9.428,8.592,14.883v40.833c0,5.456-3.87,7.688-8.592,4.961l-15.023-8.671V431.27l-18.638-32.9-49.991-28.86c-4.723-2.727-8.592-9.423-8.592-14.878V313.8C1265.352,308.34,1269.221,306.107,1273.944,308.839Z" transform="translate(-1265.352 -304.131)" fill="#0098f6"/>
        <path id="Path_1987" data-name="Path 1987" d="M1365.592,413.631V372.8c0-5.455-3.87-12.151-8.592-14.883l-83.651-48.288c-2.29-1.324-4.367-1.472-5.91-.664l0-.005,5.739-3.451c1.556-.912,3.719-.795,6.093.578l83.647,48.29c4.725,2.73,8.59,9.427,8.59,14.881V410.09c0,2.834-1.042,4.8-2.7,5.651l-5.665,3.4v0C1364.646,418.216,1365.592,416.316,1365.592,413.631Z" transform="translate(-1264.756 -304.919)" fill="#0072d0"/>
        <path id="Path_1988" data-name="Path 1988" d="M1325.387,386.552l5.917,3.414v15.182l-5.917,3.307Z" transform="translate(-1248.166 -281.55)" fill="#0072d0"/>
      </g>
      <g id="Group_1071" data-name="Group 1071" transform="translate(21.241 41.023)">
        <path id="Path_1989" data-name="Path 1989" d="M1309,355.8a10.288,10.288,0,0,0,4.652,8.062c2.57,1.483,4.658.279,4.658-2.688a10.289,10.289,0,0,0-4.658-8.061C1311.085,351.63,1309,352.833,1309,355.8Z" transform="translate(-1274.098 -332.327)" fill="#fff"/>
        <path id="Path_1990" data-name="Path 1990" d="M1295.435,347.967a10.281,10.281,0,0,0,4.653,8.061c2.571,1.484,4.654.283,4.654-2.688a10.267,10.267,0,0,0-4.654-8.06C1297.517,343.8,1295.435,345,1295.435,347.967Z" transform="translate(-1277.981 -334.569)" fill="#fff"/>
        <path id="Path_1991" data-name="Path 1991" d="M1281.866,340.133a10.286,10.286,0,0,0,4.653,8.062c2.572,1.486,4.655.282,4.655-2.686a10.281,10.281,0,0,0-4.655-8.064C1283.948,335.964,1281.866,337.167,1281.866,340.133Z" transform="translate(-1281.866 -336.812)" fill="#fff"/>
      </g>
    </g>
    <g id="Group_1075" data-name="Group 1075" transform="translate(1102.096 446.367)">
      <g id="Group_1073" data-name="Group 1073">
        <path id="Path_1992" data-name="Path 1992" d="M1094.443,418.805l83.65,48.29c4.726,2.731,8.592,9.427,8.592,14.882V522.81c0,5.456-3.867,7.689-8.592,4.961l-15.021-8.671v22.137l-18.638-32.9-49.991-28.861c-4.726-2.726-8.592-9.423-8.592-14.878V423.767C1085.851,418.308,1089.718,416.075,1094.443,418.805Z" transform="translate(-1085.851 -414.099)" fill="#fe61ca"/>
        <path id="Path_1993" data-name="Path 1993" d="M1186.089,523.6V482.766c0-5.455-3.867-12.151-8.592-14.882l-83.65-48.29c-2.288-1.324-4.367-1.47-5.91-.661l0-.005,5.737-3.452c1.56-.912,3.721-.795,6.094.577l83.647,48.29c4.726,2.729,8.591,9.426,8.591,14.881v40.834c0,2.834-1.042,4.8-2.7,5.649l-5.665,3.4v0C1185.145,528.185,1186.089,526.284,1186.089,523.6Z" transform="translate(-1085.255 -414.887)" fill="#d83ba4"/>
        <path id="Path_1994" data-name="Path 1994" d="M1145.886,496.52l5.916,3.415v15.181l-5.916,3.307Z" transform="translate(-1068.665 -391.518)" fill="#d83ba4"/>
      </g>
      <g id="Group_1074" data-name="Group 1074" transform="translate(21.24 41.023)">
        <path id="Path_1995" data-name="Path 1995" d="M1129.5,465.77a10.287,10.287,0,0,0,4.654,8.064c2.567,1.482,4.655.279,4.655-2.69a10.3,10.3,0,0,0-4.655-8.062C1131.585,461.6,1129.5,462.8,1129.5,465.77Z" transform="translate(-1094.595 -442.295)" fill="#fff"/>
        <path id="Path_1996" data-name="Path 1996" d="M1115.933,457.935a10.286,10.286,0,0,0,4.653,8.062c2.572,1.483,4.655.282,4.655-2.688a10.268,10.268,0,0,0-4.655-8.061C1118.015,453.765,1115.933,454.968,1115.933,457.935Z" transform="translate(-1098.479 -444.537)" fill="#fff"/>
        <path id="Path_1997" data-name="Path 1997" d="M1102.364,450.1a10.29,10.29,0,0,0,4.654,8.064c2.571,1.486,4.655.28,4.655-2.686a10.288,10.288,0,0,0-4.655-8.065C1104.448,445.932,1102.364,447.135,1102.364,450.1Z" transform="translate(-1102.364 -446.78)" fill="#fff"/>
      </g>
    </g>
    <g id="Group_1078" data-name="Group 1078" transform="translate(1261.469 592.203)">
      <g id="Group_1076" data-name="Group 1076" transform="translate(0 0)">
        <path id="Path_1998" data-name="Path 1998" d="M1273.1,641.608c-16.959,0-37.307-15.5-50.625-38.579-17.089-29.6-16.939-61.792.334-71.766a23.044,23.044,0,0,1,11.679-3c16.964,0,37.313,15.507,50.639,38.588,8.232,14.258,12.767,29.531,12.767,43.006,0,13.659-4.655,23.867-13.107,28.747A23.05,23.05,0,0,1,1273.1,641.608Zm-38.611-111.482a21.2,21.2,0,0,0-10.748,2.749c-16.386,9.46-16.231,40.515.344,69.223,13,22.52,32.7,37.649,49.015,37.649A21.2,21.2,0,0,0,1283.856,637c7.854-4.533,12.177-14.169,12.177-27.135,0-13.153-4.445-28.095-12.516-42.075C1270.512,545.26,1250.809,530.126,1234.488,530.126Z" transform="translate(-1209.754 -528.266)" fill="#0098f6"/>
      </g>
      <g id="Group_1077" data-name="Group 1077" transform="translate(22.01 14.924)">
        <path id="Path_1999" data-name="Path 1999" d="M1248.574,581.809c-10.414-18.044-5.838-19.923-5.643-20.036a2.757,2.757,0,0,0,1.061-3.988c-1.464-2.531-8.488-15.775-10.155-17.578-1.65-1.8-8.022,3.873-6.822,10.232s5.166,19.529,14.391,35.51,18.649,26.015,23.556,30.217c4.9,4.219,13.008,1.54,12.273-.8s-8.688-15.049-10.152-17.583a2.754,2.754,0,0,0-3.984-1.078C1262.906,596.819,1258.991,599.85,1248.574,581.809Z" transform="translate(-1226.866 -539.868)" fill="#0098f6"/>
      </g>
    </g>
    <path id="Path_2000" data-name="Path 2000" d="M1226.311,356.06a10.437,10.437,0,0,0,4.7,8.154l16.842,9.723c2.587,1.495,4.708.271,4.708-2.718V351.77a10.44,10.44,0,0,0-4.708-8.151l-16.842-9.724c-2.59-1.495-4.7-.271-4.7,2.718Z" transform="translate(56.455 8.112)" fill="#d7e5f4"/>
    <path id="Path_2001" data-name="Path 2001" d="M1161.077,435.538a5.876,5.876,0,0,0,2.651,4.592l9.488,5.478c1.457.841,2.651.153,2.651-1.532V433.121a5.88,5.88,0,0,0-2.651-4.592l-9.488-5.478c-1.46-.843-2.651-.153-2.651,1.532Z" transform="translate(37.78 33.715)" fill="#d7e5f4"/>
    <path id="Path_2002" data-name="Path 2002" d="M1132.411,396.976a2.94,2.94,0,0,0,1.325,2.3l4.744,2.739c.728.421,1.326.076,1.326-.765v-5.478a2.938,2.938,0,0,0-1.326-2.3l-4.744-2.738c-.729-.422-1.325-.077-1.325.765Z" transform="translate(29.574 24.515)" fill="#d7e5f4"/>
    <path id="Path_2003" data-name="Path 2003" d="M1236.01,388.45a2.94,2.94,0,0,0,1.325,2.3l4.744,2.738c.728.421,1.326.076,1.326-.765v-5.478a2.938,2.938,0,0,0-1.326-2.3l-4.744-2.738c-.729-.422-1.325-.077-1.325.765Z" transform="translate(59.231 22.074)" fill="#d7e5f4"/>
    <path id="Path_2004" data-name="Path 2004" d="M1315.067,397.44l-45.82-26.455c-2.588-1.495-4.708-.273-4.708,2.717V396.07a10.447,10.447,0,0,0,4.7,8.151l8.228,4.75V421.1l10.214-6.233,27.382,15.808c2.588,1.5,4.708.273,4.708-2.715V405.592A10.447,10.447,0,0,0,1315.067,397.44Z" transform="translate(67.398 18.73)" fill="#d7e5f4"/>
    <path id="Path_2005" data-name="Path 2005" d="M1097.235,493.294l-34.81-20.1c-1.965-1.136-3.576-.207-3.576,2.063v16.994a7.937,7.937,0,0,0,3.573,6.192l6.25,3.609v9.213l7.762-4.735,20.8,12.01c1.967,1.136,3.577.207,3.577-2.063V499.488A7.94,7.94,0,0,0,1097.235,493.294Z" transform="translate(8.516 48.034)" fill="#d7e5f4"/>
    <path id="Path_2006" data-name="Path 2006" d="M1257.931,735.628l-28.735,16.7a9.242,9.242,0,0,1-8.357,0l-28.922-16.7a2.946,2.946,0,0,1-1.735-2.437q-.014,4.247-.025,8.493a2.958,2.958,0,0,0,1.735,2.44l28.922,16.7a9.232,9.232,0,0,0,8.356,0l28.735-16.7a2.934,2.934,0,0,0,1.712-2.4q.011-4.247.024-8.5A2.928,2.928,0,0,1,1257.931,735.628Z" transform="translate(46.105 122.601)" fill="#6a0093"/>
    <g id="Group_1079" data-name="Group 1079" transform="translate(1236.286 835.692)">
      <path id="Path_2007" data-name="Path 2007" d="M1257.9,735.259c2.308,1.334,2.321,3.508.028,4.842l-28.735,16.7a9.242,9.242,0,0,1-8.357,0l-28.922-16.7c-2.3-1.329-2.315-3.513-.028-4.842l28.735-16.7a9.239,9.239,0,0,1,8.356,0Z" transform="translate(-1190.176 -717.565)" fill="#9013b9"/>
    </g>
    <path id="Path_2008" data-name="Path 2008" d="M1388.636,660.792l-28.736,16.7a9.24,9.24,0,0,1-8.356,0l-28.922-16.7a2.946,2.946,0,0,1-1.735-2.436q-.014,4.248-.024,8.494a2.955,2.955,0,0,0,1.735,2.438l28.922,16.7a9.24,9.24,0,0,0,8.356,0l28.735-16.7a2.932,2.932,0,0,0,1.712-2.4q.011-4.247.025-8.495A2.928,2.928,0,0,1,1388.636,660.792Z" transform="translate(83.522 101.178)" fill="#01ba9a"/>
    <g id="Group_1080" data-name="Group 1080" transform="translate(1404.409 739.434)">
      <path id="Path_2009" data-name="Path 2009" d="M1388.6,660.425c2.308,1.333,2.32,3.508.028,4.84l-28.737,16.7a9.24,9.24,0,0,1-8.356,0l-28.922-16.7c-2.3-1.329-2.315-3.511-.028-4.84l28.735-16.7a9.248,9.248,0,0,1,8.356,0Z" transform="translate(-1320.882 -642.729)" fill="#27e0c0"/>
    </g>
    <g id="Group_1081" data-name="Group 1081" transform="translate(1196.187 807.453)">
      <path id="Path_2010" data-name="Path 2010" d="M1200.617,706.485c1.417.819,1.425,2.155.017,2.975l-17.658,10.261a5.678,5.678,0,0,1-5.135,0l-17.774-10.261c-1.415-.817-1.422-2.158-.018-2.975l17.659-10.262a5.679,5.679,0,0,1,5.135,0Z" transform="translate(-1159.001 -695.61)" fill="#d7e5f4"/>
    </g>
    <g id="Group_1082" data-name="Group 1082" transform="translate(1053.828 790.335)">
      <path id="Path_2011" data-name="Path 2011" d="M1078.041,690.067a1.124,1.124,0,0,1,.013,2.125l-12.611,7.325a4.049,4.049,0,0,1-3.667,0l-12.689-7.325a1.125,1.125,0,0,1-.013-2.125l12.609-7.328a4.06,4.06,0,0,1,3.667,0Z" transform="translate(-1048.325 -682.302)" fill="#d7e5f4"/>
    </g>
    <g id="Group_1083" data-name="Group 1083" transform="translate(1556.471 810.753)">
      <path id="Path_2012" data-name="Path 2012" d="M1468.817,705.943a1.123,1.123,0,0,1,.013,2.124l-12.61,7.327a4.05,4.05,0,0,1-3.666,0l-12.69-7.327a1.123,1.123,0,0,1-.012-2.124l12.608-7.329a4.061,4.061,0,0,1,3.667,0Z" transform="translate(-1439.101 -698.176)" fill="#d7e5f4"/>
    </g>
    <g id="Group_1084" data-name="Group 1084" transform="translate(1029.103 829.499)">
      <path id="Path_2013" data-name="Path 2013" d="M1082.927,726.813c1.833,1.061,1.842,2.787.023,3.849l-22.839,13.272a7.351,7.351,0,0,1-6.642,0l-22.986-13.272c-1.832-1.057-1.842-2.791-.023-3.849l22.838-13.27a7.349,7.349,0,0,1,6.641,0Z" transform="translate(-1029.103 -712.749)" fill="#d7e5f4"/>
    </g>
    <g id="Group_1085" data-name="Group 1085" transform="translate(1535.944 752.057)">
      <path id="Path_2014" data-name="Path 2014" d="M1476.967,666.607c1.833,1.061,1.842,2.786.023,3.849l-22.839,13.27a7.35,7.35,0,0,1-6.642,0l-22.986-13.27c-1.832-1.057-1.842-2.793-.024-3.849l22.839-13.272a7.352,7.352,0,0,1,6.641,0Z" transform="translate(-1423.143 -652.543)" fill="#d7e5f4"/>
    </g>
    <path id="Path_2015" data-name="Path 2015" d="M1342.693,758.624l-28.734,16.7a9.242,9.242,0,0,1-8.357,0l-28.923-16.7a2.945,2.945,0,0,1-1.734-2.436q-.014,4.247-.024,8.5a2.951,2.951,0,0,0,1.735,2.438l28.922,16.7a9.243,9.243,0,0,0,8.356,0l28.735-16.7a2.931,2.931,0,0,0,1.712-2.4q.014-4.246.025-8.494A2.925,2.925,0,0,1,1342.693,758.624Z" transform="translate(70.37 129.184)" fill="#51acd9"/>
    <g id="Group_1086" data-name="Group 1086" transform="translate(1345.315 865.271)">
      <path id="Path_2016" data-name="Path 2016" d="M1342.661,758.258c2.308,1.334,2.32,3.506.027,4.84l-28.734,16.7a9.242,9.242,0,0,1-8.357,0l-28.923-16.7c-2.3-1.329-2.315-3.511-.027-4.84l28.735-16.7a9.248,9.248,0,0,1,8.356,0Z" transform="translate(-1274.939 -740.56)" fill="#77d2ff"/>
    </g>
    <path id="Path_2017" data-name="Path 2017" d="M1425.728,710.725l-28.736,16.7a9.248,9.248,0,0,1-8.356,0l-28.923-16.7a2.95,2.95,0,0,1-1.734-2.437q-.013,4.247-.025,8.5a2.947,2.947,0,0,0,1.734,2.435l28.923,16.7a9.232,9.232,0,0,0,8.356,0l28.735-16.7a2.93,2.93,0,0,0,1.712-2.4q.011-4.243.024-8.492A2.934,2.934,0,0,1,1425.728,710.725Z" transform="translate(94.14 115.472)" fill="#26008f"/>
    <g id="Group_1087" data-name="Group 1087" transform="translate(1452.119 803.659)">
      <path id="Path_2018" data-name="Path 2018" d="M1425.695,710.358c2.307,1.334,2.32,3.506.028,4.842l-28.737,16.7a9.248,9.248,0,0,1-8.356,0l-28.923-16.7c-2.3-1.33-2.314-3.513-.027-4.842l28.735-16.7a9.248,9.248,0,0,1,8.355,0Z" transform="translate(-1357.973 -692.66)" fill="#591bc2"/>
    </g>
  </g>
</svg>
