<svg xmlns="http://www.w3.org/2000/svg" xmlns:xlink="http://www.w3.org/1999/xlink" width="694" height="633.374" viewBox="0 0 694 633.374">
  <defs>
    <linearGradient id="linear-gradient" x1="0.639" y1="0.106" x2="0.461" y2="1.186" gradientUnits="objectBoundingBox">
      <stop offset="0" stop-color="#14a4db"/>
      <stop offset="0.196" stop-color="#19aadc"/>
      <stop offset="0.477" stop-color="#2abddf"/>
      <stop offset="0.809" stop-color="#45dce5"/>
      <stop offset="1" stop-color="#58f2e9"/>
    </linearGradient>
    <linearGradient id="linear-gradient-2" x1="0.617" y1="-1.574" x2="0.617" y2="0.822" xlink:href="#linear-gradient"/>
    <linearGradient id="linear-gradient-3" x1="1.797" y1="0.102" x2="-0.454" y2="0.861" gradientUnits="objectBoundingBox">
      <stop offset="0" stop-color="#008dc9"/>
      <stop offset="0.165" stop-color="#0593cb"/>
      <stop offset="0.402" stop-color="#16a6d1"/>
      <stop offset="0.682" stop-color="#31c6db"/>
      <stop offset="0.994" stop-color="#57f1e8"/>
      <stop offset="1" stop-color="#58f2e9"/>
    </linearGradient>
    <linearGradient id="linear-gradient-4" x1="0.901" y1="0.731" x2="0.199" y2="-0.381" xlink:href="#linear-gradient-3"/>
    <linearGradient id="linear-gradient-5" x1="0.749" y1="-0.616" x2="0.548" y2="0.812" xlink:href="#linear-gradient"/>
    <linearGradient id="linear-gradient-6" x1="0.5" y1="0.801" x2="0.5" y2="-0.526" gradientUnits="objectBoundingBox">
      <stop offset="0" stop-color="#3f51b5"/>
      <stop offset="0.213" stop-color="#3c57bb"/>
      <stop offset="0.518" stop-color="#336acc"/>
      <stop offset="0.878" stop-color="#2689e8"/>
      <stop offset="1" stop-color="#2196f3"/>
    </linearGradient>
    <linearGradient id="linear-gradient-7" x1="0.5" y1="0.862" x2="0.5" y2="-0.058" xlink:href="#linear-gradient"/>
    <linearGradient id="linear-gradient-8" x1="0.5" y1="0.801" x2="0.5" y2="-0.526" xlink:href="#linear-gradient-6"/>
    <linearGradient id="linear-gradient-9" x1="0.873" y1="1.7" x2="0.247" y2="-0.315" gradientUnits="objectBoundingBox">
      <stop offset="0" stop-color="#148bdb"/>
      <stop offset="0.163" stop-color="#1891db"/>
      <stop offset="0.396" stop-color="#25a4de"/>
      <stop offset="0.673" stop-color="#39c4e2"/>
      <stop offset="0.981" stop-color="#56efe8"/>
      <stop offset="1" stop-color="#58f2e9"/>
    </linearGradient>
    <linearGradient id="linear-gradient-10" x1="0" y1="0.5" x2="1" y2="0.5" xlink:href="#linear-gradient"/>
    <linearGradient id="linear-gradient-11" x1="-1.143" y1="1.332" x2="0.891" y2="0.302" xlink:href="#linear-gradient"/>
  </defs>
  <g id="Group_2221" data-name="Group 2221" transform="translate(-1136.659 -307.983)">
    <path id="Path_5361" data-name="Path 5361" d="M1176.163,531.662c-2.423,1.408-3.633,3.255-3.63,5.1l0,8.753-.017,6.176c-.005,1.864,1.226,3.732,3.692,5.156l257.373,148.6c4.894,2.825,12.809,2.82,17.67-.007l162.017-94.151.017-15.214Z" transform="translate(26.324 164.232)" fill="#221f72" opacity="0.1" style="mix-blend-mode: multiply;isolation: isolate"/>
    <g id="Group_2189" data-name="Group 2189" transform="translate(1434.09 332.079)">
      <path id="Path_5362" data-name="Path 5362" d="M1556.283,641.935,1308.165,498.685V330.159L1556.283,473.41Z" transform="translate(-1308.165 -315.796)" fill="#97daf8" opacity="0.44"/>
      <path id="Path_5363" data-name="Path 5363" d="M1556.283,479.491,1308.165,336.24V324.851c0-2.5,1.521-3.649,3.4-2.567l241.326,139.33a8.134,8.134,0,0,1,3.4,6.488Z" transform="translate(-1308.165 -321.877)" fill="#b6ceea"/>
      <path id="Path_5364" data-name="Path 5364" d="M1311.935,328.574c0-1.745,1.224-2.452,2.736-1.58a6.051,6.051,0,0,1,2.737,4.74c0,1.745-1.226,2.452-2.737,1.58A6.047,6.047,0,0,1,1311.935,328.574Z" transform="translate(-1305.397 -318.395)" fill="#fff"/>
      <ellipse id="Ellipse_194" data-name="Ellipse 194" cx="2.234" cy="3.87" rx="2.234" ry="3.87" transform="translate(14.298 14.66) rotate(-30.002)" fill="#fff"/>
      <path id="Path_5365" data-name="Path 5365" d="M1322.192,334.5c0-1.745,1.224-2.452,2.737-1.58a6.052,6.052,0,0,1,2.737,4.74c0,1.745-1.226,2.452-2.737,1.58A6.046,6.046,0,0,1,1322.192,334.5Z" transform="translate(-1297.866 -314.046)" fill="#fff"/>
    </g>
    <g id="Group_2190" data-name="Group 2190" transform="translate(1459.926 385.736)">
      <path id="Path_5366" data-name="Path 5366" d="M1571.18,672.876,1323.063,529.625V361.1L1571.18,504.35Z" transform="translate(-1323.063 -346.736)" fill="#97daf8" opacity="0.44"/>
      <path id="Path_5367" data-name="Path 5367" d="M1571.181,510.432,1323.063,367.181V355.793c0-2.5,1.521-3.651,3.4-2.568l241.327,139.332a8.132,8.132,0,0,1,3.4,6.488Z" transform="translate(-1323.063 -352.817)" fill="#b6ceea"/>
      <path id="Path_5368" data-name="Path 5368" d="M1326.833,359.514c0-1.745,1.224-2.452,2.737-1.58a6.054,6.054,0,0,1,2.737,4.74c0,1.746-1.226,2.454-2.737,1.58A6.044,6.044,0,0,1,1326.833,359.514Z" transform="translate(-1320.295 -349.335)" fill="#fff"/>
      <path id="Path_5369" data-name="Path 5369" d="M1331.961,362.475c0-1.745,1.226-2.452,2.736-1.58a6.046,6.046,0,0,1,2.737,4.74c0,1.746-1.224,2.454-2.737,1.58A6.048,6.048,0,0,1,1331.961,362.475Z" transform="translate(-1316.53 -347.161)" fill="#fff"/>
      <ellipse id="Ellipse_195" data-name="Ellipse 195" cx="2.234" cy="3.87" rx="2.234" ry="3.87" transform="translate(23.192 19.796) rotate(-30.002)" fill="#fff"/>
    </g>
    <path id="Path_5370" data-name="Path 5370" d="M1333.234,629.187l-39.875-23.024c-2.974-1.717-8.17-1.5-11.6.482l-38.207,22.059c-1.915,1.1-2.874,2.523-2.837,3.862a3.474,3.474,0,0,0,2,2.835l39.877,23.022c2.972,1.717,8.168,1.5,11.6-.48l38.207-22.059c1.942-1.12,2.9-2.567,2.835-3.923A3.5,3.5,0,0,0,1333.234,629.187Z" transform="translate(76.397 218.082)" fill="#221f72" opacity="0.1" style="mix-blend-mode: multiply;isolation: isolate"/>
    <path id="Path_5371" data-name="Path 5371" d="M1299.914,628.7l-39.875-23.022c-2.974-1.717-8.168-1.5-11.6.48l-38.208,22.059c-1.913,1.1-2.874,2.525-2.837,3.864a3.478,3.478,0,0,0,2,2.835l39.875,23.022c2.974,1.717,8.168,1.5,11.6-.48l38.208-22.061c1.942-1.12,2.9-2.567,2.835-3.921A3.5,3.5,0,0,0,1299.914,628.7Z" transform="translate(51.933 217.725)" fill="#221f72" opacity="0.1" style="mix-blend-mode: multiply;isolation: isolate"/>
    <path id="Path_5372" data-name="Path 5372" d="M1285.538,494.817l-64.163-37.045c-4.785-2.763-13.144-2.416-18.669.775l-61.48,35.495c-3.078,1.778-4.624,4.063-4.564,6.215.047,1.712,1.1,3.34,3.224,4.563l64.163,37.045c4.785,2.763,13.144,2.416,18.669-.773l61.48-35.5c3.124-1.8,4.67-4.129,4.563-6.311C1288.677,497.608,1287.618,496.017,1285.538,494.817Z" transform="translate(0.001 108.611)" fill="#221f72" opacity="0.1" style="mix-blend-mode: multiply;isolation: isolate"/>
    <g id="Group_2197" data-name="Group 2197" transform="translate(1198.836 398.494)">
      <g id="Group_2196" data-name="Group 2196">
        <g id="Group_2195" data-name="Group 2195">
          <path id="Path_5373" data-name="Path 5373" d="M1338.172,473.64l-162.017,94.153c-4.861,2.825-4.845,7.41.059,10.242l257.375,148.6c4.892,2.825,12.807,2.82,17.67-.007l162.015-94.153Z" transform="translate(-1172.504 -276.864)" fill="url(#linear-gradient)"/>
          <g id="Group_2194" data-name="Group 2194" transform="translate(165.668)">
            <g id="Group_2193" data-name="Group 2193" style="isolation: isolate">
              <g id="Group_2191" data-name="Group 2191" transform="translate(0 3.102)">
                <path id="Path_5374" data-name="Path 5374" d="M1534.844,511.776c4.894,2.825,8.846,9.682,8.831,15.306l-.532,187.385-275.1-158.831.531-187.387c.016-5.622,4-7.9,8.9-5.069Zm-128.708-69.355c-1.382-.8-2.508-.158-2.513,1.432a5.508,5.508,0,0,0,2.5,4.323c1.384.8,2.51.158,2.513-1.431a5.5,5.5,0,0,0-2.5-4.325Z" transform="translate(-1268.04 -361.963)" fill="url(#linear-gradient-2)"/>
              </g>
              <g id="Group_2192" data-name="Group 2192" transform="translate(10.566 19.826)">
                <path id="Path_5375" data-name="Path 5375" d="M1274.133,371.606v167.8l255.141,147.465v-168.1Z" transform="translate(-1274.133 -371.606)" fill="#26186a"/>
              </g>
              <path id="Path_5376" data-name="Path 5376" d="M1538.862,509.987l-257.375-148.6c-2.466-1.424-4.7-1.556-6.311-.619l-5.338,3.1c1.613-.936,3.845-.8,6.311.619l257.375,148.6c4.894,2.825,8.846,9.682,8.831,15.306l-.532,187.385,5.34-3.1.531-187.385C1547.708,519.669,1543.756,512.812,1538.862,509.987Z" transform="translate(-1266.72 -360.174)" fill="url(#linear-gradient-3)"/>
            </g>
          </g>
          <path id="Path_5377" data-name="Path 5377" d="M1451.267,684.609c-4.863,2.827-12.776,2.832-17.67.005h0l-257.375-148.6c-2.466-1.424-3.7-3.29-3.692-5.156l-.017,6.176c-.005,1.864,1.226,3.732,3.692,5.156l257.375,148.6h0c4.894,2.825,12.807,2.82,17.67-.007l162.015-94.153.017-6.174Z" transform="translate(-1172.512 -234.849)" fill="url(#linear-gradient-4)"/>
          <path id="Path_5378" data-name="Path 5378" d="M1333.56,491.534l-12.809,7.443-16.113-9.3,12.809-7.443Zm2.553,1.474-12.809,7.443,16.123,9.309,12.809-7.445Zm-40.911,2.15-12.809,7.443,16.113,9.3,12.809-7.443Zm59.586,8.633-12.809,7.443,16.115,9.3,12.807-7.443Zm-90.364,9.252-12.818,7.45,16.113,9.3,12.818-7.45Zm34.06,1.831-12.819,7.45,16.123,9.308,12.818-7.448Zm34.06,1.844-12.809,7.443,16.113,9.3,12.809-7.443Zm18.666,10.776-12.809,7.443,16.123,9.309,12.809-7.445Zm59.586,8.633-12.807,7.443,16.121,9.308,12.809-7.443Zm-74.971.307-12.818,7.448,16.123,9.309,12.818-7.449Zm-15.393,8.945-12.818,7.45,16.123,9.308,12.818-7.448Zm109.04,1.53-12.807,7.443,16.123,9.309,12.807-7.443Zm-40.919,2.145-12.809,7.443,16.123,9.309,12.807-7.445Zm-49.445,7.109-12.818,7.449,16.123,9.309,12.818-7.45Zm109.042,1.53-12.809,7.443,16.113,9.3L1464.264,567Zm-74.981.3-12.818,7.448,16.122,9.309,12.819-7.448Zm34.06,1.842-12.809,7.445,16.123,9.308,12.809-7.443Zm-83.513,5.272-12.809,7.443,16.123,9.309,12.809-7.443Zm34.06,1.831-12.82,7.45,16.123,9.308,12.818-7.448Zm109.04,1.53-12.809,7.443,16.123,9.309,12.809-7.443Zm-74.971.309-12.818,7.448,16.123,9.309,12.818-7.45Zm34.06,1.842-12.809,7.443,16.113,9.3,12.809-7.443Zm-49.453,7.1-12.819,7.449,16.123,9.309,12.819-7.45Zm109.04,1.53-12.807,7.443L1488.8,596l12.809-7.443Zm-74.971.307-12.818,7.448,16.113,9.3,12.818-7.45Zm34.05,1.837-12.807,7.445,16.123,9.308,12.807-7.443Zm-117.583,3.435-12.809,7.443,16.123,9.309,12.809-7.445Zm68.14,3.673-12.818,7.45,16.113,9.3,12.818-7.448Zm109.031,1.524-12.809,7.443,16.123,9.309,12.809-7.443Zm-74.971.307-12.82,7.45,16.123,9.308,12.819-7.448Zm-15.4,8.947-12.818,7.448,16.123,9.309,12.818-7.45Zm109.042,1.53-12.809,7.443,16.113,9.3,12.809-7.443Zm-40.921,2.143-12.809,7.443,16.123,9.309,12.809-7.443Zm-102.179-5.5-12.809,7.443,34.789,20.086,12.809-7.443ZM1541.5,611.59l-12.809,7.443,16.123,9.309,12.807-7.443Zm-74.972.307-12.818,7.45,16.123,9.308,12.818-7.449Zm34.06,1.844-12.807,7.443,16.113,9.3,12.809-7.443Zm-154.926-18.125-12.807,7.443,53.465,30.868,12.809-7.443Zm105.472,25.228-12.818,7.448,16.123,9.309,12.818-7.45Zm34.071,1.837-12.82,7.448,16.113,9.3,12.82-7.45Zm34.05,1.837-12.809,7.443,16.123,9.309,12.809-7.443Zm-151.643,1.6-12.809,7.443,16.123,9.308,12.809-7.443Zm68.129,3.668-12.809,7.443,16.123,9.309,12.809-7.445Zm34.069,1.836L1457,639.076l16.113,9.3,12.819-7.45Zm34.06,1.831-12.818,7.45,16.123,9.307L1520,642.766Zm-83.522,5.277-12.809,7.443,16.123,9.309,12.807-7.443Zm34.069,1.838-12.809,7.443,16.115,9.3,12.807-7.443Zm34.06,1.831-12.818,7.448,16.121,9.308,12.819-7.448Zm-83.524,5.277-12.807,7.443,16.121,9.308,12.809-7.443Zm34.071,1.837-12.809,7.443,16.113,9.3,12.809-7.443Zm34.06,1.831-12.809,7.443L1476.4,668.1l12.807-7.443Zm-49.453,7.114-12.809,7.443,16.113,9.3,12.809-7.443Zm34.059,1.831-12.807,7.443,16.121,9.309,12.809-7.443Zm-15.393,8.947-12.809,7.443,16.123,9.308,12.809-7.443ZM1279.818,504.1,1267,511.547l16.113,9.3,12.818-7.45Zm34.05,1.836-12.809,7.443,16.123,9.309,12.809-7.445Zm59.588,8.633-12.809,7.443,16.123,9.309,12.807-7.445Zm-90.365,9.252-12.818,7.45,16.123,9.308,12.818-7.448Zm109.042,1.53-12.809,7.445,16.123,9.308,12.809-7.443Zm-74.971.309-12.819,7.448,16.114,9.3,12.818-7.448Zm-83.524,5.277-12.807,7.443,16.113,9.3,12.809-7.443Zm15.395-8.947-12.809,7.445,34.789,20.084,12.809-7.443Zm52.736,12.615-12.82,7.448,16.113,9.3,12.82-7.45Zm68.119,3.673-12.809,7.445,16.123,9.308,12.809-7.443Zm-151.643,1.6-12.809,7.443,16.115,9.3,12.807-7.443Zm34.06,1.831-12.809,7.443,16.123,9.309,12.809-7.443Zm34.069,1.836-12.807,7.443,16.113,9.3,12.807-7.443Zm68.129,3.67-12.818,7.448,16.123,9.309,12.818-7.45Zm-117.591,3.439L1224.1,558.1l16.123,9.309,12.807-7.443Zm34.069,1.838-12.809,7.443,16.113,9.3,12.809-7.443Zm34.06,1.831-12.809,7.443,16.123,9.308,12.809-7.443Zm-15.393,8.945-12.809,7.443,16.123,9.309,12.807-7.445Zm18.676,10.783-12.809,7.443,16.123,9.308,12.809-7.443Zm34.059,1.831-12.807,7.443,16.121,9.308,12.809-7.443Zm18.676,10.782-12.807,7.443,16.123,9.309,12.807-7.443Zm-105.471-25.228-12.809,7.443,90.808,52.429,12.809-7.445Zm93.361,53.9-12.807,7.445,16.113,9.3,12.807-7.443Zm-50.709-8.558L1263.6,626.917l43.579,25.16,34.643-20.131Z" transform="translate(-1148.339 -270.556)" fill="url(#linear-gradient-5)"/>
          <path id="Path_5379" data-name="Path 5379" d="M1348.876,414.9c1.592.919,2.886.18,2.891-1.647a6.331,6.331,0,0,0-2.872-4.976c-1.59-.917-2.886-.18-2.891,1.648A6.335,6.335,0,0,0,1348.876,414.9Z" transform="translate(-1045.129 -325.147)" fill="#170c2a"/>
        </g>
      </g>
    </g>
    <g id="Group_2198" data-name="Group 2198" transform="translate(1449.708 543.459)">
      <path id="Path_5380" data-name="Path 5380" d="M1327.724,465.614l-10.553-14.7v-4.575l10.553-2.577v4.573l-7.58,1.987,7.58,10.716Z" transform="translate(-1317.171 -443.764)" fill="#fff"/>
      <path id="Path_5381" data-name="Path 5381" d="M1331.619,471.959a12.754,12.754,0,0,1-2.655-2,10.888,10.888,0,0,1-1.792-2.3,11.013,11.013,0,0,1-1.08-2.7,18.99,18.99,0,0,1-.543-2.986c-.092-.982-.144-2.112-.144-3.389v-5.7a25.689,25.689,0,0,1,.253-4.011,6.07,6.07,0,0,1,.917-2.5,2.037,2.037,0,0,1,1.911-.883,7.6,7.6,0,0,1,3.132,1.164,14.017,14.017,0,0,1,2.863,2.131,8.691,8.691,0,0,1,1.791,2.532,11.638,11.638,0,0,1,.9,2.91,21.08,21.08,0,0,1,.262,3.519v1.478l-3.567-2.06v-1.5A11.03,11.03,0,0,0,1333.4,452a3.8,3.8,0,0,0-1.731-1.967q-1.441-.83-1.88.068a11.707,11.707,0,0,0-.44,4.124v7.754a14.6,14.6,0,0,0,.492,4.5,4.018,4.018,0,0,0,1.844,2.157,2.275,2.275,0,0,0,.983.349.876.876,0,0,0,.64-.192,1.4,1.4,0,0,0,.361-.716,6.192,6.192,0,0,0,.161-1.063q.034-.549.035-1.4v-2l3.567,2.06v1.7a15.367,15.367,0,0,1-.272,3.212,4.012,4.012,0,0,1-.919,1.932,1.957,1.957,0,0,1-1.79.557A7.942,7.942,0,0,1,1331.619,471.959Z" transform="translate(-1311.125 -442.498)" fill="#fff"/>
      <path id="Path_5382" data-name="Path 5382" d="M1340.349,476.968a12.37,12.37,0,0,1-2.962-2.334,10.462,10.462,0,0,1-1.916-2.957,15.337,15.337,0,0,1-1.018-3.425,22.79,22.79,0,0,1-.316-3.956v-7.131a16.965,16.965,0,0,1,.316-3.59,5.1,5.1,0,0,1,1.018-2.251,2.181,2.181,0,0,1,1.916-.744,7.187,7.187,0,0,1,2.962,1.086,11.191,11.191,0,0,1,4.792,5.093,18.384,18.384,0,0,1,1.422,7.58v7.131q0,4.428-1.422,5.935T1340.349,476.968Zm0-3.368a2.586,2.586,0,0,0,.945.357.654.654,0,0,0,.64-.255,3.039,3.039,0,0,0,.378-.623,3.637,3.637,0,0,0,.208-1.044c.04-.48.064-.878.071-1.186s.009-.768.009-1.379v-7.712c0-.525,0-.923-.009-1.188s-.021-.638-.045-1.108a8.3,8.3,0,0,0-.116-1.117c-.056-.276-.135-.6-.245-.983a3.446,3.446,0,0,0-.4-.942,5.85,5.85,0,0,0-.605-.751,3.5,3.5,0,0,0-.827-.656,2.1,2.1,0,0,0-.836-.307,1.275,1.275,0,0,0-.6.057.852.852,0,0,0-.406.474,4.023,4.023,0,0,0-.251.7,5.394,5.394,0,0,0-.118.982c-.023.444-.038.8-.043,1.058s-.009.654-.009,1.178v7.714c0,.527,0,.923.009,1.19s.021.635.043,1.106a8.053,8.053,0,0,0,.118,1.117,9.772,9.772,0,0,0,.251.98,4.013,4.013,0,0,0,.406.94,4.543,4.543,0,0,0,.6.753A3.807,3.807,0,0,0,1340.349,473.6Z" transform="translate(-1304.714 -438.765)" fill="#fff"/>
      <path id="Path_5383" data-name="Path 5383" d="M1348.5,484.62a9.341,9.341,0,0,1-4.058-4.653,22.459,22.459,0,0,1-1.29-8.456v-4.781c0-1.219.043-2.284.12-3.2a13.117,13.117,0,0,1,.468-2.567,4.484,4.484,0,0,1,.91-1.8,2.033,2.033,0,0,1,1.5-.63,4.326,4.326,0,0,1,2.2.7,10.253,10.253,0,0,1,3.546,3.961V451.761l3.947,2.277v34.471l-3.947-2.279v-1.58A3.006,3.006,0,0,1,1348.5,484.62Zm.992-3.023a3.639,3.639,0,0,0,2.411.477V465.94a8.542,8.542,0,0,0-2.483-2.516q-2.323-1.342-2.321,3.8v6.965c0,.777.016,1.443.043,2a16.723,16.723,0,0,0,.189,1.739,7.319,7.319,0,0,0,.4,1.538,4.876,4.876,0,0,0,.7,1.209A3.759,3.759,0,0,0,1349.488,481.6Z" transform="translate(-1298.098 -437.892)" fill="#fff"/>
      <path id="Path_5384" data-name="Path 5384" d="M1358.847,487.663a13.335,13.335,0,0,1-3.115-2.412,9.758,9.758,0,0,1-1.936-3.03,15.471,15.471,0,0,1-.975-3.6,31.217,31.217,0,0,1-.279-4.434v-5.635a23.1,23.1,0,0,1,.3-4.14,5.5,5.5,0,0,1,1-2.459,2.1,2.1,0,0,1,1.935-.767,7.905,7.905,0,0,1,3.051,1.159,13.087,13.087,0,0,1,2.019,1.417,11.694,11.694,0,0,1,1.523,1.564,8.619,8.619,0,0,1,1.089,1.8,15.069,15.069,0,0,1,.73,1.982,15.894,15.894,0,0,1,.44,2.249c.108.846.177,1.667.217,2.464s.052,1.715.052,2.754l-.017,1.986-8.39-4.844v3.557c0,.692,0,1.205.009,1.542s.03.784.071,1.341a6.345,6.345,0,0,0,.208,1.316,9.339,9.339,0,0,0,.4,1.06,3.212,3.212,0,0,0,.657.992,4.686,4.686,0,0,0,.98.744q1.28.736,1.74-.005a5.819,5.819,0,0,0,.458-2.782v-1.5l3.855,2.225v.957Q1364.861,491.136,1358.847,487.663Zm-2.358-16.413,4.518,2.608v-2.225q0-.975-.043-1.668a10.84,10.84,0,0,0-.182-1.394,4.84,4.84,0,0,0-.368-1.188,3.872,3.872,0,0,0-.638-.931,4.2,4.2,0,0,0-.982-.775q-1.4-.809-1.855.094a11.636,11.636,0,0,0-.449,4.15Z" transform="translate(-1291.2 -430.978)" fill="#fff"/>
      <path id="Path_5385" data-name="Path 5385" d="M1361.184,491.764l8.047-29.825,3.422,1.975-8.066,29.813Z" transform="translate(-1284.855 -430.419)" fill="#fff"/>
      <path id="Path_5386" data-name="Path 5386" d="M1369.644,492.4v-4.575l7.6-1.994-7.6-10.709v-4.571l10.589,14.741v4.571Z" transform="translate(-1278.644 -424.099)" fill="#fff"/>
    </g>
    <g id="Group_2199" data-name="Group 2199" transform="translate(1631.081 401.479)">
      <path id="Path_5387" data-name="Path 5387" d="M1435.952,369.924l-4.166,11.815,4.456,17.628-4.2-2.426-3.262-13.468-3.3,9.684-3.73-2.154,4.455-12.485-4.166-16.624,4.127,2.383,3.007,12.526,3.08-9.011Z" transform="translate(-1421.755 -361.895)" fill="#26186a"/>
      <path id="Path_5388" data-name="Path 5388" d="M1439.983,393.107l2.716-19.217,5.539,3.2v29.276l-3.767-2.175V383.2l-2.749,19.406-3.767-2.175-2.972-22.418v20.7l-3.475-2.008V367.43l5.541,3.2Z" transform="translate(-1414.594 -357.831)" fill="#26186a"/>
      <path id="Path_5389" data-name="Path 5389" d="M1442.659,373.868l3.983,2.3v25.094l6.557,3.782v4.185l-10.541-6.085Z" transform="translate(-1406.407 -353.104)" fill="#26186a"/>
    </g>
    <g id="Group_2200" data-name="Group 2200" transform="translate(1519.95 446.323)">
      <path id="Path_5390" data-name="Path 5390" d="M1369.552,410.969v3.892q0,3.551-1.5,4.565t-4.435-.675a11.429,11.429,0,0,1-4.44-4.466,13.088,13.088,0,0,1-1.5-6.326V392.737q0-3.556,1.5-4.592t4.44.659a11.4,11.4,0,0,1,4.435,4.464,13.06,13.06,0,0,1,1.5,6.328v2.841l-3.765-2.173v-3.137a5.082,5.082,0,0,0-.564-2.561,4.044,4.044,0,0,0-1.5-1.517,1.5,1.5,0,0,0-1.5-.217c-.375.217-.562.858-.562,1.918v15.84a5,5,0,0,0,.562,2.546,4.1,4.1,0,0,0,1.5,1.495,1.548,1.548,0,0,0,1.5.239q.565-.3.564-1.89V408.8Z" transform="translate(-1357.674 -387.753)" fill="#26186a"/>
      <path id="Path_5391" data-name="Path 5391" d="M1365.886,397.475q0-3.559,1.467-4.618t4.4.636a11.162,11.162,0,0,1,4.4,4.441,13.209,13.209,0,0,1,1.467,6.306v1.127l-3.767-2.175v-1.422a5.283,5.283,0,0,0-.525-2.541,3.818,3.818,0,0,0-1.467-1.493c-.626-.362-1.117-.43-1.466-.2s-.525.876-.525,1.934a8.18,8.18,0,0,0,.577,2.99,23.261,23.261,0,0,0,1.45,3.012c.581,1.02,1.2,2.058,1.866,3.127s1.283,2.171,1.865,3.314a22.767,22.767,0,0,1,1.45,3.6,13.452,13.452,0,0,1,.577,3.971q0,3.556-1.5,4.591t-4.436-.657a11.361,11.361,0,0,1-4.436-4.466,13.021,13.021,0,0,1-1.5-6.323v-2.008l3.767,2.175v2.319a5.019,5.019,0,0,0,.562,2.558,4.066,4.066,0,0,0,1.5,1.5,1.566,1.566,0,0,0,1.505.243c.373-.2.56-.836.56-1.9a8.187,8.187,0,0,0-.578-2.992,23.012,23.012,0,0,0-1.45-3.016q-.872-1.53-1.866-3.129c-.666-1.072-1.283-2.175-1.864-3.319a23.133,23.133,0,0,1-1.45-3.6A13.438,13.438,0,0,1,1365.886,397.475Z" transform="translate(-1351.724 -384.306)" fill="#26186a"/>
      <path id="Path_5392" data-name="Path 5392" d="M1373.947,402.13q0-3.559,1.467-4.618t4.4.635a11.152,11.152,0,0,1,4.4,4.441,13.19,13.19,0,0,1,1.467,6.306v1.127l-3.767-2.173v-1.424a5.256,5.256,0,0,0-.525-2.539,3.819,3.819,0,0,0-1.465-1.495c-.628-.362-1.119-.43-1.467-.2s-.525.876-.525,1.934a8.232,8.232,0,0,0,.577,2.992,23.578,23.578,0,0,0,1.45,3.011q.872,1.53,1.866,3.127t1.866,3.314a22.788,22.788,0,0,1,1.45,3.6,13.526,13.526,0,0,1,.577,3.971q0,3.556-1.5,4.592t-4.435-.659a11.374,11.374,0,0,1-4.438-4.464,13.032,13.032,0,0,1-1.5-6.325v-2.008l3.767,2.175v2.32a5.014,5.014,0,0,0,.56,2.556,4.082,4.082,0,0,0,1.5,1.5,1.57,1.57,0,0,0,1.505.241c.373-.2.562-.836.562-1.9a8.23,8.23,0,0,0-.578-2.993,23.218,23.218,0,0,0-1.45-3.014q-.872-1.53-1.866-3.13c-.666-1.07-1.285-2.175-1.866-3.319a23.139,23.139,0,0,1-1.45-3.6A13.511,13.511,0,0,1,1373.947,402.13Z" transform="translate(-1345.805 -380.888)" fill="#26186a"/>
    </g>
    <g id="Group_2201" data-name="Group 2201" transform="translate(1741.167 662.385)">
      <path id="Path_5393" data-name="Path 5393" d="M1485.233,535.362q.325.229.687.437l.688.4a2.23,2.23,0,0,0,1.611.383c.449-.1.673-.728.673-1.873V512.34l3.984,2.3v22a9.33,9.33,0,0,1-.47,3.368,2.631,2.631,0,0,1-1.27,1.5,2.728,2.728,0,0,1-1.828.1,8.74,8.74,0,0,1-2.156-.912c-.361-.21-.687-.4-.978-.565a10.02,10.02,0,0,1-.942-.626Z" transform="translate(-1485.233 -512.34)" fill="#26186a"/>
      <path id="Path_5394" data-name="Path 5394" d="M1504.211,550.363l-4.022-2.324-.687-5.707-4.889-2.821-.69,4.911-3.657-2.111,4.056-26.934,5.832,3.366Zm-9.091-14.535,3.84,2.218-1.922-15.917Z" transform="translate(-1481.538 -510.11)" fill="#26186a"/>
      <path id="Path_5395" data-name="Path 5395" d="M1505.35,546.615l3.042-22.125,3.659,2.114-3.913,27.016-5.941-3.43-3.911-31.532,4.02,2.32Z" transform="translate(-1475.649 -507.701)" fill="#26186a"/>
      <path id="Path_5396" data-name="Path 5396" d="M1520.146,559.561l-4.021-2.32-.687-5.707-4.889-2.825-.688,4.915-3.659-2.114,4.056-26.931,5.832,3.366Zm-9.091-14.531,3.841,2.215-1.921-15.913Z" transform="translate(-1469.838 -503.355)" fill="#26186a"/>
    </g>
    <g id="Group_2203" data-name="Group 2203" transform="translate(1666.926 710.32)">
      <g id="Group_2202" data-name="Group 2202">
        <path id="Path_5397" data-name="Path 5397" d="M1442.533,545.007q0-3.559,1.467-4.618t4.4.635a11.152,11.152,0,0,1,4.4,4.441,13.19,13.19,0,0,1,1.467,6.306V552.9l-3.767-2.175V549.3a5.267,5.267,0,0,0-.526-2.541,3.836,3.836,0,0,0-1.465-1.493q-.944-.544-1.467-.2c-.352.231-.525.876-.525,1.934a8.232,8.232,0,0,0,.577,2.992,23.313,23.313,0,0,0,1.45,3.011c.579,1.02,1.2,2.059,1.864,3.127s1.287,2.171,1.868,3.314a22.62,22.62,0,0,1,1.448,3.6,13.509,13.509,0,0,1,.578,3.971q0,3.556-1.5,4.592t-4.435-.659a11.39,11.39,0,0,1-4.439-4.464,13.051,13.051,0,0,1-1.5-6.325v-2.008l3.767,2.175v2.32a5.035,5.035,0,0,0,.56,2.556,4.1,4.1,0,0,0,1.5,1.5,1.569,1.569,0,0,0,1.505.241c.373-.2.56-.836.56-1.9a8.227,8.227,0,0,0-.577-2.992,23.085,23.085,0,0,0-1.448-3.014q-.871-1.53-1.866-3.13t-1.868-3.319a22.938,22.938,0,0,1-1.448-3.6A13.454,13.454,0,0,1,1442.533,545.007Z" transform="translate(-1442.424 -539.98)" fill="#26186a"/>
        <path id="Path_5398" data-name="Path 5398" d="M1450.526,549.6q0-3.553,1.559-4.558t4.492.689a11.722,11.722,0,0,1,4.49,4.5,12.877,12.877,0,0,1,1.557,6.356V571.81a6.927,6.927,0,0,1-.76,3.659,1.725,1.725,0,0,0,.382.742,3.482,3.482,0,0,0,.742.534l.361.208v4.1l-.543-.312a8.081,8.081,0,0,1-2.19-1.79,6.7,6.7,0,0,1-1.25-2.2,7.6,7.6,0,0,1-1.306-.357,9.929,9.929,0,0,1-1.483-.709,11.713,11.713,0,0,1-4.492-4.5,12.855,12.855,0,0,1-1.559-6.356Zm3.983,17.816a5.105,5.105,0,0,0,.564,2.563,4.032,4.032,0,0,0,1.5,1.516,1.5,1.5,0,0,0,1.5.219q.56-.325.56-1.913V553.995a5.1,5.1,0,0,0-.56-2.561,4.073,4.073,0,0,0-1.5-1.517,1.5,1.5,0,0,0-1.5-.22c-.375.217-.564.853-.564,1.915Z" transform="translate(-1436.475 -536.537)" fill="#26186a"/>
        <path id="Path_5399" data-name="Path 5399" d="M1459.3,548.527l3.985,2.3v25.093l6.555,3.787v4.181L1459.3,577.8Z" transform="translate(-1430.035 -533.705)" fill="#26186a"/>
      </g>
    </g>
    <g id="Group_2205" data-name="Group 2205" transform="translate(1691.356 561.755)">
      <g id="Group_2204" data-name="Group 2204">
        <path id="Path_5400" data-name="Path 5400" d="M1462.378,457.7a11.479,11.479,0,0,1,4.474,4.424,12.853,12.853,0,0,1,1.466,6.242v3.8q0,3.556-1.466,4.549t-4.474-.742l-1.884-1.086v11l-3.983-2.3V454.314Zm-1.884,3.1v9.911l1.884,1.087c.628.362,1.108.446,1.45.251s.506-.822.506-1.882v-4.391a4.984,4.984,0,0,0-.506-2.468,3.869,3.869,0,0,0-1.45-1.42Z" transform="translate(-1456.511 -454.314)" fill="#26186a"/>
        <path id="Path_5401" data-name="Path 5401" d="M1468.639,490.591l-3.984-2.3V459.016l3.984,2.3v12.545l4.53,2.615V463.931l4.053,2.341v29.276l-4.053-2.341V480.659l-4.53-2.615Z" transform="translate(-1450.531 -450.862)" fill="#26186a"/>
        <path id="Path_5402" data-name="Path 5402" d="M1479.274,467.456a11.46,11.46,0,0,1,4.473,4.422,12.83,12.83,0,0,1,1.467,6.243v3.8q0,3.553-1.467,4.549t-4.473-.744l-1.884-1.087v11l-3.983-2.3V464.069Zm-1.884,3.094v9.913l1.884,1.087q.939.544,1.448.252t.508-1.882v-4.391a4.973,4.973,0,0,0-.508-2.468,3.883,3.883,0,0,0-1.448-1.424Z" transform="translate(-1444.106 -447.152)" fill="#26186a"/>
      </g>
    </g>
    <g id="Group_2206" data-name="Group 2206" transform="translate(1236.089 307.983)">
      <path id="Path_5403" data-name="Path 5403" d="M1197.977,339.558l-3.983-2.3V307.983l3.983,2.3V322.83l4.53,2.615V312.9l4.053,2.341v29.276l-4.053-2.341V329.626l-4.53-2.615Z" transform="translate(-1193.993 -307.983)" fill="#26186a"/>
      <path id="Path_5404" data-name="Path 5404" d="M1202.452,312.867l12.313,7.11v4.183l-4.164-2.405v25.093l-3.983-2.3V319.455l-4.166-2.405Z" transform="translate(-1187.782 -304.397)" fill="#26186a"/>
      <path id="Path_5405" data-name="Path 5405" d="M1219.217,343.332l2.716-19.217,5.541,3.2v29.276l-3.767-2.175V333.419l-2.751,19.406-3.767-2.173-2.973-22.418v20.7l-3.475-2.007V317.653l5.541,3.2Z" transform="translate(-1181.695 -300.883)" fill="#26186a"/>
      <path id="Path_5406" data-name="Path 5406" d="M1221.9,324.093l3.983,2.3v25.094l6.556,3.782v4.183l-10.539-6.085Z" transform="translate(-1173.507 -296.155)" fill="#26186a"/>
      <path id="Path_5407" data-name="Path 5407" d="M1232.721,349.988v2.738a5.011,5.011,0,0,0,.56,2.558,4.1,4.1,0,0,0,1.5,1.5,1.55,1.55,0,0,0,1.5.238c.373-.2.562-.836.562-1.9V348.66a5.127,5.127,0,0,0-.562-2.568,4.046,4.046,0,0,0-1.5-1.517,1.5,1.5,0,0,0-1.5-.222c-.376.215-.56.855-.56,1.915v.879l-3.767-2.175.725-16.562,10.5,6.063v4.181l-6.918-3.992-.324,6.8q1.121-1.488,3.477-.127a8.042,8.042,0,0,1,3.314,3.63,13.122,13.122,0,0,1,1.1,5.614V357.1q0,3.553-1.505,4.587t-4.435-.657a11.367,11.367,0,0,1-4.438-4.466,13.039,13.039,0,0,1-1.5-6.323v-2.428Z" transform="translate(-1168.324 -292.986)" fill="#26186a"/>
    </g>
    <g id="Group_2210" data-name="Group 2210" transform="translate(1136.659 531.886)">
      <g id="Group_2207" data-name="Group 2207" transform="translate(0 4.327)">
        <path id="Path_5408" data-name="Path 5408" d="M1136.66,464.7V482.12c.047,1.691,1.155,3.246,3.12,4.381l64.6,37.3c4.741,2.737,13.057,2.388,18.542-.779l61.9-35.739c2.518-1.453,4.062-3.293,4.395-5.161h.078V464.7Z" transform="translate(-1136.659 -421.148)" fill="url(#linear-gradient-6)"/>
        <path id="Path_5409" data-name="Path 5409" d="M1286.176,478.729l-64.6-37.3a16.387,16.387,0,0,0-8.035-1.845,21.605,21.605,0,0,0-10.509,2.624l-61.9,35.737c-2.9,1.675-4.528,3.874-4.469,6.032.047,1.691,1.155,3.248,3.12,4.382l64.6,37.3c4.741,2.738,13.057,2.39,18.542-.779l61.9-35.739c2.948-1.7,4.577-3.932,4.468-6.122C1289.209,481.341,1288.132,479.858,1286.176,478.729Z" transform="translate(-1136.659 -439.586)" fill="url(#linear-gradient-7)"/>
      </g>
      <g id="Group_2208" data-name="Group 2208" transform="translate(4.384)">
        <path id="Path_5410" data-name="Path 5410" d="M1139.188,460.983v2.9c.045,1.594,1.089,3.061,2.941,4.129l60.889,35.156c4.469,2.579,12.31,2.251,17.479-.735l58.343-33.686c2.374-1.368,3.829-3.1,4.143-4.865h.073v-2.9Z" transform="translate(-1139.187 -419.549)" fill="url(#linear-gradient-8)"/>
        <path id="Path_5411" data-name="Path 5411" d="M1280.114,473.985l-60.89-35.155a15.439,15.439,0,0,0-7.573-1.739,20.347,20.347,0,0,0-9.9,2.473L1143.4,473.25c-2.733,1.578-4.268,3.651-4.212,5.685.043,1.594,1.089,3.061,2.941,4.129l60.889,35.156c4.469,2.579,12.31,2.251,17.479-.735l58.343-33.686c2.78-1.6,4.315-3.706,4.211-5.77C1282.974,476.448,1281.957,475.05,1280.114,473.985Z" transform="translate(-1139.187 -437.091)" fill="url(#linear-gradient-9)"/>
      </g>
      <g id="Group_2209" data-name="Group 2209" transform="translate(87.72 75.941)">
        <path id="Path_5412" data-name="Path 5412" d="M1212.047,486.9l-24.806,14.322v-3.194l24.806-14.322Z" transform="translate(-1187.241 -478.808)" fill="url(#linear-gradient-10)"/>
        <path id="Path_5413" data-name="Path 5413" d="M1209.1,484.075l-6.3,3.64V484.52l6.3-3.64Z" transform="translate(-1175.817 -480.88)" fill="url(#linear-gradient-11)"/>
      </g>
    </g>
    <g id="Group_2211" data-name="Group 2211" transform="translate(1214.376 342.621)">
      <path id="Path_5414" data-name="Path 5414" d="M1370.058,571.221l-188.585-108.88V334.251l188.585,108.88Z" transform="translate(-1181.473 -323.334)" fill="#97daf8" opacity="0.44"/>
      <path id="Path_5415" data-name="Path 5415" d="M1370.058,447.753l-188.585-108.88v-8.656c0-1.9,1.155-2.775,2.581-1.951l183.423,105.9a6.185,6.185,0,0,1,2.582,4.932Z" transform="translate(-1181.473 -327.956)" fill="url(#linear-gradient-10)"/>
      <path id="Path_5416" data-name="Path 5416" d="M1184.338,333.047c0-1.327.931-1.864,2.079-1.2a4.6,4.6,0,0,1,2.081,3.6c0,1.327-.932,1.863-2.081,1.2A4.6,4.6,0,0,1,1184.338,333.047Z" transform="translate(-1179.369 -325.309)" fill="#fff"/>
      <path id="Path_5417" data-name="Path 5417" d="M1188.236,335.3c0-1.327.931-1.864,2.08-1.2a4.593,4.593,0,0,1,2.081,3.6c0,1.327-.931,1.864-2.081,1.2A4.6,4.6,0,0,1,1188.236,335.3Z" transform="translate(-1176.507 -323.657)" fill="#fff"/>
      <path id="Path_5418" data-name="Path 5418" d="M1192.134,337.548c0-1.327.931-1.864,2.079-1.2a4.6,4.6,0,0,1,2.081,3.6c0,1.325-.931,1.863-2.081,1.2A4.6,4.6,0,0,1,1192.134,337.548Z" transform="translate(-1173.645 -322.004)" fill="#fff"/>
      <path id="Path_5419" data-name="Path 5419" d="M1269.473,447.769l-82.262-47.494V344.484l82.262,47.494Z" transform="translate(-1177.26 -315.821)" fill="#b6ceea"/>
      <path id="Path_5420" data-name="Path 5420" d="M1225.877,446.123,1187.21,423.8V379.547l38.667,22.324Z" transform="translate(-1177.26 -290.076)" fill="#b6ceea"/>
      <path id="Path_5421" data-name="Path 5421" d="M1275.03,450.977l-36.912-21.311V373.875l36.912,21.311Z" transform="translate(-1139.883 -294.241)" fill="#b6ceea"/>
      <path id="Path_5422" data-name="Path 5422" d="M1316.681,459.922l-78.564-45.359v-4.989l78.564,45.359Z" transform="translate(-1139.883 -268.03)" fill="#b6ceea"/>
      <path id="Path_5423" data-name="Path 5423" d="M1275.03,440.182l-36.912-21.311v-4.989l36.912,21.311Z" transform="translate(-1139.883 -264.867)" fill="#b6ceea"/>
      <path id="Path_5424" data-name="Path 5424" d="M1270.7,437.682l-9.931-5.734V426.96l9.931,5.734Z" transform="translate(-1123.252 -255.265)" fill="#b6ceea"/>
      <path id="Path_5425" data-name="Path 5425" d="M1294.767,451.578l-26.8-15.474v-4.989l26.8,15.474Z" transform="translate(-1117.968 -252.214)" fill="#b6ceea"/>
      <path id="Path_5426" data-name="Path 5426" d="M1302.892,473.965l-64.775-37.4v-4.989l64.775,37.4Z" transform="translate(-1139.883 -251.874)" fill="#b6ceea"/>
      <path id="Path_5427" data-name="Path 5427" d="M1316.681,468.539l-78.564-45.359v-4.989l78.564,45.359Z" transform="translate(-1139.883 -261.703)" fill="#b6ceea"/>
      <path id="Path_5428" data-name="Path 5428" d="M1295.682,460.723,1266.717,444v-4.989l28.966,16.723Z" transform="translate(-1118.884 -246.416)" fill="#b6ceea"/>
      <path id="Path_5429" data-name="Path 5429" d="M1285.539,454.867l-47.422-27.379V422.5l47.422,27.379Z" transform="translate(-1139.883 -258.54)" fill="#b6ceea"/>
      <path id="Path_5430" data-name="Path 5430" d="M1260.984,445l-22.867-13.2v-4.989l22.867,13.2Z" transform="translate(-1139.883 -255.376)" fill="#b6ceea"/>
      <path id="Path_5431" data-name="Path 5431" d="M1305.894,470.928l-53.085-30.649V435.29l53.085,30.649Z" transform="translate(-1129.096 -249.148)" fill="#b6ceea"/>
      <path id="Path_5432" data-name="Path 5432" d="M1299.047,464.844l-36.912-21.311V387.741l36.912,21.311Z" transform="translate(-1122.249 -284.06)" fill="#b6ceea"/>
      <path id="Path_5433" data-name="Path 5433" d="M1251.015,460.636l-38.667-22.324V394.061l38.667,22.324Z" transform="translate(-1158.803 -279.42)" fill="#b6ceea"/>
    </g>
    <g id="Group_2216" data-name="Group 2216" transform="translate(1522.421 833.894)">
      <path id="Path_5434" data-name="Path 5434" d="M1433.664,713.665l-74.565-43.05,90.972-52.523h30.516l59.306,34.24Z" transform="translate(-1359.099 -606.202)" fill="#221f72" opacity="0.1" style="mix-blend-mode: multiply;isolation: isolate"/>
      <g id="Group_2212" data-name="Group 2212" transform="translate(0.273)">
        <path id="Path_5435" data-name="Path 5435" d="M1433.821,706.809l-74.565-43.05,90.972-52.523h30.516l59.306,34.24Z" transform="translate(-1359.256 -611.236)" fill="#fff"/>
      </g>
      <g id="Group_2213" data-name="Group 2213" transform="translate(91.245)">
        <path id="Path_5436" data-name="Path 5436" d="M1426.971,620.046l-15.259-8.81h30.516Z" transform="translate(-1411.713 -611.236)" fill="#80d4f9"/>
      </g>
      <g id="Group_2214" data-name="Group 2214" transform="translate(44.696 28.51)">
        <path id="Path_5437" data-name="Path 5437" d="M1399.971,641.919l-15.1-8.718,9.572-5.526,15.1,8.717Z" transform="translate(-1384.872 -627.676)" fill="#b6ceea"/>
      </g>
      <g id="Group_2215" data-name="Group 2215" transform="translate(61.008 21.935)">
        <path id="Path_5438" data-name="Path 5438" d="M1407.62,635.283l-9.572,5.526,15.1,8.718,9.572-5.526Z" transform="translate(-1391.51 -615.515)" fill="#b6ceea"/>
        <path id="Path_5439" data-name="Path 5439" d="M1411.224,648.416l15.1,8.718,9.571-5.526-15.1-8.718Z" transform="translate(-1381.835 -609.93)" fill="#b6ceea"/>
        <path id="Path_5440" data-name="Path 5440" d="M1455.815,644.744l-15.3-8.834,2.9-1.674,6.74,3.892,9.571-5.526-15.1-8.718-9.571,5.526,6.74,3.892-2.9,1.673-15.3-8.834-4.246,2.451-6.741-3.892-9.572,5.526,15.1,8.718,9.572-5.526-6.74-3.892,2.628-1.517,13.682,7.9-15.5,8.95-22.851-13.193-4.648,2.684,1.618.934,3.03-1.75,21.233,12.259-3.031,1.749,1.618.934,3.03-1.75,21.233,12.259-3.03,1.75,1.617.934,4.648-2.683-22.852-13.193,15.5-8.951,13.683,7.9-2.628,1.517-6.74-3.892-9.571,5.526,15.1,8.718,9.571-5.526-6.741-3.892Z" transform="translate(-1394.278 -623.884)" fill="#b6ceea"/>
      </g>
    </g>
    <g id="Group_2218" data-name="Group 2218" transform="translate(1649.865 757.709)">
      <path id="Path_5441" data-name="Path 5441" d="M1507.151,668.665l-74.565-43.05,90.972-52.523h30.516l59.306,34.24Z" transform="translate(-1432.586 -563.058)" fill="#221f72" opacity="0.1" style="mix-blend-mode: multiply;isolation: isolate"/>
      <path id="Path_5442" data-name="Path 5442" d="M1507.151,662.879l-74.565-43.05,90.972-52.523h30.516l59.306,34.24Z" transform="translate(-1432.586 -567.306)" fill="#fff"/>
      <path id="Path_5443" data-name="Path 5443" d="M1500.3,576.116l-15.258-8.809h30.516Z" transform="translate(-1394.071 -567.306)" fill="#80d4f9"/>
      <g id="Group_2217" data-name="Group 2217" transform="translate(39.175 13.943)">
        <path id="Path_5444" data-name="Path 5444" d="M1535.2,607.472l-53.173-30.7,2.471-1.427,53.173,30.7Z" transform="translate(-1435.459 -575.347)" fill="#b6ceea"/>
        <path id="Path_5445" data-name="Path 5445" d="M1504.875,592.429l-24.982-14.424,2.471-1.427L1507.347,591Z" transform="translate(-1437.026 -574.442)" fill="#b6ceea"/>
        <path id="Path_5446" data-name="Path 5446" d="M1501.945,590.737l-6.722-3.881,2.471-1.427,6.721,3.881Z" transform="translate(-1425.771 -567.943)" fill="#b6ceea"/>
        <path id="Path_5447" data-name="Path 5447" d="M1518.234,600.141l-18.14-10.473,2.471-1.427,18.14,10.473Z" transform="translate(-1422.194 -565.879)" fill="#b6ceea"/>
        <path id="Path_5448" data-name="Path 5448" d="M1514.968,608.377l-43.84-25.311,2.471-1.427,43.84,25.311Z" transform="translate(-1443.462 -570.726)" fill="#b6ceea"/>
        <path id="Path_5449" data-name="Path 5449" d="M1530.932,609.937l-53.173-30.7,2.471-1.427,53.173,30.7Z" transform="translate(-1438.593 -573.537)" fill="#b6ceea"/>
        <path id="Path_5450" data-name="Path 5450" d="M1514.585,602.964l-19.6-11.318,2.471-1.427,19.6,11.318Z" transform="translate(-1425.948 -564.427)" fill="#b6ceea"/>
        <path id="Path_5451" data-name="Path 5451" d="M1507.72,599l-32.1-18.53,2.471-1.427,32.1,18.53Z" transform="translate(-1440.16 -572.633)" fill="#b6ceea"/>
        <path id="Path_5452" data-name="Path 5452" d="M1488.967,590.637l-15.476-8.935,2.471-1.427,15.476,8.935Z" transform="translate(-1441.727 -571.728)" fill="#b6ceea"/>
        <path id="Path_5453" data-name="Path 5453" d="M1519.363,608.186l-35.928-20.743,2.471-1.427,35.929,20.743Z" transform="translate(-1434.427 -567.513)" fill="#b6ceea"/>
        <path id="Path_5454" data-name="Path 5454" d="M1519.247,616.683l-53.173-30.7,2.471-1.427,53.173,30.7Z" transform="translate(-1447.172 -568.584)" fill="#b6ceea"/>
        <path id="Path_5455" data-name="Path 5455" d="M1488.923,601.639l-24.982-14.424,2.471-1.427,24.982,14.424Z" transform="translate(-1448.739 -567.679)" fill="#b6ceea"/>
        <path id="Path_5456" data-name="Path 5456" d="M1505.857,611.416l-26.586-15.35,2.471-1.427,26.586,15.35Z" transform="translate(-1437.483 -561.181)" fill="#b6ceea"/>
        <path id="Path_5457" data-name="Path 5457" d="M1462.913,596.744l-7.738-4.468,2.471-1.427,7.738,4.468Z" transform="translate(-1455.175 -563.964)" fill="#b6ceea"/>
        <path id="Path_5458" data-name="Path 5458" d="M1514.979,619.147l-53.173-30.7,2.471-1.427,53.173,30.7Z" transform="translate(-1450.306 -566.775)" fill="#b6ceea"/>
        <path id="Path_5459" data-name="Path 5459" d="M1498.633,612.174l-19.6-11.318,2.471-1.427,19.6,11.318Z" transform="translate(-1437.661 -557.665)" fill="#b6ceea"/>
        <path id="Path_5460" data-name="Path 5460" d="M1491.767,608.21l-32.1-18.53,2.471-1.427,32.1,18.53Z" transform="translate(-1451.873 -565.87)" fill="#b6ceea"/>
        <path id="Path_5461" data-name="Path 5461" d="M1484.522,606.492l-26.984-15.579,2.471-1.427,26.984,15.579Z" transform="translate(-1453.44 -564.965)" fill="#b6ceea"/>
        <path id="Path_5462" data-name="Path 5462" d="M1498.658,614.653l-24.705-14.264,2.471-1.427,24.706,14.264Z" transform="translate(-1441.388 -558.007)" fill="#b6ceea"/>
      </g>
    </g>
    <g id="Group_2219" data-name="Group 2219" transform="translate(1230.266 397.496)">
      <path id="Path_5463" data-name="Path 5463" d="M1221.638,393.128c-1.885-8.931-8.109-18.284-15.5-22.552s-13.617-2.1-15.5,4.653Z" transform="translate(-1190.635 -353.151)" fill="#fff"/>
      <path id="Path_5464" data-name="Path 5464" d="M1195.872,364.18c0-4.093,2.874-5.751,6.419-3.7a14.187,14.187,0,0,1,6.418,11.116c0,4.093-2.874,5.752-6.418,3.7A14.184,14.184,0,0,1,1195.872,364.18Z" transform="translate(-1186.79 -359.598)" fill="#fff"/>
    </g>
    <g id="Group_2220" data-name="Group 2220" transform="translate(1548.572 629.499)">
      <path id="Path_5465" data-name="Path 5465" d="M1476.349,588.973l-102.17-58.988V493.377l102.17,58.988Z" transform="translate(-1374.178 -493.377)" fill="#97daf8" opacity="0.44"/>
      <path id="Path_5466" data-name="Path 5466" d="M1400.411,522.453c0,7.122-5,10.008-11.167,6.448s-11.167-12.221-11.167-19.342,5-10.008,11.167-6.448S1400.411,515.332,1400.411,522.453Z" transform="translate(-1371.315 -487.351)" fill="#fff"/>
      <path id="Path_5467" data-name="Path 5467" d="M1442.328,543.905l-47.91-27.661v-3.118l47.91,27.661Z" transform="translate(-1359.318 -478.877)" fill="#fff"/>
      <path id="Path_5468" data-name="Path 5468" d="M1411.331,521.727l-16.914-9.765v-3.118l16.914,9.765Z" transform="translate(-1359.318 -482.022)" fill="#fff"/>
      <path id="Path_5469" data-name="Path 5469" d="M1451.992,553.8l-57.575-33.344v-3.118l57.575,33.344Z" transform="translate(-1359.318 -475.782)" fill="#fff"/>
      <path id="Path_5470" data-name="Path 5470" d="M1451.992,557.6l-57.575-33.344v-3.118l57.575,33.344Z" transform="translate(-1359.318 -472.996)" fill="#fff"/>
      <path id="Path_5471" data-name="Path 5471" d="M1444.548,540.9l-39.264-22.669v-3.118l39.264,22.669Z" transform="translate(-1351.34 -477.415)" fill="#fff"/>
    </g>
  </g>
</svg>
