<svg xmlns="http://www.w3.org/2000/svg" xmlns:xlink="http://www.w3.org/1999/xlink" width="201.328" height="246.409" viewBox="0 0 201.328 246.409">
  <defs>
    <linearGradient id="linear-gradient" x1="-4.48" y1="9.386" x2="-3.129" y2="7.825" gradientUnits="objectBoundingBox">
      <stop offset="0" stop-color="#3f51b5"/>
      <stop offset="0.213" stop-color="#3c57bb"/>
      <stop offset="0.518" stop-color="#336acc"/>
      <stop offset="0.878" stop-color="#2689e8"/>
      <stop offset="1" stop-color="#2196f3"/>
    </linearGradient>
    <linearGradient id="linear-gradient-2" x1="-4.503" y1="10.668" x2="-3.325" y2="9.117" xlink:href="#linear-gradient"/>
    <linearGradient id="linear-gradient-3" x1="0.388" y1="1.036" x2="0.604" y2="-0.001" gradientUnits="objectBoundingBox">
      <stop offset="0" stop-color="#14a4db"/>
      <stop offset="0.196" stop-color="#19aadc"/>
      <stop offset="0.477" stop-color="#2abddf"/>
      <stop offset="0.809" stop-color="#45dce5"/>
      <stop offset="1" stop-color="#58f2e9"/>
    </linearGradient>
    <linearGradient id="linear-gradient-4" x1="-14.923" y1="31.644" x2="-14.923" y2="30.414" xlink:href="#linear-gradient-3"/>
    <linearGradient id="linear-gradient-5" x1="-62.32" y1="226.957" x2="-62.32" y2="225.66" xlink:href="#linear-gradient"/>
    <linearGradient id="linear-gradient-6" x1="-64.918" y1="64.805" x2="-64.755" y2="61.952" gradientUnits="objectBoundingBox">
      <stop offset="0" stop-color="#d9a7f7"/>
      <stop offset="1" stop-color="#2c30d0"/>
    </linearGradient>
    <linearGradient id="linear-gradient-7" x1="-64.882" y1="64.887" x2="-64.718" y2="62.034" xlink:href="#linear-gradient-6"/>
    <linearGradient id="linear-gradient-8" x1="0.388" y1="1.036" x2="0.604" y2="-0.001" xlink:href="#linear-gradient"/>
    <linearGradient id="linear-gradient-10" x1="0.863" y1="1.669" x2="0.195" y2="-0.482" xlink:href="#linear-gradient-6"/>
    <linearGradient id="linear-gradient-11" x1="0.722" y1="0.825" x2="-0.33" y2="-0.713" xlink:href="#linear-gradient-6"/>
    <linearGradient id="linear-gradient-13" x1="0.493" y1="0.45" x2="0.332" y2="-0.644" xlink:href="#linear-gradient-6"/>
    <linearGradient id="linear-gradient-14" x1="-0.237" y1="0.504" x2="2.325" y2="0.491" xlink:href="#linear-gradient-6"/>
    <linearGradient id="linear-gradient-15" x1="-0.181" y1="0.444" x2="3.388" y2="0.892" xlink:href="#linear-gradient-6"/>
    <linearGradient id="linear-gradient-16" x1="-0.906" y1="0.508" x2="3.017" y2="0.486" xlink:href="#linear-gradient-6"/>
    <linearGradient id="linear-gradient-17" x1="4.218" y1="0.045" x2="-1.864" y2="0.756" xlink:href="#linear-gradient-6"/>
    <linearGradient id="linear-gradient-18" x1="0.5" y1="2.218" x2="0.5" y2="0.044" xlink:href="#linear-gradient-6"/>
    <linearGradient id="linear-gradient-19" x1="0.5" y1="-1.092" x2="0.5" y2="0.685" xlink:href="#linear-gradient-6"/>
    <linearGradient id="linear-gradient-20" x1="-0.121" y1="1.421" x2="0.788" y2="0.073" xlink:href="#linear-gradient-6"/>
    <linearGradient id="linear-gradient-21" x1="0.582" y1="0.275" x2="0.362" y2="0.854" xlink:href="#linear-gradient-6"/>
    <linearGradient id="linear-gradient-22" x1="-9.71" y1="35.321" x2="-9.71" y2="34.417" xlink:href="#linear-gradient-6"/>
  </defs>
  <g id="Group_1451" data-name="Group 1451" transform="translate(-950.853 -263.24)">
    <path id="Path_2705" data-name="Path 2705" d="M1187.522,486.133l-87.248-50.372V263.24l87.248,50.372Z" transform="translate(-48.568)" opacity="0.22" fill="url(#linear-gradient)"/>
    <path id="Path_2706" data-name="Path 2706" d="M1104.759,466.5l-87.248-50.372V270.754l87.248,50.372Z" transform="translate(-21.667 -2.443)" opacity="0.22" fill="url(#linear-gradient-2)"/>
    <g id="Group_1417" data-name="Group 1417" transform="translate(1037.18 275.94)">
      <path id="Path_2707" data-name="Path 2707" d="M1151.753,318.942l-63.134-36.451a2.311,2.311,0,0,0-2.429-.162l-5.542,3.2,67.942,196.956,5.516-3.2v0a3.2,3.2,0,0,0,1.3-2.97v-150.4C1155.4,323.23,1153.77,320.106,1151.753,318.942Z" transform="translate(-1079.368 -282.056)" fill="#b8d0dc"/>
      <path id="Path_2708" data-name="Path 2708" d="M1145.538,483.884l-63.134-36.45c-2.017-1.164-3.652-4.288-3.652-6.977v-150.4c0-2.689,1.635-3.926,3.652-2.761l63.134,36.45c2.017,1.164,3.651,4.288,3.651,6.977v150.4C1149.19,483.812,1147.555,485.048,1145.538,483.884Z" transform="translate(-1078.752 -283.616)" fill="#f1f2f2"/>
      <path id="Path_2709" data-name="Path 2709" d="M1149.19,469.491l-70.438-40.667V310.8l70.438,40.667Z" transform="translate(-1078.752 -291.399)" fill="url(#linear-gradient-3)"/>
      <path id="Path_2710" data-name="Path 2710" d="M1134.668,331.321l-15.942-9.2a1.967,1.967,0,0,1-.821-1.569h0c0-.605.368-.883.821-.621l15.942,9.2a1.966,1.966,0,0,1,.821,1.569h0C1135.49,331.306,1135.122,331.583,1134.668,331.321Z" transform="translate(-1091.478 -294.334)" fill="#b8d0dc"/>
    </g>
    <g id="Group_1418" data-name="Group 1418" transform="translate(981.267 278.476)" opacity="0.7">
      <path id="Path_2711" data-name="Path 2711" d="M1025.069,352.19,1014,345.8l-3.513,3.116-3.513-7.172-11.065-6.388V285.814l29.155,16.833Z" transform="translate(-995.914 -285.814)" fill="url(#linear-gradient-4)"/>
      <path id="Path_2712" data-name="Path 2712" d="M1023.04,318.451l-6.6-3.809c-.485-.279-.888-.12-1.011.35-.357,1.357-1.59,1.8-3.056.951a7.092,7.092,0,0,1-3.055-4.479,2.372,2.372,0,0,0-1.011-1.517l-6.6-3.809v6.232l4.312,2.489v16.264l12.7,7.334V322.194l4.312,2.489Z" transform="translate(-997.799 -292.42)" fill="#fff"/>
      <path id="Path_2713" data-name="Path 2713" d="M1019.33,330.614l-7.158-4.133v-4.9l7.158,4.133Z" transform="translate(-1001.199 -297.439)" opacity="0.22" fill="url(#linear-gradient-5)"/>
      <path id="Path_2714" data-name="Path 2714" d="M1008.773,299.765l-7.059-4.076v-1.42l7.059,4.076Z" transform="translate(-997.799 -288.562)" fill="#fff"/>
      <path id="Path_2715" data-name="Path 2715" d="M1005.373,300.808l-3.66-2.113v-.482l3.66,2.113Z" transform="translate(-997.799 -289.844)" fill="#fff"/>
      <path id="Path_2716" data-name="Path 2716" d="M1012.378,304.852l-4.582-2.645v-.482l4.582,2.645Z" transform="translate(-999.776 -290.986)" fill="#fff"/>
      <path id="Path_2717" data-name="Path 2717" d="M1018.9,308.621l-3.726-2.151v-.482l3.726,2.151Z" transform="translate(-1002.176 -292.371)" fill="#fff"/>
      <path id="Path_2718" data-name="Path 2718" d="M1004.275,301.677l-2.562-1.479v-.482l2.562,1.479Z" transform="translate(-997.799 -290.333)" fill="#fff"/>
      <path id="Path_2719" data-name="Path 2719" d="M1015.973,308.43l-9.813-5.666v-.482l9.813,5.666Z" transform="translate(-999.244 -291.167)" fill="#fff"/>
      <path id="Path_2720" data-name="Path 2720" d="M1023.039,358.743l-21.326-12.313v-.482l21.326,12.313Z" transform="translate(-997.799 -305.36)" fill="#fff"/>
      <path id="Path_2721" data-name="Path 2721" d="M1006.383,304.4l-4.67-2.7v-.482l4.67,2.7Z" transform="translate(-997.799 -290.821)" fill="#fff"/>
      <path id="Path_2722" data-name="Path 2722" d="M1012.225,307.769l-3.052-1.762v-.482l3.052,1.762Z" transform="translate(-1000.224 -292.221)" fill="#fff"/>
      <path id="Path_2723" data-name="Path 2723" d="M1007.791,353.131l-6.094-3.518v-.482l6.094,3.518Z" transform="translate(-997.794 -306.395)" fill="#fff"/>
      <path id="Path_2724" data-name="Path 2724" d="M1019.454,359.865l-7.629-4.4v-.482l7.629,4.4Z" transform="translate(-1001.086 -308.295)" fill="#fff"/>
      <path id="Path_2725" data-name="Path 2725" d="M1030.322,366.14l-6.2-3.582v-.482l6.2,3.582Z" transform="translate(-1005.082 -310.602)" fill="#fff"/>
      <path id="Path_2726" data-name="Path 2726" d="M1005.963,353.578l-4.266-2.463v-.482l4.266,2.463Z" transform="translate(-997.794 -306.883)" fill="#fff"/>
      <path id="Path_2727" data-name="Path 2727" d="M1025.441,364.824l-16.34-9.434v-.482l16.34,9.434Z" transform="translate(-1000.2 -308.272)" fill="#fff"/>
      <path id="Path_2728" data-name="Path 2728" d="M1009.472,357.107l-7.775-4.489v-.482l7.775,4.489Z" transform="translate(-997.794 -307.371)" fill="#fff"/>
      <path id="Path_2729" data-name="Path 2729" d="M1019.2,362.723l-5.082-2.934v-.482l5.082,2.934Z" transform="translate(-1001.831 -309.702)" fill="#fff"/>
      <path id="Path_2730" data-name="Path 2730" d="M1032.415,313.867l-.065-.038a1.053,1.053,0,0,1-.439-.84v-.6c0-.323.2-.472.439-.332l.065.038a1.053,1.053,0,0,1,.44.84v.6C1032.855,313.858,1032.658,314.007,1032.415,313.867Z" transform="translate(-1007.614 -294.326)" fill="#fff"/>
      <path id="Path_2731" data-name="Path 2731" d="M1030.659,312.853l-.065-.038a1.053,1.053,0,0,1-.44-.84v-.6c0-.323.2-.472.44-.332l.065.038a1.054,1.054,0,0,1,.439.84v.6C1031.1,312.844,1030.9,312.993,1030.659,312.853Z" transform="translate(-1007.043 -293.996)" fill="#fff"/>
      <path id="Path_2732" data-name="Path 2732" d="M1028.859,311.814l-.066-.038a1.053,1.053,0,0,1-.439-.84v-.6c0-.324.2-.472.439-.332l.066.038a1.053,1.053,0,0,1,.439.84v.6C1029.3,311.8,1029.1,311.954,1028.859,311.814Z" transform="translate(-1006.458 -293.659)" fill="#fff"/>
    </g>
    <g id="Group_1419" data-name="Group 1419" transform="translate(992.797 342.721)" opacity="0.74">
      <path id="Path_2733" data-name="Path 2733" d="M1019.592,387.16c0,2.1-1.477,2.956-3.3,1.9a7.291,7.291,0,0,1-3.3-5.712c0-2.1,1.477-2.956,3.3-1.9A7.289,7.289,0,0,1,1019.592,387.16Z" transform="translate(-1012.996 -380.997)" fill="#fff" opacity="0.65"/>
      <path id="Path_2734" data-name="Path 2734" d="M1018.594,387.246c0,.876-.615,1.231-1.374.793a3.036,3.036,0,0,1-1.373-2.379c0-.875.615-1.23,1.373-.792A3.035,3.035,0,0,1,1018.594,387.246Z" transform="translate(-1013.923 -382.194)" fill="#fff" opacity="0.65"/>
    </g>
    <path id="Path_2735" data-name="Path 2735" d="M1072.375,566.945l-20.466-11.816,29.8-17.205,20.466,11.816Z" transform="translate(-32.847 -89.284)" opacity="0.15" fill="url(#linear-gradient-6)"/>
    <path id="Path_2736" data-name="Path 2736" d="M1065.372,566.748l-20.466-11.816,29.8-17.205,20.466,11.816Z" transform="translate(-30.571 -89.22)" opacity="0.15" fill="url(#linear-gradient-7)"/>
    <path id="Path_2737" data-name="Path 2737" d="M1141.7,474.29l-71.278-41.152V313.705l71.278,41.152Z" transform="translate(-38.866 -16.404)" opacity="0.22" fill="url(#linear-gradient-8)"/>
    <path id="Path_2738" data-name="Path 2738" d="M1134,481.991l-71.278-41.152V321.406L1134,362.558Z" transform="translate(-36.363 -18.906)" opacity="0.22" fill="url(#linear-gradient-8)"/>
    <path id="Path_2739" data-name="Path 2739" d="M1120.678,410.227l-18.653-10.77V374.648a6.645,6.645,0,0,1,9.967-5.755l18.653,10.77v24.809A6.645,6.645,0,0,1,1120.678,410.227Z" transform="translate(-49.137 -34.049)" opacity="0.48" fill="url(#linear-gradient-10)" style="mix-blend-mode: multiply;isolation: isolate"/>
    <path id="Path_2740" data-name="Path 2740" d="M1198.454,424.724l-39.125-22.589c-3.386-1.955-6.132-7.2-6.132-11.716h0c0-4.515,2.746-6.591,6.132-4.636l39.125,22.589c3.386,1.955,6.132,7.2,6.132,11.716h0C1204.586,424.6,1201.841,426.679,1198.454,424.724Z" transform="translate(-65.77 -39.593)" fill="url(#linear-gradient-11)"/>
    <path id="Path_2741" data-name="Path 2741" d="M1218.256,470.685,1179.131,448.1c-3.386-1.955-6.132-7.2-6.132-11.716h0c0-4.516,2.746-6.591,6.132-4.636l39.125,22.589c3.387,1.955,6.132,7.2,6.132,11.716h0C1224.388,470.565,1221.643,472.64,1218.256,470.685Z" transform="translate(-72.207 -54.532)" fill="url(#linear-gradient-11)"/>
    <g id="Group_1422" data-name="Group 1422" transform="translate(1091.019 349.642)">
      <g id="Group_1420" data-name="Group 1420">
        <path id="Path_2742" data-name="Path 2742" d="M1165.417,403.635a4.441,4.441,0,0,1-2.19-.665,10.42,10.42,0,0,1-4.708-8.155,3.079,3.079,0,0,1,5.02-2.9,10.422,10.422,0,0,1,4.708,8.155,3.493,3.493,0,0,1-1.49,3.218A2.651,2.651,0,0,1,1165.417,403.635Zm-4.065-11.759a2.035,2.035,0,0,0-1.031.263,2.907,2.907,0,0,0-1.177,2.676,9.729,9.729,0,0,0,4.4,7.614,2.472,2.472,0,0,0,4.083-2.358,9.73,9.73,0,0,0-4.4-7.614A3.83,3.83,0,0,0,1161.352,391.876Z" transform="translate(-1158.519 -391.251)" fill="#fff"/>
      </g>
      <g id="Group_1421" data-name="Group 1421" transform="translate(2.594 3.416)">
        <path id="Path_2743" data-name="Path 2743" d="M1164.492,401.427a.273.273,0,0,1-.041,0,.363.363,0,0,1-.295-.224l-1.768-4.391a.362.362,0,1,1,.671-.271l1.519,3.771,1.666-2.385a.362.362,0,0,1,.593.414l-2.048,2.932A.362.362,0,0,1,1164.492,401.427Z" transform="translate(-1162.362 -396.313)" fill="#fff"/>
      </g>
    </g>
    <g id="Group_1424" data-name="Group 1424" transform="translate(950.853 360.15)">
      <g id="Group_1423" data-name="Group 1423">
        <path id="Path_2744" data-name="Path 2744" d="M997.21,462.005l51.057,29.478-8.051-54.509L989.158,407.5Z" transform="translate(-963.304 -407.039)" fill="url(#linear-gradient-13)"/>
        <path id="Path_2745" data-name="Path 2745" d="M950.853,486.585l17.019-13.451-.142-50.556-8.93.3.007.026Z" transform="translate(-950.853 -411.942)" fill="url(#linear-gradient-14)"/>
        <path id="Path_2746" data-name="Path 2746" d="M976,468.231l16.887-6.226L984.835,407.5l-8.978,10.18Z" transform="translate(-958.981 -407.039)" fill="url(#linear-gradient-15)"/>
        <path id="Path_2747" data-name="Path 2747" d="M1026.5,530.258l17.019-13.451-.142-50.556-8.93.3Z" transform="translate(-975.441 -426.137)" fill="url(#linear-gradient-16)"/>
        <path id="Path_2748" data-name="Path 2748" d="M1051.644,511.9l16.887-6.226-8.051-54.509-8.978,10.18Z" transform="translate(-983.568 -421.235)" fill="url(#linear-gradient-17)"/>
        <path id="Path_2749" data-name="Path 2749" d="M1006.9,430.176l-13.16-7.6-3.111,1.8v11.52l3.111,1.8V426.17l13.16,7.6v11.52l3.111,1.8v-11.52Z" transform="translate(-963.783 -411.942)" fill="url(#linear-gradient-18)"/>
        <path id="Path_2750" data-name="Path 2750" d="M1029.087,414.417l-13.16-7.6-3.111,1.8v11.52l3.111,1.8v-11.52l13.16,7.6v11.52l3.111,1.8v-11.52Z" transform="translate(-970.994 -406.82)" fill="url(#linear-gradient-19)"/>
        <path id="Path_2751" data-name="Path 2751" d="M950.853,486.731l51.057,29.478,7.946-63.7L958.8,423.027Z" transform="translate(-950.853 -412.087)" fill="url(#linear-gradient-20)"/>
      </g>
    </g>
    <g id="Group_1425" data-name="Group 1425" transform="translate(1057.445 342.738)">
      <path id="Path_2752" data-name="Path 2752" d="M1115.236,407.021c-.9-.518-1.627-.1-1.627.939a3.6,3.6,0,0,0,1.627,2.818c.9.518,1.627.1,1.627-.94A3.6,3.6,0,0,0,1115.236,407.021Z" transform="translate(-1110.347 -389.401)" fill="#fff"/>
      <path id="Path_2753" data-name="Path 2753" d="M1125.363,412.868c-.9-.518-1.627-.1-1.627.939a3.6,3.6,0,0,0,1.627,2.818c.9.518,1.626.1,1.626-.94A3.6,3.6,0,0,0,1125.363,412.868Z" transform="translate(-1113.639 -391.301)" fill="#fff"/>
      <path id="Path_2754" data-name="Path 2754" d="M1128.023,387.491,1125.1,385.8c-.4-.234-.749-.093-.812.331l-.481,3.2-14.209-8.2a.554.554,0,0,0-.624-.029.7.7,0,0,0-.188.655l1.617,12.913a1.842,1.842,0,0,0,.813,1.272l11.644,6.723c.405.234.75.092.812-.334l.256-1.747h0l1.874-12.479,2.221,1.282c.454.262.821.05.821-.475A1.818,1.818,0,0,0,1128.023,387.491Zm-16.927.384,11.884,6.861-.3,2.067-11.278-6.512Zm12.421,3.192-.281,1.92-12.4-7.157-.281-2.244Zm-11.6,3.386-.265-2.117,10.766,6.216-.265,1.811Z" transform="translate(-1108.776 -381.022)" fill="#fff"/>
    </g>
    <g id="Group_1426" data-name="Group 1426" transform="translate(1043.124 375.197)" opacity="0.43">
      <path id="Path_2755" data-name="Path 2755" d="M1129.387,446.858l-23.765-13.721v-3.506l23.765,13.721Z" transform="translate(-1093.43 -429.281)" fill="#fff"/>
      <path id="Path_2756" data-name="Path 2756" d="M1135.708,458.665l-48.149-27.8v-1.753l48.149,27.8Z" transform="translate(-1087.558 -429.113)" fill="#fff"/>
      <path id="Path_2757" data-name="Path 2757" d="M1135.708,463.636l-48.149-27.8v-1.753l48.149,27.8Z" transform="translate(-1087.558 -430.729)" fill="#fff"/>
      <path id="Path_2758" data-name="Path 2758" d="M1135.708,468.606l-48.149-27.8v-1.753l48.149,27.8Z" transform="translate(-1087.558 -432.344)" fill="#fff"/>
      <path id="Path_2759" data-name="Path 2759" d="M1130.581,470.43l-28.371-16.38v-1.033l28.371,16.38Z" transform="translate(-1092.321 -436.883)" fill="#fff"/>
    </g>
    <g id="Group_1427" data-name="Group 1427" transform="translate(1055.573 403.014)" opacity="0.55">
      <path id="Path_2760" data-name="Path 2760" d="M1109.686,477.872a1.505,1.505,0,0,1-1.272-.151v.953l-.6-.35v-.945a7.035,7.035,0,0,1-1.031-.825,5.026,5.026,0,0,1-.774-.923l.332-.668a5.539,5.539,0,0,0,.663.813,5.3,5.3,0,0,0,.811.684v-1.7a10.64,10.64,0,0,1-.873-.824,3.588,3.588,0,0,1-.585-.848,2.26,2.26,0,0,1-.236-1.025.949.949,0,0,1,.435-.923,1.445,1.445,0,0,1,1.26.149v-.961l.6.348v.946a5.975,5.975,0,0,1,1.5,1.382l-.3.686a6.009,6.009,0,0,0-1.194-1.149v1.719a10.943,10.943,0,0,1,.881.823,3.586,3.586,0,0,1,.589.846,2.24,2.24,0,0,1,.24,1.029A.935.935,0,0,1,1109.686,477.872Zm-2.429-4.752a3.644,3.644,0,0,0,.552.609v-1.515a.7.7,0,0,0-.559-.051.4.4,0,0,0-.184.4A.988.988,0,0,0,1107.257,473.12Zm1.735,3.743a.37.37,0,0,0,.188-.377,1.009,1.009,0,0,0-.2-.578,3.64,3.64,0,0,0-.567-.622v1.507A.774.774,0,0,0,1108.993,476.863Z" transform="translate(-1106.004 -470.325)" fill="#fff"/>
      <path id="Path_2761" data-name="Path 2761" d="M1118.078,477.264v5.958l-.958-.553v-5.03l-1.09-.63v-.927Z" transform="translate(-1109.263 -472.196)" fill="#fff"/>
      <path id="Path_2762" data-name="Path 2762" d="M1121.848,485.538a5.087,5.087,0,0,1-.768-1.5,5.8,5.8,0,0,1-.279-1.809,3.244,3.244,0,0,1,.279-1.486,1.059,1.059,0,0,1,.768-.612,1.68,1.68,0,0,1,1.1.276,3.758,3.758,0,0,1,1.11,1,5.034,5.034,0,0,1,.769,1.5,5.75,5.75,0,0,1,.281,1.809,3.219,3.219,0,0,1-.281,1.486,1.05,1.05,0,0,1-.769.61,1.7,1.7,0,0,1-1.11-.279A3.712,3.712,0,0,1,1121.848,485.538Zm1.978.014a2.122,2.122,0,0,0,.321-1.389,4.283,4.283,0,0,0-.321-1.76,2.16,2.16,0,0,0-.874-1.032c-.364-.211-.651-.2-.866.028a2.129,2.129,0,0,0-.32,1.39,4.286,4.286,0,0,0,.32,1.758,2.157,2.157,0,0,0,.866,1.028Q1123.506,485.895,1123.826,485.552Z" transform="translate(-1110.814 -473.508)" fill="#fff"/>
      <path id="Path_2763" data-name="Path 2763" d="M1129.414,489.907a5.118,5.118,0,0,1-.766-1.5,5.774,5.774,0,0,1-.281-1.808,3.233,3.233,0,0,1,.281-1.486,1.059,1.059,0,0,1,.766-.612,1.686,1.686,0,0,1,1.106.276,3.785,3.785,0,0,1,1.11,1,5.1,5.1,0,0,1,.77,1.5,5.812,5.812,0,0,1,.279,1.809,3.248,3.248,0,0,1-.279,1.486,1.054,1.054,0,0,1-.77.61,1.694,1.694,0,0,1-1.11-.279A3.71,3.71,0,0,1,1129.414,489.907Zm1.98.014a2.126,2.126,0,0,0,.32-1.389,4.3,4.3,0,0,0-.32-1.76,2.179,2.179,0,0,0-.874-1.032q-.546-.315-.867.028a2.13,2.13,0,0,0-.32,1.39,4.287,4.287,0,0,0,.32,1.758,2.159,2.159,0,0,0,.867,1.029C1130.889,490.158,1131.179,490.15,1131.394,489.921Z" transform="translate(-1113.273 -474.929)" fill="#fff"/>
    </g>
    <g id="Group_1447" data-name="Group 1447" transform="translate(1088.131 433.648)">
      <path id="Path_2764" data-name="Path 2764" d="M1213.21,547.563l-54.544-31.487a1.875,1.875,0,0,0-1.891-.185l-1.341.768s58.656,74.553,58.179,74.83l1.365-.793a1.858,1.858,0,0,0,.774-1.7l.1-36.848A5.832,5.832,0,0,0,1213.21,547.563Z" transform="translate(-1154.628 -515.712)" fill="url(#linear-gradient-21)"/>
      <g id="Group_1446" data-name="Group 1446" transform="translate(0 0.755)">
        <path id="Path_2765" data-name="Path 2765" d="M1211.539,591.78,1156.7,560.119a5.894,5.894,0,0,1-2.462-4.7v-36.43c0-1.812,1.1-2.646,2.462-1.861l54.838,31.661a5.9,5.9,0,0,1,2.462,4.7v36.43C1214,591.732,1212.9,592.565,1211.539,591.78Z" transform="translate(-1154.24 -516.83)" fill="url(#linear-gradient-22)"/>
        <path id="Path_2766" data-name="Path 2766" d="M1185.8,584.6l-21.911-12.65v-1.668l21.911,12.65Z" transform="translate(-1157.377 -534.203)" fill="#f1f2f2" opacity="0.2"/>
        <path id="Path_2767" data-name="Path 2767" d="M1173.649,581.74l-9.756-5.633v-1.668l9.756,5.633Z" transform="translate(-1157.377 -535.556)" fill="#f1f2f2" opacity="0.2"/>
        <g id="Group_1428" data-name="Group 1428" transform="translate(6.341 30.387)">
          <path id="Path_2768" data-name="Path 2768" d="M1165.22,566.316l-.984-.568a1.334,1.334,0,0,1-.6-1.043v-2.423c0-.383.27-.54.6-.348l.984.568a1.334,1.334,0,0,1,.6,1.043v2.424C1165.823,566.352,1165.552,566.507,1165.22,566.316Zm-.984-4.04c-.169-.1-.306-.018-.306.176v2.424a.678.678,0,0,0,.306.53l.984.568c.169.1.306.018.306-.176v-2.424a.676.676,0,0,0-.306-.529Z" transform="translate(-1163.634 -561.851)" fill="#fff"/>
        </g>
        <g id="Group_1429" data-name="Group 1429" transform="translate(8.921 31.877)">
          <path id="Path_2769" data-name="Path 2769" d="M1169.044,568.523l-.985-.568a1.335,1.335,0,0,1-.6-1.044v-2.423c0-.383.271-.539.6-.348l.985.568a1.332,1.332,0,0,1,.6,1.043v2.424C1169.646,568.559,1169.376,568.715,1169.044,568.523Zm-.985-4.04c-.168-.1-.306-.018-.306.177v2.423a.678.678,0,0,0,.306.53l.985.568c.168.1.306.018.306-.177v-2.423a.678.678,0,0,0-.306-.53Z" transform="translate(-1167.457 -564.058)" fill="#fff"/>
        </g>
        <g id="Group_1430" data-name="Group 1430" transform="translate(11.501 33.367)">
          <path id="Path_2770" data-name="Path 2770" d="M1172.867,570.731l-.984-.568a1.334,1.334,0,0,1-.6-1.044V566.7c0-.383.271-.539.6-.348l.984.568a1.334,1.334,0,0,1,.6,1.043v2.423C1173.47,570.766,1173.2,570.922,1172.867,570.731Zm-.984-4.04c-.169-.1-.306-.018-.306.176v2.424a.676.676,0,0,0,.306.529l.984.568c.169.1.306.018.306-.176v-2.424a.678.678,0,0,0-.306-.53Z" transform="translate(-1171.28 -566.266)" fill="#fff"/>
        </g>
        <g id="Group_1431" data-name="Group 1431" transform="translate(14.082 34.857)">
          <path id="Path_2771" data-name="Path 2771" d="M1176.69,572.938l-.984-.568a1.334,1.334,0,0,1-.6-1.043V568.9c0-.383.27-.539.6-.348l.984.568a1.334,1.334,0,0,1,.6,1.043v2.424C1177.293,572.974,1177.022,573.13,1176.69,572.938Zm-.984-4.04c-.168-.1-.306-.018-.306.177V571.5a.678.678,0,0,0,.306.53l.984.568c.169.1.306.018.306-.177V570a.676.676,0,0,0-.306-.53Z" transform="translate(-1175.104 -568.474)" fill="#fff"/>
        </g>
        <g id="Group_1432" data-name="Group 1432" transform="translate(18.792 37.576)">
          <path id="Path_2772" data-name="Path 2772" d="M1183.668,576.967l-.984-.568a1.334,1.334,0,0,1-.6-1.044v-2.424c0-.383.271-.539.6-.348l.984.568a1.334,1.334,0,0,1,.6,1.043v2.423C1184.27,577,1184,577.158,1183.668,576.967Zm-.984-4.041c-.169-.1-.306-.018-.306.177v2.424a.676.676,0,0,0,.306.529l.984.568c.169.1.306.018.306-.177v-2.423a.678.678,0,0,0-.306-.53Z" transform="translate(-1182.081 -572.501)" fill="#fff"/>
        </g>
        <g id="Group_1433" data-name="Group 1433" transform="translate(21.372 39.065)">
          <path id="Path_2773" data-name="Path 2773" d="M1187.491,579.174l-.984-.568a1.334,1.334,0,0,1-.6-1.043v-2.423c0-.383.271-.54.6-.348l.984.568a1.334,1.334,0,0,1,.6,1.044v2.424C1188.094,579.21,1187.823,579.365,1187.491,579.174Zm-.984-4.04c-.169-.1-.306-.018-.306.176v2.424a.678.678,0,0,0,.306.53l.984.568c.169.1.306.018.306-.176v-2.424a.676.676,0,0,0-.306-.529Z" transform="translate(-1185.904 -574.709)" fill="#fff"/>
        </g>
        <g id="Group_1434" data-name="Group 1434" transform="translate(23.953 40.556)">
          <path id="Path_2774" data-name="Path 2774" d="M1191.314,581.381l-.983-.568a1.334,1.334,0,0,1-.6-1.044v-2.424c0-.383.27-.539.6-.348l.983.568a1.332,1.332,0,0,1,.6,1.044v2.423C1191.917,581.417,1191.647,581.573,1191.314,581.381Zm-.983-4.04c-.169-.1-.307-.018-.307.177v2.423a.675.675,0,0,0,.307.53l.983.568c.169.1.307.018.307-.177v-2.423a.676.676,0,0,0-.307-.53Z" transform="translate(-1189.728 -576.917)" fill="#fff"/>
        </g>
        <g id="Group_1435" data-name="Group 1435" transform="translate(26.533 42.045)">
          <path id="Path_2775" data-name="Path 2775" d="M1195.138,583.589l-.984-.568a1.335,1.335,0,0,1-.6-1.044v-2.424c0-.383.271-.539.6-.348l.984.568a1.333,1.333,0,0,1,.6,1.043v2.424C1195.74,583.624,1195.47,583.78,1195.138,583.589Zm-.984-4.04c-.169-.1-.307-.018-.307.176v2.424a.676.676,0,0,0,.307.529l.984.568c.169.1.306.018.306-.176v-2.424a.678.678,0,0,0-.306-.53Z" transform="translate(-1193.551 -579.123)" fill="#fff"/>
        </g>
        <g id="Group_1436" data-name="Group 1436" transform="translate(31.243 44.765)">
          <path id="Path_2776" data-name="Path 2776" d="M1202.115,587.617l-.984-.568a1.332,1.332,0,0,1-.6-1.044v-2.423c0-.383.27-.539.6-.348l.984.568a1.335,1.335,0,0,1,.6,1.044v2.424C1202.718,587.653,1202.447,587.809,1202.115,587.617Zm-.984-4.04c-.169-.1-.306-.018-.306.177v2.423a.676.676,0,0,0,.306.53l.984.568c.169.1.306.018.306-.177v-2.423a.676.676,0,0,0-.306-.53Z" transform="translate(-1200.529 -583.152)" fill="#fff"/>
        </g>
        <g id="Group_1437" data-name="Group 1437" transform="translate(33.824 46.254)">
          <path id="Path_2777" data-name="Path 2777" d="M1205.939,589.825l-.985-.568a1.333,1.333,0,0,1-.6-1.044v-2.424c0-.383.27-.539.6-.348l.985.568a1.334,1.334,0,0,1,.6,1.043v2.423C1206.541,589.86,1206.271,590.016,1205.939,589.825Zm-.985-4.04c-.168-.1-.306-.018-.306.176v2.424a.677.677,0,0,0,.306.529l.985.568c.168.1.306.018.306-.176v-2.424a.68.68,0,0,0-.306-.53Z" transform="translate(-1204.352 -585.359)" fill="#fff"/>
        </g>
        <g id="Group_1438" data-name="Group 1438" transform="translate(36.404 47.744)">
          <path id="Path_2778" data-name="Path 2778" d="M1209.762,592.032l-.984-.568a1.334,1.334,0,0,1-.6-1.043V588c0-.383.271-.54.6-.348l.984.568a1.333,1.333,0,0,1,.6,1.043v2.424C1210.364,592.068,1210.094,592.223,1209.762,592.032Zm-.984-4.04c-.169-.1-.306-.018-.306.176v2.424a.678.678,0,0,0,.306.53l.984.568c.169.1.306.018.306-.176v-2.424a.676.676,0,0,0-.306-.529Z" transform="translate(-1208.175 -587.567)" fill="#fff"/>
        </g>
        <g id="Group_1439" data-name="Group 1439" transform="translate(38.984 49.234)">
          <path id="Path_2779" data-name="Path 2779" d="M1213.585,594.239l-.984-.568a1.335,1.335,0,0,1-.6-1.043V590.2c0-.383.271-.539.6-.348l.984.568a1.334,1.334,0,0,1,.6,1.044v2.423C1214.188,594.275,1213.917,594.431,1213.585,594.239Zm-.984-4.04c-.169-.1-.306-.018-.306.177V592.8a.676.676,0,0,0,.306.53l.984.568c.169.1.306.018.306-.177V591.3a.677.677,0,0,0-.306-.53Z" transform="translate(-1211.998 -589.775)" fill="#fff"/>
        </g>
        <g id="Group_1440" data-name="Group 1440" transform="translate(43.694 51.953)">
          <path id="Path_2780" data-name="Path 2780" d="M1220.562,598.268l-.983-.568a1.332,1.332,0,0,1-.6-1.044v-2.424c0-.383.27-.539.6-.348l.983.568a1.332,1.332,0,0,1,.6,1.044v2.424C1221.165,598.3,1220.9,598.459,1220.562,598.268Zm-.983-4.04c-.169-.1-.307-.018-.307.176v2.424a.679.679,0,0,0,.307.53l.983.568c.169.1.306.018.306-.176v-2.424a.677.677,0,0,0-.306-.53Z" transform="translate(-1218.976 -593.802)" fill="#fff"/>
        </g>
        <g id="Group_1441" data-name="Group 1441" transform="translate(46.274 53.443)">
          <path id="Path_2781" data-name="Path 2781" d="M1224.386,600.475l-.984-.568a1.333,1.333,0,0,1-.6-1.044V596.44c0-.383.271-.539.6-.348l.984.568a1.333,1.333,0,0,1,.6,1.043v2.424C1224.989,600.511,1224.718,600.667,1224.386,600.475Zm-.984-4.04c-.169-.1-.306-.018-.306.177v2.423a.676.676,0,0,0,.306.53l.984.568c.169.1.306.018.306-.177v-2.423a.676.676,0,0,0-.306-.53Z" transform="translate(-1222.799 -596.01)" fill="#fff"/>
        </g>
        <g id="Group_1442" data-name="Group 1442" transform="translate(48.856 54.933)">
          <path id="Path_2782" data-name="Path 2782" d="M1228.209,602.683l-.984-.568a1.334,1.334,0,0,1-.6-1.043v-2.424c0-.383.27-.539.6-.348l.984.568a1.335,1.335,0,0,1,.6,1.043v2.423C1228.812,602.718,1228.541,602.874,1228.209,602.683Zm-.984-4.04c-.169-.1-.306-.018-.306.176v2.424a.676.676,0,0,0,.306.529l.984.568c.169.1.306.018.306-.176V599.74a.678.678,0,0,0-.306-.53Z" transform="translate(-1226.623 -598.217)" fill="#fff"/>
        </g>
        <g id="Group_1443" data-name="Group 1443" transform="translate(51.436 56.423)">
          <path id="Path_2783" data-name="Path 2783" d="M1232.033,604.89l-.984-.568a1.333,1.333,0,0,1-.6-1.044v-2.423c0-.383.27-.54.6-.348l.984.568a1.334,1.334,0,0,1,.6,1.044v2.424C1232.635,604.926,1232.365,605.082,1232.033,604.89Zm-.984-4.04c-.169-.1-.306-.018-.306.176v2.424a.679.679,0,0,0,.306.53l.984.568c.168.1.306.018.306-.176v-2.424a.678.678,0,0,0-.306-.529Z" transform="translate(-1230.446 -600.425)" fill="#fff"/>
        </g>
        <g id="Group_1444" data-name="Group 1444" transform="translate(6.318 18.86)">
          <path id="Path_2784" data-name="Path 2784" d="M1165.127,550.531a1.761,1.761,0,0,1,.236-.95l-1.763-1.018v2.172l1.763,1.018A3.6,3.6,0,0,1,1165.127,550.531Z" transform="translate(-1163.6 -546.005)" fill="#fff"/>
          <path id="Path_2785" data-name="Path 2785" d="M1173.416,552.53v-1.6a2.143,2.143,0,0,0-.969-1.679l-.347-.2v2.723Z" transform="translate(-1166.363 -546.162)" fill="#fff"/>
          <path id="Path_2786" data-name="Path 2786" d="M1164.979,545.141l-.41-.236c-.535-.309-.969-.059-.969.56v1.6l1.379.8Z" transform="translate(-1163.6 -544.773)" fill="#fff"/>
          <path id="Path_2787" data-name="Path 2787" d="M1163.6,552.173v1.6a2.143,2.143,0,0,0,.969,1.679l.409.236v-2.723Z" transform="translate(-1163.6 -547.178)" fill="#fff"/>
          <path id="Path_2788" data-name="Path 2788" d="M1166.287,548.413a1.278,1.278,0,0,1,1.619-.024,4.281,4.281,0,0,1,1.62,1.895l.352.2v-2.723l-3.88-2.24v2.723Z" transform="translate(-1164.379 -545.017)" fill="#fff"/>
          <path id="Path_2789" data-name="Path 2789" d="M1169.526,555.594a1.279,1.279,0,0,1-1.62.024,4.284,4.284,0,0,1-1.619-1.895l-.289-.167v2.723l3.879,2.24V555.8Z" transform="translate(-1164.379 -547.628)" fill="#fff"/>
          <path id="Path_2790" data-name="Path 2790" d="M1172.1,559.8l.346.2c.535.309.969.059.969-.56v-1.6l-1.316-.759Z" transform="translate(-1166.363 -548.773)" fill="#fff"/>
          <path id="Path_2791" data-name="Path 2791" d="M1171.439,553.089a3.621,3.621,0,0,1,.236,1.223,1.766,1.766,0,0,1-.236.95l1.762,1.018v-2.173Z" transform="translate(-1166.148 -547.476)" fill="#fff"/>
          <path id="Path_2792" data-name="Path 2792" d="M1169.471,552.03l-3-1.731a1.467,1.467,0,0,0-.273.928,3.307,3.307,0,0,0,.273,1.244l3,1.731a1.467,1.467,0,0,0,.273-.928A3.306,3.306,0,0,0,1169.471,552.03Z" transform="translate(-1164.445 -546.569)" fill="#fff"/>
          <path id="Path_2793" data-name="Path 2793" d="M1168.185,550.043a1.192,1.192,0,0,0-1.328-.071l2.657,1.534A3.692,3.692,0,0,0,1168.185,550.043Z" transform="translate(-1164.659 -546.408)" fill="#fff"/>
          <path id="Path_2794" data-name="Path 2794" d="M1168.185,555.516a1.192,1.192,0,0,0,1.328.071l-2.657-1.534A3.7,3.7,0,0,0,1168.185,555.516Z" transform="translate(-1164.659 -547.789)" fill="#fff"/>
        </g>
        <g id="Group_1445" data-name="Group 1445" transform="translate(31.321 23.909)">
          <path id="Path_2795" data-name="Path 2795" d="M1205.214,558.358a2.519,2.519,0,0,1,.256,1.1q0,.8-.538.918a2.448,2.448,0,0,1-1.567-.475l-2.72-1.571v-6.074l2.57,1.484a4.577,4.577,0,0,1,1.477,1.278,2.489,2.489,0,0,1,.515,1.451,1.1,1.1,0,0,1-.184.683.635.635,0,0,1-.515.25A3.214,3.214,0,0,1,1205.214,558.358Zm-3.359-4.347v1.432l1.21.7a1.1,1.1,0,0,0,.684.213c.155-.032.233-.167.233-.4a1.1,1.1,0,0,0-.233-.668,2.219,2.219,0,0,0-.684-.573Zm2.146,5.014q.244-.041.244-.423a1.58,1.58,0,0,0-.97-1.315l-1.42-.819v1.5l1.42.82A1.246,1.246,0,0,0,1204,559.025Z" transform="translate(-1200.645 -552.254)" fill="#fff"/>
          <path id="Path_2796" data-name="Path 2796" d="M1212.293,564.4l-2.442-1.41-.466,1.033-1.248-.72,2.345-4.72,1.2.694,2.352,7.432-1.278-.738Zm-.383-1.288-.834-2.807-.834,1.843Z" transform="translate(-1203.08 -554.312)" fill="#fff"/>
          <path id="Path_2797" data-name="Path 2797" d="M1222.515,564.881v6.074l-1-.577-2.623-5.2v3.688l-1.2-.695V562.1l1.007.581,2.615,5.2v-3.687Z" transform="translate(-1206.185 -555.453)" fill="#fff"/>
          <path id="Path_2798" data-name="Path 2798" d="M1228.6,572.083l-.706.443v1.536l-1.21-.7v-6.074l1.21.7v2.838l2.329-1.492,1.352.781-2.179,1.448,2.307,4.7-1.42-.82Z" transform="translate(-1209.109 -557.141)" fill="#fff"/>
        </g>
      </g>
    </g>
    <path id="Path_2799" data-name="Path 2799" d="M1196.385,412.5l-15.956-9.212v-1.38l15.956,9.212Z" transform="translate(-74.622 -45.073)" fill="#fff"/>
    <path id="Path_2800" data-name="Path 2800" d="M1206.305,421.932l-25.877-14.94v-1.38l25.877,14.94Z" transform="translate(-74.622 -46.277)" fill="#fff"/>
    <path id="Path_2801" data-name="Path 2801" d="M1206.305,425.638l-25.877-14.94v-1.38l25.877,14.94Z" transform="translate(-74.622 -47.482)" fill="#fff"/>
    <path id="Path_2802" data-name="Path 2802" d="M1206.305,429.345l-25.877-14.94v-1.38l25.877,14.94Z" transform="translate(-74.622 -48.686)" fill="#fff"/>
    <path id="Path_2803" data-name="Path 2803" d="M1214.04,457.5l-15.956-9.212v-1.38l15.956,9.212Z" transform="translate(-80.36 -59.701)" fill="#fff"/>
    <path id="Path_2804" data-name="Path 2804" d="M1223.96,466.936,1198.083,452v-1.38l25.877,14.94Z" transform="translate(-80.36 -60.905)" fill="#fff"/>
    <path id="Path_2805" data-name="Path 2805" d="M1223.96,470.643l-25.877-14.94v-1.38l25.877,14.94Z" transform="translate(-80.36 -62.11)" fill="#fff"/>
    <path id="Path_2806" data-name="Path 2806" d="M1223.96,474.349l-25.877-14.94v-1.38l25.877,14.94Z" transform="translate(-80.36 -63.315)" fill="#fff"/>
    <g id="Group_1448" data-name="Group 1448" transform="translate(1105.715 381.283)">
      <path id="Path_2807" data-name="Path 2807" d="M1183.1,439.658c0-1.365.958-1.918,2.141-1.236a4.732,4.732,0,0,1,2.14,3.708c0,1.365-.958,1.918-2.14,1.236A4.73,4.73,0,0,1,1183.1,439.658Z" transform="translate(-1181.204 -438.13)" fill="#f1f2f2"/>
      <path id="Path_2808" data-name="Path 2808" d="M1184.631,446.352l-.608-.351c-2.061-1.189-3.731.073-3.731,2.821h0l8.071,4.659h0C1188.363,450.734,1186.692,447.542,1184.631,446.352Z" transform="translate(-1180.292 -440.543)" fill="#f1f2f2"/>
    </g>
    <g id="Group_1449" data-name="Group 1449" transform="translate(1017.628 359.912)" opacity="0.4">
      <ellipse id="Ellipse_159" data-name="Ellipse 159" cx="5.042" cy="8.733" rx="5.042" ry="8.733" transform="translate(0 5.042) rotate(-30.002)" fill="#fff" opacity="0.65"/>
      <path id="Path_2809" data-name="Path 2809" d="M1064.057,421.294c0,1.639-1.151,2.3-2.571,1.484a5.683,5.683,0,0,1-2.57-4.453c0-1.639,1.151-2.3,2.57-1.484A5.682,5.682,0,0,1,1064.057,421.294Z" transform="translate(-1052.753 -409.725)" fill="#fff" opacity="0.65"/>
    </g>
    <g id="Group_1450" data-name="Group 1450" transform="translate(1128.258 426.632)" opacity="0.4">
      <ellipse id="Ellipse_160" data-name="Ellipse 160" cx="6.303" cy="10.917" rx="6.303" ry="10.917" transform="translate(0 6.303) rotate(-30.002)" fill="#fff" opacity="0.65"/>
      <path id="Path_2810" data-name="Path 2810" d="M1231.532,523.849c0,2.049-1.439,2.88-3.213,1.855a7.1,7.1,0,0,1-3.214-5.566c0-2.05,1.438-2.88,3.214-1.855A7.1,7.1,0,0,1,1231.532,523.849Z" transform="translate(-1217.402 -509.389)" fill="#fff" opacity="0.65"/>
    </g>
    <path id="Path_2811" data-name="Path 2811" d="M1218.766,335.165l-.428-.247a6.874,6.874,0,0,1-2.87-5.485V325.5c0-2.113,1.285-3.085,2.87-2.17l.428.248a6.874,6.874,0,0,1,2.871,5.484V333C1221.637,335.109,1220.352,336.081,1218.766,335.165Z" transform="translate(-86.011 -19.421)" fill="#fff" opacity="0.32"/>
    <path id="Path_2812" data-name="Path 2812" d="M1207.3,328.545l-.428-.247a6.874,6.874,0,0,1-2.871-5.485v-3.932c0-2.113,1.285-3.085,2.871-2.17l.428.248a6.873,6.873,0,0,1,2.871,5.484v3.932C1210.169,328.488,1208.884,329.46,1207.3,328.545Z" transform="translate(-82.283 -17.269)" fill="#fff" opacity="0.32"/>
    <path id="Path_2813" data-name="Path 2813" d="M1195.547,321.76l-.429-.247a6.875,6.875,0,0,1-2.87-5.484V312.1c0-2.114,1.285-3.085,2.87-2.17l.429.247a6.875,6.875,0,0,1,2.87,5.484v3.932C1198.417,321.7,1197.132,322.675,1195.547,321.76Z" transform="translate(-78.464 -15.063)" fill="#fff" opacity="0.32"/>
  </g>
</svg>
