<svg xmlns="http://www.w3.org/2000/svg" xmlns:xlink="http://www.w3.org/1999/xlink" width="269.562" height="249.545" viewBox="0 0 269.562 249.545">
  <defs>
    <linearGradient id="linear-gradient" x1="1.154" y1="1.182" x2="0.038" y2="0.018" gradientUnits="objectBoundingBox">
      <stop offset="0" stop-color="#00266d"/>
      <stop offset="1" stop-color="#e94457"/>
    </linearGradient>
    <linearGradient id="linear-gradient-2" x1="0.5" y1="0.654" x2="0.5" y2="-0.072" gradientUnits="objectBoundingBox">
      <stop offset="0" stop-color="#f49491"/>
      <stop offset="1" stop-color="#e94457"/>
    </linearGradient>
    <linearGradient id="linear-gradient-3" x1="0.5" y1="0.438" x2="0.5" y2="-0.103" gradientUnits="objectBoundingBox">
      <stop offset="0" stop-color="#001640"/>
      <stop offset="1" stop-color="#004799"/>
    </linearGradient>
    <linearGradient id="linear-gradient-4" x1="0.5" y1="0.658" x2="0.5" y2="-0.206" xlink:href="#linear-gradient-3"/>
    <linearGradient id="linear-gradient-5" x1="0.445" y1="0.5" x2="1.251" y2="0.5" xlink:href="#linear-gradient-2"/>
    <linearGradient id="linear-gradient-6" x1="0.617" y1="0.5" x2="-0.385" y2="0.5" xlink:href="#linear-gradient-2"/>
    <linearGradient id="linear-gradient-7" y1="0.5" x2="1" y2="0.5" gradientUnits="objectBoundingBox">
      <stop offset="0" stop-color="#fff"/>
      <stop offset="1" stop-color="#ea858a"/>
    </linearGradient>
    <linearGradient id="linear-gradient-8" x1="1.353" y1="0.5" x2="0.462" y2="0.5" gradientUnits="objectBoundingBox">
      <stop offset="0" stop-color="#00266d"/>
      <stop offset="1" stop-color="#e40043"/>
    </linearGradient>
    <linearGradient id="linear-gradient-9" x1="0.061" y1="0.494" x2="-0.165" y2="0.487" xlink:href="#linear-gradient-8"/>
    <linearGradient id="linear-gradient-10" x1="-0.083" y1="0.5" x2="1.779" y2="0.5" gradientUnits="objectBoundingBox">
      <stop offset="0" stop-color="#fff"/>
      <stop offset="1" stop-color="#e94256"/>
    </linearGradient>
    <linearGradient id="linear-gradient-11" x1="0.614" y1="0.708" x2="0.387" y2="0.266" xlink:href="#linear-gradient-2"/>
    <linearGradient id="linear-gradient-12" x1="0.5" y1="0.336" x2="0.5" y2="0.912" gradientUnits="objectBoundingBox">
      <stop offset="0" stop-color="#ffc100"/>
      <stop offset="1" stop-color="#ec4d40"/>
    </linearGradient>
    <linearGradient id="linear-gradient-13" x1="0.315" y1="0.5" x2="0.925" y2="0.5" xlink:href="#linear-gradient-12"/>
    <linearGradient id="linear-gradient-14" x1="0.5" y1="0.139" x2="0.5" y2="1.063" xlink:href="#linear-gradient-12"/>
    <linearGradient id="linear-gradient-15" x1="0.5" y1="0.33" x2="0.5" y2="-0.598" gradientUnits="objectBoundingBox">
      <stop offset="0" stop-color="#f26611"/>
      <stop offset="1" stop-color="#fda400"/>
    </linearGradient>
    <linearGradient id="linear-gradient-16" x1="0.567" y1="0.5" x2="-0.334" y2="0.5" xlink:href="#linear-gradient-12"/>
    <linearGradient id="linear-gradient-17" x1="0" y1="0.5" x2="1" y2="0.5" xlink:href="#linear-gradient-15"/>
    <linearGradient id="linear-gradient-18" x1="0.984" y1="0.776" x2="-0.069" y2="0.133" xlink:href="#linear-gradient-15"/>
    <linearGradient id="linear-gradient-19" x1="0.781" y1="0.5" x2="0.146" y2="0.5" xlink:href="#linear-gradient-15"/>
    <linearGradient id="linear-gradient-20" x1="0.499" y1="0.5" x2="1.097" y2="0.5" xlink:href="#linear-gradient-15"/>
    <linearGradient id="linear-gradient-21" x1="0.291" y1="0.5" x2="0.951" y2="0.5" xlink:href="#linear-gradient-12"/>
    <linearGradient id="linear-gradient-22" x1="0.5" y1="0.699" x2="0.5" y2="0.15" xlink:href="#linear-gradient-15"/>
    <linearGradient id="linear-gradient-23" x1="2" y1="0.5" x2="0.516" y2="0.5" xlink:href="#linear-gradient-8"/>
    <linearGradient id="linear-gradient-24" x1="0.046" y1="0.533" x2="-0.02" y2="0.548" xlink:href="#linear-gradient-8"/>
    <linearGradient id="linear-gradient-25" y1="0.5" x2="1" y2="0.5" gradientUnits="objectBoundingBox">
      <stop offset="0" stop-color="#0b1e54"/>
      <stop offset="1" stop-color="#001238"/>
    </linearGradient>
    <linearGradient id="linear-gradient-27" x1="0.5" y1="0.127" x2="0.5" y2="0.968" gradientUnits="objectBoundingBox">
      <stop offset="0" stop-color="#0062af"/>
      <stop offset="1" stop-color="#00395d"/>
    </linearGradient>
    <linearGradient id="linear-gradient-29" x1="0.179" y1="0.5" x2="0.821" y2="0.5" gradientUnits="objectBoundingBox">
      <stop offset="0" stop-color="#0062af"/>
      <stop offset="1" stop-color="#001238"/>
    </linearGradient>
    <linearGradient id="linear-gradient-30" x1="0.5" y1="0.333" x2="0.5" y2="0.942" xlink:href="#linear-gradient-27"/>
    <linearGradient id="linear-gradient-31" x1="0.5" y1="1.196" x2="0.5" y2="0.241" xlink:href="#linear-gradient-29"/>
    <linearGradient id="linear-gradient-32" x1="0.5" y1="1.304" x2="0.5" y2="0.124" xlink:href="#linear-gradient-29"/>
    <linearGradient id="linear-gradient-34" x1="0.2" y1="0.5" x2="0.874" y2="0.5" xlink:href="#linear-gradient-29"/>
    <linearGradient id="linear-gradient-35" x1="0.5" y1="0.071" x2="0.5" y2="1.058" xlink:href="#linear-gradient-29"/>
    <linearGradient id="linear-gradient-36" x1="0" y1="0.5" x2="1" y2="0.5" xlink:href="#linear-gradient-29"/>
    <linearGradient id="linear-gradient-38" x1="0.5" y1="0.822" x2="0.5" y2="-0.062" gradientUnits="objectBoundingBox">
      <stop offset="0" stop-color="#57c2d7"/>
      <stop offset="1" stop-color="#b2e2ed"/>
    </linearGradient>
    <linearGradient id="linear-gradient-39" x1="0.5" y1="0.822" x2="0.5" y2="-0.062" gradientUnits="objectBoundingBox">
      <stop offset="0" stop-color="#aadee8"/>
      <stop offset="1" stop-color="#d5eef5"/>
    </linearGradient>
    <linearGradient id="linear-gradient-41" x1="0.038" y1="0.287" x2="1.107" y2="0.597" xlink:href="#linear-gradient-10"/>
    <linearGradient id="linear-gradient-42" x1="0.837" y1="0.5" x2="0.163" y2="0.5" gradientUnits="objectBoundingBox">
      <stop offset="0" stop-color="#002967"/>
      <stop offset="1" stop-color="#004799"/>
    </linearGradient>
    <linearGradient id="linear-gradient-43" x1="-0.098" y1="0.5" x2="1.098" y2="0.5" gradientUnits="objectBoundingBox">
      <stop offset="0" stop-color="#fbd5d4"/>
      <stop offset="1" stop-color="#e94256"/>
    </linearGradient>
    <linearGradient id="linear-gradient-44" x1="0.5" y1="1.098" x2="0.5" y2="-0.098" xlink:href="#linear-gradient-43"/>
    <linearGradient id="linear-gradient-45" x1="-0.098" y1="0.5" x2="1.098" y2="0.5" xlink:href="#linear-gradient-43"/>
    <linearGradient id="linear-gradient-46" x1="0.5" y1="1.098" x2="0.5" y2="-0.098" gradientUnits="objectBoundingBox">
      <stop offset="0" stop-color="#fbd5d4"/>
      <stop offset="1" stop-color="#f07877"/>
    </linearGradient>
    <linearGradient id="linear-gradient-47" x1="-0.101" y1="0.5" x2="1.1" y2="0.5" gradientUnits="objectBoundingBox">
      <stop offset="0" stop-color="#fff"/>
      <stop offset="1" stop-color="#f49d9c"/>
    </linearGradient>
  </defs>
  <g id="Group_1948" data-name="Group 1948" transform="translate(-48.047 -57.296)">
    <path id="Path_4594" data-name="Path 4594" d="M1102.647,2864.911c0,1.908-12.287,3.455-27.444,3.455s-27.444-1.547-27.444-3.455,12.287-3.455,27.444-3.455S1102.647,2863,1102.647,2864.911Z" transform="translate(-913.211 -2561.525)" fill="#bfbebe" fill-rule="evenodd" opacity="0.27"/>
    <g id="Group_1937" data-name="Group 1937" transform="translate(48.047 169.606)">
      <path id="Path_4595" data-name="Path 4595" d="M77.5,1358.069a1.254,1.254,0,0,1-.828.127c-10.912-2.063-22.172,3.968-26.193,14.03a1.259,1.259,0,0,1-2.338-.934A25.406,25.406,0,0,1,59.82,1358.4a26.486,26.486,0,0,1,17.316-2.68,1.259,1.259,0,0,1,.361,2.347Z" transform="translate(-48.047 -1355.273)" fill="#b2b1b2" fill-rule="evenodd" opacity="0.5"/>
      <path id="Path_4596" data-name="Path 4596" d="M132.243,1421.782a1.253,1.253,0,0,1-.828.127,17.138,17.138,0,0,0-18.925,10.132,1.259,1.259,0,0,1-2.338-.934,19.023,19.023,0,0,1,8.715-9.642l.043-.023a19.846,19.846,0,0,1,12.974-2.007,1.259,1.259,0,0,1,.36,2.347Z" transform="translate(-104.695 -1413.576)" fill="#b2b1b2" fill-rule="evenodd" opacity="0.5"/>
      <path id="Path_4597" data-name="Path 4597" d="M194.768,1493.215a1.254,1.254,0,0,1-.828.127,9.9,9.9,0,0,0-10.93,5.844,1.259,1.259,0,0,1-2.338-.934,12.037,12.037,0,0,1,5.513-6.1l.027-.015a12.538,12.538,0,0,1,8.2-1.268,1.259,1.259,0,0,1,.36,2.347Z" transform="translate(-169.113 -1478.941)" fill="#b2b1b2" fill-rule="evenodd" opacity="0.5"/>
      <path id="Path_4598" data-name="Path 4598" d="M262.16,1558.712a2.993,2.993,0,1,1-4.052-1.223A2.993,2.993,0,0,1,262.16,1558.712Z" transform="translate(-238.49 -1539.667)" fill="#b2b1b2" fill-rule="evenodd" opacity="0.5"/>
    </g>
    <path id="Path_4599" data-name="Path 4599" d="M749.293,392.48v125.5a5.364,5.364,0,0,1-5.363,5.363H552.468a5.365,5.365,0,0,1-5.365-5.363V392.48a5.365,5.365,0,0,1,5.365-5.365H743.931A5.364,5.364,0,0,1,749.293,392.48Z" transform="translate(-455.875 -301.281)" fill="#001640" fill-rule="evenodd"/>
    <rect id="Rectangle_509" data-name="Rectangle 509" width="193.967" height="121.651" transform="translate(95.932 96.872)" fill="url(#linear-gradient)"/>
    <path id="Path_4600" data-name="Path 4600" d="M712.536,514.68c-2.8,2.107-7,4.094-13.247,5.654-25.126,6.28-34.864-.628-44.915,14.761s-24.184,22.616-43.345,8.481a26.8,26.8,0,0,0-9.57-4.255V514.68Z" transform="translate(-505.528 -417.808)" fill="#fff" fill-rule="evenodd" opacity="0.05"/>
    <path id="Path_4601" data-name="Path 4601" d="M795.427,514.68v1.459H603.281V636.331H601.46V514.68Z" transform="translate(-505.528 -417.808)" fill="#001640" fill-rule="evenodd" opacity="0.3"/>
    <path id="Path_4602" data-name="Path 4602" d="M795.427,659.2v92.856H601.46V688.949c6.167-2.082,13.519-2.492,22.134.19,33.293,10.365,19.158,27.956,38.319,26.385s-.888-34.533,26.469-43.575,37.2-1.466,51.444-19.893C751.481,636.971,784.707,636.56,795.427,659.2Z" transform="translate(-505.528 -533.534)" fill="#fff" fill-rule="evenodd" opacity="0.05"/>
    <path id="Path_4603" data-name="Path 4603" d="M795.427,866.256v90.881H601.46v-4.4c5.013-2.444,12.906-6.23,24.647-11.72,24.184-11.308,36.748,17.276,69.728,11.936s27.955-27.639,53.082-31.409,17.9-8.481,25.44-36.434C778.723,868.924,786.986,864.426,795.427,866.256Z" transform="translate(-505.528 -738.615)" fill="#fff" fill-rule="evenodd" opacity="0.05"/>
    <path id="Path_4604" data-name="Path 4604" d="M1127.721,554.308c-1.168,1.606-3.315,3.11-6.912,3.874-7.009,1.485-10.062,5.978-10.8,8.692.042.036.084.069.124.1-.4,1.206-.854,2.647-1.349,4.251-1.6,5.185-3.633,12.066-5.583,18.153-2.33,7.291-4.542,13.446-5.754,14.2-2.427,1.5-5.882.66-7.742-.367a3.447,3.447,0,0,1-1.2-.959c-.739-1.158-12.213-20.679-13.287-28.054l-.012-.1a6.8,6.8,0,0,1-.067-.9s-.017.159-.046.446c-.228,2.151-1.24,11.532-2.035,16.013,0,0,.094,7.66,1.566,11.046s7.07,13.182,7.07,13.182l-48.749-.22s5.744-11.93,4.638-16.348c-.963-3.855-3.776-8.441-3.792-16.857,0-.7.017-1.432.057-2.19,0-.059.008-.117.01-.174q.028-.5.071-1.018c0-.021,0-.031,0-.031s0-.017,0-.029c.013-.161.028-.325.042-.488-.117.852-3.9,28.06-8.1,31.685-4.27,3.683-8.246,2.061-9.869.442-.731-.733-4.389-8.579-8.173-16.953-2.176-4.814-4.393-9.8-6.121-13.708-1.562-3.528-2.724-6.182-3.1-7.04-.086-.195-.13-.3-.13-.3s.069-.212.22-.559c-2.509-2.088-3.415-2.157-6.7-2.785-3.491-.668-4.538.069-8.546-.484-3.65-.5-5.6-1.032-6.479-2.946s0-2.431,1.841-2.584,5.6-.14,6.776-.362c1.091-.2,2.72-.421,2.951-.452l.027,0a6.18,6.18,0,0,1-1.757-.163c-2.444-.62-2.328-2.72-.928-2.253.871.291,2.745.021,4.339.3,2.04.35,3.855,1.2,5.013,1.03,2.063-.293,4.565.735,6.332,1.987a6.325,6.325,0,0,1,2.247,3.449c.18-.075.362-.142.553-.207,0,0,.561.894,1.466,2.358.243.394.511.827.8,1.3,3.79,6.177,11.124,18.4,12.317,22.412,0,0,.186-1.614.52-4.217,1.009-7.874,3.359-24.8,5.956-33.532a20.7,20.7,0,0,1,1.661-4.263c2.142-3.646,3.057-1.692,4.632-.961.115.054.72.042.838.1,1.34.718,2.848-.132,5.023.3,4.326.867,5.947-.222,5.928-2.217a13.8,13.8,0,0,0,3.673.915,18.224,18.224,0,0,0,2.41.128,22.251,22.251,0,0,0,7.264-1.374,25.143,25.143,0,0,1,.513-3.8,31.661,31.661,0,0,1,1.973-6.131c.519-1.175,1.053-2.316,1.57-3.445q.283-.616.555-1.225a27.856,27.856,0,0,0,2.814-9.674c-2.291,8.135-8.693,9-8.693,9a76.906,76.906,0,0,0-.425,8.847c.006.293.015.588.027.878l.433-.249-.519,1.256-.071.174a42.7,42.7,0,0,1-10.123,1.989l.141-1.883a7.685,7.685,0,0,0-.124-1.4,3.372,3.372,0,0,0-.168-.605c-1.35.666-2.661-3.122-3.619-3.009-3.754.442-5.438,3.979-8.311-3.311a36.28,36.28,0,0,1-2.023-17.079c-.235-.5-1.6-3.757-.187-9.432a9.5,9.5,0,0,1,.337-1.072c2.1-5.568,9.205-9.078,16.895-8.868,1.1.029,5.633-2.766,7.442-3.116.725-1.566,3.1-5.367,8.906-4.837,7.29.662,12.814,7.953,12.814,17.674s9.94,15.243,12.813,23.416a21.684,21.684,0,0,1,.926,3.857c1.02,6.73-.1,16.539-6.988,21.828,3.105,9.683,8.3,26.236,9.706,31.312a109.693,109.693,0,0,1,8.845-23.432c.063-.128.128-.255.193-.383.172.05.362.109.565.176.657-2.672,2.465-9.285,4.481-10.382,2.54-1.38,6.628-1.767,8.891-4.307s3.038-1.548,2.762-.276a6.888,6.888,0,0,1-.731,1.912,2.7,2.7,0,0,1-1.2,1.236c-.069.025-.1.042-.1.05a53.107,53.107,0,0,0,6.837-1.926c2.486-.94,4.088-1.933,4.751.385A5.453,5.453,0,0,1,1127.721,554.308Z" transform="translate(-848.234 -393.932)" fill="#001640" fill-rule="evenodd" opacity="0.2"/>
    <path id="Path_4605" data-name="Path 4605" d="M1568.5,727.5c-.442,5.3-5.08,4.86-5.08,4.86-2.14,4.94-7.1,9.021-11.046,10.96a11.588,11.588,0,0,1-3.535,1.192c-3.755.442-5.522-.222-8.4-7.511a36.282,36.282,0,0,1-2.023-17.079c.01-.056.023-.107.036-.153.283-1.127.743-3.061,1.041-4.316.167-.714.285-1.206.285-1.206s2.429-3.757,5.522,5.3c3.011,8.818,15.031,7.375,15.661,7.294a.106.106,0,0,0,.025,0c.22,2.871,1.1,3.093,1.1,2.651s.442-1.326.884-3.315S1568.941,722.2,1568.5,727.5Z" transform="translate(-1361.154 -599.4)" fill-rule="evenodd" fill="url(#linear-gradient-2)"/>
    <path id="Path_4606" data-name="Path 4606" d="M1567.072,582.34a23.577,23.577,0,0,1-.8,6.418c-2.291,8.139-8.692,9.007-8.692,9.007.119-1.2.218-1.95.218-1.95s4.638.442,5.08-4.86-5.08-3.313-5.522-1.325-.884,2.873-.884,3.315-.884.22-1.1-2.651a20.917,20.917,0,0,1-10.12-1.317,9.936,9.936,0,0,1-5.566-5.972c-3.093-9.059-5.522-5.3-5.522-5.3-.059.249-.9,3.813-1.326,5.522-.012.046-.025.1-.036.153-.234-.5-1.6-3.757-.186-9.431a9.527,9.527,0,0,1,.337-1.072c2.1-5.568,9.206-9.078,16.895-8.868a16.823,16.823,0,0,1,3.694.523,18.254,18.254,0,0,1,7.138,3.663,17.68,17.68,0,0,1,6.11,10.69A20.447,20.447,0,0,1,1567.072,582.34Z" transform="translate(-1355.528 -462.856)" fill-rule="evenodd" fill="url(#linear-gradient-3)"/>
    <path id="Path_4607" data-name="Path 4607" d="M1790.039,539.427l-1.759,2.86a18.253,18.253,0,0,0-7.138-3.663l.331-.609,1.277-2.345a11.465,11.465,0,0,1,1.9.017,6.3,6.3,0,0,1,4.257,1.983c.124.134.239.274.35.421A6.911,6.911,0,0,1,1790.039,539.427Z" transform="translate(-1583.136 -436.953)" fill="#ffc100" fill-rule="evenodd"/>
    <path id="Path_4608" data-name="Path 4608" d="M1846.449,540.57a21.7,21.7,0,0,1-7.672,1.556c-.423.015-.834.021-1.236.019-6.416-1.391-13.584-5.017-14.311-12.795a24.375,24.375,0,0,1,.54-4.511,31.663,31.663,0,0,1,1.973-6.131c.519-1.175,1.053-2.316,1.571-3.445q.283-.616.555-1.225a27.852,27.852,0,0,0,2.814-9.674,23.632,23.632,0,0,0,.8-6.422,18.137,18.137,0,0,0-4.567-12.38c.178-2.314.919-3.723,1.032-5.072.22-2.651-1.885-.894-1.885-.894a5.617,5.617,0,0,0-1.541-1.424,6.916,6.916,0,0,0-3.066-.98l-.025-.048a8.407,8.407,0,0,1,9.168-5.491c7.289.662,12.813,7.953,12.813,17.674s9.94,15.242,12.813,23.416a21.645,21.645,0,0,1,.926,3.857C1858.337,524.4,1856.656,536.322,1846.449,540.57Z" transform="translate(-1619.944 -378.459)" fill-rule="evenodd" fill="url(#linear-gradient-4)"/>
    <path id="Path_4609" data-name="Path 4609" d="M942.513,1281.2a10.068,10.068,0,0,0-5.12,5.271c-2.509-2.088-3.415-2.157-6.7-2.785-3.491-.668-4.538.069-8.546-.484-3.65-.5-5.6-1.032-6.479-2.946s0-2.431,1.841-2.584,5.6-.14,6.776-.362c1.091-.2,2.72-.421,2.951-.452l.027,0a6.18,6.18,0,0,1-1.757-.163c-2.444-.62-2.329-2.72-.928-2.253.871.291,2.745.021,4.339.3,2.04.35,3.855,1.2,5.013,1.03,2.063-.293,4.565.735,6.332,1.987A6.325,6.325,0,0,1,942.513,1281.2Z" transform="translate(-792.237 -1111.768)" fill-rule="evenodd" fill="url(#linear-gradient-5)"/>
    <path id="Path_4610" data-name="Path 4610" d="M2424.029,1152.089c-1.169,1.606-3.315,3.11-6.912,3.874-7.292,1.545-8.948,1.732-9.526,4.4a8.793,8.793,0,0,0-4-3.323,10.825,10.825,0,0,0-2.058-.674s-.216-4.544,2.324-5.926,6.627-1.767,8.891-4.307,3.038-1.547,2.762-.276a6.881,6.881,0,0,1-.731,1.912,2.7,2.7,0,0,1-1.2,1.235c-.069.025-.1.042-.1.05a53.108,53.108,0,0,0,6.837-1.926c2.486-.94,4.087-1.933,4.751.385A5.453,5.453,0,0,1,2424.029,1152.089Z" transform="translate(-2149.846 -993.179)" fill-rule="evenodd" fill="url(#linear-gradient-6)"/>
    <path id="Path_4611" data-name="Path 4611" d="M1085.952,669.734a9.367,9.367,0,0,0-9.366-9.367h-14.6a9.367,9.367,0,0,0,0,18.735h14.6a9.309,9.309,0,0,0,3.513-.683l5.4,2.049-2.038-4.369a9.336,9.336,0,0,0,2.493-6.364Zm-25,1.535a1.776,1.776,0,1,1,1.776-1.776,1.777,1.777,0,0,1-1.776,1.776Zm7.628,0a1.776,1.776,0,1,1,1.776-1.776,1.777,1.777,0,0,1-1.776,1.776Zm7.628,0a1.776,1.776,0,1,1,1.776-1.776A1.776,1.776,0,0,1,1076.209,671.27Z" transform="translate(-917.654 -550.889)" fill-rule="evenodd" fill="url(#linear-gradient-7)"/>
    <g id="Group_1938" data-name="Group 1938" transform="translate(270.303 107.941)">
      <path id="Path_4612" data-name="Path 4612" d="M2675.167,698.88v30.594l-.919-.454-2.6,1.876-5,3.606-.161-9.329-8.728-4.324a4.24,4.24,0,0,1-1.918-5.683l8.4-16.962a4.241,4.241,0,0,1,5.685-1.918l1.715.85Z" transform="translate(-2652.051 -691.237)" fill="#080e17" fill-rule="evenodd" opacity="0.3"/>
      <path id="Path_4613" data-name="Path 4613" d="M2644.459,680.2l-8.928-4.423-7.6,5.483-.161-9.329-8.729-4.324a4.242,4.242,0,0,1-1.918-5.684l8.4-16.961a4.242,4.242,0,0,1,5.684-1.918l25.415,12.592a4.242,4.242,0,0,1,1.918,5.684l-8.4,16.962A4.242,4.242,0,0,1,2644.459,680.2Z" transform="translate(-2616.685 -642.604)" fill-rule="evenodd" fill="url(#linear-gradient-8)"/>
      <path id="Path_4614" data-name="Path 4614" d="M2786.121,763.383c-2.135.774-4.329,1.389-6.461,2.17-1.142.417-2.208,1.035-3.308,1.566-.135.065-.264.144-.39.213-.267-1.043-.446-2.085-.8-3.062-.635-1.744-1.373-3.451-2.078-5.17a11.376,11.376,0,0,1-1.25-5.684,5.918,5.918,0,0,1,3.527-5.194,5.445,5.445,0,0,1,7.3,3.5c.064.23.125.462.169.626a17.722,17.722,0,0,1,2.388-.628,5.4,5.4,0,0,1,5.682,7.073A7.338,7.338,0,0,1,2786.121,763.383Z" transform="translate(-2758.365 -738.697)" fill-rule="evenodd" opacity="0.3" fill="url(#linear-gradient-9)"/>
      <path id="Path_4615" data-name="Path 4615" d="M2774.02,752.492c-2.135.774-4.328,1.39-6.461,2.17-1.142.418-2.209,1.035-3.309,1.566-.135.065-.264.144-.39.213-.267-1.043-.446-2.085-.8-3.062-.635-1.744-1.373-3.451-2.078-5.17a11.379,11.379,0,0,1-1.25-5.684,5.918,5.918,0,0,1,3.527-5.194,5.445,5.445,0,0,1,7.3,3.5c.064.231.125.462.169.627a17.76,17.76,0,0,1,2.388-.628,5.4,5.4,0,0,1,5.682,7.073A7.337,7.337,0,0,1,2774.02,752.492Z" transform="translate(-2747.311 -728.748)" fill-rule="evenodd" fill="url(#linear-gradient-10)"/>
    </g>
    <path id="Path_4616" data-name="Path 4616" d="M1876.1,567.865a13.682,13.682,0,0,0-.542,4.339c-.132,6.435-4.607,13.594-6,7.911s-6.7-10.929-13.261-5.868a21.191,21.191,0,0,1-4.607,2.647c-6.806-.723-.906-14.391,2.216-26.152,2.029-7.643-6.215-11.5-5.363-17.013.739-4.779-.831-6.006-1.947-6.006s-3.12,1.713-3.12,1.713a5.617,5.617,0,0,1,1.541,1.424s2.1-1.757,1.885.894c-.113,1.349-.854,2.758-1.032,5.072a18.137,18.137,0,0,1,4.567,12.38,23.577,23.577,0,0,1-.8,6.418,27.848,27.848,0,0,1-2.814,9.679c-.176.389-.39.94-.555,1.225-.517,1.129-1.051,2.27-1.571,3.445a31.7,31.7,0,0,0-1.971,6.132c-.009.035-.016.071-.023.106s-.019.095-.028.142q-.053.263-.1.528l-.029.16q-.052.3-.1.6c0,.022-.007.044-.01.066q-.052.348-.094.7c0,.02,0,.04-.007.061q-.036.305-.064.611c-.005.054-.009.107-.014.161q-.022.268-.038.536c0,.054-.007.108-.01.162-.012.226-.021.452-.026.679.727,7.777,7.894,11.4,14.311,12.795.4,0,.812,0,1.236-.019a21.7,21.7,0,0,0,7.672-1.556C1875.6,587.586,1877.283,575.661,1876.1,567.865Z" transform="translate(-1638.889 -429.723)" fill="#060f1c" fill-rule="evenodd" opacity="0.5"/>
    <path id="Path_4617" data-name="Path 4617" d="M1713.135,943.411l.433-.249-.519,1.256-.071.174a42.693,42.693,0,0,1-10.123,1.989l.14-1.883a7.7,7.7,0,0,0-.123-1.4,3.38,3.38,0,0,0-.168-.605c3.943-1.939,8.906-6.02,11.046-10.96,0,0-.1.75-.218,1.95a76.922,76.922,0,0,0-.425,8.847C1713.115,942.827,1713.123,943.122,1713.135,943.411Z" transform="translate(-1511.486 -798.779)" fill-rule="evenodd" fill="url(#linear-gradient-11)"/>
    <path id="Path_4618" data-name="Path 4618" d="M572.117,642.605l-20.31,6.7-4.7,1.552V617.064l4.7-1.552,10.259-3.384a3.052,3.052,0,0,1,3.853,1.941l8.142,24.68A3.053,3.053,0,0,1,572.117,642.605Z" transform="translate(-455.875 -506.684)" fill="#080e17" fill-rule="evenodd" opacity="0.1"/>
    <path id="Path_4619" data-name="Path 4619" d="M1575.362,726.841c-11.549,2.341-17.167-3.686-18.283-7.731s-3.185-3.659-3.185-3.659c.167-.714.285-1.206.285-1.206s2.429-3.757,5.522,5.3C1562.712,728.365,1574.732,726.923,1575.362,726.841Z" transform="translate(-1375.551 -599.4)" fill="#d8001e" fill-rule="evenodd" opacity="0.3"/>
    <path id="Path_4620" data-name="Path 4620" d="M1830.366,859.859s.168-2.094,1.18-2.408,2.059-.209,1.885.384-.873.213-.907.892.353.328.927.451.155,1.24-.717,1.8-.7.07-1.326,0-.419.872-.663,1.047S1830.366,859.859,1830.366,859.859Z" transform="translate(-1628.101 -730.762)" fill="#d8001e" fill-rule="evenodd" opacity="0.3"/>
    <path id="Path_4621" data-name="Path 4621" d="M1713.135,943.411l.433-.249-.519,1.256c-.079-.031-.163-.069-.249-.111-4.016-1.962-9.926-1.005-9.926-1.005a3.559,3.559,0,0,0-.17-.605c3.943-1.939,8.906-6.02,11.046-10.96,0,0-.1.75-.218,1.95a76.922,76.922,0,0,0-.425,8.847C1713.115,942.827,1713.123,943.122,1713.135,943.411Z" transform="translate(-1511.486 -798.779)" fill="#d8001e" fill-rule="evenodd" opacity="0.3"/>
    <path id="Path_4622" data-name="Path 4622" d="M2375.316,1283.467c-.306.754-.764,4.048-1.428,3.277-.019-.017-.038-.033-.056-.048l-.176-.151c-.212-.178-.423-.348-.639-.513l-.184-.138c-.233-.176-.465-.341-.7-.5q-.1-.069-.195-.132-.361-.242-.718-.454c-.082-.05-.161-.1-.241-.142-.222-.132-.444-.255-.66-.373-.071-.038-.14-.075-.211-.111-.2-.1-.394-.2-.584-.293l-.216-.1c-.251-.119-.494-.228-.731-.329l-.27-.111c-.193-.08-.381-.153-.561-.222-.094-.035-.182-.067-.27-.1-.187-.069-.362-.13-.532-.186-.094-.031-.189-.061-.276-.088-.145-.046-.279-.086-.4-.124-1.07-.251.458-2.66,1.391-4.219a.655.655,0,0,1,.84-.258c.067.031.136.063.2.09a1.828,1.828,0,0,0,.293.107c.044.008.09.019.141.031.109.025.232.057.368.092.1.027.2.057.308.09.19.059.4.128.622.209.113.042.232.086.352.136.088.036.178.073.268.115.063.025.125.055.19.086q.314.141.641.32c.059.031.119.065.18.1.218.124.436.26.653.41.063.044.128.088.19.134a8.185,8.185,0,0,1,.664.534c.063.052.123.109.184.167a7.84,7.84,0,0,1,.586.611c.061.069.121.14.18.214a7.943,7.943,0,0,1,.471.66c.019.027.038.057.054.084a.2.2,0,0,0,.057.05.788.788,0,0,1,.077.061A.9.9,0,0,1,2375.316,1283.467Z" transform="translate(-2117.295 -1115.163)" fill-rule="evenodd" fill="url(#linear-gradient-12)"/>
    <path id="Path_4623" data-name="Path 4623" d="M1698.628,1062.619c-7.421,2.821-12.6,1.016-13.808.5,0-.04,0-.08,0-.121a3.667,3.667,0,0,0-.05-.509c-.015-.1-.033-.209-.057-.316-.379-1.77-.255-2.743.408-3.235a2.525,2.525,0,0,1,1.246-.41.455.455,0,0,1,0,.054l-.044,1.269,0,.031s.029,0,.088.008.142.015.251.023c.272.019.7.038,1.244.023.115,0,.237-.009.362-.015.36-.017.76-.048,1.194-.1.159-.019.32-.042.484-.067.27-.04.551-.088.842-.147l.034-.006c.184-.038.366-.08.557-.124s.346-.086.522-.136c.211-.057.423-.119.639-.186l.272-.09c.394-.132.8-.283,1.206-.457.126-.05.237-.1.354-.157.306-.138.611-.287.919-.454.086-.044.17-.09.258-.14q.484-.267.963-.58l0-.038,0-.1-.023-.773a2.221,2.221,0,0,1,1.543.358.886.886,0,0,1,.241.775c-.117,1.1-.521,1.166-.5,2.144a5.784,5.784,0,0,0,.1.911,6.338,6.338,0,0,0,.323,1.212A3.965,3.965,0,0,0,1698.628,1062.619Z" transform="translate(-1494.853 -912.607)" fill-rule="evenodd" fill="url(#linear-gradient-13)"/>
    <path id="Path_4624" data-name="Path 4624" d="M1279.469,1111.442c-.4,1.206-.854,2.647-1.349,4.251-1.6,5.185-3.633,12.066-5.583,18.153-2.331,7.292-4.542,13.446-5.755,14.2-2.427,1.5-5.882.66-7.742-.366a3.446,3.446,0,0,1-1.2-.959c-.739-1.158-12.213-20.679-13.287-28.054l-.013-.1a6.8,6.8,0,0,1-.067-.9s-.017.159-.046.446c-.229,2.151-1.24,11.532-2.036,16.013,0,0,.094,7.66,1.567,11.046s7.069,13.182,7.069,13.182l-48.749-.22s5.744-11.93,4.638-16.348c-.964-3.855-3.776-8.441-3.792-16.857,0-.7.017-1.432.057-2.19,0-.059.008-.117.01-.174.019-.333.042-.672.071-1.018,0-.021,0-.031,0-.031s0-.017,0-.029c.012-.161.027-.324.042-.488-.117.852-3.895,28.06-8.1,31.685-4.27,3.683-8.246,2.06-9.869.442-.731-.733-4.389-8.579-8.173-16.953-2.176-4.814-4.393-9.8-6.121-13.708-1.562-3.528-2.724-6.182-3.1-7.04-.086-.195-.13-.3-.13-.3s.069-.211.22-.559a10.069,10.069,0,0,1,5.12-5.271c.18-.075.362-.142.553-.207,0,0,.561.894,1.466,2.358.243.394.511.827.8,1.3,3.79,6.177,11.124,18.4,12.317,22.412,0,0,.187-1.615.519-4.217,1.009-7.874,3.359-24.8,5.955-33.532a20.68,20.68,0,0,1,1.661-4.264c2.142-3.646,3.556-3.895,5.13-3.164.115.055.231.113.348.176,1.34.718,2.839,2,5.015,2.435,4.326.867,5.947-.222,5.928-2.218a13.8,13.8,0,0,0,3.673.915,18.2,18.2,0,0,0,2.41.128,22.452,22.452,0,0,0,7.725-1.543c.672.957,1.9,1.667,4.2,1.656.3,0,.618-.017.955-.042,2.519-.2,4.538-1.725,6.447-3.089,1.608-1.145,3.137-2.18,4.819-2.213,2.712-.054,4.705.731,6.6,4.3a31.99,31.99,0,0,1,2.019,4.982c2.576,7.88,9.461,29.712,11.117,35.678a109.7,109.7,0,0,1,8.845-23.432c.063-.128.128-.255.193-.383A20.723,20.723,0,0,1,1279.469,1111.442Z" transform="translate(-1022.876 -939.861)" fill-rule="evenodd" fill="url(#linear-gradient-14)"/>
    <path id="Path_4625" data-name="Path 4625" d="M1590.1,703.091a23.577,23.577,0,0,1-.8,6.418c-2.291,8.139-8.692,9.007-8.692,9.007.119-1.2.218-1.95.218-1.95s4.638.442,5.08-4.86-5.08-3.313-5.522-1.325-.884,2.873-.884,3.315-.884.22-1.1-2.651a20.917,20.917,0,0,1-10.12-1.317,9.936,9.936,0,0,1-5.566-5.972c-3.093-9.059-5.522-5.3-5.522-5.3.555-3.432,5.063-2.71,8.451.432s10.851,7.538,17.762,7.329c6.835-.207,6.425-6.441,6.414-6.58A20.407,20.407,0,0,1,1590.1,703.091Z" transform="translate(-1378.557 -583.607)" fill="#060f1c" fill-rule="evenodd" opacity="0.6"/>
    <path id="Path_4626" data-name="Path 4626" d="M1790.039,560.87l-1.759,2.86a18.254,18.254,0,0,0-7.138-3.663l.331-.609c1.261.477,5.786,1.977,7.438-.345.124.134.239.274.35.421A6.911,6.911,0,0,1,1790.039,560.87Z" transform="translate(-1583.136 -458.396)" fill="#f6760d" fill-rule="evenodd"/>
    <path id="Path_4627" data-name="Path 4627" d="M2376.2,1279.983l-.01.027c-.638-.266-1.388,1.451-1.836,2.477-.132.3-.245.561-.343.75a1.187,1.187,0,0,0,.008,1.206c-.094-.031-.189-.061-.276-.088a1.407,1.407,0,0,1,.084-1.215c.094-.182.205-.44.335-.737.427-.98.984-2.247,1.606-2.559a1.84,1.84,0,0,0,.293.107C2376.1,1279.96,2376.151,1279.971,2376.2,1279.983Z" transform="translate(-2124.37 -1116.766)" fill="#fff" fill-rule="evenodd"/>
    <path id="Path_4628" data-name="Path 4628" d="M2385.413,1282.6c-.614.126-1.307,1.659-1.742,2.617-.122.264-.224.494-.312.664a1.361,1.361,0,0,0,0,1.281c-.092-.035-.18-.067-.268-.1a1.547,1.547,0,0,1,.086-1.28c.086-.166.188-.391.308-.656a7.028,7.028,0,0,1,1.625-2.62C2385.2,1282.535,2385.3,1282.564,2385.413,1282.6Z" transform="translate(-2132.906 -1119.198)" fill="#fff" fill-rule="evenodd"/>
    <path id="Path_4629" data-name="Path 4629" d="M2395.3,1286.1c-.641-.088-1.407,1.6-1.872,2.622-.12.266-.224.494-.312.664a1.347,1.347,0,0,0-.015,1.265l-.27-.111a1.557,1.557,0,0,1,.1-1.248c.086-.167.188-.394.308-.657.463-1.02,1.062-2.337,1.711-2.67C2395.06,1286.01,2395.179,1286.054,2395.3,1286.1Z" transform="translate(-2141.817 -1122.359)" fill="#fff" fill-rule="evenodd"/>
    <path id="Path_4630" data-name="Path 4630" d="M2457.072,1326.506c-.128,1.02-.515,3.606-1.269,4.188a.724.724,0,0,1-.073.05l-.176-.151a.361.361,0,0,0,.121-.065c.727-.561,1.108-3.375,1.208-4.217.019.027.038.057.054.084a.2.2,0,0,0,.057.05A.78.78,0,0,1,2457.072,1326.506Z" transform="translate(-2199.193 -1159.211)" fill="#fff" fill-rule="evenodd"/>
    <path id="Path_4631" data-name="Path 4631" d="M2447.723,1316.432c-.143.951-.635,3.79-1.445,4.4a.286.286,0,0,1-.052.034c-.061-.046-.122-.092-.185-.138a.4.4,0,0,0,.111-.063c.8-.6,1.3-3.784,1.391-4.441C2447.6,1316.288,2447.665,1316.359,2447.723,1316.432Z" transform="translate(-2190.504 -1149.992)" fill="#fff" fill-rule="evenodd"/>
    <path id="Path_4632" data-name="Path 4632" d="M2437.518,1307.385c-.187,1.078-.76,4-1.583,4.6a.277.277,0,0,1-.031.021q-.1-.069-.195-.132a.511.511,0,0,0,.1-.059c.785-.576,1.365-3.671,1.522-4.594C2437.4,1307.269,2437.457,1307.326,2437.518,1307.385Z" transform="translate(-2181.065 -1141.769)" fill="#fff" fill-rule="evenodd"/>
    <path id="Path_4633" data-name="Path 4633" d="M2235.655,1637.027c-2.331,7.292-4.542,13.446-5.754,14.2-2.427,1.5-5.882.66-7.742-.366a9.425,9.425,0,0,1,4.169-1.342c2.618,0,3.979-2.408,4.711-5.34s.209-6.073,4.5-7.12Z" transform="translate(-1985.993 -1443.042)" fill-rule="evenodd" fill="url(#linear-gradient-15)"/>
    <path id="Path_4634" data-name="Path 4634" d="M2426.544,1299.631c-.17,1-.752,4.06-1.6,4.678a.853.853,0,0,1-.082.054c-.082-.05-.161-.1-.241-.142a.371.371,0,0,0,.2-.08c.8-.586,1.384-3.786,1.529-4.645C2426.417,1299.541,2426.481,1299.585,2426.544,1299.631Z" transform="translate(-2170.94 -1134.717)" fill="#fff" fill-rule="evenodd"/>
    <path id="Path_4635" data-name="Path 4635" d="M2414.767,1298.432c-.071-.038-.14-.075-.211-.111.006-1.282,1.477-4.192,1.768-4.754.059.031.119.065.18.1C2415.919,1294.794,2414.669,1297.466,2414.767,1298.432Z" transform="translate(-2161.743 -1129.3)" fill="#fff" fill-rule="evenodd"/>
    <path id="Path_4636" data-name="Path 4636" d="M2405.516,1293.738l-.216-.1c-.046-1.21,1.384-4.079,1.736-4.764.063.025.125.055.19.086C2406.626,1290.124,2405.363,1292.829,2405.516,1293.738Z" transform="translate(-2153.287 -1125.011)" fill="#fff" fill-rule="evenodd"/>
    <path id="Path_4637" data-name="Path 4637" d="M1702.19,1056.72c-.193.484-.8,1.15-2.4,2.209-3.344,2.218-9.4,1.48-10.271.993-.811-.452-.31-.917-.23-.984a2.526,2.526,0,0,1,1.246-.41.484.484,0,0,1,0,.054l-.044,1.269,0,.031s.029,0,.088.008.142.015.251.023c.272.019.7.038,1.244.023.115,0,.237-.009.362-.015.36-.017.76-.048,1.194-.1.159-.019.32-.042.484-.067.27-.04.551-.088.842-.147l.034-.006c.184-.038.366-.08.557-.124s.345-.086.521-.136c.211-.057.423-.119.639-.186l.272-.09c.394-.132.8-.283,1.206-.457.126-.05.237-.1.354-.157.305-.138.611-.287.919-.454.086-.044.17-.09.258-.14q.484-.267.963-.58l0-.038,0-.1-.023-.773A2.221,2.221,0,0,1,1702.19,1056.72Z" transform="translate(-1499.024 -912.607)" fill-rule="evenodd" fill="url(#linear-gradient-16)"/>
    <path id="Path_4638" data-name="Path 4638" d="M1702.759,1097.363c-.111.036-.593.972-.268,3.22a5.2,5.2,0,0,1,.058.857c-.071,0-.14-.006-.209-.01a5.226,5.226,0,0,0-.056-.815c-.262-1.815-.027-2.946.266-3.319.057.006.143.015.251.023Z" transform="translate(-1510.997 -950.012)" fill="#fff" fill-rule="evenodd"/>
    <path id="Path_4639" data-name="Path 4639" d="M1718.956,1100.9a3.961,3.961,0,0,1,.147.938c-.071,0-.14,0-.207,0a3.743,3.743,0,0,0-.142-.882,4.163,4.163,0,0,1,.019-3.089.913.913,0,0,1,.17-.195c.115,0,.236-.008.362-.015l.008.063a.543.543,0,0,0-.366.264C1718.78,1098.235,1718.449,1099.018,1718.956,1100.9Z" transform="translate(-1525.894 -950.344)" fill="#fff" fill-rule="evenodd"/>
    <path id="Path_4640" data-name="Path 4640" d="M1738.212,1095.989c-.165.249-.5,1.032.01,2.917a3.694,3.694,0,0,1,.142,1.181c-.071,0-.14,0-.209,0a3.38,3.38,0,0,0-.134-1.129,4.156,4.156,0,0,1,.017-3.089c.019-.029.04-.057.059-.082.159-.019.32-.042.484-.067A.554.554,0,0,0,1738.212,1095.989Z" transform="translate(-1543.494 -948.575)" fill="#fff" fill-rule="evenodd"/>
    <path id="Path_4641" data-name="Path 4641" d="M1824.813,1070.042a7.523,7.523,0,0,1-.716-3.487.86.86,0,0,0-.216-.706,1.024,1.024,0,0,0-.733-.226l-.006-.067,0-.038-.01-.1a1.231,1.231,0,0,1,.9.285,1.058,1.058,0,0,1,.281.869,6.735,6.735,0,0,0,.088,1.351,5.77,5.77,0,0,0,.1.911A6.334,6.334,0,0,0,1824.813,1070.042Z" transform="translate(-1621.491 -920.886)" fill="#fff" fill-rule="evenodd"/>
    <path id="Path_4642" data-name="Path 4642" d="M1811.195,1078.9l-.157.136a10.28,10.28,0,0,1-.917-4.106.858.858,0,0,0-.218-.7,1.035,1.035,0,0,0-.731-.228l-.006-.061c.086-.044.17-.09.258-.14a1.11,1.11,0,0,1,.626.279,1.056,1.056,0,0,1,.281.867A10.535,10.535,0,0,0,1811.195,1078.9Z" transform="translate(-1608.735 -928.546)" fill="#fff" fill-rule="evenodd"/>
    <path id="Path_4643" data-name="Path 4643" d="M1796.458,1085.727l-.157.136a10.267,10.267,0,0,1-.917-4.1.874.874,0,0,0-.216-.706.954.954,0,0,0-.618-.226c.117-.05.228-.1.346-.157a.969.969,0,0,1,.417.233,1.058,1.058,0,0,1,.281.869A10.519,10.519,0,0,0,1796.458,1085.727Z" transform="translate(-1595.384 -934.825)" fill="#fff" fill-rule="evenodd"/>
    <path id="Path_4644" data-name="Path 4644" d="M1779.2,1092.448c-.069.012-.141.025-.212.033a11.48,11.48,0,0,1-.664-3.587.866.866,0,0,0-.216-.7,1.039,1.039,0,0,0-.733-.228l-.01-.111.272-.09a1.085,1.085,0,0,1,.616.276,1.068,1.068,0,0,1,.281.869A11.6,11.6,0,0,0,1779.2,1092.448Z" transform="translate(-1579.687 -941.303)" fill="#fff" fill-rule="evenodd"/>
    <path id="Path_4645" data-name="Path 4645" d="M1765.823,1095.531c-.071.008-.142.017-.214.023a11.521,11.521,0,0,1-.645-3.531.858.858,0,0,0-.216-.7,1.023,1.023,0,0,0-.718-.228c.17-.042.339-.086.515-.136a.978.978,0,0,1,.347.211,1.061,1.061,0,0,1,.281.869A11.54,11.54,0,0,0,1765.823,1095.531Z" transform="translate(-1567.505 -944.221)" fill="#fff" fill-rule="evenodd"/>
    <path id="Path_4646" data-name="Path 4646" d="M1756.457,1098.276l-.212.012a10.272,10.272,0,0,1-.371-2.756,2.494,2.494,0,0,0-.362-1.594l.165-.128a2.64,2.64,0,0,1,.406,1.736A9.953,9.953,0,0,0,1756.457,1098.276Z" transform="translate(-1559.725 -946.829)" fill="#fff" fill-rule="evenodd"/>
    <path id="Path_4647" data-name="Path 4647" d="M1688.768,1090.08l-.008.209a.406.406,0,0,0-.31.13,3.216,3.216,0,0,0-.523,2.092,3.55,3.55,0,0,1-.272,1.3,3.684,3.684,0,0,0-.05-.509,2.975,2.975,0,0,0,.113-.792,3.36,3.36,0,0,1,.586-2.245A.618.618,0,0,1,1688.768,1090.08Z" transform="translate(-1497.692 -943.42)" fill="#fff" fill-rule="evenodd"/>
    <path id="Path_4648" data-name="Path 4648" d="M1566.115,1409.064s5.744-11.93,4.638-16.348c-.963-3.855-3.776-8.441-3.792-16.857,0-.7.017-1.432.056-2.19,0-.059.009-.117.011-.174.04-.563.065-.917.071-1.018,0-.021,0-.031,0-.031s0-.017,0-.029c.065-.674.8-6.5,1.313-8.971.524-2.513.733,5.064,1.047,9,.209,2.622-.419,4.349,2.687,7.647,4.274,4.539,5.2,6.979,4.209,10.889s-3.929,8.376-3.929,11.448-.528,5.342,6.087,3.3,6.9-5.392,14.294-5.114,9.911-6.142,10.192-8.795-1.956-5.723-2.094-10.192,6.594-11.534,5.321-18.679c-1.133-6.362,1.451,3.788,2.033,6.094-.228,2.151-1.24,11.532-2.036,16.013,0,0,.094,7.66,1.566,11.046s7.069,13.182,7.069,13.182Z" transform="translate(-1386.715 -1190.792)" fill="#f26611" fill-rule="evenodd"/>
    <rect id="Rectangle_510" data-name="Rectangle 510" width="193.951" height="1.274" transform="translate(95.957 207.859)" fill="#fff"/>
    <rect id="Rectangle_511" data-name="Rectangle 511" width="133.567" height="1.274" transform="translate(95.94 207.859)" fill="#e61c4a"/>
    <rect id="Rectangle_512" data-name="Rectangle 512" width="193.952" height="9.408" transform="translate(95.922 209.124)" fill="#040505" opacity="0.5"/>
    <g id="Group_1939" data-name="Group 1939" transform="translate(267.011 211.662)">
      <path id="Path_4649" data-name="Path 4649" d="M2581.408,1843.385c0,1.389-.515,2.156-1.42,2.156-.8,0-1.339-.748-1.351-2.1,0-1.37.591-2.124,1.42-2.124.861,0,1.351.767,1.351,2.068Zm-2.219.063c0,1.062.327,1.665.83,1.665.566,0,.836-.66.836-1.7,0-1.006-.258-1.666-.83-1.666C2579.542,1841.745,2579.19,1842.336,2579.19,1843.448Z" transform="translate(-2578.637 -1841.318)" fill="#fff" fill-rule="evenodd"/>
      <path id="Path_4650" data-name="Path 4650" d="M2616.553,1845.472v-.339l.434-.421c1.043-.993,1.515-1.521,1.521-2.137a.729.729,0,0,0-.811-.8,1.391,1.391,0,0,0-.867.346l-.176-.39a1.794,1.794,0,0,1,1.156-.415,1.149,1.149,0,0,1,1.251,1.188c0,.754-.547,1.364-1.408,2.194l-.327.3c0,.012,1.835.012,1.835.012v.459Z" transform="translate(-2613.272 -1841.318)" fill="#fff" fill-rule="evenodd"/>
      <path id="Path_4651" data-name="Path 4651" d="M2654.322,1855.8a.375.375,0,1,1,.748,0,.374.374,0,1,1-.748,0Zm0,2.219a.375.375,0,1,1,.748,0,.374.374,0,1,1-.748,0Z" transform="translate(-2647.773 -1854.19)" fill="#fff" fill-rule="evenodd"/>
      <path id="Path_4652" data-name="Path 4652" d="M2668.783,1844.837a1.85,1.85,0,0,0,.905.258c.71,0,.93-.453.924-.792-.006-.572-.521-.817-1.056-.817h-.308v-.415h.308c.4,0,.911-.208.911-.691,0-.327-.208-.616-.717-.616a1.5,1.5,0,0,0-.817.27l-.145-.4a1.941,1.941,0,0,1,1.068-.314c.8,0,1.169.477,1.169.974a1.015,1.015,0,0,1-.754.962,1.087,1.087,0,0,1,.911,1.062c0,.654-.509,1.226-1.489,1.226a2.078,2.078,0,0,1-1.062-.276Z" transform="translate(-2660.845 -1841.318)" fill="#fff" fill-rule="evenodd"/>
      <path id="Path_4653" data-name="Path 4653" d="M2706.111,1845.472v-.339l.434-.421c1.043-.993,1.515-1.521,1.521-2.137a.729.729,0,0,0-.811-.8,1.39,1.39,0,0,0-.868.346l-.176-.39a1.792,1.792,0,0,1,1.156-.415,1.149,1.149,0,0,1,1.251,1.188c0,.754-.547,1.364-1.408,2.194l-.327.3c0,.012,1.835.012,1.835.012v.459Z" transform="translate(-2695.081 -1841.318)" fill="#fff" fill-rule="evenodd"/>
    </g>
    <g id="Group_1940" data-name="Group 1940" transform="translate(111.051 211.498)">
      <rect id="Rectangle_513" data-name="Rectangle 513" width="1.979" height="4.947" transform="translate(11.956)" fill="#fff"/>
      <rect id="Rectangle_514" data-name="Rectangle 514" width="1.979" height="4.947" transform="translate(14.835)" fill="#fff"/>
      <rect id="Rectangle_515" data-name="Rectangle 515" width="0.989" height="4.947" transform="translate(22.72)" fill="#fff"/>
      <path id="Path_4654" data-name="Path 4654" d="M1057.487,1844.37v-4.947l4.348,2.474Z" transform="translate(-1033.147 -1839.422)" fill="#fff" fill-rule="evenodd"/>
      <rect id="Rectangle_516" data-name="Rectangle 516" width="0.989" height="4.947" transform="translate(4.977)" fill="#fff"/>
      <path id="Path_4655" data-name="Path 4655" d="M780.541,1844.37v-4.947l-4.348,2.474Z" transform="translate(-776.194 -1839.422)" fill="#fff" fill-rule="evenodd"/>
    </g>
    <path id="Path_4656" data-name="Path 4656" d="M1562.128,1133.594c-1.623-.785-4.178-3.426-4.387-3.531,1.432.664,3,2.138,5.363,2.611,4.326.867,5.947-.222,5.928-2.218C1571.051,1135.714,1563.751,1134.38,1562.128,1133.594Z" transform="translate(-1379.065 -979.945)" fill-rule="evenodd" fill="url(#linear-gradient-17)"/>
    <path id="Path_4657" data-name="Path 4657" d="M2375.714,1334.662c-.4,1.206-.854,2.647-1.348,4.251-1.16-4.073-5.547-7.335-6.469-7.982.063-.128.128-.255.193-.383A20.721,20.721,0,0,1,2375.714,1334.662Z" transform="translate(-2119.121 -1163.081)" fill-rule="evenodd" fill="url(#linear-gradient-18)"/>
    <path id="Path_4658" data-name="Path 4658" d="M1768.208,1130.487c-3.457,1.78-12.139.008-12.139.008l.214-.121a22.448,22.448,0,0,0,7.725-1.543C1764.679,1129.788,1765.9,1130.5,1768.208,1130.487Z" transform="translate(-1560.232 -978.818)" fill-rule="evenodd" fill="url(#linear-gradient-19)"/>
    <path id="Path_4659" data-name="Path 4659" d="M667.275,422.173a2.548,2.548,0,1,1-2.548-2.548A2.548,2.548,0,0,1,667.275,422.173Z" transform="translate(-560.994 -330.978)" fill="#ffc100" fill-rule="evenodd"/>
    <path id="Path_4660" data-name="Path 4660" d="M751.979,422.173a2.548,2.548,0,1,1-2.548-2.548A2.548,2.548,0,0,1,751.979,422.173Z" transform="translate(-638.369 -330.978)" fill="#fff" fill-rule="evenodd"/>
    <path id="Path_4661" data-name="Path 4661" d="M836.683,422.173a2.548,2.548,0,1,1-2.548-2.548A2.548,2.548,0,0,1,836.683,422.173Z" transform="translate(-715.744 -330.978)" fill="#e61c4a" fill-rule="evenodd"/>
    <path id="Path_4662" data-name="Path 4662" d="M1177.34,1379.449l-.027.031s-4.58,6.033-4.9,9.687c-1.562-3.528-2.724-6.182-3.1-7.04l7.229-3.977C1176.786,1378.545,1177.053,1378.978,1177.34,1379.449Z" transform="translate(-1024.248 -1206.566)" fill-rule="evenodd" fill="url(#linear-gradient-20)"/>
    <path id="Path_4663" data-name="Path 4663" d="M1173.872,1353.736q-.072.028-.145.063c-.065.025-.13.055-.195.084-.176.082-.348.168-.515.262q-.094.05-.188.107c-.149.084-.293.172-.435.268-.063.038-.126.08-.186.124q-.411.28-.787.594c-.054.044-.109.09-.161.138a12.539,12.539,0,0,0-.932.89q-.079.082-.151.163-.408.446-.76.9c-.046.059-.092.117-.134.174-.146.191-.285.381-.415.565l-.124.18c-.136.2-.262.392-.375.576-.044.065-.082.128-.119.189-.186.3-.343.58-.473.821-.038.067-.073.132-.1.195l-.073.141c-.115.2-.5.023-.568-.115a18.618,18.618,0,0,1-1.005-2.641c-.075-.239-.163-.473-.027-.685q.057-.088.113-.182c.048-.082.094-.163.136-.241.023-.046.044-.09.063-.132.069-.157.153-.341.26-.549.038-.078.08-.157.124-.241.1-.184.211-.383.341-.591.042-.071.088-.144.138-.218.122-.191.256-.385.4-.584.046-.063.094-.126.145-.191.163-.211.341-.425.536-.639.048-.052.1-.1.149-.157a8.788,8.788,0,0,1,.737-.7c.052-.046.107-.092.161-.134a8.626,8.626,0,0,1,.844-.607c.061-.04.124-.077.186-.115.144-.086.293-.168.446-.247.067-.036.134-.069.2-.1q.217-.107.446-.2l.029-.013c.071-.029.144-.058.218-.084.1-.04.2-.075.306-.111,0,0,.339-.1.492.145.283.452.873,1.4,1.673,2.444C1174.375,1353.577,1173.941,1353.715,1173.872,1353.736Z" transform="translate(-1021.154 -1181.464)" fill-rule="evenodd" fill="url(#linear-gradient-21)"/>
    <path id="Path_4664" data-name="Path 4664" d="M1232.133,1355.179c-.065.025-.13.055-.195.084a7.748,7.748,0,0,0-2.073-3c.071-.029.144-.059.218-.084A7.706,7.706,0,0,1,1232.133,1355.179Z" transform="translate(-1079.559 -1182.845)" fill="#fff" fill-rule="evenodd"/>
    <path id="Path_4665" data-name="Path 4665" d="M1224.26,1358.664c-.063.034-.126.069-.188.107a7.413,7.413,0,0,0-2.048-3.051c.067-.036.134-.069.2-.1A7.532,7.532,0,0,1,1224.26,1358.664Z" transform="translate(-1072.397 -1185.983)" fill="#fff" fill-rule="evenodd"/>
    <path id="Path_4666" data-name="Path 4666" d="M1216.96,1362.708c-.063.038-.126.08-.186.124a7.4,7.4,0,0,0-2.058-3.08c.061-.04.124-.077.186-.115A7.567,7.567,0,0,1,1216.96,1362.708Z" transform="translate(-1065.72 -1189.653)" fill="#fff" fill-rule="evenodd"/>
    <path id="Path_4667" data-name="Path 4667" d="M1169.721,1419.262c-.038.067-.073.132-.1.195a16.4,16.4,0,0,1-1.56-3.482c.048-.082.094-.163.136-.241A18.791,18.791,0,0,0,1169.721,1419.262Z" transform="translate(-1023.098 -1240.897)" fill="#fff" fill-rule="evenodd"/>
    <path id="Path_4668" data-name="Path 4668" d="M1175.155,1408.526c-.044.065-.082.128-.119.189a22.663,22.663,0,0,1-1.679-3.388c.038-.078.08-.157.124-.241A25.322,25.322,0,0,0,1175.155,1408.526Z" transform="translate(-1027.94 -1231.17)" fill="#fff" fill-rule="evenodd"/>
    <path id="Path_4669" data-name="Path 4669" d="M1180.561,1399.237l-.123.18a23.185,23.185,0,0,1-1.709-3.455c.042-.071.088-.144.138-.218A25.833,25.833,0,0,0,1180.561,1399.237Z" transform="translate(-1032.848 -1222.636)" fill="#fff" fill-rule="evenodd"/>
    <path id="Path_4670" data-name="Path 4670" d="M1186.835,1390.318c-.046.059-.092.117-.134.174a25.815,25.815,0,0,1-1.7-3.512c.046-.063.094-.126.145-.191A27.9,27.9,0,0,0,1186.835,1390.318Z" transform="translate(-1038.573 -1214.457)" fill="#fff" fill-rule="evenodd"/>
    <path id="Path_4671" data-name="Path 4671" d="M1194.93,1380.858q-.079.082-.151.163c-.593-1.162-1.577-2.735-1.918-3.271.048-.052.1-.1.149-.157C1193.317,1378.077,1194.308,1379.649,1194.93,1380.858Z" transform="translate(-1045.757 -1206.056)" fill="#fff" fill-rule="evenodd"/>
    <path id="Path_4672" data-name="Path 4672" d="M1205.374,1371.053c-.054.044-.109.09-.161.138a20.7,20.7,0,0,0-2.115-3.072c.052-.046.107-.092.161-.134A20.455,20.455,0,0,1,1205.374,1371.053Z" transform="translate(-1055.108 -1197.28)" fill="#fff" fill-rule="evenodd"/>
    <path id="Path_4673" data-name="Path 4673" d="M2126.525,1181.812s-4.607-5.166-4.745-9.913-.14-10.749-2.513-15.915-4.328-9.771-4.888-16.334a34.983,34.983,0,0,0-.521-3.778,31.974,31.974,0,0,1,2.019,4.982c2.576,7.88,9.461,29.712,11.117,35.678C2126.994,1176.533,2126.106,1180.275,2126.525,1181.812Z" transform="translate(-1887.063 -985.251)" fill-rule="evenodd" fill="url(#linear-gradient-22)"/>
    <path id="Path_4674" data-name="Path 4674" d="M1406.636,1612.34c-.157-1.466-2.209-4.684-2.209-4.684s.187-1.615.519-4.217a3.05,3.05,0,0,1,.7,1.677,9.731,9.731,0,0,0,.942,3.874C1407.212,1610.141,1406.793,1613.805,1406.636,1612.34Z" transform="translate(-1239.017 -1412.359)" fill="#f26611" fill-rule="evenodd"/>
    <path id="Path_4675" data-name="Path 4675" d="M2495.268,1178.2a2.686,2.686,0,0,1-1.2,1.248c-.069.025-.1.042-.1.05a17.764,17.764,0,0,0-3.79.8c-1.4.557.279-1.047,1.185-1.118a5.317,5.317,0,0,0,2.618-.452C2494.675,1178.236,2495.408,1177.434,2495.268,1178.2Z" transform="translate(-2230.328 -1023.627)" fill="#d8001e" fill-rule="evenodd" opacity="0.3"/>
    <path id="Path_4676" data-name="Path 4676" d="M2445.807,1231.661c-1.169,1.606-3.315,3.11-6.912,3.874-7.292,1.545-8.948,1.732-9.526,4.4a8.793,8.793,0,0,0-4-3.323,1.315,1.315,0,0,1,1.767-.7c1.292.488,2.2.8,5.131-.245s4.816-.733,7.05-.8,3.28-1.118,5.026-2.234C2444.773,1232.358,2445.3,1232,2445.807,1231.661Z" transform="translate(-2171.625 -1072.751)" fill="#d8001e" fill-rule="evenodd" opacity="0.3"/>
    <path id="Path_4677" data-name="Path 4677" d="M1036.366,1293.188a18.165,18.165,0,0,0-2.722.184,6.177,6.177,0,0,1-1.757-.163c-.456-.379.662-.559,1.261-.36.628.209.446-.027,1.466-.341S1037.048,1293.346,1036.366,1293.188Z" transform="translate(-898.614 -1128.283)" fill="#d8001e" fill-rule="evenodd" opacity="0.3"/>
    <path id="Path_4678" data-name="Path 4678" d="M281.773,603.88l-35.171,11.6a3.051,3.051,0,0,1-3.853-1.942l-8.142-24.681a3.051,3.051,0,0,1,1.942-3.853l35.171-11.6a3.051,3.051,0,0,1,3.853,1.942l8.142,24.681A3.051,3.051,0,0,1,281.773,603.88Z" transform="translate(-170.276 -471.31)" fill-rule="evenodd" fill="url(#linear-gradient-23)"/>
    <path id="Path_4679" data-name="Path 4679" d="M385.018,758.235l-5.76-17.462a1.4,1.4,0,0,1,1.53-1.822l20.342,2.971a1.4,1.4,0,0,1,.784,2.375l-14.582,14.491A1.4,1.4,0,0,1,385.018,758.235Z" transform="translate(-302.487 -622.66)" fill-rule="evenodd" opacity="0.2" fill="url(#linear-gradient-24)"/>
    <g id="Group_1942" data-name="Group 1942" transform="translate(141.603 160.436)">
      <rect id="Rectangle_517" data-name="Rectangle 517" width="2.387" height="0.919" transform="translate(0 141.895)" fill="url(#linear-gradient-25)"/>
      <rect id="Rectangle_518" data-name="Rectangle 518" width="2.387" height="0.919" transform="translate(38.585 141.895)" fill="url(#linear-gradient-25)"/>
      <path id="Path_4680" data-name="Path 4680" d="M1223.158,1324.063h-25.547a1.48,1.48,0,0,1-1.48-1.48v-14.857a1.48,1.48,0,0,1,1.48-1.48h22.738a4.289,4.289,0,0,1,4.289,4.29v12.047A1.48,1.48,0,0,1,1223.158,1324.063Z" transform="translate(-1190.347 -1301.318)" fill-rule="evenodd" fill="url(#linear-gradient-27)"/>
      <path id="Rectangle_519" data-name="Rectangle 519" d="M6.524,0H8.568a6.524,6.524,0,0,1,6.524,6.524v0a6.524,6.524,0,0,1-6.524,6.524H6.524A6.524,6.524,0,0,1,0,6.525v0A6.524,6.524,0,0,1,6.524,0Z" transform="translate(7.93 8.302)" fill="#003058"/>
      <path id="Path_4681" data-name="Path 4681" d="M1430.41,1412.125a2.923,2.923,0,1,1-2.923-2.923A2.923,2.923,0,0,1,1430.41,1412.125Z" transform="translate(-1399.015 -1395.366)" fill-rule="evenodd" fill="url(#linear-gradient-25)"/>
      <path id="Path_4682" data-name="Path 4682" d="M1435.733,1418a2.366,2.366,0,1,1-2.366-2.366A2.366,2.366,0,0,1,1435.733,1418Z" transform="translate(-1404.894 -1401.244)" fill-rule="evenodd" fill="url(#linear-gradient-29)"/>
      <path id="Path_4683" data-name="Path 4683" d="M1279.68,1249.3h-6.6l-1.5,4.927h9.73Z" transform="translate(-1259.267 -1249.298)" fill-rule="evenodd" fill="url(#linear-gradient-30)"/>
      <rect id="Rectangle_520" data-name="Rectangle 520" width="4.371" height="2.645" transform="translate(14.859 1.253)" fill="url(#linear-gradient-31)"/>
      <g id="Group_1941" data-name="Group 1941" transform="translate(26.106 8.741)">
        <rect id="Rectangle_521" data-name="Rectangle 521" width="1.253" height="0.724" fill="#fff"/>
        <rect id="Rectangle_522" data-name="Rectangle 522" width="1.253" height="0.724" transform="translate(0 1.434)" fill="#fff"/>
        <rect id="Rectangle_523" data-name="Rectangle 523" width="1.253" height="0.724" transform="translate(0 2.867)" fill="#fff"/>
        <rect id="Rectangle_524" data-name="Rectangle 524" width="1.253" height="0.724" transform="translate(3.034)" fill="#fff"/>
        <rect id="Rectangle_525" data-name="Rectangle 525" width="1.253" height="0.724" transform="translate(3.034 1.434)" fill="#fff"/>
        <rect id="Rectangle_526" data-name="Rectangle 526" width="1.253" height="0.724" transform="translate(3.034 2.867)" fill="#fff"/>
      </g>
      <path id="Path_4684" data-name="Path 4684" d="M1288.126,1514.161h-9l-1.274-2h11.191Z" transform="translate(-1264.999 -1489.412)" fill-rule="evenodd" fill="url(#linear-gradient-32)"/>
      <rect id="Rectangle_527" data-name="Rectangle 527" width="2.84" height="13.056" transform="translate(16.919 24.749)" fill="url(#linear-gradient-25)"/>
      <path id="Rectangle_528" data-name="Rectangle 528" d="M2.951,0h0A2.951,2.951,0,0,1,5.9,2.951V6.069A2.951,2.951,0,0,1,2.951,9.02h0A2.951,2.951,0,0,1,0,6.069V2.951A2.951,2.951,0,0,1,2.951,0Z" transform="translate(15.388 27.059)" fill="url(#linear-gradient-34)"/>
      <path id="Rectangle_529" data-name="Rectangle 529" d="M1.935,0H6.472A1.935,1.935,0,0,1,8.407,1.935v0A1.935,1.935,0,0,1,6.472,3.87H1.935A1.935,1.935,0,0,1,0,1.935v0A1.935,1.935,0,0,1,1.935,0Z" transform="translate(14.135 37.805)" fill="url(#linear-gradient-35)"/>
      <path id="Path_4685" data-name="Path 4685" d="M1257.843,1599.081a1.225,1.225,0,0,1-1.225-1.225v-3.4a1.225,1.225,0,0,1,2.45,0v3.4A1.225,1.225,0,0,1,1257.843,1599.081Z" transform="translate(-1245.601 -1563.475)" fill-rule="evenodd" fill="url(#linear-gradient-36)"/>
      <rect id="Rectangle_530" data-name="Rectangle 530" width="1.921" height="1.308" transform="translate(13.467 31.43)" fill="url(#linear-gradient-25)"/>
      <path id="Path_4686" data-name="Path 4686" d="M1341.145,1833.069h-1.274l-4.708-102.131h1.274Z" transform="translate(-1317.349 -1689.263)" fill="#011134" fill-rule="evenodd"/>
      <path id="Path_4687" data-name="Path 4687" d="M1136.369,1831.158h1.274l16.493-100.22h-1.274Z" transform="translate(-1135.757 -1689.263)" fill="#011134" fill-rule="evenodd"/>
      <path id="Path_4688" data-name="Path 4688" d="M1367.982,1831.158h-1.274l-20.36-100.22h1.274Z" transform="translate(-1327.567 -1689.263)" fill="#011134" fill-rule="evenodd"/>
      <path id="Path_4689" data-name="Path 4689" d="M1231.791,1340.018v8.967a2.043,2.043,0,0,1-2.042,2.042h-11.01a2.041,2.041,0,0,1-2.033-1.866,1.631,1.631,0,0,1-.008-.176v-8.967a2.043,2.043,0,0,1,2.042-2.042h11.01a2.045,2.045,0,0,1,2.042,2.042Z" transform="translate(-1209.134 -1330.303)" fill-rule="evenodd" fill="url(#linear-gradient-38)"/>
      <path id="Path_4690" data-name="Path 4690" d="M1225.094,1337.976l-8.389,11.184a1.631,1.631,0,0,1-.008-.176v-1.541c1.694-2.381,5.078-6.887,7.023-9.467Zm6.016.521a2.025,2.025,0,0,0-1.361-.521H1228c-1.8,2.381-6.5,9.8-8.445,13.05h3.623Z" transform="translate(-1209.134 -1330.303)" fill-rule="evenodd" fill="url(#linear-gradient-39)"/>
      <rect id="Rectangle_531" data-name="Rectangle 531" width="2.387" height="0.919" transform="translate(21.962 143.596)" fill="url(#linear-gradient-25)"/>
    </g>
    <path id="Path_4691" data-name="Path 4691" d="M2780.844,1551.486a9.962,9.962,0,0,1-1.468-1.227v-5.614a4.277,4.277,0,0,0-2.994,2.274,3.552,3.552,0,0,0-.423,1.456.6.6,0,0,1-.442.613,4.063,4.063,0,0,0-2.3,2.708c0,.018-.008.035-.012.053a3.554,3.554,0,0,0-.1,1.21.87.87,0,0,1,0,.194.646.646,0,0,1-.321.445c-.071.05-.141.1-.206.157a3.663,3.663,0,0,0-1.487,2.434,3.615,3.615,0,0,0,.01.915.7.7,0,0,1,0,.133.515.515,0,0,1-.239.388c-.061.047-.126.09-.187.138s-.109.1-.162.147l-.043.039a3.231,3.231,0,0,0-.944,2.876,2.906,2.906,0,0,0,.375.982,4.273,4.273,0,0,0,.969,1.1c1.652,1.349,3.321,2.678,4.99,4.008l1.5,1.2c.672.547,1.349,1.085,2.023,1.623v-18.449a10.82,10.82,0,0,1,2.538,1.432C2783.141,1553.75,2781.919,1552.24,2780.844,1551.486Z" transform="translate(-2485.949 -1358.654)" fill="#080e17" fill-rule="evenodd" opacity="0.3"/>
    <path id="Path_4692" data-name="Path 4692" d="M2002.677,387.115l19.228,8.313a1.706,1.706,0,0,0,2.249-.892l3.208-7.421Z" transform="translate(-1785.502 -301.281)" fill="#080e17" fill-rule="evenodd" opacity="0.5"/>
    <g id="Group_1943" data-name="Group 1943" transform="translate(284.139 179.466)">
      <path id="Path_4693" data-name="Path 4693" d="M2798.795,1487.886l-6.267,7.825-.6.752-1.278,1.595a.28.28,0,0,0-.062-.186,1.289,1.289,0,0,0-1.043-.488,2.352,2.352,0,0,1-1.733-.586c-1.667-1.349-3.346-2.681-5.02-4.018-1.7-1.368-3.415-2.723-5.1-4.1a3.354,3.354,0,0,1-.762-.868,2.282,2.282,0,0,1-.3-.773,2.545,2.545,0,0,1,.744-2.264q.078-.074.162-.146c.162-.13.37-.214.331-.521a2.816,2.816,0,0,1-.008-.719,2.874,2.874,0,0,1,1.17-1.916c.052-.041.106-.084.162-.124a.482.482,0,0,0,.255-.5,2.838,2.838,0,0,1,.09-.994,3.2,3.2,0,0,1,1.813-2.131.468.468,0,0,0,.348-.484,2.8,2.8,0,0,1,.334-1.145,3.234,3.234,0,0,1,2.933-1.821,4.582,4.582,0,0,1,2.592.986c.932.709,1.835,1.451,2.75,2.178.1.077.19.154.286.229.361.287.543.262.731-.149a2.18,2.18,0,0,0,.166-.756c.03-.336-.023-.678.02-1.012.235-1.827.563-3.621,1.968-4.991a5.939,5.939,0,0,1,1.618-1.152,4.414,4.414,0,0,1,.991-.327,1.925,1.925,0,0,1,2.345,1.891,2.626,2.626,0,0,1-.448,1.485,7.107,7.107,0,0,0-.784,5.476,12.362,12.362,0,0,1,.241,3.813c0,.008,0,.019,0,.027-.132,1.405-.228,2.819-.329,4.23a.888.888,0,0,0,.427.888c.326.211.6.5.922.713A.636.636,0,0,0,2798.795,1487.886Z" transform="translate(-2776.588 -1469.234)" fill-rule="evenodd" fill="url(#linear-gradient-41)"/>
      <path id="Path_4694" data-name="Path 4694" d="M2953.733,1689.823q-3.7,4.648-7.419,9.287a1.264,1.264,0,0,1-1.918.206c-1.65-1.311-3.291-2.632-4.942-3.941a1.354,1.354,0,0,1-.52-1.292.978.978,0,0,0,0-.15l8.146-10.173a.569.569,0,0,0,.12-.018,1.4,1.4,0,0,1,1.376.243c1.642,1.318,3.292,2.63,4.934,3.948A1.269,1.269,0,0,1,2953.733,1689.823Z" transform="translate(-2924.878 -1665.107)" fill-rule="evenodd" fill="url(#linear-gradient-42)"/>
      <path id="Path_4695" data-name="Path 4695" d="M2937.263,1483.107c-.268.053-1.436-1.047-2.17-1.77.095.077.19.154.286.229.361.287.543.262.731-.149a2.17,2.17,0,0,0,.166-.756c.03-.336-.023-.678.02-1.012.235-1.827.563-3.621,1.969-4.991a5.931,5.931,0,0,1,1.618-1.152,8.327,8.327,0,0,0-2,7.72C2938.361,1483.355,2937.66,1483.025,2937.263,1483.107Z" transform="translate(-2921.378 -1473.135)" fill="#d8001e" fill-rule="evenodd" opacity="0.1"/>
      <path id="Path_4696" data-name="Path 4696" d="M2836.62,1553.066a32.23,32.23,0,0,0-2.868-1.63,16.294,16.294,0,0,0-2.168-1.306.468.468,0,0,0,.347-.484,2.8,2.8,0,0,1,.334-1.145,8.559,8.559,0,0,1,1.616,1.674,6.375,6.375,0,0,0,1.9,1.92C2836.624,1552.69,2837.588,1553.879,2836.62,1553.066Z" transform="translate(-2826.826 -1541.643)" fill="#d8001e" fill-rule="evenodd" opacity="0.1"/>
      <path id="Path_4697" data-name="Path 4697" d="M2809.3,1596.247a32.424,32.424,0,0,0-2.868-1.63,14.857,14.857,0,0,0-1.663-1.038c.052-.041.106-.084.162-.124a.482.482,0,0,0,.255-.5,2.837,2.837,0,0,1,.09-.994,7.367,7.367,0,0,1,1.285,1.4,6.375,6.375,0,0,0,1.9,1.92C2809.3,1595.871,2810.264,1597.06,2809.3,1596.247Z" transform="translate(-2802.329 -1581.34)" fill="#d8001e" fill-rule="evenodd" opacity="0.1"/>
      <path id="Path_4698" data-name="Path 4698" d="M2789.488,1636.487a32.319,32.319,0,0,0-2.868-1.63c-.37-.263-.691-.472-.983-.648q.078-.074.162-.146c.162-.13.37-.214.331-.521a2.815,2.815,0,0,1-.008-.719,5.051,5.051,0,0,1,.627.773,6.378,6.378,0,0,0,1.9,1.92C2789.492,1636.111,2790.455,1637.3,2789.488,1636.487Z" transform="translate(-2784.854 -1618.669)" fill="#d8001e" fill-rule="evenodd" opacity="0.1"/>
      <path id="Path_4699" data-name="Path 4699" d="M2963.51,1625.692c.741-.871.229-2.074.557-2.822a5.943,5.943,0,0,0,.46-2.445,19.4,19.4,0,0,1,1.194-4.332c0,.008,0,.019,0,.027-.132,1.405-.228,2.819-.329,4.23a.889.889,0,0,0,.427.888c.326.211.6.5.922.713a.638.638,0,0,0,.34.086l-6.267,7.825A32.2,32.2,0,0,1,2963.51,1625.692Z" transform="translate(-2944.871 -1603.386)" fill="#d8001e" fill-rule="evenodd" opacity="0.1"/>
      <path id="Path_4700" data-name="Path 4700" d="M2792.339,1684.423l-1.278,1.594a.281.281,0,0,0-.062-.186,1.289,1.289,0,0,0-1.043-.489,2.354,2.354,0,0,1-1.733-.586c-1.667-1.349-3.346-2.681-5.02-4.018-1.7-1.368-3.415-2.723-5.1-4.1a3.35,3.35,0,0,1-.762-.868,2.272,2.272,0,0,1-.3-.773,19.733,19.733,0,0,0,3.4,2.781,16.2,16.2,0,0,1,4.276,2.435,13.641,13.641,0,0,0,5.632,2.852C2791.428,1683.182,2792.145,1683.648,2792.339,1684.423Z" transform="translate(-2777 -1657.194)" fill="#d8001e" fill-rule="evenodd" opacity="0.1"/>
    </g>
    <g id="Group_1944" data-name="Group 1944" transform="translate(211.337 62.026)">
      <path id="Path_4701" data-name="Path 4701" d="M1947.64,126.85c-.149.041-.3.088-.446.141l-11.857,4.24a1.716,1.716,0,0,1,.012-1.334l6.7-15.5a1.709,1.709,0,0,1,.914-.9l4.489,12.892C1947.512,126.544,1947.573,126.7,1947.64,126.85Z" transform="translate(-1935.208 -113.359)" fill-rule="evenodd" fill="url(#linear-gradient-43)"/>
      <path id="Path_4702" data-name="Path 4702" d="M2169.964,236.6l-6.7,15.5a1.715,1.715,0,0,1-.963.923l-5.031-11.543c-.062-.143-.13-.285-.2-.421q.233-.082.466-.185L2170,235.316A1.709,1.709,0,0,1,2169.964,236.6Z" transform="translate(-2137.865 -224.642)" fill-rule="evenodd" fill="url(#linear-gradient-44)"/>
      <path id="Path_4703" data-name="Path 4703" d="M1960.992,282.764a1.715,1.715,0,0,1-1.29-.03l-22.112-9.562a1.716,1.716,0,0,1-.905-.92l11.857-4.24c.147-.052.3-.1.446-.141a5.28,5.28,0,0,0,6.77,2.928c.073.137.141.278.2.421Z" transform="translate(-1936.557 -254.381)" fill-rule="evenodd" fill="url(#linear-gradient-45)"/>
      <path id="Path_4704" data-name="Path 4704" d="M2049.192,122.634l-12.468,5.559q-.232.1-.466.186a5.28,5.28,0,0,1-6.77-2.928c-.066-.151-.128-.306-.184-.466l-4.489-12.892a1.707,1.707,0,0,1,1.34.009l22.112,9.562A1.708,1.708,0,0,1,2049.192,122.634Z" transform="translate(-2017.063 -111.96)" fill-rule="evenodd" fill="url(#linear-gradient-46)"/>
    </g>
    <g id="Group_1946" data-name="Group 1946" transform="translate(91.606 57.296)">
      <g id="Group_1945" data-name="Group 1945" transform="translate(7.875 0.952)">
        <path id="Path_4705" data-name="Path 4705" d="M661.832,81.206c-.557-.157-1.078-.438-1.63-.614a1.217,1.217,0,0,1-.814-.767q-1.153-2.692-2.353-5.361a7.42,7.42,0,0,0-7.632-4.45.772.772,0,0,1-.961-.55,1.737,1.737,0,0,0-2.342-1.016,1.7,1.7,0,0,0-.334.194,1.736,1.736,0,0,0-.49,2.214.777.777,0,0,1-.248,1.082,7.056,7.056,0,0,0-2.239,7.5,23.862,23.862,0,0,0,1.983,4.758,4.232,4.232,0,0,1,.062,4.58,1.453,1.453,0,0,0,.193,1.787l13.092-5.755,4.976-2.188a1.566,1.566,0,0,0-1.265-1.415Zm-15.66-10.19c-.488-1.022-.134-1.736.416-1.846.435-.085.989.209,1.342,1.03a.153.153,0,0,1,.017.038Z" transform="translate(-642.477 -68.295)" fill="#b2b1b2" fill-rule="evenodd" opacity="0.5"/>
        <path id="Path_4706" data-name="Path 4706" d="M755.548,278.924l4.131-1.816a2.093,2.093,0,0,1-.674,2.761A2.347,2.347,0,0,1,755.548,278.924Z" transform="translate(-745.764 -259.04)" fill="#b2b1b2" fill-rule="evenodd" opacity="0.5"/>
      </g>
      <path id="Path_4707" data-name="Path 4707" d="M697.826,82.621l-4.976,2.188a5.242,5.242,0,0,0-3.129-1.946A21.544,21.544,0,0,0,682.659,70.2c-.353-.82-.907-1.114-1.342-1.03-.307-.212-.588-.387-.821-.528a1.7,1.7,0,0,1,.334-.194,1.737,1.737,0,0,1,2.342,1.016.772.772,0,0,0,.961.55,7.42,7.42,0,0,1,7.632,4.45q1.2,2.67,2.353,5.361a1.217,1.217,0,0,0,.814.767c.552.177,1.073.458,1.63.614A1.566,1.566,0,0,1,697.826,82.621Z" transform="translate(-669.331 -67.343)" fill="#b2b1b2" fill-rule="evenodd" opacity="0.5"/>
      <path id="Path_4708" data-name="Path 4708" d="M588.986,199.24a.652.652,0,0,1-.641-.1,6.44,6.44,0,0,1-2.55-6.61.652.652,0,1,1,1.284.234,5.156,5.156,0,0,0,2.073,5.351.653.653,0,0,1-.166,1.121Z" transform="translate(-582.704 -180.344)" fill="#b2b1b2" fill-rule="evenodd" opacity="0.5"/>
      <path id="Path_4709" data-name="Path 4709" d="M555.923,191.641a.652.652,0,0,1-.641-.1,9.165,9.165,0,0,1-3.631-9.407.652.652,0,1,1,1.284.234,7.849,7.849,0,0,0,3.154,8.148.653.653,0,0,1-.166,1.121Z" transform="translate(-551.463 -170.847)" fill="#b2b1b2" fill-rule="evenodd" opacity="0.5"/>
      <path id="Path_4710" data-name="Path 4710" d="M834.431,86.464a.653.653,0,0,1-.878-.725,5.156,5.156,0,0,0-2.073-5.351.652.652,0,1,1,.807-1.026,6.44,6.44,0,0,1,2.55,6.61A.652.652,0,0,1,834.431,86.464Z" transform="translate(-807.024 -77.325)" fill="#b2b1b2" fill-rule="evenodd" opacity="0.5"/>
      <path id="Path_4711" data-name="Path 4711" d="M856.573,67.334a.652.652,0,0,1-.878-.725,7.849,7.849,0,0,0-3.154-8.148.652.652,0,1,1,.807-1.026,9.164,9.164,0,0,1,3.631,9.407A.652.652,0,0,1,856.573,67.334Z" transform="translate(-826.262 -57.296)" fill="#b2b1b2" fill-rule="evenodd" opacity="0.5"/>
    </g>
    <path id="Path_4712" data-name="Path 4712" d="M371.91,746.135l-5.76-17.462a1.4,1.4,0,0,1,1.53-1.822l20.342,2.971a1.4,1.4,0,0,1,.784,2.375l-14.582,14.491A1.4,1.4,0,0,1,371.91,746.135Z" transform="translate(-290.512 -611.607)" fill-rule="evenodd" fill="url(#linear-gradient-47)"/>
    <g id="Group_1947" data-name="Group 1947" transform="translate(303.249 72.637)">
      <rect id="Rectangle_532" data-name="Rectangle 532" width="20.3" height="4.039" transform="translate(0 20.005) rotate(-80.217)" fill="#cdcecf" opacity="0.6"/>
      <rect id="Rectangle_533" data-name="Rectangle 533" width="20.3" height="4.039" transform="matrix(0.17, -0.985, 0.985, 0.17, 6.93, 21.2)" fill="#cdcecf" opacity="0.6"/>
    </g>
  </g>
</svg>
