<svg xmlns="http://www.w3.org/2000/svg" width="284.655" height="236.642" viewBox="0 0 284.655 236.642">
  <g id="Group_1499" data-name="Group 1499" transform="translate(-6571.284 -1891.392)">
    <g id="Group_1498" data-name="Group 1498" transform="translate(6571.284 1891.392)">
      <path id="_11" data-name="11" d="M5279.026,1130.108l7.415-11.588-6.667-4.247a27.825,27.825,0,0,0,1.378-7.337l7.807-1.719-2.97-13.425-7.513,1.654a27.9,27.9,0,0,0-4.9-7.179l4.378-6.843-11.616-7.4-4.378,6.843a27.979,27.979,0,0,0-7.973-1.4l-1.561-7.052-13.456,2.963,1.561,7.052a27.905,27.905,0,0,0-6.642,4.619l-6.668-4.247-7.415,11.588,6.668,4.247a27.805,27.805,0,0,0-1.415,8.569l-7.513,1.655,2.97,13.425,7.806-1.719a27.823,27.823,0,0,0,4.347,6.076l-4.378,6.843,11.615,7.4,4.379-6.843a27.961,27.961,0,0,0,7.973,1.4l1.818,8.219,13.457-2.963-1.819-8.219a27.888,27.888,0,0,0,6.641-4.619Zm-31.967-13.645c-14.4-8.012-2.314-29.832,12.134-22.012C5273.588,1102.461,5261.505,1124.282,5247.059,1116.463Z" transform="translate(-5005.232 -1041.743)" fill="#eb5648"/>
      <rect id="Rectangle_454" data-name="Rectangle 454" width="39.049" height="35.286" transform="translate(119.696 194.444)" fill="#255084"/>
      <rect id="Rectangle_455" data-name="Rectangle 455" width="39.049" height="40.077" transform="translate(119.696 173.735)" fill="#1d3f70"/>
      <path id="Path_3060" data-name="Path 3060" d="M4548.539,2230.345H4428.875a4.344,4.344,0,0,1-4.349-4.339h0a4.344,4.344,0,0,1,4.349-4.339h119.664a4.344,4.344,0,0,1,4.35,4.339h0A4.344,4.344,0,0,1,4548.539,2230.345Z" transform="translate(-4349.486 -1993.703)" fill="#1d3f70"/>
      <rect id="Rectangle_456" data-name="Rectangle 456" width="145.58" height="220.302" rx="20" transform="translate(249.372 62.468) rotate(90)" fill="#255084"/>
      <ellipse id="Ellipse_171" data-name="Ellipse 171" cx="4.617" cy="4.606" rx="4.617" ry="4.606" transform="translate(134.604 195.161)" fill="#1d3f70"/>
      <path id="Path_3061" data-name="Path 3061" d="M4393.293,1315.036v31.983l-47.67,71.779L4208.8,1373.173v-58.137Z" transform="translate(-4161.828 -1238.609)" fill="#a9bff7"/>
      <path id="Path_3062" data-name="Path 3062" d="M4208.805,1544.538s27.527-25.146,55.436-9.809,32.944,46.1,70.357,43.014c38.4-3.163,12.811-54.272,58.7-59.359V1593.9H4208.805Z" transform="translate(-4161.828 -1409.974)" fill="#ce4abf"/>
      <path id="Path_3063" data-name="Path 3063" d="M4208.805,1315.036s7,29.2,51.51,22.283c40.733-6.326,38.658,36.712,65.3,38.256s34.478-29.295,44.3-40.1,23.381-8.962,23.381-8.962v-11.477Z" transform="translate(-4161.828 -1238.609)" fill="#d9e4f9"/>
      <path id="Path_3064" data-name="Path 3064" d="M4445.327,1558.292a.212.212,0,0,1-.1-.026L4382.7,1523.96a.213.213,0,0,1,.206-.374l62.525,34.305a.213.213,0,0,1-.1.4Z" transform="translate(-4314.809 -1416.443)" fill="#1d3f70"/>
      <rect id="Rectangle_457" data-name="Rectangle 457" width="2.326" height="2.321" transform="translate(96.93 122.569)" fill="#1d3f70"/>
      <ellipse id="Ellipse_172" data-name="Ellipse 172" cx="0.98" cy="0.978" rx="0.98" ry="0.978" transform="translate(67.013 106.352)" fill="#1d3f70"/>
      <path id="Path_3065" data-name="Path 3065" d="M4741.316,1718.295a.98.98,0,1,1-.979-.978A.979.979,0,0,1,4741.316,1718.295Z" transform="translate(-4609.816 -1576.66)" fill="#1d3f70"/>
      <rect id="Rectangle_458" data-name="Rectangle 458" width="2.326" height="2.321" transform="translate(174.982 170.338)" fill="#1d3f70"/>
      <path id="Path_3066" data-name="Path 3066" d="M4769.707,1881.643a.213.213,0,0,1-.017-.426l83.662-6.895a.21.21,0,0,1,.23.195.213.213,0,0,1-.195.23l-83.662,6.894Z" transform="translate(-4634.737 -1706.486)" fill="#1d3f70"/>
      <path id="Path_3067" data-name="Path 3067" d="M4767.025,1910.712a.98.98,0,1,1-.979-.978A.978.978,0,0,1,4767.025,1910.712Z" transform="translate(-4631.076 -1735.768)" fill="#1d3f70"/>
      <path id="Path_3068" data-name="Path 3068" d="M5250.322,1870.884a.98.98,0,1,1-.979-.978A.978.978,0,0,1,5250.322,1870.884Z" transform="translate(-5030.711 -1702.834)" fill="#1d3f70"/>
      <g id="_9" data-name="9" transform="translate(180.658 112.598)">
        <rect id="Rectangle_459" data-name="Rectangle 459" width="45.49" height="28.775" rx="14.387" transform="translate(45.49 28.775) rotate(180)" fill="#fff"/>
        <rect id="Rectangle_460" data-name="Rectangle 460" width="6.564" height="6.579" transform="translate(39.192 6.511) rotate(90)" fill="#397caa"/>
        <rect id="Rectangle_461" data-name="Rectangle 461" width="6.564" height="6.579" transform="translate(39.192 15.7) rotate(90)" fill="#ff7b7b"/>
        <rect id="Rectangle_462" data-name="Rectangle 462" width="6.564" height="6.579" transform="translate(32.613 6.511) rotate(90)" fill="#2e6999"/>
        <rect id="Rectangle_463" data-name="Rectangle 463" width="6.564" height="6.579" transform="translate(32.613 15.7) rotate(90)" fill="#f66"/>
        <rect id="Rectangle_464" data-name="Rectangle 464" width="6.564" height="6.579" transform="translate(26.034 6.511) rotate(90)" fill="#285989"/>
        <rect id="Rectangle_465" data-name="Rectangle 465" width="6.564" height="6.579" transform="translate(26.034 15.7) rotate(90)" fill="#f95c58"/>
        <rect id="Rectangle_466" data-name="Rectangle 466" width="6.564" height="6.579" transform="translate(19.455 6.511) rotate(90)" fill="#1f4777"/>
        <rect id="Rectangle_467" data-name="Rectangle 467" width="6.564" height="6.579" transform="translate(19.455 15.7) rotate(90)" fill="#eb5648"/>
        <rect id="Rectangle_468" data-name="Rectangle 468" width="6.564" height="6.579" transform="translate(12.877 6.511) rotate(90)" fill="#103663"/>
        <rect id="Rectangle_469" data-name="Rectangle 469" width="6.564" height="6.579" transform="translate(12.877 15.7) rotate(90)" fill="#ce3932"/>
      </g>
      <g id="_8" data-name="8" transform="translate(78.095 84.758)">
        <rect id="Rectangle_470" data-name="Rectangle 470" width="53.403" height="23.653" rx="6" transform="translate(0)" fill="#667ecc"/>
        <rect id="Rectangle_471" data-name="Rectangle 471" width="5.826" height="5.812" transform="translate(4.41 7.467)" fill="#1d3f70"/>
        <rect id="Rectangle_472" data-name="Rectangle 472" width="5.826" height="5.812" transform="translate(7.323 10.373)" fill="#1d3f70"/>
        <rect id="Rectangle_473" data-name="Rectangle 473" width="5.826" height="5.812" transform="translate(16.358 7.467)" fill="#1d3f70"/>
        <rect id="Rectangle_474" data-name="Rectangle 474" width="5.826" height="5.812" transform="translate(19.271 10.373)" fill="#a9bff7"/>
        <path id="Path_3069" data-name="Path 3069" d="M4515.688,1390.867v2.906h-2.914v2.906h-2.913v-5.812Z" transform="translate(-4481.555 -1383.4)" fill="#a9bff7"/>
        <rect id="Rectangle_475" data-name="Rectangle 475" width="2.913" height="2.906" transform="translate(31.219 10.373)" fill="#1d3f70"/>
        <path id="Path_3070" data-name="Path 3070" d="M4532.516,1407.657v5.812h-5.826v-2.906h2.913v-2.906Z" transform="translate(-4495.47 -1397.283)" fill="#a9bff7"/>
        <path id="Path_3071" data-name="Path 3071" d="M4584.709,1390.867v2.906H4581.8v2.906h-2.913v-5.812Z" transform="translate(-4538.628 -1383.4)" fill="#1d3f70"/>
        <rect id="Rectangle_476" data-name="Rectangle 476" width="2.913" height="2.906" transform="translate(43.168 10.373)" fill="#a9bff7"/>
        <path id="Path_3072" data-name="Path 3072" d="M4601.538,1407.657v5.812h-5.826v-2.906h2.913v-2.906Z" transform="translate(-4552.544 -1397.284)" fill="#1d3f70"/>
      </g>
      <g id="_7" data-name="7" transform="translate(77.162 154.454)">
        <path id="Rectangle_477" data-name="Rectangle 477" d="M12.01,0h.056a12.01,12.01,0,0,1,12.01,12.01v0a12.01,12.01,0,0,1-12.01,12.01H12.01A12.01,12.01,0,0,1,0,12.01v0A12.01,12.01,0,0,1,12.01,0Z" transform="translate(0)" fill="#a9bff7"/>
        <path id="Path_3073" data-name="Path 3073" d="M4500.018,1853.334v6.767h-6.792v-6.767Zm1.742-1.742h-10.274v10.251h10.274v-10.251Z" transform="translate(-4482.016 -1842.145)" fill="#fff"/>
        <rect id="Rectangle_478" data-name="Rectangle 478" width="10.275" height="10.251" transform="translate(4.332 4.322)" fill="#a523a2"/>
        <path id="Path_3074" data-name="Path 3074" d="M4490.205,1860.831a.268.268,0,0,1-.189-.458l10.275-10.251a.268.268,0,0,1,.378.379l-10.275,10.251A.266.266,0,0,1,4490.205,1860.831Z" transform="translate(-4480.736 -1840.865)" fill="#eb5648"/>
      </g>
      <g id="_6" data-name="6" transform="translate(17.616 46.841)">
        <rect id="Rectangle_479" data-name="Rectangle 479" width="59.172" height="32.8" rx="5" transform="translate(32.8 0) rotate(90)" fill="#667ecc"/>
        <path id="Path_3075" data-name="Path 3075" d="M4211.983,1430.073l-3.248-3.24a3.378,3.378,0,0,0-.214-4.551,3.4,3.4,0,0,0-4.795,0,3.387,3.387,0,0,0,4.561,5l3.249,3.242Zm-7.81-3.453a2.758,2.758,0,1,1,3.9,0A2.766,2.766,0,0,1,4204.173,1426.62Z" transform="translate(-4183.702 -1378.72)" fill="#fff"/>
        <path id="Path_3076" data-name="Path 3076" d="M4210.131,1299.648a4.094,4.094,0,1,1,2.9-6.984h0a4.09,4.09,0,0,1-2.9,6.984Zm0-7.548a3.461,3.461,0,1,0,2.452,1.012h0A3.462,3.462,0,0,0,4210.131,1292.1Z" transform="translate(-4186.429 -1271.369)" fill="#fff"/>
        <rect id="Rectangle_480" data-name="Rectangle 480" width="8.544" height="0.633" transform="matrix(0.708, -0.706, 0.706, 0.708, 20.454, 38.504)" fill="#fff"/>
        <path id="Path_3077" data-name="Path 3077" d="M4122.776,1220.476l5.336,3.556-3-.267-.056,0a.634.634,0,0,0-.575.368l-1.259,2.736-.445-6.391Zm-.722-1.241.708,10.145,2.294-4.983,5.475.486-8.477-5.648Z" transform="translate(-4116.99 -1211.64)" fill="#fff"/>
        <path id="Path_3078" data-name="Path 3078" d="M4205.237,1219.235l.708,10.145,2.294-4.983,5.475.487Z" transform="translate(-4185.773 -1211.64)" fill="#fff"/>
        <path id="Path_3079" data-name="Path 3079" d="M4126.216,1362.1v1.608h.633v-.975h2.568v5.5h-.963v.633h2.558v-.633h-.962v-5.5h2.568v.975h.633V1362.1Z" transform="translate(-4120.432 -1329.778)" fill="#fff"/>
        <rect id="Rectangle_481" data-name="Rectangle 481" width="8.544" height="0.633" transform="translate(4.519 28.647) rotate(-44.936)" fill="#fff"/>
        <ellipse id="Ellipse_173" data-name="Ellipse 173" cx="1.537" cy="1.534" rx="1.537" ry="1.534" transform="translate(6.894 20.018)" fill="#fff"/>
        <ellipse id="Ellipse_174" data-name="Ellipse 174" cx="1.16" cy="1.157" rx="1.16" ry="1.157" transform="translate(10.67 19.507)" fill="#fff"/>
        <ellipse id="Ellipse_175" data-name="Ellipse 175" cx="1.16" cy="1.157" rx="1.16" ry="1.157" transform="translate(11.542 22.373)" fill="#fff"/>
        <path id="Path_3080" data-name="Path 3080" d="M4128.775,1423.967a.71.71,0,0,0-1,0l-.8.793-.295-.294a.709.709,0,0,0-1,0h0a.7.7,0,0,0-.114.844l-5.011,4.991a1.314,1.314,0,0,0,1.859,1.859l5.011-4.993a.705.705,0,0,0,.847-1.112l-.3-.295.8-.793A.705.705,0,0,0,4128.775,1423.967Zm-6.807,7.743a.684.684,0,0,1-.965,0,.678.678,0,0,1,0-.961l4.991-4.972.963.963Z" transform="translate(-4115.433 -1380.76)" fill="#fff"/>
      </g>
      <g id="_5" data-name="5" transform="translate(62.858 31.623)">
        <rect id="Rectangle_482" data-name="Rectangle 482" width="80.808" height="19.872" rx="5" transform="translate(0)" fill="#667ecc"/>
        <rect id="Rectangle_483" data-name="Rectangle 483" width="0.715" height="8.594" transform="translate(4.991 5.997)" fill="#fff"/>
        <rect id="Rectangle_484" data-name="Rectangle 484" width="4.223" height="2.436" transform="translate(6.245 6.992)" fill="#fff"/>
        <rect id="Rectangle_485" data-name="Rectangle 485" width="5.781" height="2.436" transform="translate(6.245 10.149)" fill="#fff"/>
        <rect id="Rectangle_486" data-name="Rectangle 486" width="0.715" height="8.594" transform="translate(36.655 5.997)" fill="#fff"/>
        <rect id="Rectangle_487" data-name="Rectangle 487" width="4.223" height="2.436" transform="translate(36.116 9.428) rotate(180)" fill="#fff"/>
        <rect id="Rectangle_488" data-name="Rectangle 488" width="5.781" height="2.436" transform="translate(36.116 12.585) rotate(180)" fill="#fff"/>
        <rect id="Rectangle_489" data-name="Rectangle 489" width="0.715" height="8.594" transform="translate(20.823 5.997)" fill="#fff"/>
        <rect id="Rectangle_490" data-name="Rectangle 490" width="5.133" height="2.436" transform="translate(18.614 6.992)" fill="#fff"/>
        <rect id="Rectangle_491" data-name="Rectangle 491" width="7.027" height="2.436" transform="translate(17.667 10.149)" fill="#fff"/>
        <rect id="Rectangle_492" data-name="Rectangle 492" width="8.614" height="0.715" transform="translate(54.353 9.937)" fill="#fff"/>
        <rect id="Rectangle_493" data-name="Rectangle 493" width="5.122" height="2.442" transform="translate(61.97 7.733) rotate(90)" fill="#fff"/>
        <rect id="Rectangle_494" data-name="Rectangle 494" width="7.011" height="2.442" transform="translate(58.805 6.788) rotate(90)" fill="#fff"/>
        <rect id="Rectangle_495" data-name="Rectangle 495" width="8.614" height="0.715" transform="translate(41.86 5.992)" fill="#fff"/>
        <rect id="Rectangle_496" data-name="Rectangle 496" width="5.122" height="2.442" transform="translate(48.97 7.228) rotate(90)" fill="#fff"/>
        <rect id="Rectangle_497" data-name="Rectangle 497" width="7.011" height="2.442" transform="translate(45.805 7.228) rotate(90)" fill="#fff"/>
        <rect id="Rectangle_498" data-name="Rectangle 498" width="8.614" height="0.715" transform="translate(66.846 13.881)" fill="#fff"/>
        <rect id="Rectangle_499" data-name="Rectangle 499" width="5.122" height="2.442" transform="translate(71.514 13.36) rotate(-90)" fill="#fff"/>
        <rect id="Rectangle_500" data-name="Rectangle 500" width="7.011" height="2.442" transform="translate(68.349 13.36) rotate(-90)" fill="#fff"/>
      </g>
      <path id="_4" data-name="4" d="M4146.142,949.743l.935-4.8-3.687-.714a13.622,13.622,0,0,0-.157-2.3l3.547-1.219-1.6-4.625-3.551,1.221a13.912,13.912,0,0,0-1.29-1.907l2.464-2.829-3.7-3.209-2.46,2.825a13.805,13.805,0,0,0-2.075-1.005l.716-3.678-4.814-.933-.716,3.678a13.746,13.746,0,0,0-2.3.157l-1.222-3.539-4.636,1.593,1.223,3.543a13.915,13.915,0,0,0-1.911,1.286l-2.835-2.458-3.216,3.693,2.832,2.455a13.71,13.71,0,0,0-1.008,2.071l-3.687-.714-.935,4.8,3.687.714a13.572,13.572,0,0,0,.157,2.3l-3.547,1.219,1.6,4.625,3.551-1.221a13.855,13.855,0,0,0,1.289,1.907l-2.463,2.829,3.7,3.209,2.46-2.825a13.731,13.731,0,0,0,2.076,1.005l-.717,3.678,4.814.933.716-3.678a13.74,13.74,0,0,0,2.3-.157l1.222,3.539,4.637-1.593-1.224-3.543a13.93,13.93,0,0,0,1.911-1.287l2.835,2.458,3.216-3.693-2.832-2.455a13.623,13.623,0,0,0,1.008-2.071Zm-17.892,1.067c-8.891-1.881-6.312-15.118,2.636-13.541C4139.777,939.15,4137.2,952.388,4128.25,950.81Z" transform="translate(-4091.11 -922.797)" fill="#ce4abf"/>
      <path id="_3" data-name="3" d="M5519.735,1569.2l.643-3.3-2.536-.492a9.364,9.364,0,0,0-.107-1.579l2.439-.838-1.1-3.181-2.442.839a9.549,9.549,0,0,0-.887-1.311l1.694-1.945-2.545-2.207-1.693,1.943a9.452,9.452,0,0,0-1.426-.691l.492-2.53-3.311-.641-.493,2.53a9.469,9.469,0,0,0-1.583.108l-.84-2.434-3.188,1.1.841,2.437a9.549,9.549,0,0,0-1.314.885l-1.95-1.691-2.213,2.54,1.948,1.689a9.4,9.4,0,0,0-.693,1.424l-2.536-.491-.643,3.3,2.535.491a9.47,9.47,0,0,0,.108,1.58l-2.439.838,1.1,3.181,2.444-.839a9.494,9.494,0,0,0,.886,1.312l-1.694,1.945,2.545,2.207,1.692-1.943a9.43,9.43,0,0,0,1.427.692l-.493,2.53,3.311.641.492-2.53a9.458,9.458,0,0,0,1.583-.108l.84,2.434,3.188-1.1-.841-2.437a9.626,9.626,0,0,0,1.314-.885l1.95,1.691,2.212-2.54-1.948-1.688a9.4,9.4,0,0,0,.693-1.424Zm-12.306.734c-6.115-1.293-4.341-10.4,1.813-9.313C5515.357,1561.916,5513.583,1571.02,5507.429,1569.935Z" transform="translate(-5235.723 -1441.005)" fill="#12399e"/>
      <g id="_2" data-name="2" transform="translate(152.162)">
        <path id="Path_3081" data-name="Path 3081" d="M5028,907.3s1.784-3.373,7.132-2.332,6.56,7.833,8.354,10.933c3.8,6.568,4.9,13.525,2.873,16.847-2.251,3.69-7.147,2.2-14.307,1.481-7.641-.769-10.793-7.415-5.965-16.483Z" transform="translate(-4997.176 -904.773)" fill="#662948"/>
        <path id="Path_3082" data-name="Path 3082" d="M4990.647,1010.438c-2.119,3.048-3.574,17.978-3.626,19.139l-10.9-.889c-.67-5.475,6.686-16.635,13.327-17.912v0A10.958,10.958,0,0,1,4990.647,1010.438Z" transform="translate(-4957.722 -992.147)" fill="#3a72aa"/>
        <path id="Path_3083" data-name="Path 3083" d="M4873.34,1450.944l10.652-.034c-.015-1.7-.441-5.131-.088-7.067l-4.6.556c.12.932.387,2.953-1.165,3.424-2.012.61-4.2.4-5.459,1.931A.776.776,0,0,0,4873.34,1450.944Z" transform="translate(-4872.122 -1350.527)" fill="#f99370"/>
        <path id="Path_3084" data-name="Path 3084" d="M4883.8,1463.234a2.685,2.685,0,0,1-.32,1.024l-10.755.034a.762.762,0,0,1-.731-1c.4-1.152,1.743-2.821,6.7-3.1a14.59,14.59,0,0,0,4.584-.207A8.117,8.117,0,0,1,4883.8,1463.234Z" transform="translate(-4871.622 -1363.875)" fill="#1d3f70"/>
        <path id="Path_3085" data-name="Path 3085" d="M4883.587,1468.157a.218.218,0,0,1-.2-.135,2.3,2.3,0,0,0-1.14-1.275c-.563-.87,1.06-.255,1.543,1.111A.219.219,0,0,1,4883.587,1468.157Z" transform="translate(-4880.038 -1369.131)" fill="#e8c0a6"/>
        <path id="Path_3086" data-name="Path 3086" d="M4892.5,1465.138a.218.218,0,0,1-.206-.152,3.013,3.013,0,0,0-1.344-1.644c-.513-1.012,1.373.067,1.76,1.514A.218.218,0,0,1,4892.5,1465.138Z" transform="translate(-4887.256 -1366.322)" fill="#e8c0a6"/>
        <path id="Path_3087" data-name="Path 3087" d="M4903.69,1463.032a.217.217,0,0,1-.2-.145,3.921,3.921,0,0,0-1.362-1.8c-.4-1.061,1.318.221,1.772,1.66A.218.218,0,0,1,4903.69,1463.032Z" transform="translate(-4896.523 -1364.458)" fill="#e8c0a6"/>
        <path id="Path_3088" data-name="Path 3088" d="M4872.068,1478.787l11.8-.037a2.694,2.694,0,0,1-.321,1.024l-10.755.034A.762.762,0,0,1,4872.068,1478.787Z" transform="translate(-4871.678 -1379.39)" fill="#395b96"/>
        <path id="Path_3089" data-name="Path 3089" d="M4915.721,1194.322c-5.24-.261-14.351-3.212-18.341,3.411-4.369,7.233-3.434,22.658-3.056,30.112-5.77,1.8-8.849-.069-8.849-.069-2.332-15.27-10.135-50.071,16.827-45.041,0,0,18.106.14,18.106.14C4923.389,1189.057,4920.64,1194.257,4915.721,1194.322Z" transform="translate(-4880.443 -1134.21)" fill="#eb5648"/>
        <path id="Path_3090" data-name="Path 3090" d="M4947.123,1451.515l10.651-.034c-.014-1.7-.441-5.131-.088-7.067l-4.6.557c.12.932.423,2.953-1.166,3.424-2.016.6-4.195.4-5.458,1.931A.776.776,0,0,0,4947.123,1451.515Z" transform="translate(-4933.131 -1350.999)" fill="#f99370"/>
        <path id="Path_3091" data-name="Path 3091" d="M4957.649,1463.917a2.675,2.675,0,0,1-.319,1.024l-10.755.034a.763.763,0,0,1-.731-1c.4-1.151,1.759-2.85,6.716-3.124a13.305,13.305,0,0,0,4.557-.155A7.876,7.876,0,0,1,4957.649,1463.917Z" transform="translate(-4932.687 -1364.458)" fill="#1d3f70"/>
        <path id="Path_3092" data-name="Path 3092" d="M4957.368,1468.728a.218.218,0,0,1-.2-.135,2.3,2.3,0,0,0-1.139-1.276c-.564-.87,1.059-.255,1.542,1.111A.219.219,0,0,1,4957.368,1468.728Z" transform="translate(-4941.046 -1369.603)" fill="#e8c0a6"/>
        <path id="Path_3093" data-name="Path 3093" d="M4966.278,1465.709a.218.218,0,0,1-.206-.153,3.012,3.012,0,0,0-1.344-1.643c-.514-1.012,1.372.067,1.759,1.514A.218.218,0,0,1,4966.278,1465.709Z" transform="translate(-4948.266 -1366.794)" fill="#e8c0a6"/>
        <path id="Path_3094" data-name="Path 3094" d="M4977.471,1463.6a.218.218,0,0,1-.2-.145,3.926,3.926,0,0,0-1.362-1.8c-.4-1.061,1.318.222,1.773,1.66A.219.219,0,0,1,4977.471,1463.6Z" transform="translate(-4957.531 -1364.93)" fill="#e8c0a6"/>
        <path id="Path_3095" data-name="Path 3095" d="M4945.849,1479.358l11.8-.037a2.667,2.667,0,0,1-.32,1.024l-10.755.034A.762.762,0,0,1,4945.849,1479.358Z" transform="translate(-4932.687 -1379.863)" fill="#395b96"/>
        <path id="Path_3096" data-name="Path 3096" d="M4951.135,1185.147,4949.5,1196.4c-6.791,2.608-7.334,9.711-8.014,17.706C4938.445,1201.719,4938.815,1189.227,4951.135,1185.147Z" transform="translate(-4927.802 -1136.612)" fill="#ce3932"/>
        <path id="Path_3097" data-name="Path 3097" d="M4979.128,1196.584c-5.782,2.836-12.6-.948-16.516,6.793-3.167,6.78-1.523,19.8-.714,25.7-5.769,1.8-8.849-.069-8.849-.069-3.309-13.182-10.875-43.817,11.19-45.085,6.041-.145,13.975-.03,19.314-.309C4983.554,1183.61,4986.276,1193.076,4979.128,1196.584Z" transform="translate(-4935.397 -1135.341)" fill="#eb5648"/>
        <path id="Path_3098" data-name="Path 3098" d="M5005.363,1061.648a.18.18,0,0,1-.178-.2c.383-2.982,3.583-6.828,4-6.618.281.367-3.4,3.544-3.639,6.651A.18.18,0,0,1,5005.363,1061.648Z" transform="translate(-4981.79 -1028.849)" fill="#23659b"/>
        <path id="Path_3099" data-name="Path 3099" d="M5028.948,1037.3a17.922,17.922,0,0,1,.2,4.742c-8.9,1.034-14.51,1.042-25.327-.552,7-20.384-8.5-7.363,9.768-31.057l4.473.438C5023.113,1014.73,5026.348,1019.813,5028.948,1037.3Z" transform="translate(-4980.661 -992.147)" fill="#3a72aa"/>
        <path id="Path_3100" data-name="Path 3100" d="M4874.533,1107.166l23.965.187-4.634-17.563-23.819-.185Z" transform="translate(-4870.044 -1057.609)" fill="#163260"/>
        <rect id="Rectangle_501" data-name="Rectangle 501" width="1.19" height="23.966" transform="translate(4.481 50.66) rotate(-89.552)" fill="#234270"/>
        <path id="Path_3101" data-name="Path 3101" d="M5005.566,1090.659l.857.007,4.537,17.475,11.374.088-.009,1.19-12.171-.095.008-1.065Z" transform="translate(-4982.106 -1058.481)" fill="#0b274f"/>
        <path id="Path_3102" data-name="Path 3102" d="M5083.583,1028.425a18.6,18.6,0,0,1,6.872,18.38c-.588,3.793-3.019,7.386-6.783,8.432-1.861.726-10.522,1.849-10.1-1.213.142-.734.8-1,1.433-1.191,1.046-.359,2.125-.756,3.122-1.2,1.789-.909,4.085-1.755,4.488-3.747a13.245,13.245,0,0,0-4.48-12.291c.005,0-.017-.014.035.024C5073.473,1032.07,5078.853,1024.918,5083.583,1028.425Z" transform="translate(-5038.331 -1006.241)" fill="#f99370"/>
        <path id="Path_3103" data-name="Path 3103" d="M5094.887,1040.117a20.253,20.253,0,0,1-7.538,1.653s.5-3.045-1.7-4.318c12.514-9.335-5.223-13.443-1.7-27.276C5097.283,1010.516,5110.9,1030.794,5094.887,1040.117Z" transform="translate(-5046.527 -991.929)" fill="#3a72aa"/>
        <path id="Path_3104" data-name="Path 3104" d="M5043.068,1176.034s1.1-3.715,7.465-3.236l1.309,3.3Z" transform="translate(-5013.117 -1126.366)" fill="#f99370"/>
        <path id="Path_3105" data-name="Path 3105" d="M5099.214,1167.346c-.912.094-1.479.092-1.479.092s.5-3.045-1.7-4.318a12.051,12.051,0,0,0,1.261-.968A5.622,5.622,0,0,1,5099.214,1167.346Z" transform="translate(-5056.913 -1117.597)" fill="#23659b"/>
        <path id="Path_3106" data-name="Path 3106" d="M5100.122,1097.789a.182.182,0,0,1-.117-.318c5.563-4.868,2.9-10.087-.362-13.48-.16-.166.111-.422.269-.244C5103.378,1087.259,5105.984,1093.038,5100.122,1097.789Z" transform="translate(-5059.857 -1052.715)" fill="#23659b"/>
        <path id="Path_3107" data-name="Path 3107" d="M5112.921,1184.245c-1.028-.608,2.9-.278,5.906-1.666a.181.181,0,1,1,.135.335A19.617,19.617,0,0,1,5112.921,1184.245Z" transform="translate(-5070.74 -1134.478)" fill="#23659b"/>
        <path id="Path_3108" data-name="Path 3108" d="M5050.632,1014.995a1.353,1.353,0,0,1-1.279,1.189c-3.2-1.393-.949,2.945-2.272,3.374-1.113.361-1.233-1.084-2.2-1.171-1.4-.126-1.7.635-2.185.168-.682-.651.99-1.766.786-2.924-.144-.813-1.768-.01-1.733-1.68.039-1.641,1.94-4.085,2-4.16v0c1.791-.93,5.695-.381,5.695-.381a1.993,1.993,0,0,1,1.013.082A20.262,20.262,0,0,1,5050.632,1014.995Z" transform="translate(-5012.024 -991.162)" fill="#f4d4be"/>
        <path id="Path_3109" data-name="Path 3109" d="M5059.49,995.3l-.121,1.587s-.161,1.526-.184,4.365c-.031,3.991.961,3.534,2.354.757.765-1.526,2.323-5.167,2.323-5.167l.233-2.791Z" transform="translate(-5026.444 -978.599)" fill="#f99370"/>
        <path id="Path_3110" data-name="Path 3110" d="M5065.878,962.244c-.019.075-.04.151-.066.224a23.975,23.975,0,0,0-.818,4.5,7.546,7.546,0,0,1-4.573.888c.125-2.979.411-7.437,2.718-8.25A2.223,2.223,0,0,1,5065.878,962.244Z" transform="translate(-5027.465 -950.043)" fill="#e57d61"/>
        <path id="Path_3111" data-name="Path 3111" d="M5034.037,918.08c-5.774-.737-6.763,8.359-2.86,11.738Z" transform="translate(-5001.348 -915.742)" fill="#662948"/>
        <path id="Path_3112" data-name="Path 3112" d="M5042.226,927.014c.263,1.99.263,4.321-.862,6.026h0c-3.08,4.938-13.117,1.661-10.314-4.2a5.855,5.855,0,0,0,.683-2.433C5031.884,918.282,5041.476,920.062,5042.226,927.014Z" transform="translate(-5002.772 -918.209)" fill="#f99370"/>
        <path id="Path_3113" data-name="Path 3113" d="M5053.574,958.98c-.272-.278.171-.7.436-.414S5053.839,959.266,5053.574,958.98Z" transform="translate(-5021.733 -949.175)" fill="#c16256"/>
        <path id="Path_3114" data-name="Path 3114" d="M5038.882,960.813c-.273-.278.171-.7.436-.414S5039.148,961.1,5038.882,960.813Z" transform="translate(-5009.584 -950.691)" fill="#c16256"/>
        <path id="Path_3115" data-name="Path 3115" d="M5043.55,964.466c-.509.077-1.245-.06-.759-.665a3.358,3.358,0,0,0,.519-1.714.114.114,0,0,1,.227.01,3.489,3.489,0,0,1-.584,1.864c-.059.059-.12.14-.078.191a1.021,1.021,0,0,0,1.023-.054.113.113,0,0,1,.158.03C5044.139,964.365,5043.727,964.413,5043.55,964.466Z" transform="translate(-5012.756 -952.079)" fill="#c16256"/>
        <path id="Path_3116" data-name="Path 3116" d="M5052.653,926.482c.263,1.99.263,4.321-.862,6.026h0a11.015,11.015,0,0,0,.35-3.744l-.7-.909c-7.245-.153-8.267-5.616-8.267-5.616C5046.286,917.906,5052.311,921.9,5052.653,926.482Z" transform="translate(-5013.2 -917.677)" fill="#e57d61"/>
        <path id="Path_3117" data-name="Path 3117" d="M5046.408,915.347s1.036,5.379,7.59,5.755l1.771-1.8C5056.623,914.63,5051.092,909.8,5046.408,915.347Z" transform="translate(-5015.878 -911.464)" fill="#662948"/>
        <path id="Path_3118" data-name="Path 3118" d="M5093.033,951.471c.215,2.276-2.667,2.514-2.83.234C5089.989,949.43,5092.87,949.192,5093.033,951.471Z" transform="translate(-5052.083 -942.068)" fill="#f99370"/>
        <path id="Path_3119" data-name="Path 3119" d="M5095.674,953.807h0c-.287-.9-2.032.045-1.293.085,0-.04.776-.494,1.014-.093-.762.351-1.026,1.761-.583,1.308a1.542,1.542,0,0,1,.7-1.111C5095.791,956.052,5096.071,954.63,5095.674,953.807Z" transform="translate(-5055.396 -944.997)" fill="#c16256"/>
        <path id="Path_3120" data-name="Path 3120" d="M5099.047,966.054a.255.255,0,0,1-.489.146A.255.255,0,0,1,5099.047,966.054Z" transform="translate(-5058.989 -955.3)" fill="#f4d4be"/>
        <path id="Path_3121" data-name="Path 3121" d="M5054.023,1072.361a.509.509,0,0,1-1.018-.008A.509.509,0,0,1,5054.023,1072.361Z" transform="translate(-5021.333 -1042.939)" fill="#23659b"/>
        <path id="Path_3122" data-name="Path 3122" d="M5048.09,1092.964a.509.509,0,0,1-1.017-.008A.509.509,0,0,1,5048.09,1092.964Z" transform="translate(-5016.428 -1059.975)" fill="#23659b"/>
        <path id="Path_3123" data-name="Path 3123" d="M5047.946,1111.545a.509.509,0,0,1-1.017-.008A.509.509,0,0,1,5047.946,1111.545Z" transform="translate(-5016.309 -1075.34)" fill="#23659b"/>
        <path id="Path_3124" data-name="Path 3124" d="M4906.184,1430.885c.082,1.6.129,2.56.129,2.56-5.769,1.8-8.849-.069-8.849-.069s-.108-.794-.344-2.177C4897.188,1431.235,4900.775,1433.03,4906.184,1430.885Z" transform="translate(-4892.433 -1339.811)" fill="#ce3932"/>
        <path id="Path_3125" data-name="Path 3125" d="M4978.458,1436.268c-5.769,1.8-8.849-.069-8.849-.069s-.187-.74-.5-2.019c0,0,3.16,1.671,9.068.071C4978.337,1435.514,4978.458,1436.268,4978.458,1436.268Z" transform="translate(-4951.958 -1342.536)" fill="#ce3932"/>
        <path id="Path_3126" data-name="Path 3126" d="M5044.153,1181.1c-1.132.026,3.012-2.763,4.235-2.064a.181.181,0,0,1-.163.2A8.776,8.776,0,0,0,5044.153,1181.1Z" transform="translate(-5013.854 -1131.466)" fill="#e57d61"/>
        <path id="Path_3127" data-name="Path 3127" d="M5054.371,1185.594c-.856-.373,1.818-.979,3.142-1.325a.181.181,0,1,1,.07.354A30.244,30.244,0,0,0,5054.371,1185.594Z" transform="translate(-5022.325 -1135.883)" fill="#e57d61"/>
        <path id="Path_3128" data-name="Path 3128" d="M5051.6,952.784a.127.127,0,0,1-.079-.028,1.648,1.648,0,0,0-1.406-.384.129.129,0,0,1-.072-.247,1.9,1.9,0,0,1,1.639.43.129.129,0,0,1-.082.229Z" transform="translate(-5018.807 -943.893)" fill="#c16256"/>
        <path id="Path_3129" data-name="Path 3129" d="M5048.9,977.009a.128.128,0,0,1,.072-.043,1.646,1.646,0,0,0,1.2-.831.129.129,0,0,1,.236.1,1.9,1.9,0,0,1-1.38.98.129.129,0,0,1-.125-.209Z" transform="translate(-5017.917 -963.719)" fill="#c16256"/>
        <path id="Path_3130" data-name="Path 3130" d="M5036.989,954.039a.128.128,0,0,1-.1-.2,1.361,1.361,0,0,1,1.093-.575.129.129,0,0,1-.012.257,1.123,1.123,0,0,0-.869.464A.129.129,0,0,1,5036.989,954.039Z" transform="translate(-5007.984 -944.867)" fill="#c16256"/>
      </g>
      <g id="_1" data-name="1" transform="translate(0 115.25)">
        <path id="Path_3131" data-name="Path 3131" d="M4368.74,1769.8a3.667,3.667,0,0,0,2.45-.547l-1.363-.54Z" transform="translate(-4303.357 -1734.412)" fill="#f99370"/>
        <path id="Path_3132" data-name="Path 3132" d="M4036.315,2200.323l-.189-.1c0,.132-.164.592-.3.592l-5.6.115c-.133,0-.214-.249-.214-.381l-.478-.136a2.862,2.862,0,0,1,.44-1.788c1.362-1.806-.264-9.881-.217-11.991-.336-.577,5.9-.124,5.985-.261a.24.24,0,0,1,.24.259l-.734,9.228C4034.92,2197.612,4036.268,2198.671,4036.315,2200.323Z" transform="translate(-4022.872 -2079.736)" fill="#f99370"/>
        <path id="Path_3133" data-name="Path 3133" d="M4168.447,2200.9H4157.29c-.973-.039-.966-1.03-.787-1.8.614-2.77-.472-9.131-.672-11.979a.885.885,0,0,1,.882-.975c8.232-.083,5.429-1.218,4.945,7.651-.246,4.513,3.177,4.153,5.287,4.494C4168.333,2198.389,4170.656,2200.28,4168.447,2200.9Z" transform="translate(-4127.301 -2079.504)" fill="#f99370"/>
        <path id="Path_3134" data-name="Path 3134" d="M4157.158,2248.666c.03.545.3,1.168.935,1.154h11.573c2.73-1.01-1.192-4.622-6.535-4.6a14.841,14.841,0,0,1-5.365.206A4.825,4.825,0,0,0,4157.158,2248.666Z" transform="translate(-4128.379 -2128.429)" fill="#103663"/>
        <path id="Path_3135" data-name="Path 3135" d="M4029.236,2249.211h4.947c2.41-.328.688-4.6-2.473-4.726C4028.531,2244.354,4026.827,2248.887,4029.236,2249.211Z" transform="translate(-4021.685 -2127.819)" fill="#103663"/>
        <path id="Path_3136" data-name="Path 3136" d="M4212.427,2252.971a.246.246,0,0,0,.228-.154,2.6,2.6,0,0,1,1.281-1.443c.625-.985-1.192-.283-1.736,1.259A.247.247,0,0,0,4212.427,2252.971Z" transform="translate(-4173.899 -2133.142)" fill="#e8c0a6"/>
        <path id="Path_3137" data-name="Path 3137" d="M4201.387,2249.6a.246.246,0,0,0,.235-.173,3.4,3.4,0,0,1,1.512-1.86c.567-1.145-1.546.081-1.981,1.715A.247.247,0,0,0,4201.387,2249.6Z" transform="translate(-4164.771 -2129.998)" fill="#e8c0a6"/>
        <path id="Path_3138" data-name="Path 3138" d="M4189.009,2247.153a.246.246,0,0,0,.232-.165,4.423,4.423,0,0,1,1.531-2.041C4191.4,2243.257,4187.937,2246.7,4189.009,2247.153Z" transform="translate(-4154.568 -2127.821)" fill="#e8c0a6"/>
        <path id="Path_3139" data-name="Path 3139" d="M4037.542,2249.358a4.391,4.391,0,0,1,3.49-.021c1.435-.309-1.958-1.517-3.614-.436A.247.247,0,0,0,4037.542,2249.358Z" transform="translate(-4029.291 -2131.108)" fill="#e8c0a6"/>
        <path id="Path_3140" data-name="Path 3140" d="M4170.6,2265.128h-13.318a3.025,3.025,0,0,0,.365,1.155h12.143A.858.858,0,0,0,4170.6,2265.128Z" transform="translate(-4128.508 -2144.891)" fill="#0f2e54"/>
        <path id="Path_3141" data-name="Path 3141" d="M4029.412,2266.282h4.946a1.094,1.094,0,0,0,1.1-1.155h-7.14A1.094,1.094,0,0,0,4029.412,2266.282Z" transform="translate(-4021.861 -2144.891)" fill="#0f2e54"/>
        <path id="Path_3142" data-name="Path 3142" d="M4179.285,1703.512c10.892,8.294,24.394,4.9,32.121-.873l.719-3.26c-17.822,1.378-22.175-7.393-33.562-11.375l.991,3.594S4179.164,1703.247,4179.285,1703.512Z" transform="translate(-4146.101 -1667.672)" fill="#ce3932"/>
        <path id="Path_3143" data-name="Path 3143" d="M4053.556,1872.019a16.687,16.687,0,0,1-8.852.373q.089-.85.16-1.725c1.586-19.6-3.722-47.221-4.267-49.232a0,0,0,0,0,0,0c-.025-.1-.041-.133-.042-.1-3.484,22.713-6.936,41.548-8.555,50.341-4.136,1.929-8.333-.832-8.333-.832-.026-.794-.047-1.573-.065-2.347-.955-15.26,1.228-62.089,9.13-71.233,9.167,4.536,21.77,5.244,21.77,5.244C4056.609,1842.423,4056.506,1861.5,4053.556,1872.019Z" transform="translate(-4017.791 -1758.014)" fill="#1d3f70"/>
        <path id="Path_3144" data-name="Path 3144" d="M4145.179,1641.131c.522-2.756,1.791-7.715-.287-8.938a2.23,2.23,0,0,0-3.343,2.04,25.154,25.154,0,0,1-.78,6.325C4136.46,1641.1,4148.114,1647.206,4145.179,1641.131Z" transform="translate(-4114.05 -1621.294)" fill="#f99370"/>
        <path id="Path_3145" data-name="Path 3145" d="M4147.974,1633.81c0,.078,0,.157,0,.234a24.79,24.79,0,0,1-.4,4.742,7.53,7.53,0,0,0,4.238,1.11c.564-2.933,1.5-6.545-.494-7.892A2.225,2.225,0,0,0,4147.974,1633.81Z" transform="translate(-4120.479 -1621.104)" fill="#e57d61"/>
        <path id="Path_3146" data-name="Path 3146" d="M4177.126,1957.009c5.183-24.118-.09-55.777-.881-56.009C4175.839,1901.189,4180.445,1933.006,4177.126,1957.009Z" transform="translate(-4144.164 -1843.796)" fill="#163356"/>
        <path id="Path_3147" data-name="Path 3147" d="M4049.949,1950.089l.365-.162c4.045-25.664,8.479-56.386,7.918-56.825C4057.624,1893.187,4052.867,1923.82,4049.949,1950.089Z" transform="translate(-4039.752 -1837.265)" fill="#163356"/>
        <path id="Path_3148" data-name="Path 3148" d="M4046.794,1715.17c6.1,4.606,21.054,6.041,27.147,3.841,2.054-.868,2.341-7.769,2.1-14.547-.365-9.034-2.542-15.524-6.722-21.561a7.334,7.334,0,0,0-1.331-.492c.02.825-.168,3.211-4.41-.576-.019.016-1.6.068-1.6.068-6.418,3.2-9.164,10-11.167,17.751C4047.742,1711.544,4045.584,1713.375,4046.794,1715.17Z" transform="translate(-4036.86 -1662.57)" fill="#eb5648"/>
        <path id="Path_3149" data-name="Path 3149" d="M4128.752,1985.906l-1.7.243c1.585-19.6-3.722-47.221-4.267-49.232.332.81,2.5,6.345,4.106,16.632C4128.642,1964.719,4129.187,1980.243,4128.752,1985.906Z" transform="translate(-4099.98 -1873.496)" fill="#163356"/>
        <path id="Path_3150" data-name="Path 3150" d="M4136.161,1681.573c1.4,2.376,7.595,6.095,7.34,1a3.591,3.591,0,0,0-1.33-.493c.009.134.252,3.638-4.412-.576A3.4,3.4,0,0,0,4136.161,1681.573Z" transform="translate(-4111.039 -1662.24)" fill="#ce3932"/>
        <path id="Path_3151" data-name="Path 3151" d="M4146.512,2218.064a16.678,16.678,0,0,0,8.852-.373l.548-2.2s-5.25,1.819-9.154-.192Q4146.645,2216.689,4146.512,2218.064Z" transform="translate(-4119.599 -2103.687)" fill="#163356"/>
        <path id="Path_3152" data-name="Path 3152" d="M4024.6,2208.754c.019.774.04,1.555.065,2.347,0,0,4.2,2.762,8.333.832,0,0,.136-.722.379-2.046A12.217,12.217,0,0,1,4024.6,2208.754Z" transform="translate(-4018.79 -2098.276)" fill="#163356"/>
        <path id="Path_3153" data-name="Path 3153" d="M4148.406,1722.151a10.194,10.194,0,0,0,3.068-.383l-.24-.694a13.244,13.244,0,0,1-6.241-.012l-.145.72A18.2,18.2,0,0,0,4148.406,1722.151Z" transform="translate(-4118.223 -1695.007)" fill="#ce3932"/>
        <path id="Path_3154" data-name="Path 3154" d="M4148.1,1737.6a11.336,11.336,0,0,0,3.917-.59l-.273-.682a13.151,13.151,0,0,1-6.744.231l-.141.72A17.006,17.006,0,0,0,4148.1,1737.6Z" transform="translate(-4118.231 -1707.63)" fill="#ce3932"/>
        <path id="Path_3155" data-name="Path 3155" d="M4148.319,1753.5a10.3,10.3,0,0,0,3.717-.644l-.286-.677a10.563,10.563,0,0,1-6.941-.008l-.243.693A11.38,11.38,0,0,0,4148.319,1753.5Z" transform="translate(-4117.989 -1720.735)" fill="#ce3932"/>
        <path id="Path_3156" data-name="Path 3156" d="M4183.21,1603.926a11.993,11.993,0,0,0-.981-3.924l-1.311.728Z" transform="translate(-4148.049 -1594.903)" fill="#8e4a35"/>
        <path id="Path_3157" data-name="Path 3157" d="M4142.732,1603.025a6.646,6.646,0,0,1-7.71,1.4h0a4.509,4.509,0,0,1-.521-.335h0c-7.9-7.149,1.651-20.02,6.866-9.492C4143.094,1597.547,4145.917,1599.031,4142.732,1603.025Z" transform="translate(-4107.174 -1587.139)" fill="#f99370"/>
        <path id="Path_3158" data-name="Path 3158" d="M4173.174,1625.955a.3.3,0,1,0-.4.152A.3.3,0,0,0,4173.174,1625.955Z" transform="translate(-4141.168 -1616.014)" fill="#c16256"/>
        <path id="Path_3159" data-name="Path 3159" d="M4187.672,1622.756a.3.3,0,1,0-.4.152A.3.3,0,0,0,4187.672,1622.756Z" transform="translate(-4153.156 -1613.369)" fill="#c16256"/>
        <path id="Path_3160" data-name="Path 3160" d="M4182.88,1628.573a1.238,1.238,0,0,1-.51-.011.114.114,0,0,1,.059-.22,1.021,1.021,0,0,0,.984-.292c.023-.062-.061-.118-.137-.154-.664-.316-1.16-1.512-1.181-1.562a.114.114,0,0,1,.211-.086c0,.012.483,1.165,1.068,1.443.318.151.283.356.253.438A.979.979,0,0,1,4182.88,1628.573Z" transform="translate(-4149.015 -1616.547)" fill="#c16256"/>
        <path id="Path_3161" data-name="Path 3161" d="M4141.169,1593.625c-1.678-.773-4.6.162-6.052.226a4.787,4.787,0,0,1-1.979,4.361c-.093,2.292-.417,3.306,2.077,5.966h0a4.466,4.466,0,0,1-.521-.335h0C4127.087,1597.03,4135.861,1584.269,4141.169,1593.625Z" transform="translate(-4107.368 -1586.894)" fill="#e57d61"/>
        <path id="Path_3162" data-name="Path 3162" d="M4135.071,1572.273c-1.033-1.795-3.865-2.652-6.146-.248-1.755,1.85-3.751,1.94-3.615,3.786-3.619,1.872-1.566,5.849-1.566,5.849l1.847-.316a5.681,5.681,0,0,0,1.836-4.338h0a4.879,4.879,0,0,0,1.407-.183,9.064,9.064,0,0,1,4.936-.208C4135.34,1577.1,4136.226,1574.278,4135.071,1572.273Z" transform="translate(-4100.292 -1570.548)" fill="#8e4a35"/>
        <path id="Path_3163" data-name="Path 3163" d="M4125.086,1633.377a1.456,1.456,0,1,0,.922-2.068A1.623,1.623,0,0,0,4125.086,1633.377Z" transform="translate(-4101.821 -1620.758)" fill="#f99370"/>
        <path id="Path_3164" data-name="Path 3164" d="M4129.217,1635.234c-.031-.01-.749-.245-1.126.142a.734.734,0,0,0-.187.383h0c0,.015-.006.028-.009.043h0a2.472,2.472,0,0,0,.191,1.14.116.116,0,0,0,.127.073l.02-.005a.114.114,0,0,0,.068-.146,2.535,2.535,0,0,1-.189-.931,1.563,1.563,0,0,1,1.035.807.115.115,0,0,0,.122.062.121.121,0,0,0,.03-.01.114.114,0,0,0,.053-.152,1.758,1.758,0,0,0-1.2-.939.471.471,0,0,1,.1-.168c.277-.284.884-.087.89-.085a.114.114,0,1,0,.073-.216Z" transform="translate(-4104.194 -1623.97)" fill="#c16256"/>
        <path id="Path_3165" data-name="Path 3165" d="M4166.121,1618.947a.14.14,0,0,1-.074-.009.134.134,0,0,1-.072-.174,2.386,2.386,0,0,1,1.659-1.3.134.134,0,1,1,.059.261,2.113,2.113,0,0,0-1.47,1.138A.136.136,0,0,1,4166.121,1618.947Z" transform="translate(-4135.684 -1609.343)" fill="#c16256"/>
        <path id="Path_3166" data-name="Path 3166" d="M4184.188,1616.451a.134.134,0,0,1-.116-.037,1.585,1.585,0,0,0-1.1-.286.134.134,0,1,1-.029-.266,1.826,1.826,0,0,1,1.319.362.134.134,0,0,1,0,.189A.136.136,0,0,1,4184.188,1616.451Z" transform="translate(-4149.623 -1608.011)" fill="#c16256"/>
        <path id="Path_3167" data-name="Path 3167" d="M4176.917,1641.5l-2.879-1.3s-.1,1.537,1.035,1.9A1.8,1.8,0,0,0,4176.917,1641.5Z" transform="translate(-4142.358 -1628.142)" fill="#f9f8f3"/>
        <path id="Path_3168" data-name="Path 3168" d="M4176.309,1640.994a.136.136,0,0,1-.077-.01l-2.879-1.3a.134.134,0,1,1,.111-.244l2.879,1.3a.133.133,0,0,1-.034.254Z" transform="translate(-4141.728 -1627.503)" fill="#c16256"/>
        <path id="Path_3169" data-name="Path 3169" d="M4471.014,1620.286l-.437-.7-8.69,5.435a1.3,1.3,0,0,1-.567,1.405,1.324,1.324,0,0,1-1.794-.391,1.3,1.3,0,0,1,1.924-1.71l8.69-5.435-.437-.7-11.329,2.144a4.324,4.324,0,0,0-2.644,1.637l-3.415,4.507,1.823,2.9,1.822,2.9,5.553-1.1a4.325,4.325,0,0,0,2.629-1.66Z" transform="translate(-4372.466 -1609.949)" fill="#fff"/>
        <path id="Path_3170" data-name="Path 3170" d="M4001.353,1715.214l-.359-.572a4.542,4.542,0,0,1,1.441-6.27l74.545-46.621,5.2,8.28-74.544,46.621A4.566,4.566,0,0,1,4001.353,1715.214Z" transform="translate(-3998.695 -1645.964)" fill="#3a72aa"/>
        <path id="Path_3171" data-name="Path 3171" d="M4440.9,1668.146l-3.792-6.035a1.61,1.61,0,0,1,.512-2.222h0a1.618,1.618,0,0,1,2.227.51l3.792,6.035a1.61,1.61,0,0,1-.511,2.222h0A1.618,1.618,0,0,1,4440.9,1668.146Z" transform="translate(-4359.689 -1644.219)" fill="#255084"/>
        <path id="Path_3172" data-name="Path 3172" d="M4060.694,1875.784l-1.04.65a7.412,7.412,0,0,0,1.656,1.294,17.742,17.742,0,0,0,2.3.975c1.148,1.461-3.213-.078-3.744-.146l-.007.019a25.814,25.814,0,0,0,3.249,2.09c.838,1.79-3.485-1.005-3.98-1.237l0,.009a15.062,15.062,0,0,0,2.83,2.363c.685,1.885-3.457-1.3-3.866-1.693l-.014.007a15.545,15.545,0,0,0,1.907,2.245c.4,1.875-2.784-1.441-3.107-1.844a9.888,9.888,0,0,1-3.121-3.453c-.346-.645,1.344-2.262,2.074-2.192,0,0,1.926.134,2.249.2A14.861,14.861,0,0,1,4060.694,1875.784Z" transform="translate(-4042.858 -1822.19)" fill="#f99370"/>
        <path id="Path_3173" data-name="Path 3173" d="M4375.091,1765.833c1.022,1.059,2.227-.4.66-.772l.018.018C4375.207,1764.514,4374.552,1765.317,4375.091,1765.833Z" transform="translate(-4308.443 -1731.244)" fill="#f99370"/>
        <path id="Path_3174" data-name="Path 3174" d="M4379.7,1762.693c1.375.978,2.05-.959.587-.873.032.006-.132-.05-.1-.044C4379.518,1761.33,4379.1,1762.317,4379.7,1762.693Z" transform="translate(-4312.184 -1728.579)" fill="#f99370"/>
        <path id="Path_3175" data-name="Path 3175" d="M4384.33,1759.619l.535.174c.755.216.794-.918.159-1.079l-.535-.174C4383.734,1758.324,4383.7,1759.458,4384.33,1759.619Z" transform="translate(-4315.881 -1725.975)" fill="#f99370"/>
        <path id="Path_3176" data-name="Path 3176" d="M4388.62,1756.54l.536.174c.756.216.794-.918.159-1.079l-.534-.174C4388.024,1755.245,4387.985,1756.379,4388.62,1756.54Z" transform="translate(-4319.429 -1723.429)" fill="#f99370"/>
        <path id="Path_3177" data-name="Path 3177" d="M4016.162,1682.1s-10.109-.946-19.115,8.4c-6.686,6.938-10.95,18.743,4.869,27.2a3.747,3.747,0,0,1,2.093-2.247s-2.851-6.683-2.063-10.273c.871-3.971,5.772-7.767,9.538-12.44C4014.77,1688.659,4016.162,1682.1,4016.162,1682.1Z" transform="translate(-3991.04 -1662.769)" fill="#ce3932"/>
      </g>
    </g>
  </g>
</svg>
