<svg xmlns="http://www.w3.org/2000/svg" width="287.989" height="220.565" viewBox="0 0 287.989 220.565">
  <g id="Group_2045" data-name="Group 2045" transform="translate(-6414.994 -3108.804)">
    <rect id="Rectangle_562" data-name="Rectangle 562" width="130.177" height="212.08" rx="15" transform="translate(6489.996 3108.803)" fill="#333642"/>
    <rect id="Rectangle_563" data-name="Rectangle 563" width="105.552" height="171.942" transform="translate(6502.417 3125.347)" fill="#fff"/>
    <path id="Path_4922" data-name="Path 4922" d="M2631.013,682.226h-28.567A1.447,1.447,0,0,1,2601,680.78h0a1.447,1.447,0,0,1,1.446-1.447h28.567a1.447,1.447,0,0,1,1.446,1.447h0A1.447,1.447,0,0,1,2631.013,682.226Z" transform="translate(3937.27 2434.442)" fill="#fff"/>
    <path id="Rectangle_564" data-name="Rectangle 564" d="M3.651,0H27.808a3.651,3.651,0,0,1,3.651,3.651v0A3.651,3.651,0,0,1,27.808,7.3H3.651A3.651,3.651,0,0,1,0,3.651v0A3.651,3.651,0,0,1,3.651,0Z" transform="translate(6538.27 3305.445)" fill="#fff"/>
    <path id="Path_4923" data-name="Path 4923" d="M3006.763,917.874h0a2.56,2.56,0,0,0,1.342-3.363l-1.577-3.672a2.561,2.561,0,0,0-3.363-1.342h0a2.56,2.56,0,0,0-1.342,3.363l1.578,3.672A2.56,2.56,0,0,0,3006.763,917.874Z" transform="translate(3645.303 2266.851)" fill="#ffb89c"/>
    <path id="Path_4924" data-name="Path 4924" d="M3188.786,1194.659h0a2.561,2.561,0,0,0,1.342-3.363l-1.578-3.672a2.561,2.561,0,0,0-3.364-1.342h0a2.561,2.561,0,0,0-1.342,3.363l1.578,3.672A2.56,2.56,0,0,0,3188.786,1194.659Z" transform="translate(3512.646 2065.131)" fill="#ffb89c"/>
    <path id="Path_4925" data-name="Path 4925" d="M2150.409,1176.991h0a3.242,3.242,0,0,0,3.347-3.134l.167-5.058a3.242,3.242,0,0,0-3.134-3.347h0a3.242,3.242,0,0,0-3.347,3.134l-.167,5.058A3.243,3.243,0,0,0,2150.409,1176.991Z" transform="translate(4267.945 2080.161)" fill="#ffb89c"/>
    <path id="Path_4926" data-name="Path 4926" d="M3108.466,956.587s12.24,19.109,8.243,23.855-14.238,6.744-17.485-5.87-3.747-17.86-3.747-17.86Z" transform="translate(3576.896 2232.38)" fill="#333642"/>
    <rect id="Rectangle_565" data-name="Rectangle 565" width="8.559" height="2.659" transform="translate(6670.243 3207.25)" fill="#ccc9c4"/>
    <path id="Path_4927" data-name="Path 4927" d="M3096.9,1007.69c-.172,5.138-6.9,5.419-6.725.28l.338-10.47,6.659-.729Z" transform="translate(3580.764 2203.094)" fill="#ffb89c"/>
    <path id="Path_4928" data-name="Path 4928" d="M3024.542,965.346s-11.75-9.6-12.085-28.164l-5.628.184s1.7,29.468,15.543,34.307Z" transform="translate(3641.502 2246.523)" fill="#ffb53e"/>
    <path id="Path_4929" data-name="Path 4929" d="M3059.315,1111.713s1.648,3.5-.909,18.713h21.261a14.489,14.489,0,0,0-5.228-13Z" transform="translate(3603.913 2119.325)" fill="#f9aa1a"/>
    <path id="Path_4930" data-name="Path 4930" d="M3052.406,1040.959s-5.346,4.858-3.03,10.8c.764,1.962,1.9,6.369,1.9,6.369l3.012,8.963,13.971-3.585,5.506-18.034-3.017-10.289-16.19.772Z" transform="translate(3610.919 2175.1)" fill="#ffb53e"/>
    <path id="Path_4931" data-name="Path 4931" d="M3070.6,1168.739c-1.285,12.5,5.888,18.154,10.134,27.022,1.39,2.9,8.044,22.932,10.208,39.462l4.509-3.628c-1.716-19.227-1.354-18.724-6.6-32.713,0,0-3.133-11.885-6.914-30.394Z" transform="translate(3595.141 2077.947)" fill="#ffb89c"/>
    <path id="Path_4932" data-name="Path 4932" d="M3030.6,1169.277s-.534,24.686-.941,26.184-.277,19.407-3.8,30.8-4.672,12.544-4.672,12.544l7.292-6.642c6.339-19.463,8.87-13.827,8.295-36.577,0,0,1.447-6.486,5.357-25.039Z" transform="translate(3631.032 2077.373)" fill="#ffb89c"/>
    <path id="Path_4933" data-name="Path 4933" d="M3121.595,1076.584l4.339-2.712s-11.727-41.043-20.681-41.879-6.6,15.035-6.6,15.035l5.283-3.412C3110.625,1047.941,3116.606,1063.083,3121.595,1076.584Z" transform="translate(3574.786 2177.448)" fill="#ffb53e"/>
    <path id="Path_4934" data-name="Path 4934" d="M3081.577,1024l1.875,3.423-3.959,3.033-.166-3.735Z" transform="translate(3588.666 2183.249)" fill="#f2f2f2"/>
    <path id="Path_4935" data-name="Path 4935" d="M3101.221,1024l-6.684,3.423,1.042,3.82s7.136-5.085,7.432-5.085S3101.221,1024,3101.221,1024Z" transform="translate(3577.581 2183.249)" fill="#f2f2f2"/>
    <path id="Path_4936" data-name="Path 4936" d="M3044.28,1136.749s-8.536,29.742-6.6,39.366c6.442,3.083,22.324,3.417,30.078,1.025,0,0,.621-29.468-5.769-37.3C3058.835,1135.969,3044.28,1136.749,3044.28,1136.749Z" transform="translate(3619.226 2101.126)" fill="#ffb53e"/>
    <path id="Path_4937" data-name="Path 4937" d="M3007.7,1412.02h-1.475l-.5-5.524-2.983,5.524h-10.51c-.585-1.443,3.3-2.614,6.9-4.238l4.894-4.229,1.751-2.859,1.515.132c1.046.714,1.2,2.531,1.136,3.615Z" transform="translate(3652.178 1908.716)" fill="#333642"/>
    <path id="Path_4938" data-name="Path 4938" d="M3026,1393.332s-3.594,8.8-8.161,6.956l4.319-5.45,2.181-4.427Z" transform="translate(3633.479 1916.21)" fill="#ffb89c"/>
    <path id="Path_4939" data-name="Path 4939" d="M3128.587,1411.814h-1.475l-1.1-5.472-2.38,5.472h-10.51c-.743-1.429,3.012-2.589,6.437-4.2l4.433-4.189,1.44-2.832,1.53.131c1.124.708,1.474,2.507,1.53,3.58Z" transform="translate(3564.105 1908.788)" fill="#333642"/>
    <path id="Path_4940" data-name="Path 4940" d="M3144.515,1393.3s-2.633,8.72-7.4,6.89l3.724-5.4,1.7-4.384Z" transform="translate(3546.552 1916.21)" fill="#ffb89c"/>
    <path id="Path_4941" data-name="Path 4941" d="M3086.989,964.174s-1.258-6.963-.677-9.005l.733-8.319c.582-2.042,2.167-3.891,4.1-3.678l4.73.521a3.717,3.717,0,0,1,2.862,4.579l-3.843,11.888C3094.308,962.2,3091.95,964.675,3086.989,964.174Z" transform="translate(3583.687 2242.17)" fill="#ffb89c"/>
    <path id="Path_4942" data-name="Path 4942" d="M3075.317,967.353l-.127,0c-2.784-.307-5.24-2.9-4.933-5.685l1.431-12.987a1.306,1.306,0,0,1,1.438-1.152l9.442,1.041c.712.079,2.1.827,2.023,1.539L3082.705,961A6.831,6.831,0,0,1,3075.317,967.353Z" transform="translate(3595.295 2238.99)" fill="#ffb89c"/>
    <ellipse id="Ellipse_189" data-name="Ellipse 189" cx="9.217" cy="6.199" rx="9.217" ry="6.199" transform="translate(6661.032 3184.651) rotate(-17.584)" fill="#333642"/>
    <ellipse id="Ellipse_190" data-name="Ellipse 190" cx="4.996" cy="5.932" rx="4.996" ry="5.932" transform="matrix(0.869, -0.495, 0.495, 0.869, 6673.026, 3189.158)" fill="#333642"/>
    <ellipse id="Ellipse_191" data-name="Ellipse 191" cx="4.996" cy="8.55" rx="4.996" ry="8.55" transform="matrix(0.409, -0.912, 0.912, 0.409, 6667.591, 3188.302)" fill="#333642"/>
    <path id="Path_4943" data-name="Path 4943" d="M3120.438,987.9c-.792,1.261-2.084,1.874-2.887,1.37a1.1,1.1,0,0,1-.214-.175c-.583-.61-.52-1.885.194-3.021.792-1.261,2.084-1.875,2.887-1.37S3121.23,986.64,3120.438,987.9Z" transform="translate(3561.251 2212.017)" fill="#ffb89c"/>
    <rect id="Rectangle_566" data-name="Rectangle 566" width="41.085" height="38.238" rx="10" transform="translate(6629.55 3141.376)" fill="#f65066"/>
    <path id="Path_4944" data-name="Path 4944" d="M3017.683,919.261h0a1,1,0,0,0,.7-1.229l-.913-3.311a1,1,0,0,0-1.229-.7h0a1,1,0,0,0-.7,1.229l.913,3.311A1,1,0,0,0,3017.683,919.261Z" transform="translate(3635.179 2263.427)" fill="#ffb89c"/>
    <path id="Path_4945" data-name="Path 4945" d="M2499.245,1163.087l6.435-8.431a22.178,22.178,0,0,1-9.866-6.161,3.648,3.648,0,0,0-3.107,5.559l-.008,0,.086.118c.044.066.091.129.14.193Z" transform="translate(4016.588 2092.518)" fill="#f65066"/>
    <rect id="Rectangle_567" data-name="Rectangle 567" width="93.836" height="85.7" transform="translate(6507.896 3150.298)" fill="#a6bacc"/>
    <path id="Path_4946" data-name="Path 4946" d="M2389.056,1040.651h0a1.012,1.012,0,0,1-1.229-.726l-.444-1.729a1.013,1.013,0,0,1,.727-1.229h0a1.013,1.013,0,0,1,1.229.726l.444,1.729A1.012,1.012,0,0,1,2389.056,1040.651Z" transform="translate(4092.977 2173.823)" fill="#ffb89c"/>
    <path id="Path_4947" data-name="Path 4947" d="M2166.566,1016.465c-7.246,8.006-13.52,15.666-13.913,32.491h-5.7c-2.768-18.905,6.15-37.289,16.07-44.547Z" transform="translate(4268.547 2197.529)" fill="#6b433b"/>
    <path id="Path_4948" data-name="Path 4948" d="M2334.407,1018.957c-.285,3.829-4.292,12.443-7.846,5.43-3.259-6.428-4.155-17.3-11.986-17.564l3.926,16.871s10.4,28.36,22.3-1.693Z" transform="translate(4146.015 2195.768)" fill="#6b433b"/>
    <path id="Path_4949" data-name="Path 4949" d="M2208.71,1151.182l-2.789,73.546,6.259.129,8.9-64.413h5.284l-1.122-3.385-2.631-7.637Z" transform="translate(4225.202 2091.843)" fill="#333642"/>
    <path id="Path_4950" data-name="Path 4950" d="M2276.938,1154.285c6.5,24.574,5.082,50.747,1.355,73.294l-5.484-.581c1.867-22.739-1.961-48.584-8.839-73.488Z" transform="translate(4182.896 2088.863)" fill="#333642"/>
    <path id="Path_4951" data-name="Path 4951" d="M2253.619,998.606l-11.157-.253-.124-5.613,11.147-.245Z" transform="translate(4198.662 2206.21)" fill="#ccc9c4"/>
    <path id="Path_4952" data-name="Path 4952" d="M2296.686,1430.731H2314.1c.232-2.142-1.612-3.878-4.119-3.878h-13.372Z" transform="translate(4159.106 1889.652)" fill="#6b433b"/>
    <path id="Path_4953" data-name="Path 4953" d="M2314.395,1442.038H2296.96l-.052-.886h17.434Z" transform="translate(4158.891 1879.231)" fill="#6b433b"/>
    <path id="Path_4954" data-name="Path 4954" d="M2305.649,1422.023l-2.117-1.8h-2.96a2.141,2.141,0,0,1-3.668,0h-.242l-.121,1.8Z" transform="translate(4159.16 1894.482)" fill="#6b433b"/>
    <path id="Path_4955" data-name="Path 4955" d="M2198.631,1442.437h9.385l.039-.846h-9.385Z" transform="translate(4230.516 1878.911)" fill="#6b433b"/>
    <path id="Path_4956" data-name="Path 4956" d="M2211.627,1423.342c.028.047-.327-2.08-.327-2.08-.44.161-.82.088-1.023-.912l-4.435-.158s-.249,1.365-1.117.875l-.109,2.177,1.3-.9,3.694.327Z" transform="translate(4226.154 1894.506)" fill="#6b433b"/>
    <path id="Path_4957" data-name="Path 4957" d="M2198.775,1431.82h9.386l.058-1.265a2.245,2.245,0,0,0-2.263-2.372h-4.642a2.51,2.51,0,0,0-2.481,2.372Z" transform="translate(4230.411 1888.682)" fill="#6b433b"/>
    <path id="Path_4958" data-name="Path 4958" d="M2248.816,973.462c.015,5.312,6.951,5.816,6.937.5l-.016-10.824-6.854-.965Z" transform="translate(4193.941 2228.307)" fill="#ffb89c"/>
    <path id="Path_4959" data-name="Path 4959" d="M2236.988,1004.463l.7,43.819,16.208.086-2.125-45.3-5.042,3.309-4.666.255Z" transform="translate(4202.561 2198.507)" fill="#e2e2e2"/>
    <path id="Path_4960" data-name="Path 4960" d="M2209.294,996.834s-5.336,2.292-9.336,2.034l-2.839,12,1.29,34.97s6.479,7.46,10.861-.94c4.829-9.259,4.829-29.584,4.829-29.584Z" transform="translate(4231.618 2203.049)" fill="#6b433b"/>
    <path id="Path_4961" data-name="Path 4961" d="M2287.114,999.983s7.5,1.626,8.369,2.406l2.387,8.774.193,36.583s-5.476,7.583-8.284-1.928a66.5,66.5,0,0,1-2.467-22.93Z" transform="translate(4166.029 2200.754)" fill="#6b433b"/>
    <path id="Path_4962" data-name="Path 4962" d="M2226.933,999.811l-2.724,1.4,2.192,6.1,3.429.832-2.136,1.957,5.835,17.8.313-10.416C2231.863,1009.87,2231.783,1005.135,2226.933,999.811Z" transform="translate(4211.874 2200.879)" fill="#875850"/>
    <path id="Path_4963" data-name="Path 4963" d="M2287.121,997.825l2.886,1.762.541,4.876-3.185,1.035,2.652,1.977-3.991,19.5-.192-9.524C2285.954,1007.356,2284.481,1003.828,2287.121,997.825Z" transform="translate(4167.183 2202.326)" fill="#875850"/>
    <path id="Path_4964" data-name="Path 4964" d="M2242.315,999.372l-7.227-5.974-2.671,1.786,5.105,9.534Z" transform="translate(4205.892 2205.552)" fill="#f2f2f2"/>
    <path id="Path_4965" data-name="Path 4965" d="M2272.808,992.5l2.788,1.8-1.761,8.386-4.926-4.024A14.553,14.553,0,0,0,2272.808,992.5Z" transform="translate(4179.297 2206.208)" fill="#f2f2f2"/>
    <g id="Group_2039" data-name="Group 2039" transform="translate(6437.134 3172.899)">
      <path id="Path_4966" data-name="Path 4966" d="M2281.9,925.835s-.458.577-.931-1.261c-.635-2.466-1.255-8.142-2.481-8.344-.341-.056-2.709-.445-1.511-1.069,2-1.042,4.778,1.84,4.872,2.581A24.241,24.241,0,0,1,2281.9,925.835Z" transform="translate(-2263.476 -910.164)" fill="#333642"/>
      <path id="Path_4967" data-name="Path 4967" d="M2244.436,929.033s1.521-7.151.986-9.278l-.492-8.614c-.535-2.128-2.115-4.087-4.112-3.929l-4.9.388a3.84,3.84,0,0,0-3.1,4.638l3.59,12.4C2236.941,926.763,2239.3,929.392,2244.436,929.033Z" transform="translate(-2231.458 -904.527)" fill="#ffb89c"/>
      <path id="Path_4968" data-name="Path 4968" d="M2251.916,932.854h.132c2.885-.228,5.5-2.829,5.275-5.714l-1.064-13.457a1.35,1.35,0,0,0-1.448-1.236l-9.784.774c-.738.058-2.2.787-2.139,1.525l1.6,11.3C2244.8,930.026,2247.943,933.169,2251.916,932.854Z" transform="translate(-2238.872 -908.349)" fill="#ffb89c"/>
      <path id="Path_4969" data-name="Path 4969" d="M2246.247,905.306c-3.485-2.762-12.169.375-13.538,2.014.238,3.7,2.174,7.1-.051,8.491l-2.083-.12-2.21-6.458a5.176,5.176,0,0,1,.448-4.319l.8-1.347s.016-.15.021-.242c.119-2.3,2.728-4.007,5.447-4.657C2246.589,895.916,2246.247,905.306,2246.247,905.306Z" transform="translate(-2228.086 -897.939)" fill="#333642"/>
      <path id="Path_4970" data-name="Path 4970" d="M2233.282,952.631c.777,1.328,2.092,2,2.937,1.507a1.164,1.164,0,0,0,.228-.174c.62-.611.6-1.929-.1-3.126-.777-1.328-2.092-2-2.937-1.507S2232.505,951.3,2233.282,952.631Z" transform="translate(-2231.473 -935.112)" fill="#ffb89c"/>
      <path id="Path_4971" data-name="Path 4971" d="M2237.54,928.117l-3.408-7.824,2.933-4.81,1.2,12.447A.377.377,0,0,1,2237.54,928.117Z" transform="translate(-2232.492 -910.562)" fill="#333642"/>
      <path id="Path_4972" data-name="Path 4972" d="M2249.542,899.1c-.094-.07-.187-.14-.281-.208-.483.249-1.921.511-5.916-1.025-2.471-.95-9.374-1.2-12.013,4.565a9.888,9.888,0,0,0-.667,3.537h0c.037.006,1.185.2,2.994.3a34.453,34.453,0,0,0,12.117-1.344c.642-.207,1.281-.441,1.91-.708a3.646,3.646,0,0,0,.652-.606A5.87,5.87,0,0,0,2249.542,899.1Zm-.694.373c-3.434,5.55-17.068,4.086-17.068,4.086a6.249,6.249,0,0,1,.422-2.236c1.668-3.643,6.033-3.487,7.6-2.886C2243.245,899.756,2248.848,899.468,2248.848,899.468Z" transform="translate(-2229.966 -897.339)" fill="#333642"/>
      <path id="Path_4973" data-name="Path 4973" d="M2234.775,905.6a6.252,6.252,0,0,1,.421-2.236c1.669-3.643,6.033-3.487,7.6-2.886,3.448,1.325,9.051,1.037,9.051,1.037C2248.409,907.064,2234.775,905.6,2234.775,905.6Z" transform="translate(-2232.961 -899.385)" fill="#333642"/>
    </g>
    <rect id="Rectangle_568" data-name="Rectangle 568" width="41.085" height="38.238" rx="10" transform="translate(6455.041 3202.801)" fill="#fff"/>
    <g id="Group_2041" data-name="Group 2041" transform="translate(6463.178 3206.031)">
      <g id="Group_2040" data-name="Group 2040" transform="translate(0 0)">
        <path id="Path_4974" data-name="Path 4974" d="M2326.944,1049.207l1.336-8.179h-4.163v-4.2h4.985l.822-5.118h-4.368v-4.25h5.087l1.285-7.951h4.573l-1.285,7.951h4.676l1.336-7.951h4.573l-1.336,7.951h4.112v4.25h-4.831l-.822,5.118h4.265v4.2h-5.037l-1.285,8.179h-4.625l1.284-8.179h-4.676l-1.284,8.179Zm11.409-12.383.822-5.118H2334.5l-.822,5.118Z" transform="translate(-2324.118 -1019.506)" fill="#568eff"/>
      </g>
    </g>
    <rect id="Rectangle_569" data-name="Rectangle 569" width="6.916" height="9.492" rx="3.458" transform="translate(6492.572 3213.759)" fill="#ffb89c"/>
    <circle id="Ellipse_192" data-name="Ellipse 192" cx="7.865" cy="7.865" r="7.865" transform="translate(6508.98 3130.5)" fill="#a6bacc"/>
    <path id="Path_4975" data-name="Path 4975" d="M2594.8,754.5h-34.714a1.085,1.085,0,0,1-1.085-1.085h0a1.085,1.085,0,0,1,1.085-1.085H2594.8a1.085,1.085,0,0,1,1.085,1.085h0A1.085,1.085,0,0,1,2594.8,754.5Z" transform="translate(3967.879 2381.24)" fill="#a6bacc"/>
    <path id="Path_4976" data-name="Path 4976" d="M2632.225,786.17h-72.14a1.085,1.085,0,0,1-1.085-1.085h0a1.085,1.085,0,0,1,1.085-1.085h72.14a1.085,1.085,0,0,1,1.084,1.085h0A1.085,1.085,0,0,1,2632.225,786.17Z" transform="translate(3967.879 2358.161)" fill="#a6bacc"/>
    <path id="Path_4977" data-name="Path 4977" d="M2584.2,1263.814h-90.012a1.085,1.085,0,0,1-1.085-1.085h0a1.085,1.085,0,0,1,1.085-1.085H2584.2a1.085,1.085,0,0,1,1.085,1.085h0A1.085,1.085,0,0,1,2584.2,1263.814Z" transform="translate(4015.908 2010.056)" fill="#a6bacc"/>
    <rect id="Rectangle_570" data-name="Rectangle 570" width="54.394" height="2.17" rx="1.085" transform="translate(6509.007 3263.563)" fill="#a6bacc"/>
    <path id="Path_4978" data-name="Path 4978" d="M2584.2,1291.582h-90.012a1.085,1.085,0,0,1-1.085-1.085h0a1.085,1.085,0,0,1,1.085-1.085H2584.2a1.085,1.085,0,0,1,1.085,1.085h0A1.085,1.085,0,0,1,2584.2,1291.582Z" transform="translate(4015.908 1989.818)" fill="#a6bacc"/>
    <rect id="Rectangle_571" data-name="Rectangle 571" width="19.788" height="12.431" rx="6.216" transform="translate(6549.838 3241.142)" fill="#f65066"/>
    <path id="Path_4979" data-name="Path 4979" d="M2648.633,1177.189l-2.8,6.638,9.692-2.114Z" transform="translate(3904.595 2071.606)" fill="#f65066"/>
    <path id="Path_4980" data-name="Path 4980" d="M2667.323,1162.308h-11.752a.906.906,0,0,1-.9-.9h0a.906.906,0,0,1,.9-.9h11.752a.906.906,0,0,1,.9.9h0A.907.907,0,0,1,2667.323,1162.308Z" transform="translate(3898.157 2083.769)" fill="#fff"/>
    <path id="Path_4981" data-name="Path 4981" d="M2667.323,1177.725h-11.752a.906.906,0,0,1-.9-.9h0a.906.906,0,0,1,.9-.9h11.752a.907.907,0,0,1,.9.9h0A.907.907,0,0,1,2667.323,1177.725Z" transform="translate(3898.157 2072.533)" fill="#fff"/>
    <path id="Path_4982" data-name="Path 4982" d="M2562.554,1162.531H2554.6a1.269,1.269,0,0,1-1.265-1.265h0A1.269,1.269,0,0,1,2554.6,1160h7.955a1.269,1.269,0,0,1,1.265,1.266h0A1.269,1.269,0,0,1,2562.554,1162.531Z" transform="translate(3972.009 2084.134)" fill="#a6bacc"/>
    <path id="Path_4983" data-name="Path 4983" d="M2562.554,1183.531H2554.6a1.269,1.269,0,0,1-1.265-1.266h0A1.269,1.269,0,0,1,2554.6,1181h7.955a1.269,1.269,0,0,1,1.265,1.266h0A1.269,1.269,0,0,1,2562.554,1183.531Z" transform="translate(3972.009 2068.829)" fill="#a6bacc"/>
    <path id="Path_4984" data-name="Path 4984" d="M2740.554,1162.531H2732.6a1.269,1.269,0,0,1-1.266-1.265h0A1.269,1.269,0,0,1,2732.6,1160h7.955a1.269,1.269,0,0,1,1.266,1.266h0A1.269,1.269,0,0,1,2740.554,1162.531Z" transform="translate(3842.283 2084.134)" fill="#a6bacc"/>
    <path id="Path_4985" data-name="Path 4985" d="M2740.554,1183.531H2732.6a1.269,1.269,0,0,1-1.266-1.266h0A1.269,1.269,0,0,1,2732.6,1181h7.955a1.269,1.269,0,0,1,1.266,1.266h0A1.269,1.269,0,0,1,2740.554,1183.531Z" transform="translate(3842.283 2068.829)" fill="#a6bacc"/>
    <g id="Group_2042" data-name="Group 2042" transform="translate(6568.328 3248.365)">
      <path id="Path_4986" data-name="Path 4986" d="M2875.274,1449.589c7.944-.027,7.92-7.338-.023-7.311l-3.144.011c-2.576.009-4.66,1.427-4.655,3.167l.005,1.472c0,1.484,1.79,2.682,3.986,2.674Z" transform="translate(-2825.248 -1369.954)" fill="#333642"/>
      <path id="Path_4987" data-name="Path 4987" d="M2773.8,1267.3l11.017,5.042.819,26.123s.075,11.481.025,11.879c-.507,4.035-26.779,4.914-29.767,1.725l-.568-13.6-1.062-14.092,1.065-12.031,10.6-4.752Z" transform="translate(-2742.755 -1242.428)" fill="#266fa5"/>
      <path id="Path_4988" data-name="Path 4988" d="M2745.032,1295.7l-3.609,11.217-6.1-7.25c.883-5.228,1.751-11.343,6.2-13.779Z" transform="translate(-2728.95 -1255.977)" fill="#3a86d8"/>
      <path id="Path_4989" data-name="Path 4989" d="M2732.189,1344.016c.007-.354.838-7.574.838-7.574l6.674-.094-.77,11.814,7.657,1.866s.933,3.738.532,3.778C2734.6,1355.052,2731.942,1356.247,2732.189,1344.016Z" transform="translate(-2726.658 -1292.753)" fill="#3a86d8"/>
      <path id="Path_4990" data-name="Path 4990" d="M2864.745,1303.112l-5.84,4.041-2.635-10.693,2.822-10.692s4.074,1.842,4.643,6.044S2864.745,1303.112,2864.745,1303.112Z" transform="translate(-2817.098 -1255.891)" fill="#3a86d8"/>
      <path id="Path_4991" data-name="Path 4991" d="M2792.127,1383.147l-5.763.157-4.412.832.532,3.778,3.56,1.245a10.814,10.814,0,0,0,5.325-1.53l1.788-1.348Z" transform="translate(-2762.935 -1326.86)" fill="#ffb89c"/>
      <path id="Path_4992" data-name="Path 4992" d="M2847.934,1344.016c-.007-.354-.232-7.565-.232-7.565l-7.28-.1.77,11.814-7.657,1.866s-.932,3.737-.532,3.778C2845.325,1355.052,2848.181,1356.247,2847.934,1344.016Z" transform="translate(-2800.068 -1292.753)" fill="#3a86d8"/>
      <path id="Path_4993" data-name="Path 4993" d="M2798.318,1383.147l5.764.157,4.411.832-.531,3.778-3.627,1.226a10.548,10.548,0,0,1-5.259-1.511l-1.788-1.348Z" transform="translate(-2774.113 -1326.86)" fill="#ffb89c"/>
      <path id="Path_4994" data-name="Path 4994" d="M2791.065,1381.156H2787.2l-1.085-1.22c1.014-1.817,2.742-1.156,4.948-.136Z" transform="translate(-2765.972 -1323.689)" fill="#ffb89c"/>
      <path id="Path_4995" data-name="Path 4995" d="M2808.825,1381.156h3.863l1.084-1.22c-1.014-1.817-2.742-1.156-4.948-.136Z" transform="translate(-2782.521 -1323.689)" fill="#ffb89c"/>
      <rect id="Rectangle_572" data-name="Rectangle 572" width="11.106" height="1.114" transform="translate(20.146 55.976)" fill="#333642"/>
      <path id="Path_4996" data-name="Path 4996" d="M2758.981,1417.907l.888-7.607-38.77-11.837c-3.18-.779-6.254.856-6.867,3.651h0c-.554,2.531,1.329,5.153,4.207,5.858C2729.522,1412.994,2743.3,1416.122,2758.981,1417.907Z" transform="translate(-2713.512 -1337.881)" fill="#a6bacc"/>
      <path id="Path_4997" data-name="Path 4997" d="M2717.773,1445.781c-7.944.039-7.907,7.353.036,7.314l3.144-.015c2.576-.013,4.658-1.434,4.649-3.176l-.008-1.473c-.007-1.485-1.794-2.68-3.991-2.669Z" transform="translate(-2711.833 -1372.494)" fill="#333642"/>
      <path id="Path_4998" data-name="Path 4998" d="M2744.6,1416.865l-1.295-8.029,38.264-13.066c3.148-.921,6.319.568,7.082,3.326h0c.691,2.5-1.059,5.194-3.908,6.028C2773.893,1410.63,2760.24,1414.373,2744.6,1416.865Z" transform="translate(-2734.771 -1335.861)" fill="#a6bacc"/>
      <path id="Path_4999" data-name="Path 4999" d="M2786.118,1266.816a6.175,6.175,0,0,0,6.158,6.142c6.163.316,8.034-4.234,7.8-6.387l-3.883-1.854-6.009-.339Z" transform="translate(-2765.972 -1240.301)" fill="#c3d5e2"/>
      <path id="Path_5000" data-name="Path 5000" d="M2834.244,1229.174a1.958,1.958,0,0,1-1.964,1.974,2,2,0,0,1-2-1.974,1.958,1.958,0,0,1,1.965-1.973A2,2,0,0,1,2834.244,1229.174Z" transform="translate(-2798.159 -1213.207)" fill="#ffb89c"/>
      <path id="Path_5001" data-name="Path 5001" d="M2780.791,1229.174a1.959,1.959,0,0,1-1.965,1.974,2,2,0,0,1-2-1.974,1.958,1.958,0,0,1,1.965-1.973A2,2,0,0,1,2780.791,1229.174Z" transform="translate(-2759.203 -1213.207)" fill="#ffb89c"/>
      <path id="Path_5002" data-name="Path 5002" d="M2804.6,1235.217c0-.223-.092-15.984-.092-15.984l-8,9.9.049,6.536C2797.35,1238.837,2804.6,1239.04,2804.6,1235.217Z" transform="translate(-2773.545 -1207.4)" fill="#ffb89c"/>
      <path id="Path_5003" data-name="Path 5003" d="M2783.35,1193.019s-1.129,13.142,2.732,15.6c3.748,2.386,8.928,1.557,10.577-1.57s3.41-15.622-1.538-16.589S2785.738,1188.924,2783.35,1193.019Z" transform="translate(-2763.842 -1185.922)" fill="#ffb89c"/>
      <path id="Path_5004" data-name="Path 5004" d="M2775.375,1190.53l2.375,4.817.953-5.355c3.618,2,8.125,7.726,12.361,3.616l.9,1.556,2.913-3.951C2794.881,1177.385,2776.3,1176.911,2775.375,1190.53Z" transform="translate(-2758.143 -1179.226)" fill="#333642"/>
      <path id="Path_5005" data-name="Path 5005" d="M2794.044,1186.085h-17.868a.819.819,0,0,1-.819-.818v-1.8c-.425-10.68,19.118-10.234,19.506-.191v1.989A.818.818,0,0,1,2794.044,1186.085Z" transform="translate(-2758.124 -1175.602)" fill="#ffb53e"/>
      <path id="Path_5006" data-name="Path 5006" d="M2801.552,1212.862c-5.19,2.865-17.834,2.679-26.177,0v-1.355h26.177Z" transform="translate(-2758.143 -1201.769)" fill="#ffb53e"/>
    </g>
    <path id="Path_5007" data-name="Path 5007" d="M2899.169,1283.284l-6.5,15.416,30.284-8.8Z" transform="translate(3724.703 1994.285)" fill="#fff"/>
    <g id="Group_2043" data-name="Group 2043" transform="translate(6518.893 3155.374)">
      <path id="Path_5008" data-name="Path 5008" d="M2743.195,1123.157h.925l-.684-2.6Z" transform="translate(-2685.254 -1042.491)" fill="none"/>
      <path id="Path_5009" data-name="Path 5009" d="M2577.755,1124.535h.791l-.229-2.092Z" transform="translate(-2564.682 -1043.869)" fill="none"/>
      <path id="Path_5010" data-name="Path 5010" d="M2547.21,1068.53Z" transform="translate(-2542.421 -1004.577)" fill="#3b464c"/>
      <path id="Path_5011" data-name="Path 5011" d="M2778.608,1068.662Z" transform="translate(-2711.063 -1004.673)" fill="#3b464c"/>
      <path id="Path_5012" data-name="Path 5012" d="M2621.65,980.021a27.416,27.416,0,0,0,.438-5.566c-3.381-2.037-6.363-5.8-8.717-9.578.261,6.671.829,13.552,1.138,17l6.487-2.555Z" transform="translate(-2590.639 -929.035)" fill="#3b464c"/>
      <path id="Path_5013" data-name="Path 5013" d="M2679.965,974.616a23.277,23.277,0,0,0,.445,5.8l.509-.688,7.887,3.465-.48.761c.889.357,1.959.8,3.145,1.306-.159-1.147-1.375-9.734-3.554-19.831C2685.542,969.01,2682.748,972.562,2679.965,974.616Z" transform="translate(-2639.171 -929.437)" fill="#3b464c"/>
      <path id="Path_5014" data-name="Path 5014" d="M2649.052,1001.086a9.983,9.983,0,0,1-4.716-1.539,27.369,27.369,0,0,1-.438,5.566l5.72,6.09,4.508-6.1a23.275,23.275,0,0,1-.445-5.8A7.53,7.53,0,0,1,2649.052,1001.086Z" transform="translate(-2612.886 -954.127)" fill="#e0e0e0"/>
      <path id="Path_5015" data-name="Path 5015" d="M2621.718,903.982a9.981,9.981,0,0,0,4.715,1.539,7.532,7.532,0,0,0,4.63-1.781c2.783-2.054,5.576-5.607,7.953-9.187-.93-4.313-2.037-8.9-3.311-13.3a52.205,52.205,0,0,1-6.852-4.619c-6.6-5.691-7.639-8.453-7.639-8.453l-7.085,8.694c-.3,1.01-.552,2.033-.751,3.06-.6,3.093-.6,8.7-.377,14.471C2615.355,898.178,2618.336,901.945,2621.718,903.982Z" transform="translate(-2590.268 -858.562)" fill="#e0e0e0"/>
      <path id="Path_5016" data-name="Path 5016" d="M2660.725,836.053c-.153-.014-.315-.021-.484-.024.094.047.189.094.283.145C2660.591,836.133,2660.657,836.091,2660.725,836.053Z" transform="translate(-2624.798 -835.131)" fill="#546066"/>
      <path id="Path_5017" data-name="Path 5017" d="M2732.553,905.253c-.115-.231-.236-.447-.36-.657l.17.642C2732.427,905.242,2732.488,905.249,2732.553,905.253Z" transform="translate(-2677.236 -885.102)" fill="#546066"/>
      <path id="Path_5018" data-name="Path 5018" d="M2632.257,857.305a52.227,52.227,0,0,0,6.851,4.619c-2.5-8.646-5.654-16.569-9.4-20.264-6.042,3.168-10.2,9.256-12.179,15.886l7.085-8.694S2625.66,851.614,2632.257,857.305Z" transform="translate(-2593.672 -839.235)" fill="#647277"/>
      <path id="Path_5019" data-name="Path 5019" d="M2574.4,886.981l-.613-1.01,1.038-.409c-.31-3.451-.877-10.332-1.138-17-.226-5.768-.222-11.378.377-14.471.2-1.027.45-2.049.752-3.06,1.977-6.63,6.137-12.718,12.179-15.886a10.367,10.367,0,0,0-1-.876,5.165,5.165,0,0,1,.69-.506c-.094-.051-.189-.1-.283-.145-4.631-2.293-9.745.035-13.356,4.38-4.042,4.863-4.575,11.161-4.954,17.473-.619,10.309-7.341,32.848-9.167,38.816A75.95,75.95,0,0,1,2574.4,886.981Z" transform="translate(-2550.958 -832.717)" fill="#647277"/>
      <path id="Path_5020" data-name="Path 5020" d="M2658.742,834.666a10.383,10.383,0,0,1,1,.877c3.743,3.695,6.894,11.618,9.4,20.264,1.274,4.4,2.381,8.989,3.311,13.3,2.179,10.1,3.4,18.683,3.554,19.831a101.377,101.377,0,0,1,13.089,6.606c-1.139-4.957-6.362-27.568-10.262-42.293l-.17-.642c-.823-3.086-1.581-5.8-2.224-7.888-1.146-3.724-2.9-7.9-6.419-9.575-3.033-1.45-7.41-2.771-10.387-1.109-.068.038-.134.08-.2.121A5.129,5.129,0,0,0,2658.742,834.666Z" transform="translate(-2623.705 -833.117)" fill="#647277"/>
      <path id="Path_5021" data-name="Path 5021" d="M2597.379,1044.238a5.6,5.6,0,0,0-2.419-3.257l-.02-.012a101.425,101.425,0,0,0-13.088-6.606c-1.186-.508-2.256-.948-3.146-1.306l-6.458,10.238-5.912-6.379-7.106,6.153L2553,1032.8a75.925,75.925,0,0,0-15.48,7.3l-.031.02a9.258,9.258,0,0,0-3.79,5.126l-4.146,13.954h71.963Z" transform="translate(-2529.55 -978.54)" fill="#4a585e"/>
      <path id="Path_5022" data-name="Path 5022" d="M2670.007,1018.153l-.509.688-4.508,6.1.7.743-.643.557,5.912,6.379,6.458-10.238.48-.761Z" transform="translate(-2628.259 -967.862)" fill="#fff"/>
      <path id="Path_5023" data-name="Path 5023" d="M2627.641,1024.939l-5.72-6.09-.653-.7-6.487,2.555-1.038.409.614,1.01,6.233,10.265,7.106-6.153.643-.557Z" transform="translate(-2590.909 -967.862)" fill="#fff"/>
    </g>
    <rect id="Rectangle_573" data-name="Rectangle 573" width="41.085" height="38.238" rx="10" transform="translate(6615.127 3247.462)" fill="#fff"/>
    <g id="Group_2044" data-name="Group 2044" transform="translate(6620.974 3253.036)">
      <path id="Path_5024" data-name="Path 5024" d="M2933.6,1206.736a13.824,13.824,0,1,1-13.9-13.907C2928.092,1192.67,2933.6,1199.1,2933.6,1206.736Z" transform="translate(-2905.951 -1192.826)" fill="#ffb53e"/>
      <path id="Path_5025" data-name="Path 5025" d="M2931.467,1222.753c0,1.6-.811,2.9-1.811,2.9s-1.811-1.3-1.811-2.9.811-2.9,1.811-2.9S2931.467,1221.149,2931.467,1222.753Z" transform="translate(-2921.906 -1212.521)" fill="#333642"/>
      <ellipse id="Ellipse_193" data-name="Ellipse 193" cx="1.811" cy="2.904" rx="1.811" ry="2.904" transform="translate(17.976 7.169)" fill="#333642"/>
      <path id="Path_5026" data-name="Path 5026" d="M2926.87,1247.2l16,.169a.6.6,0,0,1,.582.738c-.46,2.031-2.327,7.576-8.984,7.226a8.187,8.187,0,0,1-8.2-7.449A.6.6,0,0,1,2926.87,1247.2Z" transform="translate(-2920.752 -1232.451)" fill="#333642"/>
      <path id="Path_5027" data-name="Path 5027" d="M2937.589,1263.976s2.583-2.55,5.567-2.482a7.836,7.836,0,0,1,5.12,2.6S2943.753,1267.849,2937.589,1263.976Z" transform="translate(-2929.009 -1242.871)" fill="#f44444"/>
    </g>
    <path id="Path_5028" data-name="Path 5028" d="M2975.455,830.886l12.079-15.826a41.634,41.634,0,0,1-18.521-11.566,6.848,6.848,0,0,0-5.833,10.435l-.014.006.16.222c.083.124.171.244.262.361Z" transform="translate(3674.053 2343.953)" fill="#fff"/>
  </g>
</svg>
