<svg xmlns="http://www.w3.org/2000/svg" xmlns:xlink="http://www.w3.org/1999/xlink" width="669.537" height="647.852" viewBox="0 0 669.537 647.852">
  <defs>
    <linearGradient id="linear-gradient" x1="-0.162" y1="0.676" x2="0.787" y2="0.205" gradientUnits="objectBoundingBox">
      <stop offset="0" stop-color="#6d6afe"/>
      <stop offset="1" stop-color="#3fb0f7"/>
    </linearGradient>
    <linearGradient id="linear-gradient-2" x1="0.455" y1="0.546" x2="0.654" y2="0.342" xlink:href="#linear-gradient"/>
    <linearGradient id="linear-gradient-3" x1="-0.119" y1="-0.24" x2="0.629" y2="0.689" gradientUnits="objectBoundingBox">
      <stop offset="0" stop-color="#fd70cb"/>
      <stop offset="1" stop-color="#6e4dfd"/>
    </linearGradient>
    <linearGradient id="linear-gradient-4" x1="0.249" y1="0.574" x2="1.129" y2="0.313" xlink:href="#linear-gradient"/>
    <linearGradient id="linear-gradient-5" x1="0.472" y1="0.045" x2="0.513" y2="0.769" gradientUnits="objectBoundingBox">
      <stop offset="0" stop-color="#fd90da"/>
      <stop offset="1" stop-color="#8e6dfd"/>
    </linearGradient>
    <linearGradient id="linear-gradient-6" x1="0.474" y1="0.042" x2="0.515" y2="0.765" xlink:href="#linear-gradient-5"/>
    <linearGradient id="linear-gradient-7" x1="0.66" y1="0.295" x2="0.434" y2="0.584" xlink:href="#linear-gradient-5"/>
    <linearGradient id="linear-gradient-8" x1="0.412" y1="0.088" x2="0.587" y2="0.799" xlink:href="#linear-gradient-3"/>
    <linearGradient id="linear-gradient-9" x1="0.424" y1="0.675" x2="0.578" y2="0.322" gradientUnits="objectBoundingBox">
      <stop offset="0" stop-color="#1c8ef4"/>
      <stop offset="1" stop-color="#00cfdd"/>
    </linearGradient>
    <linearGradient id="linear-gradient-10" x1="0.557" y1="0.466" x2="0.821" y2="0.31" xlink:href="#linear-gradient"/>
    <linearGradient id="linear-gradient-11" x1="0.468" y1="0.493" x2="-0.068" y2="0.569" gradientUnits="objectBoundingBox">
      <stop offset="0" stop-color="#ff8a78"/>
      <stop offset="1" stop-color="#ffa799"/>
    </linearGradient>
    <linearGradient id="linear-gradient-12" x1="-0.149" y1="0.728" x2="0.476" y2="0.494" gradientUnits="objectBoundingBox">
      <stop offset="0" stop-color="#ffb89e"/>
      <stop offset="0.995" stop-color="#ffa799"/>
    </linearGradient>
    <linearGradient id="linear-gradient-13" x1="0.751" y1="0.853" x2="0.05" y2="0.036" gradientUnits="objectBoundingBox">
      <stop offset="0" stop-color="#965cf2"/>
      <stop offset="1" stop-color="#ff8adc"/>
    </linearGradient>
    <linearGradient id="linear-gradient-14" x1="0.288" y1="0.763" x2="0.809" y2="0.475" xlink:href="#linear-gradient-13"/>
    <linearGradient id="linear-gradient-15" x1="0.512" y1="0.43" x2="0.577" y2="0.616" xlink:href="#linear-gradient-12"/>
    <linearGradient id="linear-gradient-16" x1="0.667" y1="0.736" x2="0.297" y2="-0.094" xlink:href="#linear-gradient-13"/>
    <linearGradient id="linear-gradient-17" x1="0.57" y1="0.86" x2="0.422" y2="0.257" xlink:href="#linear-gradient-13"/>
    <linearGradient id="linear-gradient-18" x1="0.505" y1="0.464" x2="0.611" y2="0.799" xlink:href="#linear-gradient-11"/>
    <linearGradient id="linear-gradient-19" x1="0.732" y1="0.132" x2="0.397" y2="0.819" gradientUnits="objectBoundingBox">
      <stop offset="0" stop-color="#5a2d68"/>
      <stop offset="1" stop-color="#22043d"/>
    </linearGradient>
    <linearGradient id="linear-gradient-21" x1="0.896" y1="0.617" x2="-0.347" y2="0.249" xlink:href="#linear-gradient"/>
    <linearGradient id="linear-gradient-22" x1="0.474" y1="0.042" x2="0.515" y2="0.765" xlink:href="#linear-gradient-5"/>
    <linearGradient id="linear-gradient-24" x1="0.474" y1="0.042" x2="0.515" y2="0.765" xlink:href="#linear-gradient-5"/>
    <linearGradient id="linear-gradient-25" x1="0.856" y1="0.639" x2="-0.173" y2="0.237" xlink:href="#linear-gradient"/>
    <linearGradient id="linear-gradient-26" x1="0.422" y1="0.679" x2="0.58" y2="0.316" xlink:href="#linear-gradient-9"/>
  </defs>
  <g id="Group_2505" data-name="Group 2505" transform="translate(-4189.555 -973.596)">
    <g id="Group_2502" data-name="Group 2502" transform="translate(4319.925 1019.256)">
      <path id="Path_11184" data-name="Path 11184" d="M5034.266,2271.182l-161.2-92.069c-5.983-2.734-14.774-5.312-20.642-1.737l-15.014,9.147c-3.021,1.841-12.953,7.947-6.31,11.559,19.543,10.627,144.418,83.589,164.263,94.385,3.753,2.042,9.245,2.78,15.009,2.3,5.738-.477,11.7-2.03,16.254-4.841l6-3.7c4.241-2.615,6.588-5.47,6.813-8.211C5039.658,2275.34,5037.938,2272.859,5034.266,2271.182Z" transform="translate(-4680.073 -1696.416)" fill="#5f7ffb" fill-rule="evenodd" opacity="0.2"/>
      <g id="Group_2494" data-name="Group 2494" transform="translate(0)">
        <path id="Path_11185" data-name="Path 11185" d="M4510.516,1356.42a46.416,46.416,0,0,0,7.055,5.06l2.077-3.6a41.9,41.9,0,0,1-6.423-4.611l-2.708,3.149Zm-16.975-36.949-4.144.3-.591-8.286,4.144-.3.591,8.285Zm27-206.516-2.066,3.6-7.206-4.132,2.067-3.6,7.206,4.133ZM4589.1,1151.9l-.39-.224-2.066,3.6.389.224,2.067-3.6Zm-3.993-2.291-2.066,3.6-7.207-4.133,2.066-3.6,7.207,4.133Zm-10.809-6.2-2.066,3.6-7.207-4.133,2.067-3.6,7.206,4.134Zm-10.81-6.2-2.066,3.6-7.206-4.133,2.066-3.6,7.206,4.133Zm-10.809-6.2-2.066,3.6-7.206-4.133,2.066-3.6,7.206,4.133Zm-10.808-6.2-2.067,3.6-7.206-4.133,2.066-3.6,7.206,4.133Zm-10.808-6.2-2.066,3.6-7.207-4.133,2.067-3.6,7.206,4.133Zm-23.2-10.768-.1-.011a17.493,17.493,0,0,0-9.122,1.363l1.738,3.773a13.454,13.454,0,0,1,7.024-1l.458-4.128Zm-13.2,3.982a18.78,18.78,0,0,0-4.978,7.789l3.923,1.364.151-.411a14.4,14.4,0,0,1,3.7-5.671l-2.8-3.071Zm-6.084,12.153a35.709,35.709,0,0,0-.452,5.6l.01,3.027,4.153-.013-.01-3.015a31.554,31.554,0,0,1,.4-4.923l-4.1-.679Zm-.428,12.783,4.153-.012.028,8.307-4.153.013-.027-8.307Zm.041,12.461,4.153-.013.027,8.307-4.153.013-.027-8.307Zm.041,12.46,4.153-.013.027,8.307-4.153.013-.027-8.307Zm.041,12.461,4.153-.013.027,8.307-4.153.013-.027-8.307Zm.041,12.46,4.153-.013.027,8.307-4.153.013-.027-8.307Zm.041,12.461,4.153-.013.028,8.307-4.153.013-.028-8.307Zm.041,12.46,4.153-.013.027,8.307-4.153.014-.028-8.307Zm.041,12.46,4.153-.013.027,8.307-4.153.013-.027-8.307Zm.041,12.461,4.153-.013.027,8.307-4.153.013-.027-8.307Zm.04,12.46,4.153-.013.027,8.307-4.153.013-.026-8.307Zm.04,12.461,4.153-.013.026,8.307-4.152.013-.027-8.307Zm.039,12.461,4.153-.013.027,8.307-4.153.013-.027-8.307Zm.04,12.46,4.152-.013.027,8.307-4.153.013-.027-8.307Zm.04,12.461,4.153-.013.026,8.307-4.153.013-.027-8.306Zm.041,12.753v0Zm1.739,12.556a62.472,62.472,0,0,0,2.793,8.114l3.825-1.621a54.548,54.548,0,0,1-2.61-7.584l-4.008,1.091Zm4.576,12a57.865,57.865,0,0,0,4.267,7.42l3.461-2.3a59.4,59.4,0,0,1-4.009-6.973l-3.719,1.849Zm6.732,10.918a63.72,63.72,0,0,0,5.6,6.5l2.95-2.923a59.757,59.757,0,0,1-5.238-6.076Z" transform="translate(-4488.12 -1094.816)" fill-rule="evenodd" fill="url(#linear-gradient)"/>
        <g id="Group_2493" data-name="Group 2493" transform="translate(18.49)">
          <g id="Group_2472" data-name="Group 2472" transform="translate(0 126.163)">
            <g id="Group_2471" data-name="Group 2471">
              <g id="Group_2464" data-name="Group 2464">
                <path id="Path_11186" data-name="Path 11186" d="M4535.833,1369.677c1.51-.8,3.034-1.575,4.54-2.372a6.126,6.126,0,0,1,4.914.869c46.109,26.446,92.124,53.823,138.237,80.272,4.346,2.511,7.866,8.606,7.852,13.6l.227,182.533c-.007,2.27-.743,3.925-1.951,4.82-1.442,1.066-3.613,2.547-5.435,2.757a3.274,3.274,0,0,1-2.066-.393c-46.113-26.448-91.273-56.175-137.378-82.618-4.352-2.513-7.866-8.607-7.853-13.6Z" transform="translate(-4533.489 -1367.095)" fill="#d0e7ff" fill-rule="evenodd"/>
                <path id="Path_11187" data-name="Path 11187" d="M4530.465,1377.433c.014-5,3.553-7.019,7.9-4.505,46.11,26.446,92.124,53.823,138.238,80.272,4.346,2.511,7.866,8.606,7.852,13.6l.227,182.533c-.014,4.994-3.558,7.013-7.905,4.5-46.111-26.449-92.133-53.828-138.237-80.273-4.353-2.513-7.868-8.606-7.854-13.6Z" transform="translate(-4530.465 -1369.772)" fill-rule="evenodd" fill="url(#linear-gradient-2)"/>
              </g>
              <g id="Group_2470" data-name="Group 2470" transform="translate(0.098 32.554)">
                <g id="Group_2465" data-name="Group 2465" transform="translate(0.04 63.627)">
                  <path id="Path_11188" data-name="Path 11188" d="M4530.78,1587.362l153.931,88.873.024,26.05-153.923-88.971Z" transform="translate(-4530.78 -1587.362)" fill="#6699fd" fill-rule="evenodd"/>
                  <path id="Path_11189" data-name="Path 11189" d="M4530.78,1736.306l153.931,88.872.024,26.05-153.923-88.971Z" transform="translate(-4530.78 -1671.269)" fill="#6699fd" fill-rule="evenodd"/>
                </g>
                <g id="Group_2466" data-name="Group 2466" transform="translate(16.917 41.39)">
                  <path id="Path_11190" data-name="Path 11190" d="M4753,1645.993a6.238,6.238,0,0,0-3.109-5.579,19.5,19.5,0,0,0-4.165-1.926l-.006,2.272,3.08,1.779c1.082.625,1.542,1.007,1.538,1.965,0,1.169-3.4,2.369-4.509,2.594l-.006,2.63,7.156,4.131.008-2.727-2.869-1.656C4750.944,1649.073,4752.988,1648.142,4753,1645.993Z" transform="translate(-4668.739 -1593.927)" fill="#fff" fill-rule="evenodd" opacity="0.8"/>
                  <path id="Path_11191" data-name="Path 11191" d="M4841.155,1696.846v-.6a5.18,5.18,0,0,0-2.571-4.406q-.535-.318-1.062-.625a12.548,12.548,0,0,0-3.455-1.551l-.006,2.293,3.166,1.829c.726.422,1.285.744,1.285,1.557v.143c0,.718-.334.525-1.293.02l-2.226-1.144-.006,2.513,2.225,1.4c.893.541,1.268.805,1.264,1.521v.144c0,.74-.292.574-1.333-.029l-2.993-1.728-.007,2.34a19.685,19.685,0,0,0,3.858,2.663c.149.085.3.169.447.257,1.642.949,2.688.473,2.691-1.418l0-.476a4.054,4.054,0,0,0-1.14-3.075C4840.835,1698.628,4841.151,1698.018,4841.155,1696.846Z" transform="translate(-4718.508 -1622.759)" fill="#fff" fill-rule="evenodd" opacity="0.8"/>
                  <path id="Path_11192" data-name="Path 11192" d="M4574.2,1545.985c0,.833-.315.726-.751.475l-.582-.335a1.423,1.423,0,0,1-.768-1.379l.011-4.184c0-.193-.018-.919.668-.525l.79.456a1.305,1.305,0,0,1,.643,1.285l-.012,4.206Zm.147-7.8-2.227-1.283c-1.726-1-2.667-.391-2.672,1.666l-.016,5.307a5.014,5.014,0,0,0,2.633,4.513l2.248,1.3c1.623.935,2.541.32,2.546-1.522l.017-5.474A4.846,4.846,0,0,0,4574.344,1538.19Z" transform="translate(-4569.43 -1536.436)" fill="#fff" fill-rule="evenodd" opacity="0.8"/>
                  <path id="Path_11193" data-name="Path 11193" d="M4662.688,1590.81l-1.647.343-.007,1.935,1.6.613-.024,8.583,2.664,1.538.03-11.5Z" transform="translate(-4621.035 -1567.067)" fill="#fff" fill-rule="evenodd" opacity="0.8"/>
                </g>
                <g id="Group_2467" data-name="Group 2467" transform="translate(14.956)">
                  <path id="Path_11194" data-name="Path 11194" d="M4639.9,1508.521l.047-16.38-9.727,2.606Z" transform="translate(-4601.715 -1470.093)" fill="#fff" fill-rule="evenodd" opacity="0.8"/>
                  <path id="Path_11195" data-name="Path 11195" d="M4656.509,1494.489l-.047,16.378,1.779,1.029.045-16.379Z" transform="translate(-4616.499 -1471.416)" fill="#fff" fill-rule="evenodd" opacity="0.8"/>
                  <path id="Path_11196" data-name="Path 11196" d="M4572.308,1461.335l9.711,13.826.047-16.412Z" transform="translate(-4569.091 -1451.282)" fill="#fff" fill-rule="evenodd" opacity="0.8"/>
                  <path id="Path_11197" data-name="Path 11197" d="M4564.94,1458.065l1.75.973.045-16.38-1.75-1.01Z" transform="translate(-4564.94 -1441.648)" fill="#fff" fill-rule="evenodd" opacity="0.8"/>
                  <path id="Path_11198" data-name="Path 11198" d="M4776.6,1563.825l-.048,16.38,9.758-2.549Z" transform="translate(-4684.151 -1510.476)" fill="#fff" fill-rule="evenodd" opacity="0.8"/>
                  <path id="Path_11199" data-name="Path 11199" d="M4768.544,1575.588l1.749,1.006.045-16.38-1.746-1Z" transform="translate(-4679.64 -1507.875)" fill="#fff" fill-rule="evenodd" opacity="0.8"/>
                  <path id="Path_11200" data-name="Path 11200" d="M4705.3,1522.658l-.047,16.418,9.728-2.605Z" transform="translate(-4643.987 -1487.285)" fill="#00cedc" fill-rule="evenodd" opacity="0.8"/>
                  <path id="Path_11201" data-name="Path 11201" d="M4826.865,1609.288l9.728-2.605-9.68-13.812Z" transform="translate(-4712.495 -1526.839)" fill="#fff" fill-rule="evenodd" opacity="0.8"/>
                  <path id="Path_11202" data-name="Path 11202" d="M4852.382,1607.585l-.046,16.379,1.779,1.063.047-16.418Z" transform="translate(-4726.843 -1535.128)" fill="#fff" fill-rule="evenodd" opacity="0.8"/>
                </g>
                <path id="Path_11203" data-name="Path 11203" d="M4530.764,1630.19l1.885-1.34.627,3.413,1.178-1.342,2.12,2.011.784,2.245,2.513,1.014,2.12-25.78-.393,27.376.628-1.375.628,1.215.864-2.853.707-1.763.628,5.533,1.885,2.939s1.962,3.336,2.119,2.875,2.749-16.557,2.749-16.557l.156,15,3.454-21.3-.707,22.176,2.355-20.82v22.454l2.827-11.058.236,8.1,1.413-5.019.707,10.091,2.12-6.311.393,11.015,2.2-5.521-.47,7.823-.158,5.565,1.413-2.663.314,4.023s1.257-4.086,1.414-2.82.549,4.744.549,4.744,1.414-5.1,1.492-4.386,1.3,1.17,1.413.556c1-5.652,1.841-11.034,3.063-16.225l-1.256,20.023.747,3.184,1.138-12.337,1.57-8.385v8.165l-1.257,12.643c-.529,5.341,1.479-9.459,2.356-14.776,0,0,.628-3.731.628-2.16s-.157,7.842-.157,7.842l-.943,11.045.589.251,4.28-38.539-1.885,42.6a101.386,101.386,0,0,0,3.926-19.2l-.942,14.35-.472,6.1,1.884-9.622,1.256-4.164.471,3.012.943-2.142.628,3.805,1.256-1.965.708,2,.078,6.756.628-2.474.158,2.835,1.255-1.495.158,1.894,1.805,2.307,1.649,2.847,2.2-11.8-.313,12.228,3.272-20.751-.446,20.607c3.2-11.921,5.149-48.99,4.554-36.469l-1.28,26.865.337-.384.628,3.413,1.178-1.343,2.12,2.011.785,2.246,2.513,1.013,2.12-25.78-.394,27.376.628-1.376.628,1.216.863-2.854.707-1.764.628,5.533,1.885,2.94s1.961,3.336,2.119,2.875,2.749-16.558,2.749-16.558l.157,15,3.455-21.3-.708,22.175,2.356-20.82v22.454l2.827-11.057.235,8.1,1.413-5.018.707,10.091,2.12-6.311.393,11.015,2.2-5.521-.471,7.822-.157,5.565,1.413-2.663.314,4.023s1.257-4.086,1.414-2.82.549,4.743.549,4.743,1.414-5.1,1.492-4.385,1.3,1.17,1.413.555c1-5.652,1.841-11.035,3.063-16.225l-1.256,20.024.746,3.184,1.137-12.336,1.571-8.385v8.165l-1.256,12.643c-.53,5.34,1.478-9.459,2.355-14.776,0,0,.627-3.731.627-2.16s-.157,7.842-.157,7.842l-.942,11.046.588.25,4.28-38.539-1.885,42.6a101.432,101.432,0,0,0,3.927-19.2l-.942,14.35-.472,6.1,1.885-9.622,1.256-4.164.471,3.011.942-2.142.627,3.806,1.257-1.965.706,2,.079,6.756.627-2.475.157,2.836,1.256-1.494.158,1.894,1.806,2.306,1.648,2.847,2.2-11.8-.314,12.229,3.272-20.752-.446,20.607c2.228-11.978,4.278-49.537,4.553-36.468l.846,40.2,2.6-1.416.47,3.653,1.671-.949-.043,28.048-1.8-3.705-1.968-.066-1.98-2.54-2.813,31.623c-1.163,13.073.317-26.055-1.97-41.718l-.929,21.054-1.776-24.545-.5,12.552-1.333-14.359-1.771.884-1.886.158-.276,1.7-1.107-2.975-.338,2.638-.439-3.208-.521,6.637-.812,1.159-1.077-3.446-.854,3.047-.764-3.249-.651,2.442-.932-5.636-1.176-11.815.051,6.629-.041,15.41a177.591,177.591,0,0,0-2.5-23.77l-1,44.659-1.57-43.455-.582-.447.178,12.118s-.263,6.432-.367,8-.46-2.9-.46-2.9c-.491-6.334-1.446-23.454-1.29-17.507l.374,14.081-.538,8.133-.956-10.212-.279-13.635-.926,2.287-.114,21.431c-.831-6.616-1.28-12.968-1.872-19.788-.064-.741-1.271-1.735-1.393-1.118s-1.144-6.136-1.144-6.136-.606,3-.84,4.074-1.172-4.484-1.172-4.484l-.567,3.636-1.181-4.326-.217,5.728-.062,8.349-1.749-8.1-1.1,10.505-1.62-8.8-1.343,9.214-1.027-6.672-.759,7.789-1.986-14.361-1.48,22.365-.89-23.528-.782,22.925-1.914-25.311-1.14,14.76s-1.428-19.1-1.549-19.748-2.225.353-2.225.353l-2,.7-.967,4.768-.563-2.594-.641-3.864-.683.466-.513-2.114-1.426,27.734-.336-28.189-2.48-1.966-.9,1.306-2.17-.507-1.042-2.733-.829,2.657-.442-1.16-.708,36.96c-.252,13.178.318-26.055-1.968-41.717l-.93,21.053-1.775-24.545-.5,12.553-1.333-14.359-1.771.883-1.886.159-.277,1.7-1.107-2.976-.338,2.639-.439-3.208-.521,6.636-.811,1.159-1.077-3.445-.854,3.047-.763-3.249-.651,2.442-.932-5.636-1.175-11.815.051,6.63-.041,15.409a177.682,177.682,0,0,0-2.505-23.77l-1,44.659-1.57-43.454-.581-.447.177,12.117s-.263,6.432-.367,8-.461-2.9-.461-2.9c-.491-6.334-1.444-23.454-1.288-17.507l.373,14.081-.538,8.133-.956-10.212-.28-13.635-.926,2.287-.113,21.432c-.831-6.617-1.28-12.969-1.872-19.788-.064-.741-1.272-1.736-1.394-1.119s-1.143-6.135-1.143-6.135-.606,3-.841,4.074-1.171-4.483-1.171-4.483l-.567,3.635-1.181-4.325-.217,5.728-.063,8.349-1.747-8.1-1.1,10.506-1.62-8.8-1.344,9.214-1.026-6.672-.76,7.79-1.985-14.362-1.48,22.365-.89-23.528-.783,22.926-1.914-25.312-1.14,14.76s-1.427-19.1-1.549-19.748-2.224.354-2.224.354l-2,.7-.968,4.768-.562-2.594-.641-3.865-.684.466-.513-2.115-1.427,27.734-.336-28.189-2.479-1.966-.9,1.307-2.169-.507-1.042-2.732-.829,2.656-1.042-2.732Z" transform="translate(-4530.689 -1536.72)" fill="#4551fb" fill-rule="evenodd"/>
                <g id="Group_2469" data-name="Group 2469" transform="translate(14.114 52.529)">
                  <path id="Path_11204" data-name="Path 11204" d="M4563.012,1561.946l5.809,7.954.6.828.612-.126,5.853-1.219Z" transform="translate(-4563.012 -1561.946)" fill="#00cedc" fill-rule="evenodd"/>
                  <g id="Group_2468" data-name="Group 2468" transform="translate(5.589 5.182)">
                    <path id="Path_11205" data-name="Path 11205" d="M4741.01,1669.123c-.039,14.153-.079,68.211-.119,120.782l1.445.833c.042-52.572.082-106.63.116-120.782l-1.441-.833Zm-37.152,99.285c.041-52.535.082-106.524.12-120.667l-1.442-.832c-.039,14.142-.079,68.125-.119,120.658l1.441.841Zm-38.49-22.477c.04-52.455.081-106.292.119-120.411l-1.44-.831c-.041,14.119-.081,67.949-.121,120.4Z" transform="translate(-4625.451 -1602.473)" fill="#6bb6ff" fill-rule="evenodd"/>
                    <path id="Path_11206" data-name="Path 11206" d="M4575.932,1573.813c-.041,14.107-.081,67.862-.12,120.273l1.44.831c.04-52.411.08-106.164.122-120.271C4576.845,1574.341,4576.515,1574.151,4575.932,1573.813Z" transform="translate(-4575.812 -1573.813)" fill="#00cedc" fill-rule="evenodd"/>
                  </g>
                </g>
              </g>
            </g>
            <path id="Path_11207" data-name="Path 11207" d="M4813.3,1522.158q11.824,6.852,23.653,13.643c4.346,2.511,7.866,8.606,7.852,13.6l.227,182.533c-.007,2.27-.743,3.925-1.951,4.82-1.442,1.066-3.614,2.547-5.435,2.757l-.055.006a6.474,6.474,0,0,1-4.359-1q-12.524-7.185-25.043-14.449V1523.56Z" transform="translate(-4686.921 -1454.449)" fill-rule="evenodd" opacity="0.5" fill="url(#linear-gradient-3)" style="mix-blend-mode: multiply;isolation: isolate"/>
          </g>
          <g id="Group_2475" data-name="Group 2475" transform="translate(141.126 28.635)">
            <g id="Group_2473" data-name="Group 2473">
              <path id="Path_11208" data-name="Path 11208" d="M5060.494,1617.9c-.023,7.838-2.817,13.355-7.285,15.951l-7.09,4.263c-24.32-10.379-15.295-133.631-16.776-168.67l7.468-183.886c-6.279-10.972-30.436-20.547-24.8-42.954l-71.283-33.367c-3.164-2.152-86.348-50.326-71.417-59.36,2.5-1.51,4.97-3.032,7.436-4.465,5.513-3.262,12.539-1.246,17.7,1.73h0l141.84,81.357c13.922,8.022,24.842,27.431,24.8,42.952Z" transform="translate(-4861.471 -1143.743)" fill="#d0e7ff" fill-rule="evenodd"/>
              <path id="Path_11209" data-name="Path 11209" d="M4854.258,1171.552c.021-7.683,2.683-13.14,7-15.8,4.542-2.8,10.915-2.5,17.964,1.574l141.84,81.354c13.727,7.928,24.842,27.177,24.8,42.954l-.591,346.449c-.044,15.775-11.233,22.151-24.961,14.224l-141.838-81.355c-13.745-7.936-24.843-27.179-24.8-42.953Z" transform="translate(-4853.665 -1149.474)" fill-rule="evenodd" fill="url(#linear-gradient-4)"/>
            </g>
            <g id="Group_2474" data-name="Group 2474" transform="translate(64.69 47.397)">
              <path id="Path_11210" data-name="Path 11210" d="M5239.8,1393.084c3.717,2.146,6.739.422,6.752-3.849a14.789,14.789,0,0,0-6.709-11.619c-3.716-2.145-6.74-.423-6.752,3.848A14.789,14.789,0,0,0,5239.8,1393.084Z" transform="translate(-5132.102 -1322.372)" fill="#485af4" fill-rule="evenodd"/>
              <path id="Path_11211" data-name="Path 11211" d="M5001.814,1253.574c0-1.163.827-1.62,1.84-1.018,14.739,8.329,38.895,21.924,53.634,30.252a4.115,4.115,0,0,1,1.829,3.2v2.3c0,1.163-.828,1.62-1.84,1.018-14.74-8.328-38.895-21.924-53.634-30.252a4.118,4.118,0,0,1-1.83-3.2Z" transform="translate(-5001.813 -1252.29)" fill="#485af4" fill-rule="evenodd"/>
            </g>
          </g>
          <g id="Group_2481" data-name="Group 2481" transform="translate(67.536)">
            <path id="Path_11212" data-name="Path 11212" d="M4855.892,1165.772l19.155,11.028c4.714,2.723,8.531,9.333,8.516,14.752l-.2,118.979c-.016,5.417-4.153,7.607-8.869,4.885l-19.859-11.431Z" transform="translate(-4780.62 -1127.518)" fill-rule="evenodd" opacity="0.5" fill="url(#linear-gradient-5)" style="mix-blend-mode: multiply;isolation: isolate"/>
            <g id="Group_2480" data-name="Group 2480">
              <g id="Group_2476" data-name="Group 2476">
                <path id="Path_11213" data-name="Path 11213" d="M4784.22,1244.851c-.008,2.438-.87,4.153-2.259,4.961-1.009.615-2.014,1.237-3.023,1.853-7.311-3.115-4.7-42-5.143-52.533l2.324-57.2c-1.954-3.412-9.467-6.391-7.713-13.361l-22.172-10.378-55.7-34.128h0c-.08-.493-.78-3.191-.485-3.386s.651-.419,1.006-.635l.016-.014c.753-.456,1.5-.915,2.245-1.348,1.714-1.014,3.9-.387,5.505.538h0l77.867,44.507a17.023,17.023,0,0,1,7.714,13.36Z" transform="translate(-4687.863 -1078.165)" fill="#d0e7ff" fill-rule="evenodd"/>
                <path id="Path_11214" data-name="Path 11214" d="M4685.317,1087.871c.013-4.907,3.489-6.893,7.763-4.424l77.867,44.506a17.013,17.013,0,0,1,7.712,13.361l-.183,107.761c-.014,4.906-3.495,6.889-7.765,4.424l-77.866-44.507a17,17,0,0,1-7.713-13.36Z" transform="translate(-4685.133 -1080.542)" fill-rule="evenodd" fill="url(#linear-gradient-6)"/>
              </g>
              <g id="Group_2479" data-name="Group 2479" transform="translate(6.869 11.858)">
                <g id="Group_2477" data-name="Group 2477">
                  <path id="Path_11215" data-name="Path 11215" d="M4700.885,1105.978c0-.586.417-.824.928-.529l9.3,5.317a2.032,2.032,0,0,1,.92,1.6l-.022,12.874c0,.586-.417.823-.927.528l-9.3-5.317a2.03,2.03,0,0,1-.921-1.6Z" transform="translate(-4700.864 -1105.323)" fill="#ffb7e8" fill-rule="evenodd"/>
                  <path id="Path_11216" data-name="Path 11216" d="M4730.733,1133.4c0-1.264.9-1.761,2-1.106,16.015,9.048,42.259,23.821,58.273,32.869a4.474,4.474,0,0,1,1.988,3.476v2.5c0,1.264-.9,1.76-2,1.107-16.015-9.049-42.259-23.821-58.273-32.87a4.47,4.47,0,0,1-1.987-3.475Z" transform="translate(-4717.69 -1120.356)" fill="#ffb7e8" fill-rule="evenodd"/>
                </g>
                <path id="Path_11217" data-name="Path 11217" d="M4700.866,1157.225c0-1.264.9-1.761,2-1.106,16.015,9.048,13.8,7.923,29.814,16.971a4.472,4.472,0,0,1,1.987,3.476v2.5c0,1.264-.9,1.76-2,1.106-16.014-9.048-13.8-7.922-29.813-16.971a4.472,4.472,0,0,1-1.988-3.475Z" transform="translate(-4700.864 -1133.776)" fill="#ffb7e8" fill-rule="evenodd"/>
                <path id="Path_11218" data-name="Path 11218" d="M4700.866,1187.342c0-1.264.9-1.761,2-1.106,16.015,9.048,13.8,7.923,29.814,16.971a4.472,4.472,0,0,1,1.987,3.476v2.5c0,1.264-.9,1.76-2,1.106-16.014-9.049-13.8-7.923-29.813-16.971a4.47,4.47,0,0,1-1.988-3.475Z" transform="translate(-4700.864 -1150.742)" fill="#ffb7e8" fill-rule="evenodd"/>
                <g id="Group_2478" data-name="Group 2478" transform="translate(0 49.46)">
                  <path id="Path_11219" data-name="Path 11219" d="M4700.885,1219.248c0-.586.417-.824.928-.529l9.3,5.317a2.033,2.033,0,0,1,.92,1.6l-.022,12.874c0,.586-.417.823-.927.528l-9.3-5.317a2.029,2.029,0,0,1-.921-1.6Z" transform="translate(-4700.864 -1218.593)" fill="#ffb7e8" fill-rule="evenodd"/>
                  <path id="Path_11220" data-name="Path 11220" d="M4730.733,1246.674c0-1.264.9-1.761,2-1.106,16.015,9.048,42.259,23.821,58.273,32.868a4.476,4.476,0,0,1,1.988,3.476v2.5c0,1.264-.9,1.76-2,1.106-16.015-9.049-42.259-23.821-58.273-32.869a4.471,4.471,0,0,1-1.987-3.475Z" transform="translate(-4717.69 -1233.626)" fill="#ffb7e8" fill-rule="evenodd"/>
                </g>
                <path id="Path_11221" data-name="Path 11221" d="M4700.866,1270.5c0-1.264.9-1.761,2-1.106,16.015,9.048,13.8,7.923,29.814,16.971a4.471,4.471,0,0,1,1.987,3.475v2.5c0,1.264-.9,1.76-2,1.106-16.014-9.049-13.8-7.923-29.813-16.971a4.472,4.472,0,0,1-1.988-3.475Z" transform="translate(-4700.864 -1197.587)" fill="#ffb7e8" fill-rule="evenodd"/>
                <path id="Path_11222" data-name="Path 11222" d="M4700.866,1300.613c0-1.264.9-1.761,2-1.106,16.015,9.048,13.8,7.923,29.814,16.971a4.472,4.472,0,0,1,1.987,3.476v2.5c0,1.264-.9,1.76-2,1.106-16.014-9.049-13.8-7.923-29.813-16.971a4.471,4.471,0,0,1-1.988-3.475Z" transform="translate(-4700.864 -1214.553)" fill="#ffb7e8" fill-rule="evenodd"/>
                <path id="Path_11223" data-name="Path 11223" d="M4700.866,1331.4c0-1.264.9-1.761,2-1.106,16.015,9.048,13.8,7.923,29.814,16.97a4.473,4.473,0,0,1,1.987,3.476v2.5c0,1.264-.9,1.759-2,1.106-16.014-9.049-13.8-7.923-29.813-16.971a4.471,4.471,0,0,1-1.988-3.475Z" transform="translate(-4700.864 -1231.899)" fill="#ffb7e8" fill-rule="evenodd"/>
              </g>
            </g>
          </g>
          <g id="Group_2483" data-name="Group 2483" transform="translate(350.242 406.115)">
            <path id="Path_11224" data-name="Path 11224" d="M5339.783,2021.346c.012-4.094-.942-6.646.828-8.869,1.351-1.7,4.492-3.149,6.134-3.716,3.18-1.1,7.217-.532,11.606,2l40.534,23.007c10.211,5.9,18.48,20.218,18.447,31.955l-.439,29.24c-.009,3.638-.771,8.3-3.562,10.852a15.878,15.878,0,0,1-8.064,3.853c-2.659.216-3.687-2.242-6.944-4.122l-40.532-23.007c-10.225-5.9-18.482-20.219-18.449-31.955Z" transform="translate(-5336.385 -2008.226)" fill="#d0e7ff" fill-rule="evenodd"/>
            <path id="Path_11225" data-name="Path 11225" d="M5333.012,2025.326c.032-11.737,8.345-16.487,18.568-10.582l40.533,23.007c10.212,5.9,18.48,20.218,18.447,31.955l-.439,29.239c-.033,11.736-8.357,16.48-18.57,10.583l-40.532-23.006c-10.225-5.9-18.481-20.22-18.449-31.955Z" transform="translate(-5332.569 -2010.468)" fill-rule="evenodd" fill="url(#linear-gradient-7)"/>
            <g id="Group_2482" data-name="Group 2482" transform="translate(5.932 30.515)">
              <path id="Path_11226" data-name="Path 11226" d="M5440.8,2106.185l23.433,25.221-.018,6.425-23.5-1.821.021-7.581,16.42,2.049-16.379-16.746Z" transform="translate(-5399.423 -2093.925)" fill="#fff" fill-rule="evenodd"/>
              <path id="Path_11227" data-name="Path 11227" d="M5418,2087.313a3.934,3.934,0,0,1,.624,2.134,13.012,13.012,0,0,1-.515,2.731l-6.629,27.14c-.211.907-.42,1.6-.57,2.094a1.425,1.425,0,0,1-.774.948c-.321.15-.8.047-1.45-.329a4.193,4.193,0,0,1-2.36-3.742,17.839,17.839,0,0,1,.478-2.828l6.6-27.157a8.615,8.615,0,0,1,.987-2.8c.3-.443.924-.387,1.806.124A4.855,4.855,0,0,1,5418,2087.313Z" transform="translate(-5380.05 -2082.104)" fill="#fff" fill-rule="evenodd"/>
              <path id="Path_11228" data-name="Path 11228" d="M5346.154,2084.608l.018-6.5,23.509,1.858-.022,7.646-16.363-2.19,16.322,16.855-.022,7.58Z" transform="translate(-5346.154 -2078.109)" fill="#fff" fill-rule="evenodd"/>
            </g>
          </g>
          <g id="Group_2487" data-name="Group 2487" transform="translate(148.834 132.911)">
            <g id="Group_2484" data-name="Group 2484" transform="translate(54.83)">
              <path id="Path_11229" data-name="Path 11229" d="M5058.812,1420.1l-14.04-6.963a10.347,10.347,0,0,1-4.953-6.5l-4.181-17.034a10.043,10.043,0,0,0-4.932-6.485c-2.094-1.042-4.2-.749-5.007,1.54l-4.458,12.716c-.71,2.067-2.739,2.688-5.006,1.559l-14.042-7.005c-5.087-2.553-7.264,3.61-3.174,8.969l11.294,14.826c1.82,2.381,2.565,5.4,1.831,7.432l-4.5,12.7c-1.237,3.475,1.641,8.487,4.911,10.115a4.122,4.122,0,0,0,3.076.379l11.425-3.566a4.18,4.18,0,0,1,3.088.412,9,9,0,0,1,3.064,2.647l11.272,14.862a8.948,8.948,0,0,0,3.057,2.671c3.266,1.625,6.213-.488,5.051-5.159l-4.24-17.042c-.668-2.735.126-4.983,1.975-5.539l11.462-3.505C5065.915,1430.869,5063.886,1422.629,5058.812,1420.1Z" transform="translate(-4996.883 -1382.55)" fill="#fff" fill-rule="evenodd" opacity="0.5"/>
              <path id="Path_11230" data-name="Path 11230" d="M5007.88,1552.679c.006-2.518,1.79-3.507,3.983-2.2l49.571,28.009a8.914,8.914,0,0,1,3.959,6.923v4.982c-.008,2.518-1.793,3.506-3.985,2.2l-49.572-28.01a8.907,8.907,0,0,1-3.958-6.923Z" transform="translate(-5003.077 -1476.827)" fill="#fff" fill-rule="evenodd" opacity="0.8"/>
            </g>
            <path id="Path_11231" data-name="Path 11231" d="M4943.466,1891.97c.006-1.992,1.417-2.8,3.153-1.8,22.838,13.1,84.554,48.539,107.392,61.639a6.91,6.91,0,0,1,3.132,5.425l.09,19.718c-.005,1.993-1.419,2.8-3.153,1.8-22.838-13.1-84.554-48.539-107.392-61.639a6.909,6.909,0,0,1-3.132-5.425Z" transform="translate(-4911.96 -1668.275)" fill="#fff" fill-rule="evenodd"/>
            <g id="Group_2486" data-name="Group 2486" transform="translate(0 70.802)">
              <g id="Group_2485" data-name="Group 2485" transform="translate(9.58 22.595)">
                <path id="Path_11232" data-name="Path 11232" d="M5206.087,1776.953l-12.511-7.223-6.173,10.005-6.072-17.075-12.55-7.245,12.9,32.152-12.821,16.874,12.511,7.222,5.973-9.688,5.8,16.488,12.511,7.223-12.643-31.574Z" transform="translate(-5048.471 -1685.999)" fill="#fff" fill-rule="evenodd"/>
                <path id="Path_11233" data-name="Path 11233" d="M5106.191,1746.952c-.017,6-.108,10.06-5.336,7.043-5.518-3.188-5.63-7.083-5.611-13.363l.078-27.569-11.28-6.513-.08,27.57c-.06,21.275,8.138,26.5,15.762,30.9l1.1.632c7.07,4.083,16.669,9.486,16.73-12.14l.076-27.569-11.361-6.559Z" transform="translate(-5000.689 -1658.471)" fill="#fff" fill-rule="evenodd"/>
                <path id="Path_11234" data-name="Path 11234" d="M5012.256,1727.918l11.575,6.685,16.532-46.9-11.575-6.684Z" transform="translate(-4960.293 -1644.089)" fill="#fff" fill-rule="evenodd"/>
                <path id="Path_11235" data-name="Path 11235" d="M4980.575,1695.837l11.282,6.515.138-48.9-11.281-6.513Z" transform="translate(-4942.446 -1624.888)" fill="#fff" fill-rule="evenodd"/>
                <path id="Path_11236" data-name="Path 11236" d="M4915.524,1636.87c-.017,6-.148,10.036-5.335,7.042-5.546-3.2-5.629-7.082-5.612-13.363l.078-27.57-11.32-6.536-.08,27.57c-.06,21.274,8.174,26.518,15.8,30.923l1.1.633c7.032,4.059,16.683,9.494,16.744-12.132l.077-27.569L4915.6,1609.3Z" transform="translate(-4893.255 -1596.444)" fill="#fff" fill-rule="evenodd"/>
              </g>
              <path id="Path_11237" data-name="Path 11237" d="M4873.412,1556.133l.021-7.828,6.758,3.9-.021,7.765-6.758-3.838Zm0,75.367.021-7.828,6.758,3.9-.021,7.765-6.758-3.838Zm165.495,19,.021-7.828,6.758,3.9-.021,7.765-6.758-3.837Zm0,75.367.021-7.828,6.758,3.9-.021,7.765-6.758-3.838Zm-156.629-168.352.009,6.061-5.382-3.068.162,62.845,5.2,2.972.009,5.589,154.543,88.781-.009-6.263,4.813,2.751-.161-62.842-4.633-2.64-.008-5.407-154.543-88.778Zm-6.854,2.149.163,62.842-4.271-2.441.02,12.636,10.952,6.242-.008-5.324,154.543,88.781.007,4.667,10.952,6.242-.02-12.619-4.657-2.662-.162-62.844,4.839,2.757-.02-12.619-10.952-6.259.007,5.522-154.543-88.778-.007-4.852-10.952-6.26.02,12.636Z" transform="translate(-4871.315 -1544.698)" fill="#fff" fill-rule="evenodd" opacity="0.5"/>
            </g>
          </g>
          <g id="Group_2492" data-name="Group 2492" transform="translate(287.728 156.218)">
            <path id="Path_11238" data-name="Path 11238" d="M5209.548,1440.008l25.571,15,7.223-4.972-.028,136.295-.292,66.214-7.472,3.549c-15.887-9.267-21.219-11.392-37.12-20.512-4.329-2.5-7.824-8.558-7.811-13.527l-.216-174.738C5189.386,1433.974,5199.994,1433.5,5209.548,1440.008Z" transform="translate(-5189.403 -1435.926)" fill-rule="evenodd" opacity="0.5" fill="url(#linear-gradient-8)" style="mix-blend-mode: multiply;isolation: isolate"/>
            <g id="Group_2491" data-name="Group 2491" transform="translate(10.525 3.298)">
              <g id="Group_2488" data-name="Group 2488">
                <path id="Path_11239" data-name="Path 11239" d="M5218.381,1445.52l3.5-1.851a5.56,5.56,0,0,1,4.462.79c41.871,24.015,83.654,48.874,125.529,72.893A15.735,15.735,0,0,1,5359,1529.7l.205,165.752a5.236,5.236,0,0,1-1.772,4.376c-1.318.975-4.034,3.088-6.187,1.843-41.873-24.016-82.882-51.01-124.748-75.023a15.723,15.723,0,0,1-7.131-12.351Z" transform="translate(-5216.253 -1443.479)" fill="#d0e7ff" fill-rule="evenodd"/>
                <path id="Path_11240" data-name="Path 11240" d="M5213.507,1452.171c.014-4.537,3.226-6.373,7.178-4.09,41.871,24.015,83.655,48.874,125.529,72.892a15.731,15.731,0,0,1,7.13,12.352l.205,165.752c-.013,4.535-3.23,6.368-7.178,4.089-41.872-24.017-83.663-48.88-125.528-72.892a15.718,15.718,0,0,1-7.131-12.351Z" transform="translate(-5213.507 -1445.518)" fill-rule="evenodd" fill="url(#linear-gradient-9)"/>
              </g>
              <g id="Group_2490" data-name="Group 2490" transform="translate(25.848 45.643)">
                <path id="Path_11241" data-name="Path 11241" d="M5310.6,1760.476l-14.042-8.217a2.936,2.936,0,0,0-2.025-.548,1.19,1.19,0,0,0-.712.5,2.749,2.749,0,0,0-.422,1.335,8.392,8.392,0,0,0,1.817,5.345l11.291,15.8a13.3,13.3,0,0,1,2.136,4.574,7.732,7.732,0,0,1-.086,4.426l-4.494,12.31a6.089,6.089,0,0,0,.587,4.426,9.837,9.837,0,0,0,3.6,4.237,3.79,3.79,0,0,0,1.115.456,2.138,2.138,0,0,0,.862.009l11.424-2.583a4.793,4.793,0,0,1,2.1.02,7.272,7.272,0,0,1,2.087.841,10.6,10.6,0,0,1,1.923,1.464,13.118,13.118,0,0,1,1.654,1.921l11.269,15.831a10.358,10.358,0,0,0,1.264,1.478,6.959,6.959,0,0,0,1.282.986,3.4,3.4,0,0,0,1.6.521,1.392,1.392,0,0,0,.9-.264,1.7,1.7,0,0,0,.567-.952,5.307,5.307,0,0,0-.106-2.527c-1.41-5.787-3.11-11.881-4.3-17.674a7.559,7.559,0,0,1,.162-4.223,3.9,3.9,0,0,1,2.784-2.542c3.646-.979,7.815-1.717,11.549-2.536a1.249,1.249,0,0,0,.662-.366,2.7,2.7,0,0,0,.5-1.9,8.462,8.462,0,0,0-.822-3.2,9.264,9.264,0,0,0-3.55-4.117l-14.041-8.174a11.956,11.956,0,0,1-3.582-3.371,13.581,13.581,0,0,1-2.14-4.575l-4.18-17.4a9.989,9.989,0,0,0-1.581-3.439,8.637,8.637,0,0,0-2.582-2.441l1.323-2.527a12.007,12.007,0,0,1,3.6,3.381,13.237,13.237,0,0,1,2.1,4.56l4.179,17.387a10.336,10.336,0,0,0,1.632,3.464,8.64,8.64,0,0,0,2.555,2.438l14.04,8.174a12.591,12.591,0,0,1,4.882,5.592,11.637,11.637,0,0,1,1.114,4.417,5.335,5.335,0,0,1-1.216,3.846,3.839,3.839,0,0,1-2.034,1.142l-11.525,2.53a1.368,1.368,0,0,0-.9.909,4.688,4.688,0,0,0-.059,2.567l4.281,17.6a8.2,8.2,0,0,1,.108,3.973,4.283,4.283,0,0,1-1.51,2.385,4.111,4.111,0,0,1-2.633.817,6.443,6.443,0,0,1-3.1-.951,10.185,10.185,0,0,1-1.9-1.458,13.678,13.678,0,0,1-1.664-1.946l-11.272-15.835a9.928,9.928,0,0,0-1.243-1.441,7.208,7.208,0,0,0-1.311-1,4.1,4.1,0,0,0-1.16-.478,1.908,1.908,0,0,0-.828-.019l-11.435,2.58a4.914,4.914,0,0,1-2.1,0,7.114,7.114,0,0,1-2.071-.825,13.265,13.265,0,0,1-4.927-5.7,9.014,9.014,0,0,1-.71-6.72l4.5-12.309a4.825,4.825,0,0,0,0-2.735,10.083,10.083,0,0,0-1.615-3.44l-11.29-15.8a11.52,11.52,0,0,1-2.414-7.457,5.43,5.43,0,0,1,.911-2.666,3.762,3.762,0,0,1,2.282-1.547,5.82,5.82,0,0,1,4.224.913l14.042,8.216Z" transform="translate(-5282.696 -1658.07)" fill="#fff" fill-rule="evenodd"/>
                <g id="Group_2489" data-name="Group 2489">
                  <path id="Path_11242" data-name="Path 11242" d="M5349.673,1583.982l-7.437-3.956-7.436-4.567c-.152.548-3.04,11-7.371,12.206,10.272,19.759,11.348,45.672,11.4,47.035l2.435,1.4-.026-35.531a9.974,9.974,0,0,1-3.448-6.925c.009-2.777,1.992-3.887,4.411-2.553a9.731,9.731,0,0,1,4.417,7.588c-.006,2.4-1.44,3.613-3.4,3.032l.009,35.524,2.417,1.31c.057-1.3,1.12-25.978,11.362-33.935C5352.695,1598.479,5349.824,1584.705,5349.673,1583.982Z" transform="translate(-5303.533 -1563.472)" fill="#1c8df3" fill-rule="evenodd"/>
                  <path id="Path_11243" data-name="Path 11243" d="M5342.522,1548.007l.019,12.7,16.447,9.432.037-12.671Z" transform="translate(-5312.035 -1548.007)" fill="#485af4" fill-rule="evenodd"/>
                  <path id="Path_11244" data-name="Path 11244" d="M5346.843,1662.675l-3.278-1.81.01-3.85,3.279,1.891-.011,3.77Zm-32.186-16.392-6.757-3.9-.033-7.777,6.813,3.87-.023,7.808Zm-35.928-22.6-3.3-1.9.012-3.77,3.3,1.905-.012,3.767Zm-3.93-43.1.021-7.828,6.758,3.9-.022,7.765-6.757-3.838Zm65.822,37.663.023-7.742,6.756,3.838-.021,7.807-6.759-3.9Zm.818,35.128.026,3.407-18.681-10.68a18.473,18.473,0,0,0,12.279-1.973c5.934-3.445,9.642-10.728,9.8-21.028l3.59,2.074,1.043.6-.02-12.639-10.971-6.27.038,12.584,4.231,2.444c-.138,9.637-3.625,16.455-9.209,19.7-4.448,2.6-10.282,2.855-16.788.469l-.022-4.8-10.953-6.26.006,4.725a68.691,68.691,0,0,1-16.839-19.672c-5.6-9.664-9.115-20.458-9.233-30.288l2.911,1.66,1.026.595-.02-12.619-10.952-6.26.02,12.636,4.926,2.8c.135,10.493,3.865,22,9.815,32.334a77.988,77.988,0,0,0,12.337,16.038l-18.993-10.861.01-3.45-7.49-4.262.03,8.659,6.392,3.63,1.044.6.008-3.387,25.02,14.339,0,5.356,9.87,5.7,1.1.637.034-5.442,24.633,14.158.028,3.411,6.39,3.689,1.1.572-.03-8.6Z" transform="translate(-5272.703 -1559.919)" fill="#fff" fill-rule="evenodd"/>
                </g>
              </g>
            </g>
          </g>
        </g>
        <path id="Path_11245" data-name="Path 11245" d="M5095.123,1194.027l4.153-.018.033,7.577c0,1.347-4.3,2.174-4.16-1.491l-.026-6.068Zm219.143,120.588-4.152.018-.036-8.307,4.152-.018.036,8.307Zm-26.524,150.33c.64.268,1.293.518,1.97.753l1.319-3.938a13.214,13.214,0,0,1-1.827-.713c-1.589-.348-2.863,2.974-1.462,3.9Zm6.352,1.833a18.2,18.2,0,0,0,9.229-.844l-1.482-3.882a14.081,14.081,0,0,1-7.136.617l-.611,4.109Zm13.391-3.222a18.016,18.016,0,0,0,5.4-7.531l-3.863-1.524a13.892,13.892,0,0,1-4.153,5.831l2.618,3.225Zm6.672-11.877a41.215,41.215,0,0,0,.611-8.676l-4.153.018a37.241,37.241,0,0,1-.535,7.863l4.077.8Zm.593-12.83-4.153.018-.036-8.307,4.153-.018.037,8.307Zm-.055-12.46-4.153.017-.036-8.307,4.153-.018.036,8.307Zm-.053-12.461-4.153.018-.037-8.307,4.153-.018.037,8.307Zm-.055-12.46-4.152.018-.037-8.307,4.153-.018.036,8.307Zm-.053-12.461-4.153.018-.036-8.307,4.153-.018.036,8.307Zm-.054-12.46-4.153.018-.036-8.307,4.153-.018.036,8.307Zm-.053-12.46-4.154.018-.036-8.307,4.153-.018.036,8.307Zm-.054-12.46-4.153.018-.035-8.307,4.153-.018.035,8.307Zm-.053-12.46-4.153.018-.035-8.307,4.153-.018.035,8.307Zm-.053-12.461-4.152.018-.036-8.306,4.152-.018.036,8.306Zm-.525-25.191a55.064,55.064,0,0,0-1.9-8.408l-3.969,1.226a48.6,48.6,0,0,1,1.756,7.782l4.11-.6Zm-3.3-12.47a67.832,67.832,0,0,0-3.568-7.779l-3.66,1.966a62.691,62.691,0,0,1,3.355,7.313l3.874-1.5Zm-5.7-11.49a69.994,69.994,0,0,0-4.934-6.991l-3.236,2.6a65.878,65.878,0,0,1,4.639,6.575l3.53-2.188ZM5297,1267.311a55.741,55.741,0,0,0-6.31-5.88l-2.574,3.26a52.213,52.213,0,0,1,5.831,5.436l3.053-2.816Zm-9.844-8.422c-2.346-1.51-4.861-2.86-7.266-4.24l-2.066,3.6c2.352,1.348,4.8,2.656,7.086,4.13l2.247-3.494Zm-10.87-6.306-2.066,3.6-7.207-4.134,2.066-3.6,7.207,4.134Zm-10.81-6.2-2.066,3.6-7.206-4.133,2.066-3.6,7.206,4.133Zm-10.809-6.2-2.066,3.6-7.207-4.133,2.067-3.6,7.206,4.133Zm-10.809-6.2-2.067,3.6-7.207-4.133,2.067-3.6,7.207,4.134Zm-10.81-6.2-2.066,3.6-7.207-4.134,2.067-3.6,7.206,4.133Zm-10.809-6.2-2.066,3.6-7.206-4.134,2.066-3.6,7.206,4.134Zm-10.809-6.2-2.067,3.6-7.205-4.133,2.066-3.6,7.206,4.133Zm-10.809-6.2-2.066,3.6-7.205-4.133,2.066-3.6,7.2,4.133Zm-10.808-6.2-2.066,3.6-7.206-4.133,2.067-3.6,7.205,4.133Zm-10.809-6.2-2.066,3.6-7.206-4.133,2.066-3.6,7.206,4.133Zm-10.809-6.2-2.066,3.6-7.205-4.133,2.066-3.6,7.205,4.133Zm-10.808-6.2-2.066,3.6-7.206-4.133,2.066-3.6,7.206,4.132Zm-10.809-6.2-2.066,3.6-7.206-4.133,2.067-3.6,7.205,4.133Zm-10.808-6.2-2.066,3.6-7.206-4.133,2.067-3.6,7.205,4.133Zm-10.888-6.217a30.34,30.34,0,0,0-8.376-3.015l-.744,4.087c.59.147,1.174.244,1.775.412a27.677,27.677,0,0,1,5.416,2.194l1.929-3.678Zm-12.961-3.366a16.6,16.6,0,0,0-6.586,1.582c-.491.237-.956.491-1.421.775-.308.191-.612.392-.906.6l2.439,3.362c.208-.152.428-.294.647-.43a12.19,12.19,0,0,1,5.987-1.743l-.161-4.15Zm-12.307,6.267-.246.329a21.717,21.717,0,0,0-3.508,8l4.051.916a17.4,17.4,0,0,1,3-6.706l.005-.009-3.3-2.526ZM5095.2,1181.4c-.222,2.788-.1,5.723-.09,8.475l4.153-.018c-.011-2.619-.133-5.465.079-8.133Z" transform="translate(-4830.038 -1125.622)" fill-rule="evenodd" fill="url(#linear-gradient-10)"/>
      </g>
      <g id="Group_2501" data-name="Group 2501" transform="translate(8.822 208.707)">
        <path id="Path_11246" data-name="Path 11246" d="M4661.222,2304.485l-81.069-46.17c-8.838-4.038-21.486-7.252-30.491-2.567-8.2,4.27-21.719,13.008-27.695,16.416-4.539,2.59-20.3,12.029-10.481,17.365,28.869,15.7,57.439,33.353,86.755,49.3,5.545,3.017,13.655,4.107,22.169,3.4a58.712,58.712,0,0,0,24.012-7.151q7.307-4.25,14.376-8.368c6.359-3.7,9.73-8.081,10.064-12.129C4669.187,2310.628,4666.646,2306.962,4661.222,2304.485Z" transform="translate(-4508.324 -1948.952)" fill="#5f7ffb" fill-rule="evenodd" opacity="0.2"/>
        <g id="Group_2500" data-name="Group 2500" transform="translate(32.93)">
          <path id="Path_11247" data-name="Path 11247" d="M4615.139,2020.626a23.365,23.365,0,0,1-1.366,3.314c-.97,1.058-2.179,1.7-2.746,2.9-3.037,6.459-3.7,12.684-1.59,45.836l7.782.165,1-11.711c.963-4.746,3.63-11.693,4.707-15.995,2.31-9.211,2.566-13.908,3.94-20.616l.079-.044c8.527-26,17.335-51.562,24.416-77.748l24.288-70.446.771-18.888c.125-3.052-1.5-5.292-2.464-7.68-12.51,3.686-19.509,7.657-32.95,7.184-4.031,6-9.557,17.214-9.761,25.693-.4,16.513.9,27.533-4.147,55.14C4612.123,1988.13,4620.819,1987.256,4615.139,2020.626Z" transform="translate(-4597.524 -1721.522)" fill-rule="evenodd" fill="url(#linear-gradient-11)"/>
          <g id="Group_2495" data-name="Group 2495" transform="translate(0 301.545)">
            <path id="Path_11248" data-name="Path 11248" d="M4587.175,2302.342a12.432,12.432,0,0,1-2.634-.385c-.4-.447-1.158-2.646-.607-3.06C4584.915,2298.247,4586.911,2301.706,4587.175,2302.342Z" transform="translate(-4583.74 -2276.066)" fill="#1f202b" fill-rule="evenodd"/>
            <path id="Path_11249" data-name="Path 11249" d="M4594.337,2276.534c.928,2.963-.393,5.821-1.324,8.9-3.256,10.749-5.163,11.352-3.783,16.215a21.734,21.734,0,0,0,4.757,8.534c2.108,2.4,2.744,4.129,5.451,6,4.077,2.817,7.708,4.134,6.821-1.519a27.085,27.085,0,0,0-1.331-5.242c-2.889-6.708-6.251-9.652-4.43-18.025,1.354-6.217,3.5-10.313.71-14.5Z" transform="translate(-4586.577 -2263.513)" fill="#161a40" fill-rule="evenodd"/>
            <path id="Path_11250" data-name="Path 11250" d="M4592.392,2253.033c-1.224,5.615-3.052,10.321-8.211,16.514.647-.173,2.307,1.522,3.22,3.4,6.727-7.733,10-11.493,12.069-8.162a105.972,105.972,0,0,1-2.081,11.8,11.765,11.765,0,0,0,.226,6.129c2.642,6.341,7.484,15.6,5.637,18.629.651-.814,1.382-3.049,1.374-6.055-.012-4.378-.756-10.3-.849-13.948-.127-4.922,1.734-9.193,2.032-15.9a53.589,53.589,0,0,0-.011-5.616c-.282-4.741-.8-11.031-4.136-12.809-1.187-.634-4.273-.176-5.869.635C4593.551,2248.784,4592.863,2250.875,4592.392,2253.033Z" transform="translate(-4583.989 -2246.716)" fill="#161f69" fill-rule="evenodd"/>
          </g>
          <path id="Path_11251" data-name="Path 11251" d="M4715.437,2053.389c-.6,5-5.17,9.789-5.728,13.048-1.346,7.864,4.352,3.775,10.8,13.884,2.582-.021,8.269,9.284,15.966,9.773,1.768.113,4.925-4.176,1.432-7.211-1.557-.905-2.947-.233-4.226-1.348-2.5-2.215-5.431-19.432-5.264-26.147,6.978-37.034,11.386-72.339,18.347-108.572,3.5-18.214,4.158-29.469,2.986-42.879-.451-7.677.348-11.447-2.181-18.888a45.079,45.079,0,0,0-3.664-7.681c-11.934,3.686-20.835,7.3-34.351,6.83-3.094,6-5.775,14.017-4.655,22.495,2.183,16.514,10.455,28.536,12.286,56.854-8.908,31.146.341,56.007-1.762,89.657C4715.425,2053.267,4715.43,2053.328,4715.437,2053.389Z" transform="translate(-4651.85 -1737.101)" fill-rule="evenodd" fill="url(#linear-gradient-12)"/>
          <path id="Path_11252" data-name="Path 11252" d="M4703.919,1871.218c1.829-11.19,3.75-22.389,5.918-33.679,3.5-18.213,4.157-29.469,2.986-42.879-.45-7.677.349-11.447-2.181-18.888-.342-1.009-2.525-5.262-2.336-5.833-3.775-8.326-4.3-32.83-4.267-33.047,1.77-12.979,8.832-17.543,5.031-28.641-2.784-3.819-10.309-9.944-18.134-14.23-11.009-6.029-23.306-9.809-29.906-10.554-13.972-1.58-14,21.451-9.144,32.3,9.687,21.617,10.4,32.675,5.439,49.1-3.873,6.248-8.5,16.279-8.686,24.024-.4,16.513.9,27.533-4.147,55.14-2.323,7.822-4.076,14.407-5.4,20.078C4649.287,1882.7,4682.756,1881.043,4703.919,1871.218Z" transform="translate(-4614.921 -1627.823)" fill-rule="evenodd" fill="url(#linear-gradient-13)"/>
          <g id="Group_2496" data-name="Group 2496" transform="translate(54.737 323.303)">
            <path id="Path_11253" data-name="Path 11253" d="M4715.069,2296.545c6.25.767,12.084,16.028,16.918,22.659,2.348,3.22,7.324-.1,5.3-.964,1.029.073,4.812-.376,7.6.073,3.919.63,2.544,4.558-.121,6.4-5.933,4.1-11.2,6.406-16.578,3.692a25.61,25.61,0,0,1-3.3-2.2,16.482,16.482,0,0,1-2.2-1.78c-1.74-2.086-2.409-5.448-4-8.3-.526-.946-.956-1.15-1.3-.893-.653.915.022,14.631.348,17.38-.176.787-2.851,1.408-3.387.81l-4.965-24.37a8.7,8.7,0,0,1,.651-6.242C4711.549,2299.953,4714.407,2297.743,4715.069,2296.545Z" transform="translate(-4709.097 -2296.545)" fill="#161f69" fill-rule="evenodd"/>
            <path id="Path_11254" data-name="Path 11254" d="M4742.61,2353.144a11.193,11.193,0,0,1-3.185-1.061,25.6,25.6,0,0,1-3.3-2.195,16.5,16.5,0,0,1-2.2-1.779c-1.885-2.26-2.805-6.457-4.9-9.334.7-.429,2.524-.385,4.354,2.628,2.751,5.056,4.637,8.777,8.267,11.229A5.622,5.622,0,0,0,4742.61,2353.144Z" transform="translate(-4720.327 -2320.225)" fill="#161a40" fill-rule="evenodd"/>
          </g>
          <path id="Path_11255" data-name="Path 11255" d="M4630.6,1724.882l23.833,5.442c4.784,2.143,1.161,12.29-3.568,13.479l-33.27-4.3c-8.479-1.8-10.337-7.389-8.5-11.743.038-.091.081-.179.126-.266.574-2.7,17.519-27.062,19.961-30.364a35.5,35.5,0,0,1,8.422-8.434,9.218,9.218,0,0,1,9.181.255c3.428,2.1,4.572,5.588,3.237,8.79C4647.586,1703.589,4638.324,1715.051,4630.6,1724.882Z" transform="translate(-4597.661 -1630.187)" fill-rule="evenodd" fill="url(#linear-gradient-14)"/>
          <g id="Group_2497" data-name="Group 2497" transform="translate(70.968 67.686)">
            <path id="Path_11256" data-name="Path 11256" d="M4896.451,1728.305c5.705-3.481,13.4-10.077,18.683-10.792,3.332-1.693,8.273-4.474,11.435-6.139,2.314-1.219,3.292,2.774,1.306,4.086-1.945,1.287-7.189,4.5-7.207,4.507q-.111.048-.226.091a11.108,11.108,0,0,1,1.145,7.149c-.5,2.76-6.6,6.278-10.423,8.832-3.39,2.265-7.46.564-9.749,2.357C4897.547,1736.6,4896.908,1732.056,4896.451,1728.305Z" transform="translate(-4830.872 -1711.146)" fill-rule="evenodd" fill="url(#linear-gradient-15)"/>
            <path id="Path_11257" data-name="Path 11257" d="M4785.393,1748.712c6.339-5.1,14.269-9.533,20.675-13.528,1.028-.641,2.58-.62,3.389-1.106,1-.6,1.815-1.075,2.388-1.382,2.283,1.246,5.115,5.9,6.373,9.554-.851.736-1.7,1.512-2.555,2.319-.659.624-1.345,2.775-2,3.431-7.134,7.1-11.968,13.416-18.925,18.259-1,.7-5.151,4.308-7.728,5.607-3.164,1.6-7.675,0-9.8-3.215-1.834-1.652-3.477-3.467-4.517-4.439-4.724-4.419-16.468-14.446-22.9-23.067-4.719-6.33-3.937-9.8-2.083-13.1,4.316-7.672,10.838-12.589,18.042-5.634,3.427,3.309,5.73,8.836,8.665,12.657C4777.7,1739.342,4781.839,1744.051,4785.393,1748.712Z" transform="translate(-4746.266 -1715.614)" fill-rule="evenodd" fill="url(#linear-gradient-16)"/>
          </g>
          <path id="Path_11258" data-name="Path 11258" d="M4661.028,1683.466a8.985,8.985,0,0,0-9.3,4.618c-.078.129-.153.262-.227.395l-.1.186-.168.324-.05.1c-.072.143-.139.288-.207.435l-.071.159-.169.394-.033.078q-.1.242-.191.49l-.048.136-.14.394-.044.13c-.055.167-.109.335-.161.506l-.037.127-.122.425-.037.13c-.05.185-.1.371-.143.558l0,.012c-.043.18-.084.362-.125.544l-.03.139c-.037.17-.072.341-.1.514l-.014.067c-.035.183-.067.369-.1.555l-.029.179-.078.509-.007.046-.075.566-.024.205-.049.445-.015.152-.054.6-.007.1-.033.473-.013.216-.028.555-.007.172-.015.507,0,.1-.008.569v.8q.007.663.037,1.328l0,.1.029.553.007.139.046.64,0,.04.048.555.015.169.06.582.017.152.065.542.008.072.084.625.016.112.082.537.021.128.1.585.019.106.1.526.022.112c.077.4.158.79.245,1.177l.036.157.119.506.018.074.15.592.014.053q.152.578.319,1.137l.043.142.129.414.048.151.16.48.046.131.148.417.036.1c.064.17.127.34.192.506l.015.038.175.433.053.125.2.462c9.687,21.617,10.4,32.675,5.439,49.1-3.873,6.248-8.5,16.278-8.686,24.024-.4,16.513.9,27.533-4.147,55.14-2.323,7.822-4.076,14.407-5.4,20.078,4.69,8.55,14.306,12.814,25.382,13.973,45.653-50.152-18.767-68.151,5.726-114.147,2.792-5.244,19.934-11.913,24.217-18.394,9.186-10.778,12.819-21.417-1.049-38.569-2.3-2.847-4.018-4.336-7.1-8.635-5.042,1.189-14.428-.479-15.552-2.537-.391-.717,1.6-7.017,1.275-7.786C4663.349,1684.211,4666.1,1684.04,4661.028,1683.466Z" transform="translate(-4614.921 -1627.823)" fill-rule="evenodd" opacity="0.5" fill="url(#linear-gradient-17)" style="mix-blend-mode: multiply;isolation: isolate"/>
          <g id="Group_2499" data-name="Group 2499" transform="translate(6.352)">
            <g id="Group_2498" data-name="Group 2498" transform="translate(37.004 4.278)">
              <path id="Path_11259" data-name="Path 11259" d="M4692.265,1658.524c-1.082,4.59,15.672,9.545,21.413,7.051l.121-1.112c1.481-6.845,2.935-12.663,3.958-17.472,2.669,1.138,9.222,1.47,9.8.555-17.661-14.105-38.315-24.534-40.971-17.413,1.75,5.159,6.272,8.826,8.532,12.185a10.575,10.575,0,0,1,1.184,4.617h0A49.848,49.848,0,0,1,4692.265,1658.524Z" transform="translate(-4685.034 -1600.804)" fill-rule="evenodd" fill="url(#linear-gradient-18)"/>
              <path id="Path_11260" data-name="Path 11260" d="M4725.458,1612.755c-1.522.993-12.335-2.6-13.209-2.56-8.411.417-17.463-.267-19.133-2.748-2.26-3.359-6.782-7.026-8.532-12.185-2.8-8.245-2.251-17.544,5.288-24.019,13.108-11.256,33.672-3.007,36.618,9.742,1.206,5.229-.289,5.663-.043,9.167.457,6.452,1.188,4.02.594,14.231C4726.814,1608.273,4726.467,1612.1,4725.458,1612.755Z" transform="translate(-4683.031 -1565.932)" fill="#ffa698" fill-rule="evenodd"/>
              <path id="Path_11261" data-name="Path 11261" d="M4700.877,1684.032c.46,4.176,12.213,7.12,19.343,5.458.763-.177,1.239-.322,1.511-.807,1.046.576,3.9,4.7,4.226,6.75-6.161,5.939-25.63,2.456-28-4.5C4697.4,1689.269,4696.876,1686.13,4700.877,1684.032Z" transform="translate(-4691.226 -1632.463)" fill="#c758d8" fill-rule="evenodd"/>
            </g>
            <path id="Path_11262" data-name="Path 11262" d="M4612.5,1598.142c-11.206,9.371-17.519,26.25-12.421,35.823,4.621,8.678,15.892,13.782,12.423,19.274-2.867,4.541-9.614,9.094-1.588,16.424,4.133,3.775,14.227,13.9,34.83,8.655,20.083-5.113,41.157-22.46,24.237-41.428-17.806-19.962-7.39-24.375,2.823-40.073,5.4-8.3,10.229-24.7,5.6-30.8-7.936-10.465-13.205-2.925-20.84-6.622-14.564-7.053-26.508-2.011-33.357,9.017C4618.076,1578.28,4621.407,1590.69,4612.5,1598.142Z" transform="translate(-4598.287 -1556.135)" fill-rule="evenodd" fill="url(#linear-gradient-19)"/>
          </g>
        </g>
      </g>
    </g>
    <g id="Group_2504" data-name="Group 2504" transform="translate(4189.555 973.596)">
      <path id="Path_11263" data-name="Path 11263" d="M4407.232,1010.14c.005-1.809,1.286-2.542,2.862-1.631,16.7,9.578,33.363,19.492,50.063,29.07A6.273,6.273,0,0,1,4463,1042.5l.082,66.1c0,1.809-1.289,2.54-2.863,1.631-16.7-9.578-33.366-19.494-50.062-29.071a6.269,6.269,0,0,1-2.843-4.926Z" transform="translate(-4312.183 -993.044)" fill-rule="evenodd" opacity="0.5" fill="url(#linear-gradient-9)"/>
      <path id="Path_11264" data-name="Path 11264" d="M5645.656,2171.528c0-1.092.776-1.534,1.729-.985,10.083,5.783,20.146,11.77,30.23,17.554a3.789,3.789,0,0,1,1.718,2.975l.049,39.917c0,1.092-.778,1.534-1.729.985-10.083-5.784-20.148-11.771-30.23-17.554a3.785,3.785,0,0,1-1.717-2.974Z" transform="translate(-5009.844 -1647.759)" fill-rule="evenodd" opacity="0.5" fill="url(#linear-gradient-21)"/>
      <g id="Group_2503" data-name="Group 2503" transform="translate(430.436)">
        <path id="Path_11265" data-name="Path 11265" d="M5267.37,1136.717c0-1.81,1.286-2.542,2.863-1.631,16.7,9.578,33.362,19.492,50.062,29.07a6.271,6.271,0,0,1,2.844,4.925l.082,66.1c0,1.809-1.288,2.54-2.862,1.631-16.7-9.578-33.366-19.494-50.063-29.071a6.27,6.27,0,0,1-2.844-4.926Z" transform="translate(-5227.174 -1064.35)" fill-rule="evenodd" opacity="0.5" fill="url(#linear-gradient-22)"/>
        <path id="Path_11266" data-name="Path 11266" d="M5175.315,975.619c.006-1.809,1.287-2.542,2.863-1.631,16.7,9.577,33.362,19.492,50.063,29.071a6.268,6.268,0,0,1,2.842,4.925l.083,66.1c-.005,1.809-1.289,2.54-2.863,1.63-16.7-9.578-33.366-19.494-50.063-29.07a6.272,6.272,0,0,1-2.843-4.926l-.082-66.1Zm4.318,7.613.069,55.883a5.3,5.3,0,0,0,2.4,4.164c14.116,8.1,28.206,16.478,42.323,24.575,1.331.769,2.416.15,2.42-1.379l-.07-55.883a5.3,5.3,0,0,0-2.4-4.164c-14.118-8.1-28.206-16.479-42.322-24.576C5180.72,981.083,5179.638,981.7,5179.633,983.232Z" transform="translate(-5175.315 -973.596)" fill-rule="evenodd" opacity="0.5" fill="url(#linear-gradient-21)"/>
      </g>
      <path id="Path_11267" data-name="Path 11267" d="M4320.932,1806.988c.006-1.809,1.287-2.542,2.863-1.631,16.7,9.577,33.362,19.492,50.063,29.071a6.271,6.271,0,0,1,2.843,4.926l.083,66.1c-.006,1.809-1.289,2.541-2.864,1.631-16.7-9.578-33.366-19.494-50.062-29.07a6.272,6.272,0,0,1-2.844-4.926l-.081-66.1Zm4.318,7.613.069,55.882a5.3,5.3,0,0,0,2.4,4.164c14.116,8.1,28.206,16.478,42.323,24.576,1.331.768,2.415.15,2.42-1.379l-.07-55.883a5.3,5.3,0,0,0-2.4-4.164c-14.118-8.1-28.207-16.48-42.323-24.576C4326.338,1812.452,4325.255,1813.072,4325.25,1814.6Z" transform="translate(-4263.566 -1441.944)" fill-rule="evenodd" opacity="0.5" fill="url(#linear-gradient-24)"/>
      <path id="Path_11268" data-name="Path 11268" d="M4203.279,1466.174c-9.821-8.095-15.693-24.907-13.119-37.564s12.618-16.355,22.44-8.26,15.691,24.914,13.118,37.564S4213.1,1474.263,4203.279,1466.174Z" transform="translate(-4189.555 -1222.857)" fill-rule="evenodd" opacity="0.5" fill="url(#linear-gradient-25)"/>
      <path id="Path_11269" data-name="Path 11269" d="M5383.765,2340.719c-14.442-11.9-23.075-36.622-19.29-55.234s18.552-24.047,32.994-12.146,23.071,36.633,19.289,55.234-18.562,24.04-32.993,12.145Zm1.579-7.772c11.1,9.151,22.47,4.974,25.383-9.343s-3.736-33.342-14.839-42.492-22.473-4.967-25.383,9.344S5374.234,2323.79,5385.344,2332.947Z" transform="translate(-4850.94 -1702.25)" fill-rule="evenodd" opacity="0.5" fill="url(#linear-gradient-26)"/>
    </g>
  </g>
</svg>
