<svg xmlns="http://www.w3.org/2000/svg" xmlns:xlink="http://www.w3.org/1999/xlink" width="411.671" height="503.848" viewBox="0 0 411.671 503.848">
  <defs>
    <linearGradient id="linear-gradient" x1="-4.48" y1="9.386" x2="-3.129" y2="7.825" gradientUnits="objectBoundingBox">
      <stop offset="0" stop-color="#3f51b5"/>
      <stop offset="0.213" stop-color="#3c57bb"/>
      <stop offset="0.518" stop-color="#336acc"/>
      <stop offset="0.878" stop-color="#2689e8"/>
      <stop offset="1" stop-color="#2196f3"/>
    </linearGradient>
    <linearGradient id="linear-gradient-2" x1="-4.503" y1="10.668" x2="-3.325" y2="9.117" xlink:href="#linear-gradient"/>
    <linearGradient id="linear-gradient-3" x1="0.388" y1="1.036" x2="0.604" y2="-0.001" gradientUnits="objectBoundingBox">
      <stop offset="0" stop-color="#14a4db"/>
      <stop offset="0.196" stop-color="#19aadc"/>
      <stop offset="0.477" stop-color="#2abddf"/>
      <stop offset="0.809" stop-color="#45dce5"/>
      <stop offset="1" stop-color="#58f2e9"/>
    </linearGradient>
    <linearGradient id="linear-gradient-4" x1="-14.923" y1="31.644" x2="-14.923" y2="30.414" xlink:href="#linear-gradient-3"/>
    <linearGradient id="linear-gradient-5" x1="-62.32" y1="226.957" x2="-62.32" y2="225.66" xlink:href="#linear-gradient"/>
    <linearGradient id="linear-gradient-6" x1="-64.918" y1="64.805" x2="-64.755" y2="61.952" gradientUnits="objectBoundingBox">
      <stop offset="0" stop-color="#d9a7f7"/>
      <stop offset="1" stop-color="#2c30d0"/>
    </linearGradient>
    <linearGradient id="linear-gradient-7" x1="-64.882" y1="64.887" x2="-64.718" y2="62.034" xlink:href="#linear-gradient-6"/>
    <linearGradient id="linear-gradient-8" x1="0.388" y1="1.036" x2="0.604" y2="-0.001" xlink:href="#linear-gradient"/>
    <linearGradient id="linear-gradient-10" x1="0.863" y1="1.669" x2="0.195" y2="-0.482" xlink:href="#linear-gradient-6"/>
    <linearGradient id="linear-gradient-11" x1="0.722" y1="0.825" x2="-0.33" y2="-0.713" xlink:href="#linear-gradient-6"/>
    <linearGradient id="linear-gradient-13" x1="0.493" y1="0.45" x2="0.332" y2="-0.644" xlink:href="#linear-gradient-6"/>
    <linearGradient id="linear-gradient-14" x1="-0.237" y1="0.504" x2="2.325" y2="0.491" xlink:href="#linear-gradient-6"/>
    <linearGradient id="linear-gradient-15" x1="-0.181" y1="0.444" x2="3.388" y2="0.892" xlink:href="#linear-gradient-6"/>
    <linearGradient id="linear-gradient-16" x1="-0.906" y1="0.508" x2="3.017" y2="0.486" xlink:href="#linear-gradient-6"/>
    <linearGradient id="linear-gradient-17" x1="4.218" y1="0.045" x2="-1.864" y2="0.756" xlink:href="#linear-gradient-6"/>
    <linearGradient id="linear-gradient-18" x1="0.5" y1="2.218" x2="0.5" y2="0.044" xlink:href="#linear-gradient-6"/>
    <linearGradient id="linear-gradient-19" x1="0.5" y1="-1.092" x2="0.5" y2="0.685" xlink:href="#linear-gradient-6"/>
    <linearGradient id="linear-gradient-20" x1="-0.121" y1="1.421" x2="0.788" y2="0.073" xlink:href="#linear-gradient-6"/>
    <linearGradient id="linear-gradient-21" x1="0.582" y1="0.275" x2="0.362" y2="0.854" xlink:href="#linear-gradient-6"/>
    <linearGradient id="linear-gradient-22" x1="-9.71" y1="35.321" x2="-9.71" y2="34.417" xlink:href="#linear-gradient-6"/>
  </defs>
  <g id="Group_3126" data-name="Group 3126" transform="translate(-860.538 -1822)">
    <path id="Path_2705" data-name="Path 2705" d="M1278.675,719l-178.4-103V263.24l178.4,103Z" transform="translate(-33.515 1558.76)" opacity="0.22" fill="url(#linear-gradient)"/>
    <path id="Path_2706" data-name="Path 2706" d="M1195.913,671l-178.4-103V270.754l178.4,103Z" transform="translate(-64.976 1561.617)" opacity="0.22" fill="url(#linear-gradient-2)"/>
    <g id="Group_1417" data-name="Group 1417" transform="translate(1037.056 1847.969)">
      <path id="Path_2707" data-name="Path 2707" d="M1226.041,357.479l-129.095-74.534c-1.908-1.1-3.645-1.141-4.966-.331l-11.332,6.55,138.926,402.73,11.28-6.535v0c1.621-.889,2.654-3.021,2.654-6.074V371.745C1233.508,366.247,1230.165,359.86,1226.041,357.479Z" transform="translate(-1078.031 -282.056)" fill="#b8d0dc"/>
      <path id="Path_2708" data-name="Path 2708" d="M1215.315,689.732,1086.22,615.2c-4.124-2.381-7.468-8.768-7.468-14.266V293.4c0-5.5,3.344-8.027,7.468-5.645l129.095,74.533c4.124,2.381,7.466,8.768,7.466,14.266V684.087C1222.781,689.586,1219.439,692.113,1215.315,689.732Z" transform="translate(-1078.752 -280.231)" fill="#f1f2f2"/>
      <path id="Path_2709" data-name="Path 2709" d="M1222.781,635.287l-144.029-83.155V310.8l144.029,83.155Z" transform="translate(-1078.752 -271.129)" fill="url(#linear-gradient-3)"/>
      <path id="Path_2710" data-name="Path 2710" d="M1152.182,343.329l-32.6-18.819a4.022,4.022,0,0,1-1.68-3.209h0c0-1.238.752-1.805,1.68-1.27l32.6,18.819a4.02,4.02,0,0,1,1.679,3.209h0C1153.862,343.3,1153.111,343.864,1152.182,343.329Z" transform="translate(-1063.869 -267.697)" fill="#b8d0dc"/>
    </g>
    <g id="Group_1418" data-name="Group 1418" transform="translate(922.727 1853.156)" opacity="0.7">
      <path id="Path_2711" data-name="Path 2711" d="M1055.529,421.537,1032.9,408.474l-7.183,6.372-7.183-14.666-22.625-13.062v-101.3l59.615,34.419Z" transform="translate(-995.914 -285.814)" fill="url(#linear-gradient-4)"/>
      <path id="Path_2712" data-name="Path 2712" d="M1045.321,331.314l-13.489-7.788c-.991-.571-1.815-.246-2.067.715-.73,2.774-3.25,3.675-6.248,1.945a14.5,14.5,0,0,1-6.246-9.159,4.851,4.851,0,0,0-2.068-3.1l-13.489-7.788v12.743l8.816,5.09v33.257l25.975,15V338.969l8.816,5.089Z" transform="translate(-993.709 -278.088)" fill="#fff"/>
      <path id="Path_2713" data-name="Path 2713" d="M1026.809,340.053l-14.637-8.451V321.579l14.637,8.451Z" transform="translate(-989.734 -272.219)" opacity="0.22" fill="url(#linear-gradient-5)"/>
      <path id="Path_2714" data-name="Path 2714" d="M1016.148,305.506l-14.435-8.334v-2.9l14.435,8.334Z" transform="translate(-993.709 -282.599)" fill="#fff"/>
      <path id="Path_2715" data-name="Path 2715" d="M1009.2,303.519l-7.484-4.321v-.985l7.484,4.321Z" transform="translate(-993.709 -281.1)" fill="#fff"/>
      <path id="Path_2716" data-name="Path 2716" d="M1017.165,308.119l-9.369-5.409v-.985l9.369,5.409Z" transform="translate(-991.397 -279.765)" fill="#fff"/>
      <path id="Path_2717" data-name="Path 2717" d="M1022.8,311.371l-7.618-4.4v-.985l7.618,4.4Z" transform="translate(-988.591 -278.145)" fill="#fff"/>
      <path id="Path_2718" data-name="Path 2718" d="M1006.952,303.725l-5.239-3.025v-.985l5.239,3.025Z" transform="translate(-993.709 -280.529)" fill="#fff"/>
      <path id="Path_2719" data-name="Path 2719" d="M1026.226,314.853l-20.066-11.585v-.985l20.066,11.585Z" transform="translate(-992.019 -279.553)" fill="#fff"/>
      <path id="Path_2720" data-name="Path 2720" d="M1045.32,372.11l-43.607-25.176v-.985l43.607,25.177Z" transform="translate(-993.709 -262.955)" fill="#fff"/>
      <path id="Path_2721" data-name="Path 2721" d="M1011.262,307.716l-9.548-5.513v-.984l9.548,5.513Z" transform="translate(-993.709 -279.958)" fill="#fff"/>
      <path id="Path_2722" data-name="Path 2722" d="M1015.414,310.113l-6.242-3.6v-.985l6.242,3.6Z" transform="translate(-990.874 -278.321)" fill="#fff"/>
      <path id="Path_2723" data-name="Path 2723" d="M1014.157,357.31l-12.46-7.194v-.985l12.46,7.194Z" transform="translate(-993.716 -261.745)" fill="#fff"/>
      <path id="Path_2724" data-name="Path 2724" d="M1027.424,364.97l-15.6-9.007v-.985l15.6,9.007Z" transform="translate(-989.866 -259.522)" fill="#fff"/>
      <path id="Path_2725" data-name="Path 2725" d="M1036.8,370.385l-12.685-7.323v-.985L1036.8,369.4Z" transform="translate(-985.192 -256.824)" fill="#fff"/>
      <path id="Path_2726" data-name="Path 2726" d="M1010.42,356.655l-8.723-5.036v-.985l8.723,5.036Z" transform="translate(-993.716 -261.174)" fill="#fff"/>
      <path id="Path_2727" data-name="Path 2727" d="M1042.512,375.183l-33.412-19.29v-.985l33.412,19.29Z" transform="translate(-990.901 -259.549)" fill="#fff"/>
      <path id="Path_2728" data-name="Path 2728" d="M1017.6,362.3l-15.9-9.179v-.985l15.9,9.179Z" transform="translate(-993.716 -260.603)" fill="#fff"/>
      <path id="Path_2729" data-name="Path 2729" d="M1024.51,366.292l-10.392-6v-.985l10.392,6Z" transform="translate(-988.994 -257.877)" fill="#fff"/>
      <path id="Path_2730" data-name="Path 2730" d="M1032.942,315.815l-.134-.077a2.152,2.152,0,0,1-.9-1.718v-1.231c0-.661.4-.966.9-.679l.134.077a2.153,2.153,0,0,1,.9,1.717v1.233C1033.842,315.8,1033.439,316.1,1032.942,315.815Z" transform="translate(-982.231 -275.859)" fill="#fff"/>
      <path id="Path_2731" data-name="Path 2731" d="M1031.187,314.8l-.134-.077a2.154,2.154,0,0,1-.9-1.718v-1.231c0-.661.4-.966.9-.679l.134.077a2.156,2.156,0,0,1,.9,1.717v1.232C1032.085,314.784,1031.682,315.089,1031.187,314.8Z" transform="translate(-982.898 -276.244)" fill="#fff"/>
      <path id="Path_2732" data-name="Path 2732" d="M1029.387,313.763l-.134-.077a2.152,2.152,0,0,1-.9-1.718v-1.231c0-.662.4-.966.9-.679l.134.077a2.152,2.152,0,0,1,.9,1.717v1.231C1030.285,313.745,1029.883,314.05,1029.387,313.763Z" transform="translate(-983.582 -276.639)" fill="#fff"/>
    </g>
    <g id="Group_1419" data-name="Group 1419" transform="translate(946.303 1984.521)" opacity="0.74">
      <path id="Path_2733" data-name="Path 2733" d="M1026.484,393.6c0,4.3-3.02,6.045-6.745,3.893a14.907,14.907,0,0,1-6.744-11.68c0-4.3,3.02-6.045,6.744-3.893A14.9,14.9,0,0,1,1026.484,393.6Z" transform="translate(-1012.996 -380.997)" fill="#fff" opacity="0.65"/>
      <path id="Path_2734" data-name="Path 2734" d="M1021.464,389.926c0,1.791-1.257,2.517-2.809,1.622a6.207,6.207,0,0,1-2.807-4.864c0-1.79,1.257-2.516,2.807-1.62A6.2,6.2,0,0,1,1021.464,389.926Z" transform="translate(-1011.912 -379.597)" fill="#fff" opacity="0.65"/>
    </g>
    <path id="Path_2735" data-name="Path 2735" d="M1093.757,597.265,1051.909,573.1l60.935-35.181,41.848,24.161Z" transform="translate(-51.9 1663.177)" opacity="0.15" fill="url(#linear-gradient-6)"/>
    <path id="Path_2736" data-name="Path 2736" d="M1086.755,597.069l-41.848-24.161,60.935-35.181,41.848,24.161Z" transform="translate(-54.562 1663.102)" opacity="0.15" fill="url(#linear-gradient-7)"/>
    <path id="Path_2737" data-name="Path 2737" d="M1216.172,642.064l-145.747-84.147V313.706l145.747,84.147Z" transform="translate(-44.862 1577.944)" opacity="0.22" fill="url(#linear-gradient-8)"/>
    <path id="Path_2738" data-name="Path 2738" d="M1208.472,649.764l-145.747-84.147V321.406l145.747,84.147Z" transform="translate(-47.789 1580.871)" opacity="0.22" fill="url(#linear-gradient-8)"/>
    <path id="Path_2739" data-name="Path 2739" d="M1140.166,454.351l-38.141-22.021V381.6a13.587,13.587,0,0,1,20.38-11.767l38.141,22.021v50.728A13.587,13.587,0,0,1,1140.166,454.351Z" transform="translate(-32.85 1598.581)" opacity="0.48" fill="url(#linear-gradient-10)" style="mix-blend-mode: multiply;isolation: isolate"/>
    <path id="Path_2740" data-name="Path 2740" d="M1245.738,466.177l-80-46.189c-6.924-4-12.539-14.725-12.539-23.956h0c0-9.233,5.615-13.477,12.539-9.479l80,46.189c6.924,4,12.538,14.723,12.538,23.956h0C1258.276,465.931,1252.662,470.175,1245.738,466.177Z" transform="translate(-13.397 1605.064)" fill="url(#linear-gradient-11)"/>
    <path id="Path_2741" data-name="Path 2741" d="M1265.54,512.138l-80-46.189c-6.924-4-12.539-14.723-12.539-23.956h0c0-9.233,5.615-13.477,12.539-9.479l80,46.189c6.925,4,12.538,14.725,12.538,23.956h0C1278.078,511.892,1272.465,516.136,1265.54,512.138Z" transform="translate(-5.87 1622.535)" fill="url(#linear-gradient-11)"/>
    <g id="Group_1422" data-name="Group 1422" transform="translate(1147.145 1998.673)">
      <g id="Group_1420" data-name="Group 1420">
        <path id="Path_2742" data-name="Path 2742" d="M1172.623,416.574a9.081,9.081,0,0,1-4.477-1.361c-5.308-3.064-9.626-10.544-9.626-16.675,0-3.108,1.082-5.445,3.046-6.578s4.527-.9,7.22.651c5.308,3.064,9.628,10.546,9.628,16.675,0,3.109-1.083,5.445-3.046,6.579A5.421,5.421,0,0,1,1172.623,416.574Zm-8.312-24.045a4.161,4.161,0,0,0-2.109.537c-1.553.9-2.407,2.839-2.407,5.472,0,5.723,4.031,12.708,8.989,15.569,2.28,1.317,4.393,1.547,5.943.653s2.407-2.84,2.407-5.474c0-5.723-4.031-12.707-8.989-15.569A7.831,7.831,0,0,0,1164.311,392.529Z" transform="translate(-1158.519 -391.251)" fill="#fff"/>
      </g>
      <g id="Group_1421" data-name="Group 1421" transform="translate(5.304 6.986)">
        <path id="Path_2743" data-name="Path 2743" d="M1166.718,406.77a.564.564,0,0,1-.084-.006.742.742,0,0,1-.6-.458l-3.615-8.978a.74.74,0,1,1,1.372-.553l3.105,7.711,3.406-4.876a.74.74,0,0,1,1.213.847l-4.189,6A.741.741,0,0,1,1166.718,406.77Z" transform="translate(-1162.362 -396.313)" fill="#fff"/>
      </g>
    </g>
    <g id="Group_1424" data-name="Group 1424" transform="translate(860.538 2020.16)">
      <g id="Group_1423" data-name="Group 1423">
        <path id="Path_2744" data-name="Path 2744" d="M1005.621,518.955l104.4,60.275-16.463-111.459L989.158,407.5Z" transform="translate(-936.292 -406.562)" fill="url(#linear-gradient-13)"/>
        <path id="Path_2745" data-name="Path 2745" d="M950.853,553.457l34.8-27.5-.291-103.375L967.1,423.2l.015.053Z" transform="translate(-950.853 -400.829)" fill="url(#linear-gradient-14)"/>
        <path id="Path_2746" data-name="Path 2746" d="M976.148,531.686l34.529-12.731L994.215,407.5l-18.357,20.815Z" transform="translate(-941.348 -406.562)" fill="url(#linear-gradient-15)"/>
        <path id="Path_2747" data-name="Path 2747" d="M1026.5,597.131l34.8-27.5-.291-103.374-18.26.619Z" transform="translate(-922.098 -384.228)" fill="url(#linear-gradient-16)"/>
        <path id="Path_2748" data-name="Path 2748" d="M1051.793,575.359l34.529-12.731-16.463-111.459L1051.5,471.985Z" transform="translate(-912.593 -389.961)" fill="url(#linear-gradient-17)"/>
        <path id="Path_2749" data-name="Path 2749" d="M1023.9,438.114l-26.909-15.536-6.362,3.673v23.556l6.362,3.673V429.924l26.909,15.536v23.557l6.361,3.673V449.132Z" transform="translate(-935.732 -400.829)" fill="url(#linear-gradient-18)"/>
        <path id="Path_2750" data-name="Path 2750" d="M1046.087,422.355l-26.909-15.536-6.362,3.673v23.556l6.362,3.673V414.165l26.909,15.536v23.557l6.361,3.673V433.374Z" transform="translate(-927.299 -406.82)" fill="url(#linear-gradient-19)"/>
        <path id="Path_2751" data-name="Path 2751" d="M950.853,553.287l104.4,60.275L1071.5,483.3,967.1,423.027Z" transform="translate(-950.853 -400.659)" fill="url(#linear-gradient-20)"/>
      </g>
    </g>
    <g id="Group_1425" data-name="Group 1425" transform="translate(1078.493 1984.556)">
      <path id="Path_2752" data-name="Path 2752" d="M1116.935,407.253c-1.837-1.06-3.326-.2-3.326,1.92a7.355,7.355,0,0,0,3.326,5.762c1.837,1.06,3.326.2,3.326-1.921A7.353,7.353,0,0,0,1116.935,407.253Z" transform="translate(-1106.939 -371.223)" fill="#fff"/>
      <path id="Path_2753" data-name="Path 2753" d="M1127.063,413.1c-1.838-1.06-3.327-.2-3.327,1.92a7.353,7.353,0,0,0,3.327,5.762c1.836,1.06,3.325.2,3.325-1.921A7.355,7.355,0,0,0,1127.063,413.1Z" transform="translate(-1103.09 -369.001)" fill="#fff"/>
      <path id="Path_2754" data-name="Path 2754" d="M1148.13,394.251l-5.975-3.449c-.826-.478-1.531-.19-1.66.676l-.984,6.547-29.054-16.774a1.134,1.134,0,0,0-1.277-.059,1.426,1.426,0,0,0-.384,1.34l3.306,26.4a3.765,3.765,0,0,0,1.661,2.6l23.808,13.746c.828.478,1.533.189,1.661-.683l.524-3.573h0l3.832-25.516,4.542,2.621c.927.536,1.68.1,1.68-.97A3.718,3.718,0,0,0,1148.13,394.251Zm-34.612.785,24.3,14.029-.62,4.226-23.061-13.316Zm25.4,6.527-.575,3.925L1113,390.853l-.576-4.588Zm-23.713,6.924-.542-4.328,22.014,12.71-.542,3.7Z" transform="translate(-1108.776 -381.022)" fill="#fff"/>
    </g>
    <g id="Group_1426" data-name="Group 1426" transform="translate(1049.209 2050.927)" opacity="0.43">
      <path id="Path_2755" data-name="Path 2755" d="M1154.216,464.856,1105.622,436.8v-7.169l48.594,28.056Z" transform="translate(-1080.692 -428.916)" fill="#fff"/>
      <path id="Path_2756" data-name="Path 2756" d="M1186.013,489.54,1087.558,432.7v-3.585l98.454,56.843Z" transform="translate(-1087.558 -429.113)" fill="#fff"/>
      <path id="Path_2757" data-name="Path 2757" d="M1186.013,494.511l-98.454-56.843v-3.585l98.454,56.843Z" transform="translate(-1087.558 -427.224)" fill="#fff"/>
      <path id="Path_2758" data-name="Path 2758" d="M1186.013,499.481l-98.454-56.843v-3.585l98.454,56.843Z" transform="translate(-1087.558 -425.334)" fill="#fff"/>
      <path id="Path_2759" data-name="Path 2759" d="M1160.222,488.622l-58.012-33.493v-2.112l58.012,33.493Z" transform="translate(-1081.989 -420.026)" fill="#fff"/>
    </g>
    <g id="Group_1427" data-name="Group 1427" transform="translate(1074.666 2107.806)" opacity="0.55">
      <path id="Path_2760" data-name="Path 2760" d="M1113.533,485.756a3.078,3.078,0,0,1-2.6-.308V487.4l-1.237-.715V484.75a14.373,14.373,0,0,1-2.109-1.688,10.268,10.268,0,0,1-1.583-1.887l.679-1.366a11.337,11.337,0,0,0,1.355,1.662,10.834,10.834,0,0,0,1.657,1.4v-3.479a21.717,21.717,0,0,1-1.786-1.685,7.335,7.335,0,0,1-1.2-1.735,4.624,4.624,0,0,1-.483-2.1,1.941,1.941,0,0,1,.889-1.888,2.954,2.954,0,0,1,2.576.3v-1.965l1.237.712v1.934a12.218,12.218,0,0,1,3.058,2.826l-.617,1.4a12.288,12.288,0,0,0-2.441-2.35v3.515a22.432,22.432,0,0,1,1.8,1.684,7.335,7.335,0,0,1,1.2,1.731,4.579,4.579,0,0,1,.491,2.1A1.911,1.911,0,0,1,1113.533,485.756Zm-4.966-9.716a7.458,7.458,0,0,0,1.129,1.246v-3.1a1.429,1.429,0,0,0-1.144-.1.827.827,0,0,0-.377.809A2.02,2.02,0,0,0,1108.567,476.04Zm3.549,7.653a.756.756,0,0,0,.384-.77,2.064,2.064,0,0,0-.407-1.183,7.44,7.44,0,0,0-1.159-1.271v3.082A1.583,1.583,0,0,0,1112.115,483.693Z" transform="translate(-1106.004 -470.325)" fill="#fff"/>
      <path id="Path_2761" data-name="Path 2761" d="M1120.218,478.5v12.182l-1.96-1.132V479.265l-2.229-1.289v-1.895Z" transform="translate(-1102.193 -468.137)" fill="#fff"/>
      <path id="Path_2762" data-name="Path 2762" d="M1122.942,491.2a10.406,10.406,0,0,1-1.569-3.063,11.851,11.851,0,0,1-.571-3.7,6.634,6.634,0,0,1,.571-3.038,2.166,2.166,0,0,1,1.569-1.252,3.436,3.436,0,0,1,2.258.565,7.683,7.683,0,0,1,2.27,2.049,10.3,10.3,0,0,1,1.573,3.067,11.761,11.761,0,0,1,.574,3.7,6.584,6.584,0,0,1-.574,3.038,2.147,2.147,0,0,1-1.573,1.248,3.483,3.483,0,0,1-2.27-.571A7.59,7.59,0,0,1,1122.942,491.2Zm4.045.029a4.338,4.338,0,0,0,.656-2.84,8.756,8.756,0,0,0-.656-3.6,4.416,4.416,0,0,0-1.787-2.11c-.744-.431-1.332-.41-1.771.057a4.354,4.354,0,0,0-.655,2.843,8.767,8.767,0,0,0,.655,3.6,4.411,4.411,0,0,0,1.771,2.1Q1126.332,491.93,1126.987,491.229Z" transform="translate(-1100.379 -466.602)" fill="#fff"/>
      <path id="Path_2763" data-name="Path 2763" d="M1130.508,495.569a10.471,10.471,0,0,1-1.567-3.062,11.8,11.8,0,0,1-.574-3.7,6.611,6.611,0,0,1,.574-3.039,2.167,2.167,0,0,1,1.567-1.252,3.449,3.449,0,0,1,2.262.565,7.739,7.739,0,0,1,2.269,2.051,10.428,10.428,0,0,1,1.575,3.065,11.881,11.881,0,0,1,.571,3.7,6.641,6.641,0,0,1-.571,3.038,2.155,2.155,0,0,1-1.575,1.248,3.464,3.464,0,0,1-2.269-.571A7.586,7.586,0,0,1,1130.508,495.569Zm4.05.029a4.347,4.347,0,0,0,.654-2.84,8.791,8.791,0,0,0-.654-3.6,4.455,4.455,0,0,0-1.787-2.11q-1.116-.644-1.772.057a4.355,4.355,0,0,0-.654,2.843,8.761,8.761,0,0,0,.654,3.6,4.412,4.412,0,0,0,1.772,2.1C1133.523,496.081,1134.117,496.066,1134.557,495.6Z" transform="translate(-1097.503 -464.941)" fill="#fff"/>
    </g>
    <g id="Group_1447" data-name="Group 1447" transform="translate(1141.239 2170.446)">
      <path id="Path_2764" data-name="Path 2764" d="M1273.572,580.84l-111.53-64.383a3.834,3.834,0,0,0-3.866-.378l-2.743,1.571s119.938,152.444,118.963,153.01l2.791-1.622a3.8,3.8,0,0,0,1.583-3.482l.214-75.346A11.925,11.925,0,0,0,1273.572,580.84Z" transform="translate(-1153.786 -515.712)" fill="url(#linear-gradient-21)"/>
      <g id="Group_1446" data-name="Group 1446" transform="translate(0 1.543)">
        <path id="Path_2765" data-name="Path 2765" d="M1271.4,670.085l-112.13-64.739c-2.78-1.6-5.033-5.91-5.033-9.615V521.239c0-3.706,2.254-5.41,5.033-3.8l112.13,64.739c2.78,1.6,5.033,5.91,5.033,9.617v74.49C1276.437,669.987,1274.183,671.691,1271.4,670.085Z" transform="translate(-1154.24 -516.83)" fill="url(#linear-gradient-22)"/>
        <path id="Path_2766" data-name="Path 2766" d="M1208.7,599.555l-44.8-25.867v-3.41l44.8,25.867Z" transform="translate(-1150.571 -496.513)" fill="#f1f2f2" opacity="0.2"/>
        <path id="Path_2767" data-name="Path 2767" d="M1183.842,589.367l-19.95-11.518v-3.41l19.95,11.518Z" transform="translate(-1150.571 -494.931)" fill="#f1f2f2" opacity="0.2"/>
        <g id="Group_1428" data-name="Group 1428" transform="translate(12.965 62.134)">
          <path id="Path_2768" data-name="Path 2768" d="M1166.877,570.981l-2.012-1.162a2.727,2.727,0,0,1-1.231-2.134V562.73c0-.784.552-1.1,1.231-.712l2.012,1.162a2.728,2.728,0,0,1,1.232,2.134v4.956C1168.11,571.054,1167.557,571.373,1166.877,570.981Zm-2.012-8.261c-.345-.2-.625-.037-.625.36v4.956a1.386,1.386,0,0,0,.625,1.083l2.012,1.161c.345.2.625.037.625-.36v-4.956a1.382,1.382,0,0,0-.625-1.082Z" transform="translate(-1163.634 -561.851)" fill="#fff"/>
        </g>
        <g id="Group_1429" data-name="Group 1429" transform="translate(18.241 65.181)">
          <path id="Path_2769" data-name="Path 2769" d="M1170.7,573.188l-2.014-1.162a2.73,2.73,0,0,1-1.231-2.134v-4.955c0-.784.554-1.1,1.231-.711l2.014,1.162a2.724,2.724,0,0,1,1.231,2.132v4.956C1171.933,573.261,1171.381,573.579,1170.7,573.188Zm-2.014-8.261c-.344-.2-.625-.037-.625.362v4.955a1.386,1.386,0,0,0,.625,1.083l2.014,1.162c.344.2.625.037.625-.362v-4.955a1.387,1.387,0,0,0-.625-1.083Z" transform="translate(-1167.457 -564.059)" fill="#fff"/>
        </g>
        <g id="Group_1430" data-name="Group 1430" transform="translate(23.518 68.227)">
          <path id="Path_2770" data-name="Path 2770" d="M1174.525,575.4l-2.012-1.162a2.728,2.728,0,0,1-1.233-2.134v-4.956c0-.784.554-1.1,1.233-.711l2.012,1.162a2.729,2.729,0,0,1,1.233,2.134v4.955C1175.757,575.469,1175.2,575.788,1174.525,575.4Zm-2.012-8.262c-.345-.2-.626-.037-.626.36v4.956a1.382,1.382,0,0,0,.626,1.082l2.012,1.162c.345.2.625.037.625-.36v-4.956a1.386,1.386,0,0,0-.625-1.083Z" transform="translate(-1171.28 -566.266)" fill="#fff"/>
        </g>
        <g id="Group_1431" data-name="Group 1431" transform="translate(28.795 71.274)">
          <path id="Path_2771" data-name="Path 2771" d="M1178.348,577.6l-2.012-1.162a2.727,2.727,0,0,1-1.231-2.134v-4.955c0-.784.552-1.1,1.231-.711l2.012,1.161a2.728,2.728,0,0,1,1.232,2.134v4.956C1179.58,577.676,1179.027,577.995,1178.348,577.6Zm-2.012-8.261c-.344-.2-.625-.037-.625.362v4.955a1.386,1.386,0,0,0,.625,1.083l2.012,1.162c.345.2.625.037.625-.362v-4.955a1.383,1.383,0,0,0-.625-1.083Z" transform="translate(-1175.104 -568.474)" fill="#fff"/>
        </g>
        <g id="Group_1432" data-name="Group 1432" transform="translate(38.424 76.834)">
          <path id="Path_2772" data-name="Path 2772" d="M1185.325,581.632l-2.012-1.162a2.728,2.728,0,0,1-1.232-2.134V573.38c0-.784.553-1.1,1.232-.711l2.012,1.162a2.727,2.727,0,0,1,1.231,2.134v4.955C1186.557,581.7,1186,582.024,1185.325,581.632Zm-2.012-8.263c-.345-.2-.625-.036-.625.362v4.956a1.382,1.382,0,0,0,.625,1.082l2.012,1.162c.345.2.625.037.625-.362v-4.955a1.386,1.386,0,0,0-.625-1.083Z" transform="translate(-1182.081 -572.501)" fill="#fff"/>
        </g>
        <g id="Group_1433" data-name="Group 1433" transform="translate(43.701 79.88)">
          <path id="Path_2773" data-name="Path 2773" d="M1189.149,583.839l-2.012-1.162a2.728,2.728,0,0,1-1.232-2.134v-4.955c0-.784.553-1.1,1.232-.712l2.012,1.162a2.728,2.728,0,0,1,1.232,2.134v4.956C1190.381,583.912,1189.828,584.231,1189.149,583.839Zm-2.012-8.261c-.345-.2-.625-.037-.625.36v4.956a1.386,1.386,0,0,0,.625,1.083l2.012,1.161c.345.2.625.037.625-.36v-4.956a1.382,1.382,0,0,0-.625-1.082Z" transform="translate(-1185.904 -574.709)" fill="#fff"/>
        </g>
        <g id="Group_1434" data-name="Group 1434" transform="translate(48.978 82.927)">
          <path id="Path_2774" data-name="Path 2774" d="M1192.971,586.045l-2.01-1.161a2.727,2.727,0,0,1-1.233-2.134V577.8c0-.784.552-1.1,1.233-.711l2.01,1.162a2.724,2.724,0,0,1,1.233,2.134v4.955C1194.2,586.118,1193.652,586.438,1192.971,586.045Zm-2.01-8.261c-.346-.2-.627-.037-.627.362V583.1a1.38,1.38,0,0,0,.627,1.083l2.01,1.162c.345.2.627.037.627-.362v-4.955a1.383,1.383,0,0,0-.627-1.083Z" transform="translate(-1189.728 -576.917)" fill="#fff"/>
        </g>
        <g id="Group_1435" data-name="Group 1435" transform="translate(54.254 85.973)">
          <path id="Path_2775" data-name="Path 2775" d="M1196.8,588.254l-2.012-1.162a2.729,2.729,0,0,1-1.233-2.134V580c0-.784.554-1.1,1.233-.711l2.012,1.162a2.726,2.726,0,0,1,1.231,2.134v4.956C1198.027,588.327,1197.475,588.646,1196.8,588.254Zm-2.012-8.261c-.345-.2-.627-.037-.627.36v4.956a1.382,1.382,0,0,0,.627,1.082l2.012,1.162c.345.2.625.037.625-.36v-4.956a1.387,1.387,0,0,0-.625-1.083Z" transform="translate(-1193.551 -579.124)" fill="#fff"/>
        </g>
        <g id="Group_1436" data-name="Group 1436" transform="translate(63.885 91.533)">
          <path id="Path_2776" data-name="Path 2776" d="M1203.772,592.281l-2.012-1.162a2.724,2.724,0,0,1-1.231-2.134v-4.955c0-.784.552-1.1,1.231-.711l2.012,1.161a2.73,2.73,0,0,1,1.233,2.134v4.956C1205,592.355,1204.451,592.673,1203.772,592.281Zm-2.012-8.262c-.345-.2-.625-.037-.625.362v4.955a1.383,1.383,0,0,0,.625,1.083l2.012,1.162c.345.2.625.037.625-.362v-4.955a1.383,1.383,0,0,0-.625-1.083Z" transform="translate(-1200.529 -583.153)" fill="#fff"/>
        </g>
        <g id="Group_1437" data-name="Group 1437" transform="translate(69.161 94.579)">
          <path id="Path_2777" data-name="Path 2777" d="M1207.6,594.49l-2.013-1.162a2.727,2.727,0,0,1-1.231-2.134v-4.956c0-.784.552-1.1,1.231-.711l2.013,1.162a2.726,2.726,0,0,1,1.231,2.134v4.955C1208.828,594.562,1208.276,594.882,1207.6,594.49Zm-2.013-8.262c-.344-.2-.625-.037-.625.36v4.956a1.385,1.385,0,0,0,.625,1.082l2.013,1.162c.344.2.625.037.625-.36v-4.956a1.391,1.391,0,0,0-.625-1.083Z" transform="translate(-1204.352 -585.36)" fill="#fff"/>
        </g>
        <g id="Group_1438" data-name="Group 1438" transform="translate(74.438 97.626)">
          <path id="Path_2778" data-name="Path 2778" d="M1211.42,596.7l-2.012-1.162a2.729,2.729,0,0,1-1.232-2.134v-4.955c0-.784.553-1.1,1.232-.712l2.012,1.162a2.727,2.727,0,0,1,1.231,2.134v4.956C1212.651,596.77,1212.1,597.089,1211.42,596.7Zm-2.012-8.261c-.345-.2-.625-.037-.625.36v4.956a1.387,1.387,0,0,0,.625,1.083L1211.42,596c.345.2.625.037.625-.36v-4.956a1.382,1.382,0,0,0-.625-1.082Z" transform="translate(-1208.175 -587.567)" fill="#fff"/>
        </g>
        <g id="Group_1439" data-name="Group 1439" transform="translate(79.714 100.673)">
          <path id="Path_2779" data-name="Path 2779" d="M1215.243,598.9l-2.013-1.161a2.729,2.729,0,0,1-1.232-2.134v-4.956c0-.784.553-1.1,1.232-.711l2.013,1.162a2.729,2.729,0,0,1,1.232,2.134v4.955C1216.475,598.977,1215.922,599.3,1215.243,598.9Zm-2.013-8.261c-.345-.2-.625-.037-.625.361v4.955a1.382,1.382,0,0,0,.625,1.083l2.013,1.162c.345.2.625.037.625-.362v-4.955a1.384,1.384,0,0,0-.625-1.083Z" transform="translate(-1211.998 -589.775)" fill="#fff"/>
        </g>
        <g id="Group_1440" data-name="Group 1440" transform="translate(89.344 106.232)">
          <path id="Path_2780" data-name="Path 2780" d="M1222.219,602.933l-2.011-1.162a2.724,2.724,0,0,1-1.233-2.134v-4.956c0-.784.552-1.1,1.233-.711l2.011,1.162a2.724,2.724,0,0,1,1.232,2.134v4.956C1223.452,603.006,1222.9,603.325,1222.219,602.933Zm-2.011-8.262c-.345-.2-.627-.037-.627.36v4.956a1.387,1.387,0,0,0,.627,1.083l2.011,1.161c.346.2.626.038.626-.36v-4.956a1.384,1.384,0,0,0-.626-1.083Z" transform="translate(-1218.976 -593.803)" fill="#fff"/>
        </g>
        <g id="Group_1441" data-name="Group 1441" transform="translate(94.62 109.279)">
          <path id="Path_2781" data-name="Path 2781" d="M1226.044,605.14l-2.012-1.162a2.726,2.726,0,0,1-1.233-2.134v-4.955c0-.784.553-1.1,1.233-.711l2.012,1.162a2.726,2.726,0,0,1,1.232,2.132v4.956C1227.276,605.213,1226.723,605.532,1226.044,605.14Zm-2.012-8.262c-.345-.2-.625-.037-.625.362v4.955a1.382,1.382,0,0,0,.625,1.083l2.012,1.162c.345.2.625.037.625-.362v-4.955a1.383,1.383,0,0,0-.625-1.083Z" transform="translate(-1222.799 -596.011)" fill="#fff"/>
        </g>
        <g id="Group_1442" data-name="Group 1442" transform="translate(99.898 112.325)">
          <path id="Path_2782" data-name="Path 2782" d="M1229.866,607.348l-2.012-1.162a2.727,2.727,0,0,1-1.231-2.134V599.1c0-.784.552-1.1,1.231-.711l2.012,1.162a2.729,2.729,0,0,1,1.232,2.134v4.955C1231.1,607.42,1230.545,607.74,1229.866,607.348Zm-2.012-8.262c-.345-.2-.625-.037-.625.36V604.4a1.381,1.381,0,0,0,.625,1.082l2.012,1.162c.345.2.625.037.625-.36V601.33a1.387,1.387,0,0,0-.625-1.083Z" transform="translate(-1226.623 -598.218)" fill="#fff"/>
        </g>
        <g id="Group_1443" data-name="Group 1443" transform="translate(105.175 115.372)">
          <path id="Path_2783" data-name="Path 2783" d="M1233.691,609.555l-2.012-1.162a2.725,2.725,0,0,1-1.232-2.134V601.3c0-.784.552-1.1,1.232-.711l2.012,1.161a2.727,2.727,0,0,1,1.231,2.134v4.956C1234.922,609.628,1234.37,609.947,1233.691,609.555Zm-2.012-8.261c-.345-.2-.626-.037-.626.36v4.956a1.389,1.389,0,0,0,.626,1.083l2.012,1.161c.344.2.625.037.625-.36v-4.956a1.386,1.386,0,0,0-.625-1.082Z" transform="translate(-1230.446 -600.425)" fill="#fff"/>
        </g>
        <g id="Group_1444" data-name="Group 1444" transform="translate(12.918 38.564)">
          <path id="Path_2784" data-name="Path 2784" d="M1166.722,552.587a3.6,3.6,0,0,1,.483-1.942l-3.605-2.081v4.441l3.605,2.081A7.367,7.367,0,0,1,1166.722,552.587Z" transform="translate(-1163.6 -543.332)" fill="#fff"/>
          <path id="Path_2785" data-name="Path 2785" d="M1174.791,556.168v-3.279a4.382,4.382,0,0,0-1.982-3.432l-.709-.41v5.567Z" transform="translate(-1160.369 -543.148)" fill="#fff"/>
          <path id="Path_2786" data-name="Path 2786" d="M1166.419,545.527l-.837-.483c-1.094-.632-1.982-.12-1.982,1.144v3.279l2.82,1.627Z" transform="translate(-1163.6 -544.773)" fill="#fff"/>
          <path id="Path_2787" data-name="Path 2787" d="M1163.6,552.173v3.278a4.383,4.383,0,0,0,1.982,3.434l.836.483V553.8Z" transform="translate(-1163.6 -541.96)" fill="#fff"/>
          <path id="Path_2788" data-name="Path 2788" d="M1166.589,551.432c.744-.756,1.948-.836,3.311-.05a8.755,8.755,0,0,1,3.312,3.874l.719.416V550.1L1166,545.524v5.568Z" transform="translate(-1162.689 -544.487)" fill="#fff"/>
          <path id="Path_2789" data-name="Path 2789" d="M1173.212,557.722c-.744.756-1.949.836-3.312.05a8.758,8.758,0,0,1-3.311-3.874l-.591-.341v5.568l7.932,4.579v-5.567Z" transform="translate(-1162.688 -541.434)" fill="#fff"/>
          <path id="Path_2790" data-name="Path 2790" d="M1172.1,562.648l.708.409c1.094.632,1.982.12,1.982-1.144v-3.279l-2.69-1.553Z" transform="translate(-1160.369 -540.094)" fill="#fff"/>
          <path id="Path_2791" data-name="Path 2791" d="M1171.439,553.089a7.4,7.4,0,0,1,.482,2.5,3.611,3.611,0,0,1-.482,1.942l3.6,2.081V555.17Z" transform="translate(-1160.62 -541.611)" fill="#fff"/>
          <path id="Path_2792" data-name="Path 2792" d="M1172.888,553.838l-6.129-3.539a3,3,0,0,0-.559,1.9,6.762,6.762,0,0,0,.559,2.544l6.129,3.539a3,3,0,0,0,.558-1.9A6.761,6.761,0,0,0,1172.888,553.838Z" transform="translate(-1162.612 -542.672)" fill="#fff"/>
          <path id="Path_2793" data-name="Path 2793" d="M1169.573,550.294a2.437,2.437,0,0,0-2.716-.145l5.432,3.137A7.551,7.551,0,0,0,1169.573,550.294Z" transform="translate(-1162.362 -542.861)" fill="#fff"/>
          <path id="Path_2794" data-name="Path 2794" d="M1169.573,557.045a2.437,2.437,0,0,0,2.716.145l-5.432-3.137A7.561,7.561,0,0,0,1169.573,557.045Z" transform="translate(-1162.362 -541.245)" fill="#fff"/>
        </g>
        <g id="Group_1445" data-name="Group 1445" transform="translate(64.045 48.889)">
          <path id="Path_2795" data-name="Path 2795" d="M1209.987,564.736a5.149,5.149,0,0,1,.523,2.244q0,1.633-1.1,1.877a5.006,5.006,0,0,1-3.2-.971l-5.562-3.212v-12.42l5.254,3.035a9.362,9.362,0,0,1,3.02,2.613,5.09,5.09,0,0,1,1.053,2.967,2.259,2.259,0,0,1-.376,1.4,1.3,1.3,0,0,1-1.053.511A6.573,6.573,0,0,1,1209.987,564.736Zm-6.869-8.889v2.929l2.475,1.428a2.259,2.259,0,0,0,1.4.435c.318-.065.476-.341.476-.825a2.243,2.243,0,0,0-.476-1.366,4.541,4.541,0,0,0-1.4-1.172Zm4.388,10.252q.5-.085.5-.865,0-1.542-1.983-2.688l-2.9-1.676v3.069l2.9,1.677A2.547,2.547,0,0,0,1207.506,566.1Z" transform="translate(-1200.645 -552.254)" fill="#fff"/>
          <path id="Path_2796" data-name="Path 2796" d="M1216.635,570.481l-4.993-2.883-.952,2.112-2.552-1.473,4.795-9.651L1215.39,560l4.81,15.2-2.612-1.509Zm-.782-2.633-1.706-5.74-1.706,3.769Z" transform="translate(-1197.797 -549.847)" fill="#fff"/>
          <path id="Path_2797" data-name="Path 2797" d="M1227.556,567.79v12.42l-2.044-1.18-5.363-10.637v7.541l-2.458-1.42V562.1l2.059,1.188,5.347,10.627v-7.54Z" transform="translate(-1194.166 -548.513)" fill="#fff"/>
          <path id="Path_2798" data-name="Path 2798" d="M1230.6,577.092l-1.444.905v3.14l-2.475-1.429v-12.42l2.475,1.428v5.8l4.763-3.052,2.766,1.6-4.456,2.962,4.718,9.608-2.9-1.677Z" transform="translate(-1190.746 -546.539)" fill="#fff"/>
        </g>
      </g>
    </g>
    <path id="Path_2799" data-name="Path 2799" d="M1213.056,423.566l-32.627-18.837v-2.822l32.627,18.837Z" transform="translate(-3.046 1611.473)" fill="#fff"/>
    <path id="Path_2800" data-name="Path 2800" d="M1233.34,438.982l-52.911-30.549v-2.822l52.911,30.549Z" transform="translate(-3.046 1612.881)" fill="#fff"/>
    <path id="Path_2801" data-name="Path 2801" d="M1233.34,442.689l-52.911-30.548v-2.822l52.911,30.549Z" transform="translate(-3.046 1614.29)" fill="#fff"/>
    <path id="Path_2802" data-name="Path 2802" d="M1233.34,446.395l-52.911-30.548v-2.822l52.911,30.548Z" transform="translate(-3.046 1615.699)" fill="#fff"/>
    <path id="Path_2803" data-name="Path 2803" d="M1230.71,468.571l-32.627-18.837v-2.822l32.627,18.837Z" transform="translate(3.665 1628.581)" fill="#fff"/>
    <path id="Path_2804" data-name="Path 2804" d="M1250.995,483.987l-52.911-30.549v-2.822l52.911,30.549Z" transform="translate(3.665 1629.989)" fill="#fff"/>
    <path id="Path_2805" data-name="Path 2805" d="M1250.995,487.693l-52.911-30.549v-2.822l52.911,30.549Z" transform="translate(3.665 1631.398)" fill="#fff"/>
    <path id="Path_2806" data-name="Path 2806" d="M1250.995,491.4l-52.911-30.549v-2.822l52.911,30.549Z" transform="translate(3.665 1632.806)" fill="#fff"/>
    <g id="Group_1448" data-name="Group 1448" transform="translate(1177.194 2063.372)">
      <path id="Path_2807" data-name="Path 2807" d="M1183.1,441.255c0-2.791,1.96-3.922,4.378-2.527a9.677,9.677,0,0,1,4.377,7.581c0,2.792-1.96,3.922-4.377,2.527A9.672,9.672,0,0,1,1183.1,441.255Z" transform="translate(-1179.225 -438.13)" fill="#f1f2f2"/>
      <path id="Path_2808" data-name="Path 2808" d="M1189.165,447.187l-1.244-.718c-4.213-2.432-7.629.149-7.629,5.768h0l16.5,9.527h0C1196.794,456.147,1193.379,449.62,1189.165,447.187Z" transform="translate(-1180.292 -435.308)" fill="#f1f2f2"/>
    </g>
    <g id="Group_1449" data-name="Group 1449" transform="translate(997.078 2019.674)" opacity="0.4">
      <ellipse id="Ellipse_159" data-name="Ellipse 159" cx="10.31" cy="17.857" rx="10.31" ry="17.857" transform="translate(0 10.311) rotate(-30.002)" fill="#fff" opacity="0.65"/>
      <path id="Path_2809" data-name="Path 2809" d="M1069.429,426.313c0,3.352-2.353,4.71-5.257,3.035a11.621,11.621,0,0,1-5.256-9.1c0-3.352,2.353-4.712,5.256-3.035A11.619,11.619,0,0,1,1069.429,426.313Z" transform="translate(-1046.314 -402.658)" fill="#fff" opacity="0.65"/>
    </g>
    <g id="Group_1450" data-name="Group 1450" transform="translate(1223.29 2156.099)" opacity="0.4">
      <ellipse id="Ellipse_160" data-name="Ellipse 160" cx="12.888" cy="22.322" rx="12.888" ry="22.322" transform="translate(0 12.888) rotate(-30.002)" fill="#fff" opacity="0.65"/>
      <path id="Path_2810" data-name="Path 2810" d="M1238.247,530.123c0,4.19-2.943,5.889-6.571,3.794a14.52,14.52,0,0,1-6.571-11.381c0-4.191,2.941-5.889,6.571-3.794A14.525,14.525,0,0,1,1238.247,530.123Z" transform="translate(-1209.353 -500.554)" fill="#fff" opacity="0.65"/>
    </g>
    <path id="Path_2811" data-name="Path 2811" d="M1222.213,347.888l-.875-.505c-3.242-1.871-5.87-6.892-5.87-11.215v-8.039c0-4.321,2.628-6.309,5.87-4.437l.875.507c3.242,1.872,5.87,6.892,5.87,11.214v8.039C1228.082,347.774,1225.455,349.76,1222.213,347.888Z" transform="translate(10.274 1581.473)" fill="#fff" opacity="0.32"/>
    <path id="Path_2812" data-name="Path 2812" d="M1210.745,341.267l-.875-.505c-3.242-1.871-5.87-6.892-5.87-11.215v-8.039c0-4.321,2.628-6.309,5.87-4.437l.875.506c3.242,1.871,5.87,6.891,5.87,11.214v8.039C1216.614,341.153,1213.986,343.139,1210.745,341.267Z" transform="translate(5.914 1578.956)" fill="#fff" opacity="0.32"/>
    <path id="Path_2813" data-name="Path 2813" d="M1198.994,334.482l-.876-.505c-3.24-1.871-5.868-6.892-5.868-11.214v-8.039c0-4.323,2.628-6.309,5.868-4.437l.876.505c3.241,1.871,5.868,6.892,5.868,11.214v8.039C1204.862,334.368,1202.235,336.354,1198.994,334.482Z" transform="translate(1.447 1576.377)" fill="#fff" opacity="0.32"/>
  </g>
</svg>
