<svg xmlns="http://www.w3.org/2000/svg" width="739.145" height="631.942" viewBox="0 0 739.145 631.942">
  <g id="Group_3388" data-name="Group 3388" transform="translate(-590 -2012.445)">
    <g id="Group_3384" data-name="Group 3384" transform="translate(-83.227 1862.093)">
      <g id="Group_3272" data-name="Group 3272" transform="translate(1263.818 460.338)">
        <g id="Group_3270" data-name="Group 3270">
          <path id="Path_13644" data-name="Path 13644" d="M1018.3,600.726s-33.656-98.8,24.259-169.374,71.735-101.706,74.248-104.981c-11.306,99.737-43.4,165.192-63.782,190.252S1018.3,600.726,1018.3,600.726Z" transform="translate(-1008.579 -326.37)" fill="#b6d15a"/>
          <path id="Path_13645" data-name="Path 13645" d="M1015.5,600.726s-19.709-79.253,38.207-149.824,57.787-121.256,60.3-124.531c-11.306,99.737-43.4,165.192-63.782,190.252S1015.5,600.726,1015.5,600.726Z" transform="translate(-1005.773 -326.37)" fill="#a1bc33"/>
        </g>
        <g id="Group_3271" data-name="Group 3271" transform="translate(13.289 84.995)">
          <path id="Path_13646" data-name="Path 13646" d="M1016.269,569.7s-5.706-84.774,54.67-128.1,77.786-64.913,80.451-66.961c-29.849,76.062-68.84,120.8-90.139,136.22S1016.269,569.7,1016.269,569.7Z" transform="translate(-1016.125 -374.632)" fill="#b6d15a"/>
          <path id="Path_13647" data-name="Path 13647" d="M1016.207,569.7s1.155-66.469,61.531-109.8,70.925-83.218,73.59-85.266c-29.849,76.062-68.84,120.8-90.139,136.22S1016.207,569.7,1016.207,569.7Z" transform="translate(-1016.063 -374.632)" fill="#a1bc33"/>
        </g>
      </g>
      <g id="Group_3294" data-name="Group 3294" transform="translate(673.227 150.352)">
        <g id="Group_3275" data-name="Group 3275" transform="translate(41.141 85.872)">
          <g id="Group_3274" data-name="Group 3274">
            <g id="Group_3273" data-name="Group 3273">
              <path id="Path_13648" data-name="Path 13648" d="M861.653,510.993H843.4a11.481,11.481,0,0,1-11.468-11.468V483.282a127.223,127.223,0,0,1-25.626-6.99l-8.184,14.173a11.465,11.465,0,0,1-15.665,4.2l-15.8-9.124a11.482,11.482,0,0,1-4.2-15.667L770.8,455.42a128.922,128.922,0,0,1-18.361-18.8l-14.733,8.5a11.466,11.466,0,0,1-15.665-4.2l-9.126-15.8a11.485,11.485,0,0,1,4.2-15.667l15.17-8.758A127.285,127.285,0,0,1,726,375.645H708.056a11.48,11.48,0,0,1-11.468-11.467v-18.25a11.481,11.481,0,0,1,11.468-11.468h18.6a127.294,127.294,0,0,1,6.888-24.324l-16.426-9.484a11.485,11.485,0,0,1-4.2-15.667l9.126-15.806a11.47,11.47,0,0,1,15.665-4.2l16.919,9.767a128.773,128.773,0,0,1,17.749-17.34l-9.917-17.178a11.483,11.483,0,0,1,4.2-15.667l15.8-9.124a11.484,11.484,0,0,1,15.665,4.2l10.059,17.423a127.343,127.343,0,0,1,23.75-6.264V210.58A11.481,11.481,0,0,1,843.4,199.112h18.249a11.481,11.481,0,0,1,11.468,11.468V230.8a127.325,127.325,0,0,1,23.752,6.264l10.058-17.423a11.471,11.471,0,0,1,15.667-4.2l15.8,9.124a11.485,11.485,0,0,1,4.2,15.667l-9.917,17.178a129.171,129.171,0,0,1,17.748,17.34l16.917-9.767a11.472,11.472,0,0,1,15.667,4.2l9.124,15.806a11.483,11.483,0,0,1-4.2,15.667l-16.426,9.484A127.181,127.181,0,0,1,978.4,334.46H997a11.48,11.48,0,0,1,11.467,11.468v18.25A11.48,11.48,0,0,1,997,375.645H979.054a127.41,127.41,0,0,1-6.28,25.052l15.168,8.758a11.483,11.483,0,0,1,4.2,15.667l-9.124,15.8a11.483,11.483,0,0,1-15.667,4.2l-14.732-8.5a128.934,128.934,0,0,1-18.363,18.8l8.346,14.453a11.484,11.484,0,0,1-4.2,15.667l-15.8,9.124a11.467,11.467,0,0,1-15.667-4.2l-8.184-14.173a127.19,127.19,0,0,1-25.626,6.99v16.243A11.481,11.481,0,0,1,861.653,510.993ZM805.49,473.945l.755.3a125.373,125.373,0,0,0,26.778,7.3l.8.125v17.852a9.594,9.594,0,0,0,9.584,9.584h18.249a9.594,9.594,0,0,0,9.584-9.584V481.673l.8-.125a125.316,125.316,0,0,0,26.778-7.3l.755-.3,9,15.579a9.582,9.582,0,0,0,13.092,3.508l15.8-9.124a9.6,9.6,0,0,0,3.508-13.092l-9.144-15.836.618-.507a126.974,126.974,0,0,0,19.2-19.659l.505-.643,16.144,9.322a9.592,9.592,0,0,0,13.092-3.508l9.124-15.8A9.593,9.593,0,0,0,987,411.088l-16.544-9.552.276-.747a125.341,125.341,0,0,0,6.571-26.216l.113-.812H997a9.593,9.593,0,0,0,9.582-9.582v-18.25A9.594,9.594,0,0,0,997,336.344H976.819l-.134-.784a125.288,125.288,0,0,0-7.221-25.483l-.3-.759L987,299.02a9.594,9.594,0,0,0,3.508-13.092l-9.124-15.806a9.584,9.584,0,0,0-13.092-3.506L950,277.175l-.509-.611a126.961,126.961,0,0,0-18.615-18.187l-.637-.505,10.729-18.581A9.6,9.6,0,0,0,937.46,226.2l-15.8-9.124a9.582,9.582,0,0,0-13.092,3.508l-10.857,18.805-.749-.282a125.337,125.337,0,0,0-24.923-6.572l-.8-.125V210.58A9.6,9.6,0,0,0,861.653,201H843.4a9.6,9.6,0,0,0-9.584,9.584v21.827l-.8.125A125.316,125.316,0,0,0,808.1,239.1l-.749.282-10.859-18.805a9.581,9.581,0,0,0-13.09-3.508L767.6,226.2a9.594,9.594,0,0,0-3.508,13.092l10.727,18.581-.636.507a126.868,126.868,0,0,0-18.617,18.185l-.507.611-18.293-10.56a9.582,9.582,0,0,0-13.09,3.506l-9.126,15.806a9.6,9.6,0,0,0,3.508,13.092l17.84,10.3-.3.759a125.325,125.325,0,0,0-7.219,25.485l-.136.782H708.056a9.594,9.594,0,0,0-9.584,9.584v18.25a9.594,9.594,0,0,0,9.584,9.582h19.585l.113.812a125.443,125.443,0,0,0,6.573,26.216l.275.747-16.544,9.552a9.6,9.6,0,0,0-3.508,13.092l9.126,15.8a9.585,9.585,0,0,0,13.09,3.508l16.146-9.322.5.643a127.063,127.063,0,0,0,19.2,19.659l.616.507-9.142,15.836a9.593,9.593,0,0,0,3.508,13.092l15.8,9.124a9.581,9.581,0,0,0,13.09-3.508Zm47.039-46.731A70.174,70.174,0,1,1,922.7,357.039,70.255,70.255,0,0,1,852.529,427.214Zm0-138.464a68.29,68.29,0,1,0,68.29,68.289A68.368,68.368,0,0,0,852.529,288.751Z" transform="translate(-696.588 -199.112)" fill="#b8b8b8"/>
            </g>
          </g>
        </g>
        <g id="Group_3277" data-name="Group 3277" transform="translate(464.421 135.69)">
          <g id="Group_3276" data-name="Group 3276">
            <path id="Path_13649" data-name="Path 13649" d="M1028.309,400.087h-10.056a6.747,6.747,0,0,1-6.74-6.742v-8.591A70.512,70.512,0,0,1,998,381.071l-4.331,7.5a6.739,6.739,0,0,1-9.209,2.467l-8.707-5.026a6.75,6.75,0,0,1-2.467-9.211l4.419-7.657a71.423,71.423,0,0,1-9.676-9.906l-7.8,4.5a6.749,6.749,0,0,1-9.209-2.469l-5.028-8.707a6.749,6.749,0,0,1,2.467-9.209l8.052-4.649a70.62,70.62,0,0,1-3.307-13.191h-9.524a6.749,6.749,0,0,1-6.742-6.742V308.717a6.749,6.749,0,0,1,6.742-6.743h9.894A70.455,70.455,0,0,1,957.2,289.18l-8.737-5.044a6.752,6.752,0,0,1-2.467-9.211l5.028-8.707a6.739,6.739,0,0,1,9.209-2.467l9.015,5.2a71.442,71.442,0,0,1,9.329-9.112l-5.283-9.153a6.739,6.739,0,0,1,2.467-9.209l8.707-5.028a6.741,6.741,0,0,1,9.209,2.469l5.364,9.29a70.585,70.585,0,0,1,12.478-3.292v-10.78a6.747,6.747,0,0,1,6.74-6.742h10.056a6.75,6.75,0,0,1,6.741,6.742v10.78a70.676,70.676,0,0,1,12.476,3.292l5.365-9.29a6.747,6.747,0,0,1,9.209-2.469l8.709,5.028a6.736,6.736,0,0,1,2.465,9.209l-5.281,9.153a71.538,71.538,0,0,1,9.327,9.112l9.015-5.2a6.739,6.739,0,0,1,9.209,2.467l5.026,8.707a6.739,6.739,0,0,1-2.465,9.211l-8.735,5.044a70.572,70.572,0,0,1,3.621,12.794h9.894a6.749,6.749,0,0,1,6.741,6.743v10.054a6.749,6.749,0,0,1-6.741,6.742h-9.524a70.389,70.389,0,0,1-3.307,13.191l8.052,4.649a6.736,6.736,0,0,1,2.465,9.209l-5.026,8.707a6.748,6.748,0,0,1-9.209,2.469l-7.8-4.5a71.139,71.139,0,0,1-9.677,9.906l4.42,7.657a6.738,6.738,0,0,1-2.465,9.211l-8.709,5.026a6.75,6.75,0,0,1-9.209-2.467l-4.329-7.5a70.556,70.556,0,0,1-13.511,3.684v8.591A6.75,6.75,0,0,1,1028.309,400.087Zm-31.129-21.364.755.3a68.585,68.585,0,0,0,14.665,4l.8.123v10.2a4.862,4.862,0,0,0,4.855,4.857h10.056a4.862,4.862,0,0,0,4.857-4.857v-10.2l.8-.123a68.616,68.616,0,0,0,14.665-4l.755-.3,5.135,8.9a4.867,4.867,0,0,0,6.638,1.779l8.708-5.028a4.857,4.857,0,0,0,1.777-6.636l-5.218-9.036.618-.507a69.478,69.478,0,0,0,10.516-10.767l.505-.643,9.212,5.32a4.862,4.862,0,0,0,6.636-1.779l5.028-8.707a4.859,4.859,0,0,0-1.779-6.636l-9.425-5.44.276-.747a68.724,68.724,0,0,0,3.6-14.357l.111-.812h11.16a4.862,4.862,0,0,0,4.857-4.857V308.717a4.864,4.864,0,0,0-4.857-4.859h-11.475l-.137-.782a68.634,68.634,0,0,0-3.952-13.955l-.306-.759,10.149-5.859a4.859,4.859,0,0,0,1.779-6.636l-5.028-8.707a4.86,4.86,0,0,0-6.636-1.779l-10.389,6-.507-.613a69.422,69.422,0,0,0-10.2-9.959l-.634-.505,6.092-10.554a4.854,4.854,0,0,0-1.777-6.634l-8.708-5.028a4.868,4.868,0,0,0-6.638,1.779l-6.16,10.672-.748-.284a68.52,68.52,0,0,0-13.647-3.6l-.8-.125V234.142a4.862,4.862,0,0,0-4.857-4.857h-10.056a4.862,4.862,0,0,0-4.855,4.857v12.389l-.8.125a68.561,68.561,0,0,0-13.649,3.6l-.749.284-6.162-10.672a4.856,4.856,0,0,0-6.636-1.779l-8.707,5.028a4.86,4.86,0,0,0-1.78,6.634l6.1,10.554-.634.505a69.341,69.341,0,0,0-10.2,9.959l-.509.613-10.387-6a4.86,4.86,0,0,0-6.636,1.779l-5.026,8.707A4.862,4.862,0,0,0,949.4,282.5l10.149,5.859-.306.759a68.776,68.776,0,0,0-3.954,13.953l-.134.784H943.679a4.864,4.864,0,0,0-4.857,4.859v10.054a4.862,4.862,0,0,0,4.857,4.857h11.16l.113.812a68.667,68.667,0,0,0,3.6,14.357l.277.747-9.426,5.44a4.863,4.863,0,0,0-1.777,6.636l5.026,8.707a4.866,4.866,0,0,0,6.636,1.779l9.214-5.32.505.643A69.474,69.474,0,0,0,979.519,368.2l.618.507-5.22,9.036a4.865,4.865,0,0,0,1.78,6.636L985.4,389.4a4.86,4.86,0,0,0,6.636-1.779Zm26.1-24.8a39.089,39.089,0,1,1,39.088-39.088A39.132,39.132,0,0,1,1023.281,353.927Zm0-76.293a37.2,37.2,0,1,0,37.2,37.205A37.245,37.245,0,0,0,1023.281,277.634Z" transform="translate(-936.937 -227.4)" fill="#b8b8b8"/>
          </g>
        </g>
        <g id="Group_3280" data-name="Group 3280" transform="translate(431.277 11.91)">
          <g id="Group_3278" data-name="Group 3278">
            <path id="Path_13650" data-name="Path 13650" d="M928.323,177.53a10.207,10.207,0,1,1,10.207-10.207A10.218,10.218,0,0,1,928.323,177.53Zm0-18.53a8.323,8.323,0,1,0,8.323,8.323A8.332,8.332,0,0,0,928.323,159Z" transform="translate(-918.117 -157.115)" fill="#b8b8b8"/>
          </g>
          <g id="Group_3279" data-name="Group 3279" transform="translate(9.263 19.473)">
            <path id="Path_13651" data-name="Path 13651" d="M990.116,285.708h-1.884V242.917a15.721,15.721,0,0,0-15.7-15.7H940.967a17.609,17.609,0,0,1-17.59-17.588V168.172h1.884v41.455a15.722,15.722,0,0,0,15.705,15.7h31.563a17.606,17.606,0,0,1,17.587,17.586Z" transform="translate(-923.377 -168.172)" fill="#b8b8b8"/>
          </g>
        </g>
        <g id="Group_3290" data-name="Group 3290">
          <g id="Group_3281" data-name="Group 3281" transform="translate(131.937 14.089)">
            <path id="Path_13652" data-name="Path 13652" d="M758.35,178.767a10.207,10.207,0,1,1,10.207-10.207A10.217,10.217,0,0,1,758.35,178.767Zm0-18.53a8.323,8.323,0,1,0,8.323,8.323A8.332,8.332,0,0,0,758.35,160.236Z" transform="translate(-748.144 -158.352)" fill="#b8b8b8"/>
          </g>
          <g id="Group_3282" data-name="Group 3282" transform="translate(202.087 45.789)">
            <path id="Path_13653" data-name="Path 13653" d="M798.184,196.767a10.207,10.207,0,1,1,10.207-10.207A10.219,10.219,0,0,1,798.184,196.767Zm0-18.53a8.323,8.323,0,1,0,8.323,8.323A8.332,8.332,0,0,0,798.184,178.236Z" transform="translate(-787.977 -176.352)" fill="#b8b8b8"/>
          </g>
          <g id="Group_3283" data-name="Group 3283" transform="translate(359.525)">
            <path id="Path_13654" data-name="Path 13654" d="M887.581,170.767a10.207,10.207,0,1,1,10.207-10.207A10.219,10.219,0,0,1,887.581,170.767Zm0-18.53a8.323,8.323,0,1,0,8.323,8.323A8.332,8.332,0,0,0,887.581,152.236Z" transform="translate(-877.374 -150.352)" fill="#b8b8b8"/>
          </g>
          <g id="Group_3284" data-name="Group 3284" transform="translate(409.292 129.779)">
            <path id="Path_13655" data-name="Path 13655" d="M913.174,239.126a7.541,7.541,0,1,1,7.541-7.541A7.549,7.549,0,0,1,913.174,239.126Zm0-13.689a6.148,6.148,0,1,0,6.148,6.148A6.156,6.156,0,0,0,913.174,225.437Z" transform="translate(-905.633 -224.044)" fill="#b8b8b8"/>
          </g>
          <g id="Group_3285" data-name="Group 3285" transform="translate(0 101.704)">
            <path id="Path_13656" data-name="Path 13656" d="M683.434,228.517a10.207,10.207,0,1,1,10.207-10.207A10.219,10.219,0,0,1,683.434,228.517Zm0-18.53a8.323,8.323,0,1,0,8.323,8.323A8.332,8.332,0,0,0,683.434,209.986Z" transform="translate(-673.227 -208.102)" fill="#b8b8b8"/>
          </g>
          <g id="Group_3286" data-name="Group 3286" transform="translate(683.508 115.275)">
            <path id="Path_13657" data-name="Path 13657" d="M1071.547,236.223a10.207,10.207,0,1,1,10.207-10.207A10.219,10.219,0,0,1,1071.547,236.223Zm0-18.53a8.323,8.323,0,1,0,8.323,8.323A8.332,8.332,0,0,0,1071.547,217.692Z" transform="translate(-1061.34 -215.808)" fill="#b8b8b8"/>
          </g>
          <g id="Group_3287" data-name="Group 3287" transform="translate(653.349 197.594)">
            <path id="Path_13658" data-name="Path 13658" d="M1054.422,282.966a10.207,10.207,0,1,1,10.207-10.207A10.219,10.219,0,0,1,1054.422,282.966Zm0-18.53a8.323,8.323,0,1,0,8.323,8.323A8.332,8.332,0,0,0,1054.422,264.435Z" transform="translate(-1044.215 -262.551)" fill="#b8b8b8"/>
          </g>
          <g id="Group_3288" data-name="Group 3288" transform="translate(24.395 193.741)">
            <path id="Path_13659" data-name="Path 13659" d="M693.306,272.818a6.227,6.227,0,1,1,6.226-6.227A6.234,6.234,0,0,1,693.306,272.818Zm0-11.3a5.077,5.077,0,1,0,5.077,5.077A5.082,5.082,0,0,0,693.306,261.513Z" transform="translate(-687.079 -260.363)" fill="#b8b8b8"/>
          </g>
          <g id="Group_3289" data-name="Group 3289" transform="translate(76.347 33.561)">
            <path id="Path_13660" data-name="Path 13660" d="M718.463,286.947h-1.884V244.156a17.608,17.608,0,0,1,17.588-17.588H765.73a15.72,15.72,0,0,0,15.7-15.7V169.409h1.884v41.456a17.606,17.606,0,0,1-17.586,17.586H734.167a15.721,15.721,0,0,0-15.7,15.7Z" transform="translate(-716.579 -169.409)" fill="#b8b8b8"/>
          </g>
        </g>
        <g id="Group_3293" data-name="Group 3293" transform="translate(282.804 54.534)">
          <g id="Group_3291" data-name="Group 3291" transform="translate(30.643)">
            <path id="Path_13661" data-name="Path 13661" d="M861.417,201.731a10.206,10.206,0,1,1,10.207-10.207A10.219,10.219,0,0,1,861.417,201.731Zm0-18.529a8.322,8.322,0,1,0,8.323,8.321A8.332,8.332,0,0,0,861.417,183.2Z" transform="translate(-851.21 -181.318)" fill="#b8b8b8"/>
          </g>
          <g id="Group_3292" data-name="Group 3292" transform="translate(0 19.471)">
            <path id="Path_13662" data-name="Path 13662" d="M858.015,251.419h-24.2v-1.884h24.2a15.721,15.721,0,0,0,15.7-15.7V192.374H875.6V233.83A17.609,17.609,0,0,1,858.015,251.419Z" transform="translate(-833.81 -192.374)" fill="#b8b8b8"/>
          </g>
        </g>
      </g>
      <g id="Group_3318" data-name="Group 3318" transform="translate(700.517 397.495)">
        <g id="Group_3316" data-name="Group 3316" transform="translate(66.896)">
          <rect id="Rectangle_927" data-name="Rectangle 927" width="499.359" height="318.296" rx="6.955" fill="#181c8b"/>
          <rect id="Rectangle_928" data-name="Rectangle 928" width="488.053" height="266.464" transform="translate(5.653 23.555)" fill="#d7f7ff"/>
          <rect id="Rectangle_929" data-name="Rectangle 929" width="248.998" height="266.464" transform="translate(5.653 23.555)" fill="#fff6f6"/>
          <g id="Group_3301" data-name="Group 3301" transform="translate(33.682 72.513)">
            <g id="Group_3295" data-name="Group 3295">
              <rect id="Rectangle_930" data-name="Rectangle 930" width="157.347" height="3.769" fill="#d6e7ea"/>
            </g>
            <g id="Group_3296" data-name="Group 3296" transform="translate(0 13.654)">
              <rect id="Rectangle_931" data-name="Rectangle 931" width="191.354" height="4.157" fill="#d6e7ea"/>
            </g>
            <g id="Group_3297" data-name="Group 3297" transform="translate(0 27.504)">
              <rect id="Rectangle_932" data-name="Rectangle 932" width="125.941" height="4.157" fill="#d6e7ea"/>
              <rect id="Rectangle_933" data-name="Rectangle 933" width="49.397" height="4.157" transform="translate(141.958)" fill="#d6e7ea"/>
              <line id="Line_33" data-name="Line 33" x1="191.354" transform="translate(0 4.157)" fill="#d6e7ea"/>
            </g>
            <g id="Group_3298" data-name="Group 3298" transform="translate(0 41.352)">
              <rect id="Rectangle_934" data-name="Rectangle 934" width="191.354" height="4.157" fill="#d6e7ea"/>
            </g>
            <g id="Group_3299" data-name="Group 3299" transform="translate(0 55.202)">
              <rect id="Rectangle_935" data-name="Rectangle 935" width="191.354" height="4.157" fill="#d6e7ea"/>
            </g>
            <g id="Group_3300" data-name="Group 3300" transform="translate(0 69.05)">
              <rect id="Rectangle_936" data-name="Rectangle 936" width="143.929" height="4.157" transform="translate(47.425)" fill="#d6e7ea"/>
              <rect id="Rectangle_937" data-name="Rectangle 937" width="32.978" height="4.157" fill="#d6e7ea"/>
            </g>
          </g>
          <g id="Group_3308" data-name="Group 3308" transform="translate(33.682 170.438)">
            <g id="Group_3302" data-name="Group 3302">
              <rect id="Rectangle_938" data-name="Rectangle 938" width="157.347" height="3.769" fill="#d6e7ea"/>
            </g>
            <g id="Group_3303" data-name="Group 3303" transform="translate(0 13.654)">
              <rect id="Rectangle_939" data-name="Rectangle 939" width="191.354" height="4.157" fill="#d6e7ea"/>
            </g>
            <g id="Group_3304" data-name="Group 3304" transform="translate(0 27.504)">
              <rect id="Rectangle_940" data-name="Rectangle 940" width="50.025" height="4.157" transform="translate(141.33)" fill="#d6e7ea"/>
              <rect id="Rectangle_941" data-name="Rectangle 941" width="29.837" height="4.157" fill="#d6e7ea"/>
              <rect id="Rectangle_942" data-name="Rectangle 942" width="77.259" height="4.157" transform="translate(46.797)" fill="#d6e7ea"/>
            </g>
            <g id="Group_3305" data-name="Group 3305" transform="translate(0 41.352)">
              <rect id="Rectangle_943" data-name="Rectangle 943" width="191.354" height="4.157" fill="#d6e7ea"/>
            </g>
            <g id="Group_3306" data-name="Group 3306" transform="translate(0 55.202)">
              <rect id="Rectangle_944" data-name="Rectangle 944" width="158.603" height="4.157" fill="#d6e7ea"/>
              <rect id="Rectangle_945" data-name="Rectangle 945" width="18.618" height="4.157" transform="translate(172.736)" fill="#d6e7ea"/>
            </g>
            <g id="Group_3307" data-name="Group 3307" transform="translate(0 69.05)">
              <rect id="Rectangle_946" data-name="Rectangle 946" width="191.354" height="4.157" fill="#d6e7ea"/>
            </g>
          </g>
          <g id="Group_3315" data-name="Group 3315" transform="translate(274.255 170.438)">
            <g id="Group_3309" data-name="Group 3309">
              <rect id="Rectangle_947" data-name="Rectangle 947" width="157.347" height="3.769" fill="#d6e7ea"/>
            </g>
            <g id="Group_3310" data-name="Group 3310" transform="translate(0 13.654)">
              <rect id="Rectangle_948" data-name="Rectangle 948" width="126.03" height="4.157" transform="translate(65.325)" fill="#d6e7ea"/>
              <rect id="Rectangle_949" data-name="Rectangle 949" width="48.051" height="4.157" fill="#d6e7ea"/>
            </g>
            <g id="Group_3311" data-name="Group 3311" transform="translate(0 27.504)">
              <rect id="Rectangle_950" data-name="Rectangle 950" width="191.354" height="4.157" fill="#d6e7ea"/>
            </g>
            <g id="Group_3312" data-name="Group 3312" transform="translate(0 41.352)">
              <rect id="Rectangle_951" data-name="Rectangle 951" width="86.681" height="4.157" fill="#d6e7ea"/>
              <rect id="Rectangle_952" data-name="Rectangle 952" width="88.028" height="4.157" transform="translate(103.326)" fill="#d6e7ea"/>
            </g>
            <g id="Group_3313" data-name="Group 3313" transform="translate(0 55.202)">
              <rect id="Rectangle_953" data-name="Rectangle 953" width="191.354" height="4.157" fill="#d6e7ea"/>
            </g>
            <g id="Group_3314" data-name="Group 3314" transform="translate(0 69.05)">
              <rect id="Rectangle_954" data-name="Rectangle 954" width="133.567" height="4.157" transform="translate(57.787)" fill="#d6e7ea"/>
              <rect id="Rectangle_955" data-name="Rectangle 955" width="41.77" height="4.157" fill="#d6e7ea"/>
            </g>
          </g>
        </g>
        <g id="Group_3317" data-name="Group 3317" transform="translate(0 316.198)">
          <path id="Rectangle_956" data-name="Rectangle 956" d="M0,0H633.15a0,0,0,0,1,0,0V26.261a17.983,17.983,0,0,1-17.983,17.983H17.983A17.983,17.983,0,0,1,0,26.261V0A0,0,0,0,1,0,0Z" transform="translate(0 0.001)" fill="#181c8b"/>
          <path id="Path_13663" data-name="Path 13663" d="M1321.792,484.427c.026-.541.081-1.074.081-1.622V470.231H688.723v12.574c0,.548.055,1.081.083,1.622Z" transform="translate(-688.723 -470.231)" fill="#2a33a0"/>
        </g>
        <path id="Path_13664" data-name="Path 13664" d="M714.411,487.233a5.889,5.889,0,1,1-5.889-5.887A5.889,5.889,0,0,1,714.411,487.233Z" transform="translate(-678.136 -145.573)" fill="#010205"/>
        <path id="Path_13665" data-name="Path 13665" d="M726.314,487.233a5.888,5.888,0,1,1-5.887-5.887A5.888,5.888,0,0,1,726.314,487.233Z" transform="translate(-669.076 -145.573)" fill="#010205"/>
        <rect id="Rectangle_957" data-name="Rectangle 957" width="30.15" height="8.794" transform="translate(571.987 336.675)" fill="#010205"/>
      </g>
      <g id="Group_3333" data-name="Group 3333" transform="translate(858.09 378.105)">
        <g id="Group_3321" data-name="Group 3321">
          <g id="Group_3319" data-name="Group 3319">
            <path id="Path_13666" data-name="Path 13666" d="M780.7,675.77a2.507,2.507,0,0,1-2.508-2.506V282.182a2.507,2.507,0,0,1,5.014,0V673.264A2.506,2.506,0,0,1,780.7,675.77Z" transform="translate(-778.197 -279.676)" fill="#ff6d5a"/>
          </g>
          <g id="Group_3320" data-name="Group 3320" transform="translate(57.268)">
            <path id="Path_13667" data-name="Path 13667" d="M813.223,675.77a2.507,2.507,0,0,1-2.508-2.506V282.182a2.507,2.507,0,0,1,5.014,0V673.264A2.506,2.506,0,0,1,813.223,675.77Z" transform="translate(-810.715 -279.676)" fill="#ff6d5a"/>
          </g>
        </g>
        <g id="Group_3332" data-name="Group 3332" transform="translate(0 29.039)">
          <g id="Group_3322" data-name="Group 3322">
            <path id="Path_13668" data-name="Path 13668" d="M837.972,301.179H780.7a2.507,2.507,0,1,1,0-5.014h57.268a2.507,2.507,0,0,1,0,5.014Z" transform="translate(-778.197 -296.165)" fill="#ff6d5a"/>
          </g>
          <g id="Group_3323" data-name="Group 3323" transform="translate(0 37.186)">
            <path id="Path_13669" data-name="Path 13669" d="M837.972,322.294H780.7a2.507,2.507,0,1,1,0-5.014h57.268a2.507,2.507,0,0,1,0,5.014Z" transform="translate(-778.197 -317.28)" fill="#ff6d5a"/>
          </g>
          <g id="Group_3324" data-name="Group 3324" transform="translate(0 74.372)">
            <path id="Path_13670" data-name="Path 13670" d="M837.972,343.409H780.7a2.507,2.507,0,1,1,0-5.014h57.268a2.507,2.507,0,0,1,0,5.014Z" transform="translate(-778.197 -338.395)" fill="#ff6d5a"/>
          </g>
          <g id="Group_3325" data-name="Group 3325" transform="translate(0 111.557)">
            <path id="Path_13671" data-name="Path 13671" d="M837.972,364.524H780.7a2.507,2.507,0,1,1,0-5.014h57.268a2.507,2.507,0,0,1,0,5.014Z" transform="translate(-778.197 -359.51)" fill="#ff6d5a"/>
          </g>
          <g id="Group_3326" data-name="Group 3326" transform="translate(0 148.745)">
            <path id="Path_13672" data-name="Path 13672" d="M837.972,385.64H780.7a2.507,2.507,0,1,1,0-5.014h57.268a2.507,2.507,0,0,1,0,5.014Z" transform="translate(-778.197 -380.626)" fill="#ff6d5a"/>
          </g>
          <g id="Group_3327" data-name="Group 3327" transform="translate(0 185.931)">
            <path id="Path_13673" data-name="Path 13673" d="M837.972,406.755H780.7a2.507,2.507,0,1,1,0-5.014h57.268a2.507,2.507,0,0,1,0,5.014Z" transform="translate(-778.197 -401.741)" fill="#ff6d5a"/>
          </g>
          <g id="Group_3328" data-name="Group 3328" transform="translate(0 223.116)">
            <path id="Path_13674" data-name="Path 13674" d="M837.972,427.87H780.7a2.507,2.507,0,1,1,0-5.014h57.268a2.507,2.507,0,0,1,0,5.014Z" transform="translate(-778.197 -422.856)" fill="#ff6d5a"/>
          </g>
          <g id="Group_3329" data-name="Group 3329" transform="translate(0 260.302)">
            <path id="Path_13675" data-name="Path 13675" d="M837.972,448.985H780.7a2.507,2.507,0,1,1,0-5.014h57.268a2.507,2.507,0,0,1,0,5.014Z" transform="translate(-778.197 -443.971)" fill="#ff6d5a"/>
          </g>
          <g id="Group_3330" data-name="Group 3330" transform="translate(0 297.488)">
            <path id="Path_13676" data-name="Path 13676" d="M837.972,470.1H780.7a2.507,2.507,0,1,1,0-5.014h57.268a2.507,2.507,0,0,1,0,5.014Z" transform="translate(-778.197 -465.086)" fill="#ff6d5a"/>
          </g>
          <g id="Group_3331" data-name="Group 3331" transform="translate(0 334.674)">
            <path id="Path_13677" data-name="Path 13677" d="M837.972,491.215H780.7a2.507,2.507,0,1,1,0-5.014h57.268a2.507,2.507,0,0,1,0,5.014Z" transform="translate(-778.197 -486.201)" fill="#ff6d5a"/>
          </g>
        </g>
      </g>
      <g id="Group_3334" data-name="Group 3334" transform="translate(1025.448 457.788)">
        <path id="Path_13678" data-name="Path 13678" d="M885.742,326.986l-1.175,6.764s-8.3-4.213-8.628-5.428a24.775,24.775,0,0,0,1.337-3.4Z" transform="translate(-871.162 -324.922)" fill="#ffac83"/>
        <path id="Path_13679" data-name="Path 13679" d="M878.248,338.712s14.58,11.209,17.821,13.608,8.747-4.7,3.24-9.411-9.4-10.676-9.237-13.43c-1.036-2.943-4.294.324-5.266.81s-5.343-1.377-5.748-5.023c-3.563,2.592-5.831,8.182-5.831,8.182S873.227,334.852,878.248,338.712Z" transform="translate(-873.227 -324.66)" fill="#ff6d5a"/>
        <path id="Path_13680" data-name="Path 13680" d="M898.714,348.376c-3.239-2.4-19.547-14.878-19.547-14.878a27.473,27.473,0,0,1-4.787-4.929,25.884,25.884,0,0,0-1.154,2.365s0,1.4,5.021,5.264c0,0,14.58,11.209,17.821,13.608,1.344.995,3.07.345,4.246-1.08A1.865,1.865,0,0,1,898.714,348.376Z" transform="translate(-873.227 -322.146)" fill="#ddd"/>
      </g>
      <g id="Group_3335" data-name="Group 3335" transform="translate(989.741 457.788)">
        <path id="Path_13681" data-name="Path 13681" d="M860.813,326.986l1.173,6.764s8.3-4.213,8.628-5.428a24.783,24.783,0,0,1-1.337-3.4Z" transform="translate(-846.968 -324.922)" fill="#ffac83"/>
        <path id="Path_13682" data-name="Path 13682" d="M876.354,338.712s-14.58,11.209-17.821,13.608-8.747-4.7-3.239-9.411,9.4-10.676,9.237-13.43c1.036-2.943,4.292.324,5.264.81s5.343-1.377,5.748-5.023c3.564,2.592,5.831,8.182,5.831,8.182S881.375,334.852,876.354,338.712Z" transform="translate(-852.952 -324.66)" fill="#ff6d5a"/>
        <path id="Path_13683" data-name="Path 13683" d="M855.31,348.376c3.24-2.4,19.548-14.878,19.548-14.878a27.541,27.541,0,0,0,4.787-4.929,25.561,25.561,0,0,1,1.152,2.365s0,1.4-5.021,5.264c0,0-14.58,11.209-17.821,13.608-1.344.995-3.07.345-4.244-1.08A1.86,1.86,0,0,0,855.31,348.376Z" transform="translate(-852.374 -322.146)" fill="#ddd"/>
      </g>
      <path id="Path_13684" data-name="Path 13684" d="M922.731,292.241c-3.1-7.344-17.176-7.228-17.176-7.228l-18.328.863s-.062.313-.15.824c-.086-.511-.148-.824-.148-.824l-18.328-.863s-14.828-.333-17.933,7.011,16.021,64.485,17.933,66.212a69.447,69.447,0,0,0,9.256-2.161s-7.344-42.587-11.016-52.738c3.672-5.616,18.359-4.892,20.087-5.454a.644.644,0,0,0,.148-.1.654.654,0,0,0,.15.1c1.728.562,16.759-.687,20.431,4.928-3.672,10.153-11.359,53.265-11.359,53.265a69.447,69.447,0,0,0,9.256,2.161C907.467,356.509,925.836,299.584,922.731,292.241Z" transform="translate(134.793 102.49)" fill="#12196b"/>
      <g id="Group_3347" data-name="Group 3347" transform="translate(991.563 291.204)">
        <g id="Group_3336" data-name="Group 3336" transform="translate(0 49.055)">
          <path id="Path_13685" data-name="Path 13685" d="M859.137,258.188s-9.4,19.712-2.807,35.266,13.3,16.637,13.3,16.637l2.2-13.564s-15.135-8.138-3.906-30.2C866.338,257.827,859.137,258.188,859.137,258.188Z" transform="translate(-853.986 -258.186)" fill="#ffac83"/>
          <path id="Path_13686" data-name="Path 13686" d="M890.8,258.188s9.4,19.712,2.807,35.266-13.3,16.637-13.3,16.637l-2.2-13.564s15.133-8.138,3.9-30.2C883.6,257.827,890.8,258.188,890.8,258.188Z" transform="translate(-835.629 -258.186)" fill="#ffac83"/>
        </g>
        <g id="Group_3337" data-name="Group 3337" transform="translate(0.201 31.734)">
          <path id="Path_13687" data-name="Path 13687" d="M854.1,270.947s8.693,2.024,12.338,7.245A113.5,113.5,0,0,1,878.3,248.826s-14.232.143-18.169,10.7A50.6,50.6,0,0,1,854.1,270.947Z" transform="translate(-854.1 -247.989)" fill="#ff6d5a"/>
          <path id="Path_13688" data-name="Path 13688" d="M898.144,270.971s-8.693,2.024-12.338,7.245a113.471,113.471,0,0,0-11.861-29.366s11.787-1.287,17.3,8.54C895.806,265.507,898.144,270.971,898.144,270.971Z" transform="translate(-838.996 -248.013)" fill="#ff6d5a"/>
          <path id="Path_13689" data-name="Path 13689" d="M878.584,248.5s-14.457-1.853-17.109,7.694,2.388,41.608,2.388,41.608h28.914s6.632-28.356,3.846-41.893C895.165,248.5,883.63,248.552,878.584,248.5Z" transform="translate(-849.074 -248.351)" fill="#ff6d5a"/>
        </g>
        <g id="Group_3346" data-name="Group 3346" transform="translate(18.551)">
          <path id="Path_13690" data-name="Path 13690" d="M868.645,243.93a23.255,23.255,0,0,1-.292,8.7c-.687,2.194-1.432,6.581,5.15,6.624,5.264.032,6.241-2.009,6.347-4.646.009-.252-.6-2.013-.829-2.872-.865-3.267-.382-6.273-.486-7.939C875.753,243.634,868.645,243.93,868.645,243.93Z" transform="translate(-861.934 -220.118)" fill="#ffbaac"/>
          <g id="Group_3345" data-name="Group 3345">
            <path id="Path_13691" data-name="Path 13691" d="M884.987,244.414c0,6.521-4.3,11.806-9.609,11.806s-9.61-5.285-9.61-11.806,4.3-11.806,9.61-11.806S884.987,237.893,884.987,244.414Z" transform="translate(-863.569 -228.598)" fill="#ffbaac"/>
            <g id="Group_3338" data-name="Group 3338" transform="translate(0.001 14.175)">
              <path id="Path_13692" data-name="Path 13692" d="M876.506,239.472s.99-1.812,2.416-.768-.581,5.208-1.481,5.271-1.374-1.395-1.319-1.74S876.506,239.472,876.506,239.472Z" transform="translate(-855.693 -238.38)" fill="#ffbaac"/>
              <path id="Path_13693" data-name="Path 13693" d="M867.433,239.472s-.988-1.812-2.416-.768.583,5.208,1.483,5.271,1.374-1.395,1.319-1.74S867.433,239.472,867.433,239.472Z" transform="translate(-864.52 -238.38)" fill="#ffbaac"/>
            </g>
            <g id="Group_3343" data-name="Group 3343" transform="translate(5.962 13.051)">
              <g id="Group_3340" data-name="Group 3340" transform="translate(8.475)">
                <g id="Group_3339" data-name="Group 3339" transform="translate(0.776 1.955)">
                  <path id="Path_13694" data-name="Path 13694" d="M874.393,239.634a.635.635,0,1,1-.616-.782A.715.715,0,0,1,874.393,239.634Z" transform="translate(-873.158 -238.852)" fill="#12196b"/>
                  <path id="Path_13695" data-name="Path 13695" d="M873.785,239.585a.215.215,0,1,1-.423,0,.215.215,0,1,1,.423,0Z" transform="translate(-873.003 -238.487)" fill="#fff"/>
                </g>
                <path id="Path_13696" data-name="Path 13696" d="M876.336,239.531a4.417,4.417,0,0,0-2.39-1.749c-1.4-.268-1.441.865-.926.988A12.5,12.5,0,0,1,876.336,239.531Z" transform="translate(-872.717 -237.742)" fill="#12196b"/>
              </g>
              <g id="Group_3342" data-name="Group 3342">
                <g id="Group_3341" data-name="Group 3341" transform="translate(1.606 1.955)">
                  <path id="Path_13697" data-name="Path 13697" d="M868.817,239.634a.635.635,0,1,0,.618-.782A.717.717,0,0,0,868.817,239.634Z" transform="translate(-868.817 -238.852)" fill="#12196b"/>
                  <path id="Path_13698" data-name="Path 13698" d="M869.075,239.585a.214.214,0,1,0,.211-.254A.233.233,0,0,0,869.075,239.585Z" transform="translate(-868.621 -238.487)" fill="#fff"/>
                </g>
                <path id="Path_13699" data-name="Path 13699" d="M867.905,239.531a4.417,4.417,0,0,1,2.39-1.749c1.4-.268,1.441.865.926.988A12.5,12.5,0,0,0,867.905,239.531Z" transform="translate(-867.905 -237.742)" fill="#12196b"/>
              </g>
            </g>
            <g id="Group_3344" data-name="Group 3344">
              <path id="Path_13700" data-name="Path 13700" d="M886.247,237.486c-.984-2.09-1.752-2.12-1.752-2.12s0-5.909-7.037-4.924c-5.162,1.314-5.285,3.4-10.385,4.776a6.018,6.018,0,0,1-2.214.328,5.994,5.994,0,0,0,2.49,2.089c-1.353.389-2.828-1.014-2.828-1.014a4,4,0,0,0,1.752,3.223,13.032,13.032,0,0,0-.1,4.7,10.057,10.057,0,0,1,1.15,3.191c.22,1.608-.166,2.975.164,4.841a19.162,19.162,0,0,0,3.845,6.974c2.307,2.143,5.519,2.268,8.649,1.389s4.641-6.277,5.245-7.648.166-4.825.44-5.982a13.811,13.811,0,0,1,.932-2.8A11.462,11.462,0,0,0,886.247,237.486Zm-1.59,7.152a15.045,15.045,0,0,0-.1,1.8,20.173,20.173,0,0,1-.044,2.835c-.289,1.456-1.625,4.5-4.207,3.186s-7.162-.914-9.415-.144-1.974-2.679-2.414-3.957a4.68,4.68,0,0,1,0-2.763c.106-.78,1.427-1.824,1.425-4.084,2.485.56,8.8,1.49,11.984-2.506a6.391,6.391,0,0,0,2.582,4.626c.053.078.106.146.159.213A3.046,3.046,0,0,1,884.657,244.638Z" transform="translate(-864.52 -230.331)" fill="#12196b"/>
              <path id="Path_13701" data-name="Path 13701" d="M869.182,243.389s5.683.453,7.455,0C874.661,246.066,871.489,247.385,869.182,243.389Z" transform="translate(-860.971 -220.393)" fill="#fff"/>
            </g>
          </g>
        </g>
      </g>
      <rect id="Rectangle_958" data-name="Rectangle 958" width="119.123" height="63.072" rx="6.194" transform="translate(962.502 329.093)" fill="#948dd5"/>
      <text id="JAVA" transform="translate(986.481 366.944)" fill="#fff" font-size="26" font-family="Montserrat-SemiBold, Montserrat" font-weight="600"><tspan x="0" y="0">JAVA</tspan></text>
      <text id="C_" data-name="C++" transform="translate(1207.323 257.028)" fill="#1059cd" font-size="57" font-family="Montserrat-SemiBold, Montserrat" font-weight="600"><tspan x="0" y="0">C++</tspan></text>
      <g id="Group_3348" data-name="Group 3348" transform="translate(958.031 356.903)">
        <path id="Path_13702" data-name="Path 13702" d="M907.263,267.637s4.572,4.577,4.464,9.309-5.724,7.631-7.668,6.173a4.792,4.792,0,0,1,.215-7.552c2.177-1.573,2.673-2.018,2.673-2.018Z" transform="translate(-783.668 -267.637)" fill="#ffbaac"/>
        <path id="Path_13703" data-name="Path 13703" d="M839.412,267.637s-4.572,4.577-4.464,9.309,5.724,7.631,7.668,6.173a4.792,4.792,0,0,0-.215-7.552c-2.177-1.573-2.673-2.018-2.673-2.018Z" transform="translate(-834.946 -267.637)" fill="#ffbaac"/>
      </g>
      <g id="Group_3360" data-name="Group 3360" transform="translate(1017.903 442.866)">
        <g id="Group_3359" data-name="Group 3359">
          <rect id="Rectangle_959" data-name="Rectangle 959" width="129.85" height="68.751" rx="6.752" transform="translate(93.441)" fill="#ff6d5a"/>
          <text id="HTML" transform="translate(111.93 42.942)" fill="#fff" font-size="33" font-family="Montserrat-SemiBold, Montserrat" font-weight="600"><tspan x="0" y="0">HTML</tspan></text>
          <g id="Group_3358" data-name="Group 3358" transform="translate(0 44.403)">
            <g id="Group_3349" data-name="Group 3349" transform="translate(21.64)">
              <path id="Path_13704" data-name="Path 13704" d="M884.963,365.337a15.356,15.356,0,0,0,1.469-7.235c6.291-.525,11.113-.629,11.113-.629s-.733,5.452,2.832,8.388C893.351,369.111,884.963,365.337,884.963,365.337Z" transform="translate(-878.39 -329.627)" fill="#ffac83"/>
              <path id="Path_13705" data-name="Path 13705" d="M896.886,344.512a8.159,8.159,0,0,1,3.985,4.822,11.157,11.157,0,0,1,.629,5.243c.1.525,2.1,4.822,2.1,4.822l-1.469.944s-.525,3.985-.629,5.139-1.469-1.259-2.832,2.83c-4.193,3.564-11.113.629-11.113.629a72.134,72.134,0,0,1-3.984-14.26C882.628,347.971,889.653,340.108,896.886,344.512Z" transform="translate(-879.514 -340.465)" fill="#ffac83"/>
              <path id="Path_13706" data-name="Path 13706" d="M886.18,346.049s2.83-5.739,11.951-4.089,12.111.067,12.347,2.471-4.561,3.506-4.561,3.506c1.1,2.2-3.066,5.739-4.4,5.662-.549,1.493-.865,1.65-1.021,3.066a9.735,9.735,0,0,0,.393,3.225h-1.337s-.944-3.7-2.673-2.6-.472,4.325-.393,6.055a6.715,6.715,0,0,1-4.169,6.16c-3.047,1.076-6.6.21-8.649-4.036S878.394,348.881,886.18,346.049Z" transform="translate(-881.231 -341.662)" fill="#352c23"/>
            </g>
            <g id="Group_3356" data-name="Group 3356" transform="translate(0 35.136)">
              <g id="Group_3354" data-name="Group 3354" transform="translate(0.49)">
                <g id="Group_3351" data-name="Group 3351" transform="translate(43.274 177.443)">
                  <g id="Group_3350" data-name="Group 3350">
                    <path id="Path_13707" data-name="Path 13707" d="M894.168,463.128l.464,6.236h5.393V462.37Z" transform="translate(-893.508 -462.37)" fill="#f2c897"/>
                    <path id="Path_13708" data-name="Path 13708" d="M893.849,464.355s-.127,8.614,0,10.216c5.225.083,13.147.252,13.4,0s.717-6.627-3.707-5.808c-2.36.06-2.467-4.408-2.467-4.408Z" transform="translate(-893.793 -460.858)" fill="#ff6d5a"/>
                    <path id="Path_13709" data-name="Path 13709" d="M893.794,468.683c0,1.176.019,2.154.055,2.592,5.225.085,13.147.254,13.4,0a6.1,6.1,0,0,0,.046-2.592Z" transform="translate(-893.792 -457.564)" fill="#f2f2f2"/>
                  </g>
                </g>
                <g id="Group_3353" data-name="Group 3353" transform="translate(13.982 177.443)">
                  <g id="Group_3352" data-name="Group 3352">
                    <path id="Path_13710" data-name="Path 13710" d="M887.043,463.128l-.464,6.236h-5.394V462.37Z" transform="translate(-874.096 -462.37)" fill="#f2c897"/>
                    <path id="Path_13711" data-name="Path 13711" d="M890.711,464.355s.125,8.614,0,10.216c-5.225.083-13.148.252-13.4,0s-.717-6.627,3.707-5.808c2.36.06,2.467-4.408,2.467-4.408Z" transform="translate(-877.16 -460.858)" fill="#ff6d5a"/>
                    <path id="Path_13712" data-name="Path 13712" d="M877.253,468.728a6.022,6.022,0,0,0,.056,2.513c.252.254,8.175.085,13.4,0,.033-.43.049-1.374.053-2.513Z" transform="translate(-877.158 -457.53)" fill="#f2f2f2"/>
                  </g>
                </g>
                <path id="Path_13713" data-name="Path 13713" d="M915.786,450.15c-.254-24.523-2.469-53.5-2.469-53.5H897.393l-15.857,1.761S879.252,425.627,879,450.15s2.148,64.006,2.148,64.006h8.975s4.045-37.207,3.288-53.767,3.982-38.961,3.982-38.961,4.741,22.4,3.982,38.961,3.286,53.767,3.286,53.767h8.976S916.038,474.674,915.786,450.15Z" transform="translate(-861.792 -334.944)" fill="#12196b"/>
                <path id="Path_13714" data-name="Path 13714" d="M869.221,400.146s15.411-18.832,32.374-26.9c3.232.974,4.457,5.292,4.051,5.8s-20.822,21.184-20.822,21.184S874.62,407.692,869.221,400.146Z" transform="translate(-869.221 -352.761)" fill="#f45145"/>
                <path id="Path_13715" data-name="Path 13715" d="M890.634,361.613s9.734.886,14.411,0c6.448,1.9,15.882,1.571,15.882,1.571s-1.286,17.787-1.159,19.684c-2.149,5.562-3.473,29.583-2.462,35.145s-3.538,8.342-7.332,9.355-26.293.505-27.81,0-4.045-9.355-3.54-20.985a93.789,93.789,0,0,0-1.308-20.549s.928-16.887.549-19.543C886.083,363.258,890.634,361.613,890.634,361.613Z" transform="translate(-863.06 -361.613)" fill="#ff6d5a"/>
              </g>
              <g id="Group_3355" data-name="Group 3355" transform="translate(0 4.678)">
                <path id="Path_13716" data-name="Path 13716" d="M884.238,364.269s-13.326,31.939-14.971,38.045c-2.2,8.177,7.444,9.44,9.542,6.19s5.967-16.133,5.967-16.133S889.668,368.584,884.238,364.269Z" transform="translate(-868.943 -364.269)" fill="#ff6d5a"/>
              </g>
            </g>
            <g id="Group_3357" data-name="Group 3357" transform="translate(54.564 19.513)">
              <path id="Path_13717" data-name="Path 13717" d="M936.765,365.729a10.915,10.915,0,0,0,2.909-3.54,29.333,29.333,0,0,0,1.671-4.639s3.538.026,5.544.026c2.237,0,7.332-5.609,9.692-4.744s.157,6.291-4.246,10.3a71.355,71.355,0,0,1-10.538,7.55Z" transform="translate(-871.887 -352.742)" fill="#ffac83"/>
              <path id="Path_13718" data-name="Path 13718" d="M903.718,364.494s26.852,14.563,31.989,12.256,27.917-16.857,27.917-16.857a11.311,11.311,0,0,1,8.179,5.783c-17.143,27.627-24.062,27.47-30.983,30.772s-31.258-7.763-39.266-11.454C896.894,374.828,903.718,364.494,903.718,364.494Z" transform="translate(-899.926 -347.299)" fill="#ff6d5a"/>
            </g>
          </g>
        </g>
      </g>
      <g id="Group_3370" data-name="Group 3370" transform="translate(795.127 294.646)">
        <g id="Group_3368" data-name="Group 3368">
          <g id="Group_3366" data-name="Group 3366" transform="translate(18.502)">
            <g id="Group_3361" data-name="Group 3361" transform="translate(36.487 29.148)">
              <path id="Path_13719" data-name="Path 13719" d="M775.328,275.363s-4.042-19.7.493-24.935,9.7,3.811,11.2,7.5,4.026,14.651,4.026,14.651Z" transform="translate(-773.669 -248.837)" fill="#b6d15a"/>
            </g>
            <g id="Group_3365" data-name="Group 3365">
              <g id="Group_3362" data-name="Group 3362" transform="translate(15.61 64.042)">
                <path id="Path_13720" data-name="Path 13720" d="M802.09,321.78s-.6,5.151.139,7.374,18.058,8.147,21.151,8.52,3.7-3.388.375-5.794-12.675-9.913-13.6-11.939S802.09,321.78,802.09,321.78Z" transform="translate(-731.335 -230.06)" fill="#a4c24f"/>
                <path id="Path_13721" data-name="Path 13721" d="M826.068,331.118c-.213.72-.829,1.159-1.913,1.027-2.878-.347-19.115-5.873-21.979-8.436.047.81-.847,2.11-.66,2.673.738,2.224,19.12,8.068,22.213,8.441C825.83,335.079,826.712,332.958,826.068,331.118Z" transform="translate(-731.617 -226.745)" fill="#e6e6ee"/>
                <path id="Path_13722" data-name="Path 13722" d="M762.539,273.456s-4.017,10.273,6.861,17.972,43.818,17.079,43.885,19.77c.315,12.747,18.453,49.825,18.453,49.825l9.713-2.7s-14.08-48.853-15.445-55.655-46.166-29.088-46.166-29.088l-6.74-4.78S764.9,267.336,762.539,273.456Z" transform="translate(-761.814 -268.65)" fill="#12196b"/>
              </g>
              <path id="Path_13723" data-name="Path 13723" d="M789.7,245.184s-9.13-3.758-18.756-2.355-15.982,37.688-16.986,47.1l-1.005,9.408s-.2,3.209,11.231-3.41a27.965,27.965,0,0,1,22.4-2.448s13.6-32.454,13.694-35.083S789.7,245.184,789.7,245.184Z" transform="translate(-752.951 -224.5)" fill="#a4c24f"/>
              <g id="Group_3363" data-name="Group 3363" transform="translate(29.758)">
                <path id="Path_13724" data-name="Path 13724" d="M792.257,252.7s11.923,2.356,11.65-3.253-7.358-8.869-7.358-8.869c2.754-1.647-1.641-6.618-5.343-4.991.005-3.255-8.268-6.22-8.582,2.059-3.156-2.705-6.41.312-7.183,4.815a73.469,73.469,0,0,0-.514,11.743Z" transform="translate(-766.015 -232.286)" fill="#352c23"/>
                <path id="Path_13725" data-name="Path 13725" d="M792.526,238.328s4.183,3.41,5.371,6-2.328,5.074-2.432,6.579.655,3,.428,3.429-1.943.13-2.219.06-3.962,3.756-6.16,4.556-3.071-1.645-3.447-2.21-6.5,4.091-7.069,5.347-5.389-2.677-6.4-4.8a7.071,7.071,0,0,1,1.955-8.649c.565-.373,4.471-1.469,5.364-1.874s3.533-1.363,3.7-1.483-1.226-3.83.511-5.033,2.474,1.793,2.39,2.971a2.288,2.288,0,0,1-.609,1.573l.94.868s1.428-2.668,2.471-3.255S793.228,244.849,792.526,238.328Z" transform="translate(-769.848 -227.687)" fill="#ffac83"/>
              </g>
              <g id="Group_3364" data-name="Group 3364" transform="translate(0.524 67.672)">
                <path id="Path_13726" data-name="Path 13726" d="M780.343,330.74s-1.729,4.889-1.5,7.22,15.794,11.958,18.726,13.011,4.362-2.483,1.655-5.565-10.153-12.484-10.605-14.666S780.343,330.74,780.343,330.74Z" transform="translate(-733.787 -225.762)" fill="#a4c24f"/>
                <path id="Path_13727" data-name="Path 13727" d="M799.456,346.97c-2.708-.972-17.662-10.47-20.114-13.754a2.535,2.535,0,0,0-.992,2.281c.227,2.332,16.644,12.215,19.578,13.268a2.3,2.3,0,0,0,3.006-1.913A1.453,1.453,0,0,1,799.456,346.97Z" transform="translate(-734.149 -223.14)" fill="#e6e6ee"/>
                <path id="Path_13728" data-name="Path 13728" d="M754.606,277.406s-4.792,15.17,3.631,25.5,35.2,16.783,35.079,19.471c-.627,14.6,5.736,53.973,5.736,53.973h9.941s-.72-48.64-.217-55.559S781.6,288.267,781.6,288.267l-.657-17.393S761.525,269.083,754.606,277.406Z" transform="translate(-753.248 -270.712)" fill="#12196b"/>
              </g>
            </g>
          </g>
          <g id="Group_3367" data-name="Group 3367" transform="translate(0 18.33)">
            <path id="Path_13729" data-name="Path 13729" d="M774.376,305.969a7.342,7.342,0,0,1-3.624-.046c-.145-.042-.289-.083-.423-.132a4.221,4.221,0,0,1-1.948-1.56c-.044-.07-12.2-26.48-12.784-27.848-.7-1.647,14.818-17.784,14.818-17.784l-10.223-7.3s-19.93,21.105-17.549,26.852c1.937,4.67,18.3,29.483,18.3,29.483.995,1.525,5.239,10.357,10.063,12.428s5.81-1.636,4.081-4.033c-2.409-2.658-3.209-4.8-3.413-6.176a2.078,2.078,0,0,1,1.4-.888c1.053-.183,3.08-.366,3.929-1.692S777.481,305.2,774.376,305.969Z" transform="translate(-742.445 -236.146)" fill="#ffac83"/>
            <path id="Path_13730" data-name="Path 13730" d="M750.983,257.963s12.905-14.848,19.82-15.256,4.049,9.607,2.455,13.254-7.677,13.113-7.677,13.113Z" transform="translate(-735.946 -242.694)" fill="#b6d15a"/>
          </g>
        </g>
        <rect id="Rectangle_960" data-name="Rectangle 960" width="79.226" height="62.678" rx="3.249" transform="translate(26.221 38.247)" fill="#fff6f6"/>
        <g id="Group_3369" data-name="Group 3369" transform="translate(49.741 44.579)">
          <path id="Path_13731" data-name="Path 13731" d="M803.116,273.814c0,8.953-16.213,31.378-16.213,31.378s-16.214-22.424-16.214-31.378a16.214,16.214,0,1,1,32.427,0Z" transform="translate(-770.689 -257.599)" fill="#ff6d5a"/>
          <circle id="Ellipse_701" data-name="Ellipse 701" cx="7.442" cy="7.442" r="7.442" transform="translate(8.772 8.151)" fill="#fff6f6"/>
        </g>
        <path id="Path_13732" data-name="Path 13732" d="M804.388,271.689s4.442,4.447,4.336,9.042-5.56,7.411-7.448,5.995a4.653,4.653,0,0,1,.21-7.333c2.115-1.527,2.6-1.96,2.6-1.96Z" transform="translate(-698.954 -202.296)" fill="#ffac83"/>
        <path id="Path_13733" data-name="Path 13733" d="M768.724,285.22a7.341,7.341,0,0,1-3.624-.046c-.145-.042-.289-.083-.423-.132a4.221,4.221,0,0,1-1.948-1.56c-.012-.019-.933-2.015-2.274-4.922H749.87c3.049,4.718,5.426,8.323,5.426,8.323.995,1.525,5.239,10.357,10.063,12.428s5.81-1.636,4.081-4.033c-2.409-2.658-3.209-4.8-3.413-6.176a2.078,2.078,0,0,1,1.4-.888c1.053-.183,3.08-.366,3.929-1.692S771.829,284.452,768.724,285.22Z" transform="translate(-736.793 -197.067)" fill="#ffac83"/>
      </g>
      <path id="Path_13734" data-name="Path 13734" d="M1070.641,449.124H1060.58a65.348,65.348,0,0,0-3.772-13.323l8.888-5.132a5.463,5.463,0,0,0,2-7.462l-4.735-8.2a5.463,5.463,0,0,0-7.462-2l-9.133,5.274a66.414,66.414,0,0,0-9.732-9.508l5.356-9.276a5.464,5.464,0,0,0-2-7.462l-8.2-4.734a5.46,5.46,0,0,0-7.46,2l-5.426,9.4a65.34,65.34,0,0,0-13.03-3.436V384.356a5.46,5.46,0,0,0-5.461-5.461h-9.469a5.462,5.462,0,0,0-5.463,5.461v10.908a65.3,65.3,0,0,0-13.029,3.436l-5.426-9.4a5.462,5.462,0,0,0-7.462-2l-8.2,4.734a5.461,5.461,0,0,0-2,7.462l5.356,9.276a66.33,66.33,0,0,0-9.732,9.508l-9.135-5.274a5.461,5.461,0,0,0-7.46,2l-4.736,8.2a5.464,5.464,0,0,0,2,7.462l8.89,5.132a65.359,65.359,0,0,0-3.774,13.323H920.711a5.461,5.461,0,0,0-5.461,5.461v9.469a5.462,5.462,0,0,0,5.461,5.463h9.737a65.535,65.535,0,0,0,3.436,13.7l-8.228,4.75a5.464,5.464,0,0,0-2,7.462l4.736,8.2a5.461,5.461,0,0,0,7.46,2l8.01-4.625A66.342,66.342,0,0,0,953.9,511.286l-4.537,7.858a5.461,5.461,0,0,0,2,7.462l8.2,4.734a5.462,5.462,0,0,0,7.462-2l4.456-7.719a65.369,65.369,0,0,0,14,3.818v8.846a5.462,5.462,0,0,0,5.463,5.461h9.469a5.46,5.46,0,0,0,5.461-5.461V525.44a65.341,65.341,0,0,0,14-3.818l4.457,7.719a5.46,5.46,0,0,0,7.46,2l8.2-4.734a5.464,5.464,0,0,0,2-7.462l-4.537-7.858a66.253,66.253,0,0,0,10.036-10.276l8.01,4.625a5.463,5.463,0,0,0,7.462-2l4.735-8.2a5.463,5.463,0,0,0-2-7.462l-8.226-4.75a65.419,65.419,0,0,0,3.434-13.7h9.737a5.463,5.463,0,0,0,5.463-5.463v-9.469A5.463,5.463,0,0,0,1070.641,449.124Zm-74.965,47.152a35.924,35.924,0,1,1,35.925-35.925A35.925,35.925,0,0,1,995.676,496.276Z" transform="translate(184.205 173.946)" fill="#1059cd"/>
      <g id="Group_3381" data-name="Group 3381" transform="translate(1207.323 477.262)">
        <g id="Group_3380" data-name="Group 3380">
          <g id="Group_3379" data-name="Group 3379">
            <g id="Group_3372" data-name="Group 3372">
              <path id="Path_13735" data-name="Path 13735" d="M1018.188,393.863s-3.1,47.992-3.362,65.582,1.682,65.186,1.682,65.186h6.078s7.5-31.3,6.985-41.129a125.7,125.7,0,0,0-2.587-18.884l6.856-36.092s5.69,37.645,8.729,40.49,7.178,11.641,8.212,16.3,13.1,35.951,13.1,35.951l6.236-.026s-3.3-30.235-5.105-40.063-9.054-13.451-10.088-16.556-1.488-39.326-2.265-44.239,6.145-18.432-2.909-27.743S1018.188,393.863,1018.188,393.863Z" transform="translate(-947.347 -295.783)" fill="#ffac83"/>
              <path id="Path_13736" data-name="Path 13736" d="M1055.381,455.566c-.505-8.848-1.708-31.881-2.231-35.187-.775-4.915,6.145-18.432-2.909-27.743s-31.557,1.227-31.557,1.227-3.948,42.858-4.528,61.507c3.205,2.455,13.428,3.8,18.042,2.425l2.135-29.27s1.062,21.681,3.621,30.467C1043.886,459.646,1051.337,459.243,1055.381,455.566Z" transform="translate(-947.84 -295.783)" fill="#12196b"/>
              <path id="Path_13737" data-name="Path 13737" d="M1019.249,369.993c-1.231-.687-19.652-16.778-27.552-23.09h0l-.192-.153a4.022,4.022,0,0,1-1.271-2s-.213-5.979-.18-7.619-1.745-1.544-2.214.4c-.282,1.171-.9,3.651-1.377,5.5a11.786,11.786,0,0,1-5.4-3.839c-2.083-1.881-5.683-1.335-4.229,3.432s9.29,8.039,10.625,9.135h0c7.266,8,22.745,26.274,26.952,28.585,5.178,2.844,30.425,5.651,30.425,5.651l1.448-10.56S1020.732,370.819,1019.249,369.993Z" transform="translate(-976.5 -335.98)" fill="#ffac83"/>
              <path id="Path_13738" data-name="Path 13738" d="M1011.515,355.737s40.035,7.347,45.273,8.511,1.359,24.833.777,24.444-.405,17.391.759,24.182-6.19,8.607-8.908,9.381-22.7-.153-24.832,0c-5.433.393-5.447-9.318-3.321-19.011,2.932-13.388-2.349-25.712-2.349-25.712l-12.6-5.2S1008.993,362.72,1011.515,355.737Z" transform="translate(-953.806 -320.942)" fill="#83aaff"/>
              <g id="Group_3371" data-name="Group 3371" transform="translate(63.948 6.353)">
                <path id="Path_13739" data-name="Path 13739" d="M1021.932,357.307s-11.861-6.255-8.531-10.757a9.945,9.945,0,0,1,8.409-4.017c-1.375-2.888,9.633-4.4,11.8-1,1.8-2.7,8.113,1.5,7.188,6.782,4.114-.5,11.312,7.974.36,18.832-3.235,3.205-5.685,1-5.685,1Z" transform="translate(-1012.811 -339.587)" fill="#352c23"/>
                <path id="Path_13740" data-name="Path 13740" d="M1027.774,346.166s-5.356.516-7.774,2-.877,5.5-1.624,6.8-2.2,2.129-2.251,2.606,1.539,1.183,1.805,1.279,1.21,5.308,2.589,7.187,3.461.335,4.082.074,2.295,7.159,2.073,8.515,7.254.979,9.214-.3,3.21-4.225,2.95-4.848-5.394-7.379-5.912-8.21.118-3.114.044-3.3,3.136-2.5,2.361-4.457-3.043.118-3.626,1.141a2.282,2.282,0,0,0-.365,1.641l-1.261.2s.292-3-.248-4.068S1025.825,348.274,1027.774,346.166Z" transform="translate(-1010.289 -334.579)" fill="#ffac83"/>
              </g>
            </g>
            <g id="Group_3375" data-name="Group 3375" transform="translate(48.742 225.435)">
              <g id="Group_3374" data-name="Group 3374">
                <g id="Group_3373" data-name="Group 3373">
                  <path id="Path_13741" data-name="Path 13741" d="M1023.944,464.07a4,4,0,0,1,3.927,1.37c.872.748,3.526-1.141,3.526-1.141s4.329,5.287,2.168,11.1c-8.147,1.326-28.095.671-29.093,0s.333-6.155,7.066-6.072S1023.944,464.07,1023.944,464.07Z" transform="translate(-1004.176 -463.987)" fill="#4a50ac"/>
                </g>
                <path id="Path_13742" data-name="Path 13742" d="M1005.219,468.867a.54.54,0,0,1-.176-.229c-.984,1.416-1.06,2.9-.572,3.221,1,.671,20.947,1.326,29.094,0a9.569,9.569,0,0,0,.586-2.967C1025.909,470.182,1006.211,469.533,1005.219,468.867Z" transform="translate(-1004.176 -460.447)" fill="#e6e6ee"/>
              </g>
            </g>
            <g id="Group_3378" data-name="Group 3378" transform="translate(105.424 221.935)">
              <g id="Group_3377" data-name="Group 3377">
                <g id="Group_3376" data-name="Group 3376">
                  <path id="Path_13743" data-name="Path 13743" d="M1054.26,466.731s-.636-3.86-3.989-4.489-3.242-.125-4.988,2.619-8.23,7.439-8.893,11.1,10.764,2.874,14.753,1.437,3.741-1.437,4.239-2.934S1054.26,466.731,1054.26,466.731Z" transform="translate(-1036.362 -462)" fill="#4a50ac"/>
                </g>
                <path id="Path_13744" data-name="Path 13744" d="M1051.143,470.26c-3.35,1.206-11.939,1.951-14.217-.005a5.354,5.354,0,0,0-.535,1.478c-.666,3.658,10.764,2.874,14.753,1.437s3.741-1.437,4.239-2.934a7.39,7.39,0,0,0-.072-2.684C1054.9,468.824,1054.92,468.9,1051.143,470.26Z" transform="translate(-1036.362 -457.774)" fill="#e6e6ee"/>
              </g>
            </g>
          </g>
        </g>
        <path id="Path_13745" data-name="Path 13745" d="M1037.4,385.659c-1.439.347-27.116,1.03-37.709,1.78h0l-.259.018a4.224,4.224,0,0,1-2.406-.639s-4.42-4.466-5.562-5.755-2.446.048-1.421,1.886c.616,1.106,1.9,3.459,2.851,5.23a12.373,12.373,0,0,1-6.9.874c-2.946.03-5.336,3.015-.821,5.66s12.895-.4,14.707-.507h0c11.3,1.006,36.261,4.1,41.155,2.893,6.021-1.49,27.517-17.289,27.517-17.289l-6.4-9.186S1039.132,385.243,1037.4,385.659Z" transform="translate(-971.81 -309.611)" fill="#ffac83"/>
      </g>
      <path id="Path_13746" data-name="Path 13746" d="M1025.7,377.4s11-12.13,13.661-14.487,2.892-2.872,3.6-1.818,8.527,7,6.291,15.126-14.723,15.419-14.723,15.419Z" transform="translate(268.273 160.005)" fill="#83aaff"/>
      <path id="Path_13747" data-name="Path 13747" d="M808.6,455.033h-7.212a46.967,46.967,0,0,0-2.705-9.552l6.372-3.679a3.915,3.915,0,0,0,1.434-5.349l-3.394-5.88a3.918,3.918,0,0,0-5.35-1.434l-6.548,3.781a47.454,47.454,0,0,0-6.978-6.815l3.841-6.65a3.918,3.918,0,0,0-1.434-5.35l-5.88-3.394a3.915,3.915,0,0,0-5.348,1.434l-3.89,6.738a46.845,46.845,0,0,0-9.341-2.464V408.6a3.916,3.916,0,0,0-3.915-3.917h-6.789a3.917,3.917,0,0,0-3.917,3.917v7.819a46.878,46.878,0,0,0-9.341,2.464l-3.89-6.738a3.914,3.914,0,0,0-5.349-1.434L723.09,414.1a3.916,3.916,0,0,0-1.434,5.35l3.839,6.65a47.539,47.539,0,0,0-6.978,6.815l-6.548-3.781a3.916,3.916,0,0,0-5.349,1.434l-3.4,5.88a3.916,3.916,0,0,0,1.433,5.349l6.374,3.679a46.866,46.866,0,0,0-2.705,9.552h-7.214a3.914,3.914,0,0,0-3.915,3.915v6.789a3.916,3.916,0,0,0,3.915,3.917H708.1a46.933,46.933,0,0,0,2.462,9.825l-5.9,3.406a3.916,3.916,0,0,0-1.433,5.348l3.4,5.879a3.915,3.915,0,0,0,5.349,1.434l5.743-3.314a47.447,47.447,0,0,0,7.2,7.367l-3.253,5.634a3.914,3.914,0,0,0,1.434,5.348l5.879,3.4a3.916,3.916,0,0,0,5.349-1.434l3.2-5.533a46.915,46.915,0,0,0,10.035,2.737v6.342A3.917,3.917,0,0,0,751.465,520h6.789a3.916,3.916,0,0,0,3.915-3.917v-6.342a46.9,46.9,0,0,0,10.036-2.737l3.195,5.533a3.916,3.916,0,0,0,5.348,1.434l5.88-3.4a3.916,3.916,0,0,0,1.434-5.348L784.81,499.6a47.53,47.53,0,0,0,7.2-7.367l5.741,3.314a3.916,3.916,0,0,0,5.35-1.434l3.394-5.879a3.915,3.915,0,0,0-1.434-5.348l-5.9-3.406a46.929,46.929,0,0,0,2.464-9.825H808.6a3.917,3.917,0,0,0,3.917-3.917v-6.789A3.916,3.916,0,0,0,808.6,455.033ZM754.859,488.41a26.067,26.067,0,1,1,26.068-26.066A26.066,26.066,0,0,1,754.859,488.41Z" transform="translate(18.246 193.573)" fill="#1059cd"/>
      <g id="Group_3382" data-name="Group 3382" transform="translate(780.481 686.046)">
        <rect id="Rectangle_961" data-name="Rectangle 961" width="121.66" height="96.249" rx="4.989" fill="#f6be39"/>
        <text id="JS" transform="translate(36.301 63.154)" fill="#fff" font-size="44" font-family="Montserrat-SemiBold, Montserrat" font-weight="600"><tspan x="0" y="0">JS</tspan></text>
      </g>
      <g id="Group_3383" data-name="Group 3383" transform="translate(691.037 449.387)">
        <rect id="Rectangle_962" data-name="Rectangle 962" width="121.66" height="96.249" rx="4.989" fill="#a4c24f"/>
        <text id="PHP" transform="translate(7.977 64.154)" fill="#fff" font-size="45" font-family="Montserrat-SemiBold, Montserrat" font-weight="600"><tspan x="0" y="0">PHP</tspan></text>
      </g>
    </g>
  </g>
</svg>
