<svg xmlns="http://www.w3.org/2000/svg" width="25" height="42.602" viewBox="0 0 25 42.602">
  <g id="Group_4327" data-name="Group 4327" transform="translate(-416.66 -126.968)">
    <path id="Path_13940" data-name="Path 13940" d="M438.323,169.57H419.948a3.358,3.358,0,0,1-3.288-3.337V130.3a3.316,3.316,0,0,1,3.288-3.337h18.375a3.3,3.3,0,0,1,3.337,3.337v15.813a.822.822,0,0,1-1.644,0V130.3a1.675,1.675,0,0,0-1.693-1.693H419.948A1.671,1.671,0,0,0,418.3,130.3v35.928a1.691,1.691,0,0,0,1.644,1.692h18.375a1.715,1.715,0,0,0,1.693-1.692v-17.07a.822.822,0,0,1,1.644,0v17.07A3.34,3.34,0,0,1,438.323,169.57Z" transform="translate(0)" fill="#fff"/>
    <path id="Path_13941" data-name="Path 13941" d="M469.687,301.923h-.768a1.006,1.006,0,0,1,0-2.012h.768a1.006,1.006,0,0,1,0,2.012Z" transform="translate(-40.142 -135.549)" fill="#fff"/>
    <path id="Path_13942" data-name="Path 13942" d="M440.838,290.364H417.482a1.027,1.027,0,0,1,0-2.012h23.356a1.027,1.027,0,0,1,0,2.012Z" transform="translate(0 -127.127)" fill="#fff"/>
    <path id="Path_13943" data-name="Path 13943" d="M440.838,152.316H417.482a1.027,1.027,0,0,1,0-2.012h23.356a1.027,1.027,0,0,1,0,2.012Z" transform="translate(0 -17.004)" fill="#fff"/>
  </g>
</svg>
