<svg xmlns="http://www.w3.org/2000/svg" width="396.955" height="511.484" viewBox="0 0 396.955 511.484">
  <g id="Group_3529" data-name="Group 3529" transform="translate(-1401 -1828)">
    <g id="Group_1452" data-name="Group 1452" transform="translate(1571.452 1839.479)">
      <path id="Path_2814" data-name="Path 2814" d="M2989.779,1224.625,2848.835,1135.4c-8.643-4.99-15.649-18.377-15.649-29.9V803.875c0-11.524,7.006-16.821,15.649-11.831l144.287,83.3c8.644,4.99,15.651,18.378,15.651,29.9v300.2c0,7.583-2.363,8.975-7.133,11.729Z" transform="translate(-2818.257 -790.166)" fill="#8db0da"/>
      <path id="Path_2815" data-name="Path 2815" d="M2896.8,933.8s-68.125,183.222-68.125,171.7l-8.149-308.444,14.132-6.14c2.661-1.254,6.019-.98,9.667,1.126l144.289,83.3c4.22,2.436,8.05,6.875,10.865,12.121Z" transform="translate(-2813.748 -790.166)" fill="#a8c4e5"/>
      <path id="Path_2816" data-name="Path 2816" d="M2969.225,1228.913l-143.933-83.3c-8.643-4.99-15.3-18.378-15.3-29.9V814.081c0-11.524,6.824-16.822,15.467-11.832l143.853,83.305c8.644,4.99,15.215,18.377,15.215,29.9v301.627C2984.532,1228.607,2977.868,1233.9,2969.225,1228.913Z" transform="translate(-2809.997 -793.801)" fill="#45446c"/>
      <path id="Path_2817" data-name="Path 2817" d="M3093.053,1011.447v17.228c0,1.2.716,1.756,1.615,1.236l-.215-.147c.9-.519,1.166-1.926,1.166-3.124v-17.229c0-1.2-.276-1.755-1.175-1.236l-.006.148A3.743,3.743,0,0,0,3093.053,1011.447Z" transform="translate(-2910.818 -867.748)" fill="#45446c"/>
      <path id="Path_2818" data-name="Path 2818" d="M3093.053,1058.292v17.228c0,1.2.716,1.756,1.615,1.236l-.215-.147c.9-.52,1.166-1.926,1.166-3.125v-17.229c0-1.2-.276-1.755-1.175-1.236l-.006.148A3.744,3.744,0,0,0,3093.053,1058.292Z" transform="translate(-2910.818 -884.434)" fill="#45446c"/>
      <path id="Path_2819" data-name="Path 2819" d="M2972.173,1195.316l-140.336-81.023a4.717,4.717,0,0,1-2.359-4.085V855.486a4.718,4.718,0,0,1,7.077-4.085l140.336,81.023a4.717,4.717,0,0,1,2.359,4.085v254.722A4.717,4.717,0,0,1,2972.173,1195.316Z" transform="translate(-2816.936 -811.749)" fill="#97cbff"/>
      <ellipse id="Ellipse_161" data-name="Ellipse 161" cx="11.784" cy="20.411" rx="11.784" ry="20.411" transform="translate(56.229 350.812) rotate(-30.311)" fill="#565682"/>
      <path id="Path_2820" data-name="Path 2820" d="M2958.585,899.724l-44.507-25.7a6.827,6.827,0,0,1-2.839-5.425h0c0-2.082,1.279-3.048,2.839-2.146l44.507,25.7a6.824,6.824,0,0,1,2.839,5.425h0C2961.424,899.66,2960.147,900.626,2958.585,899.724Z" transform="translate(-2846.058 -817.219)" fill="#565682"/>
    </g>
    <g id="Group_1459" data-name="Group 1459" transform="translate(1466.167 1997.328)">
      <ellipse id="Ellipse_162" data-name="Ellipse 162" cx="31.892" cy="18.412" rx="31.892" ry="18.412" transform="translate(0.696 174.745) rotate(-0.311)" fill="#a8c4e5" opacity="0.4" style="mix-blend-mode: multiply;isolation: isolate"/>
      <path id="Path_2821" data-name="Path 2821" d="M2673.35,1096.768a7.725,7.725,0,0,1,2.409-1.785,26.8,26.8,0,0,1,13.58-3.544" transform="translate(-2656.04 -1055.318)" fill="none" stroke="#bc4073" stroke-miterlimit="10" stroke-width="1.314"/>
      <path id="Path_2822" data-name="Path 2822" d="M2734.312,1121.755c-1.589,12.749-8.9,23.375-15.218,22.846" transform="translate(-2672.334 -1066.122)" fill="none" stroke="#ffaa82" stroke-miterlimit="10" stroke-width="3.941"/>
      <path id="Path_2823" data-name="Path 2823" d="M2711.154,1096.037a206.883,206.883,0,0,0,5.8,37.712" transform="translate(-2669.506 -1056.962)" fill="none" stroke="#91b8db" stroke-miterlimit="10" stroke-width="5.254"/>
      <g id="Group_1454" data-name="Group 1454" transform="translate(28.373 171.516)">
        <path id="Path_2824" data-name="Path 2824" d="M2694.276,1327.421l.638-.333a.747.747,0,0,0,.314-1.006h0a.747.747,0,0,0-1.005-.316l-.638.334a.749.749,0,0,0-.316,1.005h0A.749.749,0,0,0,2694.276,1327.421Z" transform="translate(-2691.479 -1310.274)" fill="#514677"/>
        <path id="Path_2825" data-name="Path 2825" d="M2695.675,1324.517v-3.379a.747.747,0,0,0-.745-.745h0a.748.748,0,0,0-.746.746v3.378a.748.748,0,0,0,.746.745h0A.747.747,0,0,0,2695.675,1324.517Z" transform="translate(-2691.835 -1308.389)" fill="#423a66"/>
        <g id="Group_1453" data-name="Group 1453">
          <path id="Path_2826" data-name="Path 2826" d="M2690.656,1309.042c.755,3.833,1.586,9.528,1.586,9.528l1.388.266-.219-3.984c.167-.594,1.186.052,1.616.681,2.553,3.722.922,6.058,3.423,7.771,0,0,5.817,2.641,11.671,1.555,0,0,2.754-1.023,1.568-2.7-2.335-3.307-10.954-12.5-12.638-14.667l-.458-.146-3.084-4.948c-1.164-.336-3.337,1.4-4.164,2.99A4.2,4.2,0,0,0,2690.656,1309.042Z" transform="translate(-2690.534 -1301.963)" fill="#424268"/>
          <path id="Path_2827" data-name="Path 2827" d="M2697.244,1301.754l2.592,2.147s6.5,10.18,7.731,12.215c1.428,2.362-7.12,6.432-13-7.467C2690.287,1301.31,2697.244,1301.754,2697.244,1301.754Z" transform="translate(-2691.476 -1301.749)" fill="#ef9a78"/>
        </g>
      </g>
      <path id="Path_2828" data-name="Path 2828" d="M2707.389,1178.1c.712,46.656-2.812,65.365-5.867,83.408" transform="translate(-2666.075 -1086.19)" fill="none" stroke="#ef9a78" stroke-miterlimit="10" stroke-width="5.254"/>
      <path id="Path_2829" data-name="Path 2829" d="M2687.761,1190.355c-1.915,33.6-4.085,58.919-4.085,82.881" transform="translate(-2659.719 -1090.556)" fill="none" stroke="#ffaa82" stroke-miterlimit="10" stroke-width="5.254"/>
      <path id="Path_2830" data-name="Path 2830" d="M2666.727,1179.075c1.029,14.261,10.15,15.7,19.356,10.384s14.327-17.412,14.327-28.042c0,0-5.12-15.768-14.327-10.453S2665.531,1162.515,2666.727,1179.075Z" transform="translate(-2653.65 -1076.136)" fill="#bc4073"/>
      <path id="Path_2831" data-name="Path 2831" d="M2696.659,1103.711s6.1,9.58,5.4,15.36c-.444,3.678-3.1,7.813-3.484,8.99-3.171,9.636-1.419,12.554-1.761,15.221,0,0-2.115,9.164-24.739.5l-9.5-27.915Z" transform="translate(-2652.203 -1059.695)" fill="#d0e7f4"/>
      <path id="Path_2832" data-name="Path 2832" d="M2663.937,1117.223a3.009,3.009,0,0,1-1.038-1.874c-.576-4.976-3.312-7.237,2.1-15.756.869-1.369,12.713-7.508,21.615-9.116a9.486,9.486,0,0,1,10.321,5.646,49.628,49.628,0,0,1,2,7.009c.423,9.139-3.624-2.86-4.267,2.186.021-.122.053-.246.071-.367,0,0-1.1,8.524-1.94,15.124-.517,4.117-.885,7.1-.918,7.513,0,.019,0,.046,0,.051l-15.437,12.171-8.125-14.67h0Z" transform="translate(-2651.89 -1054.929)" fill="#d0e7f4"/>
      <path id="Path_2833" data-name="Path 2833" d="M2690.1,1090.356s7.717,7.969,1.024,13.618-18.09-6.976-18.09-6.976C2679.016,1093.252,2684.768,1090.709,2690.1,1090.356Z" transform="translate(-2655.927 -1054.938)" fill="#ffaa82"/>
      <path id="Path_2834" data-name="Path 2834" d="M2700.567,1167.805l3.1,49.289a3.628,3.628,0,0,1-.557,1.907c-2.276,3.659-6.475,16.087-29.426,10.7-2.646-.62-3.647-.889-3.528-3.194l-3.075-41.986,13.672-.179Z" transform="translate(-2653.806 -1082.525)" fill="#bc4073"/>
      <path id="Path_2835" data-name="Path 2835" d="M2691.8,1086.881l3.058-13.944-9.434,2.646-2.53,10.863C2681.884,1089.688,2689.391,1093.99,2691.8,1086.881Z" transform="translate(-2659.406 -1048.733)" fill="#ffaa82"/>
      <g id="Group_1456" data-name="Group 1456" transform="translate(17.379 177.436)">
        <path id="Path_2836" data-name="Path 2836" d="M2677.2,1336.617l.638-.334a.747.747,0,0,0,.315-1.005h0a.748.748,0,0,0-1.006-.315l-.637.333a.748.748,0,0,0-.316,1.006h0A.748.748,0,0,0,2677.2,1336.617Z" transform="translate(-2674.402 -1319.47)" fill="#514677"/>
        <path id="Path_2837" data-name="Path 2837" d="M2678.6,1333.712v-3.378a.747.747,0,0,0-.745-.746h0a.747.747,0,0,0-.745.746v3.378a.747.747,0,0,0,.745.746h0A.747.747,0,0,0,2678.6,1333.712Z" transform="translate(-2674.758 -1317.585)" fill="#423a66"/>
        <g id="Group_1455" data-name="Group 1455">
          <path id="Path_2838" data-name="Path 2838" d="M2673.579,1318.238c.754,3.832,1.585,9.528,1.585,9.528l1.389.266-.22-3.985c.167-.593,1.186.052,1.616.681,2.553,3.722.921,6.059,3.423,7.771,0,0,5.817,2.642,11.67,1.555,0,0,2.755-1.024,1.568-2.7-2.336-3.306-10.953-12.5-12.637-14.667l-.458-.145-3.084-4.948c-1.165-.335-3.338,1.4-4.165,2.991A4.2,4.2,0,0,0,2673.579,1318.238Z" transform="translate(-2673.457 -1311.159)" fill="#424268"/>
          <path id="Path_2839" data-name="Path 2839" d="M2680.167,1310.95l2.592,2.147s6.5,10.18,7.731,12.214c1.428,2.362-7.12,6.432-13-7.467C2673.21,1310.506,2680.167,1310.95,2680.167,1310.95Z" transform="translate(-2674.399 -1310.945)" fill="#ffaa82"/>
        </g>
      </g>
      <path id="Path_2840" data-name="Path 2840" d="M2668.289,1128.067a28.585,28.585,0,0,0,3.125,5.255,13.952,13.952,0,0,0,14.545,5.283,87.945,87.945,0,0,0,16.208-6.011s-3.485,11.19-2.269,17.711c.563,3.023.158,2.464.158,2.464-.171,2.89-4.936,2.1-4.936,2.1-10.189,3.165-21.439-2.408-21.439-2.408l-6.6-19.318Z" transform="translate(-2653.806 -1068.37)" fill="#a8c4e5"/>
      <path id="Path_2841" data-name="Path 2841" d="M2703.7,1164.331h0a1.8,1.8,0,0,1-.665,1.747c-1.917,1.494-7.046,4.676-15.107,3.8-6.9-.747-10.941-2.261-12.885-3.2a1.8,1.8,0,0,1-.918-2.246l.2-.535a1.8,1.8,0,0,1,2.381-1.042c3.648,1.535,12.334,4.688,18.432,2.86a20.582,20.582,0,0,0,5.781-2.542A1.794,1.794,0,0,1,2703.7,1164.331Z" transform="translate(-2656.276 -1080.711)" fill="#46466b"/>
      <path id="Path_2842" data-name="Path 2842" d="M2700.9,1171.78l3.911-.772a3.031,3.031,0,0,0,2.363-2.829h0a1.891,1.891,0,0,0-2.363-1.9l-3.911.773a3.031,3.031,0,0,0-2.363,2.829h0A1.889,1.889,0,0,0,2700.9,1171.78Z" transform="translate(-2665.011 -1081.965)" fill="#fff"/>
      <path id="Path_2843" data-name="Path 2843" d="M2691.893,1092.06c-.029.842,2.125,8.945,1.628,9.939a4.766,4.766,0,0,1-1.468,1.636,8.885,8.885,0,0,1-9.741.425c-1.259-.78-4.771-2.97-5.293-3.269-1.344-.77-2.153-2.211-3.343-3.2" transform="translate(-2656.156 -1055.545)" fill="none" stroke="#bc4073" stroke-miterlimit="10" stroke-width="1.314"/>
      <path id="Path_2844" data-name="Path 2844" d="M2711.487,1051.108c.539,4.359,4.242,8.084,3.882,12.462a3.434,3.434,0,0,1-.363,1.38,6.651,6.651,0,0,1-.737.963,6.939,6.939,0,0,0-1.52,4.936" transform="translate(-2669.624 -1040.959)" fill="none" stroke="#915151" stroke-miterlimit="10" stroke-width="1.314"/>
      <circle id="Ellipse_163" data-name="Ellipse 163" cx="8.906" cy="8.906" r="8.906" transform="translate(5.87 10.779) rotate(-37.238)" fill="#915151"/>
      <rect id="Rectangle_447" data-name="Rectangle 447" width="19.906" height="32.228" rx="9.953" transform="translate(43.354 36.948) rotate(-178.088)" fill="#ffaa82"/>
      <path id="Path_2845" data-name="Path 2845" d="M2685.246,1053.557c3.5-4.324,9.982.831,13.479-.519,3.793-1.464,2.5-5.362-.069-8.51a14.321,14.321,0,0,0-6.644-4.44c-9.818-3.711-19.669.442-20.04,11.546,0,0-.9,15.211,7.966,17.455l.574-2.225s-3.193-4.536,2.235-7.816c1.268-.767.237-1.29.121-3.136C2682.752,1054.044,2684.069,1055.011,2685.246,1053.557Z" transform="translate(-2655.541 -1036.561)" fill="#915151"/>
      <path id="Path_2846" data-name="Path 2846" d="M2679.79,1075.534a2.023,2.023,0,0,0,3.457-.867,4.854,4.854,0,0,0-1.442-4.939,2.022,2.022,0,0,0-3.456.867A4.855,4.855,0,0,0,2679.79,1075.534Z" transform="translate(-2657.749 -1047.361)" fill="#ffaa82"/>
      <path id="Path_2847" data-name="Path 2847" d="M2706.946,1078.714l-5.216,2.234a.52.52,0,0,0-.316.547c.12.829.708,2.582,3.555,1.565a4.424,4.424,0,0,0,2.708-3.8A.526.526,0,0,0,2706.946,1078.714Z" transform="translate(-2666.034 -1050.776)" fill="#fff"/>
      <path id="Path_2848" data-name="Path 2848" d="M2699.845,1072.992c0,.651.263,1.18.584,1.18s.584-.529.584-1.18-.261-1.179-.584-1.179S2699.845,1072.341,2699.845,1072.992Z" transform="translate(-2665.478 -1048.333)" fill="#492817"/>
      <path id="Path_2849" data-name="Path 2849" d="M2710.247,1068.854c0,.652.261,1.179.584,1.179s.585-.528.585-1.179-.262-1.18-.585-1.18S2710.247,1068.2,2710.247,1068.854Z" transform="translate(-2669.183 -1046.859)" fill="#492817"/>
      <g id="Group_1457" data-name="Group 1457" transform="translate(30.099 20.235)">
        <path id="Path_2850" data-name="Path 2850" d="M2697.714,1068.043a5.5,5.5,0,0,0-3.422,1.537c-.566.592-1.462-.306-.9-.9a6.76,6.76,0,0,1,4.318-1.909.635.635,0,0,1,0,1.269Z" transform="translate(-2693.215 -1066.774)" fill="#915151"/>
      </g>
      <g id="Group_1458" data-name="Group 1458" transform="translate(38.473 16.996)">
        <path id="Path_2851" data-name="Path 2851" d="M2710.865,1063.017a5.5,5.5,0,0,0-3.543,1.238c-.606.544-1.506-.35-.9-.9a6.763,6.763,0,0,1,4.44-1.61c.812.046.817,1.314,0,1.269Z" transform="translate(-2706.222 -1061.742)" fill="#915151"/>
      </g>
      <path id="Path_2852" data-name="Path 2852" d="M2686.367,1058.72c-.019,3.552-.821,10.781-2.879,13.676-1.411,1.983-3.761,3.655-3.725,6.09.023,1.459.956,2.8.914,4.26" transform="translate(-2658.325 -1043.67)" fill="none" stroke="#915151" stroke-miterlimit="10" stroke-width="1.314"/>
      <path id="Path_2853" data-name="Path 2853" d="M2658.366,1113.514l-8.7,14.57a18.278,18.278,0,0,0,1.188,20.62c3.8,4.854,6.727,7.623,11.772,15.2" transform="translate(-2646.668 -1063.187)" fill="none" stroke="#ffaa82" stroke-miterlimit="10" stroke-width="3.941"/>
      <path id="Path_2854" data-name="Path 2854" d="M2660.789,1111.294c-11.3,14.686-19.366,18.454-10.639,34.946" transform="translate(-2646.464 -1062.396)" fill="none" stroke="#d0e7f4" stroke-miterlimit="10" stroke-width="5.254"/>
      <path id="Path_2855" data-name="Path 2855" d="M2666.131,1198.859h0a5,5,0,0,0,5.464-4.451l.524-5.12a5,5,0,0,0-4.451-5.465h0a5,5,0,0,0-5.464,4.451l-.524,5.121A5,5,0,0,0,2666.131,1198.859Z" transform="translate(-2651.874 -1088.22)" fill="#ffaa82"/>
      <path id="Path_2856" data-name="Path 2856" d="M2695.048,1091.162a11.854,11.854,0,0,1-5.027-1.814s1.77,3.073,4.307,3.948Z" transform="translate(-2661.978 -1054.579)" fill="#ea8a6c"/>
      <path id="Path_2857" data-name="Path 2857" d="M2765.508,1102.509c-1.259,2.237-1.346,4.576-.193,5.224s3.106-.64,4.365-2.876,1.345-4.575.194-5.224S2766.767,1100.273,2765.508,1102.509Z" transform="translate(-2688.509 -1058.183)" fill="#8585ff"/>
      <path id="Rectangle_448" data-name="Rectangle 448" d="M3.709,0h0A3.708,3.708,0,0,1,7.417,3.708V20.162A3.708,3.708,0,0,1,3.709,23.87h0A3.709,3.709,0,0,1,0,20.162V3.709A3.709,3.709,0,0,1,3.709,0Z" transform="translate(55.617 37.328) rotate(-2.598)" fill="#45446c"/>
      <rect id="Rectangle_449" data-name="Rectangle 449" width="8.744" height="14.685" rx="4.372" transform="translate(59.778 43.51)" fill="#ffaa82"/>
      <rect id="Rectangle_450" data-name="Rectangle 450" width="4.372" height="4.536" rx="2.186" transform="translate(54.178 47.5)" fill="#ffaa82"/>
      <path id="Path_2858" data-name="Path 2858" d="M2733.3,1087.953c-.15-.114-4.9-2.5-5.089-2.551a2.2,2.2,0,0,0-2.3-.016,7.027,7.027,0,0,0-3.663,5.2c-.115,1.268.373,2.113,1.206,2.355.151.114,4.9,2.5,5.089,2.551a2.2,2.2,0,0,0,2.3.015,7.027,7.027,0,0,0,3.663-5.2C2734.62,1089.04,2734.133,1088.195,2733.3,1087.953Z" transform="translate(-2673.45 -1053.057)" fill="#ef487c"/>
      <path id="Path_2859" data-name="Path 2859" d="M2734.18,1088.3c-.149-.114-4.9-2.5-5.088-2.552a2.205,2.205,0,0,0-2.3-.015,7.027,7.027,0,0,0-3.663,5.2c-.115,1.268.373,2.113,1.206,2.355.15.115,4.9,2.5,5.089,2.552a2.2,2.2,0,0,0,2.3.015,7.027,7.027,0,0,0,3.664-5.2C2735.5,1089.387,2735.014,1088.542,2734.18,1088.3Z" transform="translate(-2673.763 -1053.18)" fill="#d84177"/>
      <path id="Path_2860" data-name="Path 2860" d="M2741.024,1089.41c-.223-.169-7.249-3.693-7.527-3.775a3.256,3.256,0,0,0-3.4-.022,10.394,10.394,0,0,0-5.419,7.686c-.169,1.876.551,3.126,1.785,3.484.221.169,7.247,3.693,7.527,3.774a3.256,3.256,0,0,0,3.405.022,10.4,10.4,0,0,0,5.418-7.686C2742.98,1091.017,2742.258,1089.768,2741.024,1089.41Z" transform="translate(-2674.312 -1053.084)" fill="#ef487c"/>
      <path id="Path_2861" data-name="Path 2861" d="M2726.875,1090.268a9.328,9.328,0,0,0-1.5,4.056c-.17,1.875.551,3.125,1.784,3.483.223.169,7.25,3.693,7.528,3.774a3.256,3.256,0,0,0,3.406.022,8.36,8.36,0,0,0,4.408-4.471Z" transform="translate(-2674.563 -1054.907)" fill="#d84177"/>
      <path id="Path_2862" data-name="Path 2862" d="M2745.141,1091.608l19.807,1.417-13.971,26.041-14.79-17.653C2736.951,1095.789,2740.766,1090.431,2745.141,1091.608Z" transform="translate(-2678.422 -1055.326)" fill="#dcf1ff"/>
      <path id="Path_2863" data-name="Path 2863" d="M2759.432,1105.154l-7.828,13.93s-15.167-16.88-15.078-17.291a14.975,14.975,0,0,1,2.57-5.792Z" transform="translate(-2678.542 -1056.949)" fill="#d0e7f4"/>
      <ellipse id="Ellipse_164" data-name="Ellipse 164" cx="15.055" cy="8.692" rx="15.055" ry="8.692" transform="translate(63.943 59.441) rotate(-62.591)" fill="#ef487c"/>
      <ellipse id="Ellipse_165" data-name="Ellipse 165" cx="15.055" cy="8.692" rx="15.055" ry="8.692" transform="matrix(0.46, -0.888, 0.888, 0.46, 65.972, 60.599)" fill="#d84177"/>
      <ellipse id="Ellipse_166" data-name="Ellipse 166" cx="13.961" cy="8.06" rx="13.961" ry="8.06" transform="translate(66.233 59.288) rotate(-62.59)" fill="#fff"/>
      <path id="Path_2864" data-name="Path 2864" d="M2760.56,1101.568a19.708,19.708,0,0,1,5.833-6.142c5.3-3.391,9.835-1.042,10.119,5.247.082,1.8.01,3.827-1.593,8.023C2772.662,1101.609,2766.463,1100.288,2760.56,1101.568Z" transform="translate(-2687.104 -1056.191)" fill="#dcf1ff"/>
      <path id="Path_2865" data-name="Path 2865" d="M2756.822,1111.961a9.387,9.387,0,0,1,4.319-7.649,3.584,3.584,0,0,1,3.173-.5h0l.037.017c.038.017.075.033.111.052l3.131,1.459a2.243,2.243,0,0,1,.359.167h0a3.025,3.025,0,0,1,1.327,2.632,9.387,9.387,0,0,1-4.318,7.651,3.622,3.622,0,0,1-3.125.515h0l-.006,0a2.2,2.2,0,0,1-.27-.128l-2.882-1.362a2.283,2.283,0,0,1-.689-.326h0A3.119,3.119,0,0,1,2756.822,1111.961Z" transform="translate(-2685.77 -1059.666)" fill="#d0e7f4"/>
      <path id="Path_2866" data-name="Path 2866" d="M2762.132,1099.77c.036.017,5.213,2.692,5.213,2.692a2.07,2.07,0,0,1,.332.168h0a3.125,3.125,0,0,1,1.233,2.637,9.5,9.5,0,0,1-3.959,7.634,3.117,3.117,0,0,1-2.882.5h0l-.005,0a1.966,1.966,0,0,1-.249-.129s-5.313-2.824-5.506-2.971A22.887,22.887,0,0,1,2762.132,1099.77Z" transform="translate(-2685.589 -1058.291)" fill="#6d64ff"/>
      <path id="Path_2867" data-name="Path 2867" d="M2756.31,1110.3a17.361,17.361,0,0,1,2.4-6.084,20.648,20.648,0,0,1,3.424-4.45l.966.5a22.264,22.264,0,0,0-5.515,10.743Z" transform="translate(-2685.589 -1058.291)" fill="#5555e5"/>
      <path id="Path_2868" data-name="Path 2868" d="M2747.049,1092.36l12.049.916-3.491,2.875-9.974-2.266Z" transform="translate(-2681.786 -1055.652)" fill="#fff"/>
      <path id="Path_2869" data-name="Path 2869" d="M2732.811,1087.086l6.283,3.309,1.6-1.01-6.4-3.245Z" transform="translate(-2677.22 -1053.437)" fill="#fff" opacity="0.43"/>
    </g>
    <path id="Path_2870" data-name="Path 2870" d="M3021.357,1000.883l-25.1-14.565a2.308,2.308,0,0,0-2.59-.13v0l-4.219,2.4a34.527,34.527,0,0,0,2.932,5.469v22.721c0,2.883,1.7,6.232,3.862,7.48l20.457,11.83c1.912,3.217,3.236,5.323,3.236,5.323l3.993-2.285v-.006a3.879,3.879,0,0,0,1.287-3.255v-27.493C3025.212,1005.48,3023.519,1002.131,3021.357,1000.883Z" transform="translate(-1302.463 979.613)" fill="#7878ea"/>
    <path id="Path_2871" data-name="Path 2871" d="M3016.237,1042.747l-25.228-14.565c-2.162-1.249-3.915-4.6-3.915-7.48V993.209c0-2.882,1.752-4.208,3.915-2.959l25.228,14.565c2.162,1.248,3.915,4.6,3.915,7.48v27.493C3020.151,1042.671,3018.4,1044,3016.237,1042.747Z" transform="translate(-1301.625 978.214)" fill="#8585ff"/>
    <path id="Path_2872" data-name="Path 2872" d="M3011.082,1044.983l-25.228-14.565c-2.162-1.248-3.914-4.6-3.914-7.48V995.445c0-2.883,1.752-4.208,3.914-2.959l25.228,14.565c2.163,1.248,3.915,4.6,3.915,7.48v27.493C3015,1044.906,3013.245,1046.232,3011.082,1044.983Z" transform="translate(-1299.79 977.418)" fill="#8585ff" opacity="0.47"/>
    <path id="Path_2873" data-name="Path 2873" d="M2883.042,921.3,2857.8,906.734a2.462,2.462,0,0,0-2.681-.13l-.023,0-4,2.4a56.265,56.265,0,0,0,3.154,5.469v22.721c0,2.883,1.51,6.232,3.672,7.479l20.361,11.83c1.912,3.218,3.057,5.323,3.057,5.323l3.813-2.285v-.006c1.288-.413,1.931-1.563,1.931-3.255V928.779A9.487,9.487,0,0,0,2883.042,921.3Z" transform="translate(-1253.185 1007.96)" fill="#22c6a6"/>
    <path id="Path_2874" data-name="Path 2874" d="M2877.645,963.163,2852.417,948.6c-2.162-1.248-3.915-4.6-3.915-7.48V913.625c0-2.883,1.753-4.208,3.915-2.96l25.228,14.565c2.162,1.248,3.915,4.6,3.915,7.48V960.2C2881.559,963.086,2879.806,964.411,2877.645,963.163Z" transform="translate(-1252.26 1006.561)" fill="#27e0c0"/>
    <path id="Path_2875" data-name="Path 2875" d="M2871.208,965.028l-25.228-14.565c-2.163-1.248-3.915-4.6-3.915-7.48V915.49c0-2.883,1.752-4.208,3.915-2.959l25.228,14.565c2.162,1.249,3.914,4.6,3.914,7.48v27.493C2875.122,964.951,2873.37,966.276,2871.208,965.028Z" transform="translate(-1249.968 1005.896)" fill="#99ffeb" opacity="0.36"/>
    <path id="Path_2876" data-name="Path 2876" d="M2952.139,960.528l-25.152-14.566a2.385,2.385,0,0,0-2.636-.129v0l-4.486,2.4a22.822,22.822,0,0,0,2.663,5.469v22.721a9.608,9.608,0,0,0,4.174,7.48l20.612,11.83a46.847,46.847,0,0,0,3.646,5.323l4.4-2.286v-.007c.644-.413.644-1.562.644-3.255V968.007C2956.005,965.124,2954.3,961.775,2952.139,960.528Z" transform="translate(-1277.678 993.987)" fill="#f1a32f"/>
    <path id="Path_2877" data-name="Path 2877" d="M2947.2,1002.392l-25.228-14.565c-2.161-1.249-3.915-4.6-3.915-7.48V952.854c0-2.883,1.753-4.208,3.915-2.959l25.228,14.565c2.162,1.248,3.915,4.6,3.915,7.48v27.493C2951.119,1002.315,2949.367,1003.64,2947.2,1002.392Z" transform="translate(-1277.036 992.588)" fill="#ffd22d"/>
    <path id="Path_2878" data-name="Path 2878" d="M2941.7,1005.963,2916.473,991.4c-2.162-1.248-3.914-4.6-3.914-7.48V956.424c0-2.883,1.752-4.208,3.914-2.959L2941.7,968.03c2.162,1.249,3.916,4.6,3.916,7.48V1003C2945.615,1005.886,2943.862,1007.211,2941.7,1005.963Z" transform="translate(-1275.077 991.316)" fill="#fff2c7" opacity="0.36"/>
    <path id="Path_2879" data-name="Path 2879" d="M3021.357,1094.03l-25.1-14.565a2.309,2.309,0,0,0-2.59-.13v0l-4.219,2.4a34.527,34.527,0,0,0,2.932,5.469v22.721c0,2.883,1.7,6.232,3.862,7.481l20.457,11.829c1.912,3.218,3.236,5.323,3.236,5.323l3.993-2.286v-.006a3.878,3.878,0,0,0,1.287-3.255V1101.51C3025.212,1098.627,3023.519,1095.278,3021.357,1094.03Z" transform="translate(-1302.463 946.436)" fill="#22c6a6"/>
    <path id="Path_2880" data-name="Path 2880" d="M3016.237,1135.895l-25.228-14.566c-2.162-1.248-3.915-4.6-3.915-7.479v-27.493c0-2.883,1.752-4.208,3.915-2.96l25.228,14.565c2.162,1.248,3.915,4.6,3.915,7.48v27.494C3020.151,1135.817,3018.4,1137.143,3016.237,1135.895Z" transform="translate(-1301.625 945.036)" fill="#27e0c0"/>
    <path id="Path_2881" data-name="Path 2881" d="M2883.042,1014.446,2857.8,999.881a2.461,2.461,0,0,0-2.681-.13l-.023,0-4,2.4a56.166,56.166,0,0,0,3.154,5.469v22.721c0,2.883,1.51,6.232,3.672,7.48l20.361,11.83c1.912,3.218,3.057,5.323,3.057,5.323l3.813-2.286v-.006c1.288-.414,1.931-1.563,1.931-3.256v-27.493A9.488,9.488,0,0,0,2883.042,1014.446Z" transform="translate(-1253.185 974.783)" fill="#7878ea"/>
    <path id="Path_2882" data-name="Path 2882" d="M2877.645,1056.31l-25.228-14.565c-2.162-1.248-3.915-4.6-3.915-7.48v-27.494c0-2.882,1.753-4.208,3.915-2.96l25.228,14.565c2.162,1.249,3.915,4.6,3.915,7.48v27.493C2881.559,1056.233,2879.806,1057.558,2877.645,1056.31Z" transform="translate(-1252.26 973.383)" fill="#8585ff"/>
    <path id="Path_2883" data-name="Path 2883" d="M2871.208,1058.175l-25.228-14.565c-2.163-1.249-3.915-4.6-3.915-7.48v-27.494c0-2.883,1.752-4.208,3.915-2.959l25.228,14.565c2.162,1.249,3.914,4.6,3.914,7.48v27.494C2875.122,1058.1,2873.37,1059.423,2871.208,1058.175Z" transform="translate(-1249.968 972.719)" fill="#8585ff" opacity="0.47"/>
    <path id="Path_2884" data-name="Path 2884" d="M2952.29,1053.675l-25.161-14.565a2.4,2.4,0,0,0-2.641-.13l0,0-4.247,2.4s1.377,2.512,2.9,5.469v22.721c0,2.883,1.772,6.231,3.935,7.48l20.492,11.83,3.164,5.323,3.919-2.285v-.007c1.017-.413,1.525-1.562,1.525-3.255v-27.493C2956.174,1058.271,2954.451,1054.922,2952.29,1053.675Z" transform="translate(-1277.812 960.809)" fill="#bc4073"/>
    <path id="Path_2885" data-name="Path 2885" d="M2947.2,1095.539l-25.228-14.565c-2.161-1.249-3.915-4.6-3.915-7.479V1046c0-2.883,1.753-4.208,3.915-2.959l25.228,14.565c2.162,1.249,3.915,4.6,3.915,7.48v27.493C2951.119,1095.462,2949.367,1096.787,2947.2,1095.539Z" transform="translate(-1277.036 959.41)" fill="#ef487c"/>
    <path id="Path_2886" data-name="Path 2886" d="M2941.7,1099.11l-25.227-14.565c-2.162-1.249-3.914-4.6-3.914-7.48v-27.493c0-2.883,1.752-4.208,3.914-2.959l25.227,14.565c2.162,1.248,3.916,4.6,3.916,7.48v27.493C2945.615,1099.033,2943.862,1100.359,2941.7,1099.11Z" transform="translate(-1275.077 958.138)" fill="#fce3ee" opacity="0.52"/>
    <path id="Path_2887" data-name="Path 2887" d="M2869.108,1373.91l-50.582,34.481a4.523,4.523,0,0,0,5.024,7.523l54.2-37Z" transform="translate(-1240.869 841.392)" fill="#a8c4e5" opacity="0.4" style="mix-blend-mode: multiply;isolation: isolate"/>
    <path id="Path_2888" data-name="Path 2888" d="M2815.409,1341.594l-10.3-4.984-49.772,33.087a4.523,4.523,0,1,0,5.024,7.523Z" transform="translate(-1218.362 854.677)" fill="#a8c4e5" opacity="0.4" style="mix-blend-mode: multiply;isolation: isolate"/>
    <path id="Path_2889" data-name="Path 2889" d="M2850.612,1120.534l-.335-.191a2.969,2.969,0,0,0-2.664-.164,4.568,4.568,0,0,0-2.466,3.164l-5.714,21.369-34.339-19.578,5.909-22.094c.672-2.517-.153-5.175-1.922-6.184l-.334-.191a2.961,2.961,0,0,0-2.662-.163,4.56,4.56,0,0,0-2.467,3.165l-6.735,25.188-.615,2.3h0l-8.02,29.99h0l-.175.652-8.5,31.777h0l-.652,2.438h0L2770.9,1222l0,0-.651,2.438h0l-8.021,29.99v0l-.651,2.437h0l-8.394,31.384c-.673,2.517.152,5.176,1.92,6.184l.334.191h0a3,3,0,0,0,1.491.4,3.031,3.031,0,0,0,1.172-.24,4.566,4.566,0,0,0,2.467-3.164l7.408-27.705,34.339,19.578-7.6,28.431c-.672,2.518.153,5.177,1.921,6.184l.334.19a2.985,2.985,0,0,0,1.49.4,3.033,3.033,0,0,0,1.171-.239,4.566,4.566,0,0,0,2.467-3.165l8.393-31.385h0l.006-.022,8.667-32.408h0l.652-2.438h0l16.871-63.086.475-1.773,0-.005,15.369-57.474C2853.205,1124.2,2852.38,1121.543,2850.612,1120.534Zm-71.536,101.893,6.246-23.358,34.338,19.578L2813.414,1242Zm8.672-32.431,6.246-23.357,34.339,19.577-6.246,23.358Zm8.673-32.431,6.247-23.357,34.339,19.579-6.247,23.357ZM2776.65,1231.5l34.338,19.579-6.246,23.357-34.339-19.578Z" transform="translate(-1218.226 940.286)" fill="#915151"/>
    <g id="Group_1470" data-name="Group 1470" transform="translate(1636.786 2064.392)">
      <path id="Path_2890" data-name="Path 2890" d="M3011.331,1195.353l-26.261-15.06a2.685,2.685,0,0,0-2.854-.134l-.066,0-4.556,2.478a51.308,51.308,0,0,1,2.837,5.655v23.491a9.83,9.83,0,0,0,4.2,7.735l21.255,12.231c1.976,3.326,3.3,5.5,3.3,5.5l4.081-2.363v-.008c.643-.426,2.575-1.615,2.575-3.365v-28.427A10.114,10.114,0,0,0,3011.331,1195.353Z" transform="translate(-2935.027 -1153.865)" fill="#7878ea"/>
      <path id="Path_2891" data-name="Path 2891" d="M3005.636,1238.639l-26.084-15.059c-2.235-1.291-4.048-4.754-4.048-7.734v-28.426c0-2.98,1.813-4.35,4.048-3.06l26.084,15.06c2.235,1.291,4.047,4.754,4.047,7.735v28.426C3009.683,1238.559,3007.871,1239.929,3005.636,1238.639Z" transform="translate(-2934.283 -1155.311)" fill="#8585ff"/>
      <g id="Group_1463" data-name="Group 1463" transform="translate(43.963 44.783)">
        <g id="Group_1460" data-name="Group 1460">
          <path id="Path_2892" data-name="Path 2892" d="M2986.452,1224.76l-6.689-11.538,7.284-4.153,1.407,2.466-4.8,2.737,5.255,9.064Z" transform="translate(-2979.762 -1209.069)" fill="#fff"/>
        </g>
        <g id="Group_1461" data-name="Group 1461" transform="translate(17.929 6.97)">
          <path id="Path_2893" data-name="Path 2893" d="M3009.611,1235.667l-1.407-2.467,4.73-2.7-5.325-9.185,2.456-1.424,6.76,11.658Z" transform="translate(-3007.61 -1219.895)" fill="#fff"/>
        </g>
        <g id="Group_1462" data-name="Group 1462" transform="translate(10.024 2.118)">
          <rect id="Rectangle_451" data-name="Rectangle 451" width="19.122" height="2.839" transform="matrix(0.261, -0.965, 0.965, 0.261, 0, 18.457)" fill="#fff"/>
        </g>
      </g>
      <path id="Path_2894" data-name="Path 2894" d="M3025.684,1236.522l-2.036,3.56a4.763,4.763,0,0,0,1.765,6.481h0a4.764,4.764,0,0,0,6.481-1.765l2.036-3.56a4.763,4.763,0,0,0-1.766-6.481h0A4.763,4.763,0,0,0,3025.684,1236.522Z" transform="translate(-2951.209 -1173.214)" fill="#ffaa82"/>
      <ellipse id="Ellipse_167" data-name="Ellipse 167" cx="18.315" cy="31.723" rx="18.315" ry="31.723" transform="translate(0 221.898) rotate(-89.689)" fill="#a8c4e5" opacity="0.4" style="mix-blend-mode: multiply;isolation: isolate"/>
      <path id="Path_2895" data-name="Path 2895" d="M2941.114,1440.611c-.231.2-3.669,1.927-3.885,2.115-.332.289-1.32,1.083-1.915,1.513-1.255.906-3.909,4.348-8.237,1.924-6.333-3.547,8.78-13.641,8.78-13.641l6.687-3.486a2.906,2.906,0,0,1,2.645,0h0a3.043,3.043,0,0,1,1.342,4.194C2945.072,1435.757,2944.99,1437.229,2941.114,1440.611Z" transform="translate(-2916.481 -1242.522)" fill="#15253d"/>
      <path id="Path_2896" data-name="Path 2896" d="M2940,1437.67c-.231.2-3.668,1.927-3.884,2.116-.332.289-1.319,1.084-1.915,1.514-1.255.906-3.909,4.347-8.237,1.923-6.333-3.546,8.781-13.64,8.781-13.64l6.686-3.486a2.908,2.908,0,0,1,2.646,0h0a3.043,3.043,0,0,1,1.341,4.194C2943.963,1432.816,2943.88,1434.289,2940,1437.67Z" transform="translate(-2916.087 -1241.475)" fill="#915350"/>
      <g id="Group_1465" data-name="Group 1465" transform="translate(27.79 7.583)">
        <path id="Path_2897" data-name="Path 2897" d="M2965.5,1157.709l.053,1.431s.188,4.313-4.057,2.083-4.113-7.611-4.113-7.611S2960.6,1153.233,2965.5,1157.709Z" transform="translate(-2955.616 -1152.113)" fill="#fff" opacity="0.46"/>
        <path id="Path_2898" data-name="Path 2898" d="M2961.011,1160.708c5.537,2.878,5.34-2.155,5.34-2.155l.045.021-.165-1.712c-6.175-5.306-10.1-5.052-10.1-5.052A9.3,9.3,0,0,0,2961.011,1160.708Zm-3.868-7.534s3.149-.166,7.879,3.949l.038,1.239s.145,3.738-3.973,1.6A7.707,7.707,0,0,1,2957.143,1153.174Z" transform="translate(-2955.163 -1151.474)" fill="#513554"/>
        <path id="Path_2899" data-name="Path 2899" d="M2973.317,1161.921l-3.292-1.5-.178-1.863,3.291,1.5Z" transform="translate(-2960.057 -1153.877)" fill="#513554"/>
        <path id="Path_2900" data-name="Path 2900" d="M2955.875,1153.055l-.583-.266a1.313,1.313,0,0,1-.646-.99h0c-.038-.4.188-.611.506-.465l.583.266a1.315,1.315,0,0,1,.646.99h0C2956.419,1152.992,2956.193,1153.2,2955.875,1153.055Z" transform="translate(-2954.642 -1151.288)" fill="#513554"/>
        <path id="Path_2901" data-name="Path 2901" d="M2988.939,1168.142l-.583-.267a1.31,1.31,0,0,1-.646-.99h0c-.039-.4.188-.611.506-.465l.583.266a1.316,1.316,0,0,1,.646.99h0C2989.483,1168.078,2989.256,1168.287,2988.939,1168.142Z" transform="translate(-2966.419 -1156.662)" fill="#513554"/>
        <g id="Group_1464" data-name="Group 1464" transform="translate(12.036 5.831)">
          <path id="Path_2902" data-name="Path 2902" d="M2975.376,1162.6l.222,1.468a8.023,8.023,0,0,0,4.7,5.966c4.064,1.569,2.877-4.254,2.877-4.254S2979.687,1162.389,2975.376,1162.6Z" transform="translate(-2974.063 -1161.145)" fill="#fff" opacity="0.46"/>
          <path id="Path_2903" data-name="Path 2903" d="M2983.351,1164.471s-4.337-4.025-10.014-4.126l.165,1.712.043.02a10.186,10.186,0,0,0,6.261,7.448C2985.271,1171.666,2983.351,1164.471,2983.351,1164.471Zm-3.779,4.164a7.567,7.567,0,0,1-4.656-5.535l-.206-1.316c4.336.022,7.808,3.208,7.808,3.208S2983.64,1170.228,2979.572,1168.635Z" transform="translate(-2973.337 -1160.345)" fill="#513554"/>
          <path id="Path_2904" data-name="Path 2904" d="M2976.891,1165.215h0c-.137-.165-.179-.373-.095-.466l.983-1.083c.084-.093.264-.036.4.128h0c.137.163.18.372.1.464l-.983,1.084C2977.208,1165.435,2977.028,1165.378,2976.891,1165.215Z" transform="translate(-2974.553 -1161.512)" fill="#fcfeff"/>
        </g>
        <path id="Path_2905" data-name="Path 2905" d="M2958.611,1156.513h0c-.137-.164-.179-.372-.1-.465l.983-1.083c.084-.093.264-.035.4.129h0c.137.164.18.372.1.465l-.983,1.083C2958.927,1156.734,2958.747,1156.677,2958.611,1156.513Z" transform="translate(-2956.006 -1152.582)" fill="#fcfeff"/>
      </g>
      <path id="Path_2906" data-name="Path 2906" d="M2977.534,1463.43c-.267.151-3.98,1.153-4.229,1.294-.382.217-1.509.8-2.179,1.1-1.411.636-4.7,3.477-8.455.235-5.494-4.743,11.334-11.605,11.334-11.605l7.249-2.076a2.908,2.908,0,0,1,2.591.53h0a3.044,3.044,0,0,1,.475,4.377C2982.384,1459.466,2982.009,1460.892,2977.534,1463.43Z" transform="translate(-2929.319 -1250.911)" fill="#15253d"/>
      <path id="Path_2907" data-name="Path 2907" d="M2977.038,1460.327c-.267.15-3.98,1.153-4.23,1.294-.382.217-1.509.8-2.179,1.1-1.41.636-4.7,3.477-8.455.235-5.494-4.743,11.334-11.605,11.334-11.605l7.249-2.076a2.909,2.909,0,0,1,2.591.529h0a3.044,3.044,0,0,1,.476,4.378C2981.888,1456.363,2981.512,1457.789,2977.038,1460.327Z" transform="translate(-2929.142 -1249.806)" fill="#915350"/>
      <path id="Path_2908" data-name="Path 2908" d="M2965.565,1328.093c9.925,28.477,2.96,69.94,3.353,82.344" transform="translate(-2930.742 -1206.681)" fill="none" stroke="#ceab8b" stroke-miterlimit="10" stroke-width="6.092"/>
      <path id="Path_2909" data-name="Path 2909" d="M2928.8,1307.5c3.618,12.837,4.89,29.535,6.079,42.819.2,2.244-3.888,32.526-3.769,40.787" transform="translate(-2917.648 -1199.345)" fill="none" stroke="#ceab8b" stroke-miterlimit="10" stroke-width="6.092"/>
      <g id="Group_1467" data-name="Group 1467" transform="translate(33.033 202.073)">
        <g id="Group_1466" data-name="Group 1466">
          <path id="Path_2910" data-name="Path 2910" d="M2972.418,1454.263c-2.494,2.178-7.666,1.876-9.607-.884-.031,1.521-.037,3.041,0,4.557.149,6.184,9.775,6.207,9.625,0C2972.406,1456.713,2972.4,1455.489,2972.418,1454.263Z" transform="translate(-2962.785 -1453.379)" fill="#e1eaf4"/>
        </g>
      </g>
      <path id="Path_2911" data-name="Path 2911" d="M2929.294,1317.714h0c1.087,1.218-3.582-4.707-2.184-3.862,2.91,1.758,19.245,12.857,22.645,12.914,4.106.067,1.713-3.9,4.769-6.645,2.9-2.6,3.584-6.83,3.866-10.716a6.736,6.736,0,0,0-.3-3.183,6.864,6.864,0,0,0-2.35-2.526c-7.257-5.493-21.532-19.088-31.671-14.74C2912.357,1293.979,2924.1,1311.885,2929.294,1317.714Z" transform="translate(-2914.173 -1192.44)" fill="#ceab8b"/>
      <path id="Path_2912" data-name="Path 2912" d="M2920.711,1196.677c-2.149,2.77-1.894,4.483-1.791,8.265a8.447,8.447,0,0,0,6.168,7.9l36.376,10.2s2.09-13.994-5.085-18.207c-3.864-2.269-9.86-5.9-14.57-8.766C2934.892,1191.856,2925.674,1190.278,2920.711,1196.677Z" transform="translate(-2914.105 -1158.343)" fill="#ffd22d"/>
      <path id="Path_2913" data-name="Path 2913" d="M2947.485,1190.73l3.078-13.713,8.363,5.629-2.518,12.484C2956.162,1197.158,2946.881,1195.388,2947.485,1190.73Z" transform="translate(-2924.293 -1152.87)" fill="#ffaa82"/>
      <path id="Path_2914" data-name="Path 2914" d="M2950.7,1145.306s-8.384-5.84-8.465,8.353a24.757,24.757,0,0,0,14.039,22.281c5.043,2.4,11.209-.675,11.487-5.591,1.2-7.171,1.219-13.874-1.134-19.644.334-5.928-3.744-3.819-10.793-4.2Z" transform="translate(-2922.434 -1141.151)" fill="#ffaa82"/>
      <path id="Path_2915" data-name="Path 2915" d="M2943.05,1171.21s-9.7-3.6-8.776-17.246c1-14.764,14.577-13.493,22.125-14.217,3.342-.32,5.666-.8,9.088,2.251,3.113,2.776.2,9.015-4.263,9.417-1.771.159-.96,4.928-1.317,6.564-.635,2.909-2.447,4.331-3.117,7.151-.635,2.668-4.57,6.85-7.127,7.146C2945.106,1172.8,2943.05,1171.21,2943.05,1171.21Z" transform="translate(-2919.575 -1139.51)" fill="#915151"/>
      <path id="Path_2916" data-name="Path 2916" d="M2917.925,1266.5c-2.316-.895-1.763-40.7.319-62.677l40.947,19.482c-.206,18.712-2.569,33.479-.328,56.281Z" transform="translate(-2913.238 -1162.418)" fill="#ffd22d"/>
      <path id="Path_2917" data-name="Path 2917" d="M2946.027,1315.382c-10.116-3.69-19.753-7.729-25.416-14.673-2.78-1.606-2.429-4.436.782-6.289h0c3.21-1.854,8.113-2.058,10.894-.452l25.415,14.673c2.78,1.606,2.429,4.436-.783,6.291h0C2953.71,1316.784,2948.807,1316.988,2946.027,1315.382Z" transform="translate(-2914.063 -1194.14)" fill="#ffd22d"/>
      <path id="Path_2918" data-name="Path 2918" d="M2963.731,1232.312l-6.748-3.211c-.277,18.241-2.511,32.893-.311,55.286l-.112-.036c.047,1.267-.853,2.614-2.656,3.655h0c-3.21,1.854-8.113,2.057-10.894.452a116.625,116.625,0,0,1-13.845-5.843c5.585,4.28,12.943,7.266,20.576,10.049,2.781,1.606,7.683,1.4,10.893-.451h0c1.8-1.041,2.7-2.388,2.656-3.655l.113.035C2961.161,1265.79,2963.525,1251.024,2963.731,1232.312Z" transform="translate(-2917.777 -1171.421)" fill="#f1a32f"/>
      <path id="Path_2919" data-name="Path 2919" d="M2958.9,1451.377l.107,4.263a.876.876,0,0,0,.169.5,7.775,7.775,0,0,0,7.777,2.973,17.4,17.4,0,0,0,7.044-2.579.883.883,0,0,0,.367-.807l-.4-4.34a.889.889,0,0,0-1.33-.695c-2.061,1.216-6.632,3.021-12.408-.115A.893.893,0,0,0,2958.9,1451.377Z" transform="translate(-2928.369 -1250.269)" fill="#e5c2a5"/>
      <g id="Group_1469" data-name="Group 1469" transform="translate(8.637 189.455)">
        <g id="Group_1468" data-name="Group 1468">
          <path id="Path_2920" data-name="Path 2920" d="M2934.526,1434.663c-2.5,2.178-7.666,1.876-9.608-.884-.031,1.521-.037,3.041,0,4.558.149,6.183,9.774,6.206,9.626,0C2934.513,1437.114,2934.511,1435.888,2934.526,1434.663Z" transform="translate(-2924.892 -1433.779)" fill="#e1eaf4"/>
        </g>
      </g>
      <path id="Path_2921" data-name="Path 2921" d="M2921.01,1431.778l.106,4.262a.871.871,0,0,0,.17.5,7.774,7.774,0,0,0,7.776,2.972,17.393,17.393,0,0,0,7.045-2.578.885.885,0,0,0,.367-.807l-.4-4.34a.889.889,0,0,0-1.33-.695c-2.061,1.216-6.632,3.022-12.407-.115A.893.893,0,0,0,2921.01,1431.778Z" transform="translate(-2914.873 -1243.288)" fill="#e5c2a5"/>
      <path id="Path_2922" data-name="Path 2922" d="M2981.859,1168.922l-12.513,1.2a.817.817,0,0,1-.887-.732h0a.816.816,0,0,1,.732-.887l12.512-1.2a.815.815,0,0,1,.887.732h0A.814.814,0,0,1,2981.859,1168.922Z" transform="translate(-2931.772 -1149.408)" fill="#513554"/>
      <path id="Path_2923" data-name="Path 2923" d="M2959.837,1202.084c-9.394-1.413-15.738,4.493-17.981-9.037h0a3,3,0,0,1,4.056.889c1.612,2.329,5.042,3.8,8.831,3.336a2.976,2.976,0,0,1,2.865,1.344Z" transform="translate(-2922.298 -1158.421)" fill="#ffde73"/>
      <path id="Path_2924" data-name="Path 2924" d="M2978.069,1226.341c1.066,14.343,2.88,16.676,9.04,29.287,5.612,11.49,17.625,6.718,24.222-14.465" transform="translate(-2935.196 -1170.437)" fill="none" stroke="#ffaa82" stroke-miterlimit="10" stroke-width="3.92"/>
      <path id="Path_2925" data-name="Path 2925" d="M2966.2,1222.353c2.29,19.362,8.394,31.676,16.852,37.939,4.447,2.462,8.608-4.557,6.908-8.794-8.422-7.489-11.379-19.166-12.18-32.5a6.1,6.1,0,0,0-7.237-3.384h0A5.7,5.7,0,0,0,2966.2,1222.353Z" transform="translate(-2930.916 -1166.543)" fill="#ffd22d"/>
      <path id="Path_2926" data-name="Path 2926" d="M2961.643,1175.625c-.467.342-1.5,10.216,6.8,8.618s6.628-9.9,6.628-9.9-6.59,1.714-8.416-6.462S2961.643,1175.625,2961.643,1175.625Z" transform="translate(-2929.235 -1148.782)" fill="#aa6868"/>
      <path id="Path_2927" data-name="Path 2927" d="M2969.441,1172.664c.2,2.335-.994,4.344-2.666,4.488a2.182,2.182,0,0,1-.542-.02c-1.448-.232-2.672-1.868-2.851-3.948-.2-2.335.994-4.344,2.667-4.488S2969.241,1170.329,2969.441,1172.664Z" transform="translate(-2929.958 -1149.902)" fill="#ffaa82"/>
    </g>
    <path id="Path_2928" data-name="Path 2928" d="M3010.025,1139.043l-25.229-14.565c-2.161-1.248-3.914-4.6-3.914-7.48V1089.5c0-2.883,1.752-4.208,3.914-2.959l25.229,14.565c2.161,1.248,3.913,4.6,3.913,7.48v27.493C3013.938,1138.966,3012.186,1140.291,3010.025,1139.043Z" transform="translate(-1299.413 943.915)" fill="#99ffeb" opacity="0.36"/>
    <path id="Path_2929" data-name="Path 2929" d="M3014.633,1135.382l-21.583-12.46a8.02,8.02,0,0,1-3.349-6.4V1093c0-2.467,1.5-3.6,3.349-2.532l21.583,12.461a8.017,8.017,0,0,1,3.35,6.4v23.521C3017.982,1135.317,3016.482,1136.451,3014.633,1135.382Z" transform="translate(-1302.554 942.492)" fill="#fff"/>
    <path id="Path_2930" data-name="Path 2930" d="M2993.354,1137.185a1.889,1.889,0,0,1-.451-2.909l2.7-2.967a2.131,2.131,0,0,1,3.493.564l4.3,9.151,4.6-6.609a2.127,2.127,0,0,1,3.72.489l5.419,13.978a.989.989,0,0,1-1.417,1.214Z" transform="translate(-1303.518 928.045)" fill="#27e0c0"/>
    <ellipse id="Ellipse_168" data-name="Ellipse 168" cx="3.323" cy="6.01" rx="3.323" ry="6.01" transform="matrix(0.906, -0.423, 0.423, 0.906, 1688.898, 2043.546)" fill="#ffd22d"/>
    <path id="Path_2931" data-name="Path 2931" d="M2876.254,948.031l-3.018-5.9a3.808,3.808,0,0,1,.666-4.182l1.874-1.834a1.828,1.828,0,0,1,3.074.523l3.018,5.9a3.809,3.809,0,0,1-.667,4.182l-1.874,1.834A1.827,1.827,0,0,1,2876.254,948.031Z" transform="translate(-1260.945 997.551)" fill="#fff"/>
    <path id="Path_2932" data-name="Path 2932" d="M2855.068,959.035l-3.019-5.9a3.807,3.807,0,0,1,.667-4.182l1.873-1.834a1.827,1.827,0,0,1,3.072.523l3.019,5.9a3.81,3.81,0,0,1-.667,4.182l-1.874,1.833A1.826,1.826,0,0,1,2855.068,959.035Z" transform="translate(-1253.399 993.631)" fill="#fff"/>
    <path id="Path_2933" data-name="Path 2933" d="M2858.128,958.814s13.264-2.474,17.306-10.91l-3.462-5.518s-10.09,12.321-17.479,7.981Z" transform="translate(-1254.394 995.095)" fill="#fff"/>
    <path id="Path_2934" data-name="Path 2934" d="M2877.389,1037.44h0c-1.235-.713-1.854-2.784-.98-3.282h0c.989-.564.989-2.4,0-4.109l-.51-.878c-.989-1.705-2.592-2.631-3.581-2.067h0c-.874.5-2.368-1.075-2.368-2.492h0a5.579,5.579,0,0,0-2.532-4.368l-.72-.416c-1.4-.807-2.532-.161-2.532,1.444h0c0,1.418-1.494,1.265-2.368-.241h0c-.989-1.706-2.592-2.632-3.582-2.068l-.509.29c-.989.564-.989,2.4,0,4.109h0c.874,1.507.254,2.864-.98,2.151h0c-1.4-.807-2.532-.161-2.532,1.443v.826a5.582,5.582,0,0,0,2.532,4.369c1.235.712,1.854,2.784.98,3.282h0c-.989.564-.989,2.4,0,4.109l.509.878c.989,1.706,2.592,2.632,3.582,2.068h0c.874-.5,2.368,1.074,2.368,2.492h0a5.578,5.578,0,0,0,2.532,4.367l.72.417c1.4.807,2.532.161,2.532-1.444,0-1.417,1.494-1.265,2.368.242.989,1.705,2.592,2.631,3.581,2.067l.51-.291c.989-.564.989-2.4,0-4.109h0c-.874-1.507-.255-2.864.98-2.15h0c1.4.807,2.532.161,2.532-1.443v-.826A5.582,5.582,0,0,0,2877.389,1037.44Zm-10.33,4.566a13.849,13.849,0,0,1-6.285-10.84c0-3.983,2.814-5.587,6.285-3.583a13.848,13.848,0,0,1,6.284,10.839C2873.343,1042.406,2870.53,1044.01,2867.059,1042.006Z" transform="translate(-1254.289 967.879)" fill="#fff"/>
    <g id="Group_1472" data-name="Group 1472" transform="translate(1644.243 2013.01)">
      <path id="Path_2935" data-name="Path 2935" d="M2924,1059.7l22.208,13.367-7.823,1.348c-1.872.323-4.208-1.072-6.144-3.666Z" transform="translate(-2923.394 -1059.7)" fill="#fff"/>
      <path id="Path_2936" data-name="Path 2936" d="M2932.65,1074.428a11.015,11.015,0,0,1-.752-.916l-8.838-11.353.141,7.382.017.857.112,5.947a4.414,4.414,0,0,0,.244,1.3Z" transform="translate(-2923.06 -1060.576)" fill="#fff"/>
      <g id="Group_1471" data-name="Group 1471" transform="translate(1.277 14.745)">
        <path id="Path_2937" data-name="Path 2937" d="M2937.814,1084.321a6.015,6.015,0,0,1-3.121-1.233l.019.061-9.668,3.422a3.4,3.4,0,0,0,.924.886l19.565,11.776Z" transform="translate(-2925.043 -1082.775)" fill="#fff"/>
        <path id="Path_2938" data-name="Path 2938" d="M2947.461,1083.984l7.87,15.2a1.9,1.9,0,0,0,.377-1.3l-.113-5.947-.017-.857-.162-8.477Z" transform="translate(-2933.029 -1082.602)" fill="#fff"/>
      </g>
    </g>
    <g id="Group_1481" data-name="Group 1481" transform="translate(1648.474 1828)">
      <path id="Path_2939" data-name="Path 2939" d="M3046.648,909.741c-1.512-2.655-4.546-2.985-7.092-1.859a61,61,0,0,0-14.409,9.412c-4.083,3.434-8.284,7.227-11.089,11.812-3.688,6.025-4.528,12.7-4.159,19.583q.785,14.652,1.57,29.305c.01.17.029.332.051.494-1.453,2.287-3,4.729-3.875,6.137-2.369,2.675-4.64,5.3-5.683,6.78-1.213,1.717,1.6,2.762,1.6,2.762,5.979,1.11,11.92-1.588,11.92-1.588,2.556-1.749.888-4.135,3.5-7.937.441-.642,1.48-1.3,1.652-.695l-.224,4.07,1.417-.272s.85-5.817,1.62-9.732a4.29,4.29,0,0,0-.7-3.737,6.382,6.382,0,0,0-1.029-1.4,2.385,2.385,0,0,0-.174-.426q-.588-11-1.179-22c-.263-4.9-.62-9.658,1.618-14.259,2.13-4.377,6.015-7.7,9.643-10.834a53.111,53.111,0,0,1,13.169-8.523C3047.369,915.691,3047.92,911.977,3046.648,909.741Z" transform="translate(-2955.287 -820.398)" fill="#45446c" opacity="0.45" style="mix-blend-mode: multiply;isolation: isolate"/>
      <path id="Path_2940" data-name="Path 2940" d="M3015.713,914.234c-5.246.974-10.771,2.2-15.472,4.805-6.18,3.423-10.2,8.813-13.276,14.984l-13.087,26.268c-.076.152-.139.3-.2.454-2.393,1.273-4.942,2.634-6.4,3.427-3.379,1.158-6.65,2.325-8.287,3.1-1.9.9.031,3.193.031,3.193,4.653,3.914,11.153,4.5,11.153,4.5,3.086-.262,2.812-3.159,6.956-5.18.7-.342,1.93-.4,1.778.209l-2.2,3.43,1.368.463s3.608-4.642,6.208-7.667a4.287,4.287,0,0,0,1.231-3.6,6.39,6.39,0,0,0-.2-1.725,2.442,2.442,0,0,0,.059-.457q4.912-9.859,9.825-19.719c2.188-4.393,4.224-8.708,8.439-11.606,4.011-2.758,9.031-3.734,13.731-4.669C3022.537,923.41,3021.38,913.182,3015.713,914.234Z" transform="translate(-2939.792 -822.851)" fill="#45446c" opacity="0.45" style="mix-blend-mode: multiply;isolation: isolate"/>
      <path id="Path_2941" data-name="Path 2941" d="M3025.756,834.084c-2.088,14.1-4.75,16.07-9.934,25.124-6.282,10.974-5.275,15.055-17.979,21.258" transform="translate(-2953.928 -794.329)" fill="none" stroke="#ffaa82" stroke-miterlimit="10" stroke-width="4.025"/>
      <path id="Path_2942" data-name="Path 2942" d="M3034.081,911.6c-7.772,3.294-15.162,9.8-20.361,15.152a24.536,24.536,0,0,0-6.876,18.42l1.718,32.065" transform="translate(-2957.122 -821.938)" fill="none" stroke="#ef9a78" stroke-miterlimit="10" stroke-width="5.367"/>
      <path id="Path_2943" data-name="Path 2943" d="M3036.155,833.853c-5.453,15.653-6.618,15.376-10.94,26.34" transform="translate(-2963.677 -794.247)" fill="none" stroke="#91b8db" stroke-miterlimit="10" stroke-width="5.367"/>
      <path id="Path_2944" data-name="Path 2944" d="M2960.91,966.266c1.847-1.9,12.181-15.92,13.723-17.569a91.771,91.771,0,0,1,9.424-9.151,15.878,15.878,0,0,1,6.981-3.008c3.441-.479,16.2,8.136,30.174-1.908" transform="translate(-2940.774 -830.142)" fill="none" stroke="#ffaa82" stroke-miterlimit="10" stroke-width="5.367"/>
      <g id="Group_1473" data-name="Group 1473" transform="translate(0 130.455)">
        <path id="Path_2945" data-name="Path 2945" d="M2957.519,981.242c.292-1.81-.436-4.554-1.6-4.987l-5.542,2.182-.464-.16c-2.7.75-15.365,3.049-19.293,4.341-2,.657-.36,3.173-.36,3.173,4.14,4.453,10.521,5.827,10.521,5.827,3.094.117,3.177-2.792,7.538-4.291.736-.254,1.963-.164,1.74.425l-2.6,3.135,1.3.627s4.149-4.166,7.1-6.851A4.289,4.289,0,0,0,2957.519,981.242Z" transform="translate(-2929.633 -975.423)" fill="#fff"/>
        <path id="Path_2946" data-name="Path 2946" d="M2959.946,974.963l-3.432.184s-11.529,4.394-13.775,5.314c-2.608,1.069,1.926,9.61,15.205,1.785C2965.923,978.833,2959.946,974.963,2959.946,974.963Z" transform="translate(-2934.05 -974.963)" fill="#ffaa82"/>
      </g>
      <path id="Path_2947" data-name="Path 2947" d="M3018.3,893.846c-17.774,11.271-28.621,21.575-27.947,26.414,0,0,8.855-4.909,15.8-.875,6.867,3.987,5.375,7.413,3.622,9.252a.927.927,0,0,0,.646,1.564c8.236.25,36.93.113,37.434-15.423.428-13.168-1.372-14.742-1.372-14.742S3027.958,906.462,3018.3,893.846Z" transform="translate(-2951.248 -815.616)" fill="#bc4073"/>
      <path id="Path_2948" data-name="Path 2948" d="M3076.183,831.209a7.858,7.858,0,0,0-2.351-1.962,27.39,27.39,0,0,0-13.64-4.411" transform="translate(-2976.136 -791.035)" fill="none" stroke="#bc4073" stroke-miterlimit="10" stroke-width="1.342"/>
      <path id="Path_2949" data-name="Path 2949" d="M3038.247,836.324s-6.778,9.412-6.408,15.346c.235,3.776,2.7,8.149,3.024,9.372,2.668,10.013.711,12.885.9,15.624,0,0,1.618,9.47,25.2,1.964l10.429-27.62Z" transform="translate(-2966.032 -795.127)" fill="#d0e7f4"/>
      <path id="Path_2950" data-name="Path 2950" d="M3070.74,852.909c.217-.355,2.442-3.866,2.534-4.272,1.037-4.666,3.774-8.229-1.221-14.417-1.04-1.29-12.523-8.4-21.505-10.564a9.689,9.689,0,0,0-10.856,5.151,50.7,50.7,0,0,0-2.455,7.029c-.968,9.294,3.863-2.7,4.223,2.479-.015-.125-.04-.254-.051-.378,0,0,.625,8.756,1.09,15.536.286,4.229.487,7.287.5,7.715,0,.019,0,.047,0,.053l15.028,13.317,9.146-14.483h0Z" transform="translate(-2967.915 -790.522)" fill="#d0e7f4"/>
      <path id="Path_2951" data-name="Path 2951" d="M3056.485,823.644s-8.337,7.673-1.844,13.826,18.858-6.052,18.858-6.052C3067.616,827.247,3061.9,824.317,3056.485,823.644Z" transform="translate(-2973.278 -790.611)" fill="#ffaa82"/>
      <path id="Path_2952" data-name="Path 2952" d="M3031.528,894.984h0a1.836,1.836,0,0,0,.342,1.878c1.646,1.857,6.206,6.008,14.464,6.633,7.069.535,11.408-.234,13.536-.816a1.843,1.843,0,0,0,1.34-2.084l-.1-.574a1.834,1.834,0,0,0-2.2-1.491c-3.949.862-13.261,2.411-19.044-.561a21.05,21.05,0,0,1-5.333-3.63A1.833,1.833,0,0,0,3031.528,894.984Z" transform="translate(-2965.883 -815.599)" fill="#46466b"/>
      <path id="Path_2953" data-name="Path 2953" d="M3044.655,905.088l-3.784-1.5a3.1,3.1,0,0,1-1.846-3.282h0a1.931,1.931,0,0,1,2.727-1.465l3.783,1.5a3.1,3.1,0,0,1,1.847,3.282h0A1.93,1.93,0,0,1,3044.655,905.088Z" transform="translate(-2968.582 -817.334)" fill="#fff"/>
      <path id="Path_2954" data-name="Path 2954" d="M3044.862,904.509l-2.192-.871a1.793,1.793,0,0,1-1.068-1.9h0a1.117,1.117,0,0,1,1.578-.849l2.192.871a1.793,1.793,0,0,1,1.068,1.9h0A1.117,1.117,0,0,1,3044.862,904.509Z" transform="translate(-2969.506 -818.09)" fill="#46466b"/>
      <path id="Path_2955" data-name="Path 2955" d="M3055.026,825.239c-.02.86-2.692,9-2.245,10.04a4.893,4.893,0,0,0,1.4,1.755,9.075,9.075,0,0,0,9.908,1.005c1.331-.722,5.04-2.749,5.589-3.023,1.417-.706,2.326-2.128,3.6-3.068" transform="translate(-2973.479 -791.179)" fill="none" stroke="#bc4073" stroke-miterlimit="10" stroke-width="1.342"/>
      <g id="Group_1474" data-name="Group 1474" transform="translate(36.446 148.082)">
        <path id="Path_2956" data-name="Path 2956" d="M3007.325,1006.055c-.844-1.628-3.063-3.4-4.253-3.054l-3.15,5.054-.468.149c-1.721,2.21-10.522,11.6-12.908,14.981-1.212,1.717,1.6,2.763,1.6,2.763,5.978,1.11,11.921-1.589,11.921-1.589,2.554-1.749.888-4.135,3.5-7.937.441-.643,1.48-1.3,1.649-.7l-.223,4.07,1.418-.272s.85-5.818,1.619-9.732A4.291,4.291,0,0,0,3007.325,1006.055Z" transform="translate(-2986.242 -1002.562)" fill="#fff"/>
        <path id="Path_2957" data-name="Path 2957" d="M3005.2,1002.348l-2.648,2.193s-6.642,10.4-7.9,12.476c-1.458,2.413,7.272,6.57,13.274-7.627C3012.305,1001.894,3005.2,1002.348,3005.2,1002.348Z" transform="translate(-2989.182 -1002.343)" fill="#ef9a78"/>
      </g>
      <path id="Path_2958" data-name="Path 2958" d="M3051.756,856.874c-14.329,6-6.194-9.093-22.971-23.916" transform="translate(-2964.949 -793.928)" fill="none" stroke="#ffaa82" stroke-miterlimit="10" stroke-width="4.025"/>
      <path id="Path_2959" data-name="Path 2959" d="M3033,794.547c-1.207,3.406-1.527,7.509.689,10.363.406.524.886.987,1.342,1.469a21.8,21.8,0,0,1,3.09,4.178,2.134,2.134,0,0,0,.538.708,1.5,1.5,0,0,0,1.862-.349,10.346,10.346,0,0,0,1.123-1.727c1.12-1.716,24.564,11.94,25.719,10.246,1.564-2.295-4.2-28.217-4.812-30.927-.773-3.456-17.9,1.124-20.7-1.032a16.078,16.078,0,0,1-1.649-1.265h0c-.711-.71-1.361-2.218-2.541-1.708-.948.41-1.266,2.121-1.594,2.95C3035.108,789.847,3033.861,792.115,3033,794.547Z" transform="translate(-2966.115 -776.632)" fill="#492817"/>
      <path id="Path_2960" data-name="Path 2960" d="M3058.367,823.051l-4.1-15.808,9.906,3.136,3.331,12.909C3068.219,825.392,3061.33,831.124,3058.367,823.051Z" transform="translate(-2974.028 -784.769)" fill="#ffaa82"/>
      <path id="Path_2961" data-name="Path 2961" d="M3059.094,825.6s4.444-2.275,4.462-2.318c0,0-1.52,3.235-3.728,4.5Z" transform="translate(-2975.746 -790.482)" fill="#ea8a6c"/>
      <path id="Rectangle_452" data-name="Rectangle 452" d="M10.166,0h0A10.167,10.167,0,0,1,20.333,10.167V22.752A10.166,10.166,0,0,1,10.166,32.918h0A10.166,10.166,0,0,1,0,22.752V10.166A10.166,10.166,0,0,1,10.166,0Z" transform="translate(71.073 2.592) rotate(-1.913)" fill="#ffaa82"/>
      <path id="Path_2962" data-name="Path 2962" d="M3054.425,787.447c-3.576-4.417-10.2.848-13.768-.53-3.875-1.495-2.559-5.477.071-8.692a14.631,14.631,0,0,1,6.787-4.536c10.029-3.79,20.09.452,20.468,11.794,0,0,.915,15.536-8.136,17.828l-.586-2.273s5.207-5.741-.34-9.091c-1.293-.782-1.354-.806-1.235-2.691C3057.805,787.348,3055.629,788.932,3054.425,787.447Z" transform="translate(-2968.312 -772.335)" fill="#492817"/>
      <path id="Path_2963" data-name="Path 2963" d="M3045.191,813.142l5.328,2.282a.529.529,0,0,1,.322.558c-.122.847-.722,2.637-3.63,1.6a4.516,4.516,0,0,1-2.766-3.879A.536.536,0,0,1,3045.191,813.142Z" transform="translate(-2970.526 -786.854)" fill="#fff"/>
      <path id="Path_2964" data-name="Path 2964" d="M3044.985,803.072c0,.665-.267,1.2-.6,1.2s-.6-.54-.6-1.2.267-1.205.6-1.205S3044.985,802.406,3044.985,803.072Z" transform="translate(-2970.295 -782.854)" fill="#492817"/>
      <g id="Group_1476" data-name="Group 1476" transform="translate(80.49 18.421)">
        <g id="Group_1475" data-name="Group 1475">
          <path id="Path_2965" data-name="Path 2965" d="M3055.278,802.242a5.616,5.616,0,0,1,3.5,1.57c.578.6,1.493-.313.916-.916a6.909,6.909,0,0,0-4.412-1.949.648.648,0,0,0,0,1.3Z" transform="translate(-3054.653 -800.947)" fill="#492817"/>
        </g>
      </g>
      <g id="Group_1478" data-name="Group 1478" transform="translate(71.792 15.111)">
        <g id="Group_1477" data-name="Group 1477">
          <path id="Path_2966" data-name="Path 2966" d="M3041.767,797.109a5.625,5.625,0,0,1,3.619,1.264c.619.556,1.538-.357.917-.916a6.906,6.906,0,0,0-4.535-1.644c-.829.047-.834,1.343,0,1.3Z" transform="translate(-3041.143 -795.807)" fill="#492817"/>
        </g>
      </g>
      <path id="Path_2967" data-name="Path 2967" d="M3061.743,792.154s10.023,13.123,9.129,21.71c-.74,7.1-8.454,11.617-9.827,22.343a2.236,2.236,0,0,0,3.981,1.635,30.963,30.963,0,0,1,6.755-6.549c6.694-4.578,7.911-9.45,7.279-13.019s-3.419-29.621-3.419-29.621l-15.378-1.531Z" transform="translate(-2976.162 -777.602)" fill="#492817"/>
      <path id="Path_2968" data-name="Path 2968" d="M3073.483,809.894a2.066,2.066,0,0,1-3.531-.885,4.961,4.961,0,0,1,1.472-5.045,2.067,2.067,0,0,1,3.531.886A4.961,4.961,0,0,1,3073.483,809.894Z" transform="translate(-2979.539 -783.367)" fill="#ffaa82"/>
      <path id="Path_2969" data-name="Path 2969" d="M3037.332,800.56s.151-5.212,12.622-12.023.564-.314.564-.314l-12.367-2.8S3033.262,790.971,3037.332,800.56Z" transform="translate(-2967.418 -776.998)" fill="#492817"/>
      <g id="Group_1480" data-name="Group 1480" transform="translate(31.947 18.262)">
        <path id="Path_2970" data-name="Path 2970" d="M3036.9,800.888l-12.4,8.3,2.935,4.384,12.4-8.3c.763-.51.724-1.906-.087-3.116S3037.664,800.378,3036.9,800.888Z" transform="translate(-2995.371 -800.7)" fill="#fff"/>
        <path id="Path_2971" data-name="Path 2971" d="M3029.52,801.7l-17.646,11.81,4.175,6.239,17.646-11.81c1.084-.726,1.029-2.711-.125-4.434S3030.6,800.973,3029.52,801.7Z" transform="translate(-2990.873 -800.961)" fill="#fff"/>
        <path id="Path_2972" data-name="Path 2972" d="M3008.924,810.557c-.007,0-.013.012-.021.016l-21.852,13.774,0,.008c-.029.017-.061.03-.09.049-1.527,1.023-1.241,4.128.638,6.937s4.642,4.257,6.169,3.235c.029-.019.053-.044.08-.065l0,.009,21.046-15.026h0c1.529-1.022,1.428-3.852-.224-6.32S3010.452,809.535,3008.924,810.557Z" transform="translate(-2981.652 -804.08)" fill="#45446c"/>
        <g id="Group_1479" data-name="Group 1479" transform="translate(0 13.977)">
          <path id="Path_2973" data-name="Path 2973" d="M2993.434,822.869l-.025.021-10.766,5.9,8.976,12.59,9.249-7.4h0c1.9-1.271,1.775-4.788-.279-7.855S2995.333,821.6,2993.434,822.869Z" transform="translate(-2980.461 -822.41)" fill="#7b8eff"/>
          <path id="Path_2974" data-name="Path 2974" d="M2990.073,835.581c2.387,3.566,2.286,7.819-.226,9.5s-6.48.151-8.866-3.414-2.286-7.819.225-9.5S2987.686,832.015,2990.073,835.581Z" transform="translate(-2979.254 -825.642)" fill="#a7d1e8"/>
          <path id="Path_2975" data-name="Path 2975" d="M2989.818,837.234c1.822,2.724,1.745,5.971-.172,7.254s-4.947.116-6.77-2.608-1.746-5.971.171-7.254S2988,834.512,2989.818,837.234Z" transform="translate(-2980.075 -826.576)" fill="#45446c"/>
        </g>
      </g>
      <path id="Path_2976" data-name="Path 2976" d="M3054.636,807.9a2.637,2.637,0,0,1,1.563.223c.136.066.269.143.4.221a3.557,3.557,0,0,1,.964.734" transform="translate(-2974.157 -784.99)" fill="none" stroke="#492817" stroke-miterlimit="10" stroke-width="0.313"/>
      <path id="Path_2977" data-name="Path 2977" d="M3014.041,820.053h0a4.493,4.493,0,0,1,6.292-.76l6.71,5.265a4.493,4.493,0,0,1,.758,6.289h0a4.493,4.493,0,0,1-6.292.76l-6.708-5.265A4.493,4.493,0,0,1,3014.041,820.053Z" transform="translate(-2959.359 -788.722)" fill="#ffaa82"/>
      <path id="Path_2978" data-name="Path 2978" d="M2994.2,906.856h-4.211a4.892,4.892,0,0,1-4.877-4.877h0a4.892,4.892,0,0,1,4.877-4.877h4.211a4.891,4.891,0,0,1,4.877,4.877h0A4.891,4.891,0,0,1,2994.2,906.856Z" transform="translate(-2949.395 -816.776)" fill="#ffaa82"/>
      <path id="Path_2979" data-name="Path 2979" d="M2985.58,837.71a1.488,1.488,0,0,0-2.655-.142c-.551.995-.583,2.592,1.293,5.069C2987.71,847.244,2987.414,841.961,2985.58,837.71Z" transform="translate(-2948.497 -795.303)" fill="#7b7bc6"/>
      <path id="Path_2980" data-name="Path 2980" d="M2986.994,837.38a.9.9,0,1,1-1.359-.287A.993.993,0,0,1,2986.994,837.38Z" transform="translate(-2949.477 -795.342)" fill="#fff"/>
    </g>
    <g id="Group_1489" data-name="Group 1489" transform="translate(1401 2059.299)">
      <ellipse id="Ellipse_169" data-name="Ellipse 169" cx="18.354" cy="31.791" rx="18.354" ry="31.791" transform="translate(4.684 218.412) rotate(-89.689)" fill="#a8c4e5" opacity="0.4" style="mix-blend-mode: multiply;isolation: isolate"/>
      <g id="Group_1482" data-name="Group 1482" transform="translate(58.273 49.946)">
        <path id="Path_2981" data-name="Path 2981" d="M2648.045,1234.191a11.234,11.234,0,0,1-10.167-.018c-2.816-1.626-2.83-4.254-.032-5.869a11.234,11.234,0,0,1,10.167.019C2650.829,1229.948,2650.843,1232.575,2648.045,1234.191Z" transform="translate(-2635.757 -1215.56)" fill="#8585ff"/>
        <rect id="Rectangle_453" data-name="Rectangle 453" width="14.377" height="11.537" transform="translate(0 4.15)" fill="#8585ff"/>
        <path id="Path_2982" data-name="Path 2982" d="M2648.744,1215.53v11.538h0a3.535,3.535,0,0,1-2.09,2.943,9.075,9.075,0,0,1-2.91,1.016,11.158,11.158,0,0,0,7.206-1.016,3.53,3.53,0,0,0,2.089-2.943h0V1215.53Z" transform="translate(-2638.602 -1211.44)" fill="#7878ea"/>
        <path id="Path_2983" data-name="Path 2983" d="M2648.045,1216.272a11.239,11.239,0,0,1-10.167-.019c-2.816-1.625-2.83-4.254-.032-5.87a11.24,11.24,0,0,1,10.167.018C2650.829,1212.028,2650.843,1214.656,2648.045,1216.272Z" transform="translate(-2635.757 -1209.178)" fill="#e9e9ff"/>
        <path id="Path_2984" data-name="Path 2984" d="M2647.906,1216.056a9.291,9.291,0,0,1-8.4-.016c-2.328-1.344-2.339-3.516-.025-4.851a9.284,9.284,0,0,1,8.4.015C2650.206,1212.549,2650.218,1214.72,2647.906,1216.056Z" transform="translate(-2636.467 -1209.539)" fill="#a1a1e5"/>
        <path id="Path_2985" data-name="Path 2985" d="M2648.037,1214.451a9.285,9.285,0,0,0-8.4-.015,3.723,3.723,0,0,0-1.441,1.368,3.787,3.787,0,0,0,1.467,1.393,9.287,9.287,0,0,0,8.4.015,3.708,3.708,0,0,0,1.44-1.369A3.777,3.777,0,0,0,2648.037,1214.451Z" transform="translate(-2636.625 -1210.696)" fill="#565682"/>
        <path id="Path_2986" data-name="Path 2986" d="M2639.636,1218.005a3.726,3.726,0,0,1-1.441-1.368,3.213,3.213,0,0,1,.687-.835,9.194,9.194,0,0,1,5.841.86,3.722,3.722,0,0,1,1.44,1.369,1.977,1.977,0,0,1,.252.646c-.348.084-.667.151-.94.189A9.193,9.193,0,0,1,2639.636,1218.005Z" transform="translate(-2636.625 -1211.489)" fill="#6b6b9b"/>
        <path id="Path_2987" data-name="Path 2987" d="M2654.552,1222.623c1.3.7,2.7,1.262,2.763,2.137.108,1.585.113,3.965.047,5.552a.9.9,0,0,1-.557.887c-.343.117-1.957-.771-2.317-.953" transform="translate(-2642.429 -1213.967)" fill="none" stroke="#45446c" stroke-miterlimit="10" stroke-width="0.954"/>
      </g>
      <path id="Path_2988" data-name="Path 2988" d="M2562.182,1192.409c-8.034,11.545-8.512,26.551-8.7,40.616-.229,16.917.13,13.635,1.806,30.472" transform="translate(-2548.155 -1153.259)" fill="none" stroke="#ffaa82" stroke-miterlimit="10" stroke-width="3.928"/>
      <path id="Path_2989" data-name="Path 2989" d="M2554.917,1188.528c-4.177,4.458-6.885,11.538-9.276,18.865a3.491,3.491,0,0,0,1.874,4.913l7.712,2.477a3.137,3.137,0,0,0,3.894-2.065l6.508-18.473a6.439,6.439,0,0,0-2.863-7.808l-.608-.289C2559.359,1184.663,2558.089,1185.445,2554.917,1188.528Z" transform="translate(-2545.244 -1150.77)" fill="#45446c"/>
      <path id="Path_2990" data-name="Path 2990" d="M2548.372,1213.388a23.793,23.793,0,0,0,4.749,2.488,8.531,8.531,0,0,0,3.741.971" transform="translate(-2546.358 -1160.732)" fill="none" stroke="#fcfeff" stroke-miterlimit="10" stroke-width="1.309"/>
      <path id="Path_2991" data-name="Path 2991" d="M2582.576,1432.517c-.232.2-3.676,1.931-3.893,2.12-.332.29-1.321,1.086-1.919,1.517-1.257.908-3.917,4.357-8.255,1.928-6.345-3.555,8.8-13.67,8.8-13.67l6.7-3.493a2.916,2.916,0,0,1,2.651,0h0a3.05,3.05,0,0,1,1.344,4.2C2586.543,1427.652,2586.46,1429.128,2582.576,1432.517Z" transform="translate(-2552.977 -1234.537)" fill="#15253d"/>
      <path id="Path_2992" data-name="Path 2992" d="M2581.465,1429.57c-.231.2-3.677,1.931-3.893,2.119-.332.29-1.321,1.086-1.918,1.517-1.258.908-3.917,4.357-8.254,1.929-6.346-3.554,8.8-13.67,8.8-13.67l6.7-3.493a2.911,2.911,0,0,1,2.65,0h0a3.049,3.049,0,0,1,1.346,4.2C2585.433,1424.7,2585.35,1426.18,2581.465,1429.57Z" transform="translate(-2552.583 -1233.488)" fill="#894e4e"/>
      <path id="Path_2993" data-name="Path 2993" d="M2593.276,1424.751c.343-.671.87-1.941,1.324-2.727a3.046,3.046,0,0,0-4.076-4.052l-3.271,1.7A13.141,13.141,0,0,1,2593.276,1424.751Z" transform="translate(-2560.207 -1233.488)" fill="#915350"/>
      <path id="Path_2994" data-name="Path 2994" d="M2553.163,1305.532h0a4.387,4.387,0,0,1-4.373-4.374v-8.325a4.386,4.386,0,0,1,4.373-4.373h0a4.386,4.386,0,0,1,4.374,4.373v8.325A4.387,4.387,0,0,1,2553.163,1305.532Z" transform="translate(-2546.507 -1187.471)" fill="#ffaa82"/>
      <g id="Group_1484" data-name="Group 1484" transform="translate(33.765 6.666)">
        <path id="Path_2995" data-name="Path 2995" d="M2607.951,1149.357l-.084,1.432s-.224,4.32-4.246,1.69-3.375-7.986-3.375-7.986S2603.5,1144.423,2607.951,1149.357Z" transform="translate(-2598.586 -1142.858)" fill="#fff" opacity="0.46"/>
        <path id="Path_2996" data-name="Path 2996" d="M2603.155,1151.917c5.248,3.4,5.534-1.639,5.534-1.639l.042.026v-1.724c-5.654-5.884-9.6-6.006-9.6-6.006A9.32,9.32,0,0,0,2603.155,1151.917Zm-3.138-7.885s3.159.135,7.482,4.693l-.08,1.24s-.212,3.743-4.117,1.213A7.725,7.725,0,0,1,2600.017,1144.032Z" transform="translate(-2598.16 -1142.175)" fill="#513554"/>
        <path id="Path_2997" data-name="Path 2997" d="M2615.371,1154.3l-3.14-1.813v-1.876l3.14,1.813Z" transform="translate(-2602.869 -1145.038)" fill="#513554"/>
        <path id="Path_2998" data-name="Path 2998" d="M2598.795,1143.806l-.557-.321a1.316,1.316,0,0,1-.549-1.05h0c0-.4.246-.591.549-.415l.557.321a1.315,1.315,0,0,1,.549,1.05h0C2599.344,1143.8,2599.1,1143.981,2598.795,1143.806Z" transform="translate(-2597.689 -1141.954)" fill="#513554"/>
        <path id="Path_2999" data-name="Path 2999" d="M2630.336,1162.016l-.556-.321a1.314,1.314,0,0,1-.549-1.05h0c0-.4.246-.59.549-.415l.556.321a1.314,1.314,0,0,1,.549,1.05h0C2630.886,1162,2630.64,1162.191,2630.336,1162.016Z" transform="translate(-2608.924 -1148.44)" fill="#513554"/>
        <g id="Group_1483" data-name="Group 1483" transform="translate(11.494 6.938)">
          <path id="Path_3000" data-name="Path 3000" d="M2617.361,1155.182l.082,1.485s.219,4.448,4.123,6.4,3.276-3.968,3.276-3.968S2621.681,1155.383,2617.361,1155.182Z" transform="translate(-2616.19 -1153.604)" fill="#fff" opacity="0.46"/>
          <path id="Path_3001" data-name="Path 3001" d="M2625.138,1157.8s-3.942-4.429-9.6-5.074v1.724l.042.023a10.2,10.2,0,0,0,5.534,8.028C2626.366,1165.165,2625.138,1157.8,2625.138,1157.8Zm-4.167,3.792a7.581,7.581,0,0,1-4.116-5.966l-.08-1.333c4.324.436,7.482,3.948,7.482,3.948S2624.876,1163.575,2620.97,1161.6Z" transform="translate(-2615.542 -1152.73)" fill="#513554"/>
          <path id="Path_3002" data-name="Path 3002" d="M2618.556,1157.987h0c-.122-.176-.144-.388-.05-.472l1.083-.987c.093-.085.266-.01.387.166h0c.122.177.144.389.051.474l-1.084.987C2618.85,1158.238,2618.677,1158.164,2618.556,1157.987Z" transform="translate(-2616.577 -1154.07)" fill="#fcfeff"/>
        </g>
        <path id="Path_3003" data-name="Path 3003" d="M2601.152,1147.56h0c-.122-.177-.145-.389-.051-.473l1.083-.987c.094-.085.267-.01.388.167h0c.122.177.145.388.051.473l-1.083.987C2601.445,1147.811,2601.272,1147.736,2601.152,1147.56Z" transform="translate(-2598.884 -1143.418)" fill="#fcfeff"/>
      </g>
      <path id="Path_3004" data-name="Path 3004" d="M2619.075,1455.385c-.268.151-3.989,1.155-4.239,1.3-.383.217-1.512.8-2.184,1.1-1.414.637-4.71,3.485-8.472.236-5.507-4.754,11.358-11.631,11.358-11.631l7.264-2.08a2.908,2.908,0,0,1,2.6.53h0a3.05,3.05,0,0,1,.476,4.387C2623.936,1451.413,2623.56,1452.842,2619.075,1455.385Z" transform="translate(-2565.843 -1242.944)" fill="#15253d"/>
      <path id="Path_3005" data-name="Path 3005" d="M2618.577,1452.275c-.267.151-3.988,1.155-4.238,1.3-.383.217-1.513.8-2.185,1.1-1.413.638-4.71,3.484-8.472.236-5.506-4.753,11.359-11.63,11.359-11.63l7.264-2.08a2.911,2.911,0,0,1,2.6.531h0a3.05,3.05,0,0,1,.477,4.387C2623.438,1448.3,2623.062,1449.732,2618.577,1452.275Z" transform="translate(-2565.666 -1241.836)" fill="#894e4e"/>
      <path id="Path_3006" data-name="Path 3006" d="M2607.082,1319.756c9.947,28.538,2.966,70.091,3.36,82.521" transform="translate(-2567.27 -1198.618)" fill="none" stroke="#ceab8b" stroke-miterlimit="10" stroke-width="6.106"/>
      <path id="Path_3007" data-name="Path 3007" d="M2570.237,1299.118c3.626,12.865,4.9,29.6,6.093,42.911.2,2.248-3.9,32.6-3.778,40.874" transform="translate(-2554.146 -1191.267)" fill="none" stroke="#ceab8b" stroke-miterlimit="10" stroke-width="6.106"/>
      <g id="Group_1486" data-name="Group 1486" transform="translate(38.018 201.973)">
        <g id="Group_1485" data-name="Group 1485">
          <path id="Path_3008" data-name="Path 3008" d="M2613.949,1446.2c-2.5,2.183-7.682,1.88-9.628-.886-.032,1.525-.037,3.047,0,4.568.149,6.2,9.8,6.22,9.646,0C2613.937,1448.654,2613.934,1447.426,2613.949,1446.2Z" transform="translate(-2604.295 -1445.312)" fill="#e1eaf4"/>
        </g>
      </g>
      <path id="Path_3009" data-name="Path 3009" d="M2570.731,1309.354h0c1.089,1.221-3.589-4.716-2.189-3.87,2.917,1.762,19.287,12.885,22.694,12.942,4.116.068,1.717-3.909,4.78-6.658,2.907-2.608,3.591-6.845,3.874-10.74a6.748,6.748,0,0,0-.3-3.191,6.869,6.869,0,0,0-2.354-2.531c-7.272-5.5-21.578-19.129-31.739-14.772C2553.758,1285.568,2565.522,1303.513,2570.731,1309.354Z" transform="translate(-2550.664 -1184.347)" fill="#ceab8b"/>
      <path id="Path_3010" data-name="Path 3010" d="M2562.129,1188.056c-2.153,2.776-1.9,4.492-1.795,8.282a8.467,8.467,0,0,0,6.182,7.914l36.455,10.223s2.094-14.024-5.1-18.245c-3.875-2.274-9.883-5.912-14.6-8.785C2576.34,1183.224,2567.1,1181.643,2562.129,1188.056Z" transform="translate(-2550.595 -1150.177)" fill="#51517a"/>
      <path id="Path_3011" data-name="Path 3011" d="M2588.961,1182.1l3.084-13.742,8.382,5.64-2.524,12.512C2597.657,1188.538,2588.355,1186.764,2588.961,1182.1Z" transform="translate(-2560.806 -1144.691)" fill="#ffaa82"/>
      <path id="Path_3012" data-name="Path 3012" d="M2593.828,1135.812s-7.8-6.627-9.242,7.524a24.809,24.809,0,0,0,11.874,23.569c4.8,2.875,11.248.4,11.994-4.479,1.883-7.038,2.542-13.724.747-19.705.9-5.881-3.371-4.168-10.365-5.223Z" transform="translate(-2559.214 -1132.548)" fill="#ffaa82"/>
      <path id="Path_3013" data-name="Path 3013" d="M2583.371,1161.882s-9.331-4.519-7.107-18.042c2.407-14.634,15.832-12.068,23.431-12.068,3.365,0,5.729-.259,8.851,3.113,2.84,3.066-.662,9.012-5.152,8.987-1.781-.011-1.429,4.824-1.942,6.422-.912,2.841-2.855,4.086-3.794,6.835-.888,2.6-5.213,6.4-7.792,6.448C2585.27,1163.668,2583.371,1161.882,2583.371,1161.882Z" transform="translate(-2556.171 -1131.599)" fill="#492817"/>
      <path id="Path_3014" data-name="Path 3014" d="M2559.338,1258.035c-2.322-.9-1.767-40.784.32-62.813l41.035,19.524c-.207,18.752-2.575,33.551-.33,56.4Z" transform="translate(-2549.726 -1154.261)" fill="#51517a"/>
      <path id="Path_3015" data-name="Path 3015" d="M2587.5,1307.018c-10.138-3.7-19.8-7.746-25.469-14.7-2.788-1.609-2.435-4.446.783-6.3h0c3.218-1.858,8.131-2.061,10.917-.452l25.47,14.7c2.787,1.609,2.434,4.446-.783,6.3h0C2595.2,1308.423,2590.286,1308.627,2587.5,1307.018Z" transform="translate(-2550.553 -1186.051)" fill="#51517a"/>
      <path id="Path_3016" data-name="Path 3016" d="M2605.243,1223.768l-6.762-3.218c-.277,18.281-2.517,32.964-.311,55.406l-.113-.036c.048,1.269-.855,2.62-2.661,3.663h0c-3.218,1.858-8.131,2.061-10.918.452a116.83,116.83,0,0,1-13.875-5.855c5.6,4.289,12.971,7.281,20.62,10.071,2.788,1.609,7.7,1.405,10.918-.453h0c1.806-1.042,2.708-2.393,2.661-3.662l.113.036C2602.667,1257.32,2605.036,1242.521,2605.243,1223.768Z" transform="translate(-2554.277 -1163.282)" fill="#45446c"/>
      <path id="Path_3017" data-name="Path 3017" d="M2600.4,1443.306l.107,4.271a.88.88,0,0,0,.17.506,7.792,7.792,0,0,0,7.793,2.979,17.452,17.452,0,0,0,7.061-2.584.886.886,0,0,0,.366-.808l-.4-4.349a.89.89,0,0,0-1.332-.7c-2.065,1.218-6.646,3.027-12.434-.116A.9.9,0,0,0,2600.4,1443.306Z" transform="translate(-2564.891 -1242.301)" fill="#e5c2a5"/>
      <path id="Path_3018" data-name="Path 3018" d="M2632.6,1448.391c.472-.589,1.243-1.728,1.845-2.406a3.047,3.047,0,0,0-3.183-4.786l-3.545,1.015A13.142,13.142,0,0,1,2632.6,1448.391Z" transform="translate(-2574.619 -1241.836)" fill="#915350"/>
      <g id="Group_1488" data-name="Group 1488" transform="translate(13.569 189.327)">
        <g id="Group_1487" data-name="Group 1487">
          <path id="Path_3019" data-name="Path 3019" d="M2575.973,1426.555c-2.5,2.183-7.682,1.88-9.628-.885-.031,1.524-.037,3.047,0,4.568.149,6.2,9.795,6.22,9.645,0C2575.962,1429.012,2575.958,1427.784,2575.973,1426.555Z" transform="translate(-2566.32 -1425.67)" fill="#e1eaf4"/>
        </g>
      </g>
      <path id="Path_3020" data-name="Path 3020" d="M2562.429,1423.665l.106,4.272a.886.886,0,0,0,.171.505,7.789,7.789,0,0,0,7.792,2.979,17.43,17.43,0,0,0,7.061-2.584.89.89,0,0,0,.367-.809l-.4-4.349a.89.89,0,0,0-1.333-.7c-2.065,1.218-6.646,3.027-12.433-.116A.9.9,0,0,0,2562.429,1423.665Z" transform="translate(-2551.365 -1235.304)" fill="#e5c2a5"/>
      <path id="Path_3021" data-name="Path 3021" d="M2623.117,1162.8h-12.6a.817.817,0,0,1-.814-.814h0a.817.817,0,0,1,.814-.815h12.6a.817.817,0,0,1,.814.815h0A.817.817,0,0,1,2623.117,1162.8Z" transform="translate(-2568.204 -1142.134)" fill="#513554"/>
      <path id="Path_3022" data-name="Path 3022" d="M2610.254,1164.795c-.024,2.349-1.406,4.239-3.09,4.222a2.193,2.193,0,0,1-.538-.072c-1.422-.369-2.487-2.119-2.466-4.211.023-2.348,1.406-4.24,3.089-4.223S2610.277,1162.446,2610.254,1164.795Z" transform="translate(-2566.229 -1141.897)" fill="#ffaa82"/>
      <path id="Path_3023" data-name="Path 3023" d="M2601.34,1193.475c-9.415-1.416-15.772,4.5-18.021-9.057h0a3.01,3.01,0,0,1,4.065.89c1.615,2.334,5.051,3.81,8.848,3.344A2.982,2.982,0,0,1,2599.1,1190Z" transform="translate(-2558.806 -1150.254)" fill="#fff"/>
      <path id="Path_3024" data-name="Path 3024" d="M2618,1211.545c1.068,14.373,3.926,20.728,10.1,33.366,5.625,11.515,9.348,4.824,18.341-15.6" transform="translate(-2571.158 -1160.075)" fill="none" stroke="#ffaa82" stroke-miterlimit="10" stroke-width="3.928"/>
      <path id="Path_3025" data-name="Path 3025" d="M2606.618,1209.5l4.771,19.747c2.665,5.3,14.756-.315,12.976-4.848l-6.225-18.565a6.06,6.06,0,0,0-7.3-3.582h0A6.062,6.062,0,0,0,2606.618,1209.5Z" transform="translate(-2567.044 -1156.679)" fill="#51517a"/>
      <path id="Path_3026" data-name="Path 3026" d="M2614.944,1236.481a14.421,14.421,0,0,0,10.746-4.8" transform="translate(-2570.07 -1167.248)" fill="none" stroke="#fcfeff" stroke-miterlimit="10" stroke-width="1.309"/>
    </g>
    <ellipse id="Ellipse_170" data-name="Ellipse 170" cx="31.567" cy="18.224" rx="31.567" ry="18.224" transform="translate(1734.625 2261.972) rotate(-0.311)" fill="#a8c4e5" opacity="0.4" style="mix-blend-mode: multiply;isolation: isolate"/>
    <path id="Path_3027" data-name="Path 3027" d="M3120.551,1459.135c.229.2,3.65,1.917,3.866,2.1.329.287,1.312,1.078,1.9,1.505,1.249.9,3.889,4.328,8.195,1.915,6.3-3.529-8.737-13.573-8.737-13.573l-6.653-3.469a2.888,2.888,0,0,0-2.631,0h0a3.027,3.027,0,0,0-1.336,4.173C3116.611,1454.3,3116.693,1455.77,3120.551,1459.135Z" transform="translate(-1347.105 815.251)" fill="#15253d"/>
    <path id="Path_3028" data-name="Path 3028" d="M3121.652,1456.209c.23.2,3.651,1.917,3.867,2.1.33.288,1.313,1.078,1.906,1.507,1.248.9,3.889,4.326,8.195,1.915,6.3-3.53-8.737-13.573-8.737-13.573l-6.653-3.469a2.893,2.893,0,0,0-2.631,0h0a3.028,3.028,0,0,0-1.336,4.173C3117.714,1451.378,3117.8,1452.843,3121.652,1456.209Z" transform="translate(-1347.498 816.293)" fill="#fff"/>
    <path id="Path_3029" data-name="Path 3029" d="M3083.159,1481.841c.266.15,3.961,1.147,4.209,1.288.38.215,1.5.793,2.169,1.094,1.4.633,4.677,3.459,8.413.234,5.467-4.72-11.279-11.548-11.279-11.548l-7.213-2.066a2.893,2.893,0,0,0-2.579.527h0a3.028,3.028,0,0,0-.472,4.356C3078.333,1477.9,3078.706,1479.317,3083.159,1481.841Z" transform="translate(-1333.182 806.904)" fill="#15253d"/>
    <path id="Path_3030" data-name="Path 3030" d="M3083.654,1478.753c.266.15,3.961,1.147,4.209,1.288.38.216,1.5.794,2.168,1.095,1.4.632,4.677,3.459,8.414.234,5.466-4.72-11.279-11.548-11.279-11.548l-7.212-2.066a2.891,2.891,0,0,0-2.579.527h0a3.03,3.03,0,0,0-.473,4.356C3078.827,1474.809,3079.2,1476.229,3083.654,1478.753Z" transform="translate(-1333.358 808.004)" fill="#fff"/>
    <path id="Path_3031" data-name="Path 3031" d="M3105.039,1347.17c-9.876,28.336-2.946,69.6-3.336,81.939" transform="translate(-1341.734 850.916)" fill="none" stroke="#ffd22d" stroke-miterlimit="10" stroke-width="6.062"/>
    <path id="Path_3032" data-name="Path 3032" d="M3141.224,1326.678c-3.6,12.774-4.866,29.39-6.049,42.608-.2,2.233,3.869,32.366,3.75,40.586" transform="translate(-1354.367 858.215)" fill="none" stroke="#ffd22d" stroke-miterlimit="10" stroke-width="6.062"/>
    <g id="Group_1491" data-name="Group 1491" transform="translate(1755.481 2278.351)">
      <g id="Group_1490" data-name="Group 1490" transform="translate(0)">
        <path id="Path_3033" data-name="Path 3033" d="M3095.858,1472.72c2.482,2.167,7.627,1.867,9.56-.88.031,1.514.038,3.025,0,4.536-.147,6.153-9.726,6.176-9.578,0C3095.87,1475.158,3095.872,1473.939,3095.858,1472.72Z" transform="translate(-3095.838 -1471.84)" fill="#e1eaf4"/>
      </g>
    </g>
    <path id="Path_3034" data-name="Path 3034" d="M3122.394,1336.843h0c-1.082,1.213,3.563-4.683,2.173-3.843-2.9,1.75-19.151,12.793-22.534,12.85-4.086.068-1.7-3.882-4.745-6.611-2.886-2.59-3.566-6.8-3.848-10.664a6.713,6.713,0,0,1,.3-3.168,6.81,6.81,0,0,1,2.339-2.513c7.22-5.466,21.425-18.994,31.514-14.668C3139.247,1313.224,3127.567,1331.042,3122.394,1336.843Z" transform="translate(-1339.486 865.087)" fill="#ffd22d"/>
    <path id="Path_3035" data-name="Path 3035" d="M3129.01,1216.4c2.139,2.756,1.884,4.46,1.783,8.223a8.407,8.407,0,0,1-6.138,7.858l-36.2,10.151s-2.08-13.925,5.059-18.117c3.846-2.258,9.813-5.871,14.5-8.723C3114.9,1211.6,3124.072,1210.033,3129.01,1216.4Z" transform="translate(-1337.629 899.016)" fill="#27e0c0"/>
    <path id="Path_3036" data-name="Path 3036" d="M3119.667,1210.483l-3.062-13.645-8.323,5.6,2.507,12.423C3111.033,1216.88,3120.269,1215.118,3119.667,1210.483Z" transform="translate(-1344.791 904.462)" fill="#ffaa82"/>
    <path id="Path_3037" data-name="Path 3037" d="M3113.508,1164.8s9.383-3.919,6.48,9.9a24.634,24.634,0,0,1-18.336,18.722c-5.41,1.274-10.762-3.011-10-7.851.337-7.227,1.729-13.751,5.229-18.869.921-5.835,4.445-2.927,11.38-1.819Z" transform="translate(-1338.842 916.451)" fill="#ffaa82"/>
    <path id="Path_3038" data-name="Path 3038" d="M3115.114,1190.574s10.189-1.465,12.159-14.929c2.132-14.571-8.879-15.072-15.943-17.723-5.6-2.1-17.021,3.829-9.734,9.581,1.388,1.1-.1,4.995-.1,6.661.007,2.963,1.47,4.727,1.53,7.611.056,2.729,3,7.624,5.43,8.448C3112.778,1191.692,3115.114,1190.574,3115.114,1190.574Z" transform="translate(-1341.57 918.478)" fill="#492817"/>
    <path id="Path_3039" data-name="Path 3039" d="M3131.851,1285.885c2.3-.89,1.753-40.5-.318-62.368l-40.746,19.386c.205,18.619,2.558,33.313.327,56Z" transform="translate(-1338.559 894.96)" fill="#27e0c0"/>
    <path id="Path_3040" data-name="Path 3040" d="M3104.949,1334.522c10.067-3.672,19.655-7.691,25.29-14.6,2.767-1.6,2.417-4.414-.779-6.259h0c-3.195-1.844-8.072-2.047-10.839-.449l-25.29,14.6c-2.768,1.6-2.418,4.413.777,6.259h0C3097.3,1335.918,3102.183,1336.12,3104.949,1334.522Z" transform="translate(-1338.8 863.395)" fill="#27e0c0"/>
    <path id="Path_3041" data-name="Path 3041" d="M3090.787,1251.86l6.715-3.2c.274,18.151,2.5,32.731.309,55.014l.112-.035c-.048,1.26.849,2.6,2.642,3.637h0c3.2,1.845,8.074,2.047,10.841.449a116.332,116.332,0,0,0,13.777-5.814c-5.558,4.259-12.879,7.229-20.475,10-2.767,1.6-7.646,1.4-10.84-.449h0c-1.792-1.035-2.689-2.377-2.642-3.637l-.111.035C3093.345,1285.174,3090.992,1270.48,3090.787,1251.86Z" transform="translate(-1338.559 886.003)" fill="#27e0c0"/>
    <path id="Path_3042" data-name="Path 3042" d="M3106.1,1469.849l-.106,4.24a.871.871,0,0,1-.169.5,7.737,7.737,0,0,1-7.738,2.958,17.315,17.315,0,0,1-7.011-2.566.88.88,0,0,1-.364-.8l.4-4.318a.884.884,0,0,1,1.324-.691c2.051,1.209,6.6,3.006,12.346-.115A.889.889,0,0,1,3106.1,1469.849Z" transform="translate(-1338.532 807.542)" fill="#644968"/>
    <g id="Group_1493" data-name="Group 1493" transform="translate(1779.756 2265.794)">
      <g id="Group_1492" data-name="Group 1492">
        <path id="Path_3043" data-name="Path 3043" d="M3133.564,1453.216c2.483,2.168,7.628,1.867,9.561-.879.031,1.513.036,3.025,0,4.535-.149,6.153-9.728,6.177-9.579,0C3133.576,1455.655,3133.579,1454.436,3133.564,1453.216Z" transform="translate(-3133.546 -1452.337)" fill="#e1eaf4"/>
      </g>
    </g>
    <path id="Path_3044" data-name="Path 3044" d="M3143.812,1450.345l-.105,4.242a.872.872,0,0,1-.17.5,7.733,7.733,0,0,1-7.737,2.958,17.3,17.3,0,0,1-7.012-2.566.882.882,0,0,1-.365-.8l.4-4.318a.884.884,0,0,1,1.323-.691c2.051,1.21,6.6,3.006,12.346-.115A.889.889,0,0,1,3143.812,1450.345Z" transform="translate(-1351.963 814.489)" fill="#644968"/>
    <path id="Path_3045" data-name="Path 3045" d="M3103.792,1221.782c9.348-1.406,15.661,4.47,17.894-8.993h0a2.988,2.988,0,0,0-4.037.884c-1.6,2.317-5.016,3.783-8.786,3.32a2.961,2.961,0,0,0-2.851,1.337Z" transform="translate(-1343.192 898.938)" fill="#ffde73"/>
    <path id="Path_3046" data-name="Path 3046" d="M3102.485,1188.355c-.685,2.23.054,4.435,1.651,4.926a2.2,2.2,0,0,0,.531.095c1.457.079,2.992-1.256,3.6-3.242.687-2.229-.053-4.435-1.651-4.926S3103.171,1186.126,3102.485,1188.355Z" transform="translate(-1342.635 908.64)" fill="#ffaa82"/>
    <path id="Path_3047" data-name="Path 3047" d="M3034.466,1137.247q3.28,10.616,6.558,21.231a42.31,42.31,0,0,0,1.5,4.312c1.115,2.586,2.741,4.942,3.686,7.595.763,2.137,1.061,4.408,1.631,6.6,1.377,5.313,4.3,10.074,7.177,14.745" transform="translate(-1318.498 925.688)" fill="none" stroke="#ffaa82" stroke-miterlimit="10" stroke-width="3.901"/>
    <path id="Path_3048" data-name="Path 3048" d="M3074.712,1232c-15.958-11.031-23.946-22.134-25.514-32.488-.093-5.058,8.017-5.448,10.951-1.979,2.663,10.893,11.554,18.931,22.9,25.844a6.072,6.072,0,0,1-.4,7.94h0A5.676,5.676,0,0,1,3074.712,1232Z" transform="translate(-1323.746 905.024)" fill="#27e0c0"/>
    <path id="Path_3049" data-name="Path 3049" d="M3031.69,1136.748h0a5.147,5.147,0,0,1-6.98-1.989l-3.32-5.967a5.148,5.148,0,0,1,1.988-6.98h0a5.147,5.147,0,0,1,6.98,1.989l3.321,5.968A5.148,5.148,0,0,1,3031.69,1136.748Z" transform="translate(-1313.612 931.415)" fill="#ffaa82"/>
    <g id="Group_1494" data-name="Group 1494" transform="translate(1515.585 1893.358)">
      <path id="Path_3050" data-name="Path 3050" d="M2768.6,992.851l-40.336-23.288c-2.246-1.3-4.093-4.736-4.125-7.682l-.918-84.548c-.032-2.945,1.762-4.282,4.009-2.985l40.336,23.288c2.247,1.3,4.094,4.737,4.125,7.682l.919,84.547C2772.645,992.812,2770.85,994.147,2768.6,992.851Z" transform="translate(-2723.224 -873.852)" fill="#45446c"/>
      <path id="Path_3051" data-name="Path 3051" d="M2744.022,912.744l-8.674-5.008a7.66,7.66,0,0,1-3.231-6.017h0c-.025-2.307,1.38-3.354,3.14-2.338l8.673,5.008a7.662,7.662,0,0,1,3.231,6.017h0C2747.188,912.714,2745.781,913.76,2744.022,912.744Z" transform="translate(-2726.392 -882.807)" fill="#d84177"/>
      <path id="Path_3052" data-name="Path 3052" d="M2760.76,945.593l-13.077-7.55a6.059,6.059,0,0,1-2.556-4.761h0c-.021-1.825,1.092-2.654,2.484-1.85l13.077,7.55a6.059,6.059,0,0,1,2.556,4.761h0C2763.264,945.568,2762.152,946.4,2760.76,945.593Z" transform="translate(-2731.025 -894.252)" fill="#fff"/>
      <path id="Path_3053" data-name="Path 3053" d="M2771.974,975.45l-24.036-13.877a6.066,6.066,0,0,1-2.557-4.761h0c-.02-1.825,1.093-2.653,2.485-1.85l24.036,13.876a6.063,6.063,0,0,1,2.558,4.761h0C2774.478,975.425,2773.366,976.254,2771.974,975.45Z" transform="translate(-2731.115 -902.633)" fill="#a7d1e8"/>
      <path id="Path_3054" data-name="Path 3054" d="M2761.27,992.653l-13.077-7.55a6.064,6.064,0,0,1-2.557-4.76h0c-.02-1.826,1.093-2.654,2.485-1.85l13.078,7.55a6.066,6.066,0,0,1,2.557,4.761h0C2763.776,992.629,2762.663,993.457,2761.27,992.653Z" transform="translate(-2731.206 -911.014)" fill="#fff"/>
      <path id="Path_3055" data-name="Path 3055" d="M2746.27,1006.1l-8.957-5.17a6.061,6.061,0,0,1-2.556-4.761h0c-.02-1.825,1.093-2.653,2.485-1.85l8.956,5.171a6.067,6.067,0,0,1,2.558,4.761h0C2748.775,1006.075,2747.662,1006.9,2746.27,1006.1Z" transform="translate(-2727.333 -916.651)" fill="#d84177"/>
    </g>
    <g id="Group_1495" data-name="Group 1495" transform="translate(1587.444 2290.282)">
      <path id="Path_3056" data-name="Path 3056" d="M2845.057,1535.945l1.487.859a11.6,11.6,0,0,0,10.5-.019h0c2.571-1.484,6.943-.444,6.932,1.646h0c-.013,2.366,3.3,4.28,7.4,4.272l2.11,0c4.1-.007,7.434-1.932,7.447-4.3.011-2.091,4.4-3.146,6.949-1.672a11.6,11.6,0,0,0,10.5-.019l1.5-.865c2.908-1.679,2.922-4.392.032-6.061h0c-2.553-1.474-.726-4,2.9-4.012h0c4.1-.007,7.434-1.932,7.447-4.3l.007-1.218c.013-2.367-3.3-4.28-7.4-4.272h0c-3.621.006-5.421-2.519-2.853-4,2.908-1.679,2.922-4.393.034-6.06l-1.488-.859a11.6,11.6,0,0,0-10.5.018h0c-2.569,1.484-6.943.445-6.931-1.647h0c.013-2.367-3.3-4.28-7.4-4.273l-2.11,0c-4.1.008-7.434,1.932-7.447,4.3h0c-.012,2.091-4.4,3.145-6.949,1.672h0a11.6,11.6,0,0,0-10.5.019l-1.5.865c-2.908,1.679-2.923,4.392-.033,6.061h0c2.553,1.474.725,4.006-2.9,4.012h0c-4.1.007-7.434,1.932-7.447,4.3l-.006,1.219c-.013,2.367,3.3,4.28,7.4,4.273h0c3.622-.006,5.421,2.518,2.854,4h0C2842.182,1531.562,2842.167,1534.276,2845.057,1535.945Zm14.422-7.468c-7.172-4.141-7.136-10.876.083-15.043s18.882-4.188,26.055-.047,7.135,10.876-.082,15.042S2866.651,1532.618,2859.479,1528.477Z" transform="translate(-2834.837 -1493.503)" fill="#8db0da"/>
      <path id="Path_3057" data-name="Path 3057" d="M2845.057,1527.159l1.487.859a11.6,11.6,0,0,0,10.5-.019h0c2.571-1.483,6.943-.443,6.932,1.647h0c-.013,2.368,3.3,4.281,7.4,4.273l2.11,0c4.1-.007,7.434-1.932,7.447-4.3.011-2.091,4.4-3.146,6.949-1.672a11.6,11.6,0,0,0,10.5-.019l1.5-.865c2.908-1.679,2.922-4.393.032-6.062h0c-2.553-1.474-.726-4.005,2.9-4.011h0c4.1-.008,7.434-1.933,7.447-4.3l.007-1.219c.013-2.367-3.3-4.28-7.4-4.272h0c-3.621.006-5.421-2.519-2.853-4,2.908-1.679,2.922-4.394.034-6.062l-1.488-.859a11.6,11.6,0,0,0-10.5.019h0c-2.569,1.483-6.943.444-6.931-1.647h0c.013-2.367-3.3-4.28-7.4-4.273l-2.11,0c-4.1.008-7.434,1.933-7.447,4.3h0c-.012,2.091-4.4,3.146-6.949,1.672h0a11.6,11.6,0,0,0-10.5.02l-1.5.864c-2.908,1.679-2.923,4.393-.033,6.061h0c2.553,1.474.725,4.006-2.9,4.012h0c-4.1.008-7.434,1.933-7.447,4.3l-.006,1.219c-.013,2.366,3.3,4.28,7.4,4.273h0c3.622-.007,5.421,2.518,2.854,4h0C2842.182,1522.776,2842.167,1525.491,2845.057,1527.159Zm14.422-7.468c-7.172-4.141-7.136-10.876.083-15.042s18.882-4.189,26.055-.048,7.135,10.876-.082,15.043S2866.651,1523.832,2859.479,1519.691Z" transform="translate(-2834.837 -1490.373)" fill="#a8c4e5"/>
    </g>
    <g id="Group_1496" data-name="Group 1496" transform="translate(1489.264 2262.033)">
      <path id="Path_3058" data-name="Path 3058" d="M2698.1,1516.765l2.293,1.323c4.456,2.573,11.7,2.56,16.188-.029h0c3.961-2.287,10.7-.685,10.687,2.54h0c-.02,3.65,5.09,6.6,11.412,6.588l3.255-.006c6.321-.012,11.462-2.98,11.483-6.629.017-3.224,6.777-4.851,10.714-2.578,4.456,2.573,11.7,2.56,16.188-.03l2.308-1.333c4.485-2.589,4.508-6.774.051-9.346h0c-3.937-2.273-1.119-6.177,4.466-6.187h0c6.323-.011,11.464-2.98,11.484-6.63l.009-1.879c.021-3.65-5.089-6.6-11.411-6.588h0c-5.585.01-8.36-3.883-4.4-6.171,4.484-2.589,4.507-6.774.05-9.346l-2.294-1.324c-4.456-2.573-11.7-2.56-16.188.029h0c-3.961,2.288-10.705.685-10.687-2.54h0c.019-3.65-5.089-6.6-11.412-6.589l-3.254.006c-6.321.012-11.462,2.98-11.482,6.63h0c-.018,3.225-6.779,4.852-10.715,2.578h0c-4.456-2.573-11.7-2.56-16.188.03l-2.309,1.332c-4.484,2.589-4.507,6.774-.051,9.347h0c3.936,2.272,1.118,6.176-4.467,6.186h0c-6.322.011-11.463,2.98-11.482,6.63l-.011,1.879c-.019,3.65,5.09,6.6,11.412,6.588h0c5.584-.01,8.36,3.883,4.4,6.171h0C2693.666,1510.007,2693.644,1514.191,2698.1,1516.765Zm22.238-11.516c-11.059-6.385-11-16.77.126-23.2s29.117-6.457,40.176-.072,11,16.77-.125,23.2S2731.4,1511.634,2720.339,1505.249Z" transform="translate(-2682.34 -1451.319)" fill="#8db0da"/>
      <path id="Path_3059" data-name="Path 3059" d="M2698.1,1503.217l2.293,1.324c4.456,2.573,11.7,2.56,16.188-.029h0c3.961-2.288,10.7-.685,10.687,2.54h0c-.02,3.651,5.09,6.6,11.412,6.589l3.255-.006c6.321-.011,11.462-2.98,11.483-6.63.017-3.224,6.777-4.851,10.714-2.578,4.456,2.572,11.7,2.559,16.188-.03l2.308-1.333c4.485-2.589,4.508-6.774.051-9.347h0c-3.937-2.273-1.119-6.177,4.466-6.187h0c6.323-.012,11.464-2.98,11.484-6.63l.009-1.879c.021-3.65-5.089-6.6-11.411-6.588h0c-5.585.01-8.36-3.884-4.4-6.17,4.484-2.589,4.507-6.774.05-9.347l-2.294-1.324c-4.456-2.573-11.7-2.56-16.188.03h0c-3.961,2.286-10.705.684-10.687-2.54h0c.019-3.651-5.089-6.6-11.412-6.588l-3.254.006c-6.321.011-11.462,2.979-11.482,6.629h0c-.018,3.224-6.779,4.851-10.715,2.578h0c-4.456-2.573-11.7-2.56-16.188.029l-2.309,1.332c-4.484,2.589-4.507,6.774-.051,9.346h0c3.936,2.273,1.118,6.177-4.467,6.187h0c-6.322.011-11.463,2.979-11.482,6.63l-.011,1.879c-.019,3.65,5.09,6.6,11.412,6.588h0c5.584-.01,8.36,3.884,4.4,6.17h0C2693.666,1496.459,2693.644,1500.645,2698.1,1503.217Zm22.238-11.516c-11.059-6.384-11-16.77.126-23.2s29.117-6.458,40.176-.073,11,16.771-.125,23.2S2731.4,1498.087,2720.339,1491.7Z" transform="translate(-2682.34 -1446.494)" fill="#a8c4e5"/>
    </g>
  </g>
</svg>
