<svg xmlns="http://www.w3.org/2000/svg" width="68.002" height="68" viewBox="0 0 68.002 68">
  <g id="Vector_Smart_Object" data-name="Vector Smart Object" transform="translate(-401.5 -5912.5)">
    <g id="Vector_Smart_Object-2" data-name="Vector Smart Object" transform="translate(383.962 5894.811)">
      <g id="Group_70" data-name="Group 70">
        <path id="Path_228" data-name="Path 228" d="M51.934,65.714A13.3,13.3,0,0,0,65.327,53.944a12.8,12.8,0,0,0,.12-2.24,14.644,14.644,0,0,0-14.49-14.041.643.643,0,0,0-.645.671A.7.7,0,0,0,51,39,13.244,13.244,0,0,1,64.11,51.7,11.445,11.445,0,0,1,64,53.726,12.024,12.024,0,0,1,51.887,64.372a.643.643,0,0,0-.646.671A.7.7,0,0,0,51.934,65.714Z" fill="#fff" stroke="#fff" stroke-width="1"/>
        <path id="Path_229" data-name="Path 229" d="M84.666,46.363a.7.7,0,0,0-.482-.638L77.475,43.55a.753.753,0,0,1-.466-.465,33.463,33.463,0,0,0-1.645-3.653.55.55,0,0,1,0-.578l2.927-6.278a.686.686,0,0,0-.153-.776l-7.8-7.56a.676.676,0,0,0-.78-.124L63.43,27.292a.748.748,0,0,1-.653.016,22.479,22.479,0,0,0-3.613-1.5.749.749,0,0,1-.464-.489L56.29,18.663a.7.7,0,0,0-.651-.461H50.322c-.012,0-.02-.013-.032-.013H44.913a.639.639,0,0,0-.619.463l-1.563,5.387h-1.37A3.715,3.715,0,0,0,37.8,21.1,3.459,3.459,0,0,0,34.324,24.7a3.763,3.763,0,0,0,3.723,3.608,3.45,3.45,0,0,0,3.427-2.932h1.79a.639.639,0,0,0,.619-.462l1.563-5.387h4.849c.012,0,.02.013.032.013H55.2l2.234,6.169a2.158,2.158,0,0,0,1.33,1.359,21.515,21.515,0,0,1,3.46,1.439,2.129,2.129,0,0,0,1.829-.01l5.726-2.966,7.092,6.873-2.706,5.807a1.855,1.855,0,0,0,.041,1.851A32.45,32.45,0,0,1,75.754,43.5a2.168,2.168,0,0,0,1.315,1.313l6.276,2.035.338,9.712-6.165,2.046a1.949,1.949,0,0,0-1.189,1.277,31.67,31.67,0,0,1-1.3,3.4,1.922,1.922,0,0,0,.055,1.87L78.216,71,71.6,77.876,65.646,74.9a2.126,2.126,0,0,0-1.831.013,22.328,22.328,0,0,1-3.372,1.439,1.949,1.949,0,0,0-1.191,1.29L57.44,83.834H52.565c-.012,0-.019.012-.031.013H47.685l-1.937-5.36a.7.7,0,0,0-.651-.463H40.562A3.714,3.714,0,0,0,37,75.1,3.459,3.459,0,0,0,33.528,78.7a3.763,3.763,0,0,0,3.723,3.608,3.449,3.449,0,0,0,3.428-2.946h3.978l1.937,5.36a.7.7,0,0,0,.651.463h5.377v-.013H57.97a.638.638,0,0,0,.619-.461l1.952-6.666a.647.647,0,0,1,.393-.434,23.161,23.161,0,0,0,3.509-1.5.784.784,0,0,1,.663-.01l6.374,3.186a.662.662,0,0,0,.772-.124l7.274-7.56a.666.666,0,0,0,.1-.776l-3.375-6.3a.614.614,0,0,1-.009-.637,33.109,33.109,0,0,0,1.377-3.594.645.645,0,0,1,.395-.434L84.6,57.685a.644.644,0,0,0,.438-.638ZM38,26.971A2.364,2.364,0,0,1,35.661,24.7a2.173,2.173,0,0,1,2.181-2.265A2.363,2.363,0,0,1,40.181,24.7,2.173,2.173,0,0,1,38,26.971Zm-.8,54A2.364,2.364,0,0,1,34.866,78.7a2.173,2.173,0,0,1,2.181-2.265A2.363,2.363,0,0,1,39.386,78.7,2.173,2.173,0,0,1,37.2,80.97Z" fill="#fff" stroke="#fff" stroke-width="1"/>
        <path id="Path_230" data-name="Path 230" d="M26.187,38.789a3.447,3.447,0,0,0,3.425-2.939h17.5l.191,5.495a.7.7,0,0,0,.692.671h3.114a.643.643,0,0,0,.646-.671.7.7,0,0,0-.692-.671H48.617l-.191-5.495a.7.7,0,0,0-.692-.671H29.5a3.711,3.711,0,0,0-3.562-2.935,3.459,3.459,0,0,0-3.472,3.607A3.763,3.763,0,0,0,26.187,38.789Zm-.2-5.873a2.36,2.36,0,0,1,2.331,2.243c0,.008-.008.013-.008.021s.009.013.01.022a2.17,2.17,0,0,1-2.175,2.246A2.364,2.364,0,0,1,23.8,35.18,2.173,2.173,0,0,1,25.982,32.915Z" fill="#fff" stroke="#fff" stroke-width="1"/>
        <path id="Path_231" data-name="Path 231" d="M25.189,52.375h8.355a.645.645,0,0,0,.536-.283l1.287-1.918h5.212a.643.643,0,0,0,.645-.671.7.7,0,0,0-.692-.671H34.975a.645.645,0,0,0-.536.283l-1.287,1.918H25.075A3.711,3.711,0,0,0,21.513,48.1,3.459,3.459,0,0,0,18.041,51.7a3.763,3.763,0,0,0,3.723,3.608A3.447,3.447,0,0,0,25.189,52.375Zm-3.472,1.6A2.364,2.364,0,0,1,19.378,51.7a2.173,2.173,0,0,1,2.181-2.265A2.363,2.363,0,0,1,23.9,51.7,2.173,2.173,0,0,1,21.717,53.971Z" fill="#fff" stroke="#fff" stroke-width="1"/>
        <path id="Path_232" data-name="Path 232" d="M52.071,52.375h9.617a.643.643,0,0,0,.646-.671.7.7,0,0,0-.692-.671H51.957A3.711,3.711,0,0,0,48.395,48.1,3.459,3.459,0,0,0,44.923,51.7a3.763,3.763,0,0,0,3.723,3.608A3.447,3.447,0,0,0,52.071,52.375Zm-3.472,1.6A2.364,2.364,0,0,1,46.26,51.7a2.173,2.173,0,0,1,2.181-2.265A2.363,2.363,0,0,1,50.778,51.7,2.173,2.173,0,0,1,48.6,53.971Z" fill="#fff" stroke="#fff" stroke-width="1"/>
        <path id="Path_233" data-name="Path 233" d="M39.146,68.9c.331.489.917,1.284,1.932,2.652a.7.7,0,0,0,.556.283h7.4a.643.643,0,0,0,.645-.671.7.7,0,0,0-.692-.671H41.932c-.524-.707-1.853-2.5-1.949-2.636a.694.694,0,0,0-.567-.3H30.649a3.711,3.711,0,0,0-3.563-2.939,3.459,3.459,0,0,0-3.472,3.607,3.763,3.763,0,0,0,3.723,3.608A3.447,3.447,0,0,0,30.762,68.9ZM27.291,70.494a2.364,2.364,0,0,1-2.339-2.267,2.173,2.173,0,0,1,2.181-2.265,2.361,2.361,0,0,1,2.332,2.246c0,.009-.009.014-.009.022s.009.012.009.02A2.17,2.17,0,0,1,27.291,70.494Z" fill="#fff" stroke="#fff" stroke-width="1"/>
        <path id="Path_234" data-name="Path 234" d="M45.973,43.442a.7.7,0,0,0-.692-.671H35.551a3.714,3.714,0,0,0-3.564-2.936,3.459,3.459,0,0,0-3.472,3.607,3.763,3.763,0,0,0,3.723,3.608,3.45,3.45,0,0,0,3.428-2.937h9.661A.643.643,0,0,0,45.973,43.442ZM32.191,45.709a2.364,2.364,0,0,1-2.339-2.267,2.173,2.173,0,0,1,2.181-2.265,2.363,2.363,0,0,1,2.339,2.265A2.173,2.173,0,0,1,32.191,45.709Z" fill="#fff" stroke="#fff" stroke-width="1"/>
        <path id="Path_235" data-name="Path 235" d="M46.253,62.217l-.079-2.265a.7.7,0,0,0-.692-.671H38.8a3.714,3.714,0,0,0-3.561-2.922,3.459,3.459,0,0,0-3.472,3.607,3.763,3.763,0,0,0,3.723,3.608,3.449,3.449,0,0,0,3.429-2.952h5.942l.079,2.265a.7.7,0,0,0,.692.671h3.114a.643.643,0,0,0,.645-.671.7.7,0,0,0-.692-.671Zm-10.811.016A2.364,2.364,0,0,1,33.1,59.966,2.173,2.173,0,0,1,35.284,57.7a2.36,2.36,0,0,1,2.332,2.234c0,.006-.006.01-.006.017s.011.016.012.026A2.172,2.172,0,0,1,35.442,62.232Z" fill="#fff" stroke="#fff" stroke-width="1"/>
      </g>
    </g>
    <path id="Color_Overlay" data-name="Color Overlay" d="M431.206,5980a.691.691,0,0,1-.65-.462l-1.938-5.359H424.64a3.448,3.448,0,0,1-3.428,2.946,3.763,3.763,0,0,1-3.723-3.608,3.461,3.461,0,0,1,3.473-3.607,3.713,3.713,0,0,1,3.561,2.928h4.534a.7.7,0,0,1,.653.462l1.936,5.359H436.5c.012,0,.02-.014.031-.014H441.4l1.811-6.192a1.948,1.948,0,0,1,1.192-1.291,22.343,22.343,0,0,0,3.372-1.437,2.122,2.122,0,0,1,1.831-.014l5.957,2.976,6.614-6.872-3.132-5.847a1.922,1.922,0,0,1-.056-1.869,31.7,31.7,0,0,0,1.3-3.4,1.946,1.946,0,0,1,1.189-1.279l6.165-2.045-.338-9.713-6.276-2.035a2.169,2.169,0,0,1-1.316-1.312,32.338,32.338,0,0,0-1.546-3.437,1.853,1.853,0,0,1-.041-1.852l2.706-5.805-7.093-6.874-5.725,2.967a2.134,2.134,0,0,1-1.829.009,21.439,21.439,0,0,0-3.459-1.438,2.161,2.161,0,0,1-1.33-1.359l-2.235-6.17h-4.875c-.013,0-.02-.012-.033-.012h-4.848l-1.564,5.388a.639.639,0,0,1-.62.46h-1.789a3.448,3.448,0,0,1-3.428,2.933,3.763,3.763,0,0,1-3.723-3.608,3.461,3.461,0,0,1,3.473-3.606,3.715,3.715,0,0,1,3.566,2.942h1.37l1.562-5.388a.638.638,0,0,1,.62-.462h5.376c.014,0,.02.012.033.013H439.6a.7.7,0,0,1,.651.461l2.41,6.654a.754.754,0,0,0,.464.489,22.353,22.353,0,0,1,3.614,1.5.748.748,0,0,0,.653-.017l6.128-3.176a.676.676,0,0,1,.78.125l7.8,7.561a.683.683,0,0,1,.152.774l-2.927,6.278a.548.548,0,0,0,0,.578,34.069,34.069,0,0,1,1.645,3.653.756.756,0,0,0,.465.466l6.708,2.173a.7.7,0,0,1,.483.639l.372,10.683a.644.644,0,0,1-.438.638l-6.59,2.188a.642.642,0,0,0-.393.434,32.872,32.872,0,0,1-1.379,3.593.617.617,0,0,0,.009.637l3.377,6.3a.668.668,0,0,1-.1.776l-7.274,7.559a.663.663,0,0,1-.771.125l-6.374-3.186a.778.778,0,0,0-.663.011,23.245,23.245,0,0,1-3.509,1.5.642.642,0,0,0-.392.434l-1.953,6.665a.64.64,0,0,1-.62.461h-5.347V5980Zm-12.378-6.485a2.364,2.364,0,0,0,2.338,2.267,2.174,2.174,0,0,0,2.181-2.267,2.363,2.363,0,0,0-2.338-2.265A2.17,2.17,0,0,0,418.828,5973.515Zm.8-54a2.364,2.364,0,0,0,2.338,2.268,2.176,2.176,0,0,0,2.182-2.268,2.363,2.363,0,0,0-2.34-2.265A2.171,2.171,0,0,0,419.623,5919.515Zm5.972,47.132a.7.7,0,0,1-.555-.284c-1.015-1.369-1.6-2.163-1.932-2.652h-8.385a3.445,3.445,0,0,1-3.425,2.936,3.765,3.765,0,0,1-3.723-3.608,3.46,3.46,0,0,1,3.473-3.608,3.712,3.712,0,0,1,3.563,2.938h8.766a.693.693,0,0,1,.567.3c.1.133,1.426,1.93,1.95,2.637h7.054a.7.7,0,0,1,.692.671.642.642,0,0,1-.645.671Zm-16.681-3.608a2.363,2.363,0,0,0,2.338,2.266,2.169,2.169,0,0,0,2.175-2.244c0-.008-.009-.014-.009-.02s.008-.015.008-.022a2.36,2.36,0,0,0-2.331-2.247A2.173,2.173,0,0,0,408.914,5963.04Zm26.289-3.185a.645.645,0,0,1,.647-.672,12.022,12.022,0,0,0,12.111-10.646,11.326,11.326,0,0,0,.11-2.021,13.242,13.242,0,0,0-13.1-12.7.7.7,0,0,1-.692-.672.641.641,0,0,1,.645-.669,14.645,14.645,0,0,1,14.49,14.041,12.7,12.7,0,0,1-.12,2.239,13.3,13.3,0,0,1-13.393,11.769A.7.7,0,0,1,435.2,5959.855Zm-19.476-5.077a3.459,3.459,0,0,1,3.471-3.608,3.714,3.714,0,0,1,3.561,2.922h6.683a.7.7,0,0,1,.692.671l.08,2.265h2.445a.7.7,0,0,1,.693.671.644.644,0,0,1-.645.671h-3.116a.7.7,0,0,1-.692-.671l-.078-2.265h-5.943a3.448,3.448,0,0,1-3.428,2.952A3.762,3.762,0,0,1,415.727,5954.778Zm1.337,0a2.363,2.363,0,0,0,2.34,2.266,2.171,2.171,0,0,0,2.178-2.254c0-.012-.01-.017-.01-.027s.006-.009.006-.017a2.361,2.361,0,0,0-2.332-2.235A2.173,2.173,0,0,0,417.064,5954.778Zm11.82-8.262a3.46,3.46,0,0,1,3.471-3.608,3.711,3.711,0,0,1,3.563,2.937H445.6a.7.7,0,0,1,.693.671.642.642,0,0,1-.645.669h-9.617a3.448,3.448,0,0,1-3.425,2.938A3.763,3.763,0,0,1,428.885,5946.516Zm1.337,0a2.364,2.364,0,0,0,2.338,2.266,2.173,2.173,0,0,0,2.179-2.266,2.364,2.364,0,0,0-2.337-2.266A2.174,2.174,0,0,0,430.222,5946.516Zm-28.219,0a3.459,3.459,0,0,1,3.471-3.608,3.711,3.711,0,0,1,3.563,2.937h8.077l1.288-1.919a.645.645,0,0,1,.536-.282h5.556a.7.7,0,0,1,.693.671.643.643,0,0,1-.645.671h-5.212l-1.288,1.918a.642.642,0,0,1-.536.282h-8.355a3.448,3.448,0,0,1-3.425,2.938A3.763,3.763,0,0,1,402,5946.516Zm1.337,0a2.364,2.364,0,0,0,2.338,2.266,2.173,2.173,0,0,0,2.179-2.266,2.364,2.364,0,0,0-2.337-2.266A2.174,2.174,0,0,0,403.34,5946.516Zm9.137-8.263a3.458,3.458,0,0,1,3.471-3.6,3.711,3.711,0,0,1,3.564,2.936h9.73a.7.7,0,0,1,.693.669.645.645,0,0,1-.647.672h-9.661a3.452,3.452,0,0,1-3.428,2.937A3.764,3.764,0,0,1,412.477,5938.252Zm1.337,0a2.364,2.364,0,0,0,2.34,2.268,2.173,2.173,0,0,0,2.181-2.268,2.364,2.364,0,0,0-2.338-2.265A2.173,2.173,0,0,0,413.814,5938.252Zm18.143-1.426a.7.7,0,0,1-.692-.671l-.192-5.5h-17.5a3.446,3.446,0,0,1-3.426,2.938,3.761,3.761,0,0,1-3.722-3.608,3.46,3.46,0,0,1,3.471-3.606,3.714,3.714,0,0,1,3.563,2.936H431.7a.7.7,0,0,1,.692.671l.191,5.494h2.446a.7.7,0,0,1,.692.671.644.644,0,0,1-.645.671Zm-24.194-6.836a2.365,2.365,0,0,0,2.34,2.268,2.171,2.171,0,0,0,2.175-2.247c0-.007-.009-.014-.009-.021s.006-.014.006-.021a2.359,2.359,0,0,0-2.331-2.244A2.172,2.172,0,0,0,407.763,5929.991Z" fill="#fff" stroke="#fff" stroke-width="1"/>
  </g>
</svg>
