<svg xmlns="http://www.w3.org/2000/svg" width="36.127" height="37.71" viewBox="0 0 36.127 37.71">
  <g id="NewGroup40-0" transform="translate(-208.393 -130)">
    <g id="Group_3521" data-name="Group 3521" transform="translate(208.392 130)">
      <path id="Path_13915" data-name="Path 13915" d="M320.239,489.361h4.351a.659.659,0,1,0,0-1.319h-4.351a.659.659,0,1,0,0,1.319Z" transform="translate(-309.098 -454.288)" fill="#fff"/>
      <path id="Path_13916" data-name="Path 13916" d="M233.708,162.436v3.259a.7.7,0,0,1-.7.7h-22.6a.7.7,0,0,1-.7-.7v-3.259Zm-23.793-30.913a.691.691,0,0,1,.492-.2h2.732a.659.659,0,0,0,0-1.319h-2.732a2.014,2.014,0,0,0-2.015,2.015v33.68a2.014,2.014,0,0,0,2.015,2.015h22.6a2.015,2.015,0,0,0,2.015-2.015v-8.009a.659.659,0,0,0-1.319,0h0v3.431h-24v-29.1a.691.691,0,0,1,.2-.492Z" transform="translate(-208.392 -130)" fill="#fff"/>
      <path id="Path_13917" data-name="Path 13917" d="M473.006,220.62h0Z" transform="translate(-448.059 -212.077)" fill="#fff"/>
      <path id="Path_13918" data-name="Path 13918" d="M417.21,273.4v0h0v0Z" transform="translate(-397.524 -259.876)" fill="#fff"/>
      <path id="Path_13919" data-name="Path 13919" d="M531.955,239.52h0Z" transform="translate(-501.452 -229.195)" fill="#fff"/>
      <path id="Path_13920" data-name="Path 13920" d="M472.622,180.79h0Z" transform="translate(-447.712 -176.002)" fill="#fff"/>
      <path id="Path_13921" data-name="Path 13921" d="M493.259,355.7h0Z" transform="translate(-466.403 -334.419)" fill="#fff"/>
      <path id="Path_13922" data-name="Path 13922" d="M473.007,355.463h0Z" transform="translate(-448.059 -334.207)" fill="#fff"/>
      <path id="Path_13923" data-name="Path 13923" d="M493.246,220.4h0Z" transform="translate(-466.392 -211.877)" fill="#fff"/>
      <path id="Path_13924" data-name="Path 13924" d="M425.474,230a5.1,5.1,0,0,1-2.712,1.257h0a5.147,5.147,0,0,1-.7.048,5.081,5.081,0,0,1-.817-.065h0a5.131,5.131,0,0,1-4.14-3.773,5.212,5.212,0,0,1-.161-1.282,5.062,5.062,0,0,1,.119-1.1v0a5.126,5.126,0,0,1,4.182-3.956h0a5.081,5.081,0,0,1,.817-.065,4.922,4.922,0,0,1,.7.049h0a5.1,5.1,0,0,1,2.9,1.432h0a5.1,5.1,0,0,1,1.4,2.539v0a5.062,5.062,0,0,1,.119,1.1,5.208,5.208,0,0,1-.161,1.282A5.116,5.116,0,0,1,425.474,230Zm1.116-8.389a6.424,6.424,0,0,0-.77-.652h0a6.4,6.4,0,0,0-2.878-1.15,6.258,6.258,0,0,0-.881-.062,6.44,6.44,0,0,0-6.438,6.438,6.519,6.519,0,0,0,.2,1.607v0a6.441,6.441,0,0,0,12.471,0v0a6.522,6.522,0,0,0,.2-1.607,6.438,6.438,0,0,0-1.909-4.574Z" transform="translate(-396.086 -211.287)" fill="#fff"/>
      <path id="Path_13925" data-name="Path 13925" d="M550.617,273.394h0v0Z" transform="translate(-518.354 -259.876)" fill="#fff"/>
      <path id="Path_13926" data-name="Path 13926" d="M472.624,395.291h0Z" transform="translate(-447.712 -370.281)" fill="#fff"/>
      <path id="Path_13927" data-name="Path 13927" d="M333.139,145.581a.467.467,0,0,1-.126.318l-.006.006a.317.317,0,0,1-.062.053l-.008.006a.464.464,0,0,1-.193.076h0a1.79,1.79,0,0,0-.875.39,1.745,1.745,0,0,0-.548.8v0a7.5,7.5,0,0,1-.407.984h0a1.73,1.73,0,0,0-.186.784,1.793,1.793,0,0,0,.351,1.062l0,0a.454.454,0,0,1,.091.273.463.463,0,0,1-.137.329l-.964.964a.46.46,0,0,1-.33.138.446.446,0,0,1-.271-.09l0,0a1.789,1.789,0,0,0-1.064-.352,1.74,1.74,0,0,0-.786.187h0a7.488,7.488,0,0,1-.984.407h0a1.745,1.745,0,0,0-.8.548,1.791,1.791,0,0,0-.39.875.042.042,0,0,1,0,.005.462.462,0,0,1-.411.389l-.028,0h-1.385a.461.461,0,0,1-.1-.011h0a.465.465,0,0,1-.358-.382s0,0,0-.005a1.791,1.791,0,0,0-.39-.875,1.745,1.745,0,0,0-.8-.548h0a7.481,7.481,0,0,1-.983-.407h0a1.73,1.73,0,0,0-.784-.186,1.793,1.793,0,0,0-1.062.351l0,0a.453.453,0,0,1-.273.091.463.463,0,0,1-.329-.137l-.964-.964a.46.46,0,0,1-.138-.33.447.447,0,0,1,.09-.271l0,0a1.789,1.789,0,0,0,.352-1.064,1.74,1.74,0,0,0-.187-.786v0a7.5,7.5,0,0,1-.407-.984v0a1.745,1.745,0,0,0-.548-.8,1.79,1.79,0,0,0-.875-.39h0a.463.463,0,0,1-.193-.076l-.008-.006a.323.323,0,0,1-.063-.053l-.005-.006a.467.467,0,0,1-.126-.318v-1.365a.442.442,0,0,1,.06-.224l0-.008a.48.48,0,0,1,.142-.153.473.473,0,0,1,.187-.072h.005a1.79,1.79,0,0,0,.875-.39,1.745,1.745,0,0,0,.548-.8v0a7.493,7.493,0,0,1,.407-.984h0a1.73,1.73,0,0,0,.186-.784,1.793,1.793,0,0,0-.351-1.062l0,0a.454.454,0,0,1-.091-.273.464.464,0,0,1,.137-.33l.964-.964a.46.46,0,0,1,.33-.138.447.447,0,0,1,.271.09l0,0a1.789,1.789,0,0,0,1.064.352,1.742,1.742,0,0,0,.786-.186h0a7.5,7.5,0,0,1,.984-.407h0a1.744,1.744,0,0,0,.8-.547,1.791,1.791,0,0,0,.39-.875s0,0,0,0a.465.465,0,0,1,.358-.382h0a.451.451,0,0,1,.1-.011h1.385l.028,0a.461.461,0,0,1,.411.39.038.038,0,0,1,0,.005,1.791,1.791,0,0,0,.39.875,1.744,1.744,0,0,0,.8.547h0a7.5,7.5,0,0,1,.984.407h0a1.729,1.729,0,0,0,.784.186,1.791,1.791,0,0,0,1.062-.351l0,0a.453.453,0,0,1,.273-.091.463.463,0,0,1,.33.137l.964.964a.46.46,0,0,1,.138.33.447.447,0,0,1-.09.271l0,0a1.787,1.787,0,0,0-.352,1.064,1.738,1.738,0,0,0,.187.786v0a7.493,7.493,0,0,1,.407.984v0a1.744,1.744,0,0,0,.548.8,1.791,1.791,0,0,0,.875.39h.005a.472.472,0,0,1,.187.072.479.479,0,0,1,.142.153l0,.008a.442.442,0,0,1,.06.224v1.365Zm1.085-2.243v0l0-.005h0a1.792,1.792,0,0,0-.549-.594l-.009-.006a1.794,1.794,0,0,0-.723-.276h0a.472.472,0,0,1-.228-.1.426.426,0,0,1-.135-.2v0a8.79,8.79,0,0,0-.479-1.158v0a.423.423,0,0,1-.045-.191.471.471,0,0,1,.093-.279l0,0a1.778,1.778,0,0,0-.171-2.323l-.964-.964a1.78,1.78,0,0,0-2.322-.172l0,0a.472.472,0,0,1-.281.095.407.407,0,0,1-.188-.043l-.006,0a8.754,8.754,0,0,0-1.158-.479h0a.426.426,0,0,1-.2-.135.471.471,0,0,1-.1-.228s0,0,0,0a1.778,1.778,0,0,0-1.557-1.505h0l-.015,0-.02,0h0a1.507,1.507,0,0,0-.169-.01h-.024v-2.732A2.014,2.014,0,0,0,322.95,130h-14.6a.659.659,0,1,0,0,1.319h14.6a.7.7,0,0,1,.7.7v2.732h-.024a1.784,1.784,0,0,0-1.762,1.519.044.044,0,0,1,0,0,.472.472,0,0,1-.1.228.425.425,0,0,1-.2.135h0a8.761,8.761,0,0,0-1.158.479h0a.423.423,0,0,1-.191.045.471.471,0,0,1-.279-.093l0,0a1.778,1.778,0,0,0-2.323.171l-.964.964a1.78,1.78,0,0,0-.172,2.322l0,0a.474.474,0,0,1,.095.281.409.409,0,0,1-.043.188l0,.006a8.761,8.761,0,0,0-.479,1.158v0a.426.426,0,0,1-.135.2.472.472,0,0,1-.228.1h0a1.8,1.8,0,0,0-.723.276l-.009.006a1.792,1.792,0,0,0-.549.594h0l0,.005,0,0h0a1.762,1.762,0,0,0-.234.878v1.365a1.787,1.787,0,0,0,.467,1.2h0l0,0,0,0h0a1.634,1.634,0,0,0,.3.257h0l0,0,0,0h0a1.78,1.78,0,0,0,.74.292h.006a.474.474,0,0,1,.229.1.426.426,0,0,1,.135.2v0a8.772,8.772,0,0,0,.479,1.158v0a.422.422,0,0,1,.045.191.471.471,0,0,1-.093.279l0,0a1.778,1.778,0,0,0,.171,2.323l.964.964a1.78,1.78,0,0,0,2.322.172l0,0a.473.473,0,0,1,.281-.095.409.409,0,0,1,.188.043l.006,0a8.775,8.775,0,0,0,1.158.479h0a.426.426,0,0,1,.2.135.472.472,0,0,1,.1.228.046.046,0,0,1,0,0,1.784,1.784,0,0,0,1.762,1.519h1.366a1.522,1.522,0,0,0,.169-.01h0l.02,0,.015,0h0a1.778,1.778,0,0,0,1.557-1.5s0,0,0,0a.474.474,0,0,1,.1-.228.427.427,0,0,1,.2-.135h0a8.769,8.769,0,0,0,1.158-.479h0a.423.423,0,0,1,.191-.045.471.471,0,0,1,.279.093l0,0a1.778,1.778,0,0,0,2.323-.171l.964-.964a1.78,1.78,0,0,0,.172-2.322l0,0a.473.473,0,0,1-.095-.281.409.409,0,0,1,.043-.188l0-.006a8.8,8.8,0,0,0,.479-1.158v0a.427.427,0,0,1,.135-.2.474.474,0,0,1,.229-.1h.006a1.781,1.781,0,0,0,.74-.292h0l0,0,0,0h0a1.636,1.636,0,0,0,.3-.257h0l0,0,0,0h0a1.787,1.787,0,0,0,.467-1.2v-1.365a1.763,1.763,0,0,0-.234-.878Z" transform="translate(-298.331 -130)" fill="#fff"/>
      <path id="Path_13928" data-name="Path 13928" d="M328.161,310.748h0Z" transform="translate(-316.87 -293.707)" fill="#fff"/>
      <path id="Path_13929" data-name="Path 13929" d="M328.164,447.149h0Z" transform="translate(-316.87 -417.249)" fill="#fff"/>
      <path id="Path_13930" data-name="Path 13930" d="M270.286,312.947a1.35,1.35,0,0,0,.8.266,1.324,1.324,0,0,0,.595-.141h0a4.279,4.279,0,0,1,.566-.235h0a1.32,1.32,0,0,0,.608-.415,1.352,1.352,0,0,0,.294-.659v0l.007-.014.012-.008h.847l.013.007.008.014s0,0,0,0a1.352,1.352,0,0,0,.295.659,1.319,1.319,0,0,0,.608.415h0a4.276,4.276,0,0,1,.566.235h0a1.328,1.328,0,0,0,.594.14,1.348,1.348,0,0,0,.8-.265h0l.013,0,.018.008,0,0,.589.588h0l.01.022,0,.011,0,0a1.348,1.348,0,0,0-.267.8,1.326,1.326,0,0,0,.141.595,4.255,4.255,0,0,1,.235.566v0a1.32,1.32,0,0,0,.415.608,1.352,1.352,0,0,0,.659.294h.009l0,0,.005,0h0l.005.009,0,.008v.835a.032.032,0,0,1-.009.02l-.007,0-.007,0h0a1.354,1.354,0,0,0-.659.294,1.321,1.321,0,0,0-.415.608v0a4.259,4.259,0,0,1-.235.566h0a1.327,1.327,0,0,0-.139.594,1.352,1.352,0,0,0,.263.8l0,0,0,.014-.009.021-.589.588,0,0-.018.008-.011,0,0,0a1.348,1.348,0,0,0-.8-.267,1.326,1.326,0,0,0-.595.141,4.268,4.268,0,0,1-.566.235h0a1.318,1.318,0,0,0-.608.415,1.352,1.352,0,0,0-.295.659s0,0,0,0l-.008.014-.013.007h-.847l-.012-.008L273.15,322s0,0,0,0a1.352,1.352,0,0,0-.294-.659,1.319,1.319,0,0,0-.608-.415h0a4.271,4.271,0,0,1-.566-.235h0a1.326,1.326,0,0,0-.594-.139,1.35,1.35,0,0,0-.8.265h0l-.014,0-.018-.008,0,0-.589-.588h0l-.01-.022,0-.011,0,0a1.348,1.348,0,0,0,.267-.8,1.327,1.327,0,0,0-.141-.595,4.263,4.263,0,0,1-.235-.566l0,0a1.32,1.32,0,0,0-.415-.608,1.353,1.353,0,0,0-.659-.294h-.01l-.007,0a.031.031,0,0,1-.009-.02v-.835l0-.008,0-.009.006-.006,0,0h.009a1.351,1.351,0,0,0,.659-.294,1.32,1.32,0,0,0,.415-.608l0,0a4.268,4.268,0,0,1,.235-.566v0a1.326,1.326,0,0,0,.139-.594,1.349,1.349,0,0,0-.265-.8h0l0-.014.009-.021.589-.588,0,0,.018-.008.01,0,0,0Zm.807-1.052Zm5,0h0Zm2.487,7.486h0Zm-7.486,2.488h0Zm-1.776-9.847,0,0-.589.588h0a1.344,1.344,0,0,0-.13,1.754v0l.007.018v0h0a5.581,5.581,0,0,0-.308.742v0l-.005,0-.014.005h0a1.336,1.336,0,0,0-.546.209l-.006,0a1.341,1.341,0,0,0-.415.448h0l0,0,0,0h0a1.334,1.334,0,0,0-.175.659v.835a1.35,1.35,0,0,0,.351.906h0l0,0,0,0h0a1.225,1.225,0,0,0,.221.191h0l.01.006.008.006h0a1.334,1.334,0,0,0,.552.216h0l.016.007,0,0v0a5.567,5.567,0,0,0,.308.742h0v0l-.006.017,0,0a1.341,1.341,0,0,0,.129,1.756h0l.588.586a1.342,1.342,0,0,0,1.753.131h0l.018-.007h0a5.564,5.564,0,0,0,.74.307h0l0,.005,0,.013a1.345,1.345,0,0,0,1.33,1.148h.836a1.236,1.236,0,0,0,.127-.008h.016a1.342,1.342,0,0,0,1.187-1.139l.007-.016,0,0h0a5.584,5.584,0,0,0,.742-.308h0l.017.006,0,0a1.34,1.34,0,0,0,1.757-.131l0,0,.589-.588h0a1.344,1.344,0,0,0,.13-1.754l0,0c-.009-.014-.008-.016-.009-.021v0h0a5.54,5.54,0,0,0,.307-.74v0l0,0,.013,0h0a1.335,1.335,0,0,0,.552-.216h0l.008-.006.01-.006h0a1.227,1.227,0,0,0,.221-.191h0l0,0,0,0h0a1.35,1.35,0,0,0,.351-.906v-.835a1.334,1.334,0,0,0-.175-.659h0l0,0,0,0h0a1.342,1.342,0,0,0-.415-.448l-.006,0a1.334,1.334,0,0,0-.546-.209h0l-.017-.007,0,0v0a5.563,5.563,0,0,0-.308-.742h0v0l.006-.017,0,0a1.341,1.341,0,0,0-.128-1.756h0l-.589-.588,0,0a1.342,1.342,0,0,0-1.754-.131h0l-.018.007h0a5.578,5.578,0,0,0-.74-.307h0l0-.005,0-.013a1.342,1.342,0,0,0-1.187-1.139h-.016a1.2,1.2,0,0,0-.127-.007h-.836a1.323,1.323,0,0,0-.288.031,1.345,1.345,0,0,0-1.041,1.116l-.007.016,0,0h0a5.6,5.6,0,0,0-.741.308h0l-.017-.006,0,0a1.34,1.34,0,0,0-1.757.131Z" transform="translate(-261.595 -293.411)" fill="#fff"/>
      <rect id="Rectangle_967" data-name="Rectangle 967" height="0.002" transform="translate(7.725 28.331) rotate(-45)" fill="#fff"/>
      <rect id="Rectangle_968" data-name="Rectangle 968" transform="translate(7.012 20.97)" fill="#fff"/>
      <path id="Path_13931" data-name="Path 13931" d="M329.61,341.666h0Z" transform="translate(-318.182 -321.711)" fill="#fff"/>
      <path id="Path_13932" data-name="Path 13932" d="M340.822,341.537h0Z" transform="translate(-328.337 -321.594)" fill="#fff"/>
      <path id="Path_13933" data-name="Path 13933" d="M298.773,370.845h0v0Z" transform="translate(-290.252 -348.138)" fill="#fff"/>
      <path id="Path_13934" data-name="Path 13934" d="M299.261,344.257v0a2.243,2.243,0,0,1,1.83-1.731h0a2.179,2.179,0,0,1,.661-.008h0a2.221,2.221,0,0,1,1,.4h0a2.261,2.261,0,0,1,.268.227h0a2.228,2.228,0,0,1,.612,1.111v0a2.214,2.214,0,0,1,.053.479,2.243,2.243,0,0,1-1.935,2.22h0a2.281,2.281,0,0,1-.662-.008h0a2.248,2.248,0,0,1-1.812-1.652,2.251,2.251,0,0,1-.071-.561,2.214,2.214,0,0,1,.053-.479Zm-1.371.479a3.566,3.566,0,0,0,.113.889h0a3.566,3.566,0,0,0,2.879,2.624,3.595,3.595,0,0,0,1.058.012,3.564,3.564,0,0,0,2.96-2.637h0a3.563,3.563,0,0,0,.113-.889,3.57,3.57,0,0,0-1.057-2.53,3.558,3.558,0,0,0-2.016-1,3.564,3.564,0,0,0-4.049,3.527Z" transform="translate(-289.453 -321.267)" fill="#fff"/>
      <path id="Path_13935" data-name="Path 13935" d="M340.832,416.357h0Z" transform="translate(-328.344 -389.361)" fill="#fff"/>
      <path id="Path_13936" data-name="Path 13936" d="M329.615,416.23h0Z" transform="translate(-318.185 -389.245)" fill="#fff"/>
      <path id="Path_13937" data-name="Path 13937" d="M357.72,348.294h0Z" transform="translate(-343.642 -327.714)" fill="#fff"/>
      <path id="Path_13938" data-name="Path 13938" d="M372.551,370.843h0v0Z" transform="translate(-357.075 -348.138)" fill="#fff"/>
      <path id="Path_13939" data-name="Path 13939" d="M362.229,352.112h0Z" transform="translate(-347.726 -331.172)" fill="#fff"/>
    </g>
  </g>
</svg>
