<svg xmlns="http://www.w3.org/2000/svg" xmlns:xlink="http://www.w3.org/1999/xlink" width="584.045" height="625.634" viewBox="0 0 584.045 625.634">
  <defs>
    <linearGradient id="linear-gradient" x1="0.353" y1="0.333" x2="0.815" y2="0.894" gradientUnits="objectBoundingBox">
      <stop offset="0" stop-color="#fff"/>
      <stop offset="1" stop-color="#00586c"/>
    </linearGradient>
  </defs>
  <g id="Group_3531" data-name="Group 3531" transform="translate(-15512.023 589.316)">
    <g id="Group_3405" data-name="Group 3405" transform="translate(15615.971 -424.568)">
      <g id="Group_3400" data-name="Group 3400" transform="translate(0 47.898)">
        <path id="Path_13750" data-name="Path 13750" d="M711.178,873.734a2.086,2.086,0,0,1-1.8-1,2.059,2.059,0,0,1,.682-2.847l.06-.035a2.087,2.087,0,0,1,2.154,3.576A2.131,2.131,0,0,1,711.178,873.734Z" transform="translate(-709.075 -869.555)" fill="#002d3d"/>
      </g>
      <g id="Group_3401" data-name="Group 3401" transform="translate(6.272 40.309)">
        <path id="Path_13751" data-name="Path 13751" d="M715.7,872.077a2.089,2.089,0,0,1-1.8-.984,2.037,2.037,0,0,1,.654-2.836l.1-.063a2.087,2.087,0,0,1,2.162,3.57A2.161,2.161,0,0,1,715.7,872.077Zm6.3-3.8a2.086,2.086,0,0,1-1.8-.984,2.035,2.035,0,0,1,.654-2.834l.1-.063a2.086,2.086,0,1,1,2.161,3.57A2.155,2.155,0,0,1,722,868.282Z" transform="translate(-713.584 -864.1)" fill="#002d3d"/>
      </g>
      <g id="Group_3402" data-name="Group 3402" transform="translate(18.858 36.507)">
        <path id="Path_13752" data-name="Path 13752" d="M724.732,865.581a2.086,2.086,0,0,1-1.789-.989,2.109,2.109,0,1,1,3.9-1.173,2.2,2.2,0,0,1-1,1.852A2.119,2.119,0,0,1,724.732,865.581Z" transform="translate(-722.63 -861.367)" fill="#002d3d"/>
      </g>
      <g id="Group_3403" data-name="Group 3403" transform="translate(18.896 9.058)">
        <path id="Path_13753" data-name="Path 13753" d="M724.744,864.238a2.088,2.088,0,0,1-2.087-2.087V862a2.087,2.087,0,1,1,4.174,0v.15A2.087,2.087,0,0,1,724.744,864.238Zm0-9.138a2.087,2.087,0,0,1-2.087-2.087v-.15a2.087,2.087,0,1,1,4.174,0v.15A2.086,2.086,0,0,1,724.744,855.1Zm0-9.138a2.088,2.088,0,0,1-2.087-2.087v-.15a2.087,2.087,0,1,1,4.174,0v.15A2.087,2.087,0,0,1,724.744,845.962Z" transform="translate(-722.657 -841.638)" fill="#002d3d"/>
      </g>
      <g id="Group_3404" data-name="Group 3404" transform="translate(18.896)">
        <path id="Path_13754" data-name="Path 13754" d="M724.744,839.335a2.057,2.057,0,0,1-2.087-2.052v-.07a2.087,2.087,0,0,1,4.174,0A2.116,2.116,0,0,1,724.744,839.335Z" transform="translate(-722.657 -835.127)" fill="#002d3d"/>
      </g>
    </g>
    <path id="Path_13755" data-name="Path 13755" d="M837.235,1155.313,634.361,1040.425l146.833-85.961,198.811,119.511Z" transform="translate(14877.662 -1213.003)" opacity="0.2" fill="url(#linear-gradient)" style="mix-blend-mode: multiply;isolation: isolate"/>
    <g id="Group_3409" data-name="Group 3409" transform="translate(15656.166 -451.188)">
      <g id="Group_3406" data-name="Group 3406" transform="translate(7.164)">
        <path id="Path_13756" data-name="Path 13756" d="M771.333,830.593l-3.866,2.444a25.109,25.109,0,0,1-1.151,3.25l2.154,2.415a22.089,22.089,0,0,1-1.85,3.205l-3.217-.54c-.277.349-.676.863-1.106,1.407-.327.377-.686.726-1.158,1.176l-.142,4.5a16.065,16.065,0,0,1-2.266,1.768c-.088.05-.173.1-.255.136l-1.437-3.243a15.239,15.239,0,0,1-2.5.973l-2.421,4.844a6.994,6.994,0,0,1-2.4.031l1.126-4.9a5.778,5.778,0,0,1-1.852-1.067l-3.749,3.4a2.6,2.6,0,0,0-.548-.982,8.146,8.146,0,0,1-.629-1.029l2.987-4.427a8.431,8.431,0,0,1-.3-2.851l-3.624.616a17.034,17.034,0,0,1,.372-3.236l3.876-2.415a17.666,17.666,0,0,1,1.141-3.256l-2.123-2.468a34.725,34.725,0,0,1,1.81-3.205l3.217.54c.327-.367.757-.946,1.116-1.388.338-.337.768-.8,1.219-1.259l.141-4.5a25.955,25.955,0,0,1,2.635-2l1.252,3.407a8.512,8.512,0,0,1,2.514-.943l2.411-4.874a6.482,6.482,0,0,1,2.4-.031l-1.125,4.9a3.09,3.09,0,0,1,1.852,1.078l3.781-3.4a2.019,2.019,0,0,1,.588.982c.175.348.381.7.558,1.024l-2.977,4.434a13.606,13.606,0,0,1,.408,2.727l3.5-.476A10.339,10.339,0,0,1,771.333,830.593Zm-10.853,9.052c3.286-3.88,4.648-9.258,2.986-12.1-1.223-1.983-3.6-2.169-6.058-.75a11.967,11.967,0,0,0-2.987,2.538c-3.286,3.869-4.6,9.228-2.955,12.094,1.145,2.04,3.525,2.225,5.987.8a11.99,11.99,0,0,0,3.027-2.586" transform="translate(-743.116 -815.993)" fill="#3e86a3"/>
      </g>
      <g id="Group_3407" data-name="Group 3407" transform="translate(31.08 4.384)">
        <path id="Path_13757" data-name="Path 13757" d="M788.01,833.483l-3.805,2.408a24.586,24.586,0,0,1-1.12,3.186l2.112,2.368a21.943,21.943,0,0,1-1.82,3.153l-3.155-.54c-.275.349-.665.857-1.095,1.388-.317.372-.665.7-1.127,1.146l-.141,4.426a16.13,16.13,0,0,1-2.214,1.714c-.088.05-.174.1-.257.136l-1.416-3.172a14.8,14.8,0,0,1-2.463.95l-2.369,4.768a7.083,7.083,0,0,1-2.364.029l1.106-4.817a5.549,5.549,0,0,1-1.81-1.056l-3.69,3.346a2.675,2.675,0,0,0-.536-.964,8.288,8.288,0,0,1-.621-1.013l2.926-4.332a8.79,8.79,0,0,1-.285-2.81l-3.552.6a16.346,16.346,0,0,1,.36-3.172l3.805-2.361a18.072,18.072,0,0,1,1.12-3.208l-2.081-2.422a33.384,33.384,0,0,1,1.768-3.146l3.155.538c.327-.366.757-.932,1.1-1.369.328-.331.758-.781,1.2-1.235l.141-4.426a24.89,24.89,0,0,1,2.583-1.963l1.233,3.338a8.378,8.378,0,0,1,2.462-.915l2.36-4.784a6.383,6.383,0,0,1,2.362-.031l-1.106,4.818a2.866,2.866,0,0,1,1.821,1.049l3.709-3.322a1.808,1.808,0,0,1,.588.947c.166.341.371.694.537,1.011l-2.916,4.352a12.423,12.423,0,0,1,.4,2.685l3.45-.481A10.614,10.614,0,0,1,788.01,833.483Zm-10.658,8.88c3.225-3.8,4.566-9.093,2.936-11.881-1.209-1.942-3.542-2.129-5.955-.735a11.687,11.687,0,0,0-2.927,2.486c-3.225,3.809-4.524,9.07-2.9,11.887,1.123,2,3.453,2.183,5.868.788a11.77,11.77,0,0,0,2.982-2.545" transform="translate(-760.306 -819.145)" fill="#3e86a3"/>
      </g>
      <g id="Group_3408" data-name="Group 3408" transform="translate(0 34.013)">
        <path id="Path_13758" data-name="Path 13758" d="M769.313,854.507a15.677,15.677,0,0,1-.092,3.843l4.131.519a35.5,35.5,0,0,1-1.077,4.234l-4.782,1.923c-.633,1.4-1.276,2.778-2.022,4.071l1.932,4.056c-.879,1.345-1.77,2.5-2.814,3.819l-3.478-1.91c-.47.508-.973.975-1.475,1.43-.543.49-1.117,1.01-1.639,1.406l-1.092,6.073-.7.4a23.343,23.343,0,0,1-2.607,1.351l-.826-5.071a9.462,9.462,0,0,1-3.019.527l-3.691,5.79a8.07,8.07,0,0,1-2.674-.818l2.161-6.24a10.228,10.228,0,0,1-1.814-2.116l-4.839,3.29c-.177-.524-.363-1.007-.519-1.519s-.27-1.06-.415-1.6l4.31-5.062a26.521,26.521,0,0,1,.061-3.824l-4.172-.472a33.97,33.97,0,0,1,1.149-4.3l4.832-1.965a30.242,30.242,0,0,1,1.971-4.029l-1.891-4.09c.828-1.292,1.779-2.515,2.712-3.713l3.467,1.893c.491-.5,1.055-1.023,1.6-1.514.512-.473,1.014-.916,1.516-1.312l1.1-6.067c.431-.266.844-.515,1.247-.747a22.31,22.31,0,0,1,2.148-1.106l.8,5.1a14.331,14.331,0,0,1,3.069-.568l3.641-5.75a9.28,9.28,0,0,1,2.6.882l-2.119,6.205a6.2,6.2,0,0,1,1.845,2.087l4.829-3.272a8.8,8.8,0,0,1,.58,1.459,11.312,11.312,0,0,1,.353,1.672Zm-11.108,17.179c4.448-4.056,6.976-10.956,5.668-15.336-1.081-3.626-4.469-4.48-8.125-2.369a13.361,13.361,0,0,0-2.3,1.709c-4.549,4.138-7.108,11.056-5.8,15.436,1.078,3.626,4.472,4.466,8.181,2.325a13.891,13.891,0,0,0,2.38-1.764" transform="translate(-737.967 -840.441)" fill="#3e86a3"/>
      </g>
    </g>
    <g id="Group_3457" data-name="Group 3457" transform="translate(15608.767 -551.999)">
      <g id="Group_3416" data-name="Group 3416" transform="translate(95.391 77.49)">
        <g id="Group_3415" data-name="Group 3415" style="isolation: isolate">
          <g id="Group_3410" data-name="Group 3410" transform="translate(137.551 34.504)">
            <path id="Path_13759" data-name="Path 13759" d="M882.876,1106.743l-10.763-6.255-.784-276.457,10.764,6.255Z" transform="translate(-871.329 -824.031)" fill="#002d3d"/>
          </g>
          <g id="Group_3411" data-name="Group 3411" transform="translate(55.065 49.76)">
            <path id="Path_13760" data-name="Path 13760" d="M852.681,835.392c1.593-.92,2.89-.181,2.9,1.658v.216a6.337,6.337,0,0,1-2.876,4.979l-37.759,21.8c-1.6.924-2.9.185-2.9-1.644v-.216a6.339,6.339,0,0,1,2.883-4.993Z" transform="translate(-812.04 -834.997)" fill="#335464"/>
          </g>
          <g id="Group_3412" data-name="Group 3412" transform="translate(10.764 6.256)">
            <path id="Path_13761" data-name="Path 13761" d="M915.049,804.794c4.3-2.482,7.8-.484,7.818,4.455l.91,320.825c.014,4.949-3.468,10.971-7.767,13.453L788.925,1216.9c-4.307,2.486-7.8.492-7.818-4.456l-.91-320.825a17.121,17.121,0,0,1,7.767-13.453Zm3.484,309.894-.785-276.456L785.456,914.61l.783,276.456,132.294-76.379M824.5,874.421v.216c.006,1.83,1.3,2.568,2.9,1.645l37.759-21.8a6.337,6.337,0,0,0,2.876-4.981v-.214c-.006-1.839-1.3-2.578-2.9-1.658l-37.759,21.8a6.343,6.343,0,0,0-2.884,4.993m51.3-32.949a6.346,6.346,0,0,0-2.785,5.041c.005,1.895,1.26,2.7,2.8,1.813a6.35,6.35,0,0,0,2.794-5.045c-.006-1.9-1.26-2.7-2.813-1.809" transform="translate(-780.198 -803.727)" fill="#002d3d"/>
          </g>
          <g id="Group_3413" data-name="Group 3413" transform="translate(103.582 43.635)">
            <path id="Path_13762" data-name="Path 13762" d="M849.7,830.96c1.553-.9,2.808-.088,2.813,1.809a6.346,6.346,0,0,1-2.794,5.045c-1.544.892-2.8.082-2.8-1.813A6.347,6.347,0,0,1,849.7,830.96Z" transform="translate(-846.913 -830.594)" fill="#335464"/>
          </g>
          <g id="Group_3414" data-name="Group 3414" transform="translate(16.022 40.76)">
            <path id="Path_13763" data-name="Path 13763" d="M916.27,828.528l.784,276.457-132.293,76.379-.784-276.457Z" transform="translate(-783.977 -828.528)" fill="#046"/>
          </g>
          <path id="Path_13764" data-name="Path 13764" d="M912.854,799.757c-1.416-.824-3.379-.708-5.543.541L780.228,873.669a17.121,17.121,0,0,0-7.768,13.454l.91,320.825c.007,2.458.874,4.188,2.272,5l10.764,6.255c-1.4-.812-2.265-2.54-2.272-5l-.91-320.825a17.122,17.122,0,0,1,7.767-13.454l127.083-73.371c2.163-1.249,4.125-1.364,5.543-.54Z" transform="translate(-772.461 -799.231)" fill="#335464"/>
        </g>
      </g>
      <g id="Group_3444" data-name="Group 3444" transform="translate(111.419 120.574)">
        <g id="Group_3417" data-name="Group 3417" transform="translate(19.928 268.037)">
          <path id="Path_13765" data-name="Path 13765" d="M809.3,1022.856l11.08,9.571v.266l-22.069,12.742v-.266Z" transform="translate(-798.306 -1022.856)" fill="#00546c"/>
        </g>
        <g id="Group_3418" data-name="Group 3418" transform="translate(13.056 123.133)">
          <path id="Path_13766" data-name="Path 13766" d="M817.353,918.7l-10.86,16.276a3.474,3.474,0,0,1-1.1,1.08,1.372,1.372,0,0,1-1.107.2l-10.916-3.7Z" transform="translate(-793.366 -918.703)" fill="#fff"/>
        </g>
        <g id="Group_3442" data-name="Group 3442" style="isolation: isolate">
          <g id="Group_3419" data-name="Group 3419" transform="translate(67.679 226.624)">
            <path id="Path_13767" data-name="Path 13767" d="M843.589,993.089l11.116,22.363,0,1.312-22.077,12.746,0-1.311Z" transform="translate(-832.628 -993.089)" fill="#f4a288"/>
          </g>
          <g id="Group_3420" data-name="Group 3420" transform="translate(91.553 178.985)">
            <path id="Path_13768" data-name="Path 13768" d="M860.652,958.848l11.213,53.659.011,3.867L849.8,1029.121l-.011-3.871Z" transform="translate(-849.788 -958.848)" fill="#ff8263"/>
          </g>
          <g id="Group_3421" data-name="Group 3421" transform="translate(43.804 228.451)">
            <path id="Path_13769" data-name="Path 13769" d="M826.389,994.4l11.147,33.42.006,2.216-22.069,12.742-.006-2.243Z" transform="translate(-815.467 -994.403)" fill="#33889e"/>
          </g>
          <g id="Group_3422" data-name="Group 3422" transform="translate(0.32 113.088)">
            <path id="Path_13770" data-name="Path 13770" d="M784.212,987.863,916.5,911.483l.451,161.265-132.292,76.379Zm127.27,41.066-.006-2.073-12.139,7.009-.207-72.959-1.8,1.042.2,69.091L886.31,977.38l-10.864,66.4-.2-69.089-1.8,1.042.2,71.646-11.116-22.362-10.96,35.11-.2-71.647-1.8,1.041.2,70.743-11.147-33.419L827.7,1072.981l-.2-70.715-1.813,1.046.206,72.692-11.079-9.572-10.99,22.313-.206-72.692-1.8,1.041.207,72.959-12.14,7.009.006,2.073,12.14-7.009.067,23.612,1.8-1.041-.067-23.614,22.068-12.741.067,23.613,1.813-1.045-.067-23.614,22.068-12.741.067,23.613,1.8-1.041-.067-23.614,22.076-12.747.067,23.614,1.8-1.042-.067-23.612,22.077-12.747.067,23.614,1.8-1.042-.067-23.612,12.139-7.009" transform="translate(-784.212 -911.483)" fill="#cee4e8"/>
          </g>
          <g id="Group_3423" data-name="Group 3423" transform="translate(105.929 93.984)">
            <path id="Path_13771" data-name="Path 13771" d="M863.591,898.929a3.614,3.614,0,0,1-.768,2.06l.747,4.761-3.389,1.956.717-5.605c-.463-.078-.775-.5-.776-1.169A3.753,3.753,0,0,1,861.854,898C862.813,897.442,863.588,897.865,863.591,898.929Z" transform="translate(-860.121 -897.752)" fill="#659db5"/>
          </g>
          <g id="Group_3424" data-name="Group 3424" transform="translate(100.648 78.156)">
            <path id="Path_13772" data-name="Path 13772" d="M868.725,895.915l1.6-.925.043,15.565-14,8.083-.044-15.565,1.6-.924-.017-5.9a11.678,11.678,0,0,1,5.387-9.114c2.973-1.717,5.4-.426,5.412,2.879Zm-1.267.732-.017-5.9c-.007-2.529-1.866-3.524-4.141-2.211a8.951,8.951,0,0,0-4.124,6.983l.017,5.9,8.264-4.771m-2.4,13.555-.747-4.761a3.613,3.613,0,0,0,.768-2.06c0-1.064-.778-1.487-1.736-.933a3.753,3.753,0,0,0-1.734,2.937c0,.672.313,1.091.776,1.169l-.716,5.605,3.389-1.956" transform="translate(-856.325 -886.375)" fill="#fff"/>
          </g>
          <g id="Group_3425" data-name="Group 3425" transform="translate(89.913 62.769)">
            <path id="Path_13773" data-name="Path 13773" d="M848.609,895.736l35.37-20.421.111,39.327-35.37,20.421Zm24.78,19.147-.043-15.565-1.6.925-.017-5.9c-.01-3.3-2.439-4.6-5.412-2.879a11.678,11.678,0,0,0-5.387,9.114l.017,5.9-1.6.924.044,15.565,14-8.083" transform="translate(-848.609 -875.315)" fill="#659db5"/>
          </g>
          <g id="Group_3426" data-name="Group 3426" transform="translate(103.5 79.736)">
            <path id="Path_13774" data-name="Path 13774" d="M862.5,888.09c2.275-1.313,4.133-.319,4.14,2.211l.017,5.9-8.264,4.771-.017-5.9A8.95,8.95,0,0,1,862.5,888.09Z" transform="translate(-858.375 -887.51)" fill="#659db5"/>
          </g>
          <g id="Group_3427" data-name="Group 3427" transform="translate(69.801 117.338)">
            <path id="Path_13775" data-name="Path 13775" d="M834.153,923.033a29.668,29.668,0,0,0,1.643-6.112l4.128-2.383A25.284,25.284,0,0,1,834.153,923.033Z" transform="translate(-834.153 -914.538)" fill="#659db5"/>
          </g>
          <g id="Group_3428" data-name="Group 3428" transform="translate(63.22 120.819)">
            <path id="Path_13776" data-name="Path 13776" d="M832.6,924.635c-1.056.611-2.411-.712-3.178-3.946l6.322-3.649C835.008,921.141,833.665,924.02,832.6,924.635Z" transform="translate(-829.423 -917.04)" fill="#659db5"/>
          </g>
          <g id="Group_3429" data-name="Group 3429" transform="translate(71.724 106.58)">
            <path id="Path_13777" data-name="Path 13777" d="M835.781,913.471a32.233,32.233,0,0,0-.246-3.944l4.712-2.721a9.8,9.8,0,0,1,.662,3.7,16.623,16.623,0,0,1-.639,4.456l-4.714,2.72A38.959,38.959,0,0,0,835.781,913.471Z" transform="translate(-835.535 -906.805)" fill="#659db5"/>
          </g>
          <g id="Group_3430" data-name="Group 3430" transform="translate(57.199 125.562)">
            <path id="Path_13778" data-name="Path 13778" d="M825.095,922.832l4.128-2.383a10.792,10.792,0,0,0,1.672,4.2A5.587,5.587,0,0,1,825.095,922.832Z" transform="translate(-825.095 -920.449)" fill="#659db5"/>
          </g>
          <g id="Group_3431" data-name="Group 3431" transform="translate(69.737 103.048)">
            <path id="Path_13779" data-name="Path 13779" d="M834.107,904.427a5.611,5.611,0,0,1,5.8,1.814l-4.127,2.383A10.749,10.749,0,0,0,834.107,904.427Z" transform="translate(-834.107 -904.266)" fill="#659db5"/>
          </g>
          <g id="Group_3432" data-name="Group 3432" transform="translate(62.626 110.379)">
            <path id="Path_13780" data-name="Path 13780" d="M829,917.8a36.434,36.434,0,0,1,.232-4.221l7-4.04a31.143,31.143,0,0,1,.256,3.94,38.129,38.129,0,0,1-.232,4.221l-7,4.039A29.4,29.4,0,0,1,829,917.8Z" transform="translate(-828.996 -909.536)" fill="#659db5"/>
          </g>
          <g id="Group_3433" data-name="Group 3433" transform="translate(63.186 104.404)">
            <path id="Path_13781" data-name="Path 13781" d="M832.542,905.387c1.064-.615,2.419.717,3.178,3.954L829.4,912.99C830.144,908.886,831.486,906,832.542,905.387Z" transform="translate(-829.398 -905.241)" fill="#659db5"/>
          </g>
          <g id="Group_3434" data-name="Group 3434" transform="translate(55.638 115.498)">
            <path id="Path_13782" data-name="Path 13782" d="M829.093,917.436a30.522,30.522,0,0,0,.255,3.94l-4.721,2.726a9.925,9.925,0,0,1-.654-3.711,17,17,0,0,1,.63-4.451l4.722-2.725A37.5,37.5,0,0,0,829.093,917.436Z" transform="translate(-823.973 -913.215)" fill="#659db5"/>
          </g>
          <g id="Group_3435" data-name="Group 3435" transform="translate(48.628 86.605)">
            <path id="Path_13783" data-name="Path 13783" d="M818.934,912.869l35.37-20.421.111,39.327L819.045,952.2ZM836.71,936.33c6.948-4.011,12.577-13.555,12.555-21.277s-5.686-10.745-12.634-6.734-12.577,13.555-12.555,21.276,5.695,10.741,12.634,6.734" transform="translate(-818.934 -892.448)" fill="#659db5"/>
          </g>
          <g id="Group_3436" data-name="Group 3436" transform="translate(12.457 123.99)">
            <path id="Path_13784" data-name="Path 13784" d="M818.126,919.319l.049,17.4a3.736,3.736,0,0,1-1.725,2.923l-21.727,12.544c-.96.554-1.733.14-1.736-.924l-.05-17.395,11.489,4.478a1.33,1.33,0,0,0,1.138-.181,3.49,3.49,0,0,0,1.137-1.132Z" transform="translate(-792.936 -919.319)" fill="#fff"/>
          </g>
          <g id="Group_3437" data-name="Group 3437" transform="translate(7.334 110.442)">
            <path id="Path_13785" data-name="Path 13785" d="M789.253,930.007l35.379-20.426.111,39.327-35.379,20.427Zm30.363,10.517-.049-17.4-11.426,17.707A3.483,3.483,0,0,1,807,941.969a1.335,1.335,0,0,1-1.138.181l-11.489-4.478.05,17.395c0,1.064.776,1.477,1.736.924l21.727-12.544a3.735,3.735,0,0,0,1.725-2.923m-.654-18.252-23.987,13.849,10.916,3.7a1.371,1.371,0,0,0,1.107-.2,3.474,3.474,0,0,0,1.1-1.08l10.86-16.276" transform="translate(-789.253 -909.581)" fill="#659db5"/>
          </g>
          <g id="Group_3438" data-name="Group 3438" transform="translate(0.07 24.509)">
            <path id="Path_13786" data-name="Path 13786" d="M784.032,924.194l132.292-76.379.25,88.579-132.292,76.38Zm42.754,48.881-.111-39.327L791.3,954.174l.111,39.327,35.378-20.427m41.286-23.837-.111-39.327-35.37,20.421.111,39.328,35.37-20.422M909.357,925.4l-.111-39.327L873.875,906.5l.111,39.327,35.37-20.421" transform="translate(-784.032 -847.815)" fill="#3e86a3"/>
          </g>
          <g id="Group_3439" data-name="Group 3439" transform="translate(57.164 107.136)">
            <path id="Path_13787" data-name="Path 13787" d="M829.2,913.315a29.07,29.07,0,0,1,1.643-6.11,25.13,25.13,0,0,0-5.771,8.494Z" transform="translate(-825.07 -907.205)" fill="#659db5"/>
          </g>
          <g id="Group_3440" data-name="Group 3440" transform="translate(53.77 100.703)">
            <path id="Path_13788" data-name="Path 13788" d="M835.185,904.355c6.948-4.011,12.612-.988,12.634,6.734s-5.607,17.266-12.555,21.277-12.612.988-12.634-6.734S828.245,908.36,835.185,904.355ZM838.97,916.2a31.154,31.154,0,0,0-.256-3.94l-7,4.04a36.432,36.432,0,0,0-.232,4.221,29.389,29.389,0,0,0,.256,3.939l7-4.039a38.131,38.131,0,0,0,.232-4.221m1.636,3.141,4.714-2.72a16.626,16.626,0,0,0,.639-4.456,9.8,9.8,0,0,0-.662-3.705l-4.712,2.721a32.231,32.231,0,0,1,.246,3.944,38.988,38.988,0,0,1-.224,4.215M824.5,924.552a9.924,9.924,0,0,0,.654,3.71l4.721-2.725a30.52,30.52,0,0,1-.255-3.94,37.486,37.486,0,0,1,.232-4.221l-4.722,2.725a16.993,16.993,0,0,0-.63,4.451m10.692-18.124c-1.056.609-2.4,3.5-3.144,7.6l6.322-3.649c-.758-3.237-2.113-4.569-3.178-3.954m.068,23.864c1.064-.615,2.407-3.493,3.144-7.6l-6.322,3.649c.767,3.233,2.122,4.556,3.178,3.946M831.8,909.014a25.132,25.132,0,0,0-5.771,8.494l4.128-2.383a29.066,29.066,0,0,1,1.643-6.11m-5.736,20.809a5.587,5.587,0,0,0,5.8,1.814,10.792,10.792,0,0,1-1.672-4.2l-4.128,2.383m12.6-2.112a25.282,25.282,0,0,0,5.771-8.5L840.3,921.6a29.676,29.676,0,0,1-1.643,6.112M844.4,906.9a5.611,5.611,0,0,0-5.8-1.814,10.746,10.746,0,0,1,1.672,4.2L844.4,906.9" transform="translate(-822.63 -902.581)" fill="#fff"/>
          </g>
          <g id="Group_3441" data-name="Group 3441">
            <path id="Path_13789" data-name="Path 13789" d="M916.274,830.2l.069,24.51L784.051,931.087l-.07-24.509Z" transform="translate(-783.982 -830.198)" fill="#046"/>
          </g>
        </g>
        <g id="Group_3443" data-name="Group 3443" transform="translate(5.986 162.512)">
          <path id="Path_13790" data-name="Path 13790" d="M798.665,986.645l-1.8,1.041.207,72.958,1.8-1.041v-.267Z" transform="translate(-784.928 -931.499)" fill="#fff"/>
          <path id="Path_13791" data-name="Path 13791" d="M865.722,1021.007l1.8-1.042-.207-72.958-1.8,1.041.2,69.091Z" transform="translate(-758.067 -947.007)" fill="#fff"/>
          <path id="Path_13792" data-name="Path 13792" d="M833.192,1038.476l-.2-71.648-1.8,1.042.2,70.742.006,2.216,1.8-1.042Z" transform="translate(-771.499 -939.253)" fill="#fff"/>
          <path id="Path_13793" data-name="Path 13793" d="M848.557,1030.917l1.8-1.041-.011-3.87-.2-69.088-1.8,1.041.2,71.646Z" transform="translate(-764.783 -943.13)" fill="#fff"/>
          <path id="Path_13794" data-name="Path 13794" d="M909.889,996.483l-.006-2.073-12.14,7.009-1.8,1.042-22.077,12.746-1.8,1.041-22.077,12.746-1.8,1.042-22.069,12.742-1.812,1.046-22.069,12.742-1.8,1.041-12.139,7.009.006,2.073,12.14-7.009h0l.067,23.613,1.8-1.041-.067-23.613-.536.309.536-.309L824.3,1045.9l.067,23.613,1.812-1.046-.067-23.613,22.069-12.741.067,23.613,1.8-1.042-.067-23.613h0l22.077-12.746.067,23.613,1.8-1.041-.067-23.613h0l22.077-12.746.067,23.613,1.8-1.041-.067-23.613Z" transform="translate(-788.284 -928.46)" fill="#fff"/>
          <path id="Path_13795" data-name="Path 13795" d="M814.227,1050.739l1.812-1.046-.006-2.243-.2-70.715-1.812,1.046.206,72.692Z" transform="translate(-778.215 -935.376)" fill="#fff"/>
        </g>
      </g>
      <path id="Path_13796" data-name="Path 13796" d="M845.373,834.331,895.2,804.567l-.2,228.765-49.635,27.179Z" transform="translate(-648.543 -719.653)" fill="#046" opacity="0.4" style="mix-blend-mode: multiply;isolation: isolate"/>
      <g id="Group_3445" data-name="Group 3445" transform="translate(44.857 259.248)">
        <path id="Path_13797" data-name="Path 13797" d="M774.51,930.42c2.2-1.272,4-.249,4,2.28a8.768,8.768,0,0,1-3.976,6.9,4.733,4.733,0,0,1-.861.385l-7.414,17.467a3.084,3.084,0,0,1,.788,2.257,8.772,8.772,0,0,1-3.976,6.9c-2.2,1.27-4,.249-4-2.291a7.66,7.66,0,0,1,.789-3.186l-7.4-8.9a5.727,5.727,0,0,1-.844.6,4.639,4.639,0,0,1-.861.385l-7.422,17.472a3.077,3.077,0,0,1,.8,2.253,8.771,8.771,0,0,1-3.976,6.9c-2.211,1.276-4,.253-4.011-2.286a8.773,8.773,0,0,1,3.985-6.892,4.874,4.874,0,0,1,.863-.385l7.413-17.467a3.088,3.088,0,0,1-.8-2.262,8.773,8.773,0,0,1,3.986-6.892c2.2-1.272,3.994-.249,4,2.282a7.644,7.644,0,0,1-.787,3.2l7.4,8.9a5.692,5.692,0,0,1,.844-.6,4.734,4.734,0,0,1,.861-.385l7.414-17.467a3.093,3.093,0,0,1-.787-2.266A8.773,8.773,0,0,1,774.51,930.42Z" transform="translate(-736.139 -929.873)" fill="#fff"/>
      </g>
      <g id="Group_3446" data-name="Group 3446" transform="translate(0 182.817)" opacity="0.9">
        <path id="Path_13798" data-name="Path 13798" d="M812.038,877.07c8.6-4.963,15.584-.972,15.611,8.907l.124,43.715-16.214-3.5-92.007,53.12c-8.6,4.963-15.59.977-15.618-8.9l-.038-12.988c-.028-9.879,6.922-21.915,15.518-26.878Z" transform="translate(-703.897 -874.936)" fill="#fff"/>
      </g>
      <g id="Group_3454" data-name="Group 3454" transform="translate(207.689)">
        <g id="Group_3447" data-name="Group 3447" transform="translate(23.839 120.923)">
          <path id="Path_13799" data-name="Path 13799" d="M884.633,831.68c4.814-2.78,8.737-.694,8.752,4.662.013,4.274-2.465,9.326-5.913,12.612,5.361-2,9.743-.366,11.649,4.065a44.8,44.8,0,0,1-14.388,14.174c-5.487,3.168-10.522,3.864-14.42,2.458A35.341,35.341,0,0,1,881.9,852.171c-3.456.7-5.953-1.479-5.966-5.753C875.92,841.061,879.819,834.458,884.633,831.68Z" transform="translate(-870.313 -830.449)" fill="#fff"/>
        </g>
        <g id="Group_3448" data-name="Group 3448" transform="translate(15.826 104.774)">
          <path id="Path_13800" data-name="Path 13800" d="M886.847,822c12.353-7.133,22.4-1.778,22.435,11.959,0,.722-.024,1.455-.076,2.194-.5,7.052-3.435,14.739-7.83,21.407-1.906-4.431-6.289-6.069-11.649-4.065,3.448-3.286,5.926-8.338,5.913-12.612-.015-5.356-3.938-7.442-8.752-4.662s-8.713,9.381-8.7,14.737c.012,4.274,2.51,6.453,5.966,5.753a35.341,35.341,0,0,0-11.588,17.481c-4.419-1.579-7.386-5.859-7.926-12.311-.056-.676-.086-1.376-.088-2.1C864.514,846.047,874.494,829.132,886.847,822Z" transform="translate(-864.553 -818.841)" fill="#3790a6"/>
        </g>
        <g id="Group_3449" data-name="Group 3449">
          <path id="Path_13801" data-name="Path 13801" d="M977.8,743.533l.241,84.914-64.382,37.172c.053-.739.078-1.472.077-2.194-.039-13.737-10.083-19.092-22.435-11.959S868.965,875.512,869,889.25c0,.722.032,1.422.088,2.1L853.419,900.4l-.241-84.914Z" transform="translate(-853.178 -743.533)" fill="#ff8263"/>
        </g>
        <g id="Group_3450" data-name="Group 3450" transform="translate(0.241 84.914)">
          <path id="Path_13802" data-name="Path 13802" d="M913.589,841.739l64.382-37.172.48,169.161-124.619,71.949-.48-169.161,15.673-9.049c.54,6.453,3.507,10.732,7.926,12.311,3.9,1.405,8.933.71,14.42-2.458a44.8,44.8,0,0,0,14.388-14.174C910.153,856.478,913.088,848.791,913.589,841.739Zm47.219,123.04-.017-5.918L871.348,1010.5l.017,5.92,89.443-51.641m-.04-14.2-.017-5.918-89.443,51.639.017,5.92,89.443-51.641m-.04-14.2-.017-5.919-89.443,51.641.017,5.919,89.443-51.641" transform="translate(-853.351 -804.567)" fill="#fff"/>
        </g>
        <g id="Group_3451" data-name="Group 3451" transform="translate(18.157 210.818)">
          <path id="Path_13803" data-name="Path 13803" d="M955.672,895.063l.017,5.919-89.443,51.64-.017-5.919Z" transform="translate(-866.229 -895.063)" fill="#cee4e8"/>
        </g>
        <g id="Group_3452" data-name="Group 3452" transform="translate(18.197 225.013)">
          <path id="Path_13804" data-name="Path 13804" d="M955.7,905.266l.017,5.919-89.443,51.64-.017-5.919Z" transform="translate(-866.258 -905.266)" fill="#cee4e8"/>
        </g>
        <g id="Group_3453" data-name="Group 3453" transform="translate(18.238 239.208)">
          <path id="Path_13805" data-name="Path 13805" d="M955.73,915.469l.017,5.919L866.3,973.028l-.017-5.919Z" transform="translate(-866.287 -915.469)" fill="#cee4e8"/>
        </g>
      </g>
      <g id="Group_3455" data-name="Group 3455" transform="translate(285.135 113.243)" opacity="0.2">
        <path id="Path_13806" data-name="Path 13806" d="M908.859,876.33h0v0Z" transform="translate(-908.839 -804.819)" fill="#046"/>
        <path id="Path_13807" data-name="Path 13807" d="M908.844,876.264l.019.086-.005-.022Z" transform="translate(-908.844 -804.844)" fill="#046"/>
        <path id="Path_13808" data-name="Path 13808" d="M942.675,847.826c.077-.046.153-.09.23-.135s.153-.088,3.765-1.725c3.884-1.3,7.318-.927,9.878.879V824.929c-.25.017-.494.017-.747.043l-.387.043c-.1.011-.2.025-.383.049l-.392.057-.387.063c-.081.014-.163.028-.244.043l-.15.026-.239.046-.149.029-.235.049-.167.035-.22.049-.175.04c-.072.017-.146.033-.219.052s-.121.028-.181.043l-.22.055c-.058.014-.118.031-.177.046l-.225.06-.18.049-.217.061c-.062.018-.125.035-.186.054s-.146.042-.218.064l-.191.058-.213.065-.2.063c-.068.022-.139.044-.207.068s-.141.046-.212.071-.131.043-.2.067l-.209.072-.2.072-.21.077c-.068.025-.138.05-.206.077s-.135.05-.2.077l-.215.082-.207.082-.209.082-.21.086-.206.085-.221.095c-.067.028-.134.056-.2.085l-.217.095-.206.09c-.074.033-.152.068-.225.1l-.2.089-.224.1-.2.1c-.075.036-.152.072-.227.11s-.132.063-.2.1l-.223.111c-.07.033-.138.067-.206.1l-.236.121-.191.1-.273.145c-.053.026-.1.053-.154.081l-.435.235-.434.242c-.145.082-.289.163-.434.248l-.433.252-.214.129c-.074.043-.145.086-.218.131l-.207.127c-.075.046-.152.092-.225.139l-.2.125c-.078.049-.154.1-.231.146l-.195.124-.234.15-.207.135c-.074.05-.146.1-.221.146l-.206.139-.218.146-.219.15-.206.141-.214.15-.207.146-.228.163-.191.136c-.078.056-.154.111-.231.168l-.188.136-.239.178-.177.132-.242.182-.17.13c-.085.065-.165.129-.25.193l-.166.128-.245.193-.164.131-.256.2-.152.123c-.086.069-.172.139-.4.33l-.4.335-.4.341-.206.178-.188.161c-.1.085-.2.171-.391.344-.1.091-.207.184-.391.348l-.388.352c-.111.1-.223.2-.384.353l-.277.259-.113.106c-1.149,1.085-2.262,2.241-3.354,3.427.705-.765,1.426-1.505,2.155-2.232-.729.726-1.451,1.466-2.156,2.232h0c-.274.3-.547.6-.818.9h0c-.374.42-.746.843-1.113,1.274q-1.056,1.238-2.068,2.532l-.559.732h0l0,.005,0,0c-.123.161-.242.326-.365.487-.551.733-1.094,1.475-1.621,2.23q-.447.639-.881,1.287c-.5.737-.975,1.486-1.447,2.24-.27.431-.544.86-.805,1.3-.543.9-1.062,1.821-1.571,2.744-.061.113-.127.224-.189.337h0c-.156.286-.312.575-.465.863-.563,1.066-1.106,2.14-1.619,3.224-.2.424-.385.853-.579,1.279-.375.826-.74,1.656-1.084,2.49-.192.463-.377.929-.559,1.394-.333.851-.646,1.7-.945,2.559-.145.413-.295.825-.433,1.24q-.563,1.707-1.035,3.418c-.506,1.839-.942,3.677-1.277,5.507-.031.164-.06.33-.095.526-.028.159-.054.317-.09.537-.021.125-.04.248-.06.37l-.025.159c-.022.145-.043.287-.081.54-.019.136-.039.268-.074.523-.018.132-.035.262-.07.534-.017.125-.032.249-.063.509-.015.127-.029.25-.06.529-.013.12-.025.239-.053.527-.011.114-.022.228-.032.342l-.016.188c-.01.107-.02.214-.028.321,0,.065-.01.131-.015.2-.007.1-.015.21-.022.315-.006.068-.01.138-.014.207-.007.1-.014.2-.02.3,0,.064-.008.127-.011.19-.007.106-.012.213-.018.32,0,.07-.006.14-.01.21,0,.1-.008.193-.013.291s-.007.188-.01.283c0,.074-.006.146-.008.221,0,.1,0,.2-.007.306,0,.067,0,.135,0,.2,0,.1,0,.2,0,.306,0,.067,0,.131,0,.2,0,.167,0,.334,0,.5s0,.327,0,.488c0,.082,0,.163,0,.243s0,.164,0,.245.005.161.007.241l0,.008,0-.007,0,.007c0,.077,0,.154.007.231s.007.168.01.253.006.15.01.227l.01.184v.042c.005.083.01.168.014.25,0,.064.008.125.012.189l0,.054c.006.074.01.147.016.221s.011.157.018.248c.006.071.011.143.017.214s.014.17.022.255c.006.068.011.136.018.2s.015.156.024.245c.007.071.014.141.022.212s.018.168.028.252v0h0c.007.063.014.127.021.188.01.085.021.168.033.263.007.063.015.124.022.185.011.085.024.17.038.267.007.057.015.114.022.17v0c.013.089.026.177.04.264l.024.164.007.039c.014.089.029.178.043.267v-.011l.022.136c.015.09.031.181.047.271l.027.153c.019.1.039.207.058.31l.021.107.063.31.021.1,0,.019,0-.019c.024.113.049.224.074.337l.015.071c.025.114.052.23.078.342l.014.061c.029.122.06.243.1.4.032.129.065.257.1.391.145.541.313,1.057.483,1.571.1.295.2.586.3.871.129.346.264.685.4,1.017.116.273.231.543.353.807.152.324.312.639.476.949.129.249.259.5.4.737.175.3.36.6.548.883.122.191.245.384.373.569.1.145.207.281.31.422q.186.252.377.5c.138.175.273.355.416.523.1.12.209.23.313.345.149.167.3.328.454.488.082.085.163.173.246.256s.174.18.264.266c.07.065.143.125.213.189.2.186.409.365.618.54.063.053.124.109.188.161.1.081.2.164.3.243.04.029.082.056.121.086q.482.365.987.693c.075.049.147.1.223.148.028.017.054.036.082.054.295.182.6.348.906.511l.134.072c.154.081.306.167.463.242.362.174.735.328,1.112.476.16.064.317.134.48.192.44.159.892.292,1.349.414.09.024.18.054.271.078.145.036.295.058.441.092.411.092.822.18,1.245.244.222.033.451.05.676.077.374.043.747.083,1.13.106.252.014.509.014.764.018.369.008.737.011,1.113,0,.27-.01.543-.028.817-.047.373-.026.748-.06,1.127-.1.282-.033.565-.072.85-.117.384-.058.771-.129,1.16-.207.288-.057.577-.117.868-.186.4-.093.8-.2,1.208-.316.288-.081.573-.158.864-.249l.013,0c.423-.132.851-.284,1.28-.438.245-.088.488-.17.735-.264l.225-.089c.437-.173.879-.363,1.322-.558.174-.076.346-.145.52-.225q.209-.1.42-.2c.565-.267,1.134-.55,1.707-.853.092-.049.184-.1.276-.149.385-.209.768-.4,1.158-.626a59.045,59.045,0,0,0,13.471-10.981V874.969c-3.315,6.142-8.093,11.581-13.424,14.693-4.754,2.156-10.682,2.973-13.615.992l.007-.013c-2.656-1.795-4.4-5.088-4.766-9.644-.007-.074-.011-.148-.02-.262,0-.065-.008-.131-.017-.271l0,.074,0-.017V880.5l0-.035c0-.057-.005-.116-.026-.685v-.039c0-.047,0-.1,0-.213,0-.085,0-.171,0-.257C924.649,868.6,933.544,854.5,942.675,847.826Zm-17.929,29.7a37.279,37.279,0,0,1,4.464-14.767A37.646,37.646,0,0,0,924.746,877.522Z" transform="translate(-908.838 -824.929)" fill="#046" style="mix-blend-mode: multiply;isolation: isolate"/>
        <path id="Path_13809" data-name="Path 13809" d="M919.647,864.7h0l0,.043v-.014l0-.029v0Z" transform="translate(-904.617 -809.384)" fill="#046"/>
        <path id="Path_13810" data-name="Path 13810" d="M919.642,864.571v-.014l0-.078Z" transform="translate(-904.62 -809.455)" fill="#046"/>
      </g>
      <g id="Group_3456" data-name="Group 3456" transform="translate(290.405 106.347)">
        <path id="Path_13811" data-name="Path 13811" d="M919.544,886.712c.295.182.6.348.906.511.046.024.089.049.135.072.154.081.3.167.462.242.362.175.736.328,1.112.476.161.064.317.135.48.193.44.157.893.291,1.35.413.092.025.179.056.271.078.145.036.3.058.443.092.41.092.822.179,1.245.243.221.033.451.05.676.077.373.043.747.083,1.13.106.252.014.508.014.764.02.367.007.737.01,1.113,0,.268-.01.542-.028.817-.047.371-.026.747-.058,1.127-.1.281-.033.565-.072.849-.117.384-.058.771-.129,1.16-.207.289-.057.577-.117.87-.185.4-.095.8-.2,1.207-.317.287-.079.573-.157.863-.249l.014,0c.423-.132.85-.284,1.279-.437.245-.089.488-.171.735-.266l.225-.089c.438-.173.881-.363,1.323-.558.174-.077.345-.145.519-.224.141-.064.281-.131.42-.2q.85-.4,1.707-.853l.277-.149-.052-18.2c-4.876,2.46-9.246,2.426-12.359.323l-11.147,19.307C919.491,886.675,919.516,886.695,919.544,886.712Z" transform="translate(-909.959 -801.561)" fill="#046"/>
        <path id="Path_13812" data-name="Path 13812" d="M914.964,896.266c.114.273.23.544.352.807.152.324.313.639.476.949.131.249.26.5.4.739.175.3.36.594.547.883.124.191.245.383.373.568.1.145.207.282.312.423.124.167.249.333.377.5s.273.355.415.523c.1.12.21.229.313.346.149.165.3.327.453.487.082.085.163.173.246.256s.175.18.266.266c.068.065.142.125.211.189q.3.28.619.54c.063.053.124.11.186.161.1.081.2.165.3.243.039.03.081.055.12.086q.482.365.988.693c.075.049.147.1.223.148l11.147-19.307h0l.007-.011c-2.656-1.8-4.4-5.089-4.768-9.646-.006-.074-.011-.147-.018-.262-.006-.065-.01-.131-.017-.271l0,.075v-.04l0-.035c0-.057-.007-.115-.028-.685v-.039c0-.047,0-.1,0-.212,0-.086,0-.173,0-.259-.031-10.667,8.478-24.483,17.609-31.157a16.237,16.237,0,0,1,4.381-2.147c7.82-2.627,13.822,1.557,14.523,10.512l15.828-9.138c0-.07,0-.139-.007-.209-.036-.772-.095-1.524-.171-2.259-.012-.121-.022-.243-.036-.363-.026-.237-.067-.462-.1-.7-.07-.526-.142-1.05-.232-1.557-.013-.07-.024-.141-.036-.21-.054-.294-.122-.573-.184-.861-.1-.466-.2-.933-.319-1.381l-.02-.074c-.082-.31-.177-.607-.268-.907-.129-.433-.262-.863-.41-1.276-.109-.3-.227-.6-.345-.892-.157-.392-.319-.781-.491-1.156-.131-.282-.268-.556-.409-.829q-.275-.541-.575-1.053-.225-.386-.463-.755c-.213-.33-.436-.648-.662-.959-.167-.228-.335-.455-.51-.672-.244-.3-.5-.59-.756-.872-.18-.2-.358-.4-.544-.58-.278-.28-.572-.539-.865-.794-.185-.16-.366-.327-.557-.479-.327-.26-.669-.5-1.013-.729-.175-.118-.345-.249-.525-.36-.419-.26-.854-.492-1.3-.714-.109-.054-.21-.118-.319-.171s-.214-.086-.32-.134c-.465-.209-.935-.408-1.422-.575-.188-.064-.385-.11-.576-.168-.428-.129-.859-.257-1.3-.356-.238-.053-.484-.085-.726-.128-.412-.074-.824-.147-1.247-.193-.277-.031-.562-.042-.844-.06a21.457,21.457,0,0,0-3.676.054l-.385.043-.384.05c-.089.012-.181.025-.391.057l-.387.061-.245.043-.149.026-.24.046-.149.029-.235.049-.166.035c-.074.015-.146.032-.22.049l-.177.04c-.072.017-.145.033-.217.052l-.182.043-.218.056-.178.046-.224.06-.181.049-.216.061-.188.054-.217.064-.192.058-.213.067q-.1.029-.2.063c-.068.021-.138.045-.206.067l-.213.071-.2.067-.21.072-.2.072-.211.077-.2.076-.2.077-.216.082-.207.082-.207.082-.21.086-.206.085-.223.095-.2.085-.217.095c-.07.031-.136.06-.206.092s-.15.068-.224.1l-.2.089-.225.106-.2.095-.228.11-.2.1c-.075.036-.149.074-.224.111s-.136.067-.206.1l-.235.12-.19.1c-.091.046-.182.095-.274.143l-.154.081-.434.237c-.1.051-.192.106-.434.241-.146.082-.289.164-.434.248s-.289.167-.433.253l-.214.128c-.074.044-.146.086-.219.131l-.209.127-.224.139-.2.125-.231.146-.195.125c-.078.05-.156.1-.234.15l-.206.135c-.075.049-.147.1-.221.146s-.138.092-.206.138-.146.1-.219.147-.146.1-.22.149l-.2.142c-.072.049-.142.1-.214.149l-.209.146-.227.163c-.062.044-.128.09-.19.136l-.232.168-.187.138c-.081.058-.159.117-.239.177l-.177.132c-.082.061-.161.121-.242.184l-.17.129c-.085.064-.167.128-.25.193-.056.042-.111.085-.166.128l-.245.192-.165.131c-.086.068-.17.135-.255.2l-.152.122c-.088.07-.173.139-.4.331-.09.074-.18.148-.4.335-.09.075-.181.152-.4.341l-.207.177-.186.161-.392.344c-.1.092-.207.184-.389.348-.109.1-.214.192-.388.352-.113.1-.223.2-.385.353l-.277.26-.111.1c-1.151,1.085-2.262,2.241-3.356,3.427.705-.765,1.427-1.505,2.155-2.232-.729.726-1.45,1.468-2.155,2.233h0c-.274.3-.548.6-.818.9h0q-.561.63-1.113,1.274-1.056,1.238-2.067,2.532c-.188.243-.373.488-.559.733h0l0,0,0,0c-.124.16-.244.324-.366.486q-.826,1.1-1.619,2.23-.447.638-.882,1.288-.741,1.106-1.447,2.24c-.27.43-.543.858-.806,1.3-.543.9-1.062,1.821-1.569,2.745-.063.113-.128.223-.189.337v0c-.156.287-.31.573-.463.863q-.845,1.6-1.621,3.224c-.2.423-.385.851-.579,1.277-.374.826-.739,1.656-1.084,2.49-.192.465-.377.929-.559,1.4q-.5,1.275-.943,2.557c-.146.413-.3.826-.433,1.24q-.563,1.709-1.036,3.418c-.506,1.839-.94,3.678-1.277,5.507-.029.164-.06.33-.093.526-.028.16-.054.317-.09.538-.021.124-.04.246-.06.37l-.025.159c-.022.143-.045.285-.082.54-.019.135-.037.267-.074.522-.017.132-.035.262-.07.534-.015.125-.031.249-.061.509-.015.127-.031.252-.06.529-.013.12-.025.239-.054.527-.011.114-.022.228-.032.342-.005.063-.011.125-.015.188-.01.107-.019.214-.028.321-.005.066-.009.131-.015.2-.008.1-.017.209-.024.313,0,.068-.01.139-.014.207-.007.1-.014.2-.019.3,0,.065-.007.127-.011.191-.005.107-.011.214-.017.32,0,.07-.007.14-.01.21,0,.1-.01.193-.014.291s-.005.189-.01.282c0,.075-.005.146-.007.221,0,.1-.005.2-.008.307l0,.2c0,.1,0,.2,0,.306,0,.067,0,.131,0,.2,0,.167,0,.335,0,.5s0,.327,0,.49c0,.081,0,.161,0,.243s0,.163.006.245,0,.16.007.241v.007c0,.077,0,.155.007.231s.007.17.011.253.005.15.008.227l.01.184v.042c0,.083.008.168.014.25,0,.064.007.127.011.189l0,.054c0,.074.008.148.014.223s.013.156.018.246c.006.071.011.143.017.214s.015.17.022.255c.007.068.012.136.018.2s.015.156.025.245c.007.071.014.141.021.211s.018.168.028.252v0h0c.007.061.014.125.021.186.01.086.021.168.032.263.008.063.016.124.024.186.011.085.022.168.036.267.008.056.015.113.024.168v0c.012.089.026.177.039.264l.025.164.006.039c.014.089.029.18.044.269l0-.012.022.136c.015.092.032.181.047.271l.028.153c.02.1.039.207.058.312l.019.106c.021.1.042.207.064.31l.021.1,0,.019,0-.019c.024.113.047.225.072.338l-.006-.026-.014-.064c.011.05.021.1.035.16q.04.173.079.342l.014.061c.029.122.058.243.1.4.032.129.065.256.1.389.145.541.313,1.057.484,1.571.1.295.2.586.3.871C914.687,895.6,914.823,895.933,914.964,896.266Zm13.512-20.912v0l0-.043Zm-.008-.2v-.014l0-.078Zm9.346-44.095q-1.254,1.11-2.464,2.308Q936.56,832.171,937.814,831.059Zm-4.831,26.805a37.635,37.635,0,0,0-4.464,14.765A37.286,37.286,0,0,1,932.983,857.864Z" transform="translate(-912.632 -819.972)" fill="#3e86a3"/>
        <path id="Path_13813" data-name="Path 13813" d="M971.512,836.128l-15.828,9.138q.062.81.065,1.672c.032,11.585-8.144,25.748-18.235,31.573q-.582.336-1.156.626l.051,18.18c.385-.209.768-.4,1.156-.626,18.811-10.86,34.065-37.283,34-58.887C971.568,837.231,971.535,836.683,971.512,836.128Z" transform="translate(-903.349 -813.651)" fill="#ff8263"/>
      </g>
    </g>
    <g id="Group_3464" data-name="Group 3464" transform="translate(15611.962 -241.664)">
      <g id="Group_3462" data-name="Group 3462" transform="translate(58.98)">
        <g id="Group_3459" data-name="Group 3459" transform="translate(20.21 39.644)">
          <path id="Path_13814" data-name="Path 13814" d="M774.121,996.577c4.772-2.756,9.2-1.658,10.612,3.069,1.693,5.736-1.593,14.711-7.406,20.012a18.051,18.051,0,0,1-3.105,2.3c-4.836,2.792-9.266,1.692-10.663-3.027-1.708-5.71,1.635-14.736,7.563-20.136A17.5,17.5,0,0,1,774.121,996.577Z" transform="translate(-763.113 -995.088)" fill="#fff"/>
        </g>
        <g id="Group_3460" data-name="Group 3460" transform="translate(8.028 23.476)">
          <path id="Path_13815" data-name="Path 13815" d="M795.238,1001.8a20.337,20.337,0,0,1-.117,5.018l5.4.673a49.353,49.353,0,0,1-1.416,5.521l-6.226,2.514c-.833,1.81-1.667,3.621-2.645,5.3l2.517,5.294c-1.152,1.761-2.305,3.257-3.659,4.97l-4.534-2.484c-.619.657-1.269,1.265-1.932,1.863-.707.641-1.457,1.306-2.134,1.831l-1.425,7.918-.961.557a29.212,29.212,0,0,1-3.34,1.728l-1.089-6.6a12.912,12.912,0,0,1-3.932.69l-4.822,7.536a10.684,10.684,0,0,1-3.488-1.06l2.826-8.145a12.923,12.923,0,0,1-2.365-2.754l-6.308,4.289c-.232-.68-.48-1.3-.684-1.981s-.351-1.376-.541-2.08l5.621-6.6a36.072,36.072,0,0,1,.088-4.986l-5.454-.623a45.018,45.018,0,0,1,1.516-5.594l6.3-2.573a38.4,38.4,0,0,1,2.574-5.258l-2.474-5.336c1.08-1.669,2.319-3.265,3.544-4.837l4.519,2.476c.634-.65,1.37-1.34,2.091-1.988.648-.608,1.312-1.191,1.977-1.724l1.423-7.884c.58-.359,1.133-.693,1.672-1a28.378,28.378,0,0,1,2.76-1.42l1.045,6.64a19.524,19.524,0,0,1,4-.733l4.736-7.486a12.557,12.557,0,0,1,3.4,1.144l-2.767,8.1a7.91,7.91,0,0,1,2.408,2.713l6.293-4.264a11.61,11.61,0,0,1,.757,1.9,15.686,15.686,0,0,1,.469,2.173Zm-14.484,22.4c5.813-5.3,9.1-14.276,7.406-20.012-1.415-4.728-5.841-5.825-10.612-3.069a17.5,17.5,0,0,0-3,2.221c-5.928,5.4-9.271,14.426-7.563,20.136,1.4,4.719,5.827,5.82,10.663,3.027a18.056,18.056,0,0,0,3.105-2.3" transform="translate(-754.357 -983.467)" fill="#3e86a3"/>
        </g>
        <g id="Group_3461" data-name="Group 3461">
          <path id="Path_13816" data-name="Path 13816" d="M748.587,1002.593l62.354-36,.2,71.633-62.354,36Zm48.792,10.828a20.337,20.337,0,0,0,.117-5.018l5.621-6.568a15.682,15.682,0,0,0-.469-2.173,11.62,11.62,0,0,0-.757-1.9l-6.293,4.264a7.911,7.911,0,0,0-2.408-2.713l2.767-8.1a12.561,12.561,0,0,0-3.4-1.144l-4.736,7.487a19.53,19.53,0,0,0-4,.733l-1.045-6.641a28.445,28.445,0,0,0-2.76,1.42c-.54.312-1.092.646-1.672,1l-1.423,7.884c-.665.533-1.329,1.116-1.977,1.724-.721.648-1.457,1.339-2.091,1.988l-4.519-2.477c-1.224,1.572-2.464,3.168-3.544,4.838l2.474,5.335a38.4,38.4,0,0,0-2.574,5.258l-6.3,2.573a45.011,45.011,0,0,0-1.516,5.594l5.454.623a36.071,36.071,0,0,0-.088,4.986l-5.621,6.6c.191.7.351,1.392.541,2.08s.452,1.3.685,1.981l6.308-4.289a12.921,12.921,0,0,0,2.365,2.755l-2.826,8.145a10.681,10.681,0,0,0,3.488,1.06L772,1043.2a12.912,12.912,0,0,0,3.932-.69l1.089,6.6a29.186,29.186,0,0,0,3.34-1.728l.961-.556,1.425-7.918c.678-.525,1.427-1.19,2.134-1.831.664-.6,1.313-1.206,1.933-1.863l4.534,2.483c1.354-1.713,2.507-3.208,3.659-4.97l-2.517-5.294c.978-1.678,1.811-3.489,2.645-5.3l6.226-2.514a49.338,49.338,0,0,0,1.416-5.521l-5.4-.673" transform="translate(-748.587 -966.593)" fill="#fff"/>
        </g>
      </g>
      <g id="Group_3463" data-name="Group 3463" transform="translate(0 13.216)">
        <path id="Path_13817" data-name="Path 13817" d="M733.479,1148.941c5.628-.177,41.678,6.46,36.8,16.918-4.631,9.928-23.854,5.195-31.282,3.737-6.117-1.2-21.288-1.869-23.919-7.989C711.828,1154.05,725.757,1150.3,733.479,1148.941Z" transform="translate(-702.907 -908.464)" fill="#046" opacity="0.2"/>
        <path id="Path_13818" data-name="Path 13818" d="M751.293,999.136l-7.323.572-2.3-4.614,8.185-5.768Z" transform="translate(-692.313 -970.915)" fill="#ad745f"/>
        <path id="Path_13819" data-name="Path 13819" d="M754.72,993.057l1.942,5.191-14.711,18.358-32.72-3.714,22.853-2.655Z" transform="translate(-705.005 -969.455)" fill="#ff8263"/>
        <path id="Path_13820" data-name="Path 13820" d="M747.931,1155.351s4.512-.013,10.823,0c4.306.01,7.344,4.944,3.653,8.132l-23.241,6.931s-6.987,1.888-9.264-3.66l.556-8.261Z" transform="translate(-696.917 -905.958)" fill="#002d3d"/>
        <path id="Path_13821" data-name="Path 13821" d="M729.032,1146.47s6.116-.007,12.132.005c4.106.007,7.29,6.218,3.484,7.751l-22.157,6.607s-7.78,2.179-9.95-3.112l.513-8.046Z" transform="translate(-703.71 -909.43)" fill="#002d3d"/>
        <path id="Path_13822" data-name="Path 13822" d="M713.325,1054.524c4.669,2.677,40.063,8.363,43.11,4.658l-2.469,135.883c-.095,2.008-.913,4.575-4.729,5.6a16.612,16.612,0,0,1-11.375-1.023l-.442-49.016-5.708-43.515-.815,33.482-1.734,43.369c-.141,2.656-2.9,4.11-5.529,4.515-7.13,1.1-10.34-2.339-10.34-2.339l.369-48.375s-.639-16.27-1.724-30.158c-.9-11.549-1.578-25.36-1.078-32.251C711.269,1069.7,713.325,1054.524,713.325,1054.524Z" transform="translate(-704.434 -945.405)" fill="#046"/>
        <path id="Path_13823" data-name="Path 13823" d="M722.375,1100.535c-.961-3.287-3.929-17.046-5.35-20.932,5.283,2.4,6.511,2.945,11.748,4.115.117,1.828,1.217,10.984,1.582,12.762l-.857,34.3-1.734,43.369c-.141,2.656-2.9,4.11-5.529,4.515a14.061,14.061,0,0,1-7.975-.818C716.886,1152.177,729.609,1125.313,722.375,1100.535Z" transform="translate(-703.037 -935.592)" fill="#046" opacity="0.2"/>
        <path id="Path_13824" data-name="Path 13824" d="M737.2,1110.171c.825-13.149,3.391-26.086,2.762-39.311a5.236,5.236,0,0,0-.911-2.762c.011-3.008-.007-6.016-.074-9.022,3.976.076,6.9-.253,7.678-1.2l-2.469,135.883c-.095,2.008-.913,4.574-4.729,5.6a16.386,16.386,0,0,1-3.759.544c1.055-16.766.666-33.762.952-50.305C736.871,1136.491,736.376,1123.245,737.2,1110.171Z" transform="translate(-694.651 -944.095)" fill="#046" opacity="0.2"/>
        <path id="Path_13825" data-name="Path 13825" d="M706.346,1015.657c1.5-8.164,10.482-10.24,10.482-10.24s11.52-3.574,20.5-.561c12.352,4.147,18.525,10.895,18.525,10.895l4.434,28.188-2.436,42.241s-1.35,4.975-11.143,5c-11.383.032-33.154-9.543-33.154-9.543a85.748,85.748,0,0,0,.342-12.637C713.547,1062.39,704.955,1023.214,706.346,1015.657Z" transform="translate(-706.193 -965.31)" fill="#ff8263"/>
        <path id="Path_13826" data-name="Path 13826" d="M738.318,1014.907c1.337-1.087,2.716-2.127,4.093-3.171.568.527.87.851.87.851l1.137,7.226C742.458,1018.084,740.419,1016.452,738.318,1014.907Z" transform="translate(-693.624 -962.146)" fill="#046" opacity="0.2"/>
        <path id="Path_13827" data-name="Path 13827" d="M732.845,1022.622a84.282,84.282,0,0,1,14.713,14.341,6.7,6.7,0,0,0,2.877,2.151l-2.286,39.644s-1.349,4.975-11.143,5a34.09,34.09,0,0,1-6.012-.623c2.314-9.954.74-20.642.622-30.761C731.515,1043.692,729.643,1031.526,732.845,1022.622Z" transform="translate(-696.495 -957.887)" fill="#046" opacity="0.06"/>
        <path id="Path_13828" data-name="Path 13828" d="M736.24,995.012l-.931,14.8c0,4.44-15.135,2.787-15.135-1.653l1.183-13.143Z" transform="translate(-700.723 -968.69)" fill="#ad745f"/>
        <path id="Path_13829" data-name="Path 13829" d="M720.595,1002.211c1.368,4.5,10.724,5.331,15.7,3.467l1.791,1.87c-3.062,4.355-13.49,5.046-18.036.153a3.91,3.91,0,0,1-.577-4.261Z" transform="translate(-701.144 -965.873)" fill="#fff"/>
        <path id="Path_13830" data-name="Path 13830" d="M741.608,999.573c.419,6.833-4.131,10.1-10.608,10.5,0,0-12.225-2.994-12.638-9.708l-2.113-12.347,24.305-5.651Z" transform="translate(-702.259 -973.638)" fill="#ad745f"/>
        <path id="Path_13831" data-name="Path 13831" d="M734.787,976.7c5.475,2.006,14.213,6.9,6.465,13.032,0,0-3.268,1.024-2.948,6.256s-4.874,10.809-8.776,14.29c-2.838,2.531-8.194-1.059-8.194-1.059s-8.465-8.5-5.448-24.08C717.725,975.655,730.934,975.293,734.787,976.7Z" transform="translate(-702.656 -976.092)" fill="#412928"/>
        <path id="Path_13832" data-name="Path 13832" d="M733.469,990.89l.348,5.69c-2.314,1.235-4.46-1.888-4.271-4.856C729.8,987.7,733.469,990.89,733.469,990.89Z" transform="translate(-697.061 -970.772)" fill="#ad745f"/>
        <path id="Path_13833" data-name="Path 13833" d="M759.84,1062.478l-2.031-1.894-25.488-33.593a24.032,24.032,0,0,1,10.172-15.145c4.158-2.694,6.254,9.128,12.459,19.053a124.14,124.14,0,0,0,13.787,17.9C767.875,1049.665,763.065,1059.513,759.84,1062.478Z" transform="translate(-695.971 -962.256)" fill="#ff8263"/>
        <path id="Path_13834" data-name="Path 13834" d="M785.26,1026.938l1.43,7.2s-15.938,18.829-34.59,22.28l5.667-17.74S759.393,1039.539,785.26,1026.938Z" transform="translate(-688.232 -956.198)" fill="#ff8263"/>
        <path id="Path_13835" data-name="Path 13835" d="M777.365,1036.426l11.438-7.2,4.313-8.126-7.025,3.17-10.155,4.956Z" transform="translate(-678.906 -958.484)" fill="#ad745f"/>
        <path id="Path_13836" data-name="Path 13836" d="M784.427,1025.587l4.277-4.96s-1.017-1.895-4.277,1.084c-2.379,2.172-3.759,2.339-5.461,3.876s-3.406,3.233-2.553,5.765S784.427,1025.587,784.427,1025.587Z" transform="translate(-678.808 -958.9)" fill="#ad745f"/>
        <path id="Path_13837" data-name="Path 13837" d="M759.069,988.276l-4.612.721-6.1.739L745.506,997l4.286,2.543,7.255-1.821s-.491-1.885-3.2-1.617l-3.48-.114.093-2.355,5.411-3.08Z" transform="translate(-690.812 -971.325)" fill="#ad745f"/>
      </g>
    </g>
    <g id="Group_3467" data-name="Group 3467" transform="translate(15886.389 -336.738)">
      <path id="Path_13838" data-name="Path 13838" d="M996.843,1066.739c-6.668-3.176-17.106,3.937-23.727,6.266-6.958,2.447-14.881,2.158-19.66,8.054-12.78,15.77,21.879,15.977,29.55,14.821,7.816-1.178,37.791-5.822,35.994-19.857C1018,1068.23,1001.63,1065.759,996.843,1066.739Z" transform="translate(-884.973 -832.65)" fill="#046" opacity="0.2"/>
      <path id="Path_13839" data-name="Path 13839" d="M968.208,1075.606s-4.509.449-10.813,1.109c-4.3.451-6.833,5.693-2.817,8.5l23.931,4.545s7.175,1.171,8.88-4.607l-1.4-8.2Z" transform="translate(-884.227 -828.867)" fill="#002d3d"/>
      <path id="Path_13840" data-name="Path 13840" d="M991.388,975.117l-2.9,15.457s19.357-2.8,18.591-9.625a186.873,186.873,0,0,0-13.963-51.584Z" transform="translate(-870.17 -886.085)" fill="#002d3d"/>
      <path id="Path_13841" data-name="Path 13841" d="M992.119,948.35l-.731,19.337-2.9,15.458s11.56-1.682,16.45-5.6A106.651,106.651,0,0,0,992.119,948.35Z" transform="translate(-870.17 -878.657)" fill="#1d1d1b" opacity="0.2"/>
      <path id="Path_13842" data-name="Path 13842" d="M992.723,1064.205s-5.333-.148-10.579-.274c-3.582-.086-6.525,6.077-3.244,7.7l19.149,7.143s8.207,1.877,10.241-3.385l-2.182-11.263Z" transform="translate(-874.479 -833.435)" fill="#002d3d"/>
      <path id="Path_13843" data-name="Path 13843" d="M1003.826,975.322c-4.391,3.152-36.387,17.544-39.811,14.153l-3.134,73.94,5.582,51.544c.3,2,1.38,4.477,5.3,5.107a16.684,16.684,0,0,0,11.261-2.186l-3.048-55.066,8.108-32.646,3.722,28.271,4.808,41.809c.412,2.639,3.321,3.809,5.987,3.944,7.237.369,10.092-3.394,10.092-3.394l-3.958-46.953s-.506-11.22-.844-25.208c-.282-11.631,1.74-25.923.537-32.757C1007.437,990.275,1003.826,975.322,1003.826,975.322Z" transform="translate(-880.972 -868.104)" fill="#046"/>
      <path id="Path_13844" data-name="Path 13844" d="M990.371,1059.129c-1.5-15.741-6.852-32.2-2.627-47.613-3.448,1.992-5.593,2.174-7.312,4.491l3.72,28.271,4.81,41.809c.413,2.639,3.321,3.809,5.987,3.944a16.991,16.991,0,0,0,3-.122C992.992,1081.226,991.4,1069.959,990.371,1059.129Z" transform="translate(-873.323 -853.943)" fill="#1d1d1b" opacity="0.2"/>
      <path id="Path_13845" data-name="Path 13845" d="M968.668,1118.849c3.626-25.331-1.969-49.682-.309-75.237,1.339-20.61,15.511-32.277,32.417-41.771a10.565,10.565,0,0,1,8.025-1.075,31.891,31.891,0,0,0-.376-4.886c-.988-5.6-4.6-20.557-4.6-20.557-4.389,3.154-36.387,17.544-39.811,14.153l-3.134,73.94,5.582,51.544A5.7,5.7,0,0,0,968.668,1118.849Z" transform="translate(-880.972 -868.104)" fill="#1d1d1b" opacity="0.2"/>
      <path id="Path_13846" data-name="Path 13846" d="M1007.686,934.08c-2.335-8-8.611-8.267-8.611-8.267s-11.9-2.44-20.538,1.535c-18.344,8.435-17.758,11.069-22.389,15.158-5.372,4.742,3.691,25.272,5.23,33.643,2.291,12.455.616,50.648.616,50.648a21.577,21.577,0,0,0,15.214,5.847,64.651,64.651,0,0,0,36.316-10.881s-4.7-26.071-5.022-32.716S1009.848,941.49,1007.686,934.08Z" transform="translate(-883.483 -887.765)" fill="#002d3d"/>
      <path id="Path_13847" data-name="Path 13847" d="M971.342,993.81a186.124,186.124,0,0,0-13.956-55.951c-.131-.308-.18-.6-.28-.9-.3.294-.611.591-.959.9-5.372,4.741,3.691,25.272,5.23,33.645,2.291,12.453.616,50.646.616,50.646a21.576,21.576,0,0,0,15.214,5.847c1.479,0,2.916-.056,4.324-.148C972.756,1019.2,972.492,1005.372,971.342,993.81Z" transform="translate(-883.483 -883.114)" fill="#1d1d1b" opacity="0.2"/>
      <g id="Group_3465" data-name="Group 3465" transform="translate(84.852)">
        <path id="Path_13848" data-name="Path 13848" d="M968.1,919.051l4.131,13.889c-.017,4.459,12.941,2,12.958-2.457l-1.138-13.2Z" transform="translate(-962.999 -890.814)" fill="#f8c4b8"/>
        <path id="Path_13849" data-name="Path 13849" d="M969.767,926.057l-.181,4.657c-.017,4.459,16.044,1,16.061-3.463l-1.372-3.276A28.865,28.865,0,0,1,969.767,926.057Z" transform="translate(-962.418 -888.194)" fill="#fff"/>
        <path id="Path_13850" data-name="Path 13850" d="M985.7,923.82c-1.391,4.515-10.571,5.234-15.567,3.342l-2.987,3.738c3.059,4.385,14.365,4.3,18.949-.6a3.926,3.926,0,0,0,.6-4.278Z" transform="translate(-963.372 -888.255)" fill="#00272e"/>
        <path id="Path_13851" data-name="Path 13851" d="M966.065,921.807c-.447,6.86,4.11,10.162,10.615,10.585,0,0,12.29-2.959,12.73-9.7L991.58,910.3l-24.39-5.77Z" transform="translate(-963.807 -895.803)" fill="#f8c4b8"/>
        <path id="Path_13852" data-name="Path 13852" d="M974.036,898.854c-5.507,1.994-14.3,6.873-6.543,13.064,0,0,3.278,1.041,2.937,6.3s4.854,10.874,8.759,14.386c2.843,2.553,8.235-1.032,8.235-1.032s8.535-8.509,5.565-24.163C991.178,897.866,977.912,897.452,974.036,898.854Z" transform="translate(-964.434 -898.257)" fill="#45393f"/>
        <path id="Path_13853" data-name="Path 13853" d="M968.3,913.092l-.371,5.712c2.32,1.251,4.488-1.878,4.31-4.86C971.994,909.9,968.3,913.092,968.3,913.092Z" transform="translate(-963.066 -892.92)" fill="#f8c4b8"/>
      </g>
      <g id="Group_3466" data-name="Group 3466" transform="translate(0 49.103)">
        <path id="Path_13854" data-name="Path 13854" d="M929.758,945.54l-9.285-3.8-16.649-5.582s-1.222,1.131.723,2.945l6.748,2.794a13.115,13.115,0,0,0-.49,7.229l3.758,3.905a2.244,2.244,0,0,0,1.184-1.628s6.066,1.924,7.591.732l7.255,1.873Z" transform="translate(-903.445 -932.529)" fill="#f8c4b8"/>
        <path id="Path_13855" data-name="Path 13855" d="M973.943,936.048c-2.19,1.537-7.369,6.8-20.251,16.091a8.13,8.13,0,0,1-7.122.755l-23.621-7.228s-4.127,2.155-4.312,6.266c-.173,3.82.552,4.446.552,4.446l26.977,13.935a9.466,9.466,0,0,0,7.289.6c8.06-2.62,25.654-10.268,31.771-12.8,9.211-3.809,8.279-21.174-1.044-24.12C981.99,933.308,978.228,933.042,973.943,936.048Z" transform="translate(-897.511 -933.551)" fill="#002d3d"/>
        <path id="Path_13856" data-name="Path 13856" d="M950.176,957.22c-3.41-.038-21.343-7.807-29.077-10.88a11.234,11.234,0,0,1-1.99-1.031,6.127,6.127,0,0,0-.472,2.024c-.171,3.82.552,4.446.552,4.446l26.977,13.935a9.465,9.465,0,0,0,7.289.6c8.06-2.62,25.653-10.266,31.771-12.8.253-.106.47-.257.708-.383C982.887,953.938,965.346,957.382,950.176,957.22Z" transform="translate(-897.511 -928.95)" fill="#1d1d1b" opacity="0.2"/>
      </g>
    </g>
    <g id="Group_3472" data-name="Group 3472" transform="translate(16031.318 -455.953)">
      <path id="Path_13857" data-name="Path 13857" d="M1036.788,975.433c-6.785-3.283-29.961,5.655-29.151,15.874,1.131,14.256,28.522,14.142,38.105,11.326,7.1-2.085,20-3.528,16.776-12.647C1059.146,980.432,1044.612,975.549,1036.788,975.433Z" transform="translate(-1007.616 -749.115)" fill="#046" opacity="0.2"/>
      <g id="Group_3471" data-name="Group 3471" transform="translate(1)">
        <g id="Group_3470" data-name="Group 3470">
          <g id="Group_3469" data-name="Group 3469">
            <path id="Path_13858" data-name="Path 13858" d="M1023.421,971.329c-1.149,4.9-8.953,10.984-11.7,13.1a16.925,16.925,0,0,0-3.379,3.062,1.728,1.728,0,0,0,.739,1.585c.657.669,5.182,1.728,8.035.566s5.667-4.238,9.718-5.07c4.158-.856,5.176-2.113,5.176-2.113,1.054-4.309-.833-10.71-.833-10.71Z" transform="translate(-1008.334 -750.451)" fill="#002d3d"/>
            <path id="Path_13859" data-name="Path 13859" d="M1013.549,984.353c.516-.008,1.031.006,1.546-.018.415-.018.828-.064,1.242-.09,1.055-.167,2.112-.328,3.143-.58.657-.153,1.309-.327,1.96-.505,1.515-.9,4.451-1.944,5.415-2.414q2.074-1.012,4.17-2a32.336,32.336,0,0,0-1.138-7l-7.756-.417c-1.01,4.3-7.158,9.526-10.5,12.161Q1012.6,983.895,1013.549,984.353Z" transform="translate(-1007.044 -750.451)" fill="#f8c4b8"/>
            <path id="Path_13860" data-name="Path 13860" d="M1024.866,980.968c-2.45,1.209-4.495,3.073-7.019,4.168-3.165,1.373-6.582,1.678-9.324-.426-.125.147-.179.227-.179.227a1.728,1.728,0,0,0,.739,1.585c.657.669,5.182,1.728,8.035.566s5.667-4.238,9.718-5.07c4.158-.856,5.176-2.113,5.176-2.113a11.644,11.644,0,0,0,.285-2.055,2.409,2.409,0,0,1-.189.167C1029.9,979.62,1027.287,979.775,1024.866,980.968Z" transform="translate(-1008.334 -747.899)" fill="#002d3d"/>
            <path id="Path_13861" data-name="Path 13861" d="M1041.142,981.8l-7.656,11.827c-3.47,2.479-4.48,4.661-3.346,6.2.991,1.344,7.911,1.333,10.038,0,2.083-1.3,10.722-8.958,10.475-10.941s-1.173-7.342-1.173-7.342Z" transform="translate(-999.976 -746.456)" fill="#002d3d"/>
            <path id="Path_13862" data-name="Path 13862" d="M1036.5,993.959c1.242.074,2.482.152,3.723.209a36.1,36.1,0,0,1,4.768-3.073c1.324-1.852,2.646-3.7,4.011-5.527-.327-2.016-.673-4.029-.673-4.029l-8.338.259-7.36,11.369c.253.058.5.131.754.187C1034.421,993.579,1035.461,993.768,1036.5,993.959Z" transform="translate(-998.827 -746.456)" fill="#f8c4b8"/>
            <path id="Path_13863" data-name="Path 13863" d="M1042.609,994.42c-3.478,2.924-8.407,4.705-12.85,2.933a2.224,2.224,0,0,0,.355.776c.991,1.344,7.911,1.333,10.036,0,2.084-1.3,10.724-8.958,10.476-10.941-.045-.352-.11-.814-.188-1.329C1048.89,989.181,1045.456,992.025,1042.609,994.42Z" transform="translate(-999.951 -744.765)" fill="#002d3d"/>
            <path id="Path_13864" data-name="Path 13864" d="M1054.88,892.409l-34.245,1.248,14.08,25.4s5.566,41.411,6.784,45.461,3.189,52.153,3.189,52.153a9.989,9.989,0,0,0,4.525,1.22,8.735,8.735,0,0,0,3.786-1.155s1.5-17.975,3.076-31.269a69.112,69.112,0,0,0-1.194-22.853l2.485-45.6a96.88,96.88,0,0,0,1.33-10.65C1058.781,891.984,1054.88,892.409,1054.88,892.409Z" transform="translate(-1003.522 -781.33)" fill="#f8c4b8"/>
            <path id="Path_13865" data-name="Path 13865" d="M1054.88,892.409l-34.245,1.248,14.08,25.4s5.566,41.411,6.784,45.461,3.189,52.153,3.189,52.153a10.12,10.12,0,0,0,1.6.7c-.519-4.125-2.656-29.318-.861-48.743-1.326-8.167-2.467-16.08,4.769-23.014a7.615,7.615,0,0,1,2.7-1.707,5.574,5.574,0,0,1,3.124-2.134l1.35-24.749a96.88,96.88,0,0,0,1.33-10.65C1058.781,891.984,1054.88,892.409,1054.88,892.409Z" transform="translate(-1003.522 -781.33)" fill="#046" opacity="0.1"/>
            <path id="Path_13866" data-name="Path 13866" d="M1020.773,892.444c-3.378,53.349-3.317,54.575-2.339,70.433,2.069,33.532.842,40.687.842,40.687s.647,1.523,4.664,1.523c2.953,0,3.82-1.287,3.82-1.287s3.272-20.273,3.72-26.966-.37-21.791-.37-21.791l8.035-40.775Z" transform="translate(-1004.61 -781.315)" fill="#f8c4b8"/>
            <path id="Path_13867" data-name="Path 13867" d="M1018.435,962.877c2.069,33.532.842,40.687.842,40.687s.342.707,1.839,1.155a80.959,80.959,0,0,0,1.74-12.2c.306-6.906-.035-13.869-.222-20.8-.05-.433-.082-.861-.139-1.294-1.023-7.88-4.145-21.993,4.431-26.907a6.792,6.792,0,0,1,6.529-.371l5.69-28.877-18.371-21.825C1017.4,945.793,1017.457,947.019,1018.435,962.877Z" transform="translate(-1004.61 -781.315)" fill="#046" opacity="0.1"/>
            <path id="Path_13868" data-name="Path 13868" d="M1056.31,892.409l-34.186,1.247-1.009-1.2a347.32,347.32,0,0,0-4.136,45.386c1.486,1.077,34.207,10.341,42.056,1.869l-.241-22.694a96.88,96.88,0,0,0,1.33-10.65C1060.211,891.984,1056.31,892.409,1056.31,892.409Z" transform="translate(-1004.952 -781.33)" fill="#002d3d"/>
            <path id="Path_13869" data-name="Path 13869" d="M1033.666,940.327c-6.286-9.139-7.516-19.857-9.054-30.571-.765-5.329-.566-11.87,2.4-16.292l-4.887.178-1.009-1.2a347.322,347.322,0,0,0-4.136,45.386c.744.54,9.33,3.133,18.7,4.523A7.819,7.819,0,0,1,1033.666,940.327Z" transform="translate(-1004.952 -781.315)" fill="#046" opacity="0.2"/>
            <path id="Path_13870" data-name="Path 13870" d="M1030.253,853.278a5.241,5.241,0,0,1-5.2,2.571c-1.11,11.573-2.279,24.03-2.279,24.03l-7.623,29.493-4.129,6.162-1.444,8.673a1.043,1.043,0,0,0,1.176-.157c-.075.263-.125.435-.125.435l.587,5.664s.875.419,1.4-.924l1.123,2.382c1.244-.007,1.267-1.491,1.088-2.677l.786,1.667c2.072-.011.763-4.122.763-4.122l.195-.71,1.035,3.182c1.629.472.886-2.77.886-2.77l-.465-3.2.189-1.462c.956-2.127,3.4-6.539,2.406-9.164l11.065-31.159s3.816-20.005,6.254-31.978a45.133,45.133,0,0,1-3.99,3.445A4.069,4.069,0,0,1,1030.253,853.278Z" transform="translate(-1007.85 -798.23)" fill="#f8c4b8"/>
            <path id="Path_13871" data-name="Path 13871" d="M1015.418,904.582c1.97.122,3.946.2,5.921.273l8.4-23.664s3.816-20.005,6.254-31.978a45.15,45.15,0,0,1-3.99,3.445,4.069,4.069,0,0,1-3.687.621,5.242,5.242,0,0,1-5.2,2.571c-1.11,11.573-2.279,24.03-2.279,24.03l-6.322,24.458C1014.816,904.418,1015.115,904.509,1015.418,904.582Z" transform="translate(-1005.917 -798.23)" fill="#fff"/>
            <path id="Path_13872" data-name="Path 13872" d="M1030.144,853.278a5.242,5.242,0,0,1-5.2,2.571c-.406,4.229-.819,8.57-1.181,12.385,2.411,7.271.55,14.8-2.058,22.2-1.269,6.453-3.281,16.108-5.13,19.7-1.19,2.347-3.656,3.408-4.494,5.929-.939,2.827-1.2,5.578-2.225,8.25a1.109,1.109,0,0,0,.787-.26c-.075.263-.125.435-.125.435l.587,5.664s.875.419,1.4-.924l1.123,2.382c1.244-.007,1.267-1.491,1.088-2.677l.786,1.667c2.072-.011.762-4.122.762-4.122l.195-.71,1.035,3.182c1.629.472.886-2.77.886-2.77l-.465-3.2.189-1.462c.956-2.127,3.4-6.539,2.406-9.164l11.064-31.159s3.816-20.005,6.254-31.978a45.187,45.187,0,0,1-3.99,3.445A4.069,4.069,0,0,1,1030.144,853.278Z" transform="translate(-1007.741 -798.23)" fill="#046" opacity="0.1"/>
            <path id="Path_13873" data-name="Path 13873" d="M1022.967,843.727c-.159.977-1.136,11.034-2.084,20.947a66.205,66.205,0,0,0,10.148,2.621c1-5.075,2.016-10.2,2.8-13.978,2.24-10.795,2.451-13.885,2.451-13.885C1028.661,834.794,1023.459,840.7,1022.967,843.727Z" transform="translate(-1003.425 -802.728)" fill="#fff"/>
            <path id="Path_13874" data-name="Path 13874" d="M1031.314,837.756a5.65,5.65,0,0,0-2.439.54s-2.174.477-3.1,4.046c-.4,1.557-.108,4.625-.648,6.952l-3.054,7.792L1019,865.943c-1.838,7.239,3.058,10.86,3.058,10.86l1.867,13.638-4.05,24.9s23.768,13.815,39.506,1.519l-4.661-21.235c-.251-17.889,2.15-40.1,2.15-40.1s7.255-1.348,5.665-4.165C1054.8,837.659,1038.017,837.217,1031.314,837.756Z" transform="translate(-1004.322 -802.766)" fill="#fff"/>
            <path id="Path_13875" data-name="Path 13875" d="M1037.342,837.188c-7.51,1.427-8.837,7.058-8.154,8.27s2.862,3.823,8.99,1.885c7.3-2.308,7.319-6.156,7.319-6.156S1042.177,836.27,1037.342,837.188Z" transform="translate(-1000.237 -802.98)" fill="#f8c4b8"/>
            <path id="Path_13876" data-name="Path 13876" d="M1042.9,834.451l-12.265-1.337s-1.9,8.626,1.256,13.49l13.2-3.868S1042.375,837.978,1042.9,834.451Z" transform="translate(-999.833 -804.529)" fill="#f8c4b8"/>
            <path id="Path_13877" data-name="Path 13877" d="M1042.93,834.451l-12.266-1.337s-1.443,8.286-.143,9.971c2.172,2.817,8.043-.676,10.369-2.115a15.1,15.1,0,0,0,2.087-3.994c.007-.019.018-.035.025-.054A8.06,8.06,0,0,1,1042.93,834.451Z" transform="translate(-999.866 -804.529)" fill="#eaaea0"/>
            <path id="Path_13878" data-name="Path 13878" d="M1026.342,834.6c0,6.757,2.824,13.27,9.326,11.535,0,0,11.126-3.328,12.571-10.391l1.829-12.474-22.993-4.1Z" transform="translate(-1001.288 -809.986)" fill="#f8c4b8"/>
            <path id="Path_13879" data-name="Path 13879" d="M1039.4,812.568c-16.46,0-13.8,13.666-13.8,13.666,8.755,6.792,19.65,5.088,19.65,5.088l-.527,13.314c.019,2.147,1.735,5.292,1.735,5.292l10.025,7.322s-.706-24.515-.876-27.725C1055.415,825.866,1054.217,812.568,1039.4,812.568Z" transform="translate(-1001.64 -812.568)" fill="#e67b59"/>
            <g id="Group_3468" data-name="Group 3468" transform="translate(47.081 47.983)">
              <path id="Path_13880" data-name="Path 13880" d="M1053.784,849.094a2.691,2.691,0,0,0-2.012-1.87c-7.573-1.547-9.746,8.073-9.59,9.946.166,1.994,6.448,34.617,6.448,34.617.354,8.569-.985,31.731-.985,31.731l-4.269,8.271-.531,8.626s.66.543,1.846-2.117l.607-3.816.922,4.669-.5,3.054-.255,1.163c-.317,1.092.868,1.391,1.561.506.2-.257,1.554-1.665,1.554-1.665l2.9-1.8,1.69-3.734.386-9.881c1.28-8.165,4.518-28.913,4.742-31.072.278-2.694.544-5.272.544-5.272s-.9-16.918-2.4-27.841A92.966,92.966,0,0,0,1053.784,849.094Z" transform="translate(-1042.174 -847.056)" fill="#f8c4b8"/>
              <path id="Path_13881" data-name="Path 13881" d="M1048.63,891.788c.2,4.934-.153,14.7-.494,22.1q3.719.038,7.436-.014c1.277-8.242,2.588-16.809,2.727-18.156.278-2.694.544-5.272.544-5.272s-.9-16.918-2.4-27.841a92.966,92.966,0,0,0-2.661-13.512,2.691,2.691,0,0,0-2.012-1.87c-7.573-1.547-9.746,8.073-9.59,9.946C1042.348,859.164,1048.63,891.788,1048.63,891.788Z" transform="translate(-1042.174 -847.056)" fill="#fff"/>
              <path id="Path_13882" data-name="Path 13882" d="M1042.657,918.65s.291.217.825-.382c.177-5.216,1.9-10.348,3.495-15.583l-3.789,7.34Z" transform="translate(-1041.986 -825.292)" fill="#046" opacity="0.2"/>
              <path id="Path_13883" data-name="Path 13883" d="M1042.286,855.051c.96,5.879,6.3,33.609,6.3,33.609.313,7.6-.7,26.683-.936,30.889a46.658,46.658,0,0,0,1.794-7.638C1053.5,877.352,1044.072,859.724,1042.286,855.051Z" transform="translate(-1042.131 -843.929)" fill="#046" opacity="0.2"/>
            </g>
          </g>
          <path id="Path_13884" data-name="Path 13884" d="M1027.773,867.741s11.439,8.346,18.2-2.03C1045.972,865.711,1037.072,871.948,1027.773,867.741Z" transform="translate(-1000.729 -791.775)" fill="#046" opacity="0.2"/>
        </g>
      </g>
    </g>
    <g id="Group_3473" data-name="Group 3473" transform="translate(15612.235 -481.069)" opacity="0.5">
      <path id="Path_13885" data-name="Path 13885" d="M706.391,817.437l39.7-22.921.129,45.608-39.7,22.921Z" transform="translate(-706.391 -794.516)" fill="#ff8263"/>
    </g>
    <g id="Group_3474" data-name="Group 3474" transform="translate(15542.581 -454.586)" opacity="0.3">
      <path id="Path_13886" data-name="Path 13886" d="M656.325,831.768l31.555-18.217.1,36.249-31.555,18.219Z" transform="translate(-656.325 -813.551)" fill="#002d3d"/>
    </g>
    <g id="Group_3482" data-name="Group 3482" transform="translate(15853.507 -589.316)">
      <g id="Group_3475" data-name="Group 3475" transform="translate(0 131.485)">
        <path id="Path_13887" data-name="Path 13887" d="M881.617,814.87a1.779,1.779,0,0,1-1.807-1.774v-.07a1.808,1.808,0,1,1,3.616,0A1.838,1.838,0,0,1,881.617,814.87Z" transform="translate(-879.81 -811.218)" fill="#002d3d"/>
      </g>
      <g id="Group_3476" data-name="Group 3476" transform="translate(0 73.348)">
        <path id="Path_13888" data-name="Path 13888" d="M881.617,824.06a1.808,1.808,0,0,1-1.807-1.809v-.143a1.808,1.808,0,0,1,3.616,0v.143A1.808,1.808,0,0,1,881.617,824.06Zm0-7.268a1.808,1.808,0,0,1-1.807-1.809v-.142a1.808,1.808,0,1,1,3.616,0v.142A1.808,1.808,0,0,1,881.617,816.792Zm0-7.267a1.808,1.808,0,0,1-1.807-1.809v-.142a1.808,1.808,0,1,1,3.616,0v.142A1.808,1.808,0,0,1,881.617,809.526Zm0-7.268a1.808,1.808,0,0,1-1.807-1.807v-.143a1.808,1.808,0,0,1,3.616,0v.143A1.808,1.808,0,0,1,881.617,802.258Zm0-7.267a1.808,1.808,0,0,1-1.807-1.809v-.142a1.808,1.808,0,1,1,3.616,0v.142A1.808,1.808,0,0,1,881.617,794.991Zm0-7.266a1.808,1.808,0,0,1-1.807-1.809v-.142a1.808,1.808,0,1,1,3.616,0v.142A1.808,1.808,0,0,1,881.617,787.725Zm0-7.268a1.808,1.808,0,0,1-1.807-1.807v-.143a1.808,1.808,0,1,1,3.616,0v.143A1.808,1.808,0,0,1,881.617,780.457Zm0-7.267a1.808,1.808,0,0,1-1.807-1.809v-.142a1.808,1.808,0,1,1,3.616,0v.142A1.808,1.808,0,0,1,881.617,773.19Z" transform="translate(-879.81 -769.431)" fill="#002d3d"/>
      </g>
      <g id="Group_3477" data-name="Group 3477" transform="translate(0 66.148)">
        <path id="Path_13889" data-name="Path 13889" d="M881.617,767.914a1.779,1.779,0,0,1-1.807-1.774v-.07a1.81,1.81,0,0,1,.867-1.546,1.84,1.84,0,0,1,2.515.586,1.868,1.868,0,0,1-1.575,2.8Z" transform="translate(-879.81 -764.256)" fill="#002d3d"/>
      </g>
      <g id="Group_3478" data-name="Group 3478" transform="translate(6.039 3.639)">
        <path id="Path_13890" data-name="Path 13890" d="M885.989,781.757a1.806,1.806,0,0,1-1.56-.847,1.75,1.75,0,0,1,.551-2.447l.118-.072a1.809,1.809,0,1,1,1.874,3.094A1.9,1.9,0,0,1,885.989,781.757Zm6.058-3.676a1.808,1.808,0,0,1-1.56-.846,1.752,1.752,0,0,1,.551-2.449l.118-.071a1.808,1.808,0,1,1,1.874,3.093A1.9,1.9,0,0,1,892.047,778.082Zm6.057-3.676a1.8,1.8,0,0,1-1.56-.846,1.75,1.75,0,0,1,.551-2.447l.118-.072a1.809,1.809,0,1,1,1.874,3.094A1.894,1.894,0,0,1,898.1,774.406Zm6.058-3.674a1.806,1.806,0,0,1-1.56-.847,1.75,1.75,0,0,1,.551-2.447l.118-.072a1.809,1.809,0,1,1,1.874,3.094A1.9,1.9,0,0,1,904.162,770.732Zm6.057-3.676a1.808,1.808,0,0,1-1.56-.846,1.75,1.75,0,0,1,.551-2.447l.118-.072a1.809,1.809,0,1,1,1.874,3.094A1.907,1.907,0,0,1,910.219,767.056Zm6.058-3.674a1.806,1.806,0,0,1-1.56-.847,1.75,1.75,0,0,1,.551-2.447l.118-.072a1.809,1.809,0,1,1,1.874,3.094A1.9,1.9,0,0,1,916.277,763.382Zm6.058-3.676a1.808,1.808,0,0,1-1.56-.846,1.752,1.752,0,0,1,.551-2.449l.118-.071a1.808,1.808,0,1,1,1.874,3.093A1.9,1.9,0,0,1,922.334,759.706Zm6.057-3.674a1.806,1.806,0,0,1-1.56-.847,1.75,1.75,0,0,1,.551-2.447l.118-.072a1.809,1.809,0,1,1,1.874,3.094A1.9,1.9,0,0,1,928.392,756.031Zm6.056-3.676a1.8,1.8,0,0,1-1.555-.843,1.749,1.749,0,0,1,.544-2.449l.118-.072a1.809,1.809,0,0,1,1.882,3.09A1.917,1.917,0,0,1,934.448,752.356Zm6.058-3.676a1.8,1.8,0,0,1-1.555-.842,1.751,1.751,0,0,1,.544-2.45l.118-.072a1.809,1.809,0,0,1,1.882,3.09A1.9,1.9,0,0,1,940.506,748.68Zm6.058-3.674a1.805,1.805,0,0,1-1.556-.843,1.751,1.751,0,0,1,.544-2.45l.118-.071a1.809,1.809,0,1,1,1.882,3.089A1.9,1.9,0,0,1,946.563,745.006Zm6.057-3.676a1.807,1.807,0,0,1-1.558-.846,1.75,1.75,0,0,1,.551-2.449l.118-.071a1.808,1.808,0,0,1,1.874,3.093A1.9,1.9,0,0,1,952.621,741.33Zm6.058-3.674a1.805,1.805,0,0,1-1.558-.847,1.749,1.749,0,0,1,.551-2.447l.118-.072a1.809,1.809,0,0,1,1.874,3.094A1.913,1.913,0,0,1,958.678,737.656Zm6.058-3.676a1.807,1.807,0,0,1-1.558-.846,1.75,1.75,0,0,1,.551-2.449l.118-.071a1.808,1.808,0,0,1,1.874,3.093A1.9,1.9,0,0,1,964.736,733.98Zm6.058-3.676a1.807,1.807,0,0,1-1.558-.846,1.749,1.749,0,0,1,.551-2.447l.118-.072a1.808,1.808,0,0,1,1.874,3.093A1.9,1.9,0,0,1,970.793,730.3Zm6.057-3.674a1.806,1.806,0,0,1-1.558-.847,1.749,1.749,0,0,1,.551-2.447l.118-.072a1.809,1.809,0,0,1,1.874,3.094A1.9,1.9,0,0,1,976.851,726.63Zm6.057-3.676a1.807,1.807,0,0,1-1.558-.846,1.751,1.751,0,0,1,.551-2.449l.118-.071a1.808,1.808,0,0,1,1.874,3.093A1.9,1.9,0,0,1,982.908,722.954Z" transform="translate(-884.151 -719.326)" fill="#002d3d"/>
      </g>
      <g id="Group_3479" data-name="Group 3479" transform="translate(108.996)">
        <path id="Path_13891" data-name="Path 13891" d="M960,720.362a1.81,1.81,0,0,1-1.462-.722,1.461,1.461,0,0,1-.117-.17,1.779,1.779,0,0,1,.586-2.464l.06-.036a1.809,1.809,0,0,1,2.742,1.55A1.837,1.837,0,0,1,960,720.362Z" transform="translate(-958.154 -716.71)" fill="#002d3d"/>
      </g>
      <g id="Group_3480" data-name="Group 3480" transform="translate(109.035 7.066)">
        <path id="Path_13892" data-name="Path 13892" d="M959.99,845.564a1.809,1.809,0,0,1-1.809-1.809,1.869,1.869,0,0,1,1.809-1.878,1.751,1.751,0,0,1,1.808,1.739v.139A1.809,1.809,0,0,1,959.99,845.564Zm0-7.065a1.809,1.809,0,0,1-1.809-1.809,1.869,1.869,0,0,1,1.809-1.877,1.75,1.75,0,0,1,1.808,1.739v.138A1.809,1.809,0,0,1,959.99,838.5Zm0-7.064a1.809,1.809,0,0,1-1.809-1.809,1.869,1.869,0,0,1,1.809-1.878,1.75,1.75,0,0,1,1.808,1.739v.139A1.808,1.808,0,0,1,959.99,831.436Zm0-7.065a1.808,1.808,0,0,1-1.809-1.807,1.869,1.869,0,0,1,1.809-1.878,1.751,1.751,0,0,1,1.808,1.739v.139A1.808,1.808,0,0,1,959.99,824.371Zm0-7.063a1.809,1.809,0,0,1-1.809-1.809,1.869,1.869,0,0,1,1.809-1.878,1.751,1.751,0,0,1,1.808,1.739v.139A1.809,1.809,0,0,1,959.99,817.307Zm0-7.065a1.809,1.809,0,0,1-1.809-1.809,1.869,1.869,0,0,1,1.809-1.877A1.751,1.751,0,0,1,961.8,808.3v.138A1.809,1.809,0,0,1,959.99,810.243Zm0-7.064a1.809,1.809,0,0,1-1.809-1.809,1.868,1.868,0,0,1,1.809-1.877,1.75,1.75,0,0,1,1.808,1.739v.138A1.808,1.808,0,0,1,959.99,803.179Zm0-7.065a1.808,1.808,0,0,1-1.809-1.807,1.869,1.869,0,0,1,1.809-1.878,1.75,1.75,0,0,1,1.808,1.739v.139A1.808,1.808,0,0,1,959.99,796.114Zm0-7.063a1.809,1.809,0,0,1-1.809-1.809,1.869,1.869,0,0,1,1.809-1.877A1.75,1.75,0,0,1,961.8,787.1v.138A1.809,1.809,0,0,1,959.99,789.051Zm0-7.064a1.809,1.809,0,0,1-1.809-1.809,1.869,1.869,0,0,1,1.809-1.878,1.75,1.75,0,0,1,1.808,1.739v.139A1.808,1.808,0,0,1,959.99,781.987Zm0-7.065a1.809,1.809,0,0,1-1.809-1.809,1.868,1.868,0,0,1,1.809-1.877,1.75,1.75,0,0,1,1.808,1.739v.138A1.808,1.808,0,0,1,959.99,774.923Zm0-7.063a1.809,1.809,0,0,1-1.809-1.809,1.869,1.869,0,0,1,1.809-1.878,1.751,1.751,0,0,1,1.808,1.739v.139A1.809,1.809,0,0,1,959.99,767.859Zm0-7.065a1.809,1.809,0,0,1-1.809-1.809,1.869,1.869,0,0,1,1.809-1.877,1.75,1.75,0,0,1,1.808,1.739v.138A1.809,1.809,0,0,1,959.99,760.794Zm0-7.063a1.809,1.809,0,0,1-1.809-1.809,1.869,1.869,0,0,1,1.809-1.878,1.752,1.752,0,0,1,1.808,1.74v.138A1.809,1.809,0,0,1,959.99,753.731Zm0-7.065a1.808,1.808,0,0,1-1.809-1.807,1.869,1.869,0,0,1,1.809-1.878,1.75,1.75,0,0,1,1.808,1.739v.139A1.808,1.808,0,0,1,959.99,746.666Zm0-7.063a1.809,1.809,0,0,1-1.809-1.809,1.869,1.869,0,0,1,1.809-1.878,1.751,1.751,0,0,1,1.808,1.739v.139A1.809,1.809,0,0,1,959.99,739.6Zm0-7.063a1.809,1.809,0,0,1-1.809-1.809,1.869,1.869,0,0,1,1.809-1.878,1.75,1.75,0,0,1,1.808,1.739v.139A1.809,1.809,0,0,1,959.99,732.539Zm0-7.065a1.809,1.809,0,0,1-1.809-1.809,1.868,1.868,0,0,1,1.809-1.877,1.75,1.75,0,0,1,1.808,1.739v.138A1.808,1.808,0,0,1,959.99,725.474Z" transform="translate(-958.181 -721.789)" fill="#002d3d"/>
      </g>
      <g id="Group_3481" data-name="Group 3481" transform="translate(109.035 134.184)">
        <path id="Path_13893" data-name="Path 13893" d="M959.99,816.81A1.809,1.809,0,0,1,958.181,815a1.839,1.839,0,0,1,1.809-1.843,1.779,1.779,0,0,1,1.808,1.774V815A1.809,1.809,0,0,1,959.99,816.81Z" transform="translate(-958.181 -813.158)" fill="#002d3d"/>
      </g>
    </g>
    <g id="Group_3488" data-name="Group 3488" transform="translate(15860.369 -257.436)">
      <g id="Group_3483" data-name="Group 3483" transform="translate(0 93.642)">
        <path id="Path_13894" data-name="Path 13894" d="M886.57,1026.185a1.812,1.812,0,0,1-1.608-.946,1.779,1.779,0,0,1,.715-2.431l.06-.032a1.809,1.809,0,0,1,1.7,3.193A1.856,1.856,0,0,1,886.57,1026.185Z" transform="translate(-884.742 -1022.564)" fill="#fff"/>
      </g>
      <g id="Group_3484" data-name="Group 3484" transform="translate(6.217 76.796)">
        <path id="Path_13895" data-name="Path 13895" d="M891.02,1027.614a1.808,1.808,0,0,1-.858-3.4l.124-.067a1.808,1.808,0,1,1,1.714,3.184l-.124.067A1.8,1.8,0,0,1,891.02,1027.614Zm6.3-3.37a1.808,1.808,0,0,1-.844-3.407l.124-.065a1.808,1.808,0,1,1,1.688,3.2l-.124.065A1.8,1.8,0,0,1,897.321,1024.245Zm6.3-3.368a1.808,1.808,0,0,1-.858-3.4l.124-.067a1.808,1.808,0,1,1,1.714,3.185l-.124.067A1.788,1.788,0,0,1,903.623,1020.877Zm6.3-3.37a1.808,1.808,0,0,1-.86-3.4l.124-.067a1.809,1.809,0,0,1,1.716,3.185l-.124.067A1.794,1.794,0,0,1,909.926,1017.507Zm6.3-3.368a1.809,1.809,0,0,1-.858-3.4l.124-.067a1.808,1.808,0,0,1,1.714,3.185l-.124.067A1.792,1.792,0,0,1,916.227,1014.139Z" transform="translate(-889.21 -1010.456)" fill="#fff"/>
      </g>
      <g id="Group_3485" data-name="Group 3485" transform="translate(37.749 73.425)">
        <path id="Path_13896" data-name="Path 13896" d="M913.7,1011.689a1.808,1.808,0,0,1-1.607-.946,1.83,1.83,0,1,1,3.434-.935,1.92,1.92,0,0,1-.957,1.666A1.848,1.848,0,0,1,913.7,1011.689Z" transform="translate(-911.875 -1008.033)" fill="#fff"/>
      </g>
      <g id="Group_3486" data-name="Group 3486" transform="translate(37.787 7.271)">
        <path id="Path_13897" data-name="Path 13897" d="M913.711,1023.017a1.809,1.809,0,0,1-1.809-1.809v-.145a1.808,1.808,0,0,1,3.616,0v.145A1.808,1.808,0,0,1,913.711,1023.017Zm0-7.347a1.808,1.808,0,0,1-1.809-1.807v-.145a1.808,1.808,0,1,1,3.616,0v.145A1.808,1.808,0,0,1,913.711,1015.67Zm0-7.347a1.809,1.809,0,0,1-1.809-1.809v-.143a1.808,1.808,0,1,1,3.616,0v.143A1.808,1.808,0,0,1,913.711,1008.323Zm0-7.346a1.809,1.809,0,0,1-1.809-1.809v-.145a1.808,1.808,0,0,1,3.616,0v.145A1.808,1.808,0,0,1,913.711,1000.977Zm0-7.346a1.809,1.809,0,0,1-1.809-1.809v-.145a1.808,1.808,0,1,1,3.616,0v.145A1.808,1.808,0,0,1,913.711,993.631Zm0-7.347a1.809,1.809,0,0,1-1.809-1.809v-.143a1.808,1.808,0,1,1,3.616,0v.143A1.808,1.808,0,0,1,913.711,986.284Zm0-7.347a1.809,1.809,0,0,1-1.809-1.809v-.143a1.808,1.808,0,1,1,3.616,0v.143A1.808,1.808,0,0,1,913.711,978.937Zm0-7.346a1.809,1.809,0,0,1-1.809-1.809v-.143a1.808,1.808,0,1,1,3.616,0v.143A1.808,1.808,0,0,1,913.711,971.591Zm0-7.347a1.808,1.808,0,0,1-1.809-1.807v-.145a1.808,1.808,0,1,1,3.616,0v.145A1.808,1.808,0,0,1,913.711,964.243Z" transform="translate(-911.902 -960.483)" fill="#fff"/>
      </g>
      <g id="Group_3487" data-name="Group 3487" transform="translate(37.787)">
        <path id="Path_13898" data-name="Path 13898" d="M913.711,958.909a1.78,1.78,0,0,1-1.809-1.775v-.068a1.808,1.808,0,1,1,3.616,0A1.839,1.839,0,0,1,913.711,958.909Z" transform="translate(-911.902 -955.257)" fill="#fff"/>
      </g>
    </g>
    <g id="Group_3496" data-name="Group 3496" transform="translate(15540.772 -367.761)">
      <g id="Group_3489" data-name="Group 3489" transform="translate(148.138 33.631)">
        <path id="Path_13899" data-name="Path 13899" d="M763.313,903.754a1.809,1.809,0,0,1-.921-3.365,1.836,1.836,0,0,1,2.506.619,1.779,1.779,0,0,1-.607,2.46l-.06.035A1.8,1.8,0,0,1,763.313,903.754Z" transform="translate(-761.503 -900.131)" fill="#002d3d"/>
      </g>
      <g id="Group_3490" data-name="Group 3490" transform="translate(6.114 37.178)">
        <path id="Path_13900" data-name="Path 13900" d="M661.23,985.851a1.808,1.808,0,0,1-.914-3.37l.121-.071a1.808,1.808,0,1,1,1.824,3.122l-.121.071A1.788,1.788,0,0,1,661.23,985.851Zm6.174-3.613a1.808,1.808,0,0,1-.914-3.37l.121-.07a1.808,1.808,0,1,1,1.825,3.122l-.121.07A1.781,1.781,0,0,1,667.4,982.238Zm6.176-3.612a1.808,1.808,0,0,1-.927-3.363l.121-.072a1.809,1.809,0,1,1,1.85,3.108l-.121.072A1.8,1.8,0,0,1,673.581,978.626Zm6.174-3.615a1.809,1.809,0,0,1-.911-3.372l.122-.071a1.809,1.809,0,0,1,1.817,3.128l-.122.071A1.8,1.8,0,0,1,679.755,975.011Zm6.174-3.613a1.808,1.808,0,0,1-.91-3.372l.121-.07a1.809,1.809,0,1,1,1.817,3.128l-.121.07A1.789,1.789,0,0,1,685.929,971.4Zm6.176-3.612a1.808,1.808,0,0,1-.914-3.37l.121-.071a1.808,1.808,0,1,1,1.824,3.122l-.121.071A1.789,1.789,0,0,1,692.105,967.786Zm6.174-3.613a1.808,1.808,0,0,1-.914-3.369l.121-.071a1.808,1.808,0,1,1,1.825,3.122l-.121.071A1.794,1.794,0,0,1,698.28,964.173Zm6.176-3.612a1.809,1.809,0,0,1-.914-3.371l.121-.071a1.808,1.808,0,0,1,1.824,3.123l-.121.071A1.8,1.8,0,0,1,704.455,960.562Zm6.173-3.613a1.808,1.808,0,0,1-.909-3.372l.121-.071a1.809,1.809,0,0,1,1.817,3.128l-.122.071A1.8,1.8,0,0,1,710.628,956.949Zm6.176-3.613a1.809,1.809,0,0,1-.917-3.368l.122-.071a1.808,1.808,0,0,1,1.83,3.119l-.121.071A1.791,1.791,0,0,1,716.8,953.335Zm6.176-3.612a1.809,1.809,0,0,1-.921-3.367l.121-.072a1.809,1.809,0,0,1,1.838,3.117l-.121.071A1.8,1.8,0,0,1,722.98,949.724Zm6.174-3.615a1.808,1.808,0,0,1-.914-3.37l.121-.071a1.809,1.809,0,0,1,1.825,3.123l-.121.071A1.806,1.806,0,0,1,729.154,946.109Zm6.174-3.612a1.809,1.809,0,0,1-.913-3.371l.121-.071a1.808,1.808,0,0,1,1.824,3.123l-.121.071A1.8,1.8,0,0,1,735.329,942.5Zm6.176-3.613a1.809,1.809,0,0,1-.914-3.371l.121-.069a1.809,1.809,0,0,1,1.825,3.123l-.121.07A1.808,1.808,0,0,1,741.5,938.884Zm6.174-3.613a1.808,1.808,0,0,1-.91-3.372l.121-.071a1.809,1.809,0,0,1,1.817,3.128l-.121.071A1.79,1.79,0,0,1,747.679,935.271Zm6.176-3.612a1.809,1.809,0,0,1-.921-3.367l.121-.071a1.808,1.808,0,0,1,1.838,3.115l-.121.071A1.8,1.8,0,0,1,753.855,931.66Zm6.174-3.613a1.809,1.809,0,0,1-.914-3.371l.121-.071a1.809,1.809,0,0,1,1.825,3.123l-.121.071A1.808,1.808,0,0,1,760.029,928.047Zm6.174-3.613a1.809,1.809,0,0,1-.913-3.371l.12-.071a1.809,1.809,0,1,1,1.825,3.123l-.121.071A1.807,1.807,0,0,1,766.2,924.433Zm6.176-3.613a1.809,1.809,0,0,1-.914-3.371l.121-.07a1.809,1.809,0,1,1,1.824,3.124l-.12.07A1.8,1.8,0,0,1,772.38,920.82Zm6.174-3.612a1.81,1.81,0,0,1-.911-3.374l.122-.071a1.809,1.809,0,0,1,1.818,3.128l-.122.071A1.8,1.8,0,0,1,778.554,917.209Zm6.176-3.613a1.809,1.809,0,0,1-.921-3.367l.121-.071a1.808,1.808,0,1,1,1.838,3.115l-.121.071A1.794,1.794,0,0,1,784.73,913.6Zm6.174-3.613a1.809,1.809,0,0,1-.914-3.371l.121-.071a1.808,1.808,0,1,1,1.824,3.123l-.121.071A1.8,1.8,0,0,1,790.9,909.982Zm6.174-3.613a1.809,1.809,0,0,1-.914-3.371l.121-.071a1.81,1.81,0,0,1,1.825,3.125l-.121.07A1.808,1.808,0,0,1,797.079,906.369Z" transform="translate(-659.419 -902.681)" fill="#002d3d"/>
      </g>
      <g id="Group_3491" data-name="Group 3491" transform="translate(0 120.273)">
        <path id="Path_13901" data-name="Path 13901" d="M656.834,966.059a1.807,1.807,0,0,1-1.809-1.809,1.839,1.839,0,0,1,1.809-1.843,1.813,1.813,0,0,1,1.484.75,1.741,1.741,0,0,1,.107.164,1.778,1.778,0,0,1-.619,2.456l-.06.035A1.788,1.788,0,0,1,656.834,966.059Z" transform="translate(-655.025 -962.407)" fill="#002d3d"/>
      </g>
      <g id="Group_3492" data-name="Group 3492" transform="translate(0 42.252)">
        <path id="Path_13902" data-name="Path 13902" d="M656.834,980.911a1.75,1.75,0,0,1-1.809-1.739v-.138a1.809,1.809,0,1,1,3.617,0A1.868,1.868,0,0,1,656.834,980.911Zm0-7.019a1.809,1.809,0,0,1-1.809-1.809v-.14a1.809,1.809,0,1,1,3.617,0v.14A1.809,1.809,0,0,1,656.834,973.892Zm0-7.09a1.809,1.809,0,0,1-1.809-1.809v-.139a1.809,1.809,0,1,1,3.617,0v.139A1.809,1.809,0,0,1,656.834,966.8Zm0-7.09a1.809,1.809,0,0,1-1.809-1.809v-.139a1.809,1.809,0,0,1,3.617,0v.139A1.809,1.809,0,0,1,656.834,959.712Zm0-7.159a1.751,1.751,0,0,1-1.809-1.739v-.139a1.809,1.809,0,1,1,3.617,0A1.869,1.869,0,0,1,656.834,952.553Zm0-7.02a1.809,1.809,0,0,1-1.809-1.809v-.139a1.809,1.809,0,1,1,3.617,0v.139A1.809,1.809,0,0,1,656.834,945.532Zm0-7.159a1.751,1.751,0,0,1-1.809-1.739v-.139a1.809,1.809,0,0,1,3.617,0A1.869,1.869,0,0,1,656.834,938.373Zm0-7.021a1.808,1.808,0,0,1-1.809-1.808V929.4a1.809,1.809,0,1,1,3.617,0v.139A1.808,1.808,0,0,1,656.834,931.352Zm0-7.159a1.751,1.751,0,0,1-1.809-1.739v-.139a1.809,1.809,0,0,1,3.617,0A1.869,1.869,0,0,1,656.834,924.193Zm0-7.021a1.808,1.808,0,0,1-1.809-1.808v-.139a1.809,1.809,0,1,1,3.617,0v.139A1.809,1.809,0,0,1,656.834,917.173Zm0-7.159a1.75,1.75,0,0,1-1.809-1.739v-.139a1.809,1.809,0,0,1,3.617,0A1.869,1.869,0,0,1,656.834,910.013Z" transform="translate(-655.025 -906.328)" fill="#002d3d"/>
      </g>
      <g id="Group_3493" data-name="Group 3493" transform="translate(0 35.226)">
        <path id="Path_13903" data-name="Path 13903" d="M656.834,904.935a1.779,1.779,0,0,1-1.809-1.774v-.07a1.81,1.81,0,0,1,.863-1.541,1.841,1.841,0,0,1,2.518.577,1.867,1.867,0,0,1-1.572,2.808Z" transform="translate(-655.025 -901.277)" fill="#002d3d"/>
      </g>
      <g id="Group_3494" data-name="Group 3494" transform="translate(6.281 3.875)">
        <path id="Path_13904" data-name="Path 13904" d="M661.35,909.842a1.809,1.809,0,0,1-.952-3.347l.124-.077a1.808,1.808,0,1,1,1.9,3.077l-.124.076A1.807,1.807,0,0,1,661.35,909.842Zm6.347-3.915a1.809,1.809,0,0,1-.953-3.347l.125-.077a1.809,1.809,0,0,1,1.9,3.078l-.125.076A1.8,1.8,0,0,1,667.7,905.926Zm6.346-3.914a1.809,1.809,0,0,1-.949-3.352l.125-.077a1.809,1.809,0,1,1,1.892,3.083l-.124.077A1.791,1.791,0,0,1,674.043,902.013Zm6.346-3.915a1.809,1.809,0,0,1-.952-3.349l.124-.077a1.809,1.809,0,0,1,1.9,3.078l-.124.077A1.8,1.8,0,0,1,680.388,898.1Zm6.347-3.915a1.809,1.809,0,0,1-.953-3.347l.125-.078a1.808,1.808,0,1,1,1.9,3.078l-.124.076A1.8,1.8,0,0,1,686.735,894.183Zm6.346-3.915a1.809,1.809,0,0,1-.952-3.347l.124-.078a1.809,1.809,0,0,1,1.9,3.078l-.124.078A1.808,1.808,0,0,1,693.081,890.268Zm6.345-3.915a1.809,1.809,0,0,1-.947-3.35l.125-.077a1.809,1.809,0,1,1,1.892,3.083l-.125.077A1.8,1.8,0,0,1,699.426,886.353Zm6.347-3.915a1.809,1.809,0,0,1-.953-3.347l.125-.076a1.808,1.808,0,1,1,1.9,3.077l-.124.077A1.808,1.808,0,0,1,705.773,882.438Z" transform="translate(-659.539 -878.744)" fill="#002d3d"/>
      </g>
      <g id="Group_3495" data-name="Group 3495" transform="translate(57.071)">
        <path id="Path_13905" data-name="Path 13905" d="M697.87,879.582a1.806,1.806,0,0,1-1.543-.842,1.779,1.779,0,0,1,.552-2.472l.06-.038a1.809,1.809,0,1,1,1.907,3.073A1.846,1.846,0,0,1,697.87,879.582Z" transform="translate(-696.046 -875.958)" fill="#002d3d"/>
      </g>
    </g>
    <g id="Group_3497" data-name="Group 3497" transform="translate(15574.239 -396.254)">
      <path id="Path_13906" data-name="Path 13906" d="M679.08,879.548l41.691-24.07.135,47.894-41.689,24.069Z" transform="translate(-679.08 -855.478)" fill="#3e86a3"/>
    </g>
    <g id="Group_3502" data-name="Group 3502" transform="translate(15820.907 -571.806)">
      <g id="Group_3499" data-name="Group 3499" transform="translate(0 24.031)">
        <path id="Path_13907" data-name="Path 13907" d="M862.411,747.4c3.35-1.932,6.071-.381,6.083,3.456a13.313,13.313,0,0,1-6.044,10.466c-3.339,1.927-6.06.376-6.071-3.473A13.309,13.309,0,0,1,862.411,747.4Z" transform="translate(-856.378 -746.569)" fill="#3e86a3" opacity="0.4"/>
      </g>
      <g id="Group_3500" data-name="Group 3500" transform="translate(20.812 12.015)">
        <path id="Path_13908" data-name="Path 13908" d="M877.369,738.765c3.349-1.934,6.071-.383,6.083,3.455a13.316,13.316,0,0,1-6.044,10.466c-3.339,1.928-6.062.377-6.072-3.471A13.309,13.309,0,0,1,877.369,738.765Z" transform="translate(-871.337 -737.933)" fill="#3e86a3" opacity="0.702"/>
      </g>
      <g id="Group_3501" data-name="Group 3501" transform="translate(41.613)">
        <path id="Path_13909" data-name="Path 13909" d="M892.33,730.129c3.35-1.934,6.071-.383,6.083,3.454a13.315,13.315,0,0,1-6.042,10.466c-3.35,1.934-6.071.383-6.083-3.466A13.312,13.312,0,0,1,892.33,730.129Z" transform="translate(-886.288 -729.297)" fill="#3e86a3"/>
      </g>
    </g>
    <g id="Group_3506" data-name="Group 3506" transform="translate(15514.438 -273.659)">
      <g id="Group_3503" data-name="Group 3503" transform="translate(0.135 47.817)">
        <path id="Path_13910" data-name="Path 13910" d="M642.236,978.793c3.34-1.927,6.062-.375,6.073,3.473a13.312,13.312,0,0,1-6.032,10.461c-3.35,1.934-6.071.383-6.083-3.467A13.315,13.315,0,0,1,642.236,978.793Z" transform="translate(-636.194 -977.965)" fill="#ff8263" opacity="0.4"/>
      </g>
      <g id="Group_3504" data-name="Group 3504" transform="translate(0.067 23.913)">
        <path id="Path_13911" data-name="Path 13911" d="M642.189,961.613c3.339-1.928,6.06-.377,6.071,3.46a13.312,13.312,0,0,1-6.033,10.461c-3.349,1.934-6.071.383-6.083-3.465A13.313,13.313,0,0,1,642.189,961.613Z" transform="translate(-636.145 -960.784)" fill="#ff8263" opacity="0.702"/>
      </g>
      <g id="Group_3505" data-name="Group 3505">
        <path id="Path_13912" data-name="Path 13912" d="M642.139,944.424c3.339-1.927,6.062-.376,6.072,3.461a13.309,13.309,0,0,1-6.033,10.461c-3.349,1.932-6.071.381-6.081-3.467A13.312,13.312,0,0,1,642.139,944.424Z" transform="translate(-636.097 -943.596)" fill="#ff8263"/>
      </g>
    </g>
  </g>
</svg>
