<svg xmlns="http://www.w3.org/2000/svg" width="110" height="98" viewBox="0 0 110 98">
  <g id="_11512564371605806463" data-name="11512564371605806463" transform="translate(0 0.015)">
    <path id="Path_11299" data-name="Path 11299" d="M55,65.49,39.818,75.659A2.526,2.526,0,1,1,36.335,72L52.6,60.781l-.278-14.108a2.525,2.525,0,0,1,5.049-.107l.278,14.457L73.656,71.989a2.526,2.526,0,0,1-3.482,3.661L55,65.49ZM46.272,11.331a1.428,1.428,0,0,0-.734.215.607.607,0,0,0-.233.269,1.1,1.1,0,0,0-.081.439,3.962,3.962,0,0,0,.779,1.9l.009.009h0l1.638,2.614a14.465,14.465,0,0,0,2.2,2.9,4.5,4.5,0,0,0,3.142,1.262,4.65,4.65,0,0,0,3.33-1.325,14.354,14.354,0,0,0,2.274-3.1l1.844-3.044c.385-.877.5-1.423.367-1.692-.1-.2-.457-.251-1.047-.2a.5.5,0,0,1-.286-.063c-.09,0-.188,0-.278-.009l.063-.313c0-.018-.009-.027-.009-.045a.47.47,0,0,1,.072-.3l.421-2.122a14.462,14.462,0,0,1-8.433-2.381c-.9-.573-1.173-1.235-2.068-1.164a3.064,3.064,0,0,0-1.7.922,4.386,4.386,0,0,0-.976,1.925l.421,3.312a1.384,1.384,0,0,1-.716-.018ZM84.747,70.87a1.428,1.428,0,0,0-.734.215.607.607,0,0,0-.233.269,1.1,1.1,0,0,0-.081.439,3.962,3.962,0,0,0,.779,1.9l.009.009h0l1.638,2.614a14.465,14.465,0,0,0,2.2,2.9,4.5,4.5,0,0,0,3.142,1.262A4.65,4.65,0,0,0,94.8,79.15a14.354,14.354,0,0,0,2.274-3.1l1.844-3.044c.385-.877.5-1.423.367-1.692-.1-.2-.457-.251-1.047-.2a.5.5,0,0,1-.286-.063c-.09,0-.188,0-.278-.009l.063-.313c0-.018-.009-.027-.009-.045a.47.47,0,0,1,.072-.3l.421-2.122a14.461,14.461,0,0,1-8.433-2.381c-.9-.573-1.173-1.235-2.068-1.164a3.064,3.064,0,0,0-1.7.922,4.386,4.386,0,0,0-.976,1.925l.421,3.312a1.383,1.383,0,0,1-.716-.018Zm1.414,12.354L89.1,91.862l1.477-5.129-.725-.8a1.193,1.193,0,0,1-.215-1.253c.394-.779,1.2-.636,1.96-.636.8,0,1.772-.152,2.023.841a1.326,1.326,0,0,1-.251,1.038l-.725.8,1.477,5.129,2.659-8.639c1.916,1.728,7.6,2.077,9.713,3.25a5.574,5.574,0,0,1,1.755,1.486,7.2,7.2,0,0,1,1.316,3.858L110,96.087a1.943,1.943,0,0,1-2.032,1.9h-33a1.943,1.943,0,0,1-2.032-1.9l.439-4.279a7.125,7.125,0,0,1,1.316-3.858,5.442,5.442,0,0,1,1.755-1.486c2.122-1.164,7.8-1.513,9.713-3.241ZM99.347,70.27a1.239,1.239,0,0,1,.779.636,3.125,3.125,0,0,1-.358,2.507h0l-.027.054L97.87,76.545a15.035,15.035,0,0,1-2.435,3.294,5.542,5.542,0,0,1-3.966,1.576A5.371,5.371,0,0,1,87.692,79.9a14.567,14.567,0,0,1-2.363-3.088l-1.638-2.6a4.775,4.775,0,0,1-.931-2.39,1.915,1.915,0,0,1,.161-.859,1.673,1.673,0,0,1,.564-.662,1.7,1.7,0,0,1,.4-.206,42.815,42.815,0,0,1-.081-4.691,6.389,6.389,0,0,1,.206-1.065A6.3,6.3,0,0,1,86.788,60.8a7,7,0,0,1,1.495-.725c3.151-1.137,7.332-.519,9.57,1.907A6.311,6.311,0,0,1,99.455,66l-.107,4.27Zm-87.549.6a1.428,1.428,0,0,0-.734.215.607.607,0,0,0-.233.269,1.1,1.1,0,0,0-.081.439,3.962,3.962,0,0,0,.779,1.9l.009.009h0l1.638,2.614a14.465,14.465,0,0,0,2.2,2.9,4.5,4.5,0,0,0,3.142,1.262,4.65,4.65,0,0,0,3.33-1.325,14.034,14.034,0,0,0,2.265-3.1l1.853-3.044c.385-.877.5-1.423.367-1.692-.1-.2-.457-.251-1.047-.2A.5.5,0,0,1,25,71.058c-.09,0-.188,0-.278-.009l.063-.313c0-.018-.009-.027-.009-.045a.47.47,0,0,1,.072-.3l.421-2.122a14.461,14.461,0,0,1-8.433-2.381c-.9-.573-1.173-1.235-2.068-1.164a3.064,3.064,0,0,0-1.7.922,4.386,4.386,0,0,0-.976,1.925l.421,3.312a1.386,1.386,0,0,1-.716-.018Zm1.423,12.354,2.936,8.639,1.477-5.129-.725-.8a1.193,1.193,0,0,1-.215-1.253c.394-.779,1.2-.636,1.96-.636.8,0,1.772-.152,2.023.841a1.326,1.326,0,0,1-.251,1.038l-.725.8,1.477,5.129,2.659-8.639c1.916,1.728,7.6,2.077,9.713,3.25a5.573,5.573,0,0,1,1.755,1.486,7.2,7.2,0,0,1,1.316,3.858l.439,4.279a1.943,1.943,0,0,1-2.032,1.9h-33A1.943,1.943,0,0,1,0,96.087l.439-4.279A7.125,7.125,0,0,1,1.755,87.95a5.442,5.442,0,0,1,1.755-1.486c2.113-1.164,7.788-1.513,9.713-3.241ZM26.408,70.27a1.239,1.239,0,0,1,.779.636,3.125,3.125,0,0,1-.358,2.507h0l-.027.054-1.871,3.079A15.035,15.035,0,0,1,22.5,79.84a5.542,5.542,0,0,1-3.966,1.576A5.371,5.371,0,0,1,14.753,79.9a14.567,14.567,0,0,1-2.363-3.088l-1.638-2.6a4.775,4.775,0,0,1-.931-2.39,1.915,1.915,0,0,1,.161-.859,1.673,1.673,0,0,1,.564-.662,1.7,1.7,0,0,1,.4-.206,42.819,42.819,0,0,1-.081-4.691,6.389,6.389,0,0,1,.206-1.065A6.3,6.3,0,0,1,13.848,60.8a7,7,0,0,1,1.495-.725c3.151-1.137,7.332-.519,9.569,1.907A6.311,6.311,0,0,1,26.515,66l-.107,4.27ZM47.686,23.685l2.936,8.639L52.1,27.194l-.716-.788a1.193,1.193,0,0,1-.215-1.253c.394-.779,1.2-.636,1.96-.636.8,0,1.772-.152,2.023.841A1.326,1.326,0,0,1,54.9,26.4l-.725.788,1.477,5.129,2.659-8.639c1.916,1.728,7.6,2.077,9.713,3.25a5.574,5.574,0,0,1,1.755,1.486A7.2,7.2,0,0,1,71.1,32.27l.439,4.279a1.938,1.938,0,0,1-2.032,1.9H36.5a1.943,1.943,0,0,1-2.032-1.9l.448-4.27a7.125,7.125,0,0,1,1.316-3.858,5.442,5.442,0,0,1,1.755-1.486c2.113-1.173,7.788-1.522,9.7-3.25ZM60.881,10.732a1.239,1.239,0,0,1,.779.636,3.125,3.125,0,0,1-.358,2.507h0l-.027.054L59.4,17.007A15.036,15.036,0,0,1,56.96,20.3a5.542,5.542,0,0,1-3.966,1.576,5.371,5.371,0,0,1-3.778-1.513,14.567,14.567,0,0,1-2.363-3.088l-1.638-2.6a4.775,4.775,0,0,1-.931-2.39,1.915,1.915,0,0,1,.161-.859,1.673,1.673,0,0,1,.564-.662,1.7,1.7,0,0,1,.4-.206,42.819,42.819,0,0,1-.081-4.691A6.389,6.389,0,0,1,45.538,4.8a6.3,6.3,0,0,1,2.775-3.536A7,7,0,0,1,49.808.536C52.959-.6,57.139.016,59.377,2.442a6.311,6.311,0,0,1,1.6,4.019l-.1,4.27Z" transform="translate(0 0)" fill="#061d58"/>
  </g>
</svg>
