<svg xmlns="http://www.w3.org/2000/svg" width="82.216" height="90.082" viewBox="0 0 82.216 90.082">
  <g id="_9913020051548235396" data-name="9913020051548235396" transform="translate(-21.32 0)">
    <g id="Group_2556" data-name="Group 2556" transform="translate(21.32 0)">
      <path id="Path_11314" data-name="Path 11314" d="M98.925,77.227,41.761,71.9a4.968,4.968,0,0,0-.9-.018L38.569,60.81a3.124,3.124,0,0,0-.2-.627,3.217,3.217,0,0,0-2.066-1.9l-10.9-3.21a3.181,3.181,0,0,0-1.789,6.106L32.7,63.854l10.938,52.719a3.17,3.17,0,0,0,3.154,2.748l47.037-.018a3.173,3.173,0,1,0,0-6.345l-44.436.018-1.513-7.286H94.664a5.015,5.015,0,0,0,5.017-3.855l3.781-19.055A4.837,4.837,0,0,0,98.925,77.227Z" transform="translate(-21.32 -44.808)" fill="#061d58"/>
      <circle id="Ellipse_644" data-name="Ellipse 644" cx="6.345" cy="6.345" r="6.345" transform="translate(28.169 77.391)" fill="#061d58"/>
      <circle id="Ellipse_645" data-name="Ellipse 645" cx="6.345" cy="6.345" r="6.345" transform="translate(58.495 77.391)" fill="#061d58"/>
      <path id="Path_11315" data-name="Path 11315" d="M171.171,24.636l.719.074,2.25.2,9.26.867.332-3.56a8.754,8.754,0,0,1,17.431,1.642l-.332,3.56,9.26.867,2.951.277a1.973,1.973,0,0,0,2.158-1.789l.3-3.173a1.973,1.973,0,0,0-1.789-2.158l-2.951-.277a17.863,17.863,0,0,0-2.121-6.862l2.287-1.9a1.99,1.99,0,0,0,.258-2.8l-2.029-2.453a1.99,1.99,0,0,0-2.8-.258l-2.306,1.881A18.4,18.4,0,0,0,197.7,5.415l.277-2.951A1.973,1.973,0,0,0,196.184.305l-3.173-.3A1.973,1.973,0,0,0,190.853,1.8l-.277,2.951a17.863,17.863,0,0,0-6.862,2.121l-1.9-2.287a1.99,1.99,0,0,0-2.8-.258l-2.453,2.029a1.99,1.99,0,0,0-.258,2.8l1.9,2.287a18.4,18.4,0,0,0-3.357,6.345l-2.951-.277a1.973,1.973,0,0,0-2.158,1.789l-.3,3.173A1.9,1.9,0,0,0,171.171,24.636Z" transform="translate(-142.098 0)" fill="#061d58"/>
    </g>
  </g>
</svg>
