<svg xmlns="http://www.w3.org/2000/svg" width="100" height="100" viewBox="0 0 100 100">
  <g id="layer1" transform="translate(-0.529 -0.529)">
    <path id="path2237" d="M77.2,17.2a1.667,1.667,0,0,0-.485-1.152l-15-15A1.813,1.813,0,0,0,60.532.529H5.513A4.97,4.97,0,0,0,.529,5.549c0,28.313.035,58.315,0,86.647a8.316,8.316,0,0,0,8.33,8.333H72.2a8.314,8.314,0,0,0,8.33-8.327V83.859a1.665,1.665,0,0,0-1.66-1.66H77.2V72.886l9.124,11.38a7.966,7.966,0,0,0,11.367,1.009c3.342-2.865,3.974-8.244.615-11.432L82.892,59.224a21.671,21.671,0,0,0-4.03-26V23.882a1.666,1.666,0,0,0-1.664-1.66Zm-43.333,25a1.667,1.667,0,1,0,0,3.333h8.6a21.692,21.692,0,0,0-.26,3.333h-8.34a1.667,1.667,0,1,0,0,3.333h8.594A21.66,21.66,0,0,0,73.5,68.27l.365.459V82.2H15.526a1.668,1.668,0,0,0-1.663,1.66V92.2a5,5,0,0,1-10,0c.036-28.883-.05-56.674,0-86.654A1.629,1.629,0,0,1,5.536,3.862H58.859V17.225a1.667,1.667,0,0,0,1.673,1.66h13.33v3.324l-3.33-.013a1.686,1.686,0,0,0-1.67,1.686v3.327l-5.011-.016a21.7,21.7,0,0,0-20.6,15ZM20.529,10.529a1.667,1.667,0,1,0,0,3.333h25a1.667,1.667,0,1,0,0-3.333Zm0,6.667a1.667,1.667,0,1,0,0,3.333h30a1.667,1.667,0,1,0,0-3.333ZM72.2,25.555h3.333V47.209H72.2Zm-6.667,4.993h3.333l0,16.66H65.526ZM62.2,35.542l-5-.013a2.1,2.1,0,0,0-1.26.605,15,15,0,1,0,22.926,12.92c-.008-3.562,0-7.142,0-10.71A18.321,18.321,0,1,1,62.2,30.6ZM8.859,32.2A1.667,1.667,0,0,0,7.2,33.869V50.526A1.667,1.667,0,0,0,8.859,52.2h18.33a1.667,1.667,0,0,0,1.676-1.676V45.532a1.668,1.668,0,0,0-3.337,0v3.333h-15V35.529h10a1.667,1.667,0,1,0,0-3.333Zm17.3,3.695-7.171,5.745-2.279-2.288a1.669,1.669,0,1,0-2.36,2.36l3.333,3.337a1.666,1.666,0,0,0,2.227.12l8.33-6.667a1.668,1.668,0,1,0-2.08-2.607Zm7.705-.361a1.667,1.667,0,1,0,0,3.333h6.667a1.667,1.667,0,1,0,0-3.333Zm25.01,3.35h3.32v8.33h-3.32Zm-3.333,1.81v8.193a1.665,1.665,0,0,0,1.66,1.66H75.4a11.66,11.66,0,1,1-19.86-9.854ZM8.859,55.526A1.667,1.667,0,0,0,7.2,57.2V73.856a1.667,1.667,0,0,0,1.66,1.673h18.33a1.667,1.667,0,0,0,1.676-1.673V68.862a1.668,1.668,0,0,0-3.337,0V72.2h-15V58.859h10a1.667,1.667,0,1,0,0-3.333Zm18.161,3.33a1.663,1.663,0,0,0-.863.361l-7.171,5.745-2.279-2.289a1.67,1.67,0,1,0-2.36,2.363l3.333,3.333a1.666,1.666,0,0,0,2.227.124l8.33-6.67a1.673,1.673,0,0,0-1.217-2.969Zm6.842.006a1.667,1.667,0,1,0,0,3.333h6.667a1.667,1.667,0,1,0,0-3.333Zm0,6.667a1.667,1.667,0,1,0,0,3.333h10a1.667,1.667,0,1,0,0-3.333Zm0,6.667a1.667,1.667,0,1,0,0,3.333h20a1.667,1.667,0,1,0,0-3.333Z" transform="translate(0 0)" fill="#061d58"/>
  </g>
</svg>
