<svg xmlns="http://www.w3.org/2000/svg" width="101" height="101" viewBox="0 0 101 101">
  <g id="layer2" transform="translate(-0.029 -0.029)">
    <path id="path5072" d="M34.7.529A34.167,34.167,0,1,0,57.645,60c2.139,2.139,4.264,4.258,6.4,6.4a8.283,8.283,0,0,0,1.058,10.485L86.314,98.1A8.33,8.33,0,1,0,98.094,86.315L76.883,65.107A8.294,8.294,0,0,0,66.4,64.049c-2.14-2.14-4.253-4.26-6.393-6.4a34.091,34.091,0,0,0,8.353-17.123H95.536a4.994,4.994,0,0,0,4.993-4.994V28.866a5.008,5.008,0,0,0-4.993-5.01H67.1A34.17,34.17,0,0,0,34.7.529ZM63.559,23.856H53.706a10.056,10.056,0,1,0-19.619,4.333L17.681,44.6a1.668,1.668,0,0,0-.479,1.178V50.53a1.667,1.667,0,0,0,1.66,1.66h4.749a1.667,1.667,0,0,0,1.178-.479l1.885-1.895h4.072a1.667,1.667,0,0,0,1.66-1.66V45.068H35.5a1.667,1.667,0,0,0,1.66-1.66V40.527H64.975a30.842,30.842,0,1,1-1.416-16.67Zm-22.2,7.985a1.667,1.667,0,0,0-1.784.381l-5.254,5.254a1.666,1.666,0,0,0-.491,1.169v3.089H30.75a1.667,1.667,0,0,0-1.673,1.673v3.076H25.988a1.667,1.667,0,0,0-1.169.492l-1.894,1.882H20.539V46.471L37.173,29.823a1.667,1.667,0,0,0,.368-1.784,6.748,6.748,0,1,1,3.815,3.8Zm2.474-7.923a1.667,1.667,0,1,0,1.156.488,1.667,1.667,0,0,0-1.156-.488ZM95.536,27.19a1.666,1.666,0,0,1,1.66,1.676v6.667a1.648,1.648,0,0,1-1.66,1.66H39.312L41.2,35.3A10.067,10.067,0,0,0,53.749,27.19ZM57.219,30.543a1.667,1.667,0,1,0,1.156.488,1.667,1.667,0,0,0-1.156-.488Zm6.667,0a1.667,1.667,0,1,0,1.156.488A1.667,1.667,0,0,0,63.885,30.543Zm4.977.488a1.666,1.666,0,1,0,1.2-.488A1.667,1.667,0,0,0,68.862,31.031Zm8.356-.488a1.667,1.667,0,1,0,1.156.488A1.667,1.667,0,0,0,77.219,30.543Zm6.667,0a1.667,1.667,0,1,0,1.156.488A1.667,1.667,0,0,0,83.885,30.543Zm6.667,0a1.667,1.667,0,1,0,1.156.488A1.667,1.667,0,0,0,90.552,30.543ZM70.995,65.993a4.965,4.965,0,0,1,3.532,1.471L95.738,88.675a4.995,4.995,0,0,1-7.064,7.064L67.463,74.528a5,5,0,0,1,3.532-8.535Z" transform="translate(0 0)" fill="#061d58" stroke="#061d58" stroke-width="1"/>
  </g>
</svg>
