<svg xmlns="http://www.w3.org/2000/svg" width="481.988" height="369.146" viewBox="0 0 481.988 369.146">
  <g id="Group_4359" data-name="Group 4359" transform="translate(-816.012 -2429)">
    <rect id="Rectangle_562" data-name="Rectangle 562" width="217.869" height="354.945" rx="15" transform="translate(941.539 2429)" fill="#333642"/>
    <rect id="Rectangle_563" data-name="Rectangle 563" width="176.655" height="287.769" transform="translate(962.327 2456.688)" fill="#fff"/>
    <path id="Path_4922" data-name="Path 4922" d="M2651.231,684.175H2603.42a2.421,2.421,0,0,1-2.42-2.421h0a2.421,2.421,0,0,1,2.42-2.421h47.811a2.421,2.421,0,0,1,2.42,2.421h0A2.421,2.421,0,0,1,2651.231,684.175Z" transform="translate(-1578.669 1757.988)" fill="#fff"/>
    <path id="Rectangle_564" data-name="Rectangle 564" d="M6.111,0h40.43a6.111,6.111,0,0,1,6.111,6.111v0a6.111,6.111,0,0,1-6.111,6.111H6.111A6.111,6.111,0,0,1,0,6.111v0A6.111,6.111,0,0,1,6.111,0Z" transform="translate(1022.332 2758.107)" fill="#fff"/>
    <path id="Path_4923" data-name="Path 4923" d="M3010.231,923.658h0a4.285,4.285,0,0,0,2.246-5.628l-2.64-6.146a4.286,4.286,0,0,0-5.629-2.246h0a4.285,4.285,0,0,0-2.246,5.629l2.64,6.146A4.285,4.285,0,0,0,3010.231,923.658Z" transform="translate(-1797.446 1632.408)" fill="#ffb89c"/>
    <path id="Path_4924" data-name="Path 4924" d="M3192.254,1200.443h0a4.285,4.285,0,0,0,2.246-5.629l-2.64-6.146a4.286,4.286,0,0,0-5.629-2.245h0a4.286,4.286,0,0,0-2.245,5.628l2.64,6.146A4.285,4.285,0,0,0,3192.254,1200.443Z" transform="translate(-1896.85 1481.254)" fill="#ffb89c"/>
    <path id="Path_4925" data-name="Path 4925" d="M2152.521,1184.765h0a5.427,5.427,0,0,0,5.6-5.244l.279-8.465a5.426,5.426,0,0,0-5.245-5.6h0a5.427,5.427,0,0,0-5.6,5.245l-.279,8.465A5.427,5.427,0,0,0,2152.521,1184.765Z" transform="translate(-1330.886 1492.517)" fill="#ffb89c"/>
    <path id="Path_4926" data-name="Path 4926" d="M3117.215,956.587s20.485,31.981,13.8,39.924-23.829,11.287-29.264-9.824-6.271-29.891-6.271-29.891Z" transform="translate(-1848.706 1606.578)" fill="#333642"/>
    <rect id="Rectangle_565" data-name="Rectangle 565" width="14.324" height="4.451" transform="translate(1243.206 2593.764)" fill="#ccc9c4"/>
    <path id="Path_4927" data-name="Path 4927" d="M3101.431,1015.046c-.288,8.6-11.543,9.069-11.255.469l.565-17.523,11.146-1.22Z" transform="translate(-1845.807 1584.634)" fill="#ffb89c"/>
    <path id="Path_4928" data-name="Path 4928" d="M3036.475,984.319s-19.666-16.073-20.227-47.137l-9.419.308s2.852,49.318,26.014,57.417Z" transform="translate(-1800.294 1617.176)" fill="#ffb53e"/>
    <path id="Path_4929" data-name="Path 4929" d="M3059.927,1111.713s2.758,5.855-1.521,31.319h35.584a24.25,24.25,0,0,0-8.749-21.749Z" transform="translate(-1828.462 1521.863)" fill="#f9aa1a"/>
    <path id="Path_4930" data-name="Path 4930" d="M3054.838,1044.849s-8.947,8.131-5.071,18.078c1.279,3.283,3.183,10.658,3.183,10.658l5.041,15,23.383-6,9.215-30.183-5.049-17.22-27.1,1.291Z" transform="translate(-1823.211 1563.657)" fill="#ffb53e"/>
    <path id="Path_4931" data-name="Path 4931" d="M3070.7,1168.908c-2.15,20.924,9.854,30.384,16.961,45.225,2.326,4.858,13.463,38.38,17.085,66.046l7.547-6.071c-2.873-32.179-2.267-31.338-11.045-54.749,0,0-5.243-19.892-11.572-50.869Z" transform="translate(-1835.034 1490.857)" fill="#ffb89c"/>
    <path id="Path_4932" data-name="Path 4932" d="M3036.942,1169.277s-.893,41.315-1.575,43.823-.464,32.48-6.353,51.55-7.819,20.994-7.819,20.994l12.2-11.117c10.609-32.574,14.845-23.142,13.882-61.217,0,0,2.421-10.856,8.966-41.907Z" transform="translate(-1808.14 1490.427)" fill="#ffb89c"/>
    <path id="Path_4933" data-name="Path 4933" d="M3137.239,1106.644l7.262-4.539s-19.626-68.691-34.612-70.091-11.05,25.163-11.05,25.163l8.841-5.71C3118.879,1058.706,3128.888,1084.048,3137.239,1106.644Z" transform="translate(-1850.286 1565.416)" fill="#ffb53e"/>
    <path id="Path_4934" data-name="Path 4934" d="M3083.092,1024l3.139,5.73-6.626,5.076-.277-6.251Z" transform="translate(-1839.886 1569.763)" fill="#f2f2f2"/>
    <path id="Path_4935" data-name="Path 4935" d="M3105.723,1024l-11.186,5.729,1.744,6.393s11.942-8.51,12.438-8.51S3105.723,1024,3105.723,1024Z" transform="translate(-1848.192 1569.763)" fill="#f2f2f2"/>
    <path id="Path_4936" data-name="Path 4936" d="M3048.918,1136.792s-14.286,49.777-11.043,65.885c10.782,5.16,37.363,5.718,50.34,1.716,0,0,1.04-49.318-9.655-62.43C3073.278,1135.487,3048.918,1136.792,3048.918,1136.792Z" transform="translate(-1816.987 1508.226)" fill="#ffb53e"/>
    <path id="Path_4937" data-name="Path 4937" d="M3018.161,1419.65h-2.468l-.831-9.245-4.992,9.245h-17.59c-.979-2.415,5.518-4.375,11.546-7.093l8.191-7.078,2.931-4.784,2.536.221c1.75,1.2,2,4.235,1.9,6.05Z" transform="translate(-1792.295 1364.049)" fill="#333642"/>
    <path id="Path_4938" data-name="Path 4938" d="M3031.5,1395.3s-6.015,14.735-13.659,11.641l7.229-9.122,3.65-7.408Z" transform="translate(-1806.306 1369.664)" fill="#ffb89c"/>
    <path id="Path_4939" data-name="Path 4939" d="M3139.068,1419.371H3136.6l-1.84-9.157-3.983,9.157h-17.591c-1.243-2.391,5.041-4.333,10.772-7.025l7.419-7.011,2.41-4.739,2.56.219c1.88,1.184,2.466,4.2,2.56,5.992Z" transform="translate(-1858.29 1364.103)" fill="#333642"/>
    <path id="Path_4940" data-name="Path 4940" d="M3149.5,1395.253s-4.407,14.594-12.388,11.531l6.232-9.035,2.843-7.337Z" transform="translate(-1871.443 1369.664)" fill="#ffb89c"/>
    <path id="Path_4941" data-name="Path 4941" d="M3087.549,978.333s-2.105-11.653-1.134-15.072l1.227-13.923c.973-3.418,3.627-6.512,6.854-6.156l7.917.872c3.227.356,5.762,4.246,4.79,7.664l-6.432,19.9C3099.8,975.032,3095.85,979.172,3087.549,978.333Z" transform="translate(-1843.617 1613.914)" fill="#ffb89c"/>
    <path id="Path_4942" data-name="Path 4942" d="M3078.743,980.714l-.213-.005c-4.66-.513-8.77-4.855-8.256-9.514l2.4-21.735a2.186,2.186,0,0,1,2.406-1.928l15.8,1.742c1.192.132,3.518,1.384,3.386,2.576l-3.157,18.223C3090.4,976.489,3085.159,981.421,3078.743,980.714Z" transform="translate(-1834.918 1611.531)" fill="#ffb89c"/>
    <ellipse id="Ellipse_189" data-name="Ellipse 189" cx="15.426" cy="10.375" rx="15.426" ry="10.375" transform="translate(1227.79 2555.941) rotate(-17.584)" fill="#333642"/>
    <ellipse id="Ellipse_190" data-name="Ellipse 190" cx="8.361" cy="9.929" rx="8.361" ry="9.929" transform="matrix(0.869, -0.495, 0.495, 0.869, 1247.865, 2563.485)" fill="#333642"/>
    <ellipse id="Ellipse_191" data-name="Ellipse 191" cx="8.361" cy="14.31" rx="8.361" ry="14.31" transform="matrix(0.409, -0.912, 0.912, 0.409, 1238.767, 2562.052)" fill="#333642"/>
    <path id="Path_4943" data-name="Path 4943" d="M3122.793,990.173c-1.325,2.111-3.488,3.137-4.832,2.293a1.849,1.849,0,0,1-.358-.293c-.975-1.02-.87-3.154.324-5.056,1.325-2.111,3.488-3.137,4.831-2.294S3124.117,988.063,3122.793,990.173Z" transform="translate(-1860.428 1591.319)" fill="#ffb89c"/>
    <rect id="Rectangle_566" data-name="Rectangle 566" width="68.762" height="63.996" rx="10" transform="translate(1175.101 2483.515)" fill="#f65066"/>
    <path id="Path_4944" data-name="Path 4944" d="M3019.15,922.813h0a1.676,1.676,0,0,0,1.167-2.056l-1.528-5.542a1.676,1.676,0,0,0-2.056-1.167h0a1.677,1.677,0,0,0-1.167,2.056l1.528,5.542A1.676,1.676,0,0,0,3019.15,922.813Z" transform="translate(-1805.033 1629.842)" fill="#ffb89c"/>
    <path id="Path_4945" data-name="Path 4945" d="M2504.014,1172.916l10.771-14.11a37.114,37.114,0,0,1-16.513-10.312,6.106,6.106,0,0,0-5.2,9.3l-.014.005.144.2c.074.11.152.217.234.322Z" transform="translate(-1519.234 1501.776)" fill="#f65066"/>
    <rect id="Rectangle_567" data-name="Rectangle 567" width="157.047" height="143.431" transform="translate(971.496 2498.447)" fill="#a6bacc"/>
    <path id="Path_4946" data-name="Path 4946" d="M2390.2,1043.153h0a1.693,1.693,0,0,1-2.056-1.215l-.744-2.894a1.7,1.7,0,0,1,1.216-2.057h0a1.694,1.694,0,0,1,2.056,1.216l.743,2.894A1.693,1.693,0,0,1,2390.2,1043.153Z" transform="translate(-1461.994 1562.7)" fill="#ffb89c"/>
    <path id="Path_4947" data-name="Path 4947" d="M2180.119,1024.586c-12.127,13.4-22.627,26.219-23.285,54.378H2147.3c-4.632-31.641,10.292-62.408,26.895-74.556Z" transform="translate(-1330.435 1580.463)" fill="#6b433b"/>
    <path id="Path_4948" data-name="Path 4948" d="M2347.766,1027.131c-.478,6.408-7.183,20.825-13.131,9.088-5.454-10.759-6.954-28.947-20.06-29.4l6.571,28.235s17.41,47.464,37.322-2.834Z" transform="translate(-1422.251 1579.144)" fill="#6b433b"/>
    <path id="Path_4949" data-name="Path 4949" d="M2210.589,1152.368l-4.667,123.089,10.475.216,14.9-107.8h8.843l-1.877-5.666-4.4-12.782Z" transform="translate(-1362.915 1501.271)" fill="#333642"/>
    <path id="Path_4950" data-name="Path 4950" d="M2285.674,1154.807c10.887,41.128,8.506,84.932,2.267,122.668l-9.178-.972c3.125-38.056-3.282-81.311-14.793-122.992Z" transform="translate(-1394.615 1499.037)" fill="#333642"/>
    <path id="Path_4951" data-name="Path 4951" d="M2261.218,1002.722l-18.673-.423-.207-9.395,18.656-.409Z" transform="translate(-1382.801 1586.968)" fill="#ccc9c4"/>
    <path id="Path_4952" data-name="Path 4952" d="M2296.735,1433.343h29.151c.389-3.584-2.7-6.49-6.894-6.49h-22.38Z" transform="translate(-1412.441 1349.763)" fill="#6b433b"/>
    <path id="Path_4954" data-name="Path 4954" d="M2311.785,1423.234l-3.544-3.008h-4.955c-1.606,2.467-4.511,2.159-6.138,0h-.405l-.2,3.008Z" transform="translate(-1412.401 1353.383)" fill="#6b433b"/>
    <path id="Path_4956" data-name="Path 4956" d="M2216.351,1425.464c.046.079-.548-3.481-.548-3.481-.737.27-1.372.147-1.713-1.527l-7.423-.264s-.417,2.285-1.87,1.465l-.182,3.644,2.176-1.5,6.183.547Z" transform="translate(-1362.201 1353.401)" fill="#6b433b"/>
    <path id="Path_4957" data-name="Path 4957" d="M2198.775,1434.269h15.708l.1-2.116a3.757,3.757,0,0,0-3.787-3.97h-7.769a4.2,4.2,0,0,0-4.153,3.97Z" transform="translate(-1359.011 1349.037)" fill="#6b433b"/>
    <path id="Path_4958" data-name="Path 4958" d="M2248.815,981.064c.025,8.891,11.633,9.733,11.609.843l-.027-18.115-11.471-1.615Z" transform="translate(-1386.339 1603.526)" fill="#ffb89c"/>
    <path id="Path_4959" data-name="Path 4959" d="M2236.988,1005.4l1.177,73.337,27.127.145-3.557-75.82-8.437,5.538-7.809.427Z" transform="translate(-1379.88 1581.196)" fill="#e2e2e2"/>
    <path id="Path_4960" data-name="Path 4960" d="M2217.5,996.834s-8.931,3.835-15.625,3.4l-4.751,20.084,2.16,58.527s10.844,12.485,18.177-1.574c8.082-15.5,8.082-49.513,8.082-49.513Z" transform="translate(-1358.106 1584.599)" fill="#6b433b"/>
    <path id="Path_4961" data-name="Path 4961" d="M2287.114,999.983s12.56,2.721,14.007,4.026l4,14.685.324,61.226s-9.166,12.691-13.865-3.226a111.291,111.291,0,0,1-4.128-38.376Z" transform="translate(-1407.254 1582.88)" fill="#6b433b"/>
    <path id="Path_4962" data-name="Path 4962" d="M2228.768,999.811l-4.56,2.338,3.669,10.208,5.74,1.392-3.575,3.276,9.766,29.795.523-17.433C2237.019,1016.646,2236.885,1008.721,2228.768,999.811Z" transform="translate(-1372.901 1582.974)" fill="#875850"/>
    <path id="Path_4963" data-name="Path 4963" d="M2288.192,997.825l4.83,2.949.906,8.161-5.331,1.733,4.439,3.308-6.68,32.632-.321-15.939C2286.238,1013.776,2283.773,1007.871,2288.192,997.825Z" transform="translate(-1406.39 1584.058)" fill="#875850"/>
    <path id="Path_4964" data-name="Path 4964" d="M2248.982,1003.4l-12.094-10-4.47,2.989,8.545,15.956Z" transform="translate(-1377.383 1586.476)" fill="#f2f2f2"/>
    <path id="Path_4965" data-name="Path 4965" d="M2275.435,992.5l4.666,3.02-2.948,14.036-8.245-6.734A24.358,24.358,0,0,0,2275.435,992.5Z" transform="translate(-1397.313 1586.967)" fill="#f2f2f2"/>
    <g id="Group_2039" data-name="Group 2039" transform="translate(853.067 2536.273)">
      <path id="Path_4966" data-name="Path 4966" d="M2285.447,933.177s-.766.966-1.559-2.111c-1.062-4.127-2.1-13.627-4.152-13.964-.571-.094-4.534-.745-2.529-1.79,3.346-1.744,8,3.079,8.153,4.319A40.577,40.577,0,0,1,2285.447,933.177Z" transform="translate(-2254.605 -906.949)" fill="#333642"/>
      <path id="Path_4967" data-name="Path 4967" d="M2252.333,943.739s2.545-11.968,1.65-15.529l-.824-14.417c-.9-3.561-3.539-6.84-6.882-6.576l-8.2.649c-3.343.265-6.085,4.2-5.189,7.763l6.007,20.751C2239.789,939.94,2243.732,944.34,2252.333,943.739Z" transform="translate(-2230.613 -902.725)" fill="#ffb89c"/>
      <path id="Path_4968" data-name="Path 4968" d="M2258,946.6l.221,0c4.828-.382,9.211-4.734,8.829-9.562l-1.781-22.522a2.259,2.259,0,0,0-2.423-2.068l-16.376,1.3c-1.235.1-3.677,1.318-3.579,2.553l2.68,18.919C2246.095,941.869,2251.35,947.129,2258,946.6Z" transform="translate(-2236.168 -905.589)" fill="#ffb89c"/>
      <path id="Path_4969" data-name="Path 4969" d="M2258.48,910.117c-5.832-4.622-20.366.628-22.658,3.37.4,6.189,3.638,11.878-.085,14.211l-3.486-.2-3.7-10.808a8.661,8.661,0,0,1,.75-7.229l1.339-2.255s.027-.251.035-.406c.2-3.841,4.566-6.706,9.116-7.793C2259.052,894.4,2258.48,910.117,2258.48,910.117Z" transform="translate(-2228.086 -897.789)" fill="#333642"/>
      <path id="Path_4970" data-name="Path 4970" d="M2233.652,954.964c1.3,2.222,3.5,3.351,4.916,2.522a1.952,1.952,0,0,0,.381-.292c1.038-1.023,1-3.229-.175-5.232-1.3-2.222-3.5-3.351-4.916-2.522S2232.351,952.742,2233.652,954.964Z" transform="translate(-2230.624 -925.643)" fill="#ffb89c"/>
      <path id="Path_4971" data-name="Path 4971" d="M2239.835,936.628l-5.7-13.1,4.909-8.05,2,20.832A.631.631,0,0,1,2239.835,936.628Z" transform="translate(-2231.388 -907.247)" fill="#333642"/>
      <path id="Path_4972" data-name="Path 4972" d="M2262.259,900.278c-.156-.117-.312-.235-.47-.349-.809.417-3.215.855-9.9-1.715-4.136-1.59-15.689-2-20.106,7.64a16.549,16.549,0,0,0-1.116,5.92h0c.062.01,1.983.327,5.011.5a57.662,57.662,0,0,0,20.28-2.25c1.075-.346,2.145-.738,3.2-1.185a6.1,6.1,0,0,0,1.092-1.014A9.824,9.824,0,0,0,2262.259,900.278Zm-1.162.624c-5.748,9.288-28.566,6.838-28.566,6.838a10.461,10.461,0,0,1,.706-3.743c2.792-6.1,10.1-5.836,12.712-4.83C2251.719,901.385,2261.1,900.9,2261.1,900.9Z" transform="translate(-2229.494 -897.339)" fill="#333642"/>
      <path id="Path_4973" data-name="Path 4973" d="M2234.775,909.273a10.46,10.46,0,0,1,.705-3.743c2.793-6.1,10.1-5.836,12.713-4.83,5.771,2.218,15.148,1.735,15.148,1.735C2257.593,911.724,2234.775,909.273,2234.775,909.273Z" transform="translate(-2231.739 -898.872)" fill="#333642"/>
    </g>
    <rect id="Rectangle_568" data-name="Rectangle 568" width="68.762" height="63.996" rx="10" transform="translate(883.036 2586.317)" fill="#fff"/>
    <g id="Group_2041" data-name="Group 2041" transform="translate(896.655 2591.724)">
      <g id="Group_2040" data-name="Group 2040" transform="translate(0 0)">
        <path id="Path_4974" data-name="Path 4974" d="M2328.848,1069.215l2.236-13.689h-6.967v-7.036h8.343l1.376-8.565h-7.311v-7.113h8.514l2.151-13.307h7.654l-2.15,13.307h7.826l2.237-13.307h7.654l-2.237,13.307h6.881v7.113h-8.085l-1.376,8.565h7.139v7.036h-8.429l-2.15,13.689h-7.74l2.15-13.689h-7.826l-2.15,13.689Zm19.094-20.725,1.376-8.565h-7.827l-1.376,8.565Z" transform="translate(-2324.118 -1019.506)" fill="#568eff"/>
      </g>
    </g>
    <rect id="Rectangle_569" data-name="Rectangle 569" width="11.574" height="15.886" rx="5.787" transform="translate(945.849 2604.657)" fill="#ffb89c"/>
    <circle id="Ellipse_192" data-name="Ellipse 192" cx="13.163" cy="13.163" r="13.163" transform="translate(973.311 2465.311)" fill="#a6bacc"/>
    <path id="Path_4975" data-name="Path 4975" d="M2618.914,755.964h-58.1a1.816,1.816,0,0,1-1.816-1.816h0a1.816,1.816,0,0,1,1.816-1.816h58.1a1.816,1.816,0,0,1,1.815,1.816h0A1.816,1.816,0,0,1,2618.914,755.964Z" transform="translate(-1555.732 1718.123)" fill="#a6bacc"/>
    <path id="Path_4976" data-name="Path 4976" d="M2681.551,787.631H2560.816a1.816,1.816,0,0,1-1.816-1.816h0a1.816,1.816,0,0,1,1.816-1.816h120.735a1.815,1.815,0,0,1,1.815,1.816h0A1.815,1.815,0,0,1,2681.551,787.631Z" transform="translate(-1555.732 1700.829)" fill="#a6bacc"/>
    <path id="Path_4977" data-name="Path 4977" d="M2645.563,1265.275H2494.915a1.815,1.815,0,0,1-1.816-1.815h0a1.815,1.815,0,0,1,1.816-1.816h150.648a1.815,1.815,0,0,1,1.815,1.816h0A1.815,1.815,0,0,1,2645.563,1265.275Z" transform="translate(-1519.743 1439.985)" fill="#a6bacc"/>
    <rect id="Rectangle_570" data-name="Rectangle 570" width="91.037" height="3.631" rx="1.816" transform="translate(973.356 2688.011)" fill="#a6bacc"/>
    <path id="Path_4978" data-name="Path 4978" d="M2645.563,1293.043H2494.915a1.816,1.816,0,0,1-1.816-1.816h0a1.816,1.816,0,0,1,1.816-1.816h150.648a1.815,1.815,0,0,1,1.815,1.816h0A1.815,1.815,0,0,1,2645.563,1293.043Z" transform="translate(-1519.743 1424.821)" fill="#a6bacc"/>
    <rect id="Rectangle_571" data-name="Rectangle 571" width="33.118" height="20.805" rx="9.354" transform="translate(1041.693 2650.487)" fill="#f65066"/>
    <path id="Path_4979" data-name="Path 4979" d="M2650.519,1177.189l-4.686,11.11,16.221-3.538Z" transform="translate(-1603.152 1486.106)" fill="#f65066"/>
    <path id="Path_4980" data-name="Path 4980" d="M2675.849,1163.526h-19.669a1.517,1.517,0,0,1-1.512-1.513h0a1.517,1.517,0,0,1,1.512-1.512h19.669a1.518,1.518,0,0,1,1.513,1.512h0A1.518,1.518,0,0,1,2675.849,1163.526Z" transform="translate(-1607.977 1495.22)" fill="#fff"/>
    <path id="Path_4981" data-name="Path 4981" d="M2675.849,1178.943h-19.669a1.517,1.517,0,0,1-1.512-1.513h0a1.517,1.517,0,0,1,1.512-1.513h19.669a1.518,1.518,0,0,1,1.513,1.513h0A1.518,1.518,0,0,1,2675.849,1178.943Z" transform="translate(-1607.977 1486.801)" fill="#fff"/>
    <path id="Path_4982" data-name="Path 4982" d="M2568.765,1164.236h-13.314a2.124,2.124,0,0,1-2.118-2.118h0a2.124,2.124,0,0,1,2.118-2.118h13.314a2.124,2.124,0,0,1,2.118,2.118h0A2.124,2.124,0,0,1,2568.765,1164.236Z" transform="translate(-1552.638 1495.493)" fill="#a6bacc"/>
    <path id="Path_4983" data-name="Path 4983" d="M2568.765,1185.236h-13.314a2.124,2.124,0,0,1-2.118-2.118h0a2.124,2.124,0,0,1,2.118-2.118h13.314a2.124,2.124,0,0,1,2.118,2.118h0A2.124,2.124,0,0,1,2568.765,1185.236Z" transform="translate(-1552.638 1484.025)" fill="#a6bacc"/>
    <path id="Path_4984" data-name="Path 4984" d="M2746.766,1164.236h-13.314a2.124,2.124,0,0,1-2.118-2.118h0a2.124,2.124,0,0,1,2.118-2.118h13.314a2.124,2.124,0,0,1,2.118,2.118h0A2.124,2.124,0,0,1,2746.766,1164.236Z" transform="translate(-1649.844 1495.493)" fill="#a6bacc"/>
    <path id="Path_4985" data-name="Path 4985" d="M2746.766,1185.236h-13.314a2.124,2.124,0,0,1-2.118-2.118h0a2.124,2.124,0,0,1,2.118-2.118h13.314a2.124,2.124,0,0,1,2.118,2.118h0A2.124,2.124,0,0,1,2746.766,1185.236Z" transform="translate(-1649.844 1484.025)" fill="#a6bacc"/>
    <g id="Group_2042" data-name="Group 2042" transform="translate(1072.638 2662.575)">
      <path id="Path_4986" data-name="Path 4986" d="M2880.544,1454.514c13.294-.045,13.255-12.281-.04-12.237l-5.262.018c-4.312.014-7.8,2.388-7.791,5.3l.009,2.464c.007,2.484,2.995,4.489,6.671,4.476Z" transform="translate(-2796.817 -1321.235)" fill="#333642"/>
      <path id="Path_4987" data-name="Path 4987" d="M2786.954,1267.3l18.439,8.438,1.371,43.72s.126,19.214.042,19.882c-.849,6.753-44.819,8.224-49.819,2.886l-.95-22.768-1.777-23.585,1.783-20.135,17.747-7.953Z" transform="translate(-2735.003 -1225.677)" fill="#266fa5"/>
      <path id="Path_4988" data-name="Path 4988" d="M2751.575,1302.309l-6.04,18.773-10.215-12.135c1.478-8.75,2.932-18.984,10.381-23.062Z" transform="translate(-2724.659 -1235.829)" fill="#3a86d8"/>
      <path id="Path_4989" data-name="Path 4989" d="M2732.2,1349.181c.012-.592,1.4-12.676,1.4-12.676l11.169-.157-1.288,19.773,12.815,3.124s1.561,6.256.89,6.323C2736.242,1367.651,2731.786,1369.651,2732.2,1349.181Z" transform="translate(-2722.942 -1263.386)" fill="#3a86d8"/>
      <path id="Path_4990" data-name="Path 4990" d="M2870.454,1314.8l-9.775,6.763-4.41-17.9,4.723-17.9s6.819,3.083,7.771,10.116S2870.454,1314.8,2870.454,1314.8Z" transform="translate(-2790.71 -1235.764)" fill="#3a86d8"/>
      <path id="Path_4991" data-name="Path 4991" d="M2798.981,1383.147l-9.646.263-7.383,1.392.891,6.323,5.958,2.084c1.983.268,7.117-1.208,8.913-2.561l2.992-2.255Z" transform="translate(-2750.125 -1288.943)" fill="#ffb89c"/>
      <path id="Path_4992" data-name="Path 4992" d="M2858.059,1349.181c-.012-.592-.388-12.661-.388-12.661l-12.184-.172,1.288,19.773-12.816,3.124s-1.561,6.255-.89,6.323C2853.693,1367.651,2858.473,1369.651,2858.059,1349.181Z" transform="translate(-2777.95 -1263.386)" fill="#3a86d8"/>
      <path id="Path_4993" data-name="Path 4993" d="M2799.012,1383.147l9.646.263,7.383,1.392-.889,6.323-6.071,2.052c-1.983.268-7-1.176-8.8-2.529l-2.993-2.255Z" transform="translate(-2758.5 -1288.943)" fill="#ffb89c"/>
      <path id="Path_4994" data-name="Path 4994" d="M2794.4,1382.746h-6.465l-1.815-2.041c1.7-3.041,4.589-1.935,8.28-.229Z" transform="translate(-2752.4 -1286.567)" fill="#ffb89c"/>
      <path id="Path_4995" data-name="Path 4995" d="M2808.825,1382.746h6.466l1.814-2.041c-1.7-3.041-4.589-1.935-8.28-.229Z" transform="translate(-2764.801 -1286.567)" fill="#ffb89c"/>
      <rect id="Rectangle_572" data-name="Rectangle 572" width="18.587" height="1.864" transform="translate(33.717 93.683)" fill="#333642"/>
      <path id="Path_4996" data-name="Path 4996" d="M2789.19,1431.136l1.486-12.731-64.887-19.811c-5.322-1.3-10.467,1.432-11.492,6.111h0c-.927,4.235,2.224,8.625,7.04,9.8C2739.887,1422.913,2762.941,1428.148,2789.19,1431.136Z" transform="translate(-2713.091 -1297.202)" fill="#a6bacc"/>
      <path id="Path_4997" data-name="Path 4997" d="M2721.774,1445.794c-13.295.065-13.234,12.306.061,12.241l5.262-.025c4.312-.021,7.8-2.4,7.782-5.315l-.013-2.465c-.012-2.485-3-4.485-6.68-4.467Z" transform="translate(-2711.833 -1323.138)" fill="#333642"/>
      <path id="Path_4998" data-name="Path 4998" d="M2745.473,1431.259l-2.167-13.437,64.04-21.868c5.268-1.541,10.576.951,11.853,5.566h0c1.156,4.177-1.772,8.693-6.541,10.088C2794.5,1420.824,2771.648,1427.088,2745.473,1431.259Z" transform="translate(-2729.021 -1295.688)" fill="#a6bacc"/>
      <path id="Path_4999" data-name="Path 4999" d="M2786.117,1268.458s0,9.749,10.307,10.279,13.446-7.087,13.055-10.689l-6.5-3.1-10.057-.568Z" transform="translate(-2752.4 -1224.083)" fill="#c3d5e2"/>
      <path id="Path_5000" data-name="Path 5000" d="M2836.912,1230.5a3.277,3.277,0,0,1-3.288,3.3,3.341,3.341,0,0,1-3.342-3.3,3.277,3.277,0,0,1,3.289-3.3A3.341,3.341,0,0,1,2836.912,1230.5Z" transform="translate(-2776.52 -1203.781)" fill="#ffb89c"/>
      <path id="Path_5001" data-name="Path 5001" d="M2783.459,1230.5a3.277,3.277,0,0,1-3.289,3.3,3.341,3.341,0,0,1-3.341-3.3,3.277,3.277,0,0,1,3.289-3.3A3.341,3.341,0,0,1,2783.459,1230.5Z" transform="translate(-2747.328 -1203.781)" fill="#ffb89c"/>
      <path id="Path_5002" data-name="Path 5002" d="M2810.054,1245.984c0-.373-.154-26.751-.154-26.751l-13.391,16.566.083,10.939C2797.917,1252.042,2810.054,1252.382,2810.054,1245.984Z" transform="translate(-2758.075 -1199.429)" fill="#ffb89c"/>
      <path id="Path_5003" data-name="Path 5003" d="M2783.453,1195.212s-1.89,21.994,4.573,26.11c6.273,3.994,14.942,2.607,17.7-2.628s5.707-26.146-2.574-27.765S2787.451,1188.359,2783.453,1195.212Z" transform="translate(-2750.804 -1183.335)" fill="#ffb89c"/>
      <path id="Path_5004" data-name="Path 5004" d="M2775.375,1197.236l3.975,8.061,1.595-8.963c6.055,3.344,13.6,12.93,20.688,6.052l1.513,2.6,4.875-6.613C2808.021,1175.237,2776.921,1174.443,2775.375,1197.236Z" transform="translate(-2746.534 -1178.317)" fill="#333642"/>
      <path id="Path_5005" data-name="Path 5005" d="M2806.637,1193.147h-29.9a1.37,1.37,0,0,1-1.371-1.37v-3.009c-.71-17.874,32-17.128,32.646-.32v3.329A1.37,1.37,0,0,1,2806.637,1193.147Z" transform="translate(-2746.52 -1175.602)" fill="#ffb53e"/>
      <path id="Path_5006" data-name="Path 5006" d="M2819.185,1213.776c-8.687,4.8-29.848,4.484-43.81,0v-2.269h43.81Z" transform="translate(-2746.534 -1195.21)" fill="#ffb53e"/>
    </g>
    <path id="Path_5007" data-name="Path 5007" d="M2903.548,1283.284l-10.881,25.8,50.684-14.734Z" transform="translate(-1737.95 1428.167)" fill="#fff"/>
    <g id="Group_2043" data-name="Group 2043" transform="translate(989.901 2506.941)">
      <path id="Path_5008" data-name="Path 5008" d="M2743.195,1124.912h1.547l-1.145-4.359Z" transform="translate(-2646.223 -989.905)" fill="none"/>
      <path id="Path_5009" data-name="Path 5009" d="M2577.755,1125.944h1.323l-.384-3.5Z" transform="translate(-2555.875 -990.938)" fill="none"/>
      <path id="Path_5010" data-name="Path 5010" d="M2547.21,1068.53Z" transform="translate(-2539.195 -961.496)" fill="#3b464c"/>
      <path id="Path_5011" data-name="Path 5011" d="M2778.608,1068.662Z" transform="translate(-2665.562 -961.568)" fill="#3b464c"/>
      <path id="Path_5012" data-name="Path 5012" d="M2627.227,990.223a45.866,45.866,0,0,0,.733-9.315c-5.659-3.409-10.648-9.714-14.589-16.031.437,11.165,1.387,22.681,1.905,28.457l10.856-4.276Z" transform="translate(-2575.325 -904.89)" fill="#3b464c"/>
      <path id="Path_5013" data-name="Path 5013" d="M2679.967,980.805c-.035,4.185.146,7.645.744,9.707l.852-1.152,13.2,5.8-.8,1.273c1.488.6,3.279,1.335,5.264,2.185-.266-1.92-2.3-16.292-5.948-33.189C2689.3,971.422,2684.625,977.367,2679.967,980.805Z" transform="translate(-2611.691 -905.192)" fill="#3b464c"/>
      <path id="Path_5014" data-name="Path 5014" d="M2652.523,1002.286a16.711,16.711,0,0,1-7.893-2.576,45.81,45.81,0,0,1-.732,9.315l9.574,10.193,7.545-10.205a38.962,38.962,0,0,1-.745-9.707C2657.64,1001.249,2655.014,1002.394,2652.523,1002.286Z" transform="translate(-2591.996 -923.692)" fill="#e0e0e0"/>
      <path id="Path_5015" data-name="Path 5015" d="M2627.682,928.1a16.7,16.7,0,0,0,7.892,2.576c2.491.108,5.118-1.037,7.75-2.98,4.658-3.438,9.333-9.384,13.31-15.376-1.557-7.219-3.408-14.9-5.541-22.263a87.374,87.374,0,0,1-11.467-7.731c-11.041-9.525-12.785-14.146-12.785-14.146l-11.858,14.551c-.5,1.691-.924,3.4-1.257,5.121-1,5.176-1.009,14.565-.631,24.219C2617.035,918.387,2622.023,924.692,2627.682,928.1Z" transform="translate(-2575.047 -852.083)" fill="#e0e0e0"/>
      <path id="Path_5016" data-name="Path 5016" d="M2661.051,836.069c-.257-.023-.527-.036-.81-.04.158.078.316.157.473.242C2660.826,836.2,2660.937,836.132,2661.051,836.069Z" transform="translate(-2600.921 -834.526)" fill="#546066"/>
      <path id="Path_5017" data-name="Path 5017" d="M2732.8,905.7c-.193-.386-.4-.748-.6-1.1l.285,1.074C2732.584,905.678,2732.686,905.689,2732.8,905.7Z" transform="translate(-2640.214 -871.97)" fill="#546066"/>
      <path id="Path_5018" data-name="Path 5018" d="M2642.176,867.844a87.394,87.394,0,0,0,11.466,7.731c-4.188-14.47-9.462-27.73-15.726-33.914-10.111,5.3-17.074,15.491-20.383,26.587l11.858-14.551S2631.135,858.318,2642.176,867.844Z" transform="translate(-2577.598 -837.601)" fill="#647277"/>
      <path id="Path_5019" data-name="Path 5019" d="M2584.832,923.535l-1.026-1.69,1.737-.684c-.518-5.776-1.468-17.292-1.905-28.457-.378-9.654-.372-19.043.631-24.219.333-1.719.754-3.43,1.258-5.121,3.309-11.1,10.271-21.286,20.383-26.587a17.375,17.375,0,0,0-1.679-1.467,8.646,8.646,0,0,1,1.155-.848c-.158-.085-.316-.163-.475-.242-7.75-3.839-16.309.059-22.354,7.33-6.765,8.139-7.657,18.679-8.292,29.243-1.036,17.253-12.286,54.976-15.342,64.964C2568.042,929.814,2579.044,925.556,2584.832,923.535Z" transform="translate(-2545.591 -832.717)" fill="#647277"/>
      <path id="Path_5020" data-name="Path 5020" d="M2658.742,835.609a17.389,17.389,0,0,1,1.678,1.467c6.265,6.184,11.538,19.444,15.727,33.914,2.132,7.366,3.984,15.045,5.541,22.264,3.646,16.9,5.683,31.269,5.948,33.189a169.677,169.677,0,0,1,21.906,11.057c-1.906-8.3-10.647-46.14-17.175-70.784-.1-.36-.191-.719-.285-1.074-1.376-5.166-2.646-9.7-3.722-13.2-1.918-6.232-4.86-13.215-10.743-16.026-5.077-2.426-12.4-4.637-17.384-1.856-.113.063-.224.133-.336.2A8.625,8.625,0,0,0,2658.742,835.609Z" transform="translate(-2600.102 -833.016)" fill="#647277"/>
      <path id="Path_5021" data-name="Path 5021" d="M2643.071,1051.94a9.372,9.372,0,0,0-4.049-5.45l-.033-.021a169.725,169.725,0,0,0-21.9-11.056c-1.985-.85-3.776-1.587-5.265-2.186l-10.809,17.135-9.894-10.676-11.894,10.3-10.432-17.179c-5.788,2.021-16.792,6.279-25.909,12.222l-.051.034a15.5,15.5,0,0,0-6.343,8.578l-6.938,23.353h120.44Z" transform="translate(-2529.55 -941.986)" fill="#4a585e"/>
      <path id="Path_5022" data-name="Path 5022" d="M2673.387,1018.153l-.852,1.152-7.545,10.205,1.167,1.243-1.076.932,9.894,10.676,10.808-17.135.8-1.273Z" transform="translate(-2603.515 -933.984)" fill="#fff"/>
      <path id="Path_5023" data-name="Path 5023" d="M2637,1029.51l-9.574-10.193-1.093-1.164-10.857,4.276-1.737.684,1.027,1.69,10.432,17.179,11.894-10.3,1.076-.932Z" transform="translate(-2575.528 -933.984)" fill="#fff"/>
    </g>
    <rect id="Rectangle_573" data-name="Rectangle 573" width="68.762" height="63.996" rx="10" transform="translate(1150.962 2661.065)" fill="#fff"/>
    <g id="Group_2044" data-name="Group 2044" transform="translate(1160.747 2670.393)">
      <path id="Path_5024" data-name="Path 5024" d="M2952.222,1216.106a23.136,23.136,0,1,1-23.26-23.275C2943.006,1192.564,2952.222,1203.328,2952.222,1216.106Z" transform="translate(-2905.951 -1192.826)" fill="#ffb53e"/>
      <path id="Path_5025" data-name="Path 5025" d="M2933.907,1224.708c0,2.684-1.357,4.859-3.031,4.859s-3.032-2.175-3.032-4.859,1.357-4.859,3.032-4.859S2933.907,1222.024,2933.907,1224.708Z" transform="translate(-2917.906 -1207.584)" fill="#333642"/>
      <ellipse id="Ellipse_193" data-name="Ellipse 193" cx="3.032" cy="4.859" rx="3.032" ry="4.859" transform="translate(30.085 11.998)" fill="#333642"/>
      <path id="Path_5026" data-name="Path 5026" d="M2927.281,1247.2l26.775.283a1.011,1.011,0,0,1,.974,1.235c-.769,3.4-3.895,12.679-15.036,12.093-11.114-.585-13.3-9.281-13.725-12.466A1.009,1.009,0,0,1,2927.281,1247.2Z" transform="translate(-2917.042 -1222.518)" fill="#333642"/>
      <path id="Path_5027" data-name="Path 5027" d="M2937.589,1265.648s4.323-4.267,9.316-4.153c4.958.113,8.57,4.357,8.57,4.357S2947.906,1272.131,2937.589,1265.648Z" transform="translate(-2923.229 -1230.326)" fill="#f44444"/>
    </g>
    <path id="Path_5028" data-name="Path 5028" d="M2984.407,849.338l20.217-26.487a69.679,69.679,0,0,1-31-19.357,11.461,11.461,0,0,0-9.763,17.465l-.024.01.269.372c.139.207.287.408.439.6Z" transform="translate(-1775.904 1690.182)" fill="#fff"/>
  </g>
</svg>
